G04*
G04 #@! TF.GenerationSoftware,Altium Limited,Altium Designer,24.1.2 (44)*
G04*
G04 Layer_Color=6710886*
%FSLAX44Y44*%
%MOMM*%
G71*
G04*
G04 #@! TF.SameCoordinates,0D6E4D87-8B28-4C6E-8252-5E0228009A92*
G04*
G04*
G04 #@! TF.FilePolarity,Positive*
G04*
G01*
G75*
G04:AMPARAMS|DCode=65|XSize=0.9mm|YSize=0.7mm|CornerRadius=0.035mm|HoleSize=0mm|Usage=FLASHONLY|Rotation=0.000|XOffset=0mm|YOffset=0mm|HoleType=Round|Shape=RoundedRectangle|*
%AMROUNDEDRECTD65*
21,1,0.9000,0.6300,0,0,0.0*
21,1,0.8300,0.7000,0,0,0.0*
1,1,0.0700,0.4150,-0.3150*
1,1,0.0700,-0.4150,-0.3150*
1,1,0.0700,-0.4150,0.3150*
1,1,0.0700,0.4150,0.3150*
%
%ADD65ROUNDEDRECTD65*%
G04:AMPARAMS|DCode=69|XSize=0.9mm|YSize=0.7mm|CornerRadius=0.035mm|HoleSize=0mm|Usage=FLASHONLY|Rotation=270.000|XOffset=0mm|YOffset=0mm|HoleType=Round|Shape=RoundedRectangle|*
%AMROUNDEDRECTD69*
21,1,0.9000,0.6300,0,0,270.0*
21,1,0.8300,0.7000,0,0,270.0*
1,1,0.0700,-0.3150,-0.4150*
1,1,0.0700,-0.3150,0.4150*
1,1,0.0700,0.3150,0.4150*
1,1,0.0700,0.3150,-0.4150*
%
%ADD69ROUNDEDRECTD69*%
%ADD72R,2.2700X2.4300*%
%ADD186R,1.2954X1.9050*%
%ADD187R,0.6604X1.5494*%
G04:AMPARAMS|DCode=188|XSize=1.5mm|YSize=3.4mm|CornerRadius=0.375mm|HoleSize=0mm|Usage=FLASHONLY|Rotation=270.000|XOffset=0mm|YOffset=0mm|HoleType=Round|Shape=RoundedRectangle|*
%AMROUNDEDRECTD188*
21,1,1.5000,2.6500,0,0,270.0*
21,1,0.7500,3.4000,0,0,270.0*
1,1,0.7500,-1.3250,-0.3750*
1,1,0.7500,-1.3250,0.3750*
1,1,0.7500,1.3250,0.3750*
1,1,0.7500,1.3250,-0.3750*
%
%ADD188ROUNDEDRECTD188*%
%ADD189R,8.0000X10.7000*%
%ADD190R,1.5000X2.7000*%
G04:AMPARAMS|DCode=191|XSize=2.7mm|YSize=1.5mm|CornerRadius=0mm|HoleSize=0mm|Usage=FLASHONLY|Rotation=45.000|XOffset=0mm|YOffset=0mm|HoleType=Round|Shape=Rectangle|*
%AMROTATEDRECTD191*
4,1,4,-0.4243,-1.4849,-1.4849,-0.4243,0.4243,1.4849,1.4849,0.4243,-0.4243,-1.4849,0.0*
%
%ADD191ROTATEDRECTD191*%

G04:AMPARAMS|DCode=192|XSize=10.7mm|YSize=8mm|CornerRadius=0mm|HoleSize=0mm|Usage=FLASHONLY|Rotation=240.000|XOffset=0mm|YOffset=0mm|HoleType=Round|Shape=Rectangle|*
%AMROTATEDRECTD192*
4,1,4,-0.7891,6.6332,6.1391,2.6332,0.7891,-6.6332,-6.1391,-2.6332,-0.7891,6.6332,0.0*
%
%ADD192ROTATEDRECTD192*%

G04:AMPARAMS|DCode=193|XSize=1mm|YSize=3.4mm|CornerRadius=0.25mm|HoleSize=0mm|Usage=FLASHONLY|Rotation=240.000|XOffset=0mm|YOffset=0mm|HoleType=Round|Shape=RoundedRectangle|*
%AMROUNDEDRECTD193*
21,1,1.0000,2.9000,0,0,240.0*
21,1,0.5000,3.4000,0,0,240.0*
1,1,0.5000,-1.3807,0.5085*
1,1,0.5000,-1.1307,0.9415*
1,1,0.5000,1.3807,-0.5085*
1,1,0.5000,1.1307,-0.9415*
%
%ADD193ROUNDEDRECTD193*%
%ADD194R,10.7000X8.0000*%
G04:AMPARAMS|DCode=195|XSize=1mm|YSize=3.4mm|CornerRadius=0.25mm|HoleSize=0mm|Usage=FLASHONLY|Rotation=180.000|XOffset=0mm|YOffset=0mm|HoleType=Round|Shape=RoundedRectangle|*
%AMROUNDEDRECTD195*
21,1,1.0000,2.9000,0,0,180.0*
21,1,0.5000,3.4000,0,0,180.0*
1,1,0.5000,-0.2500,1.4500*
1,1,0.5000,0.2500,1.4500*
1,1,0.5000,0.2500,-1.4500*
1,1,0.5000,-0.2500,-1.4500*
%
%ADD195ROUNDEDRECTD195*%
G04:AMPARAMS|DCode=196|XSize=10.7mm|YSize=8mm|CornerRadius=0mm|HoleSize=0mm|Usage=FLASHONLY|Rotation=120.000|XOffset=0mm|YOffset=0mm|HoleType=Round|Shape=Rectangle|*
%AMROTATEDRECTD196*
4,1,4,6.1391,-2.6332,-0.7891,-6.6332,-6.1391,2.6332,0.7891,6.6332,6.1391,-2.6332,0.0*
%
%ADD196ROTATEDRECTD196*%

G04:AMPARAMS|DCode=197|XSize=1mm|YSize=3.4mm|CornerRadius=0.25mm|HoleSize=0mm|Usage=FLASHONLY|Rotation=120.000|XOffset=0mm|YOffset=0mm|HoleType=Round|Shape=RoundedRectangle|*
%AMROUNDEDRECTD197*
21,1,1.0000,2.9000,0,0,120.0*
21,1,0.5000,3.4000,0,0,120.0*
1,1,0.5000,1.1307,0.9415*
1,1,0.5000,1.3807,0.5085*
1,1,0.5000,-1.1307,-0.9415*
1,1,0.5000,-1.3807,-0.5085*
%
%ADD197ROUNDEDRECTD197*%
G04:AMPARAMS|DCode=198|XSize=1mm|YSize=3.4mm|CornerRadius=0.25mm|HoleSize=0mm|Usage=FLASHONLY|Rotation=90.000|XOffset=0mm|YOffset=0mm|HoleType=Round|Shape=RoundedRectangle|*
%AMROUNDEDRECTD198*
21,1,1.0000,2.9000,0,0,90.0*
21,1,0.5000,3.4000,0,0,90.0*
1,1,0.5000,1.4500,0.2500*
1,1,0.5000,1.4500,-0.2500*
1,1,0.5000,-1.4500,-0.2500*
1,1,0.5000,-1.4500,0.2500*
%
%ADD198ROUNDEDRECTD198*%
G04:AMPARAMS|DCode=199|XSize=2.7mm|YSize=1.5mm|CornerRadius=0mm|HoleSize=0mm|Usage=FLASHONLY|Rotation=135.000|XOffset=0mm|YOffset=0mm|HoleType=Round|Shape=Rectangle|*
%AMROTATEDRECTD199*
4,1,4,1.4849,-0.4243,0.4243,-1.4849,-1.4849,0.4243,-0.4243,1.4849,1.4849,-0.4243,0.0*
%
%ADD199ROTATEDRECTD199*%

D65*
X-64940Y-293180D02*
D03*
Y-309180D02*
D03*
X-15302Y-309540D02*
D03*
Y-293540D02*
D03*
X-31822Y-309180D02*
D03*
Y-293180D02*
D03*
X-48240Y-309180D02*
D03*
Y-293180D02*
D03*
X-81822Y-309180D02*
D03*
Y-293180D02*
D03*
X-461770Y-413231D02*
D03*
Y-397231D02*
D03*
X-437573Y-413231D02*
D03*
Y-397231D02*
D03*
X-17305Y-83808D02*
D03*
Y-67808D02*
D03*
X-69820Y-36820D02*
D03*
Y-20820D02*
D03*
X-52380Y-36690D02*
D03*
Y-20690D02*
D03*
X21790Y-67349D02*
D03*
Y-83349D02*
D03*
X2100Y-67679D02*
D03*
Y-83679D02*
D03*
D69*
X-90559Y-183520D02*
D03*
X-74559D02*
D03*
X-74510Y-199930D02*
D03*
X-90510D02*
D03*
X-74869Y-167110D02*
D03*
X-90869D02*
D03*
X-74780Y-150590D02*
D03*
X-90780D02*
D03*
X38001Y-4310D02*
D03*
X54001D02*
D03*
X38001Y-21440D02*
D03*
X54001D02*
D03*
X-50001Y-195250D02*
D03*
X-34001D02*
D03*
Y-211342D02*
D03*
X-50001D02*
D03*
X105501Y-124404D02*
D03*
X121501D02*
D03*
X121500Y-140160D02*
D03*
X105500D02*
D03*
X-49999Y-149418D02*
D03*
X-33999D02*
D03*
X105501Y-108583D02*
D03*
X121501D02*
D03*
D72*
X-396530Y-421644D02*
D03*
Y-363224D02*
D03*
D186*
X-74900Y-242012D02*
D03*
X-18900D02*
D03*
D187*
X-61900Y-267812D02*
D03*
X-51900D02*
D03*
X-31900D02*
D03*
X-41900D02*
D03*
D188*
X647500Y-37032D02*
D03*
Y-88340D02*
D03*
X647100Y93790D02*
D03*
Y42482D02*
D03*
D189*
X537450Y-64174D02*
D03*
X536610Y66068D02*
D03*
X-550000Y-62000D02*
D03*
X-549820Y70430D02*
D03*
D190*
X752474Y130224D02*
D03*
X802474D02*
D03*
X761716Y64182D02*
D03*
X811716D02*
D03*
D191*
X-545618Y570833D02*
D03*
X-580973Y606189D02*
D03*
X-534998Y510329D02*
D03*
X-570353Y545685D02*
D03*
D192*
X507361Y-242660D02*
D03*
D193*
X615984Y-274303D02*
D03*
X590330Y-318737D02*
D03*
D194*
X85628Y-549758D02*
D03*
X-44014Y-549380D02*
D03*
D195*
X113250Y-658898D02*
D03*
X61942D02*
D03*
X-68270Y-658890D02*
D03*
X-16962D02*
D03*
D196*
X-507543Y-238182D02*
D03*
D197*
X-588833Y-316249D02*
D03*
X-614487Y-271815D02*
D03*
D198*
X-659103Y-37231D02*
D03*
Y-88539D02*
D03*
X-658480Y94300D02*
D03*
Y42992D02*
D03*
D199*
X-577365Y-538028D02*
D03*
X-612721Y-573383D02*
D03*
X-517402Y-529768D02*
D03*
X-552757Y-565123D02*
D03*
M02*
