G04*
G04 #@! TF.GenerationSoftware,Altium Limited,Altium Designer,24.1.2 (44)*
G04*
G04 Layer_Color=128*
%FSLAX44Y44*%
%MOMM*%
G71*
G04*
G04 #@! TF.SameCoordinates,0D6E4D87-8B28-4C6E-8252-5E0228009A92*
G04*
G04*
G04 #@! TF.FilePolarity,Positive*
G04*
G01*
G75*
%ADD15C,0.1270*%
D15*
X294642Y-477700D02*
X303278D01*
X298960Y-482018D02*
Y-473382D01*
X294642Y-452300D02*
X303278D01*
X298960Y-456618D02*
Y-447982D01*
X-168718Y-246000D02*
X-160082D01*
X-164400Y-250318D02*
Y-241682D01*
X-117918Y-246000D02*
X-109282D01*
X-113600Y-250318D02*
Y-241682D01*
X-143318Y-246000D02*
X-134682D01*
X-139000Y-250318D02*
Y-241682D01*
X73310Y356240D02*
X89810D01*
X81560Y347990D02*
Y364490D01*
X112910Y356240D02*
X129410D01*
X121160Y347990D02*
Y364490D01*
X-5107Y46990D02*
X5093D01*
X-7Y41890D02*
Y52090D01*
X-5107Y21590D02*
X5093D01*
X-7Y16490D02*
Y26690D01*
X45693Y46990D02*
X55893D01*
X50793Y41890D02*
Y52090D01*
X20293Y46990D02*
X30493D01*
X25393Y41890D02*
Y52090D01*
X-30507Y46990D02*
X-20307D01*
X-25407Y41890D02*
Y52090D01*
X-55907Y46990D02*
X-45707D01*
X-50807Y41890D02*
Y52090D01*
X-55907Y21590D02*
X-45707D01*
X-50807Y16490D02*
Y26690D01*
X-30507Y21590D02*
X-20307D01*
X-25407Y16490D02*
Y26690D01*
X20293Y21590D02*
X30493D01*
X25393Y16490D02*
Y26690D01*
X45693Y21590D02*
X55893D01*
X50793Y16490D02*
Y26690D01*
X-460430Y-307340D02*
X-451430D01*
X-455930Y-311840D02*
Y-302840D01*
X-231830Y-459740D02*
X-222830D01*
X-227330Y-464240D02*
Y-455240D01*
X-257230Y-459740D02*
X-248230D01*
X-252730Y-464240D02*
Y-455240D01*
X-409630Y-459740D02*
X-400630D01*
X-405130Y-464240D02*
Y-455240D01*
X-460430Y-459740D02*
X-451430D01*
X-455930Y-464240D02*
Y-455240D01*
X-231830Y-307340D02*
X-222830D01*
X-227330Y-311840D02*
Y-302840D01*
X-257230Y-307340D02*
X-248230D01*
X-252730Y-311840D02*
Y-302840D01*
X80520Y87440D02*
X88520D01*
X84520Y83440D02*
Y91440D01*
X-99480Y87440D02*
X-91480D01*
X-95479Y83440D02*
Y91440D01*
X-79479Y87440D02*
X-71480D01*
X-75479Y83440D02*
Y91440D01*
X-59479Y87440D02*
X-51480D01*
X-55479Y83440D02*
Y91440D01*
X-39480Y87440D02*
X-31480D01*
X-35480Y83440D02*
Y91440D01*
X-19480Y87440D02*
X-11480D01*
X-15480Y83440D02*
Y91440D01*
X520Y87440D02*
X8520D01*
X4520Y83440D02*
Y91440D01*
X20520Y87440D02*
X28520D01*
X24520Y83440D02*
Y91440D01*
X40520Y87440D02*
X48520D01*
X44520Y83440D02*
Y91440D01*
X60520Y87440D02*
X68520D01*
X64520Y83440D02*
Y91440D01*
X80522Y307438D02*
X88521D01*
X84522Y303438D02*
Y311438D01*
X60522Y307438D02*
X68522D01*
X64522Y303438D02*
Y311438D01*
X40522Y307438D02*
X48522D01*
X44522Y303438D02*
Y311438D01*
X20522Y307438D02*
X28522D01*
X24522Y303438D02*
Y311438D01*
X522Y307438D02*
X8522D01*
X4522Y303438D02*
Y311438D01*
X-19478Y307438D02*
X-11478D01*
X-15478Y303438D02*
Y311438D01*
X-39478Y307438D02*
X-31478D01*
X-35478Y303438D02*
Y311438D01*
X-59478Y307438D02*
X-51478D01*
X-55478Y303438D02*
Y311438D01*
X-79478Y307438D02*
X-71478D01*
X-75478Y303438D02*
Y311438D01*
X-99478Y307438D02*
X-91478D01*
X-95478Y303438D02*
Y311438D01*
X863092Y235525D02*
X894893D01*
X878992Y219625D02*
Y251425D01*
X875492Y258385D02*
X882493D01*
X878992Y254885D02*
Y261885D01*
X852633Y235525D02*
X859632D01*
X856133Y232025D02*
Y239025D01*
X875492Y212665D02*
X882493D01*
X878992Y209165D02*
Y216165D01*
X898353Y235525D02*
X905352D01*
X901852Y232025D02*
Y239025D01*
X891657Y251690D02*
X898657D01*
X895157Y248190D02*
Y255190D01*
X859328Y251690D02*
X866328D01*
X862828Y248190D02*
Y255190D01*
X859328Y219361D02*
X866328D01*
X862828Y215861D02*
Y222861D01*
X891657Y219361D02*
X898657D01*
X895157Y215861D02*
Y222861D01*
X-430000Y727461D02*
X-410000D01*
X-420000Y717461D02*
Y737461D01*
X-380000Y640859D02*
X-360000D01*
X-370000Y630859D02*
Y650859D01*
X215496Y-504110D02*
X225696D01*
X220596Y-509210D02*
Y-499010D01*
X215496Y-478710D02*
X225696D01*
X220596Y-483810D02*
Y-473610D01*
X240896Y-478710D02*
X251096D01*
X245996Y-483810D02*
Y-473610D01*
X215496Y-453310D02*
X225696D01*
X220596Y-458410D02*
Y-448210D01*
X240896Y-453310D02*
X251096D01*
X245996Y-458410D02*
Y-448210D01*
X240896Y-504110D02*
X251096D01*
X245996Y-509210D02*
Y-499010D01*
X311929Y-382000D02*
X320565D01*
X316247Y-386318D02*
Y-377682D01*
X235729Y-382000D02*
X244365D01*
X240047Y-386318D02*
Y-377682D01*
X261129Y-382000D02*
X269765D01*
X265447Y-386318D02*
Y-377682D01*
X286529Y-382000D02*
X295165D01*
X290847Y-386318D02*
Y-377682D01*
X151639Y-382000D02*
X160275D01*
X155957Y-386318D02*
Y-377682D01*
X126239Y-382000D02*
X134875D01*
X130557Y-386318D02*
Y-377682D01*
X100839Y-382000D02*
X109475D01*
X105157Y-386318D02*
Y-377682D01*
X177039Y-382000D02*
X185675D01*
X181357Y-386318D02*
Y-377682D01*
X358912Y-452300D02*
X367548D01*
X363230Y-456618D02*
Y-447982D01*
X358912Y-477700D02*
X367548D01*
X363230Y-482018D02*
Y-473382D01*
X180342Y384750D02*
X188978D01*
X184660Y380432D02*
Y389068D01*
X180342Y359350D02*
X188978D01*
X184660Y355032D02*
Y363668D01*
X-17890Y356470D02*
X-1390D01*
X-9640Y348220D02*
Y364720D01*
X21710Y356470D02*
X38210D01*
X29960Y348220D02*
Y364720D01*
X-68100Y356240D02*
X-51600D01*
X-59850Y347990D02*
Y364490D01*
X-107700Y356240D02*
X-91200D01*
X-99450Y347990D02*
Y364490D01*
X-251425Y878992D02*
X-219625D01*
X-235525Y863092D02*
Y894893D01*
X-239025Y901852D02*
X-232025D01*
X-235525Y898353D02*
Y905352D01*
X-261885Y878992D02*
X-254885D01*
X-258385Y875492D02*
Y882493D01*
X-239025Y856133D02*
X-232025D01*
X-235525Y852633D02*
Y859632D01*
X-216165Y878992D02*
X-209165D01*
X-212665Y875492D02*
Y882493D01*
X-222861Y895157D02*
X-215861D01*
X-219361Y891657D02*
Y898657D01*
X-255190Y895157D02*
X-248190D01*
X-251690Y891657D02*
Y898657D01*
X-255190Y862828D02*
X-248190D01*
X-251690Y859328D02*
Y866328D01*
X-222861Y862828D02*
X-215861D01*
X-219361Y859328D02*
Y866328D01*
X717461Y420000D02*
X737461D01*
X727461Y410000D02*
Y430000D01*
X630859Y370000D02*
X650859D01*
X640859Y360000D02*
Y380000D01*
X611952Y168232D02*
X643752D01*
X627852Y152332D02*
Y184132D01*
X624352Y191092D02*
X631352D01*
X627852Y187592D02*
Y194592D01*
X601492Y168232D02*
X608492D01*
X604992Y164732D02*
Y171732D01*
X624352Y145372D02*
X631352D01*
X627852Y141872D02*
Y148872D01*
X647212Y168232D02*
X654212D01*
X650712Y164732D02*
Y171732D01*
X640516Y184397D02*
X647516D01*
X644016Y180897D02*
Y187897D01*
X608187Y184397D02*
X615187D01*
X611687Y180897D02*
Y187897D01*
X608187Y152068D02*
X615187D01*
X611687Y148568D02*
Y155568D01*
X640516Y152068D02*
X647516D01*
X644016Y148568D02*
Y155568D01*
X830000Y0D02*
X850000D01*
X840000Y-10000D02*
Y10000D01*
X730000Y-0D02*
X750000D01*
X740000Y-10000D02*
Y10000D01*
X-10000Y740000D02*
X10000D01*
X0Y730000D02*
Y750000D01*
X-10000Y840000D02*
X10000D01*
X0Y830000D02*
Y850000D01*
X152332Y627852D02*
X184132D01*
X168232Y611952D02*
Y643752D01*
X164732Y650712D02*
X171732D01*
X168232Y647212D02*
Y654212D01*
X141873Y627852D02*
X148872D01*
X145372Y624352D02*
Y631352D01*
X164732Y604992D02*
X171732D01*
X168232Y601492D02*
Y608492D01*
X187592Y627852D02*
X194592D01*
X191092Y624352D02*
Y631352D01*
X180897Y644016D02*
X187897D01*
X184397Y640516D02*
Y647516D01*
X148568Y644016D02*
X155568D01*
X152068Y640516D02*
Y647516D01*
X148568Y611687D02*
X155568D01*
X152068Y608187D02*
Y615187D01*
X180897Y611687D02*
X187897D01*
X184397Y608187D02*
Y615187D01*
X627567Y643467D02*
X659367D01*
X643467Y627567D02*
Y659367D01*
X639967Y666327D02*
X646967D01*
X643467Y662827D02*
Y669827D01*
X617107Y643467D02*
X624107D01*
X620607Y639967D02*
Y646967D01*
X639967Y620607D02*
X646967D01*
X643467Y617107D02*
Y624107D01*
X662827Y643467D02*
X669827D01*
X666327Y639967D02*
Y646967D01*
X656132Y659632D02*
X663132D01*
X659632Y656132D02*
Y663132D01*
X623803Y659632D02*
X630803D01*
X627303Y656132D02*
Y663132D01*
X623803Y627303D02*
X630803D01*
X627303Y623803D02*
Y630803D01*
X656132Y627303D02*
X663132D01*
X659632Y623803D02*
Y630803D01*
X360000Y640859D02*
X380000D01*
X370000Y630859D02*
Y650859D01*
X410000Y727461D02*
X430000D01*
X420000Y717461D02*
Y737461D01*
X219625Y878992D02*
X251425D01*
X235525Y863092D02*
Y894893D01*
X232025Y901852D02*
X239025D01*
X235525Y898353D02*
Y905352D01*
X209165Y878992D02*
X216165D01*
X212665Y875492D02*
Y882493D01*
X232025Y856133D02*
X239025D01*
X235525Y852633D02*
Y859632D01*
X254885Y878992D02*
X261885D01*
X258385Y875492D02*
Y882493D01*
X248190Y895157D02*
X255190D01*
X251690Y891657D02*
Y898657D01*
X215861Y895157D02*
X222861D01*
X219361Y891657D02*
Y898657D01*
X215861Y862828D02*
X222861D01*
X219361Y859328D02*
Y866328D01*
X248190Y862828D02*
X255190D01*
X251690Y859328D02*
Y866328D01*
X219625Y-878992D02*
X251425D01*
X235525Y-894893D02*
Y-863092D01*
X232025Y-856133D02*
X239025D01*
X235525Y-859632D02*
Y-852633D01*
X209165Y-878992D02*
X216165D01*
X212665Y-882493D02*
Y-875492D01*
X232025Y-901852D02*
X239025D01*
X235525Y-905352D02*
Y-898353D01*
X254885Y-878992D02*
X261885D01*
X258385Y-882493D02*
Y-875492D01*
X248190Y-862828D02*
X255190D01*
X251690Y-866328D02*
Y-859328D01*
X215861Y-862828D02*
X222861D01*
X219361Y-866328D02*
Y-859328D01*
X215861Y-895157D02*
X222861D01*
X219361Y-898657D02*
Y-891657D01*
X248190Y-895157D02*
X255190D01*
X251690Y-898657D02*
Y-891657D01*
X360000Y-640859D02*
X380000D01*
X370000Y-650859D02*
Y-630859D01*
X410000Y-727461D02*
X430000D01*
X420000Y-737461D02*
Y-717461D01*
X656132Y-659632D02*
X663132D01*
X659632Y-663132D02*
Y-656132D01*
X623803Y-659632D02*
X630803D01*
X627303Y-663132D02*
Y-656132D01*
X623803Y-627303D02*
X630803D01*
X627303Y-630803D02*
Y-623803D01*
X656132Y-627303D02*
X663132D01*
X659632Y-630803D02*
Y-623803D01*
X662827Y-643467D02*
X669827D01*
X666327Y-646967D02*
Y-639967D01*
X639967Y-666327D02*
X646967D01*
X643467Y-669827D02*
Y-662827D01*
X617107Y-643467D02*
X624107D01*
X620607Y-646967D02*
Y-639967D01*
X639967Y-620607D02*
X646967D01*
X643467Y-624107D02*
Y-617107D01*
X627567Y-643467D02*
X659367D01*
X643467Y-659367D02*
Y-627567D01*
X443719Y-459619D02*
X475519D01*
X459619Y-475519D02*
Y-443719D01*
X456120Y-436759D02*
X463120D01*
X459620Y-440259D02*
Y-433259D01*
X433260Y-459619D02*
X440260D01*
X436760Y-463119D02*
Y-456119D01*
X456120Y-482479D02*
X463120D01*
X459620Y-485979D02*
Y-478979D01*
X478979Y-459619D02*
X485979D01*
X482479Y-463119D02*
Y-456119D01*
X472284Y-443455D02*
X479284D01*
X475784Y-446955D02*
Y-439955D01*
X439955Y-443455D02*
X446955D01*
X443455Y-446955D02*
Y-439955D01*
X439955Y-475784D02*
X446955D01*
X443455Y-479284D02*
Y-472284D01*
X472284Y-475784D02*
X479284D01*
X475784Y-479284D02*
Y-472284D01*
X630859Y-370000D02*
X650859D01*
X640859Y-380000D02*
Y-360000D01*
X717461Y-420000D02*
X737461D01*
X727461Y-430000D02*
Y-410000D01*
X863092Y-235525D02*
X894893D01*
X878992Y-251425D02*
Y-219625D01*
X875492Y-212665D02*
X882493D01*
X878992Y-216165D02*
Y-209165D01*
X852633Y-235525D02*
X859632D01*
X856133Y-239025D02*
Y-232025D01*
X875492Y-258385D02*
X882493D01*
X878992Y-261885D02*
Y-254885D01*
X898353Y-235525D02*
X905352D01*
X901852Y-239025D02*
Y-232025D01*
X891657Y-219361D02*
X898657D01*
X895157Y-222861D02*
Y-215861D01*
X859328Y-219361D02*
X866328D01*
X862828Y-222861D02*
Y-215861D01*
X859328Y-251690D02*
X866328D01*
X862828Y-255190D02*
Y-248190D01*
X891657Y-251690D02*
X898657D01*
X895157Y-255190D02*
Y-248190D01*
X-10000Y-740000D02*
X10000D01*
X-0Y-750000D02*
Y-730000D01*
X-10000Y-840000D02*
X10000D01*
X0Y-850000D02*
Y-830000D01*
X-750000Y0D02*
X-730000D01*
X-740000Y-10000D02*
Y10000D01*
X-850000Y0D02*
X-830000D01*
X-840000Y-10000D02*
Y10000D01*
X-643752Y-168232D02*
X-611952D01*
X-627852Y-184132D02*
Y-152332D01*
X-631352Y-145372D02*
X-624352D01*
X-627852Y-148872D02*
Y-141872D01*
X-654212Y-168232D02*
X-647212D01*
X-650712Y-171732D02*
Y-164732D01*
X-631352Y-191092D02*
X-624352D01*
X-627852Y-194592D02*
Y-187592D01*
X-608492Y-168232D02*
X-601492D01*
X-604992Y-171732D02*
Y-164732D01*
X-615187Y-152068D02*
X-608187D01*
X-611687Y-155568D02*
Y-148568D01*
X-647516Y-152068D02*
X-640516D01*
X-644016Y-155568D02*
Y-148568D01*
X-647516Y-184397D02*
X-640516D01*
X-644016Y-187897D02*
Y-180897D01*
X-615187Y-184397D02*
X-608187D01*
X-611687Y-187897D02*
Y-180897D01*
X-630803Y-659632D02*
X-623803D01*
X-627303Y-663132D02*
Y-656132D01*
X-663132Y-659632D02*
X-656132D01*
X-659632Y-663132D02*
Y-656132D01*
X-663132Y-627303D02*
X-656132D01*
X-659632Y-630803D02*
Y-623803D01*
X-630803Y-627303D02*
X-623803D01*
X-627303Y-630803D02*
Y-623803D01*
X-624107Y-643467D02*
X-617107D01*
X-620607Y-646967D02*
Y-639967D01*
X-646967Y-666327D02*
X-639967D01*
X-643467Y-669827D02*
Y-662827D01*
X-669827Y-643467D02*
X-662827D01*
X-666327Y-646967D02*
Y-639967D01*
X-646967Y-620607D02*
X-639967D01*
X-643467Y-624107D02*
Y-617107D01*
X-659367Y-643467D02*
X-627567D01*
X-643467Y-659367D02*
Y-627567D01*
X-650859Y-370000D02*
X-630859D01*
X-640859Y-380000D02*
Y-360000D01*
X-737461Y-420000D02*
X-717461D01*
X-727461Y-430000D02*
Y-410000D01*
X-380000Y-640859D02*
X-360000D01*
X-370000Y-650859D02*
Y-630859D01*
X-430000Y-727461D02*
X-410000D01*
X-420000Y-737461D02*
Y-717461D01*
X-222861Y-895157D02*
X-215861D01*
X-219361Y-898657D02*
Y-891657D01*
X-255190Y-895157D02*
X-248190D01*
X-251690Y-898657D02*
Y-891657D01*
X-255190Y-862828D02*
X-248190D01*
X-251690Y-866328D02*
Y-859328D01*
X-222861Y-862828D02*
X-215861D01*
X-219361Y-866328D02*
Y-859328D01*
X-216165Y-878992D02*
X-209165D01*
X-212665Y-882493D02*
Y-875492D01*
X-239025Y-901852D02*
X-232025D01*
X-235525Y-905352D02*
Y-898353D01*
X-261885Y-878992D02*
X-254885D01*
X-258385Y-882493D02*
Y-875492D01*
X-239025Y-856133D02*
X-232025D01*
X-235525Y-859632D02*
Y-852633D01*
X-251425Y-878992D02*
X-219625D01*
X-235525Y-894893D02*
Y-863092D01*
X-184132Y-627852D02*
X-152332D01*
X-168232Y-643752D02*
Y-611952D01*
X-171732Y-604992D02*
X-164732D01*
X-168232Y-608492D02*
Y-601492D01*
X-194592Y-627852D02*
X-187592D01*
X-191092Y-631352D02*
Y-624352D01*
X-171732Y-650712D02*
X-164732D01*
X-168232Y-654212D02*
Y-647212D01*
X-148872Y-627852D02*
X-141872D01*
X-145372Y-631352D02*
Y-624352D01*
X-155568Y-611687D02*
X-148568D01*
X-152068Y-615187D02*
Y-608187D01*
X-187897Y-611687D02*
X-180897D01*
X-184397Y-615187D02*
Y-608187D01*
X-187897Y-644016D02*
X-180897D01*
X-184397Y-647516D02*
Y-640516D01*
X-155568Y-644016D02*
X-148568D01*
X-152068Y-647516D02*
Y-640516D01*
X-894893Y235525D02*
X-863092D01*
X-878992Y219625D02*
Y251425D01*
X-882493Y258385D02*
X-875492D01*
X-878992Y254885D02*
Y261885D01*
X-905352Y235525D02*
X-898353D01*
X-901852Y232025D02*
Y239025D01*
X-882493Y212665D02*
X-875492D01*
X-878992Y209165D02*
Y216165D01*
X-859632Y235525D02*
X-852633D01*
X-856133Y232025D02*
Y239025D01*
X-866328Y251690D02*
X-859328D01*
X-862828Y248190D02*
Y255190D01*
X-898657Y251690D02*
X-891657D01*
X-895157Y248190D02*
Y255190D01*
X-898657Y219361D02*
X-891657D01*
X-895157Y215861D02*
Y222861D01*
X-866328Y219361D02*
X-859328D01*
X-862828Y215861D02*
Y222861D01*
X-630803Y627303D02*
X-623803D01*
X-627303Y623803D02*
Y630803D01*
X-663132Y627303D02*
X-656132D01*
X-659632Y623803D02*
Y630803D01*
X-663132Y659632D02*
X-656132D01*
X-659632Y656132D02*
Y663132D01*
X-630803Y659632D02*
X-623803D01*
X-627303Y656132D02*
Y663132D01*
X-624107Y643467D02*
X-617107D01*
X-620607Y639967D02*
Y646967D01*
X-646967Y620607D02*
X-639967D01*
X-643467Y617107D02*
Y624107D01*
X-669827Y643467D02*
X-662827D01*
X-666327Y639967D02*
Y646967D01*
X-646967Y666327D02*
X-639967D01*
X-643467Y662827D02*
Y669827D01*
X-659367Y643467D02*
X-627567D01*
X-643467Y627567D02*
Y659367D01*
X-446955Y443455D02*
X-439955D01*
X-443455Y439955D02*
Y446955D01*
X-479284Y443455D02*
X-472284D01*
X-475784Y439955D02*
Y446955D01*
X-479284Y475784D02*
X-472284D01*
X-475784Y472284D02*
Y479284D01*
X-446955Y475784D02*
X-439955D01*
X-443455Y472284D02*
Y479283D01*
X-440260Y459619D02*
X-433260D01*
X-436759Y456119D02*
Y463119D01*
X-463119Y436759D02*
X-456119D01*
X-459619Y433259D02*
Y440259D01*
X-485979Y459619D02*
X-478979D01*
X-482479Y456119D02*
Y463119D01*
X-463119Y482480D02*
X-456119D01*
X-459619Y478979D02*
Y485979D01*
X-475519Y459619D02*
X-443719D01*
X-459619Y443719D02*
Y475519D01*
X-866328Y-251690D02*
X-859328D01*
X-862828Y-255190D02*
Y-248190D01*
X-898657Y-251690D02*
X-891657D01*
X-895157Y-255190D02*
Y-248190D01*
X-898657Y-219361D02*
X-891657D01*
X-895157Y-222861D02*
Y-215861D01*
X-866328Y-219361D02*
X-859328D01*
X-862828Y-222861D02*
Y-215861D01*
X-859632Y-235525D02*
X-852633D01*
X-856133Y-239025D02*
Y-232025D01*
X-882493Y-258385D02*
X-875492D01*
X-878992Y-261885D02*
Y-254885D01*
X-905352Y-235525D02*
X-898353D01*
X-901852Y-239025D02*
Y-232025D01*
X-882493Y-212665D02*
X-875492D01*
X-878992Y-216165D02*
Y-209165D01*
X-894893Y-235525D02*
X-863092D01*
X-878992Y-251425D02*
Y-219625D01*
X-650859Y370000D02*
X-630859D01*
X-640859Y360000D02*
Y380000D01*
X-737461Y420000D02*
X-717461D01*
X-727461Y410000D02*
Y430000D01*
X-167318Y-177100D02*
X-158682D01*
X-163000Y-181418D02*
Y-172782D01*
X-167318Y-151700D02*
X-158682D01*
X-163000Y-156018D02*
Y-147382D01*
X-167318Y-126300D02*
X-158682D01*
X-163000Y-130618D02*
Y-121982D01*
X-167318Y-100900D02*
X-158682D01*
X-163000Y-105218D02*
Y-96582D01*
X-167318Y-42700D02*
X-158682D01*
X-163000Y-47018D02*
Y-38382D01*
X-167318Y8100D02*
X-158682D01*
X-163000Y3782D02*
Y12418D01*
X-167318Y33500D02*
X-158682D01*
X-163000Y29182D02*
Y37818D01*
X-167318Y-17300D02*
X-158682D01*
X-163000Y-21618D02*
Y-12982D01*
X-277800Y452700D02*
X-267600D01*
X-272700Y447600D02*
Y457800D01*
X-277800Y478100D02*
X-267600D01*
X-272700Y473000D02*
Y483200D01*
X-277800Y503500D02*
X-267600D01*
X-272700Y498400D02*
Y508600D01*
X-252400Y452700D02*
X-242200D01*
X-247300Y447600D02*
Y457800D01*
X-252400Y503500D02*
X-242200D01*
X-247300Y498400D02*
Y508600D01*
X-252400Y478100D02*
X-242200D01*
X-247300Y473000D02*
Y483200D01*
X-30503Y572700D02*
X-20303D01*
X-25403Y567600D02*
Y577800D01*
X-30503Y547300D02*
X-20303D01*
X-25403Y542200D02*
Y552400D01*
X20297Y547300D02*
X30497D01*
X25397Y542200D02*
Y552400D01*
X-5103Y547300D02*
X5097D01*
X-3Y542200D02*
Y552400D01*
X20297Y572700D02*
X30497D01*
X25397Y567600D02*
Y577800D01*
X-5103Y572700D02*
X5097D01*
X-3Y567600D02*
Y577800D01*
X309500Y427300D02*
X319700D01*
X314600Y422200D02*
Y432400D01*
X334900Y427300D02*
X345100D01*
X340000Y422200D02*
Y432400D01*
X334900Y452700D02*
X345100D01*
X340000Y447600D02*
Y457800D01*
X309500Y452700D02*
X319700D01*
X314600Y447600D02*
Y457800D01*
X360300Y452700D02*
X370500D01*
X365400Y447600D02*
Y457800D01*
X360300Y427300D02*
X370500D01*
X365400Y422200D02*
Y432400D01*
X242200Y452700D02*
X252400D01*
X247300Y447600D02*
Y457800D01*
X267600Y452700D02*
X277800D01*
X272700Y447600D02*
Y457800D01*
X242200Y503500D02*
X252400D01*
X247300Y498400D02*
Y508600D01*
X242200Y478100D02*
X252400D01*
X247300Y473000D02*
Y483200D01*
X267600Y478100D02*
X277800D01*
X272700Y473000D02*
Y483200D01*
X267600Y503500D02*
X277800D01*
X272700Y498400D02*
Y508600D01*
X154432Y-101900D02*
X163068D01*
X158750Y-106218D02*
Y-97582D01*
X154432Y-152700D02*
X163068D01*
X158750Y-157018D02*
Y-148382D01*
X154432Y-127300D02*
X163068D01*
X158750Y-131618D02*
Y-122982D01*
X154432Y-178100D02*
X163068D01*
X158750Y-182418D02*
Y-173782D01*
X154052Y-44200D02*
X162688D01*
X158370Y-48518D02*
Y-39882D01*
X154052Y-18800D02*
X162688D01*
X158370Y-23118D02*
Y-14482D01*
X154052Y32000D02*
X162688D01*
X158370Y27682D02*
Y36318D01*
X154052Y6600D02*
X162688D01*
X158370Y2282D02*
Y10918D01*
X-370500Y427300D02*
X-360300D01*
X-365400Y422200D02*
Y432400D01*
X-370500Y452700D02*
X-360300D01*
X-365400Y447600D02*
Y457800D01*
X-345100Y452700D02*
X-334900D01*
X-340000Y447600D02*
Y457800D01*
X-345100Y427300D02*
X-334900D01*
X-340000Y422200D02*
Y432400D01*
X-319700Y452700D02*
X-309500D01*
X-314600Y447600D02*
Y457800D01*
X-319700Y427300D02*
X-309500D01*
X-314600Y422200D02*
Y432400D01*
X21490Y-327280D02*
X24490D01*
X22990Y-328780D02*
Y-325780D01*
X21490Y-318170D02*
X24490D01*
X22990Y-319670D02*
Y-316670D01*
X21860Y-309000D02*
X24860D01*
X23360Y-310500D02*
Y-307500D01*
X16553Y-131995D02*
X19553D01*
X18053Y-133495D02*
Y-130495D01*
X-276680Y222110D02*
X-273680D01*
X-275180Y220610D02*
Y223610D01*
X-293360Y222110D02*
X-290360D01*
X-291860Y220610D02*
Y223610D01*
X-309440Y222110D02*
X-306440D01*
X-307940Y220610D02*
Y223610D01*
X-324290Y222110D02*
X-321290D01*
X-322790Y220610D02*
Y223610D01*
X-267290Y211420D02*
X-264290D01*
X-265790Y209920D02*
Y212920D01*
X-285200Y211420D02*
X-282200D01*
X-283700Y209920D02*
Y212920D01*
X-301880Y211420D02*
X-298880D01*
X-300380Y209920D02*
Y212920D01*
X-317520Y211420D02*
X-314520D01*
X-316020Y209920D02*
Y212920D01*
X-331500Y211420D02*
X-328500D01*
X-330000Y209920D02*
Y212920D01*
X579500Y184440D02*
X582500D01*
X581000Y182940D02*
Y185940D01*
X579500Y203210D02*
X582500D01*
X581000Y201710D02*
Y204710D01*
X579500Y194240D02*
X582500D01*
X581000Y192740D02*
Y195740D01*
X293690Y-168290D02*
X296690D01*
X295190Y-169790D02*
Y-166790D01*
X293590Y-151600D02*
X296590D01*
X295090Y-153100D02*
Y-150100D01*
X287320Y-125210D02*
X290320D01*
X288820Y-126710D02*
Y-123710D01*
X266300Y-125210D02*
X269300D01*
X267800Y-126710D02*
Y-123710D01*
X306770Y-124950D02*
X309770D01*
X308270Y-126450D02*
Y-123450D01*
X318650Y-67250D02*
X321650D01*
X320150Y-68750D02*
Y-65750D01*
X276620Y-66730D02*
X279620D01*
X278120Y-68230D02*
Y-65230D01*
X294370Y-34490D02*
X297370D01*
X295870Y-35990D02*
Y-32990D01*
X796582Y83171D02*
X799582D01*
X798082Y81671D02*
Y84671D01*
X386582Y-216829D02*
X389582D01*
X388082Y-218329D02*
Y-215329D01*
X366582Y-256829D02*
X369582D01*
X368082Y-258329D02*
Y-255329D01*
X356582Y-276829D02*
X359582D01*
X358082Y-278329D02*
Y-275329D01*
X346582Y183172D02*
X349582D01*
X348082Y181672D02*
Y184671D01*
X336582Y163172D02*
X339582D01*
X338082Y161672D02*
Y164671D01*
X346582Y-256829D02*
X349582D01*
X348082Y-258329D02*
Y-255329D01*
X286582Y263172D02*
X289582D01*
X288082Y261672D02*
Y264671D01*
X286582Y223172D02*
X289582D01*
X288082Y221672D02*
Y224671D01*
X286582Y183172D02*
X289582D01*
X288082Y181672D02*
Y184671D01*
X286582Y143172D02*
X289582D01*
X288082Y141671D02*
Y144671D01*
X256582Y203172D02*
X259582D01*
X258082Y201672D02*
Y204671D01*
X236582Y163172D02*
X239582D01*
X238082Y161672D02*
Y164671D01*
X236582Y-436829D02*
X239582D01*
X238082Y-438329D02*
Y-435329D01*
X226582Y263172D02*
X229582D01*
X228082Y261672D02*
Y264671D01*
X226582Y223172D02*
X229582D01*
X228082Y221672D02*
Y224671D01*
X206582Y263172D02*
X209582D01*
X208081Y261672D02*
Y264671D01*
X196581Y243172D02*
X199582D01*
X198081Y241672D02*
Y244671D01*
X206582Y223172D02*
X209582D01*
X208081Y221672D02*
Y224671D01*
X196581Y-436829D02*
X199582D01*
X198081Y-438329D02*
Y-435329D01*
X176581Y243172D02*
X179582D01*
X178081Y241672D02*
Y244671D01*
X186581Y183172D02*
X189582D01*
X188081Y181672D02*
Y184671D01*
X176581Y163172D02*
X179582D01*
X178081Y161672D02*
Y164671D01*
X186581Y143172D02*
X189582D01*
X188081Y141671D02*
Y144671D01*
X176581Y-236829D02*
X179582D01*
X178081Y-238329D02*
Y-235329D01*
X156581Y243172D02*
X159581D01*
X158082Y241672D02*
Y244671D01*
X166581Y223172D02*
X169582D01*
X168081Y221672D02*
Y224671D01*
X156581Y203172D02*
X159581D01*
X158082Y201672D02*
Y204671D01*
X156581Y-76829D02*
X159581D01*
X158082Y-78329D02*
Y-75329D01*
X156581Y-436829D02*
X159581D01*
X158082Y-438329D02*
Y-435329D01*
X146581Y223172D02*
X149581D01*
X148082Y221672D02*
Y224671D01*
X136581Y-436829D02*
X139581D01*
X138082Y-438329D02*
Y-435329D01*
X126581Y223172D02*
X129581D01*
X128082Y221672D02*
Y224671D01*
X126581Y-16829D02*
X129581D01*
X128082Y-18329D02*
Y-15329D01*
X116581Y-436829D02*
X119581D01*
X118082Y-438329D02*
Y-435329D01*
X106581Y103171D02*
X109581D01*
X108082Y101671D02*
Y104671D01*
X66582Y223172D02*
X69581D01*
X68081Y221672D02*
Y224671D01*
X56582Y163172D02*
X59581D01*
X58081Y161672D02*
Y164671D01*
X56582Y-236829D02*
X59581D01*
X58081Y-238329D02*
Y-235329D01*
X56582Y-276829D02*
X59581D01*
X58081Y-278329D02*
Y-275329D01*
X56582Y-396829D02*
X59581D01*
X58081Y-398329D02*
Y-395329D01*
X46582Y223172D02*
X49581D01*
X48081Y221672D02*
Y224671D01*
X36581Y163172D02*
X39581D01*
X38082Y161672D02*
Y164671D01*
X36581Y43171D02*
X39581D01*
X38082Y41671D02*
Y44671D01*
X36581Y-276829D02*
X39581D01*
X38082Y-278329D02*
Y-275329D01*
X46582Y-296829D02*
X49581D01*
X48081Y-298329D02*
Y-295329D01*
X46582Y-336829D02*
X49581D01*
X48081Y-338329D02*
Y-335329D01*
X26581Y103171D02*
X29581D01*
X28082Y101671D02*
Y104671D01*
X16581Y-396829D02*
X19581D01*
X18081Y-398329D02*
Y-395329D01*
X16581Y-556829D02*
X19581D01*
X18081Y-558329D02*
Y-555329D01*
X6581Y63171D02*
X9581D01*
X8081Y61671D02*
Y64671D01*
X-13419Y103171D02*
X-10419D01*
X-11919Y101671D02*
Y104671D01*
X-13419Y63171D02*
X-10419D01*
X-11919Y61671D02*
Y64671D01*
X-23419Y-156829D02*
X-20419D01*
X-21919Y-158329D02*
Y-155329D01*
X-33419Y223172D02*
X-30419D01*
X-31919Y221672D02*
Y224671D01*
X-33419Y103171D02*
X-30419D01*
X-31919Y101671D02*
Y104671D01*
X-53419Y103171D02*
X-50419D01*
X-51919Y101671D02*
Y104671D01*
X-53419Y63171D02*
X-50419D01*
X-51919Y61671D02*
Y64671D01*
X-73419Y103171D02*
X-70419D01*
X-71919Y101671D02*
Y104671D01*
X-73419Y63171D02*
X-70419D01*
X-71919Y61671D02*
Y64671D01*
X-93419Y103171D02*
X-90419D01*
X-91919Y101671D02*
Y104671D01*
X-93419Y63171D02*
X-90419D01*
X-91919Y61671D02*
Y64671D01*
X-143419Y43171D02*
X-140419D01*
X-141919Y41671D02*
Y44671D01*
X-133419Y23171D02*
X-130419D01*
X-131919Y21671D02*
Y24671D01*
X-133419Y-16829D02*
X-130419D01*
X-131919Y-18329D02*
Y-15329D01*
X-173419Y-56829D02*
X-170419D01*
X-171919Y-58329D02*
Y-55329D01*
X-183419Y-156829D02*
X-180419D01*
X-181919Y-158329D02*
Y-155329D01*
X-183419Y-196829D02*
X-180419D01*
X-181919Y-198329D02*
Y-195329D01*
X-183419Y-236829D02*
X-180419D01*
X-181919Y-238329D02*
Y-235329D01*
X-193419Y-176829D02*
X-190419D01*
X-191919Y-178329D02*
Y-175329D01*
X-193419Y-216829D02*
X-190419D01*
X-191919Y-218329D02*
Y-215329D01*
X-203419Y-236829D02*
X-200419D01*
X-201919Y-238329D02*
Y-235329D01*
X-213419Y-216829D02*
X-210419D01*
X-211919Y-218329D02*
Y-215329D01*
X-283419Y-196829D02*
X-280419D01*
X-281919Y-198329D02*
Y-195329D01*
X-293419Y-176829D02*
X-290419D01*
X-291919Y-178329D02*
Y-175329D01*
X-343419Y-276829D02*
X-340419D01*
X-341919Y-278329D02*
Y-275329D01*
X-333419Y-296829D02*
X-330419D01*
X-331919Y-298329D02*
Y-295329D01*
X-343419Y-316829D02*
X-340419D01*
X-341919Y-318329D02*
Y-315329D01*
X-333419Y-336829D02*
X-330419D01*
X-331919Y-338329D02*
Y-335329D01*
X-343419Y-356829D02*
X-340419D01*
X-341919Y-358329D02*
Y-355329D01*
X-333419Y-376829D02*
X-330419D01*
X-331919Y-378329D02*
Y-375329D01*
X-343419Y-396829D02*
X-340419D01*
X-341919Y-398329D02*
Y-395329D01*
X-343419Y-436829D02*
X-340419D01*
X-341919Y-438329D02*
Y-435329D01*
X-333419Y-456829D02*
X-330419D01*
X-331919Y-458329D02*
Y-455329D01*
X-363419Y-276829D02*
X-360419D01*
X-361919Y-278329D02*
Y-275329D01*
X-353419Y-296829D02*
X-350419D01*
X-351919Y-298329D02*
Y-295329D01*
X-363419Y-316829D02*
X-360419D01*
X-361919Y-318329D02*
Y-315329D01*
X-353419Y-336829D02*
X-350419D01*
X-351919Y-338329D02*
Y-335329D01*
X-363419Y-356829D02*
X-360419D01*
X-361919Y-358329D02*
Y-355329D01*
X-353419Y-376829D02*
X-350419D01*
X-351919Y-378329D02*
Y-375329D01*
X-363419Y-396829D02*
X-360419D01*
X-361919Y-398329D02*
Y-395329D01*
X-363419Y-436829D02*
X-360419D01*
X-361919Y-438329D02*
Y-435329D01*
X-353419Y-456829D02*
X-350419D01*
X-351919Y-458329D02*
Y-455329D01*
X-373419Y-376829D02*
X-370419D01*
X-371919Y-378329D02*
Y-375329D01*
X-383419Y-396829D02*
X-380419D01*
X-381919Y-398329D02*
Y-395329D01*
X-373419Y-456829D02*
X-370419D01*
X-371919Y-458329D02*
Y-455329D01*
X-403419Y-396829D02*
X-400419D01*
X-401919Y-398329D02*
Y-395329D01*
X-423419Y-396829D02*
X-420419D01*
X-421919Y-398329D02*
Y-395329D01*
X-433419Y-376829D02*
X-430419D01*
X-431919Y-378329D02*
Y-375329D01*
X-453419Y-376829D02*
X-450419D01*
X-451919Y-378329D02*
Y-375329D01*
X-473419Y-376829D02*
X-470419D01*
X-471919Y-378329D02*
Y-375329D01*
X396582Y-336829D02*
X399582D01*
X398082Y-338329D02*
Y-335329D01*
X356582Y-376829D02*
X359582D01*
X358082Y-378329D02*
Y-375329D01*
X336582Y-336829D02*
X339582D01*
X338082Y-338329D02*
Y-335329D01*
X346582Y-356829D02*
X349582D01*
X348082Y-358329D02*
Y-355329D01*
X316582Y-136829D02*
X319582D01*
X318082Y-138329D02*
Y-135329D01*
X326582Y-396829D02*
X329582D01*
X328082Y-398329D02*
Y-395329D01*
X296582Y-56829D02*
X299582D01*
X298082Y-58329D02*
Y-55329D01*
X306582Y-76829D02*
X309582D01*
X308082Y-78329D02*
Y-75329D01*
X296582Y-96829D02*
X299582D01*
X298082Y-98329D02*
Y-95329D01*
X296582Y-136829D02*
X299582D01*
X298082Y-138329D02*
Y-135329D01*
X286582Y-76829D02*
X289582D01*
X288082Y-78329D02*
Y-75329D01*
X276582Y-136829D02*
X279582D01*
X278082Y-138329D02*
Y-135329D01*
X266582Y-76829D02*
X269582D01*
X268082Y-78329D02*
Y-75329D01*
X256582Y-136829D02*
X259582D01*
X258082Y-138329D02*
Y-135329D01*
X216582Y-376829D02*
X219582D01*
X218082Y-378329D02*
Y-375329D01*
X106581Y-356829D02*
X109581D01*
X108082Y-358329D02*
Y-355329D01*
X36581Y383172D02*
X39581D01*
X38082Y381672D02*
Y384672D01*
X16581Y383172D02*
X19581D01*
X18081Y381672D02*
Y384672D01*
X16581Y343172D02*
X19581D01*
X18081Y341672D02*
Y344672D01*
X-23419Y503172D02*
X-20419D01*
X-21919Y501672D02*
Y504672D01*
X-23419Y463172D02*
X-20419D01*
X-21919Y461672D02*
Y464672D01*
X-33419Y483172D02*
X-30419D01*
X-31919Y481672D02*
Y484672D01*
X-83419Y-336829D02*
X-80419D01*
X-81919Y-338329D02*
Y-335329D01*
X-103419Y-336829D02*
X-100419D01*
X-101919Y-338329D02*
Y-335329D01*
X-143419Y-536829D02*
X-140419D01*
X-141919Y-538329D02*
Y-535329D01*
X-163419Y-536829D02*
X-160419D01*
X-161919Y-538329D02*
Y-535329D01*
X-173419Y-516829D02*
X-170419D01*
X-171919Y-518329D02*
Y-515329D01*
X-183419Y-536829D02*
X-180419D01*
X-181919Y-538329D02*
Y-535329D01*
X-173419Y-556829D02*
X-170419D01*
X-171919Y-558329D02*
Y-555329D01*
X-203419Y-296829D02*
X-200419D01*
X-201919Y-298329D02*
Y-295329D01*
X-193419Y-516829D02*
X-190419D01*
X-191919Y-518329D02*
Y-515329D01*
X-203419Y-536829D02*
X-200419D01*
X-201919Y-538329D02*
Y-535329D01*
X-193419Y-556829D02*
X-190419D01*
X-191919Y-558329D02*
Y-555329D01*
X-223419Y-536829D02*
X-220419D01*
X-221919Y-538329D02*
Y-535329D01*
X-223419Y-576829D02*
X-220419D01*
X-221919Y-578329D02*
Y-575329D01*
X-243419Y-296829D02*
X-240419D01*
X-241919Y-298329D02*
Y-295329D01*
X-263419Y-336829D02*
X-260419D01*
X-261919Y-338329D02*
Y-335329D01*
X-263419Y-536829D02*
X-260419D01*
X-261919Y-538329D02*
Y-535329D01*
X-253419Y-556829D02*
X-250419D01*
X-251919Y-558329D02*
Y-555329D01*
X-283419Y183172D02*
X-280419D01*
X-281919Y181672D02*
Y184671D01*
X-283419Y143172D02*
X-280419D01*
X-281919Y141671D02*
Y144671D01*
X-283419Y63171D02*
X-280419D01*
X-281919Y61671D02*
Y64671D01*
X-283419Y23171D02*
X-280419D01*
X-281919Y21671D02*
Y24671D01*
X-283419Y-16829D02*
X-280419D01*
X-281919Y-18329D02*
Y-15329D01*
X-303419Y183172D02*
X-300419D01*
X-301919Y181672D02*
Y184671D01*
X-293419Y163172D02*
X-290419D01*
X-291919Y161672D02*
Y164671D01*
X-303419Y143172D02*
X-300419D01*
X-301919Y141671D02*
Y144671D01*
X-293419Y123172D02*
X-290419D01*
X-291919Y121671D02*
Y124671D01*
X-293419Y83171D02*
X-290419D01*
X-291919Y81671D02*
Y84671D01*
X-303419Y63171D02*
X-300419D01*
X-301919Y61671D02*
Y64671D01*
X-293419Y43171D02*
X-290419D01*
X-291919Y41671D02*
Y44671D01*
X-303419Y-16829D02*
X-300419D01*
X-301919Y-18329D02*
Y-15329D01*
X-323419Y183172D02*
X-320419D01*
X-321919Y181672D02*
Y184671D01*
X-323419Y143172D02*
X-320419D01*
X-321919Y141671D02*
Y144671D01*
X-313419Y123172D02*
X-310419D01*
X-311919Y121671D02*
Y124671D01*
X-313419Y83171D02*
X-310419D01*
X-311919Y81671D02*
Y84671D01*
X-323419Y63171D02*
X-320419D01*
X-321919Y61671D02*
Y64671D01*
X-333419Y123172D02*
X-330419D01*
X-331919Y121671D02*
Y124671D01*
X-333419Y83171D02*
X-330419D01*
X-331919Y81671D02*
Y84671D01*
X-493419Y283172D02*
X-490419D01*
X-491919Y281672D02*
Y284671D01*
X-533419Y323172D02*
X-530419D01*
X-531919Y321672D02*
Y324672D01*
X-543419Y303172D02*
X-540419D01*
X-541919Y301672D02*
Y304672D01*
X-543419Y263172D02*
X-540419D01*
X-541919Y261672D02*
Y264671D01*
X-543419Y223172D02*
X-540419D01*
X-541919Y221672D02*
Y224671D01*
X171720Y-511890D02*
X174720D01*
X173220Y-513390D02*
Y-510390D01*
X171720Y-520720D02*
X174720D01*
X173220Y-522220D02*
Y-519220D01*
X171720Y-529670D02*
X174720D01*
X173220Y-531170D02*
Y-528170D01*
X181240Y-529670D02*
X184240D01*
X182740Y-531170D02*
Y-528170D01*
X181240Y-520720D02*
X184240D01*
X182740Y-522220D02*
Y-519220D01*
X181240Y-511890D02*
X184240D01*
X182740Y-513390D02*
Y-510390D01*
X169760Y-551790D02*
X172760D01*
X171260Y-553290D02*
Y-550290D01*
X178590Y-551790D02*
X181590D01*
X180090Y-553290D02*
Y-550290D01*
X187540Y-551790D02*
X190540D01*
X189040Y-553290D02*
Y-550290D01*
X187540Y-561310D02*
X190540D01*
X189040Y-562810D02*
Y-559810D01*
X178590Y-561310D02*
X181590D01*
X180090Y-562810D02*
Y-559810D01*
X169760Y-561310D02*
X172760D01*
X171260Y-562810D02*
Y-559810D01*
X-499513Y240125D02*
X-496513D01*
X-498013Y238625D02*
Y241625D01*
X-447660Y192910D02*
X-444660D01*
X-446160Y191410D02*
Y194410D01*
X-432260Y191960D02*
X-429260D01*
X-430760Y190460D02*
Y193460D01*
X-486500Y-40110D02*
X-483500D01*
X-485000Y-41610D02*
Y-38610D01*
X-465810Y-39950D02*
X-462810D01*
X-464310Y-41450D02*
Y-38450D01*
X-476420Y-39940D02*
X-473420D01*
X-474920Y-41440D02*
Y-38440D01*
X-486500Y-5420D02*
X-483500D01*
X-485000Y-6920D02*
Y-3920D01*
X-466140Y-5260D02*
X-463140D01*
X-464640Y-6760D02*
Y-3760D01*
X-476420Y-5250D02*
X-473420D01*
X-474920Y-6750D02*
Y-3750D01*
X-58860Y-94910D02*
X-55860D01*
X-57360Y-96410D02*
Y-93410D01*
X-11571Y-167847D02*
X-8571D01*
X-10071Y-169347D02*
Y-166348D01*
X-58860Y-106800D02*
X-55860D01*
X-57360Y-108300D02*
Y-105300D01*
X94900Y-95354D02*
X97900D01*
X96400Y-96854D02*
Y-93854D01*
X100960Y-87990D02*
X103960D01*
X102460Y-89490D02*
Y-86490D01*
X-132730Y-554560D02*
X-129730D01*
X-131230Y-556060D02*
Y-553060D01*
X-132730Y-564090D02*
X-129730D01*
X-131230Y-565590D02*
Y-562590D01*
X-132420Y-573920D02*
X-129420D01*
X-130920Y-575420D02*
Y-572420D01*
X-147900Y-569020D02*
X-144900D01*
X-146400Y-570520D02*
Y-567520D01*
X-122070Y-573700D02*
X-119070D01*
X-120570Y-575200D02*
Y-572200D01*
X-122380Y-563870D02*
X-119380D01*
X-120880Y-565370D02*
Y-562370D01*
X-122380Y-554340D02*
X-119380D01*
X-120880Y-555840D02*
Y-552840D01*
X-84910Y-478680D02*
X-81910D01*
X-83410Y-480180D02*
Y-477180D01*
X-49740Y-451870D02*
X-46740D01*
X-48240Y-453370D02*
Y-450370D01*
X66610Y-475780D02*
X69610D01*
X68110Y-477280D02*
Y-474280D01*
X-654050Y66300D02*
X-651050D01*
X-652550Y64800D02*
Y67800D01*
X-660960Y84060D02*
X-657960D01*
X-659460Y82560D02*
Y85560D01*
X-556220Y-299140D02*
X-553220D01*
X-554720Y-300640D02*
Y-297640D01*
X-556220Y-288385D02*
X-553220D01*
X-554720Y-289885D02*
Y-286885D01*
X-556220Y-277630D02*
X-553220D01*
X-554720Y-279130D02*
Y-276130D01*
X-248120Y356250D02*
X-245120D01*
X-246620Y354750D02*
Y357750D01*
X-247950Y345870D02*
X-244950D01*
X-246450Y344370D02*
Y347370D01*
X-393010Y353270D02*
X-390010D01*
X-391510Y351770D02*
Y354770D01*
X-347890Y115510D02*
X-344890D01*
X-346390Y114010D02*
Y117010D01*
X354560Y-241820D02*
X357560D01*
X356060Y-243320D02*
Y-240320D01*
X22520Y-193060D02*
X25520D01*
X24020Y-194560D02*
Y-191560D01*
X103930Y-341750D02*
X106930D01*
X105430Y-343250D02*
Y-340250D01*
X311670Y-328080D02*
X314670D01*
X313170Y-329580D02*
Y-326580D01*
X293810Y-328210D02*
X296810D01*
X295310Y-329710D02*
Y-326710D01*
X189320Y-357230D02*
X192320D01*
X190820Y-358730D02*
Y-355730D01*
X168180Y-356310D02*
X171180D01*
X169680Y-357810D02*
Y-354810D01*
X141660Y-356180D02*
X144660D01*
X143160Y-357680D02*
Y-354680D01*
X221090Y-363130D02*
X224090D01*
X222590Y-364630D02*
Y-361630D01*
X351840Y-337800D02*
X354840D01*
X353340Y-339300D02*
Y-336300D01*
X253590Y256690D02*
X256590D01*
X255090Y255190D02*
Y258190D01*
X254480Y215050D02*
X257480D01*
X255980Y213550D02*
Y216550D01*
X254930Y181280D02*
X257930D01*
X256430Y179780D02*
Y182780D01*
X333150Y182880D02*
X336150D01*
X334650Y181380D02*
Y184380D01*
X48760Y258330D02*
X51760D01*
X50260Y256830D02*
Y259830D01*
X-34140Y196860D02*
X-31140D01*
X-32640Y195360D02*
Y198360D01*
X-33310Y257560D02*
X-30310D01*
X-31810Y256060D02*
Y259060D01*
X-104310Y-347270D02*
X-101310D01*
X-102810Y-348770D02*
Y-345770D01*
X65350Y487220D02*
X68350D01*
X66850Y485720D02*
Y488720D01*
X-461590Y264610D02*
X-459590D01*
X-460590Y263610D02*
Y265610D01*
X-472590Y253610D02*
X-470590D01*
X-471590Y252610D02*
Y254610D01*
X-472590Y264610D02*
X-470590D01*
X-471590Y263610D02*
Y265610D01*
X-461590Y253610D02*
X-459590D01*
X-460590Y252610D02*
Y254610D01*
X153140Y330849D02*
X156140D01*
X154640Y329349D02*
Y332349D01*
X243870Y332230D02*
X246870D01*
X245370Y330730D02*
Y333730D01*
X205040Y330630D02*
X208040D01*
X206540Y329130D02*
Y332130D01*
X345760Y-212210D02*
X348760D01*
X347260Y-213710D02*
Y-210710D01*
X214290Y-231210D02*
X217290D01*
X215790Y-232710D02*
Y-229710D01*
X281090Y-253650D02*
X284090D01*
X282590Y-255150D02*
Y-252150D01*
X395290Y-228690D02*
X398290D01*
X396790Y-230190D02*
Y-227190D01*
X-67950Y-501510D02*
X-64950D01*
X-66450Y-503010D02*
Y-500010D01*
X-185860Y-299090D02*
X-182860D01*
X-184360Y-300590D02*
Y-297590D01*
X-53060Y-416740D02*
X-50060D01*
X-51560Y-418240D02*
Y-415240D01*
X-58860Y-440780D02*
X-55860D01*
X-57360Y-442280D02*
Y-439280D01*
X-139743Y511370D02*
X-136743D01*
X-138244Y509870D02*
Y512870D01*
X420810Y231210D02*
X423810D01*
X422310Y229710D02*
Y232710D01*
X343900Y-33520D02*
X346900D01*
X345400Y-35020D02*
Y-32020D01*
X343900Y-57450D02*
X346900D01*
X345400Y-58950D02*
Y-55950D01*
X343900Y-90120D02*
X346900D01*
X345400Y-91620D02*
Y-88620D01*
X343900Y-116230D02*
X346900D01*
X345400Y-117730D02*
Y-114730D01*
X343900Y-150000D02*
X346900D01*
X345400Y-151500D02*
Y-148500D01*
X343900Y-162270D02*
X346900D01*
X345400Y-163770D02*
Y-160770D01*
X343900Y-102230D02*
X346900D01*
X345400Y-103730D02*
Y-100730D01*
X343900Y-45670D02*
X346900D01*
X345400Y-47170D02*
Y-44170D01*
X343900Y-173000D02*
X346900D01*
X345400Y-174500D02*
Y-171500D01*
X352420Y-173000D02*
X355420D01*
X353920Y-174500D02*
Y-171500D01*
X241310Y-33900D02*
X244310D01*
X242810Y-35400D02*
Y-32400D01*
X241310Y-58050D02*
X244310D01*
X242810Y-59550D02*
Y-56550D01*
X241310Y-89340D02*
X244310D01*
X242810Y-90840D02*
Y-87840D01*
X241310Y-116470D02*
X244310D01*
X242810Y-117970D02*
Y-114970D01*
X241310Y-148710D02*
X244310D01*
X242810Y-150210D02*
Y-147210D01*
X241310Y-46010D02*
X244310D01*
X242810Y-47510D02*
Y-44510D01*
X241310Y-102850D02*
X244310D01*
X242810Y-104350D02*
Y-101350D01*
X241310Y-160670D02*
X244310D01*
X242810Y-162170D02*
Y-159170D01*
X241370Y-171820D02*
X244370D01*
X242870Y-173320D02*
Y-170320D01*
X232520Y-171820D02*
X235520D01*
X234020Y-173320D02*
Y-170320D01*
X-347890Y102180D02*
X-344890D01*
X-346390Y100680D02*
Y103680D01*
X-347890Y160040D02*
X-344890D01*
X-346390Y158540D02*
Y161540D01*
X-347890Y147780D02*
X-344890D01*
X-346390Y146280D02*
Y149280D01*
X-347890Y89040D02*
X-344890D01*
X-346390Y87540D02*
Y90540D01*
X-347890Y59770D02*
X-344890D01*
X-346390Y58270D02*
Y61270D01*
X-347890Y32100D02*
X-344890D01*
X-346390Y30600D02*
Y33600D01*
X-347890Y46630D02*
X-344890D01*
X-346390Y45130D02*
Y48130D01*
X-347890Y173050D02*
X-344890D01*
X-346390Y171550D02*
Y174550D01*
X-201430Y207380D02*
X-198430D01*
X-199930Y205880D02*
Y208880D01*
X-201430Y219840D02*
X-198430D01*
X-199930Y218340D02*
Y221340D01*
X-201430Y194980D02*
X-198430D01*
X-199930Y193480D02*
Y196480D01*
X-193050Y207180D02*
X-190050D01*
X-191550Y205680D02*
Y208680D01*
X-193050Y219640D02*
X-190050D01*
X-191550Y218140D02*
Y221140D01*
X-193050Y194780D02*
X-190050D01*
X-191550Y193280D02*
Y196280D01*
X-247550Y103770D02*
X-244550D01*
X-246050Y102270D02*
Y105270D01*
X-247550Y160240D02*
X-244550D01*
X-246050Y158740D02*
Y161740D01*
X-247550Y89890D02*
X-244550D01*
X-246050Y88390D02*
Y91390D01*
X-247550Y172700D02*
X-244550D01*
X-246050Y171200D02*
Y174200D01*
X-247550Y115960D02*
X-244550D01*
X-246050Y114460D02*
Y117460D01*
X-247550Y147840D02*
X-244550D01*
X-246050Y146340D02*
Y149340D01*
X-247550Y45600D02*
X-244550D01*
X-246050Y44100D02*
Y47100D01*
X-247550Y58620D02*
X-244550D01*
X-246050Y57120D02*
Y60120D01*
X-247550Y31750D02*
X-244550D01*
X-246050Y30250D02*
Y33250D01*
X-265850Y369990D02*
X-262850D01*
X-264350Y368490D02*
Y371490D01*
X-253790Y377860D02*
X-250790D01*
X-252290Y376360D02*
Y379360D01*
X-505160Y397760D02*
X-502160D01*
X-503660Y396260D02*
Y399260D01*
X-488064Y397760D02*
X-485064D01*
X-486564Y396260D02*
Y399260D01*
X-479516Y397760D02*
X-476516D01*
X-478016Y396260D02*
Y399260D01*
X-205710Y410810D02*
X-202710D01*
X-204210Y409310D02*
Y412310D01*
X-205790Y418380D02*
X-202790D01*
X-204290Y416880D02*
Y419880D01*
X-213450Y397120D02*
X-210450D01*
X-211950Y395620D02*
Y398620D01*
X-213530Y404210D02*
X-210530D01*
X-212030Y402710D02*
Y405710D01*
X-408690Y188450D02*
X-405690D01*
X-407190Y186950D02*
Y189950D01*
X-419265Y233465D02*
X-416265D01*
X-417765Y231965D02*
Y234965D01*
X-437400Y242260D02*
X-434400D01*
X-435900Y240760D02*
Y243760D01*
X-367010Y234480D02*
X-364010D01*
X-365510Y232980D02*
Y235980D01*
X-408740Y311870D02*
X-405740D01*
X-407240Y310370D02*
Y313370D01*
X-437240Y270850D02*
X-434240D01*
X-435740Y269350D02*
Y272350D01*
X-427520Y316370D02*
X-424520D01*
X-426020Y314870D02*
Y317870D01*
X-476420Y-13120D02*
X-473420D01*
X-474920Y-14620D02*
Y-11620D01*
X-465810Y-13130D02*
X-462810D01*
X-464310Y-14630D02*
Y-11630D01*
X-486500Y-13290D02*
X-483500D01*
X-485000Y-14790D02*
Y-11790D01*
X-486500Y-22260D02*
X-483500D01*
X-485000Y-23760D02*
Y-20760D01*
X-476420Y-22090D02*
X-473420D01*
X-474920Y-23590D02*
Y-20590D01*
X-465810Y-22100D02*
X-462810D01*
X-464310Y-23600D02*
Y-20600D01*
X-486500Y-31890D02*
X-483500D01*
X-485000Y-33390D02*
Y-30390D01*
X-476420Y-32170D02*
X-473420D01*
X-474920Y-33670D02*
Y-30670D01*
X-465990Y-31890D02*
X-462990D01*
X-464490Y-33390D02*
Y-30390D01*
X569400Y184440D02*
X572400D01*
X570900Y182940D02*
Y185940D01*
X559320Y184440D02*
X562320D01*
X560820Y182940D02*
Y185940D01*
X569400Y194240D02*
X572400D01*
X570900Y192740D02*
Y195740D01*
X559320Y194240D02*
X562320D01*
X560820Y192740D02*
Y195740D01*
X559320Y203210D02*
X562320D01*
X560820Y201710D02*
Y204710D01*
X569400Y203210D02*
X572400D01*
X570900Y201710D02*
Y204710D01*
X570785Y247860D02*
X573785D01*
X572285Y246360D02*
Y249360D01*
X580750Y247860D02*
X583750D01*
X582250Y246360D02*
Y249360D01*
X560820Y247860D02*
X563820D01*
X562320Y246360D02*
Y249360D01*
X416395Y251675D02*
X419395D01*
X417895Y250175D02*
Y253175D01*
X-40180Y-37920D02*
X-37180D01*
X-38680Y-39420D02*
Y-36420D01*
X-55752Y-10593D02*
X-52752D01*
X-54252Y-12093D02*
Y-9093D01*
X480700Y230770D02*
X483700D01*
X482200Y229270D02*
Y232270D01*
X-390910Y-223830D02*
X-387910D01*
X-389410Y-225330D02*
Y-222330D01*
X-426510Y-225920D02*
X-423510D01*
X-425010Y-227420D02*
Y-224420D01*
X-431450Y-248990D02*
X-428450D01*
X-429950Y-250490D02*
Y-247490D01*
X1350Y-34630D02*
X4350D01*
X2850Y-36130D02*
Y-33130D01*
X230640Y-204280D02*
X233640D01*
X232140Y-205780D02*
Y-202780D01*
X249540Y-204080D02*
X252540D01*
X251040Y-205580D02*
Y-202580D01*
X282280Y-212030D02*
X285280D01*
X283780Y-213530D02*
Y-210530D01*
X311890Y-203490D02*
X314890D01*
X313390Y-204990D02*
Y-201990D01*
X-93270Y35410D02*
X-90270D01*
X-91770Y33910D02*
Y36910D01*
X230900Y-293700D02*
X233900D01*
X232400Y-295200D02*
Y-292200D01*
X6630Y-249710D02*
X9630D01*
X8130Y-251210D02*
Y-248210D01*
X-83770Y-260270D02*
X-80770D01*
X-82270Y-261770D02*
Y-258770D01*
X-201060Y-226270D02*
X-198060D01*
X-199560Y-227770D02*
Y-224770D01*
X-228570Y-145110D02*
X-225570D01*
X-227070Y-146610D02*
Y-143610D01*
X-198490Y-160910D02*
X-195490D01*
X-196990Y-162410D02*
Y-159410D01*
X100460Y435130D02*
X103460D01*
X101960Y433630D02*
Y436630D01*
X143100Y406880D02*
X146100D01*
X144600Y405380D02*
Y408380D01*
X225910Y187770D02*
X228910D01*
X227410Y186270D02*
Y189270D01*
X226260Y236350D02*
X229260D01*
X227760Y234850D02*
Y237850D01*
X343050Y210390D02*
X346050D01*
X344550Y208890D02*
Y211890D01*
X343340Y223600D02*
X346340D01*
X344840Y222100D02*
Y225100D01*
X343170Y250160D02*
X346170D01*
X344670Y248660D02*
Y251660D01*
X466820Y-186420D02*
X469820D01*
X468320Y-187920D02*
Y-184920D01*
X53950Y-39910D02*
X56950D01*
X55450Y-41410D02*
Y-38410D01*
X126950Y28280D02*
X129950D01*
X128450Y26780D02*
Y29780D01*
X113850Y42660D02*
X116850D01*
X115350Y41160D02*
Y44160D01*
X-5400Y-98060D02*
X-2400D01*
X-3900Y-99560D02*
Y-96560D01*
X10040Y-104180D02*
X13040D01*
X11540Y-105680D02*
Y-102680D01*
X4787Y-132360D02*
X7787D01*
X6287Y-133860D02*
Y-130860D01*
X29650Y-210890D02*
X32650D01*
X31150Y-212390D02*
Y-209390D01*
X52320Y-192710D02*
X55320D01*
X53820Y-194210D02*
Y-191210D01*
X38488Y-210679D02*
X41488D01*
X39988Y-212179D02*
Y-209179D01*
X14220Y-186520D02*
X17220D01*
X15720Y-188020D02*
Y-185020D01*
X-7480Y-255140D02*
X-4480D01*
X-5980Y-256640D02*
Y-253640D01*
X13430Y-261680D02*
X16430D01*
X14930Y-263180D02*
Y-260180D01*
X46020Y-180170D02*
X49020D01*
X47520Y-181670D02*
Y-178670D01*
X50443Y-153547D02*
X53443D01*
X51943Y-155047D02*
Y-152047D01*
X22523Y-181237D02*
X25523D01*
X24023Y-182737D02*
Y-179737D01*
X-68690Y-135780D02*
X-65690D01*
X-67190Y-137280D02*
Y-134280D01*
X-44590Y-107150D02*
X-41590D01*
X-43090Y-108650D02*
Y-105650D01*
X-112030Y34902D02*
X-109030D01*
X-110530Y33402D02*
Y36402D01*
X-94630Y23660D02*
X-91630D01*
X-93130Y22160D02*
Y25160D01*
X-112030Y26770D02*
X-109030D01*
X-110530Y25270D02*
Y28270D01*
X-82900Y46150D02*
X-79900D01*
X-81400Y44650D02*
Y47650D01*
X19820Y444420D02*
X22820D01*
X21320Y442920D02*
Y445920D01*
X-537358Y203908D02*
X-534358D01*
X-535858Y202408D02*
Y205408D01*
X-478300Y192640D02*
X-475300D01*
X-476800Y191140D02*
Y194140D01*
X-538100Y251967D02*
X-535100D01*
X-536600Y250467D02*
Y253467D01*
X-490090Y333150D02*
X-487090D01*
X-488590Y331650D02*
Y334650D01*
X-26680Y440630D02*
X-23680D01*
X-25180Y439130D02*
Y442130D01*
X-176470Y458300D02*
X-173470D01*
X-174970Y456800D02*
Y459800D01*
X-62630Y513050D02*
X-59630D01*
X-61130Y511550D02*
Y514550D01*
X71240Y-251770D02*
X74240D01*
X72740Y-253270D02*
Y-250270D01*
X1900Y-49640D02*
X4900D01*
X3400Y-51140D02*
Y-48140D01*
X77110Y-116990D02*
X80110D01*
X78610Y-118490D02*
Y-115490D01*
X-109050Y-211780D02*
X-106050D01*
X-107550Y-213280D02*
Y-210280D01*
X-116850Y-220260D02*
X-113850D01*
X-115350Y-221760D02*
Y-218760D01*
X-107260Y-147130D02*
X-104260D01*
X-105760Y-148630D02*
Y-145630D01*
X-107260Y-119372D02*
X-104260D01*
X-105760Y-120872D02*
Y-117872D01*
X-107260Y-86810D02*
X-104260D01*
X-105760Y-88310D02*
Y-85310D01*
X395730Y-240150D02*
X398730D01*
X397230Y-241650D02*
Y-238650D01*
X345360Y-231340D02*
X348360D01*
X346860Y-232840D02*
Y-229840D01*
X365400Y-241620D02*
X368400D01*
X366900Y-243120D02*
Y-240120D01*
X280950Y-231220D02*
X283950D01*
X282450Y-232720D02*
Y-229720D01*
X301310Y126850D02*
X304310D01*
X302810Y125350D02*
Y128350D01*
X311000Y273780D02*
X314000D01*
X312500Y272280D02*
Y275280D01*
X12010Y11880D02*
X15010D01*
X13510Y10380D02*
Y13380D01*
X-12490Y258820D02*
X-9490D01*
X-10990Y257320D02*
Y260320D01*
X-12318Y195970D02*
X-9318D01*
X-10818Y194470D02*
Y197470D01*
X105710Y166940D02*
X108710D01*
X107210Y165440D02*
Y168440D01*
X106520Y229330D02*
X109520D01*
X108020Y227830D02*
Y230830D01*
X-130640Y-40745D02*
X-127640D01*
X-129140Y-42245D02*
Y-39245D01*
X-301780Y-149080D02*
X-298780D01*
X-300280Y-150580D02*
Y-147580D01*
X4730Y516210D02*
X7730D01*
X6230Y514710D02*
Y517710D01*
X38090Y-476520D02*
X41090D01*
X39590Y-478020D02*
Y-475020D01*
X-13950Y-419120D02*
X-10950D01*
X-12450Y-420620D02*
Y-417620D01*
X49960Y-476420D02*
X52960D01*
X51460Y-477920D02*
Y-474920D01*
X23990Y-476520D02*
X26990D01*
X25490Y-478020D02*
Y-475020D01*
X-194140Y486970D02*
X-191140D01*
X-192640Y485470D02*
Y488470D01*
X-188030Y475700D02*
X-185030D01*
X-186530Y474200D02*
Y477200D01*
X-146330Y-476430D02*
X-143330D01*
X-144830Y-477930D02*
Y-474930D01*
X-24920Y475560D02*
X-21920D01*
X-23420Y474060D02*
Y477060D01*
X91580Y485790D02*
X94580D01*
X93080Y484290D02*
Y487290D01*
X99430Y476870D02*
X102430D01*
X100930Y475370D02*
Y478370D01*
X74226Y481164D02*
X77226D01*
X75726Y479664D02*
Y482664D01*
X-208570Y-119450D02*
X-205570D01*
X-207070Y-120950D02*
Y-117950D01*
X-660960Y73820D02*
X-657960D01*
X-659460Y72320D02*
Y75320D01*
X-239030Y32010D02*
X-236030D01*
X-237530Y30510D02*
Y33510D01*
X-239030Y58880D02*
X-236030D01*
X-237530Y57380D02*
Y60380D01*
X-356810Y173320D02*
X-353810D01*
X-355310Y171820D02*
Y174820D01*
X-356810Y46900D02*
X-353810D01*
X-355310Y45400D02*
Y48400D01*
X-356810Y32370D02*
X-353810D01*
X-355310Y30870D02*
Y33870D01*
X-239030Y45860D02*
X-236030D01*
X-237530Y44360D02*
Y47360D01*
X-362410Y-168250D02*
X-359410D01*
X-360910Y-169750D02*
Y-166750D01*
X-239030Y148100D02*
X-236030D01*
X-237530Y146600D02*
Y149600D01*
X-239030Y116220D02*
X-236030D01*
X-237530Y114720D02*
Y117720D01*
X-356810Y60040D02*
X-353810D01*
X-355310Y58540D02*
Y61540D01*
X-239030Y172960D02*
X-236030D01*
X-237530Y171460D02*
Y174460D01*
X-239030Y90150D02*
X-236030D01*
X-237530Y88650D02*
Y91650D01*
X-239030Y160500D02*
X-236030D01*
X-237530Y159000D02*
Y162000D01*
X-239030Y104030D02*
X-236030D01*
X-237530Y102530D02*
Y105530D01*
X-356810Y89310D02*
X-353810D01*
X-355310Y87810D02*
Y90810D01*
X-356810Y148050D02*
X-353810D01*
X-355310Y146550D02*
Y149550D01*
X-356810Y115780D02*
X-353810D01*
X-355310Y114280D02*
Y117280D01*
X-356810Y160310D02*
X-353810D01*
X-355310Y158810D02*
Y161810D01*
X-356810Y102450D02*
X-353810D01*
X-355310Y100950D02*
Y103950D01*
X-56730Y428460D02*
X-53730D01*
X-55230Y426960D02*
Y429960D01*
X48760Y400610D02*
X51760D01*
X50260Y399110D02*
Y402110D01*
X352420Y-45670D02*
X355420D01*
X353920Y-47170D02*
Y-44170D01*
X352420Y-102230D02*
X355420D01*
X353920Y-103730D02*
Y-100730D01*
X352420Y-162270D02*
X355420D01*
X353920Y-163770D02*
Y-160770D01*
X232460Y-160670D02*
X235460D01*
X233960Y-162170D02*
Y-159170D01*
X232460Y-102850D02*
X235460D01*
X233960Y-104350D02*
Y-101350D01*
X232460Y-46010D02*
X235460D01*
X233960Y-47510D02*
Y-44510D01*
X-134500Y542990D02*
X-131500D01*
X-133000Y541490D02*
Y544490D01*
X-123980Y565750D02*
X-120980D01*
X-122480Y564250D02*
Y567250D01*
X-487200Y278460D02*
X-484200D01*
X-485700Y276960D02*
Y279960D01*
X-496700Y263970D02*
X-493700D01*
X-495200Y262470D02*
Y265470D01*
X-462420Y397760D02*
X-459420D01*
X-460920Y396260D02*
Y399260D01*
X-470968Y397760D02*
X-467968D01*
X-469468Y396260D02*
Y399260D01*
X-496612Y397760D02*
X-493612D01*
X-495112Y396260D02*
Y399260D01*
X-242790Y378010D02*
X-239790D01*
X-241290Y376510D02*
Y379510D01*
X-213450Y411370D02*
X-210450D01*
X-211950Y409870D02*
Y412870D01*
X-213450Y418460D02*
X-210450D01*
X-211950Y416960D02*
Y419960D01*
X35630Y447030D02*
X38630D01*
X37130Y445530D02*
Y448530D01*
X352420Y-150000D02*
X355420D01*
X353920Y-151500D02*
Y-148500D01*
X352420Y-116230D02*
X355420D01*
X353920Y-117730D02*
Y-114730D01*
X352420Y-90120D02*
X355420D01*
X353920Y-91620D02*
Y-88620D01*
X352420Y-57450D02*
X355420D01*
X353920Y-58950D02*
Y-55950D01*
X352420Y-33520D02*
X355420D01*
X353920Y-35020D02*
Y-32020D01*
X232460Y-148710D02*
X235460D01*
X233960Y-150210D02*
Y-147210D01*
X232460Y-116470D02*
X235460D01*
X233960Y-117970D02*
Y-114970D01*
X232460Y-89340D02*
X235460D01*
X233960Y-90840D02*
Y-87840D01*
X232460Y-58050D02*
X235460D01*
X233960Y-59550D02*
Y-56550D01*
X232460Y-33900D02*
X235460D01*
X233960Y-35400D02*
Y-32400D01*
X21810Y-299790D02*
X24810D01*
X23310Y-301290D02*
Y-298290D01*
X-163460Y489440D02*
X-160460D01*
X-161960Y487940D02*
Y490940D01*
X171020Y460160D02*
X174020D01*
X172520Y458660D02*
Y461660D01*
X171230Y505400D02*
X174230D01*
X172730Y503900D02*
Y506900D01*
X-83990Y173320D02*
X-80990D01*
X-82490Y171820D02*
Y174820D01*
X-85210Y258310D02*
X-82210D01*
X-83710Y256810D02*
Y259810D01*
X110390Y25790D02*
X113390D01*
X111890Y24290D02*
Y27290D01*
X128980Y41460D02*
X131980D01*
X130480Y39960D02*
Y42960D01*
X138119Y52251D02*
X141119D01*
X139619Y50751D02*
Y53751D01*
X162690Y154400D02*
X165690D01*
X164190Y152900D02*
Y155900D01*
X148362Y46230D02*
X151362D01*
X149862Y44730D02*
Y47730D01*
X-94340Y45600D02*
X-91340D01*
X-92840Y44100D02*
Y47100D01*
X-122469Y-60789D02*
X-119469D01*
X-120969Y-62289D02*
Y-59289D01*
X-116350Y-41670D02*
X-113350D01*
X-114850Y-43170D02*
Y-40170D01*
X-56790Y-125480D02*
X-53790D01*
X-55290Y-126980D02*
Y-123980D01*
X114450Y52310D02*
X117450D01*
X115950Y50810D02*
Y53810D01*
X77030Y-124520D02*
X80030D01*
X78530Y-126020D02*
Y-123020D01*
X44490Y-147797D02*
X47490D01*
X45990Y-149297D02*
Y-146297D01*
X-22150Y-205810D02*
X-19150D01*
X-20650Y-207310D02*
Y-204310D01*
X-22830Y-214800D02*
X-19830D01*
X-21330Y-216300D02*
Y-213300D01*
X45850Y-172000D02*
X48850D01*
X47350Y-173500D02*
Y-170500D01*
X23480Y-167630D02*
X26480D01*
X24980Y-169130D02*
Y-166130D01*
X17260Y-173380D02*
X20260D01*
X18760Y-174880D02*
Y-171880D01*
X51110Y434620D02*
X54110D01*
X52610Y433120D02*
Y436120D01*
X28040Y471020D02*
X31040D01*
X29540Y469520D02*
Y472520D01*
X-107320Y-199660D02*
X-104320D01*
X-105820Y-201160D02*
Y-198160D01*
X-107320Y-187590D02*
X-104320D01*
X-105820Y-189090D02*
Y-186090D01*
X-107320Y-172730D02*
X-104320D01*
X-105820Y-174230D02*
Y-171230D01*
X64750Y-4515D02*
X67750D01*
X66250Y-6015D02*
Y-3015D01*
X68960Y-20940D02*
X71960D01*
X70460Y-22440D02*
Y-19440D01*
X363150Y238100D02*
X366150D01*
X364650Y236600D02*
Y239600D01*
X-449480Y331030D02*
X-446480D01*
X-447980Y329530D02*
Y332530D01*
X-346920Y317940D02*
X-343920D01*
X-345420Y316440D02*
Y319440D01*
X-403650Y273150D02*
X-400650D01*
X-402150Y271650D02*
Y274650D01*
X-436690Y398930D02*
X-433690D01*
X-435190Y397430D02*
Y400430D01*
X-468340Y289350D02*
X-465340D01*
X-466840Y287850D02*
Y290850D01*
X-57700Y-136600D02*
X-54700D01*
X-56200Y-138100D02*
Y-135100D01*
X-34300Y-106800D02*
X-31300D01*
X-32800Y-108300D02*
Y-105300D01*
X68500Y-31500D02*
X71500D01*
X70000Y-33000D02*
Y-30000D01*
X-49940Y-119840D02*
X-46940D01*
X-48440Y-121340D02*
Y-118340D01*
X-19020Y-56930D02*
X-16020D01*
X-17520Y-58430D02*
Y-55430D01*
X19150Y-56680D02*
X22150D01*
X20650Y-58180D02*
Y-55180D01*
X-9200Y-135000D02*
X-6200D01*
X-7700Y-136500D02*
Y-133500D01*
X54800Y-176991D02*
X57800D01*
X56300Y-178491D02*
Y-175491D01*
X57440Y-200830D02*
X60440D01*
X58940Y-202330D02*
Y-199330D01*
X-27200Y1580D02*
X-24200D01*
X-25700Y80D02*
Y3080D01*
X-64740Y-48070D02*
X-61740D01*
X-63240Y-49570D02*
Y-46570D01*
X-45065Y-48510D02*
X-42065D01*
X-43565Y-50010D02*
Y-47010D01*
X46150Y-200530D02*
X49150D01*
X47650Y-202030D02*
Y-199030D01*
X88460Y-157570D02*
X91460D01*
X89960Y-159070D02*
Y-156070D01*
X85010Y-135800D02*
X88010D01*
X86510Y-137300D02*
Y-134300D01*
X70000Y8600D02*
X73000D01*
X71500Y7100D02*
Y10100D01*
X70000Y24200D02*
X73000D01*
X71500Y22700D02*
Y25700D01*
X-27100Y-170491D02*
X-24100D01*
X-25600Y-171991D02*
Y-168991D01*
X-22600Y-176500D02*
X-19600D01*
X-21100Y-178000D02*
Y-175000D01*
X-25600Y-146400D02*
X-22600D01*
X-24100Y-147900D02*
Y-144900D01*
X-62400Y-143900D02*
X-59400D01*
X-60900Y-145400D02*
Y-142400D01*
X35700Y-38300D02*
X38700D01*
X37200Y-39800D02*
Y-36800D01*
X14787Y-250000D02*
X17787D01*
X16287Y-251500D02*
Y-248500D01*
X-37200Y174400D02*
X-34200D01*
X-35700Y172900D02*
Y175900D01*
X-37800Y236600D02*
X-34800D01*
X-36300Y235100D02*
Y238100D01*
X48600Y239100D02*
X51600D01*
X50100Y237600D02*
Y240600D01*
X48700Y176600D02*
X51700D01*
X50200Y175100D02*
Y178100D01*
X198660Y117610D02*
X201660D01*
X200160Y116110D02*
Y119110D01*
X189680Y-225110D02*
X192680D01*
X191180Y-226610D02*
Y-223610D01*
X-93730Y-478480D02*
X-90730D01*
X-92230Y-479980D02*
Y-476980D01*
X16203Y-374025D02*
X19203D01*
X17703Y-375525D02*
Y-372525D01*
X16203Y-364769D02*
X19203D01*
X17703Y-366269D02*
Y-363269D01*
X16203Y-383319D02*
X19203D01*
X17703Y-384819D02*
Y-381819D01*
X81130Y-430320D02*
X84130D01*
X82630Y-431820D02*
Y-428820D01*
X-120500Y-384990D02*
X-117500D01*
X-119000Y-386490D02*
Y-383490D01*
X-120500Y-366440D02*
X-117500D01*
X-119000Y-367940D02*
Y-364940D01*
X-120500Y-375696D02*
X-117500D01*
X-119000Y-377196D02*
Y-374196D01*
X-36910Y-339930D02*
X-33910D01*
X-35410Y-341430D02*
Y-338430D01*
X-68810Y-387220D02*
X-65810D01*
X-67310Y-388720D02*
Y-385720D01*
X-58450Y-426050D02*
X-55450D01*
X-56950Y-427550D02*
Y-424550D01*
X-183360Y-333710D02*
X-180360D01*
X-181860Y-335210D02*
Y-332210D01*
X-183330Y-415680D02*
X-180330D01*
X-181830Y-417180D02*
Y-414180D01*
X229220Y-352780D02*
X232220D01*
X230720Y-354280D02*
Y-351280D01*
X260540Y-352200D02*
X263540D01*
X262040Y-353700D02*
Y-350700D01*
X112350Y-225400D02*
X115350D01*
X113850Y-226900D02*
Y-223900D01*
M02*
