G04*
G04 #@! TF.GenerationSoftware,Altium Limited,Altium Designer,24.1.2 (44)*
G04*
G04 Layer_Physical_Order=2*
G04 Layer_Color=1265191*
%FSLAX44Y44*%
%MOMM*%
G71*
G04*
G04 #@! TF.SameCoordinates,73D3B6D1-293B-4555-8E94-AA9770B35CAF*
G04*
G04*
G04 #@! TF.FilePolarity,Positive*
G04*
G01*
G75*
%ADD12C,0.4000*%
%ADD134R,2.5000X2.5000*%
%ADD135C,2.5000*%
%ADD152C,5.0000*%
%ADD165R,2.2860X1.9050*%
%ADD166O,2.2860X1.9050*%
%ADD167O,1.9050X2.2860*%
%ADD168R,1.9050X2.2860*%
%ADD169C,1.5200*%
%ADD170R,1.5200X1.5200*%
%ADD171C,2.0000*%
%ADD172R,1.5000X1.5000*%
%ADD173C,1.5000*%
%ADD174C,6.3500*%
%ADD175C,1.0000*%
%ADD176C,4.0000*%
%ADD177P,5.6569X4X165.0*%
%ADD178R,1.5200X1.5200*%
%ADD179P,5.6569X4X75.0*%
%ADD180R,4.0000X4.0000*%
%ADD181R,4.0000X4.0000*%
%ADD182P,5.6569X4X105.0*%
%ADD183P,5.6569X4X375.0*%
%ADD184C,0.6000*%
%ADD185C,0.5000*%
G36*
X196970Y408060D02*
X494150D01*
Y-10230D01*
X539590Y-55670D01*
Y-377870D01*
X482241Y-435219D01*
X481280Y-434258D01*
X477046Y-431181D01*
X472383Y-428805D01*
X467405Y-427188D01*
X462236Y-426369D01*
X457002D01*
X451833Y-427188D01*
X446856Y-428805D01*
X442193Y-431181D01*
X437958Y-434258D01*
X434258Y-437958D01*
X431181Y-442192D01*
X428805Y-446856D01*
X427188Y-451833D01*
X426369Y-457002D01*
Y-462236D01*
X427188Y-467405D01*
X428805Y-472383D01*
X431181Y-477046D01*
X434258Y-481280D01*
X435219Y-482241D01*
X286280Y-631180D01*
X211770D01*
X186030Y-656920D01*
X-103920D01*
X-117420Y-643420D01*
X-117420Y-622234D01*
X-158896Y-581284D01*
X-241260Y-581490D01*
X-269090Y-553660D01*
Y-293420D01*
X-94850D01*
Y-416180D01*
X-73980Y-437050D01*
X-52220D01*
Y-449720D01*
X-52740Y-450975D01*
Y-452765D01*
X-52220Y-454021D01*
Y-589990D01*
X196970D01*
X219560Y-567400D01*
Y-513210D01*
X221794D01*
X224109Y-512590D01*
X226184Y-511392D01*
X227878Y-509697D01*
X229076Y-507622D01*
X229696Y-505308D01*
Y-502912D01*
X229076Y-500597D01*
X227878Y-498522D01*
X226184Y-496828D01*
X224109Y-495630D01*
X223623Y-495500D01*
X223791Y-494230D01*
X286280D01*
Y-488725D01*
X311890D01*
Y-466675D01*
X286280D01*
Y-458375D01*
X286960Y-458069D01*
X287550Y-458023D01*
X289192Y-460163D01*
X291495Y-461930D01*
X294177Y-463041D01*
X297055Y-463420D01*
X300865D01*
X303743Y-463041D01*
X306425Y-461930D01*
X308728Y-460163D01*
X310495Y-457860D01*
X311606Y-455178D01*
X311985Y-452300D01*
X311606Y-449422D01*
X310495Y-446740D01*
X308728Y-444437D01*
X306425Y-442670D01*
X303743Y-441559D01*
X300865Y-441180D01*
X297055D01*
X294177Y-441559D01*
X291495Y-442670D01*
X289192Y-444437D01*
X287550Y-446577D01*
X286960Y-446531D01*
X286280Y-446225D01*
X286280Y-395321D01*
X287366Y-394397D01*
X287969Y-394646D01*
X290847Y-395025D01*
X293725Y-394646D01*
X296407Y-393535D01*
X298710Y-391768D01*
X300477Y-389465D01*
X301588Y-386783D01*
X301967Y-383905D01*
Y-380095D01*
X301588Y-377217D01*
X300477Y-374535D01*
X298710Y-372232D01*
X296407Y-370465D01*
X293725Y-369354D01*
X290847Y-368975D01*
X287969Y-369354D01*
X285287Y-370465D01*
X282984Y-372232D01*
X281217Y-374535D01*
X280106Y-377217D01*
X279727Y-380095D01*
Y-383905D01*
X280106Y-386783D01*
X281217Y-389465D01*
X282984Y-391768D01*
X285287Y-393535D01*
X285371Y-393570D01*
X285118Y-394840D01*
X271176D01*
X270923Y-393570D01*
X271007Y-393535D01*
X273310Y-391768D01*
X275077Y-389465D01*
X276188Y-386783D01*
X276567Y-383905D01*
Y-380095D01*
X276188Y-377217D01*
X275077Y-374535D01*
X273310Y-372232D01*
X271007Y-370465D01*
X268325Y-369354D01*
X265447Y-368975D01*
X262569Y-369354D01*
X259887Y-370465D01*
X257584Y-372232D01*
X255817Y-374535D01*
X254706Y-377217D01*
X254327Y-380095D01*
Y-383905D01*
X254706Y-386783D01*
X255817Y-389465D01*
X257584Y-391768D01*
X259887Y-393535D01*
X259971Y-393570D01*
X259718Y-394840D01*
X251072D01*
Y-369070D01*
X229022D01*
Y-394840D01*
X161686D01*
X161433Y-393570D01*
X161517Y-393535D01*
X163820Y-391768D01*
X165587Y-389465D01*
X166698Y-386783D01*
X167077Y-383905D01*
Y-380095D01*
X166698Y-377217D01*
X165587Y-374535D01*
X163820Y-372232D01*
X161517Y-370465D01*
X158835Y-369354D01*
X155957Y-368975D01*
X153079Y-369354D01*
X150397Y-370465D01*
X148094Y-372232D01*
X146327Y-374535D01*
X145216Y-377217D01*
X144837Y-380095D01*
Y-383905D01*
X145216Y-386783D01*
X146327Y-389465D01*
X148094Y-391768D01*
X150397Y-393535D01*
X150481Y-393570D01*
X150228Y-394840D01*
X136286D01*
X136033Y-393570D01*
X136117Y-393535D01*
X138420Y-391768D01*
X140187Y-389465D01*
X141298Y-386783D01*
X141677Y-383905D01*
Y-380095D01*
X141298Y-377217D01*
X140187Y-374535D01*
X138420Y-372232D01*
X136117Y-370465D01*
X133435Y-369354D01*
X130557Y-368975D01*
X127679Y-369354D01*
X124997Y-370465D01*
X122694Y-372232D01*
X120927Y-374535D01*
X119816Y-377217D01*
X119437Y-380095D01*
Y-383905D01*
X119816Y-386783D01*
X120927Y-389465D01*
X122694Y-391768D01*
X124997Y-393535D01*
X125081Y-393570D01*
X124828Y-394840D01*
X116182D01*
Y-369070D01*
X98090D01*
Y-308670D01*
X456370D01*
Y-177720D01*
X357350D01*
X356834Y-176450D01*
X357735Y-175549D01*
X358420Y-173895D01*
Y-172105D01*
X357735Y-170451D01*
X356469Y-169185D01*
X354815Y-168500D01*
X353025D01*
X351371Y-169185D01*
X350448Y-170108D01*
X349660Y-170327D01*
X348872Y-170108D01*
X347949Y-169185D01*
X346295Y-168500D01*
X344505D01*
X342851Y-169185D01*
X341585Y-170451D01*
X340900Y-172105D01*
Y-173895D01*
X341585Y-175549D01*
X342486Y-176450D01*
X341970Y-177720D01*
X219560D01*
Y-14860D01*
X332550D01*
X397310Y49900D01*
Y324810D01*
X-111787D01*
X-187020Y248479D01*
Y223270D01*
X-188290Y222744D01*
X-189001Y223455D01*
X-190655Y224140D01*
X-192445D01*
X-194099Y223455D01*
X-194865Y222689D01*
X-195877Y222446D01*
X-196470Y222744D01*
X-197381Y223655D01*
X-199035Y224340D01*
X-200825D01*
X-202479Y223655D01*
X-203745Y222389D01*
X-204430Y220735D01*
Y218945D01*
X-203745Y217291D01*
X-202479Y216025D01*
X-200825Y215340D01*
X-199035D01*
X-197381Y216025D01*
X-196615Y216791D01*
X-195603Y217034D01*
X-195010Y216736D01*
X-194099Y215825D01*
X-192445Y215140D01*
X-190655D01*
X-189001Y215825D01*
X-188290Y216536D01*
X-187020Y216010D01*
Y210810D01*
X-188290Y210284D01*
X-189001Y210995D01*
X-190655Y211680D01*
X-192445D01*
X-194099Y210995D01*
X-194865Y210229D01*
X-195877Y209986D01*
X-196470Y210284D01*
X-197381Y211195D01*
X-199035Y211880D01*
X-200825D01*
X-202479Y211195D01*
X-203745Y209929D01*
X-204430Y208275D01*
Y206485D01*
X-203745Y204831D01*
X-202479Y203565D01*
X-200825Y202880D01*
X-199035D01*
X-197381Y203565D01*
X-196615Y204331D01*
X-195603Y204574D01*
X-195010Y204276D01*
X-194099Y203365D01*
X-192445Y202680D01*
X-190655D01*
X-189001Y203365D01*
X-188290Y204076D01*
X-187020Y203550D01*
Y198410D01*
X-188290Y197884D01*
X-189001Y198595D01*
X-190655Y199280D01*
X-192445D01*
X-194099Y198595D01*
X-194865Y197829D01*
X-195877Y197586D01*
X-196470Y197884D01*
X-197381Y198795D01*
X-199035Y199480D01*
X-200825D01*
X-202479Y198795D01*
X-203745Y197529D01*
X-204430Y195875D01*
Y194085D01*
X-203745Y192431D01*
X-202479Y191165D01*
X-200825Y190480D01*
X-199035D01*
X-197381Y191165D01*
X-196615Y191931D01*
X-195603Y192174D01*
X-195010Y191876D01*
X-194099Y190965D01*
X-192445Y190280D01*
X-190655D01*
X-189001Y190965D01*
X-188290Y191676D01*
X-187020Y191150D01*
Y189300D01*
X-224710Y151610D01*
Y-26540D01*
X-238740Y-40570D01*
Y-48710D01*
X-316090D01*
X-345600Y-78220D01*
Y-194170D01*
X-386640Y-235210D01*
X-472660D01*
Y-189300D01*
X-472660Y-119110D01*
X-411580Y-58030D01*
Y99780D01*
X-546870D01*
Y334759D01*
X-517449Y364180D01*
X-189760D01*
Y470907D01*
X-188490Y471641D01*
X-187425Y471200D01*
X-185635D01*
X-183981Y471885D01*
X-182715Y473151D01*
X-182030Y474805D01*
Y476595D01*
X-182715Y478249D01*
X-183981Y479515D01*
X-185635Y480200D01*
X-187425D01*
X-188490Y479759D01*
X-189760Y480493D01*
Y483486D01*
X-188825Y484421D01*
X-188140Y486075D01*
Y487865D01*
X-188825Y489519D01*
X-189760Y490454D01*
Y526170D01*
X196970D01*
Y408060D01*
D02*
G37*
G36*
X-234620Y593720D02*
X233890D01*
Y804320D01*
X285300D01*
Y438340D01*
X233890D01*
Y558760D01*
X-234620D01*
Y436780D01*
X-285630D01*
Y804760D01*
X-234620D01*
Y593720D01*
D02*
G37*
G36*
X360680Y240274D02*
X360150Y238995D01*
Y237205D01*
X360680Y235926D01*
Y149710D01*
X306160D01*
X270303Y114070D01*
X204643D01*
X204090Y115340D01*
X204660Y116715D01*
Y118505D01*
X203975Y120159D01*
X202709Y121425D01*
X201055Y122110D01*
X199265D01*
X197611Y121425D01*
X196345Y120159D01*
X195660Y118505D01*
Y116715D01*
X196229Y115340D01*
X195677Y114070D01*
X170420D01*
Y38976D01*
X169150Y38544D01*
X168138Y39863D01*
X165835Y41630D01*
X163153Y42741D01*
X160275Y43120D01*
X156465D01*
X154613Y42876D01*
X154412Y43050D01*
X153831Y44054D01*
X154362Y45335D01*
Y47125D01*
X153677Y48779D01*
X152411Y50045D01*
X150757Y50730D01*
X148967D01*
X147313Y50045D01*
X146047Y48779D01*
X145362Y47125D01*
Y45335D01*
X146047Y43681D01*
X147313Y42415D01*
X148967Y41730D01*
X149380Y40460D01*
X148602Y39863D01*
X146835Y37560D01*
X145724Y34878D01*
X145345Y32000D01*
X145724Y29122D01*
X146835Y26440D01*
X148602Y24137D01*
X150905Y22370D01*
X153587Y21259D01*
X156465Y20880D01*
X160275D01*
X163153Y21259D01*
X165835Y22370D01*
X168138Y24137D01*
X169150Y25456D01*
X170420Y25024D01*
Y13576D01*
X169150Y13144D01*
X168138Y14463D01*
X165835Y16230D01*
X163153Y17341D01*
X160275Y17720D01*
X156465D01*
X153587Y17341D01*
X150905Y16230D01*
X148602Y14463D01*
X146835Y12160D01*
X145724Y9478D01*
X145345Y6600D01*
X145724Y3722D01*
X146835Y1040D01*
X148602Y-1263D01*
X150905Y-3030D01*
X153587Y-4141D01*
X156465Y-4520D01*
X160275D01*
X163153Y-4141D01*
X165835Y-3030D01*
X168138Y-1263D01*
X169150Y56D01*
X170420Y-375D01*
Y-33175D01*
X145440D01*
Y-55225D01*
X170420D01*
Y-119829D01*
X169150Y-120260D01*
X168518Y-119437D01*
X166215Y-117670D01*
X163533Y-116559D01*
X160655Y-116180D01*
X156845D01*
X153967Y-116559D01*
X151285Y-117670D01*
X148982Y-119437D01*
X147215Y-121740D01*
X146104Y-124422D01*
X145725Y-127300D01*
X146104Y-130178D01*
X147215Y-132860D01*
X148982Y-135163D01*
X151285Y-136930D01*
X153967Y-138041D01*
X156845Y-138420D01*
X160655D01*
X163533Y-138041D01*
X166215Y-136930D01*
X168518Y-135163D01*
X169150Y-134340D01*
X170420Y-134771D01*
Y-161400D01*
X211790Y-202770D01*
X227229D01*
X227640Y-203385D01*
Y-205175D01*
X228325Y-206829D01*
X229591Y-208095D01*
X231245Y-208780D01*
X233035D01*
X234689Y-208095D01*
X235955Y-206829D01*
X236640Y-205175D01*
Y-203385D01*
X237051Y-202770D01*
X246263D01*
X246540Y-203185D01*
Y-204975D01*
X247225Y-206629D01*
X248491Y-207895D01*
X250145Y-208580D01*
X251935D01*
X253589Y-207895D01*
X254855Y-206629D01*
X255540Y-204975D01*
Y-203185D01*
X255817Y-202770D01*
X308890D01*
Y-204385D01*
X309575Y-206039D01*
X310841Y-207305D01*
X312495Y-207990D01*
X314285D01*
X315939Y-207305D01*
X317205Y-206039D01*
X317890Y-204385D01*
Y-202770D01*
X415650D01*
Y-289170D01*
X358910Y-289170D01*
X328270Y-258530D01*
X155530D01*
Y-238780D01*
X77600D01*
Y-248607D01*
X77389Y-248731D01*
X76330Y-248996D01*
X75289Y-247955D01*
X73635Y-247270D01*
X71845D01*
X70191Y-247955D01*
X68925Y-249221D01*
X68240Y-250875D01*
Y-252665D01*
X68925Y-254319D01*
X70191Y-255585D01*
X71845Y-256270D01*
X73635D01*
X75289Y-255585D01*
X76330Y-254544D01*
X77389Y-254809D01*
X77600Y-254933D01*
Y-423310D01*
X257350D01*
Y-467690D01*
X193690D01*
Y-553360D01*
X178780Y-568270D01*
X-19890D01*
Y-420390D01*
X-55850D01*
Y-258530D01*
X-102575D01*
Y-233070D01*
X-124625D01*
Y-258530D01*
X-132650D01*
X-133081Y-257260D01*
X-131137Y-255768D01*
X-129370Y-253465D01*
X-128259Y-250783D01*
X-127880Y-247905D01*
Y-244095D01*
X-128259Y-241217D01*
X-129370Y-238535D01*
X-131137Y-236232D01*
X-133440Y-234465D01*
X-136122Y-233354D01*
X-139000Y-232975D01*
X-141878Y-233354D01*
X-144560Y-234465D01*
X-146863Y-236232D01*
X-148630Y-238535D01*
X-149741Y-241217D01*
X-150120Y-244095D01*
Y-247905D01*
X-149741Y-250783D01*
X-148630Y-253465D01*
X-146863Y-255768D01*
X-144919Y-257260D01*
X-145350Y-258530D01*
X-286920D01*
X-307550Y-279160D01*
Y-485560D01*
X-464470D01*
X-476830Y-473257D01*
Y-371080D01*
X-387190D01*
X-365790Y-349680D01*
Y-253470D01*
X-307550Y-195230D01*
Y-118630D01*
X-211570D01*
Y-120345D01*
X-210885Y-121999D01*
X-209619Y-123265D01*
X-207965Y-123950D01*
X-206175D01*
X-204521Y-123265D01*
X-203255Y-121999D01*
X-202570Y-120345D01*
Y-118630D01*
X-177810D01*
Y97680D01*
X-123720Y151770D01*
X-112740Y162078D01*
Y257550D01*
X-89910Y280380D01*
X360680D01*
Y240274D01*
D02*
G37*
G36*
X587450Y124910D02*
X834649D01*
Y65560D01*
X542770D01*
Y214820D01*
X587450D01*
Y124910D01*
D02*
G37*
G36*
X-451220Y-45070D02*
X-509990D01*
Y-113250D01*
X-836560D01*
Y-58320D01*
X-592640D01*
Y-320D01*
X-451220D01*
Y-45070D01*
D02*
G37*
%LPC*%
G36*
X7125Y520710D02*
X5335D01*
X3681Y520025D01*
X2415Y518759D01*
X1730Y517105D01*
Y515315D01*
X2415Y513661D01*
X3681Y512395D01*
X5335Y511710D01*
X7125D01*
X8779Y512395D01*
X10045Y513661D01*
X10730Y515315D01*
Y517105D01*
X10045Y518759D01*
X8779Y520025D01*
X7125Y520710D01*
D02*
G37*
G36*
X173625Y509900D02*
X171835D01*
X170181Y509215D01*
X168915Y507949D01*
X168230Y506295D01*
Y504505D01*
X168915Y502851D01*
X170181Y501585D01*
X171835Y500900D01*
X173625D01*
X175279Y501585D01*
X176545Y502851D01*
X177230Y504505D01*
Y506295D01*
X176545Y507949D01*
X175279Y509215D01*
X173625Y509900D01*
D02*
G37*
G36*
X-161065Y493940D02*
X-162855D01*
X-164509Y493255D01*
X-165775Y491989D01*
X-166460Y490335D01*
Y488545D01*
X-165775Y486891D01*
X-164509Y485625D01*
X-162855Y484940D01*
X-161065D01*
X-159411Y485625D01*
X-158145Y486891D01*
X-157460Y488545D01*
Y490335D01*
X-158145Y491989D01*
X-159411Y493255D01*
X-161065Y493940D01*
D02*
G37*
G36*
X93975Y490290D02*
X92185D01*
X90531Y489605D01*
X89265Y488339D01*
X88580Y486685D01*
Y484895D01*
X89265Y483241D01*
X90531Y481975D01*
X92185Y481290D01*
X93975D01*
X95629Y481975D01*
X96895Y483241D01*
X97580Y484895D01*
Y486685D01*
X96895Y488339D01*
X95629Y489605D01*
X93975Y490290D01*
D02*
G37*
G36*
X76621Y485664D02*
X74831D01*
X73177Y484979D01*
X71911Y483713D01*
X71226Y482059D01*
Y480269D01*
X71911Y478615D01*
X73177Y477349D01*
X74831Y476664D01*
X76621D01*
X78275Y477349D01*
X79541Y478615D01*
X80226Y480269D01*
Y482059D01*
X79541Y483713D01*
X78275Y484979D01*
X76621Y485664D01*
D02*
G37*
G36*
X101825Y481370D02*
X100035D01*
X98381Y480685D01*
X97115Y479419D01*
X96430Y477765D01*
Y475975D01*
X97115Y474321D01*
X98381Y473055D01*
X100035Y472370D01*
X101825D01*
X103479Y473055D01*
X104745Y474321D01*
X105430Y475975D01*
Y477765D01*
X104745Y479419D01*
X103479Y480685D01*
X101825Y481370D01*
D02*
G37*
G36*
X-22525Y480060D02*
X-24315D01*
X-25969Y479375D01*
X-27235Y478109D01*
X-27920Y476455D01*
Y474665D01*
X-27235Y473011D01*
X-25969Y471745D01*
X-24315Y471060D01*
X-22525D01*
X-20871Y471745D01*
X-19605Y473011D01*
X-18920Y474665D01*
Y476455D01*
X-19605Y478109D01*
X-20871Y479375D01*
X-22525Y480060D01*
D02*
G37*
G36*
X30435Y475520D02*
X28645D01*
X26991Y474835D01*
X25725Y473569D01*
X25040Y471915D01*
Y470125D01*
X25725Y468471D01*
X26991Y467205D01*
X28645Y466520D01*
X30435D01*
X32089Y467205D01*
X33355Y468471D01*
X34040Y470125D01*
Y471915D01*
X33355Y473569D01*
X32089Y474835D01*
X30435Y475520D01*
D02*
G37*
G36*
X173415Y464660D02*
X171625D01*
X169971Y463975D01*
X168705Y462709D01*
X168020Y461055D01*
Y459265D01*
X168705Y457611D01*
X169971Y456345D01*
X171625Y455660D01*
X173415D01*
X175069Y456345D01*
X176335Y457611D01*
X177020Y459265D01*
Y461055D01*
X176335Y462709D01*
X175069Y463975D01*
X173415Y464660D01*
D02*
G37*
G36*
X38025Y451530D02*
X36235D01*
X34581Y450845D01*
X33315Y449579D01*
X32630Y447925D01*
Y446135D01*
X33315Y444481D01*
X34581Y443215D01*
X36235Y442530D01*
X38025D01*
X39679Y443215D01*
X40945Y444481D01*
X41630Y446135D01*
Y447925D01*
X40945Y449579D01*
X39679Y450845D01*
X38025Y451530D01*
D02*
G37*
G36*
X53505Y439120D02*
X51715D01*
X50061Y438435D01*
X48795Y437169D01*
X48110Y435515D01*
Y433725D01*
X48795Y432071D01*
X50061Y430805D01*
X51715Y430120D01*
X53505D01*
X55159Y430805D01*
X56425Y432071D01*
X57110Y433725D01*
Y435515D01*
X56425Y437169D01*
X55159Y438435D01*
X53505Y439120D01*
D02*
G37*
G36*
X-54335Y432960D02*
X-56125D01*
X-57779Y432275D01*
X-59045Y431009D01*
X-59730Y429355D01*
Y427565D01*
X-59045Y425911D01*
X-57779Y424645D01*
X-56125Y423960D01*
X-54335D01*
X-52681Y424645D01*
X-51415Y425911D01*
X-50730Y427565D01*
Y429355D01*
X-51415Y431009D01*
X-52681Y432275D01*
X-54335Y432960D01*
D02*
G37*
G36*
X51155Y405110D02*
X49365D01*
X47711Y404425D01*
X46445Y403159D01*
X45760Y401505D01*
Y399715D01*
X46445Y398061D01*
X47711Y396795D01*
X49365Y396110D01*
X51155D01*
X52809Y396795D01*
X54075Y398061D01*
X54760Y399715D01*
Y401505D01*
X54075Y403159D01*
X52809Y404425D01*
X51155Y405110D01*
D02*
G37*
G36*
X124870Y453810D02*
X82610D01*
Y389080D01*
X160690D01*
Y423260D01*
X124870D01*
Y453810D01*
D02*
G37*
G36*
X197590Y395775D02*
X171730D01*
Y373725D01*
X197590D01*
Y395775D01*
D02*
G37*
G36*
X-245725Y360750D02*
X-247515D01*
X-249169Y360065D01*
X-250435Y358799D01*
X-251120Y357145D01*
Y355355D01*
X-250435Y353701D01*
X-249169Y352435D01*
X-247515Y351750D01*
X-245725D01*
X-244071Y352435D01*
X-242805Y353701D01*
X-242120Y355355D01*
Y357145D01*
X-242805Y358799D01*
X-244071Y360065D01*
X-245725Y360750D01*
D02*
G37*
G36*
X-390615Y357770D02*
X-392405D01*
X-394059Y357085D01*
X-395325Y355819D01*
X-396010Y354165D01*
Y352375D01*
X-395325Y350721D01*
X-394059Y349455D01*
X-392405Y348770D01*
X-390615D01*
X-388961Y349455D01*
X-387695Y350721D01*
X-387010Y352375D01*
Y354165D01*
X-387695Y355819D01*
X-388961Y357085D01*
X-390615Y357770D01*
D02*
G37*
G36*
X186565Y370470D02*
X182755D01*
X179877Y370091D01*
X177195Y368980D01*
X174892Y367213D01*
X173125Y364910D01*
X172014Y362228D01*
X171635Y359350D01*
X172014Y356472D01*
X173125Y353790D01*
X174892Y351487D01*
X177195Y349720D01*
X179877Y348609D01*
X182755Y348230D01*
X186565D01*
X189443Y348609D01*
X192125Y349720D01*
X194428Y351487D01*
X196195Y353790D01*
X197306Y356472D01*
X197685Y359350D01*
X197306Y362228D01*
X196195Y364910D01*
X194428Y367213D01*
X192125Y368980D01*
X189443Y370091D01*
X186565Y370470D01*
D02*
G37*
G36*
X4360Y370470D02*
X-23640D01*
Y342470D01*
X4360D01*
Y370470D01*
D02*
G37*
G36*
X95560Y370240D02*
X67560D01*
Y342240D01*
X95560D01*
Y370240D01*
D02*
G37*
G36*
X-58007D02*
X-61693D01*
X-65254Y369286D01*
X-68446Y367443D01*
X-71053Y364836D01*
X-72896Y361644D01*
X-73850Y358083D01*
Y354397D01*
X-72896Y350836D01*
X-71053Y347644D01*
X-68446Y345037D01*
X-65254Y343194D01*
X-61693Y342240D01*
X-58007D01*
X-54446Y343194D01*
X-51254Y345037D01*
X-48647Y347644D01*
X-46804Y350836D01*
X-45850Y354397D01*
Y358083D01*
X-46804Y361644D01*
X-48647Y364836D01*
X-51254Y367443D01*
X-54446Y369286D01*
X-58007Y370240D01*
D02*
G37*
G36*
X-85450D02*
X-113450D01*
Y342240D01*
X-85450D01*
Y370240D01*
D02*
G37*
G36*
X-245555Y350370D02*
X-247345D01*
X-248999Y349685D01*
X-250265Y348419D01*
X-250950Y346765D01*
Y344975D01*
X-250265Y343321D01*
X-248999Y342055D01*
X-247345Y341370D01*
X-245555D01*
X-243901Y342055D01*
X-242635Y343321D01*
X-241950Y344975D01*
Y346765D01*
X-242635Y348419D01*
X-243901Y349685D01*
X-245555Y350370D01*
D02*
G37*
G36*
X246265Y336730D02*
X244475D01*
X242821Y336045D01*
X241555Y334779D01*
X240870Y333125D01*
Y331335D01*
X241555Y329681D01*
X242821Y328415D01*
X244475Y327730D01*
X246265D01*
X247919Y328415D01*
X249185Y329681D01*
X249870Y331335D01*
Y333125D01*
X249185Y334779D01*
X247919Y336045D01*
X246265Y336730D01*
D02*
G37*
G36*
X-447085Y335530D02*
X-448875D01*
X-450529Y334845D01*
X-451795Y333579D01*
X-452480Y331925D01*
Y330135D01*
X-451795Y328481D01*
X-450529Y327215D01*
X-448875Y326530D01*
X-447085D01*
X-445431Y327215D01*
X-444165Y328481D01*
X-443480Y330135D01*
Y331925D01*
X-444165Y333579D01*
X-445431Y334845D01*
X-447085Y335530D01*
D02*
G37*
G36*
X155535Y335349D02*
X153745D01*
X152091Y334664D01*
X150825Y333398D01*
X150140Y331744D01*
Y329954D01*
X150825Y328300D01*
X152091Y327034D01*
X153745Y326349D01*
X155535D01*
X157189Y327034D01*
X158455Y328300D01*
X159140Y329954D01*
Y331744D01*
X158455Y333398D01*
X157189Y334664D01*
X155535Y335349D01*
D02*
G37*
G36*
X207435Y335130D02*
X205645D01*
X203991Y334445D01*
X202725Y333179D01*
X202040Y331525D01*
Y329735D01*
X202725Y328081D01*
X203991Y326815D01*
X205645Y326130D01*
X207435D01*
X209089Y326815D01*
X210355Y328081D01*
X211040Y329735D01*
Y331525D01*
X210355Y333179D01*
X209089Y334445D01*
X207435Y335130D01*
D02*
G37*
G36*
X-344525Y322440D02*
X-346315D01*
X-347969Y321755D01*
X-349235Y320489D01*
X-349920Y318835D01*
Y317045D01*
X-349235Y315391D01*
X-347969Y314125D01*
X-346315Y313440D01*
X-344525D01*
X-342871Y314125D01*
X-341605Y315391D01*
X-340920Y317045D01*
Y318835D01*
X-341605Y320489D01*
X-342871Y321755D01*
X-344525Y322440D01*
D02*
G37*
G36*
X-425125Y320870D02*
X-426915D01*
X-428569Y320185D01*
X-429835Y318919D01*
X-430520Y317265D01*
Y315475D01*
X-429835Y313821D01*
X-428569Y312555D01*
X-426915Y311870D01*
X-425125D01*
X-423471Y312555D01*
X-422205Y313821D01*
X-421520Y315475D01*
Y317265D01*
X-422205Y318919D01*
X-423471Y320185D01*
X-425125Y320870D01*
D02*
G37*
G36*
X-465945Y293850D02*
X-467735D01*
X-469389Y293165D01*
X-470655Y291899D01*
X-471340Y290245D01*
Y288455D01*
X-470655Y286801D01*
X-469389Y285535D01*
X-467735Y284850D01*
X-465945D01*
X-464291Y285535D01*
X-463025Y286801D01*
X-462340Y288455D01*
Y290245D01*
X-463025Y291899D01*
X-464291Y293165D01*
X-465945Y293850D01*
D02*
G37*
G36*
X-484805Y282960D02*
X-486595D01*
X-488249Y282275D01*
X-489515Y281009D01*
X-490200Y279355D01*
Y277565D01*
X-489515Y275911D01*
X-488249Y274645D01*
X-486595Y273960D01*
X-484805D01*
X-483151Y274645D01*
X-481885Y275911D01*
X-481200Y277565D01*
Y279355D01*
X-481885Y281009D01*
X-483151Y282275D01*
X-484805Y282960D01*
D02*
G37*
G36*
X-401255Y277650D02*
X-403045D01*
X-404699Y276965D01*
X-405965Y275699D01*
X-406650Y274045D01*
Y272255D01*
X-405965Y270601D01*
X-404699Y269335D01*
X-403045Y268650D01*
X-401255D01*
X-399601Y269335D01*
X-398335Y270601D01*
X-397650Y272255D01*
Y274045D01*
X-398335Y275699D01*
X-399601Y276965D01*
X-401255Y277650D01*
D02*
G37*
G36*
X-434845Y275350D02*
X-436635D01*
X-438289Y274665D01*
X-439555Y273399D01*
X-440240Y271745D01*
Y269955D01*
X-439555Y268301D01*
X-438289Y267035D01*
X-436635Y266350D01*
X-434845D01*
X-433191Y267035D01*
X-431925Y268301D01*
X-431240Y269955D01*
Y271745D01*
X-431925Y273399D01*
X-433191Y274665D01*
X-434845Y275350D01*
D02*
G37*
G36*
X-494305Y268470D02*
X-496095D01*
X-497749Y267785D01*
X-499015Y266519D01*
X-499700Y264865D01*
Y263075D01*
X-499015Y261421D01*
X-497749Y260155D01*
X-496095Y259470D01*
X-494305D01*
X-492651Y260155D01*
X-491385Y261421D01*
X-490700Y263075D01*
Y264865D01*
X-491385Y266519D01*
X-492651Y267785D01*
X-494305Y268470D01*
D02*
G37*
G36*
X418790Y256175D02*
X417000D01*
X415346Y255490D01*
X414080Y254224D01*
X413395Y252570D01*
Y250780D01*
X414080Y249126D01*
X415346Y247860D01*
X417000Y247175D01*
X418790D01*
X420444Y247860D01*
X421710Y249126D01*
X422395Y250780D01*
Y252570D01*
X421710Y254224D01*
X420444Y255490D01*
X418790Y256175D01*
D02*
G37*
G36*
X-435005Y246760D02*
X-436795D01*
X-438449Y246075D01*
X-439715Y244809D01*
X-440400Y243155D01*
Y241365D01*
X-439715Y239711D01*
X-438449Y238445D01*
X-436795Y237760D01*
X-435005D01*
X-433351Y238445D01*
X-432085Y239711D01*
X-431400Y241365D01*
Y243155D01*
X-432085Y244809D01*
X-433351Y246075D01*
X-435005Y246760D01*
D02*
G37*
G36*
X-497118Y244625D02*
X-498908D01*
X-500562Y243939D01*
X-501828Y242674D01*
X-502513Y241020D01*
Y239230D01*
X-501828Y237576D01*
X-500562Y236310D01*
X-498908Y235625D01*
X-497118D01*
X-495464Y236310D01*
X-494198Y237576D01*
X-493513Y239230D01*
Y241020D01*
X-494198Y242674D01*
X-495464Y243939D01*
X-497118Y244625D01*
D02*
G37*
G36*
X-364615Y238980D02*
X-366405D01*
X-368059Y238295D01*
X-369325Y237029D01*
X-370010Y235375D01*
Y233585D01*
X-369325Y231931D01*
X-368059Y230665D01*
X-366405Y229980D01*
X-364615D01*
X-362961Y230665D01*
X-361695Y231931D01*
X-361010Y233585D01*
Y235375D01*
X-361695Y237029D01*
X-362961Y238295D01*
X-364615Y238980D01*
D02*
G37*
G36*
X-416870Y237965D02*
X-418661D01*
X-420314Y237280D01*
X-421580Y236014D01*
X-422265Y234361D01*
Y232570D01*
X-421580Y230916D01*
X-420314Y229650D01*
X-418661Y228965D01*
X-416870D01*
X-415216Y229650D01*
X-413951Y230916D01*
X-413265Y232570D01*
Y234361D01*
X-413951Y236014D01*
X-415216Y237280D01*
X-416870Y237965D01*
D02*
G37*
G36*
X483095Y235270D02*
X481305D01*
X479651Y234585D01*
X478385Y233319D01*
X477700Y231665D01*
Y229875D01*
X478385Y228221D01*
X479651Y226955D01*
X481305Y226270D01*
X483095D01*
X484749Y226955D01*
X486015Y228221D01*
X486700Y229875D01*
Y231665D01*
X486015Y233319D01*
X484749Y234585D01*
X483095Y235270D01*
D02*
G37*
G36*
X-445265Y197410D02*
X-447055D01*
X-448709Y196725D01*
X-449975Y195459D01*
X-450660Y193805D01*
Y192015D01*
X-449975Y190361D01*
X-448709Y189095D01*
X-447055Y188410D01*
X-445265D01*
X-443611Y189095D01*
X-442345Y190361D01*
X-441660Y192015D01*
Y193805D01*
X-442345Y195459D01*
X-443611Y196725D01*
X-445265Y197410D01*
D02*
G37*
G36*
X-429865Y196460D02*
X-431655D01*
X-433309Y195775D01*
X-434575Y194509D01*
X-435260Y192855D01*
Y191065D01*
X-434575Y189411D01*
X-433309Y188145D01*
X-431655Y187460D01*
X-429865D01*
X-428211Y188145D01*
X-426945Y189411D01*
X-426260Y191065D01*
Y192855D01*
X-426945Y194509D01*
X-428211Y195775D01*
X-429865Y196460D01*
D02*
G37*
G36*
X-236635Y177460D02*
X-238425D01*
X-240079Y176775D01*
X-241090Y175764D01*
X-241590Y175539D01*
X-242654Y175668D01*
X-243501Y176515D01*
X-245155Y177200D01*
X-246945D01*
X-248599Y176515D01*
X-249865Y175249D01*
X-250550Y173595D01*
Y171805D01*
X-249865Y170151D01*
X-248599Y168885D01*
X-246945Y168200D01*
X-245155D01*
X-243501Y168885D01*
X-242490Y169896D01*
X-241990Y170121D01*
X-240926Y169992D01*
X-240079Y169145D01*
X-238425Y168460D01*
X-236635D01*
X-234981Y169145D01*
X-233715Y170411D01*
X-233030Y172065D01*
Y173855D01*
X-233715Y175509D01*
X-234981Y176775D01*
X-236635Y177460D01*
D02*
G37*
G36*
X-354415Y177820D02*
X-356205D01*
X-357859Y177135D01*
X-359125Y175869D01*
X-359810Y174215D01*
Y172425D01*
X-359125Y170771D01*
X-357859Y169505D01*
X-356205Y168820D01*
X-354415D01*
X-352761Y169505D01*
X-351634Y170632D01*
X-350836Y170649D01*
X-350219Y170534D01*
X-350205Y170501D01*
X-348939Y169235D01*
X-347285Y168550D01*
X-345495D01*
X-343841Y169235D01*
X-342575Y170501D01*
X-341890Y172155D01*
Y173945D01*
X-342575Y175599D01*
X-343841Y176865D01*
X-345495Y177550D01*
X-347285D01*
X-348939Y176865D01*
X-350066Y175738D01*
X-350864Y175721D01*
X-351481Y175836D01*
X-351495Y175869D01*
X-352761Y177135D01*
X-354415Y177820D01*
D02*
G37*
G36*
X-236635Y165000D02*
X-238425D01*
X-240079Y164315D01*
X-241090Y163304D01*
X-241590Y163079D01*
X-242654Y163208D01*
X-243501Y164055D01*
X-245155Y164740D01*
X-246945D01*
X-248599Y164055D01*
X-249865Y162789D01*
X-250550Y161135D01*
Y159345D01*
X-249865Y157691D01*
X-248599Y156425D01*
X-246945Y155740D01*
X-245155D01*
X-243501Y156425D01*
X-242490Y157436D01*
X-241990Y157661D01*
X-240926Y157532D01*
X-240079Y156685D01*
X-238425Y156000D01*
X-236635D01*
X-234981Y156685D01*
X-233715Y157951D01*
X-233030Y159605D01*
Y161395D01*
X-233715Y163049D01*
X-234981Y164315D01*
X-236635Y165000D01*
D02*
G37*
G36*
X-354415Y164810D02*
X-356205D01*
X-357859Y164125D01*
X-359125Y162859D01*
X-359810Y161205D01*
Y159415D01*
X-359125Y157761D01*
X-357859Y156495D01*
X-356205Y155810D01*
X-354415D01*
X-352761Y156495D01*
X-351634Y157622D01*
X-350836Y157639D01*
X-350219Y157524D01*
X-350205Y157491D01*
X-348939Y156225D01*
X-347285Y155540D01*
X-345495D01*
X-343841Y156225D01*
X-342575Y157491D01*
X-341890Y159145D01*
Y160935D01*
X-342575Y162589D01*
X-343841Y163855D01*
X-345495Y164540D01*
X-347285D01*
X-348939Y163855D01*
X-350066Y162728D01*
X-350864Y162711D01*
X-351481Y162826D01*
X-351495Y162859D01*
X-352761Y164125D01*
X-354415Y164810D01*
D02*
G37*
G36*
X-236635Y152600D02*
X-238425D01*
X-240079Y151915D01*
X-241090Y150904D01*
X-241590Y150679D01*
X-242654Y150808D01*
X-243501Y151655D01*
X-245155Y152340D01*
X-246945D01*
X-248599Y151655D01*
X-249865Y150389D01*
X-250550Y148735D01*
Y146945D01*
X-249865Y145291D01*
X-248599Y144025D01*
X-246945Y143340D01*
X-245155D01*
X-243501Y144025D01*
X-242490Y145036D01*
X-241990Y145261D01*
X-240926Y145132D01*
X-240079Y144285D01*
X-238425Y143600D01*
X-236635D01*
X-234981Y144285D01*
X-233715Y145551D01*
X-233030Y147205D01*
Y148995D01*
X-233715Y150649D01*
X-234981Y151915D01*
X-236635Y152600D01*
D02*
G37*
G36*
X-354415Y152550D02*
X-356205D01*
X-357859Y151865D01*
X-359125Y150599D01*
X-359810Y148945D01*
Y147155D01*
X-359125Y145501D01*
X-357859Y144235D01*
X-356205Y143550D01*
X-354415D01*
X-352761Y144235D01*
X-351634Y145362D01*
X-350836Y145379D01*
X-350219Y145264D01*
X-350205Y145231D01*
X-348939Y143965D01*
X-347285Y143280D01*
X-345495D01*
X-343841Y143965D01*
X-342575Y145231D01*
X-341890Y146885D01*
Y148675D01*
X-342575Y150329D01*
X-343841Y151595D01*
X-345495Y152280D01*
X-347285D01*
X-348939Y151595D01*
X-350066Y150468D01*
X-350864Y150451D01*
X-351481Y150566D01*
X-351495Y150599D01*
X-352761Y151865D01*
X-354415Y152550D01*
D02*
G37*
G36*
X-236635Y120720D02*
X-238425D01*
X-240079Y120035D01*
X-241090Y119024D01*
X-241590Y118799D01*
X-242654Y118928D01*
X-243501Y119775D01*
X-245155Y120460D01*
X-246945D01*
X-248599Y119775D01*
X-249865Y118509D01*
X-250550Y116855D01*
Y115065D01*
X-249865Y113411D01*
X-248599Y112145D01*
X-246945Y111460D01*
X-245155D01*
X-243501Y112145D01*
X-242490Y113156D01*
X-241990Y113381D01*
X-240926Y113252D01*
X-240079Y112405D01*
X-238425Y111720D01*
X-236635D01*
X-234981Y112405D01*
X-233715Y113671D01*
X-233030Y115325D01*
Y117115D01*
X-233715Y118769D01*
X-234981Y120035D01*
X-236635Y120720D01*
D02*
G37*
G36*
X-354415Y120280D02*
X-356205D01*
X-357859Y119595D01*
X-359125Y118329D01*
X-359810Y116675D01*
Y114885D01*
X-359125Y113231D01*
X-357859Y111965D01*
X-356205Y111280D01*
X-354415D01*
X-352761Y111965D01*
X-351634Y113092D01*
X-350836Y113109D01*
X-350219Y112994D01*
X-350205Y112961D01*
X-348939Y111695D01*
X-347285Y111010D01*
X-345495D01*
X-343841Y111695D01*
X-342575Y112961D01*
X-341890Y114615D01*
Y116405D01*
X-342575Y118059D01*
X-343841Y119325D01*
X-345495Y120010D01*
X-347285D01*
X-348939Y119325D01*
X-350066Y118198D01*
X-350864Y118181D01*
X-351481Y118296D01*
X-351495Y118329D01*
X-352761Y119595D01*
X-354415Y120280D01*
D02*
G37*
G36*
X-236635Y108530D02*
X-238425D01*
X-240079Y107845D01*
X-241090Y106834D01*
X-241590Y106609D01*
X-242654Y106738D01*
X-243501Y107585D01*
X-245155Y108270D01*
X-246945D01*
X-248599Y107585D01*
X-249865Y106319D01*
X-250550Y104665D01*
Y102875D01*
X-249865Y101221D01*
X-248599Y99955D01*
X-246945Y99270D01*
X-245155D01*
X-243501Y99955D01*
X-242490Y100966D01*
X-241990Y101191D01*
X-240926Y101062D01*
X-240079Y100215D01*
X-238425Y99530D01*
X-236635D01*
X-234981Y100215D01*
X-233715Y101481D01*
X-233030Y103135D01*
Y104925D01*
X-233715Y106579D01*
X-234981Y107845D01*
X-236635Y108530D01*
D02*
G37*
G36*
X-354415Y106950D02*
X-356205D01*
X-357859Y106265D01*
X-359125Y104999D01*
X-359810Y103345D01*
Y101555D01*
X-359125Y99901D01*
X-357859Y98635D01*
X-356205Y97950D01*
X-354415D01*
X-352761Y98635D01*
X-351634Y99762D01*
X-350836Y99779D01*
X-350219Y99664D01*
X-350205Y99631D01*
X-348939Y98365D01*
X-347285Y97680D01*
X-345495D01*
X-343841Y98365D01*
X-342575Y99631D01*
X-341890Y101285D01*
Y103075D01*
X-342575Y104729D01*
X-343841Y105995D01*
X-345495Y106680D01*
X-347285D01*
X-348939Y105995D01*
X-350066Y104868D01*
X-350864Y104851D01*
X-351481Y104966D01*
X-351495Y104999D01*
X-352761Y106265D01*
X-354415Y106950D01*
D02*
G37*
G36*
X-236635Y94650D02*
X-238425D01*
X-240079Y93965D01*
X-241090Y92954D01*
X-241590Y92729D01*
X-242654Y92858D01*
X-243501Y93705D01*
X-245155Y94390D01*
X-246945D01*
X-248599Y93705D01*
X-249865Y92439D01*
X-250550Y90785D01*
Y88995D01*
X-249865Y87341D01*
X-248599Y86075D01*
X-246945Y85390D01*
X-245155D01*
X-243501Y86075D01*
X-242490Y87086D01*
X-241990Y87311D01*
X-240926Y87182D01*
X-240079Y86335D01*
X-238425Y85650D01*
X-236635D01*
X-234981Y86335D01*
X-233715Y87601D01*
X-233030Y89255D01*
Y91045D01*
X-233715Y92699D01*
X-234981Y93965D01*
X-236635Y94650D01*
D02*
G37*
G36*
X-354415Y93810D02*
X-356205D01*
X-357859Y93125D01*
X-359125Y91859D01*
X-359810Y90205D01*
Y88415D01*
X-359125Y86761D01*
X-357859Y85495D01*
X-356205Y84810D01*
X-354415D01*
X-352761Y85495D01*
X-351634Y86622D01*
X-350836Y86639D01*
X-350219Y86524D01*
X-350205Y86491D01*
X-348939Y85225D01*
X-347285Y84540D01*
X-345495D01*
X-343841Y85225D01*
X-342575Y86491D01*
X-341890Y88145D01*
Y89935D01*
X-342575Y91589D01*
X-343841Y92855D01*
X-345495Y93540D01*
X-347285D01*
X-348939Y92855D01*
X-350066Y91728D01*
X-350864Y91711D01*
X-351481Y91826D01*
X-351495Y91859D01*
X-352761Y93125D01*
X-354415Y93810D01*
D02*
G37*
G36*
X-236635Y63380D02*
X-238425D01*
X-240079Y62695D01*
X-241090Y61684D01*
X-241590Y61459D01*
X-242654Y61588D01*
X-243501Y62435D01*
X-245155Y63120D01*
X-246945D01*
X-248599Y62435D01*
X-249865Y61169D01*
X-250550Y59515D01*
Y57725D01*
X-249865Y56071D01*
X-248599Y54805D01*
X-246945Y54120D01*
X-245155D01*
X-243501Y54805D01*
X-242490Y55816D01*
X-241990Y56041D01*
X-240926Y55912D01*
X-240079Y55065D01*
X-238425Y54380D01*
X-236635D01*
X-234981Y55065D01*
X-233715Y56331D01*
X-233030Y57985D01*
Y59775D01*
X-233715Y61429D01*
X-234981Y62695D01*
X-236635Y63380D01*
D02*
G37*
G36*
X-354415Y64540D02*
X-356205D01*
X-357859Y63855D01*
X-359125Y62589D01*
X-359810Y60935D01*
Y59145D01*
X-359125Y57491D01*
X-357859Y56225D01*
X-356205Y55540D01*
X-354415D01*
X-352761Y56225D01*
X-351634Y57352D01*
X-350836Y57369D01*
X-350219Y57254D01*
X-350205Y57221D01*
X-348939Y55955D01*
X-347285Y55270D01*
X-345495D01*
X-343841Y55955D01*
X-342575Y57221D01*
X-341890Y58875D01*
Y60665D01*
X-342575Y62319D01*
X-343841Y63585D01*
X-345495Y64270D01*
X-347285D01*
X-348939Y63585D01*
X-350066Y62458D01*
X-350864Y62441D01*
X-351481Y62556D01*
X-351495Y62589D01*
X-352761Y63855D01*
X-354415Y64540D01*
D02*
G37*
G36*
X-236635Y50360D02*
X-238425D01*
X-240079Y49675D01*
X-241090Y48664D01*
X-241590Y48439D01*
X-242654Y48568D01*
X-243501Y49415D01*
X-245155Y50100D01*
X-246945D01*
X-248599Y49415D01*
X-249865Y48149D01*
X-250550Y46495D01*
Y44705D01*
X-249865Y43051D01*
X-248599Y41785D01*
X-246945Y41100D01*
X-245155D01*
X-243501Y41785D01*
X-242490Y42796D01*
X-241990Y43021D01*
X-240926Y42892D01*
X-240079Y42045D01*
X-238425Y41360D01*
X-236635D01*
X-234981Y42045D01*
X-233715Y43311D01*
X-233030Y44965D01*
Y46755D01*
X-233715Y48409D01*
X-234981Y49675D01*
X-236635Y50360D01*
D02*
G37*
G36*
X-354415Y51400D02*
X-356205D01*
X-357859Y50715D01*
X-359125Y49449D01*
X-359810Y47795D01*
Y46005D01*
X-359125Y44351D01*
X-357859Y43085D01*
X-356205Y42400D01*
X-354415D01*
X-352761Y43085D01*
X-351634Y44212D01*
X-350836Y44229D01*
X-350219Y44114D01*
X-350205Y44081D01*
X-348939Y42815D01*
X-347285Y42130D01*
X-345495D01*
X-343841Y42815D01*
X-342575Y44081D01*
X-341890Y45735D01*
Y47525D01*
X-342575Y49179D01*
X-343841Y50445D01*
X-345495Y51130D01*
X-347285D01*
X-348939Y50445D01*
X-350066Y49318D01*
X-350864Y49301D01*
X-351481Y49416D01*
X-351495Y49449D01*
X-352761Y50715D01*
X-354415Y51400D01*
D02*
G37*
G36*
X-236635Y36510D02*
X-238425D01*
X-240079Y35825D01*
X-241090Y34814D01*
X-241590Y34589D01*
X-242654Y34718D01*
X-243501Y35565D01*
X-245155Y36250D01*
X-246945D01*
X-248599Y35565D01*
X-249865Y34299D01*
X-250550Y32645D01*
Y30855D01*
X-249865Y29201D01*
X-248599Y27935D01*
X-246945Y27250D01*
X-245155D01*
X-243501Y27935D01*
X-242490Y28946D01*
X-241990Y29171D01*
X-240926Y29042D01*
X-240079Y28195D01*
X-238425Y27510D01*
X-236635D01*
X-234981Y28195D01*
X-233715Y29461D01*
X-233030Y31115D01*
Y32905D01*
X-233715Y34559D01*
X-234981Y35825D01*
X-236635Y36510D01*
D02*
G37*
G36*
X-354415Y36870D02*
X-356205D01*
X-357859Y36185D01*
X-359125Y34919D01*
X-359810Y33265D01*
Y31475D01*
X-359125Y29821D01*
X-357859Y28555D01*
X-356205Y27870D01*
X-354415D01*
X-352761Y28555D01*
X-351634Y29682D01*
X-350836Y29699D01*
X-350219Y29584D01*
X-350205Y29551D01*
X-348939Y28285D01*
X-347285Y27600D01*
X-345495D01*
X-343841Y28285D01*
X-342575Y29551D01*
X-341890Y31205D01*
Y32995D01*
X-342575Y34649D01*
X-343841Y35915D01*
X-345495Y36600D01*
X-347285D01*
X-348939Y35915D01*
X-350066Y34788D01*
X-350864Y34771D01*
X-351481Y34886D01*
X-351495Y34919D01*
X-352761Y36185D01*
X-354415Y36870D01*
D02*
G37*
G36*
X354815Y-29020D02*
X353025D01*
X351371Y-29705D01*
X350448Y-30628D01*
X349660Y-30847D01*
X348872Y-30628D01*
X347949Y-29705D01*
X346295Y-29020D01*
X344505D01*
X342851Y-29705D01*
X341585Y-30971D01*
X340900Y-32625D01*
Y-34415D01*
X341585Y-36069D01*
X342851Y-37335D01*
X344505Y-38020D01*
X346295D01*
X347949Y-37335D01*
X348872Y-36412D01*
X349660Y-36193D01*
X350448Y-36412D01*
X351371Y-37335D01*
X353025Y-38020D01*
X354815D01*
X356469Y-37335D01*
X357735Y-36069D01*
X358420Y-34415D01*
Y-32625D01*
X357735Y-30971D01*
X356469Y-29705D01*
X354815Y-29020D01*
D02*
G37*
G36*
X243705Y-29400D02*
X241915D01*
X240261Y-30085D01*
X239104Y-31242D01*
X238385Y-31301D01*
X237666Y-31242D01*
X236509Y-30085D01*
X234855Y-29400D01*
X233065D01*
X231411Y-30085D01*
X230145Y-31351D01*
X229460Y-33005D01*
Y-34795D01*
X230145Y-36449D01*
X231411Y-37715D01*
X233065Y-38400D01*
X234855D01*
X236509Y-37715D01*
X237666Y-36558D01*
X238385Y-36499D01*
X239104Y-36558D01*
X240261Y-37715D01*
X241915Y-38400D01*
X243705D01*
X245359Y-37715D01*
X246625Y-36449D01*
X247310Y-34795D01*
Y-33005D01*
X246625Y-31351D01*
X245359Y-30085D01*
X243705Y-29400D01*
D02*
G37*
G36*
X354815Y-41170D02*
X353025D01*
X351371Y-41855D01*
X350448Y-42778D01*
X349660Y-42997D01*
X348872Y-42778D01*
X347949Y-41855D01*
X346295Y-41170D01*
X344505D01*
X342851Y-41855D01*
X341585Y-43121D01*
X340900Y-44775D01*
Y-46565D01*
X341585Y-48219D01*
X342851Y-49485D01*
X344505Y-50170D01*
X346295D01*
X347949Y-49485D01*
X348872Y-48562D01*
X349660Y-48343D01*
X350448Y-48562D01*
X351371Y-49485D01*
X353025Y-50170D01*
X354815D01*
X356469Y-49485D01*
X357735Y-48219D01*
X358420Y-46565D01*
Y-44775D01*
X357735Y-43121D01*
X356469Y-41855D01*
X354815Y-41170D01*
D02*
G37*
G36*
X243705Y-41510D02*
X241915D01*
X240261Y-42195D01*
X239104Y-43352D01*
X238385Y-43411D01*
X237666Y-43352D01*
X236509Y-42195D01*
X234855Y-41510D01*
X233065D01*
X231411Y-42195D01*
X230145Y-43461D01*
X229460Y-45115D01*
Y-46905D01*
X230145Y-48559D01*
X231411Y-49825D01*
X233065Y-50510D01*
X234855D01*
X236509Y-49825D01*
X237666Y-48668D01*
X238385Y-48609D01*
X239104Y-48668D01*
X240261Y-49825D01*
X241915Y-50510D01*
X243705D01*
X245359Y-49825D01*
X246625Y-48559D01*
X247310Y-46905D01*
Y-45115D01*
X246625Y-43461D01*
X245359Y-42195D01*
X243705Y-41510D01*
D02*
G37*
G36*
X354815Y-52950D02*
X353025D01*
X351371Y-53635D01*
X350448Y-54558D01*
X349660Y-54777D01*
X348872Y-54558D01*
X347949Y-53635D01*
X346295Y-52950D01*
X344505D01*
X342851Y-53635D01*
X341585Y-54901D01*
X340900Y-56555D01*
Y-58345D01*
X341585Y-59999D01*
X342851Y-61265D01*
X344505Y-61950D01*
X346295D01*
X347949Y-61265D01*
X348872Y-60342D01*
X349660Y-60123D01*
X350448Y-60342D01*
X351371Y-61265D01*
X353025Y-61950D01*
X354815D01*
X356469Y-61265D01*
X357735Y-59999D01*
X358420Y-58345D01*
Y-56555D01*
X357735Y-54901D01*
X356469Y-53635D01*
X354815Y-52950D01*
D02*
G37*
G36*
X243705Y-53550D02*
X241915D01*
X240261Y-54235D01*
X239104Y-55392D01*
X238385Y-55451D01*
X237666Y-55392D01*
X236509Y-54235D01*
X234855Y-53550D01*
X233065D01*
X231411Y-54235D01*
X230145Y-55501D01*
X229460Y-57155D01*
Y-58945D01*
X230145Y-60599D01*
X231411Y-61865D01*
X233065Y-62550D01*
X234855D01*
X236509Y-61865D01*
X237666Y-60708D01*
X238385Y-60649D01*
X239104Y-60708D01*
X240261Y-61865D01*
X241915Y-62550D01*
X243705D01*
X245359Y-61865D01*
X246625Y-60599D01*
X247310Y-58945D01*
Y-57155D01*
X246625Y-55501D01*
X245359Y-54235D01*
X243705Y-53550D01*
D02*
G37*
G36*
Y-84840D02*
X241915D01*
X240261Y-85525D01*
X239104Y-86682D01*
X238385Y-86741D01*
X237666Y-86682D01*
X236509Y-85525D01*
X234855Y-84840D01*
X233065D01*
X231411Y-85525D01*
X230145Y-86791D01*
X229460Y-88445D01*
Y-90235D01*
X230145Y-91889D01*
X231411Y-93155D01*
X233065Y-93840D01*
X234855D01*
X236509Y-93155D01*
X237666Y-91998D01*
X238385Y-91939D01*
X239104Y-91998D01*
X240261Y-93155D01*
X241915Y-93840D01*
X243705D01*
X245359Y-93155D01*
X246625Y-91889D01*
X247310Y-90235D01*
Y-88445D01*
X246625Y-86791D01*
X245359Y-85525D01*
X243705Y-84840D01*
D02*
G37*
G36*
X354815Y-85620D02*
X353025D01*
X351371Y-86305D01*
X350448Y-87228D01*
X349660Y-87447D01*
X348872Y-87228D01*
X347949Y-86305D01*
X346295Y-85620D01*
X344505D01*
X342851Y-86305D01*
X341585Y-87571D01*
X340900Y-89225D01*
Y-91015D01*
X341585Y-92669D01*
X342851Y-93935D01*
X344505Y-94620D01*
X346295D01*
X347949Y-93935D01*
X348872Y-93012D01*
X349660Y-92793D01*
X350448Y-93012D01*
X351371Y-93935D01*
X353025Y-94620D01*
X354815D01*
X356469Y-93935D01*
X357735Y-92669D01*
X358420Y-91015D01*
Y-89225D01*
X357735Y-87571D01*
X356469Y-86305D01*
X354815Y-85620D01*
D02*
G37*
G36*
Y-97730D02*
X353025D01*
X351371Y-98415D01*
X350448Y-99338D01*
X349660Y-99557D01*
X348872Y-99338D01*
X347949Y-98415D01*
X346295Y-97730D01*
X344505D01*
X342851Y-98415D01*
X341585Y-99681D01*
X340900Y-101335D01*
Y-103125D01*
X341585Y-104779D01*
X342851Y-106045D01*
X344505Y-106730D01*
X346295D01*
X347949Y-106045D01*
X348872Y-105122D01*
X349660Y-104903D01*
X350448Y-105122D01*
X351371Y-106045D01*
X353025Y-106730D01*
X354815D01*
X356469Y-106045D01*
X357735Y-104779D01*
X358420Y-103125D01*
Y-101335D01*
X357735Y-99681D01*
X356469Y-98415D01*
X354815Y-97730D01*
D02*
G37*
G36*
X243705Y-98350D02*
X241915D01*
X240261Y-99035D01*
X239104Y-100192D01*
X238385Y-100251D01*
X237666Y-100192D01*
X236509Y-99035D01*
X234855Y-98350D01*
X233065D01*
X231411Y-99035D01*
X230145Y-100301D01*
X229460Y-101955D01*
Y-103745D01*
X230145Y-105399D01*
X231411Y-106665D01*
X233065Y-107350D01*
X234855D01*
X236509Y-106665D01*
X237666Y-105508D01*
X238385Y-105449D01*
X239104Y-105508D01*
X240261Y-106665D01*
X241915Y-107350D01*
X243705D01*
X245359Y-106665D01*
X246625Y-105399D01*
X247310Y-103745D01*
Y-101955D01*
X246625Y-100301D01*
X245359Y-99035D01*
X243705Y-98350D01*
D02*
G37*
G36*
X354815Y-111730D02*
X353025D01*
X351371Y-112415D01*
X350448Y-113338D01*
X349660Y-113557D01*
X348872Y-113338D01*
X347949Y-112415D01*
X346295Y-111730D01*
X344505D01*
X342851Y-112415D01*
X341585Y-113681D01*
X340900Y-115335D01*
Y-117125D01*
X341585Y-118779D01*
X342851Y-120045D01*
X344505Y-120730D01*
X346295D01*
X347949Y-120045D01*
X348872Y-119122D01*
X349660Y-118903D01*
X350448Y-119122D01*
X351371Y-120045D01*
X353025Y-120730D01*
X354815D01*
X356469Y-120045D01*
X357735Y-118779D01*
X358420Y-117125D01*
Y-115335D01*
X357735Y-113681D01*
X356469Y-112415D01*
X354815Y-111730D01*
D02*
G37*
G36*
X243705Y-111970D02*
X241915D01*
X240261Y-112655D01*
X239104Y-113812D01*
X238385Y-113871D01*
X237666Y-113812D01*
X236509Y-112655D01*
X234855Y-111970D01*
X233065D01*
X231411Y-112655D01*
X230145Y-113921D01*
X229460Y-115575D01*
Y-117365D01*
X230145Y-119019D01*
X231411Y-120285D01*
X233065Y-120970D01*
X234855D01*
X236509Y-120285D01*
X237666Y-119128D01*
X238385Y-119069D01*
X239104Y-119128D01*
X240261Y-120285D01*
X241915Y-120970D01*
X243705D01*
X245359Y-120285D01*
X246625Y-119019D01*
X247310Y-117365D01*
Y-115575D01*
X246625Y-113921D01*
X245359Y-112655D01*
X243705Y-111970D01*
D02*
G37*
G36*
Y-144210D02*
X241915D01*
X240261Y-144895D01*
X239104Y-146052D01*
X238385Y-146111D01*
X237666Y-146052D01*
X236509Y-144895D01*
X234855Y-144210D01*
X233065D01*
X231411Y-144895D01*
X230145Y-146161D01*
X229460Y-147815D01*
Y-149605D01*
X230145Y-151259D01*
X231411Y-152525D01*
X233065Y-153210D01*
X234855D01*
X236509Y-152525D01*
X237666Y-151368D01*
X238385Y-151309D01*
X239104Y-151368D01*
X240261Y-152525D01*
X241915Y-153210D01*
X243705D01*
X245359Y-152525D01*
X246625Y-151259D01*
X247310Y-149605D01*
Y-147815D01*
X246625Y-146161D01*
X245359Y-144895D01*
X243705Y-144210D01*
D02*
G37*
G36*
X354815Y-145500D02*
X353025D01*
X351371Y-146185D01*
X350448Y-147108D01*
X349660Y-147327D01*
X348872Y-147108D01*
X347949Y-146185D01*
X346295Y-145500D01*
X344505D01*
X342851Y-146185D01*
X341585Y-147451D01*
X340900Y-149105D01*
Y-150895D01*
X341585Y-152549D01*
X342851Y-153815D01*
X344505Y-154500D01*
X346295D01*
X347949Y-153815D01*
X348872Y-152892D01*
X349660Y-152673D01*
X350448Y-152892D01*
X351371Y-153815D01*
X353025Y-154500D01*
X354815D01*
X356469Y-153815D01*
X357735Y-152549D01*
X358420Y-150895D01*
Y-149105D01*
X357735Y-147451D01*
X356469Y-146185D01*
X354815Y-145500D01*
D02*
G37*
G36*
X243705Y-156170D02*
X241915D01*
X240261Y-156855D01*
X239104Y-158012D01*
X238385Y-158071D01*
X237666Y-158012D01*
X236509Y-156855D01*
X234855Y-156170D01*
X233065D01*
X231411Y-156855D01*
X230145Y-158121D01*
X229460Y-159775D01*
Y-161565D01*
X230145Y-163219D01*
X231411Y-164485D01*
X233065Y-165170D01*
X234855D01*
X236509Y-164485D01*
X237666Y-163328D01*
X238385Y-163269D01*
X239104Y-163328D01*
X240261Y-164485D01*
X241915Y-165170D01*
X243705D01*
X245359Y-164485D01*
X246625Y-163219D01*
X247310Y-161565D01*
Y-159775D01*
X246625Y-158121D01*
X245359Y-156855D01*
X243705Y-156170D01*
D02*
G37*
G36*
X354815Y-157770D02*
X353025D01*
X351371Y-158455D01*
X350448Y-159378D01*
X349660Y-159597D01*
X348872Y-159378D01*
X347949Y-158455D01*
X346295Y-157770D01*
X344505D01*
X342851Y-158455D01*
X341585Y-159721D01*
X340900Y-161375D01*
Y-163165D01*
X341585Y-164819D01*
X342851Y-166085D01*
X344505Y-166770D01*
X346295D01*
X347949Y-166085D01*
X348872Y-165162D01*
X349660Y-164943D01*
X350448Y-165162D01*
X351371Y-166085D01*
X353025Y-166770D01*
X354815D01*
X356469Y-166085D01*
X357735Y-164819D01*
X358420Y-163165D01*
Y-161375D01*
X357735Y-159721D01*
X356469Y-158455D01*
X354815Y-157770D01*
D02*
G37*
G36*
X243765Y-167320D02*
X241975D01*
X240321Y-168005D01*
X239164Y-169162D01*
X238445Y-169221D01*
X237726Y-169162D01*
X236569Y-168005D01*
X234915Y-167320D01*
X233125D01*
X231471Y-168005D01*
X230205Y-169271D01*
X229520Y-170925D01*
Y-172715D01*
X230205Y-174369D01*
X231471Y-175635D01*
X233125Y-176320D01*
X234915D01*
X236569Y-175635D01*
X237726Y-174478D01*
X238445Y-174419D01*
X239164Y-174478D01*
X240321Y-175635D01*
X241975Y-176320D01*
X243765D01*
X245419Y-175635D01*
X246685Y-174369D01*
X247370Y-172715D01*
Y-170925D01*
X246685Y-169271D01*
X245419Y-168005D01*
X243765Y-167320D01*
D02*
G37*
G36*
X-360015Y-163750D02*
X-361805D01*
X-363459Y-164435D01*
X-364725Y-165701D01*
X-365410Y-167355D01*
Y-169145D01*
X-364725Y-170799D01*
X-363459Y-172065D01*
X-361805Y-172750D01*
X-360015D01*
X-358361Y-172065D01*
X-357095Y-170799D01*
X-356410Y-169145D01*
Y-167355D01*
X-357095Y-165701D01*
X-358361Y-164435D01*
X-360015Y-163750D01*
D02*
G37*
G36*
X-225330Y-295452D02*
Y-305340D01*
X-215443D01*
X-216148Y-302708D01*
X-217728Y-299972D01*
X-219962Y-297738D01*
X-222698Y-296158D01*
X-225330Y-295452D01*
D02*
G37*
G36*
X-250730D02*
Y-305340D01*
X-240843D01*
X-241548Y-302708D01*
X-243128Y-299972D01*
X-245362Y-297738D01*
X-248098Y-296158D01*
X-250730Y-295452D01*
D02*
G37*
G36*
X-229330D02*
X-231962Y-296158D01*
X-234698Y-297738D01*
X-236932Y-299972D01*
X-238512Y-302708D01*
X-239217Y-305340D01*
X-229330D01*
Y-295452D01*
D02*
G37*
G36*
X-254730D02*
X-257362Y-296158D01*
X-260098Y-297738D01*
X-262332Y-299972D01*
X-263912Y-302708D01*
X-264617Y-305340D01*
X-254730D01*
Y-295452D01*
D02*
G37*
G36*
X-215443Y-309340D02*
X-225330D01*
Y-319227D01*
X-222698Y-318522D01*
X-219962Y-316942D01*
X-217728Y-314708D01*
X-216148Y-311972D01*
X-215443Y-309340D01*
D02*
G37*
G36*
X-240843D02*
X-250730D01*
Y-319227D01*
X-248098Y-318522D01*
X-245362Y-316942D01*
X-243128Y-314708D01*
X-241548Y-311972D01*
X-240843Y-309340D01*
D02*
G37*
G36*
X-229330D02*
X-239217D01*
X-238512Y-311972D01*
X-236932Y-314708D01*
X-234698Y-316942D01*
X-231962Y-318522D01*
X-229330Y-319227D01*
Y-309340D01*
D02*
G37*
G36*
X-254730D02*
X-264617D01*
X-263912Y-311972D01*
X-262332Y-314708D01*
X-260098Y-316942D01*
X-257362Y-318522D01*
X-254730Y-319227D01*
Y-309340D01*
D02*
G37*
G36*
X262935Y-347700D02*
X261145D01*
X259491Y-348385D01*
X258225Y-349651D01*
X257540Y-351305D01*
Y-353095D01*
X258225Y-354749D01*
X259491Y-356015D01*
X261145Y-356700D01*
X262935D01*
X264589Y-356015D01*
X265855Y-354749D01*
X266540Y-353095D01*
Y-351305D01*
X265855Y-349651D01*
X264589Y-348385D01*
X262935Y-347700D01*
D02*
G37*
G36*
X231615Y-348280D02*
X229825D01*
X228171Y-348965D01*
X226905Y-350231D01*
X226220Y-351885D01*
Y-353675D01*
X226905Y-355329D01*
X228171Y-356595D01*
X229825Y-357280D01*
X231615D01*
X233269Y-356595D01*
X234535Y-355329D01*
X235220Y-353675D01*
Y-351885D01*
X234535Y-350231D01*
X233269Y-348965D01*
X231615Y-348280D01*
D02*
G37*
G36*
X365135Y-441180D02*
X361325D01*
X358447Y-441559D01*
X355765Y-442670D01*
X353462Y-444437D01*
X351695Y-446740D01*
X350584Y-449422D01*
X350205Y-452300D01*
X350584Y-455178D01*
X351695Y-457860D01*
X353462Y-460163D01*
X355765Y-461930D01*
X358447Y-463041D01*
X361325Y-463420D01*
X365135D01*
X368013Y-463041D01*
X370695Y-461930D01*
X372998Y-460163D01*
X374765Y-457860D01*
X375876Y-455178D01*
X376255Y-452300D01*
X375876Y-449422D01*
X374765Y-446740D01*
X372998Y-444437D01*
X370695Y-442670D01*
X368013Y-441559D01*
X365135Y-441180D01*
D02*
G37*
G36*
X-225816Y-448240D02*
X-228844D01*
X-231769Y-449024D01*
X-234391Y-450538D01*
X-236532Y-452679D01*
X-238046Y-455301D01*
X-238830Y-458226D01*
Y-461254D01*
X-238046Y-464179D01*
X-236532Y-466801D01*
X-234391Y-468942D01*
X-231769Y-470456D01*
X-228844Y-471240D01*
X-225816D01*
X-222891Y-470456D01*
X-220269Y-468942D01*
X-218128Y-466801D01*
X-216614Y-464179D01*
X-215830Y-461254D01*
Y-458226D01*
X-216614Y-455301D01*
X-218128Y-452679D01*
X-220269Y-450538D01*
X-222891Y-449024D01*
X-225816Y-448240D01*
D02*
G37*
G36*
X-251216D02*
X-254244D01*
X-257169Y-449024D01*
X-259791Y-450538D01*
X-261932Y-452679D01*
X-263446Y-455301D01*
X-264230Y-458226D01*
Y-461254D01*
X-263446Y-464179D01*
X-261932Y-466801D01*
X-259791Y-468942D01*
X-257169Y-470456D01*
X-254244Y-471240D01*
X-251216D01*
X-248291Y-470456D01*
X-245669Y-468942D01*
X-243528Y-466801D01*
X-242014Y-464179D01*
X-241230Y-461254D01*
Y-458226D01*
X-242014Y-455301D01*
X-243528Y-452679D01*
X-245669Y-450538D01*
X-248291Y-449024D01*
X-251216Y-448240D01*
D02*
G37*
G36*
X-143935Y-471930D02*
X-145725D01*
X-147379Y-472615D01*
X-148645Y-473881D01*
X-149330Y-475535D01*
Y-477325D01*
X-148645Y-478979D01*
X-147379Y-480245D01*
X-145725Y-480930D01*
X-143935D01*
X-142281Y-480245D01*
X-141015Y-478979D01*
X-140330Y-477325D01*
Y-475535D01*
X-141015Y-473881D01*
X-142281Y-472615D01*
X-143935Y-471930D01*
D02*
G37*
G36*
X-91335Y-473980D02*
X-93125D01*
X-94779Y-474665D01*
X-96045Y-475931D01*
X-96730Y-477585D01*
Y-479375D01*
X-96045Y-481029D01*
X-94779Y-482295D01*
X-93125Y-482980D01*
X-91335D01*
X-89681Y-482295D01*
X-88604Y-481218D01*
X-87226Y-481225D01*
X-87225Y-481229D01*
X-85959Y-482495D01*
X-84305Y-483180D01*
X-82515D01*
X-80861Y-482495D01*
X-79595Y-481229D01*
X-78910Y-479575D01*
Y-477785D01*
X-79595Y-476131D01*
X-80861Y-474865D01*
X-82515Y-474180D01*
X-84305D01*
X-85959Y-474865D01*
X-87036Y-475942D01*
X-88414Y-475935D01*
X-88415Y-475931D01*
X-89681Y-474665D01*
X-91335Y-473980D01*
D02*
G37*
G36*
X376160Y-466675D02*
X350300D01*
Y-488725D01*
X376160D01*
Y-466675D01*
D02*
G37*
G36*
X27397Y582103D02*
Y574700D01*
X34799D01*
X34342Y576406D01*
X33078Y578595D01*
X31291Y580382D01*
X29102Y581646D01*
X27397Y582103D01*
D02*
G37*
G36*
X23397D02*
X21691Y581646D01*
X19502Y580382D01*
X17715Y578595D01*
X16451Y576406D01*
X15994Y574700D01*
X23397D01*
Y582103D01*
D02*
G37*
G36*
X1997D02*
Y574700D01*
X9399D01*
X8942Y576406D01*
X7678Y578595D01*
X5891Y580382D01*
X3702Y581646D01*
X1997Y582103D01*
D02*
G37*
G36*
X-2003D02*
X-3709Y581646D01*
X-5898Y580382D01*
X-7685Y578595D01*
X-8949Y576406D01*
X-9406Y574700D01*
X-2003D01*
Y582103D01*
D02*
G37*
G36*
X-15803Y582300D02*
X-23403D01*
Y574700D01*
X-15803D01*
Y582300D01*
D02*
G37*
G36*
X-27403D02*
X-35003D01*
Y574700D01*
X-27403D01*
Y582300D01*
D02*
G37*
G36*
X34799Y570700D02*
X27397D01*
Y563297D01*
X29102Y563754D01*
X31291Y565018D01*
X33078Y566806D01*
X34342Y568995D01*
X34799Y570700D01*
D02*
G37*
G36*
X23397D02*
X15994D01*
X16451Y568995D01*
X17715Y566806D01*
X19502Y565018D01*
X21691Y563754D01*
X23397Y563297D01*
Y570700D01*
D02*
G37*
G36*
X9399D02*
X1997D01*
Y563297D01*
X3702Y563754D01*
X5891Y565018D01*
X7678Y566806D01*
X8942Y568995D01*
X9399Y570700D01*
D02*
G37*
G36*
X-2003D02*
X-9406D01*
X-8949Y568995D01*
X-7685Y566806D01*
X-5898Y565018D01*
X-3709Y563754D01*
X-2003Y563297D01*
Y570700D01*
D02*
G37*
G36*
X-15803D02*
X-23403D01*
Y563100D01*
X-15803D01*
Y570700D01*
D02*
G37*
G36*
X-27403D02*
X-35003D01*
Y563100D01*
X-27403D01*
Y570700D01*
D02*
G37*
G36*
X-121585Y570250D02*
X-123375D01*
X-125029Y569565D01*
X-126295Y568299D01*
X-126980Y566645D01*
Y564855D01*
X-126295Y563201D01*
X-125029Y561935D01*
X-123375Y561250D01*
X-121585D01*
X-119931Y561935D01*
X-118665Y563201D01*
X-117980Y564855D01*
Y566645D01*
X-118665Y568299D01*
X-119931Y569565D01*
X-121585Y570250D01*
D02*
G37*
G36*
X313395Y278280D02*
X311605D01*
X309951Y277595D01*
X308685Y276329D01*
X308000Y274675D01*
Y272885D01*
X308685Y271231D01*
X309951Y269965D01*
X311605Y269280D01*
X313395D01*
X315049Y269965D01*
X316315Y271231D01*
X317000Y272885D01*
Y274675D01*
X316315Y276329D01*
X315049Y277595D01*
X313395Y278280D01*
D02*
G37*
G36*
X-10095Y263320D02*
X-11885D01*
X-13539Y262635D01*
X-14805Y261369D01*
X-15490Y259715D01*
Y257925D01*
X-14805Y256271D01*
X-13539Y255005D01*
X-11885Y254320D01*
X-10095D01*
X-8441Y255005D01*
X-7175Y256271D01*
X-6490Y257925D01*
Y259715D01*
X-7175Y261369D01*
X-8441Y262635D01*
X-10095Y263320D01*
D02*
G37*
G36*
X-82815Y262810D02*
X-84605D01*
X-86259Y262125D01*
X-87525Y260859D01*
X-88210Y259205D01*
Y257415D01*
X-87525Y255761D01*
X-86259Y254495D01*
X-84605Y253810D01*
X-82815D01*
X-81161Y254495D01*
X-79895Y255761D01*
X-79210Y257415D01*
Y259205D01*
X-79895Y260859D01*
X-81161Y262125D01*
X-82815Y262810D01*
D02*
G37*
G36*
X108915Y233830D02*
X107125D01*
X105471Y233145D01*
X104205Y231879D01*
X103520Y230225D01*
Y228435D01*
X104205Y226781D01*
X105471Y225515D01*
X107125Y224830D01*
X108915D01*
X110569Y225515D01*
X111835Y226781D01*
X112520Y228435D01*
Y230225D01*
X111835Y231879D01*
X110569Y233145D01*
X108915Y233830D01*
D02*
G37*
G36*
X-9923Y200470D02*
X-11713D01*
X-13367Y199785D01*
X-14633Y198519D01*
X-15318Y196865D01*
Y195075D01*
X-14633Y193421D01*
X-13367Y192155D01*
X-11713Y191470D01*
X-9923D01*
X-8269Y192155D01*
X-7003Y193421D01*
X-6318Y195075D01*
Y196865D01*
X-7003Y198519D01*
X-8269Y199785D01*
X-9923Y200470D01*
D02*
G37*
G36*
X-81595Y177820D02*
X-83385D01*
X-85039Y177135D01*
X-86305Y175869D01*
X-86990Y174215D01*
Y172425D01*
X-86305Y170771D01*
X-85039Y169505D01*
X-83385Y168820D01*
X-81595D01*
X-79941Y169505D01*
X-78675Y170771D01*
X-77990Y172425D01*
Y174215D01*
X-78675Y175869D01*
X-79941Y177135D01*
X-81595Y177820D01*
D02*
G37*
G36*
X108105Y171440D02*
X106315D01*
X104661Y170755D01*
X103395Y169489D01*
X102710Y167835D01*
Y166045D01*
X103395Y164391D01*
X104661Y163125D01*
X106315Y162440D01*
X108105D01*
X109759Y163125D01*
X111025Y164391D01*
X111710Y166045D01*
Y167835D01*
X111025Y169489D01*
X109759Y170755D01*
X108105Y171440D01*
D02*
G37*
G36*
X165085Y158900D02*
X163295D01*
X161641Y158215D01*
X160375Y156949D01*
X159690Y155295D01*
Y153505D01*
X160375Y151851D01*
X161641Y150585D01*
X163295Y149900D01*
X165085D01*
X166739Y150585D01*
X168005Y151851D01*
X168690Y153505D01*
Y155295D01*
X168005Y156949D01*
X166739Y158215D01*
X165085Y158900D01*
D02*
G37*
G36*
X93520Y96440D02*
X75520D01*
Y78440D01*
X93520D01*
Y96440D01*
D02*
G37*
G36*
X65705D02*
X63335D01*
X61046Y95827D01*
X58994Y94642D01*
X57318Y92966D01*
X56133Y90914D01*
X55520Y88625D01*
Y86255D01*
X56133Y83966D01*
X57318Y81914D01*
X58994Y80238D01*
X61046Y79053D01*
X63335Y78440D01*
X65705D01*
X67994Y79053D01*
X70046Y80238D01*
X71722Y81914D01*
X72907Y83966D01*
X73520Y86255D01*
Y88625D01*
X72907Y90914D01*
X71722Y92966D01*
X70046Y94642D01*
X67994Y95827D01*
X65705Y96440D01*
D02*
G37*
G36*
X45705D02*
X43335D01*
X41046Y95827D01*
X38994Y94642D01*
X37318Y92966D01*
X36133Y90914D01*
X35520Y88625D01*
Y86255D01*
X36133Y83966D01*
X37318Y81914D01*
X38994Y80238D01*
X41046Y79053D01*
X43335Y78440D01*
X45705D01*
X47994Y79053D01*
X50046Y80238D01*
X51722Y81914D01*
X52907Y83966D01*
X53520Y86255D01*
Y88625D01*
X52907Y90914D01*
X51722Y92966D01*
X50046Y94642D01*
X47994Y95827D01*
X45705Y96440D01*
D02*
G37*
G36*
X25705D02*
X23335D01*
X21046Y95827D01*
X18994Y94642D01*
X17318Y92966D01*
X16133Y90914D01*
X15520Y88625D01*
Y86255D01*
X16133Y83966D01*
X17318Y81914D01*
X18994Y80238D01*
X21046Y79053D01*
X23335Y78440D01*
X25705D01*
X27994Y79053D01*
X30046Y80238D01*
X31722Y81914D01*
X32907Y83966D01*
X33520Y86255D01*
Y88625D01*
X32907Y90914D01*
X31722Y92966D01*
X30046Y94642D01*
X27994Y95827D01*
X25705Y96440D01*
D02*
G37*
G36*
X5705D02*
X3335D01*
X1046Y95827D01*
X-1006Y94642D01*
X-2682Y92966D01*
X-3867Y90914D01*
X-4480Y88625D01*
Y86255D01*
X-3867Y83966D01*
X-2682Y81914D01*
X-1006Y80238D01*
X1046Y79053D01*
X3335Y78440D01*
X5705D01*
X7994Y79053D01*
X10046Y80238D01*
X11722Y81914D01*
X12907Y83966D01*
X13520Y86255D01*
Y88625D01*
X12907Y90914D01*
X11722Y92966D01*
X10046Y94642D01*
X7994Y95827D01*
X5705Y96440D01*
D02*
G37*
G36*
X-14295D02*
X-16665D01*
X-18954Y95827D01*
X-21006Y94642D01*
X-22682Y92966D01*
X-23867Y90914D01*
X-24480Y88625D01*
Y86255D01*
X-23867Y83966D01*
X-22682Y81914D01*
X-21006Y80238D01*
X-18954Y79053D01*
X-16665Y78440D01*
X-14295D01*
X-12006Y79053D01*
X-9954Y80238D01*
X-8278Y81914D01*
X-7093Y83966D01*
X-6480Y86255D01*
Y88625D01*
X-7093Y90914D01*
X-8278Y92966D01*
X-9954Y94642D01*
X-12006Y95827D01*
X-14295Y96440D01*
D02*
G37*
G36*
X-34295D02*
X-36664D01*
X-38953Y95827D01*
X-41006Y94642D01*
X-42681Y92966D01*
X-43866Y90914D01*
X-44480Y88625D01*
Y86255D01*
X-43866Y83966D01*
X-42681Y81914D01*
X-41006Y80238D01*
X-38953Y79053D01*
X-36664Y78440D01*
X-34295D01*
X-32006Y79053D01*
X-29953Y80238D01*
X-28278Y81914D01*
X-27093Y83966D01*
X-26480Y86255D01*
Y88625D01*
X-27093Y90914D01*
X-28278Y92966D01*
X-29953Y94642D01*
X-32006Y95827D01*
X-34295Y96440D01*
D02*
G37*
G36*
X-54295D02*
X-56664D01*
X-58953Y95827D01*
X-61006Y94642D01*
X-62681Y92966D01*
X-63866Y90914D01*
X-64479Y88625D01*
Y86255D01*
X-63866Y83966D01*
X-62681Y81914D01*
X-61006Y80238D01*
X-58953Y79053D01*
X-56664Y78440D01*
X-54295D01*
X-52006Y79053D01*
X-49953Y80238D01*
X-48278Y81914D01*
X-47093Y83966D01*
X-46480Y86255D01*
Y88625D01*
X-47093Y90914D01*
X-48278Y92966D01*
X-49953Y94642D01*
X-52006Y95827D01*
X-54295Y96440D01*
D02*
G37*
G36*
X-74295D02*
X-76664D01*
X-78953Y95827D01*
X-81006Y94642D01*
X-82681Y92966D01*
X-83866Y90914D01*
X-84480Y88625D01*
Y86255D01*
X-83866Y83966D01*
X-82681Y81914D01*
X-81006Y80238D01*
X-78953Y79053D01*
X-76664Y78440D01*
X-74295D01*
X-72006Y79053D01*
X-69953Y80238D01*
X-68278Y81914D01*
X-67093Y83966D01*
X-66480Y86255D01*
Y88625D01*
X-67093Y90914D01*
X-68278Y92966D01*
X-69953Y94642D01*
X-72006Y95827D01*
X-74295Y96440D01*
D02*
G37*
G36*
X116845Y56810D02*
X115055D01*
X113401Y56125D01*
X112135Y54859D01*
X111450Y53205D01*
Y51415D01*
X112135Y49761D01*
X113401Y48495D01*
X115055Y47810D01*
X116845D01*
X118499Y48495D01*
X119765Y49761D01*
X120450Y51415D01*
Y53205D01*
X119765Y54859D01*
X118499Y56125D01*
X116845Y56810D01*
D02*
G37*
G36*
X140514Y56751D02*
X138724D01*
X137070Y56066D01*
X135804Y54800D01*
X135119Y53146D01*
Y51356D01*
X135804Y49702D01*
X137070Y48436D01*
X138724Y47751D01*
X140514D01*
X142168Y48436D01*
X143434Y49702D01*
X144119Y51356D01*
Y53146D01*
X143434Y54800D01*
X142168Y56066D01*
X140514Y56751D01*
D02*
G37*
G36*
X51991Y56090D02*
X49595D01*
X47281Y55470D01*
X45206Y54272D01*
X43512Y52578D01*
X42314Y50503D01*
X41693Y48188D01*
Y45792D01*
X42314Y43478D01*
X43512Y41403D01*
X45206Y39708D01*
X47281Y38510D01*
X49595Y37890D01*
X51991D01*
X54306Y38510D01*
X56381Y39708D01*
X58075Y41403D01*
X59273Y43478D01*
X59893Y45792D01*
Y48188D01*
X59273Y50503D01*
X58075Y52578D01*
X56381Y54272D01*
X54306Y55470D01*
X51991Y56090D01*
D02*
G37*
G36*
X26591D02*
X24195D01*
X21881Y55470D01*
X19806Y54272D01*
X18112Y52578D01*
X16914Y50503D01*
X16293Y48188D01*
Y45792D01*
X16914Y43478D01*
X18112Y41403D01*
X19806Y39708D01*
X21881Y38510D01*
X24195Y37890D01*
X26591D01*
X28906Y38510D01*
X30981Y39708D01*
X32675Y41403D01*
X33873Y43478D01*
X34493Y45792D01*
Y48188D01*
X33873Y50503D01*
X32675Y52578D01*
X30981Y54272D01*
X28906Y55470D01*
X26591Y56090D01*
D02*
G37*
G36*
X-24209D02*
X-26605D01*
X-28919Y55470D01*
X-30994Y54272D01*
X-32688Y52578D01*
X-33886Y50503D01*
X-34507Y48188D01*
Y45792D01*
X-33886Y43478D01*
X-32688Y41403D01*
X-30994Y39708D01*
X-28919Y38510D01*
X-26605Y37890D01*
X-24209D01*
X-21894Y38510D01*
X-19819Y39708D01*
X-18125Y41403D01*
X-16927Y43478D01*
X-16307Y45792D01*
Y48188D01*
X-16927Y50503D01*
X-18125Y52578D01*
X-19819Y54272D01*
X-21894Y55470D01*
X-24209Y56090D01*
D02*
G37*
G36*
X-49609D02*
X-52005D01*
X-54319Y55470D01*
X-56394Y54272D01*
X-58088Y52578D01*
X-59286Y50503D01*
X-59907Y48188D01*
Y45792D01*
X-59286Y43478D01*
X-58088Y41403D01*
X-56394Y39708D01*
X-54319Y38510D01*
X-52005Y37890D01*
X-49609D01*
X-47294Y38510D01*
X-45219Y39708D01*
X-43525Y41403D01*
X-42327Y43478D01*
X-41707Y45792D01*
Y48188D01*
X-42327Y50503D01*
X-43525Y52578D01*
X-45219Y54272D01*
X-47294Y55470D01*
X-49609Y56090D01*
D02*
G37*
G36*
X131375Y45960D02*
X129585D01*
X127931Y45275D01*
X126665Y44009D01*
X125980Y42355D01*
Y40565D01*
X126665Y38911D01*
X127931Y37645D01*
X129585Y36960D01*
X131375D01*
X133029Y37645D01*
X134295Y38911D01*
X134980Y40565D01*
Y42355D01*
X134295Y44009D01*
X133029Y45275D01*
X131375Y45960D01*
D02*
G37*
G36*
X-91945Y50100D02*
X-93735D01*
X-95389Y49415D01*
X-96655Y48149D01*
X-97340Y46495D01*
Y44705D01*
X-96655Y43051D01*
X-95389Y41785D01*
X-93735Y41100D01*
X-93151D01*
X-92858Y41100D01*
X-92665Y39910D01*
X-93015Y39765D01*
X-94319Y39225D01*
X-95585Y37959D01*
X-96270Y36305D01*
Y34515D01*
X-95585Y32861D01*
X-94319Y31595D01*
X-92665Y30910D01*
X-90875D01*
X-89221Y31595D01*
X-87955Y32861D01*
X-87270Y34515D01*
Y36305D01*
X-87955Y37959D01*
X-89221Y39225D01*
X-90875Y39910D01*
X-91460D01*
X-91752Y39910D01*
X-91945Y41100D01*
X-91595Y41245D01*
X-90291Y41785D01*
X-89025Y43051D01*
X-88340Y44705D01*
Y46495D01*
X-89025Y48149D01*
X-90291Y49415D01*
X-91945Y50100D01*
D02*
G37*
G36*
X-109635Y39402D02*
X-111425D01*
X-113079Y38717D01*
X-114345Y37451D01*
X-115030Y35797D01*
Y34007D01*
X-114345Y32353D01*
X-113658Y31665D01*
X-113214Y30836D01*
X-113658Y30006D01*
X-114345Y29319D01*
X-115030Y27665D01*
Y25875D01*
X-114345Y24221D01*
X-113079Y22955D01*
X-111425Y22270D01*
X-109635D01*
X-107981Y22955D01*
X-106715Y24221D01*
X-106030Y25875D01*
Y27665D01*
X-106715Y29319D01*
X-107402Y30006D01*
X-107846Y30836D01*
X-107402Y31665D01*
X-106715Y32353D01*
X-106030Y34007D01*
Y35797D01*
X-106715Y37451D01*
X-107981Y38717D01*
X-109635Y39402D01*
D02*
G37*
G36*
X112785Y30290D02*
X110995D01*
X109341Y29605D01*
X108075Y28339D01*
X107390Y26685D01*
Y24895D01*
X108075Y23241D01*
X109341Y21975D01*
X110995Y21290D01*
X112785D01*
X114439Y21975D01*
X115705Y23241D01*
X116390Y24895D01*
Y26685D01*
X115705Y28339D01*
X114439Y29605D01*
X112785Y30290D01*
D02*
G37*
G36*
X72395Y28700D02*
X70605D01*
X68951Y28015D01*
X67685Y26749D01*
X67000Y25095D01*
Y23305D01*
X67685Y21651D01*
X68951Y20385D01*
X70605Y19700D01*
X72395D01*
X74049Y20385D01*
X75315Y21651D01*
X76000Y23305D01*
Y25095D01*
X75315Y26749D01*
X74049Y28015D01*
X72395Y28700D01*
D02*
G37*
G36*
X59893Y30690D02*
X41693D01*
Y12490D01*
X59893D01*
Y30690D01*
D02*
G37*
G36*
X26591D02*
X24195D01*
X21881Y30070D01*
X19806Y28872D01*
X18112Y27178D01*
X16914Y25103D01*
X16293Y22788D01*
Y20392D01*
X16914Y18078D01*
X18112Y16003D01*
X19806Y14308D01*
X21881Y13110D01*
X24195Y12490D01*
X26591D01*
X28906Y13110D01*
X30981Y14308D01*
X32675Y16003D01*
X33873Y18078D01*
X34493Y20392D01*
Y22788D01*
X33873Y25103D01*
X32675Y27178D01*
X30981Y28872D01*
X28906Y30070D01*
X26591Y30690D01*
D02*
G37*
G36*
X1191D02*
X-1205D01*
X-3519Y30070D01*
X-5594Y28872D01*
X-7288Y27178D01*
X-8486Y25103D01*
X-9107Y22788D01*
Y20392D01*
X-8486Y18078D01*
X-7288Y16003D01*
X-5594Y14308D01*
X-3519Y13110D01*
X-1205Y12490D01*
X1191D01*
X3506Y13110D01*
X5581Y14308D01*
X7275Y16003D01*
X8473Y18078D01*
X9093Y20392D01*
Y22788D01*
X8473Y25103D01*
X7275Y27178D01*
X5581Y28872D01*
X3506Y30070D01*
X1191Y30690D01*
D02*
G37*
G36*
X-24209D02*
X-26605D01*
X-28919Y30070D01*
X-30994Y28872D01*
X-32688Y27178D01*
X-33886Y25103D01*
X-34507Y22788D01*
Y20392D01*
X-33886Y18078D01*
X-32688Y16003D01*
X-30994Y14308D01*
X-28919Y13110D01*
X-26605Y12490D01*
X-24209D01*
X-21894Y13110D01*
X-19819Y14308D01*
X-18125Y16003D01*
X-16927Y18078D01*
X-16307Y20392D01*
Y22788D01*
X-16927Y25103D01*
X-18125Y27178D01*
X-19819Y28872D01*
X-21894Y30070D01*
X-24209Y30690D01*
D02*
G37*
G36*
X-49609D02*
X-52005D01*
X-54319Y30070D01*
X-56394Y28872D01*
X-58088Y27178D01*
X-59286Y25103D01*
X-59907Y22788D01*
Y20392D01*
X-59286Y18078D01*
X-58088Y16003D01*
X-56394Y14308D01*
X-54319Y13110D01*
X-52005Y12490D01*
X-49609D01*
X-47294Y13110D01*
X-45219Y14308D01*
X-43525Y16003D01*
X-42327Y18078D01*
X-41707Y20392D01*
Y22788D01*
X-42327Y25103D01*
X-43525Y27178D01*
X-45219Y28872D01*
X-47294Y30070D01*
X-49609Y30690D01*
D02*
G37*
G36*
X14405Y16380D02*
X12615D01*
X10961Y15695D01*
X9695Y14429D01*
X9010Y12775D01*
Y10985D01*
X9695Y9331D01*
X10961Y8065D01*
X12615Y7380D01*
X14405D01*
X16059Y8065D01*
X17325Y9331D01*
X18010Y10985D01*
Y12775D01*
X17325Y14429D01*
X16059Y15695D01*
X14405Y16380D01*
D02*
G37*
G36*
X72395Y13100D02*
X70605D01*
X68951Y12415D01*
X67685Y11149D01*
X67000Y9495D01*
Y7705D01*
X67685Y6051D01*
X68951Y4785D01*
X70605Y4100D01*
X72395D01*
X74049Y4785D01*
X75315Y6051D01*
X76000Y7705D01*
Y9495D01*
X75315Y11149D01*
X74049Y12415D01*
X72395Y13100D01*
D02*
G37*
G36*
X-24805Y6080D02*
X-26595D01*
X-28249Y5395D01*
X-29515Y4129D01*
X-30200Y2475D01*
Y685D01*
X-29515Y-969D01*
X-28249Y-2235D01*
X-26595Y-2920D01*
X-24805D01*
X-23151Y-2235D01*
X-21885Y-969D01*
X-21200Y685D01*
Y2475D01*
X-21885Y4129D01*
X-23151Y5395D01*
X-24805Y6080D01*
D02*
G37*
G36*
X-161095Y19220D02*
X-164905D01*
X-167783Y18841D01*
X-170465Y17730D01*
X-172768Y15963D01*
X-174535Y13660D01*
X-175646Y10978D01*
X-176025Y8100D01*
X-175646Y5222D01*
X-174535Y2540D01*
X-172768Y237D01*
X-170465Y-1530D01*
X-167783Y-2641D01*
X-164905Y-3020D01*
X-161095D01*
X-158217Y-2641D01*
X-155535Y-1530D01*
X-153232Y237D01*
X-151465Y2540D01*
X-150354Y5222D01*
X-149975Y8100D01*
X-150354Y10978D01*
X-151465Y13660D01*
X-153232Y15963D01*
X-155535Y17730D01*
X-158217Y18841D01*
X-161095Y19220D01*
D02*
G37*
G36*
X67145Y-15D02*
X65355D01*
X63701Y-700D01*
X62435Y-1966D01*
X61750Y-3620D01*
Y-5410D01*
X62435Y-7064D01*
X63701Y-8330D01*
X65355Y-9015D01*
X67145D01*
X68799Y-8330D01*
X70065Y-7064D01*
X70750Y-5410D01*
Y-3620D01*
X70065Y-1966D01*
X68799Y-700D01*
X67145Y-15D01*
D02*
G37*
G36*
X71355Y-16440D02*
X69565D01*
X67911Y-17125D01*
X66645Y-18391D01*
X65960Y-20045D01*
Y-21835D01*
X66645Y-23489D01*
X67911Y-24755D01*
X69565Y-25440D01*
X71355D01*
X73009Y-24755D01*
X74275Y-23489D01*
X74960Y-21835D01*
Y-20045D01*
X74275Y-18391D01*
X73009Y-17125D01*
X71355Y-16440D01*
D02*
G37*
G36*
X70895Y-27000D02*
X69105D01*
X67451Y-27685D01*
X66185Y-28951D01*
X65500Y-30605D01*
Y-32395D01*
X66185Y-34049D01*
X67451Y-35315D01*
X69105Y-36000D01*
X70895D01*
X72549Y-35315D01*
X73815Y-34049D01*
X74500Y-32395D01*
Y-30605D01*
X73815Y-28951D01*
X72549Y-27685D01*
X70895Y-27000D01*
D02*
G37*
G36*
X3745Y-30130D02*
X1955D01*
X301Y-30815D01*
X-965Y-32081D01*
X-1650Y-33735D01*
Y-35525D01*
X-965Y-37179D01*
X301Y-38445D01*
X1955Y-39130D01*
X3745D01*
X5399Y-38445D01*
X6665Y-37179D01*
X7350Y-35525D01*
Y-33735D01*
X6665Y-32081D01*
X5399Y-30815D01*
X3745Y-30130D01*
D02*
G37*
G36*
X38095Y-33800D02*
X36305D01*
X34651Y-34485D01*
X33385Y-35751D01*
X32700Y-37405D01*
Y-39195D01*
X33385Y-40849D01*
X34651Y-42115D01*
X36305Y-42800D01*
X38095D01*
X39749Y-42115D01*
X41015Y-40849D01*
X41700Y-39195D01*
Y-37405D01*
X41015Y-35751D01*
X39749Y-34485D01*
X38095Y-33800D01*
D02*
G37*
G36*
X-128245Y-36245D02*
X-130035D01*
X-131689Y-36930D01*
X-132955Y-38196D01*
X-133640Y-39850D01*
Y-41640D01*
X-132955Y-43294D01*
X-131689Y-44560D01*
X-130035Y-45245D01*
X-128245D01*
X-126591Y-44560D01*
X-125325Y-43294D01*
X-124640Y-41640D01*
Y-39850D01*
X-125325Y-38196D01*
X-126591Y-36930D01*
X-128245Y-36245D01*
D02*
G37*
G36*
X-113955Y-37170D02*
X-115745D01*
X-117399Y-37855D01*
X-118665Y-39121D01*
X-119350Y-40775D01*
Y-42565D01*
X-118665Y-44219D01*
X-117399Y-45485D01*
X-115745Y-46170D01*
X-113955D01*
X-112301Y-45485D01*
X-111035Y-44219D01*
X-110350Y-42565D01*
Y-40775D01*
X-111035Y-39121D01*
X-112301Y-37855D01*
X-113955Y-37170D01*
D02*
G37*
G36*
X-62345Y-43570D02*
X-64135D01*
X-65789Y-44255D01*
X-67055Y-45521D01*
X-67740Y-47175D01*
Y-48965D01*
X-67055Y-50619D01*
X-65789Y-51885D01*
X-64135Y-52570D01*
X-62345D01*
X-60691Y-51885D01*
X-59425Y-50619D01*
X-58740Y-48965D01*
Y-47175D01*
X-59425Y-45521D01*
X-60691Y-44255D01*
X-62345Y-43570D01*
D02*
G37*
G36*
X-42670Y-44010D02*
X-44460D01*
X-46114Y-44695D01*
X-47380Y-45961D01*
X-48065Y-47615D01*
Y-49405D01*
X-47380Y-51059D01*
X-46114Y-52325D01*
X-44460Y-53010D01*
X-42670D01*
X-41016Y-52325D01*
X-39750Y-51059D01*
X-39065Y-49405D01*
Y-47615D01*
X-39750Y-45961D01*
X-41016Y-44695D01*
X-42670Y-44010D01*
D02*
G37*
G36*
X-150070Y-31675D02*
X-175930D01*
Y-53725D01*
X-150070D01*
Y-31675D01*
D02*
G37*
G36*
X-120074Y-56289D02*
X-121864D01*
X-123518Y-56974D01*
X-124784Y-58240D01*
X-125469Y-59894D01*
Y-61684D01*
X-124784Y-63338D01*
X-123518Y-64604D01*
X-121864Y-65289D01*
X-120074D01*
X-118420Y-64604D01*
X-117154Y-63338D01*
X-116469Y-61684D01*
Y-59894D01*
X-117154Y-58240D01*
X-118420Y-56974D01*
X-120074Y-56289D01*
D02*
G37*
G36*
X-104865Y-82310D02*
X-106655D01*
X-108309Y-82995D01*
X-109575Y-84261D01*
X-110260Y-85915D01*
Y-87705D01*
X-109575Y-89359D01*
X-108309Y-90625D01*
X-106655Y-91310D01*
X-104865D01*
X-103211Y-90625D01*
X-101945Y-89359D01*
X-101260Y-87705D01*
Y-85915D01*
X-101945Y-84261D01*
X-103211Y-82995D01*
X-104865Y-82310D01*
D02*
G37*
G36*
X-31905Y-102300D02*
X-33695D01*
X-35349Y-102985D01*
X-36615Y-104251D01*
X-37300Y-105905D01*
Y-107695D01*
X-36615Y-109349D01*
X-35349Y-110615D01*
X-33695Y-111300D01*
X-31905D01*
X-30251Y-110615D01*
X-28985Y-109349D01*
X-28300Y-107695D01*
Y-105905D01*
X-28985Y-104251D01*
X-30251Y-102985D01*
X-31905Y-102300D01*
D02*
G37*
G36*
X-161095Y-89780D02*
X-164905D01*
X-167783Y-90159D01*
X-170465Y-91270D01*
X-172768Y-93037D01*
X-174535Y-95340D01*
X-175646Y-98022D01*
X-176025Y-100900D01*
X-175646Y-103778D01*
X-174535Y-106460D01*
X-172768Y-108763D01*
X-170465Y-110530D01*
X-167783Y-111641D01*
X-164905Y-112020D01*
X-161095D01*
X-158217Y-111641D01*
X-155535Y-110530D01*
X-153232Y-108763D01*
X-151465Y-106460D01*
X-150354Y-103778D01*
X-149975Y-100900D01*
X-150354Y-98022D01*
X-151465Y-95340D01*
X-153232Y-93037D01*
X-155535Y-91270D01*
X-158217Y-90159D01*
X-161095Y-89780D01*
D02*
G37*
G36*
X-47545Y-115340D02*
X-49335D01*
X-50989Y-116025D01*
X-52255Y-117291D01*
X-52940Y-118945D01*
Y-120208D01*
X-53960Y-121049D01*
X-54113Y-121097D01*
X-54395Y-120980D01*
X-56185D01*
X-57839Y-121665D01*
X-59105Y-122931D01*
X-59790Y-124585D01*
Y-126375D01*
X-59105Y-128029D01*
X-57839Y-129295D01*
X-56185Y-129980D01*
X-54395D01*
X-52741Y-129295D01*
X-51475Y-128029D01*
X-50790Y-126375D01*
Y-125112D01*
X-49770Y-124271D01*
X-49617Y-124223D01*
X-49335Y-124340D01*
X-47545D01*
X-45891Y-123655D01*
X-44625Y-122389D01*
X-43940Y-120735D01*
Y-118945D01*
X-44625Y-117291D01*
X-45891Y-116025D01*
X-47545Y-115340D01*
D02*
G37*
G36*
X-104865Y-114872D02*
X-106655D01*
X-108309Y-115557D01*
X-109575Y-116823D01*
X-110260Y-118477D01*
Y-120267D01*
X-109575Y-121921D01*
X-108309Y-123187D01*
X-106655Y-123872D01*
X-104865D01*
X-103211Y-123187D01*
X-101945Y-121921D01*
X-101260Y-120267D01*
Y-118477D01*
X-101945Y-116823D01*
X-103211Y-115557D01*
X-104865Y-114872D01*
D02*
G37*
G36*
X79505Y-112490D02*
X77715D01*
X76061Y-113175D01*
X74795Y-114441D01*
X74110Y-116095D01*
Y-117885D01*
X74795Y-119539D01*
X75971Y-120715D01*
X74715Y-121971D01*
X74030Y-123625D01*
Y-125415D01*
X74715Y-127069D01*
X75981Y-128335D01*
X77635Y-129020D01*
X79425D01*
X81079Y-128335D01*
X82345Y-127069D01*
X83030Y-125415D01*
Y-123625D01*
X82345Y-121971D01*
X81169Y-120795D01*
X82425Y-119539D01*
X83110Y-117885D01*
Y-116095D01*
X82425Y-114441D01*
X81159Y-113175D01*
X79505Y-112490D01*
D02*
G37*
G36*
X18948Y-127495D02*
X17158D01*
X15504Y-128180D01*
X14238Y-129446D01*
X13553Y-131100D01*
Y-132890D01*
X14238Y-134544D01*
X15504Y-135810D01*
X17158Y-136495D01*
X18948D01*
X20602Y-135810D01*
X21868Y-134544D01*
X22553Y-132890D01*
Y-131100D01*
X21868Y-129446D01*
X20602Y-128180D01*
X18948Y-127495D01*
D02*
G37*
G36*
X7182Y-127860D02*
X5392D01*
X3738Y-128545D01*
X2472Y-129811D01*
X1787Y-131465D01*
Y-133255D01*
X2472Y-134909D01*
X3738Y-136175D01*
X5392Y-136860D01*
X7182D01*
X8836Y-136175D01*
X10102Y-134909D01*
X10787Y-133255D01*
Y-131465D01*
X10102Y-129811D01*
X8836Y-128545D01*
X7182Y-127860D01*
D02*
G37*
G36*
X-161095Y-115180D02*
X-164905D01*
X-167783Y-115559D01*
X-170465Y-116670D01*
X-172768Y-118437D01*
X-174535Y-120740D01*
X-175646Y-123422D01*
X-176025Y-126300D01*
X-175646Y-129178D01*
X-174535Y-131860D01*
X-172768Y-134163D01*
X-170465Y-135930D01*
X-167783Y-137041D01*
X-164905Y-137420D01*
X-161095D01*
X-158217Y-137041D01*
X-155535Y-135930D01*
X-153232Y-134163D01*
X-151465Y-131860D01*
X-150354Y-129178D01*
X-149975Y-126300D01*
X-150354Y-123422D01*
X-151465Y-120740D01*
X-153232Y-118437D01*
X-155535Y-116670D01*
X-158217Y-115559D01*
X-161095Y-115180D01*
D02*
G37*
G36*
X-6805Y-130500D02*
X-8595D01*
X-10249Y-131185D01*
X-11515Y-132451D01*
X-12200Y-134105D01*
Y-135895D01*
X-11515Y-137549D01*
X-10249Y-138815D01*
X-8595Y-139500D01*
X-6805D01*
X-5151Y-138815D01*
X-3885Y-137549D01*
X-3200Y-135895D01*
Y-134105D01*
X-3885Y-132451D01*
X-5151Y-131185D01*
X-6805Y-130500D01*
D02*
G37*
G36*
X-55305Y-132100D02*
X-57095D01*
X-58749Y-132785D01*
X-60015Y-134051D01*
X-60700Y-135705D01*
Y-137495D01*
X-60437Y-138130D01*
X-61286Y-139400D01*
X-61795D01*
X-63449Y-140085D01*
X-64715Y-141351D01*
X-65400Y-143005D01*
Y-144795D01*
X-64715Y-146449D01*
X-63449Y-147715D01*
X-61795Y-148400D01*
X-60005D01*
X-58351Y-147715D01*
X-57085Y-146449D01*
X-56400Y-144795D01*
Y-143005D01*
X-56663Y-142370D01*
X-55814Y-141100D01*
X-55305D01*
X-53651Y-140415D01*
X-52385Y-139149D01*
X-51700Y-137495D01*
Y-135705D01*
X-52385Y-134051D01*
X-53651Y-132785D01*
X-55305Y-132100D01*
D02*
G37*
G36*
X-104865Y-142630D02*
X-106655D01*
X-108309Y-143315D01*
X-109575Y-144581D01*
X-110260Y-146235D01*
Y-148025D01*
X-109575Y-149679D01*
X-108309Y-150945D01*
X-106655Y-151630D01*
X-104865D01*
X-103211Y-150945D01*
X-101945Y-149679D01*
X-101260Y-148025D01*
Y-146235D01*
X-101945Y-144581D01*
X-103211Y-143315D01*
X-104865Y-142630D01*
D02*
G37*
G36*
X-299385Y-144580D02*
X-301175D01*
X-302829Y-145265D01*
X-304095Y-146531D01*
X-304780Y-148185D01*
Y-149975D01*
X-304095Y-151629D01*
X-302829Y-152895D01*
X-301175Y-153580D01*
X-299385D01*
X-297731Y-152895D01*
X-296465Y-151629D01*
X-295780Y-149975D01*
Y-148185D01*
X-296465Y-146531D01*
X-297731Y-145265D01*
X-299385Y-144580D01*
D02*
G37*
G36*
X46885Y-143297D02*
X45095D01*
X43441Y-143982D01*
X42175Y-145248D01*
X41490Y-146902D01*
Y-148692D01*
X42175Y-150346D01*
X43441Y-151612D01*
X45095Y-152297D01*
X46269D01*
X46992Y-152515D01*
X47443Y-153441D01*
Y-154442D01*
X48128Y-156096D01*
X49394Y-157362D01*
X51048Y-158047D01*
X52838D01*
X54492Y-157362D01*
X55757Y-156096D01*
X56443Y-154442D01*
Y-152652D01*
X55757Y-150998D01*
X54492Y-149732D01*
X52838Y-149047D01*
X51663D01*
X50941Y-148828D01*
X50490Y-147903D01*
Y-146902D01*
X49805Y-145248D01*
X48539Y-143982D01*
X46885Y-143297D01*
D02*
G37*
G36*
X90855Y-153070D02*
X89065D01*
X87411Y-153755D01*
X86145Y-155021D01*
X85460Y-156675D01*
Y-158465D01*
X86145Y-160119D01*
X87411Y-161385D01*
X89065Y-162070D01*
X90855D01*
X92509Y-161385D01*
X93775Y-160119D01*
X94460Y-158465D01*
Y-156675D01*
X93775Y-155021D01*
X92509Y-153755D01*
X90855Y-153070D01*
D02*
G37*
G36*
X-161095Y-140580D02*
X-164905D01*
X-167783Y-140959D01*
X-170465Y-142070D01*
X-172768Y-143837D01*
X-174535Y-146140D01*
X-175646Y-148822D01*
X-176025Y-151700D01*
X-175646Y-154578D01*
X-174535Y-157260D01*
X-172768Y-159563D01*
X-170465Y-161330D01*
X-167783Y-162441D01*
X-164905Y-162820D01*
X-161095D01*
X-158217Y-162441D01*
X-155535Y-161330D01*
X-153232Y-159563D01*
X-151465Y-157260D01*
X-150354Y-154578D01*
X-149975Y-151700D01*
X-150354Y-148822D01*
X-151465Y-146140D01*
X-153232Y-143837D01*
X-155535Y-142070D01*
X-158217Y-140959D01*
X-161095Y-140580D01*
D02*
G37*
G36*
X-104925Y-168230D02*
X-106715D01*
X-108369Y-168915D01*
X-109635Y-170181D01*
X-110320Y-171835D01*
Y-173625D01*
X-109635Y-175279D01*
X-108369Y-176545D01*
X-106715Y-177230D01*
X-104925D01*
X-103271Y-176545D01*
X-102005Y-175279D01*
X-101320Y-173625D01*
Y-171835D01*
X-102005Y-170181D01*
X-103271Y-168915D01*
X-104925Y-168230D01*
D02*
G37*
G36*
X25875Y-163130D02*
X24085D01*
X22431Y-163815D01*
X21165Y-165081D01*
X20480Y-166735D01*
Y-167847D01*
X19766Y-168741D01*
X19307Y-168880D01*
X17865D01*
X16211Y-169565D01*
X14945Y-170831D01*
X14260Y-172485D01*
Y-174275D01*
X14945Y-175929D01*
X16211Y-177195D01*
X17865Y-177880D01*
X19655D01*
X21309Y-177195D01*
X22575Y-175929D01*
X23260Y-174275D01*
Y-173163D01*
X23974Y-172269D01*
X24433Y-172130D01*
X25875D01*
X27529Y-171445D01*
X28795Y-170179D01*
X29480Y-168525D01*
Y-166735D01*
X28795Y-165081D01*
X27529Y-163815D01*
X25875Y-163130D01*
D02*
G37*
G36*
X-24705Y-165991D02*
X-26495D01*
X-28149Y-166676D01*
X-29415Y-167942D01*
X-30100Y-169596D01*
Y-171386D01*
X-29415Y-173040D01*
X-28149Y-174306D01*
X-26687Y-174911D01*
X-25600Y-175605D01*
Y-177395D01*
X-24915Y-179049D01*
X-23649Y-180315D01*
X-21995Y-181000D01*
X-20205D01*
X-18551Y-180315D01*
X-17285Y-179049D01*
X-16600Y-177395D01*
Y-175605D01*
X-17285Y-173951D01*
X-18551Y-172685D01*
X-20013Y-172080D01*
X-21100Y-171386D01*
Y-169596D01*
X-21785Y-167942D01*
X-23051Y-166676D01*
X-24705Y-165991D01*
D02*
G37*
G36*
X48245Y-167500D02*
X46455D01*
X44801Y-168185D01*
X43535Y-169451D01*
X42850Y-171105D01*
Y-172895D01*
X43535Y-174549D01*
X44801Y-175815D01*
X46455Y-176500D01*
X48245D01*
X49899Y-175815D01*
X50833Y-174881D01*
X51165Y-174549D01*
X52169Y-175204D01*
X52026Y-175550D01*
X51800Y-176096D01*
Y-177886D01*
X52485Y-179540D01*
X53751Y-180806D01*
X55405Y-181491D01*
X57195D01*
X58849Y-180806D01*
X60115Y-179540D01*
X60800Y-177886D01*
Y-176096D01*
X60115Y-174442D01*
X58849Y-173176D01*
X57195Y-172491D01*
X55405D01*
X53751Y-173176D01*
X52817Y-174110D01*
X52485Y-174442D01*
X51480Y-173787D01*
X51624Y-173441D01*
X51850Y-172895D01*
Y-171105D01*
X51165Y-169451D01*
X49899Y-168185D01*
X48245Y-167500D01*
D02*
G37*
G36*
X-150070Y-166075D02*
X-175930D01*
Y-188125D01*
X-150070D01*
Y-166075D01*
D02*
G37*
G36*
X171680Y-167075D02*
X145820D01*
Y-189125D01*
X171680D01*
Y-167075D01*
D02*
G37*
G36*
X-104925Y-183090D02*
X-106715D01*
X-108369Y-183775D01*
X-109635Y-185041D01*
X-110320Y-186695D01*
Y-188485D01*
X-109635Y-190139D01*
X-108369Y-191405D01*
X-106715Y-192090D01*
X-104925D01*
X-103271Y-191405D01*
X-102005Y-190139D01*
X-101320Y-188485D01*
Y-186695D01*
X-102005Y-185041D01*
X-103271Y-183775D01*
X-104925Y-183090D01*
D02*
G37*
G36*
Y-195160D02*
X-106715D01*
X-108369Y-195845D01*
X-109635Y-197111D01*
X-110320Y-198765D01*
Y-200555D01*
X-109635Y-202209D01*
X-108369Y-203475D01*
X-106715Y-204160D01*
X-104925D01*
X-103271Y-203475D01*
X-102005Y-202209D01*
X-101320Y-200555D01*
Y-198765D01*
X-102005Y-197111D01*
X-103271Y-195845D01*
X-104925Y-195160D01*
D02*
G37*
G36*
X48545Y-196030D02*
X46755D01*
X45101Y-196715D01*
X43835Y-197981D01*
X43150Y-199635D01*
Y-201425D01*
X43835Y-203079D01*
X45101Y-204345D01*
X46755Y-205030D01*
X48545D01*
X50199Y-204345D01*
X51465Y-203079D01*
X52150Y-201425D01*
Y-199635D01*
X51465Y-197981D01*
X50199Y-196715D01*
X48545Y-196030D01*
D02*
G37*
G36*
X59835Y-196330D02*
X58045D01*
X56391Y-197015D01*
X55125Y-198281D01*
X54440Y-199935D01*
Y-201725D01*
X55125Y-203379D01*
X56391Y-204645D01*
X58045Y-205330D01*
X59835D01*
X61489Y-204645D01*
X62755Y-203379D01*
X63440Y-201725D01*
Y-199935D01*
X62755Y-198281D01*
X61489Y-197015D01*
X59835Y-196330D01*
D02*
G37*
G36*
X40883Y-206179D02*
X39093D01*
X37439Y-206864D01*
X36173Y-208130D01*
X35488Y-209784D01*
Y-211574D01*
X36173Y-213228D01*
X37439Y-214494D01*
X39093Y-215179D01*
X40883D01*
X42537Y-214494D01*
X43803Y-213228D01*
X44488Y-211574D01*
Y-209784D01*
X43803Y-208130D01*
X42537Y-206864D01*
X40883Y-206179D01*
D02*
G37*
G36*
X-106655Y-207280D02*
X-108445D01*
X-110099Y-207965D01*
X-111365Y-209231D01*
X-112050Y-210885D01*
Y-212675D01*
X-111365Y-214329D01*
X-110099Y-215595D01*
X-108445Y-216280D01*
X-106655D01*
X-105001Y-215595D01*
X-103735Y-214329D01*
X-103050Y-212675D01*
Y-210885D01*
X-103735Y-209231D01*
X-105001Y-207965D01*
X-106655Y-207280D01*
D02*
G37*
G36*
X284675Y-207530D02*
X282885D01*
X281231Y-208215D01*
X279965Y-209481D01*
X279280Y-211135D01*
Y-212925D01*
X279965Y-214579D01*
X281231Y-215845D01*
X282885Y-216530D01*
X284675D01*
X286329Y-215845D01*
X287595Y-214579D01*
X288280Y-212925D01*
Y-211135D01*
X287595Y-209481D01*
X286329Y-208215D01*
X284675Y-207530D01*
D02*
G37*
G36*
X-19755Y-201310D02*
X-21545D01*
X-23199Y-201995D01*
X-24465Y-203261D01*
X-25150Y-204915D01*
Y-206705D01*
X-24465Y-208359D01*
X-23408Y-209415D01*
X-23424Y-210396D01*
X-23556Y-210851D01*
X-23879Y-210985D01*
X-25145Y-212251D01*
X-25830Y-213905D01*
Y-215695D01*
X-25145Y-217349D01*
X-23879Y-218615D01*
X-22225Y-219300D01*
X-20435D01*
X-18781Y-218615D01*
X-17515Y-217349D01*
X-16830Y-215695D01*
Y-213905D01*
X-17515Y-212251D01*
X-18572Y-211194D01*
X-18556Y-210214D01*
X-18424Y-209758D01*
X-18101Y-209625D01*
X-16835Y-208359D01*
X-16150Y-206705D01*
Y-204915D01*
X-16835Y-203261D01*
X-18101Y-201995D01*
X-19755Y-201310D01*
D02*
G37*
G36*
X-114455Y-215760D02*
X-116245D01*
X-117899Y-216445D01*
X-119165Y-217711D01*
X-119850Y-219365D01*
Y-221155D01*
X-119165Y-222809D01*
X-117899Y-224075D01*
X-116245Y-224760D01*
X-114455D01*
X-112801Y-224075D01*
X-111535Y-222809D01*
X-110850Y-221155D01*
Y-219365D01*
X-111535Y-217711D01*
X-112801Y-216445D01*
X-114455Y-215760D01*
D02*
G37*
G36*
X192075Y-220610D02*
X190285D01*
X188631Y-221295D01*
X187365Y-222561D01*
X186680Y-224215D01*
Y-226005D01*
X187365Y-227659D01*
X188631Y-228925D01*
X190285Y-229610D01*
X192075D01*
X193729Y-228925D01*
X194995Y-227659D01*
X195680Y-226005D01*
Y-224215D01*
X194995Y-222561D01*
X193729Y-221295D01*
X192075Y-220610D01*
D02*
G37*
G36*
X114745Y-220900D02*
X112955D01*
X111301Y-221585D01*
X110035Y-222851D01*
X109350Y-224505D01*
Y-226295D01*
X110035Y-227949D01*
X111301Y-229215D01*
X112955Y-229900D01*
X114745D01*
X116399Y-229215D01*
X117665Y-227949D01*
X118350Y-226295D01*
Y-224505D01*
X117665Y-222851D01*
X116399Y-221585D01*
X114745Y-220900D01*
D02*
G37*
G36*
X283345Y-226720D02*
X281555D01*
X279901Y-227405D01*
X278635Y-228671D01*
X277950Y-230325D01*
Y-232115D01*
X278635Y-233769D01*
X279901Y-235035D01*
X281555Y-235720D01*
X283345D01*
X284999Y-235035D01*
X286265Y-233769D01*
X286950Y-232115D01*
Y-230325D01*
X286265Y-228671D01*
X284999Y-227405D01*
X283345Y-226720D01*
D02*
G37*
G36*
X347755Y-226840D02*
X345965D01*
X344311Y-227525D01*
X343045Y-228791D01*
X342360Y-230445D01*
Y-232235D01*
X343045Y-233889D01*
X344311Y-235155D01*
X345965Y-235840D01*
X347755D01*
X349409Y-235155D01*
X350675Y-233889D01*
X351360Y-232235D01*
Y-230445D01*
X350675Y-228791D01*
X349409Y-227525D01*
X347755Y-226840D01*
D02*
G37*
G36*
X398125Y-235650D02*
X396335D01*
X394681Y-236335D01*
X393415Y-237601D01*
X392730Y-239255D01*
Y-241045D01*
X393415Y-242699D01*
X394681Y-243965D01*
X396335Y-244650D01*
X398125D01*
X399779Y-243965D01*
X401045Y-242699D01*
X401730Y-241045D01*
Y-239255D01*
X401045Y-237601D01*
X399779Y-236335D01*
X398125Y-235650D01*
D02*
G37*
G36*
X367795Y-237120D02*
X366005D01*
X364351Y-237805D01*
X363085Y-239071D01*
X362400Y-240725D01*
Y-242515D01*
X363085Y-244169D01*
X364351Y-245435D01*
X366005Y-246120D01*
X367795D01*
X369449Y-245435D01*
X370715Y-244169D01*
X371400Y-242515D01*
Y-240725D01*
X370715Y-239071D01*
X369449Y-237805D01*
X367795Y-237120D01*
D02*
G37*
G36*
X9025Y-245210D02*
X7235D01*
X5581Y-245895D01*
X4315Y-247161D01*
X3630Y-248815D01*
Y-250605D01*
X4315Y-252259D01*
X5581Y-253525D01*
X7235Y-254210D01*
X9025D01*
X10679Y-253525D01*
X11261Y-252943D01*
X12374Y-252581D01*
X12893Y-252970D01*
X13738Y-253815D01*
X15392Y-254500D01*
X17182D01*
X18836Y-253815D01*
X20102Y-252549D01*
X20787Y-250895D01*
Y-249105D01*
X20102Y-247451D01*
X18836Y-246185D01*
X17182Y-245500D01*
X15392D01*
X13738Y-246185D01*
X13156Y-246767D01*
X12043Y-247129D01*
X11524Y-246740D01*
X10679Y-245895D01*
X9025Y-245210D01*
D02*
G37*
G36*
X24205Y-295290D02*
X22415D01*
X20761Y-295975D01*
X19495Y-297241D01*
X18810Y-298895D01*
Y-300685D01*
X19495Y-302339D01*
X20761Y-303605D01*
X21034Y-303718D01*
Y-305093D01*
X20811Y-305185D01*
X19545Y-306451D01*
X18860Y-308105D01*
Y-309895D01*
X19545Y-311549D01*
X20811Y-312815D01*
X20826Y-312821D01*
Y-314196D01*
X20441Y-314355D01*
X19175Y-315621D01*
X18490Y-317275D01*
Y-319065D01*
X19175Y-320719D01*
X20441Y-321985D01*
X20568Y-322038D01*
Y-323412D01*
X20441Y-323465D01*
X19175Y-324731D01*
X18490Y-326385D01*
Y-328175D01*
X19175Y-329829D01*
X20441Y-331095D01*
X22095Y-331780D01*
X23885D01*
X25539Y-331095D01*
X26805Y-329829D01*
X27490Y-328175D01*
Y-326385D01*
X26805Y-324731D01*
X25539Y-323465D01*
X25412Y-323412D01*
Y-322038D01*
X25539Y-321985D01*
X26805Y-320719D01*
X27490Y-319065D01*
Y-317275D01*
X26805Y-315621D01*
X25539Y-314355D01*
X25524Y-314349D01*
Y-312974D01*
X25909Y-312815D01*
X27175Y-311549D01*
X27860Y-309895D01*
Y-308105D01*
X27175Y-306451D01*
X25909Y-305185D01*
X25636Y-305072D01*
Y-303697D01*
X25859Y-303605D01*
X27125Y-302339D01*
X27810Y-300685D01*
Y-298895D01*
X27125Y-297241D01*
X25859Y-295975D01*
X24205Y-295290D01*
D02*
G37*
G36*
X-11555Y-414620D02*
X-13345D01*
X-14999Y-415305D01*
X-16265Y-416571D01*
X-16950Y-418225D01*
Y-420015D01*
X-16265Y-421669D01*
X-14999Y-422935D01*
X-13345Y-423620D01*
X-11555D01*
X-9901Y-422935D01*
X-8635Y-421669D01*
X-7950Y-420015D01*
Y-418225D01*
X-8635Y-416571D01*
X-9901Y-415305D01*
X-11555Y-414620D01*
D02*
G37*
G36*
X83525Y-425820D02*
X81735D01*
X80081Y-426505D01*
X78815Y-427771D01*
X78130Y-429425D01*
Y-431215D01*
X78815Y-432869D01*
X80081Y-434135D01*
X81735Y-434820D01*
X83525D01*
X85179Y-434135D01*
X86445Y-432869D01*
X87130Y-431215D01*
Y-429425D01*
X86445Y-427771D01*
X85179Y-426505D01*
X83525Y-425820D01*
D02*
G37*
G36*
X-403130Y-447853D02*
Y-457740D01*
X-393243D01*
X-393948Y-455108D01*
X-395528Y-452372D01*
X-397762Y-450138D01*
X-400498Y-448558D01*
X-403130Y-447853D01*
D02*
G37*
G36*
X-407130D02*
X-409762Y-448558D01*
X-412498Y-450138D01*
X-414732Y-452372D01*
X-416312Y-455108D01*
X-417017Y-457740D01*
X-407130D01*
Y-447853D01*
D02*
G37*
G36*
X221794Y-444210D02*
X219398D01*
X217084Y-444830D01*
X215009Y-446028D01*
X213314Y-447722D01*
X212116Y-449797D01*
X211496Y-452112D01*
Y-454508D01*
X212116Y-456822D01*
X213314Y-458897D01*
X215009Y-460592D01*
X217084Y-461790D01*
X219398Y-462410D01*
X221794D01*
X224109Y-461790D01*
X226184Y-460592D01*
X227878Y-458897D01*
X229076Y-456822D01*
X229696Y-454508D01*
Y-452112D01*
X229076Y-449797D01*
X227878Y-447722D01*
X226184Y-446028D01*
X224109Y-444830D01*
X221794Y-444210D01*
D02*
G37*
G36*
X-454416Y-448240D02*
X-457444D01*
X-460369Y-449024D01*
X-462991Y-450538D01*
X-465132Y-452679D01*
X-466646Y-455301D01*
X-467430Y-458226D01*
Y-461254D01*
X-466646Y-464179D01*
X-465132Y-466801D01*
X-462991Y-468942D01*
X-460369Y-470456D01*
X-457444Y-471240D01*
X-454416D01*
X-451491Y-470456D01*
X-448869Y-468942D01*
X-446728Y-466801D01*
X-445214Y-464179D01*
X-444430Y-461254D01*
Y-458226D01*
X-445214Y-455301D01*
X-446728Y-452679D01*
X-448869Y-450538D01*
X-451491Y-449024D01*
X-454416Y-448240D01*
D02*
G37*
G36*
X-393243Y-461740D02*
X-403130D01*
Y-471627D01*
X-400498Y-470922D01*
X-397762Y-469342D01*
X-395528Y-467108D01*
X-393948Y-464372D01*
X-393243Y-461740D01*
D02*
G37*
G36*
X-407130D02*
X-417017D01*
X-416312Y-464372D01*
X-414732Y-467108D01*
X-412498Y-469342D01*
X-409762Y-470922D01*
X-407130Y-471627D01*
Y-461740D01*
D02*
G37*
G36*
X52355Y-471920D02*
X50565D01*
X48911Y-472605D01*
X47645Y-473871D01*
X46960Y-475525D01*
Y-477315D01*
X47645Y-478969D01*
X48911Y-480235D01*
X50565Y-480920D01*
X52355D01*
X54009Y-480235D01*
X55275Y-478969D01*
X55960Y-477315D01*
Y-475525D01*
X55275Y-473871D01*
X54009Y-472605D01*
X52355Y-471920D01*
D02*
G37*
G36*
X40485Y-472020D02*
X38695D01*
X37041Y-472705D01*
X35775Y-473971D01*
X35090Y-475625D01*
Y-477415D01*
X35775Y-479069D01*
X37041Y-480335D01*
X38695Y-481020D01*
X40485D01*
X42139Y-480335D01*
X43405Y-479069D01*
X44090Y-477415D01*
Y-475625D01*
X43405Y-473971D01*
X42139Y-472705D01*
X40485Y-472020D01*
D02*
G37*
G36*
X26385D02*
X24595D01*
X22941Y-472705D01*
X21675Y-473971D01*
X20990Y-475625D01*
Y-477415D01*
X21675Y-479069D01*
X22941Y-480335D01*
X24595Y-481020D01*
X26385D01*
X28039Y-480335D01*
X29305Y-479069D01*
X29990Y-477415D01*
Y-475625D01*
X29305Y-473971D01*
X28039Y-472705D01*
X26385Y-472020D01*
D02*
G37*
G36*
X183635Y-507390D02*
X181845D01*
X180191Y-508075D01*
X178925Y-509341D01*
X178667Y-509963D01*
X177293D01*
X177035Y-509341D01*
X175769Y-508075D01*
X174115Y-507390D01*
X172325D01*
X170671Y-508075D01*
X169405Y-509341D01*
X168720Y-510995D01*
Y-512785D01*
X169405Y-514439D01*
X170548Y-515582D01*
X170615Y-516305D01*
X170548Y-517029D01*
X169405Y-518171D01*
X168720Y-519825D01*
Y-521615D01*
X169405Y-523269D01*
X170671Y-524535D01*
X170732Y-524560D01*
Y-525830D01*
X170671Y-525855D01*
X169405Y-527121D01*
X168720Y-528775D01*
Y-530565D01*
X169405Y-532219D01*
X170671Y-533485D01*
X172325Y-534170D01*
X174115D01*
X175769Y-533485D01*
X177035Y-532219D01*
X177293Y-531597D01*
X178667D01*
X178925Y-532219D01*
X180191Y-533485D01*
X181845Y-534170D01*
X183635D01*
X185289Y-533485D01*
X186555Y-532219D01*
X187240Y-530565D01*
Y-528775D01*
X186555Y-527121D01*
X185289Y-525855D01*
X185228Y-525830D01*
Y-524560D01*
X185289Y-524535D01*
X186555Y-523269D01*
X187240Y-521615D01*
Y-519825D01*
X186555Y-518171D01*
X185412Y-517029D01*
X185345Y-516305D01*
X185412Y-515582D01*
X186555Y-514439D01*
X187240Y-512785D01*
Y-510995D01*
X186555Y-509341D01*
X185289Y-508075D01*
X183635Y-507390D01*
D02*
G37*
%LPD*%
D12*
X232400Y-312660D02*
X233120Y-313380D01*
D134*
X81560Y356240D02*
D03*
X-9640Y356470D02*
D03*
X-99450Y356240D02*
D03*
D135*
X121160D02*
D03*
X29960Y356470D02*
D03*
X-59850Y356240D02*
D03*
D152*
X840000Y0D02*
G03*
X840000Y0I-840000J0D01*
G01*
D165*
X298960Y-477700D02*
D03*
X363230D02*
D03*
X184660Y384750D02*
D03*
X-163000Y-177100D02*
D03*
Y-42700D02*
D03*
X158750Y-178100D02*
D03*
X158370Y-44200D02*
D03*
D166*
X298960Y-452300D02*
D03*
X363230D02*
D03*
X184660Y359350D02*
D03*
X-163000Y-151700D02*
D03*
Y-126300D02*
D03*
Y-100900D02*
D03*
Y8100D02*
D03*
Y33500D02*
D03*
Y-17300D02*
D03*
X158750Y-101900D02*
D03*
Y-152700D02*
D03*
Y-127300D02*
D03*
X158370Y-18800D02*
D03*
Y32000D02*
D03*
Y6600D02*
D03*
D167*
X-164400Y-246000D02*
D03*
X-139000D02*
D03*
X316247Y-382000D02*
D03*
X265447D02*
D03*
X290847D02*
D03*
X155957D02*
D03*
X130557D02*
D03*
X181357D02*
D03*
D168*
X-113600Y-246000D02*
D03*
X240047Y-382000D02*
D03*
X105157D02*
D03*
D169*
X-7Y46990D02*
D03*
Y21590D02*
D03*
X50793Y46990D02*
D03*
X25393D02*
D03*
X-25407D02*
D03*
X-50807D02*
D03*
Y21590D02*
D03*
X-25407D02*
D03*
X25393D02*
D03*
X220596Y-504110D02*
D03*
Y-478710D02*
D03*
X245996D02*
D03*
X220596Y-453310D02*
D03*
X245996Y-504110D02*
D03*
X-272700Y478100D02*
D03*
Y503500D02*
D03*
X-247300Y452700D02*
D03*
Y503500D02*
D03*
Y478100D02*
D03*
X-25403Y547300D02*
D03*
X25397D02*
D03*
X-3D02*
D03*
X25397Y572700D02*
D03*
X-3D02*
D03*
X314600Y427300D02*
D03*
X340000D02*
D03*
Y452700D02*
D03*
X365400D02*
D03*
Y427300D02*
D03*
X272700Y452700D02*
D03*
X247300Y503500D02*
D03*
Y478100D02*
D03*
X272700D02*
D03*
Y503500D02*
D03*
X-365400Y427300D02*
D03*
X-340000Y452700D02*
D03*
Y427300D02*
D03*
X-314600Y452700D02*
D03*
Y427300D02*
D03*
D170*
X50793Y21590D02*
D03*
X-25403Y572700D02*
D03*
X314600Y452700D02*
D03*
X-365400D02*
D03*
D171*
X-455930Y-307340D02*
D03*
X-227330Y-459740D02*
D03*
X-252730D02*
D03*
X-405130D02*
D03*
X-455930D02*
D03*
X-227330Y-307340D02*
D03*
X-252730D02*
D03*
D172*
X84520Y87440D02*
D03*
D173*
X-95479D02*
D03*
X-75479D02*
D03*
X-55479D02*
D03*
X-35480D02*
D03*
X-15480D02*
D03*
X4520D02*
D03*
X24520D02*
D03*
X44520D02*
D03*
X64520D02*
D03*
X84522Y307438D02*
D03*
X64522D02*
D03*
X44522D02*
D03*
X24522D02*
D03*
X4522D02*
D03*
X-15478D02*
D03*
X-35478D02*
D03*
X-55478D02*
D03*
X-75478D02*
D03*
X-95478D02*
D03*
D174*
X878992Y235525D02*
D03*
X-235525Y878992D02*
D03*
X627852Y168232D02*
D03*
X168232Y627852D02*
D03*
X643467Y643467D02*
D03*
X235525Y878992D02*
D03*
Y-878992D02*
D03*
X643467Y-643467D02*
D03*
X459619Y-459619D02*
D03*
X878992Y-235525D02*
D03*
X-627852Y-168232D02*
D03*
X-643467Y-643467D02*
D03*
X-235525Y-878992D02*
D03*
X-168232Y-627852D02*
D03*
X-878992Y235525D02*
D03*
X-643467Y643467D02*
D03*
X-459619Y459619D02*
D03*
X-878992Y-235525D02*
D03*
D175*
X878992Y258385D02*
D03*
X856133Y235525D02*
D03*
X878992Y212665D02*
D03*
X901852Y235525D02*
D03*
X895157Y251690D02*
D03*
X862828D02*
D03*
Y219361D02*
D03*
X895157D02*
D03*
X-235525Y901852D02*
D03*
X-258385Y878992D02*
D03*
X-235525Y856133D02*
D03*
X-212665Y878992D02*
D03*
X-219361Y895157D02*
D03*
X-251690D02*
D03*
Y862828D02*
D03*
X-219361D02*
D03*
X627852Y191092D02*
D03*
X604992Y168232D02*
D03*
X627852Y145372D02*
D03*
X650712Y168232D02*
D03*
X644016Y184397D02*
D03*
X611687Y184397D02*
D03*
Y152068D02*
D03*
X644016Y152068D02*
D03*
X168232Y650712D02*
D03*
X145372Y627852D02*
D03*
X168232Y604992D02*
D03*
X191092Y627852D02*
D03*
X184397Y644016D02*
D03*
X152068Y644016D02*
D03*
X152068Y611687D02*
D03*
X184397Y611687D02*
D03*
X643467Y666327D02*
D03*
X620607Y643467D02*
D03*
X643467Y620607D02*
D03*
X666327Y643467D02*
D03*
X659632Y659632D02*
D03*
X627303D02*
D03*
Y627303D02*
D03*
X659632Y627303D02*
D03*
X235525Y901852D02*
D03*
X212665Y878992D02*
D03*
X235525Y856133D02*
D03*
X258385Y878992D02*
D03*
X251690Y895157D02*
D03*
X219361D02*
D03*
Y862828D02*
D03*
X251690D02*
D03*
X235525Y-856133D02*
D03*
X212665Y-878992D02*
D03*
X235525Y-901852D02*
D03*
X258385Y-878992D02*
D03*
X251690Y-862828D02*
D03*
X219361D02*
D03*
X219361Y-895157D02*
D03*
X251690D02*
D03*
X659632Y-659632D02*
D03*
X627303Y-659632D02*
D03*
Y-627303D02*
D03*
X659632Y-627303D02*
D03*
X666327Y-643467D02*
D03*
X643467Y-666327D02*
D03*
X620607Y-643467D02*
D03*
X643467Y-620607D02*
D03*
X459620Y-436759D02*
D03*
X436760Y-459619D02*
D03*
X459620Y-482479D02*
D03*
X482479Y-459619D02*
D03*
X475784Y-443455D02*
D03*
X443455Y-443455D02*
D03*
X443455Y-475784D02*
D03*
X475784Y-475784D02*
D03*
X878992Y-212665D02*
D03*
X856133Y-235525D02*
D03*
X878992Y-258385D02*
D03*
X901852Y-235525D02*
D03*
X895157Y-219361D02*
D03*
X862828D02*
D03*
Y-251690D02*
D03*
X895157D02*
D03*
X-627852Y-145372D02*
D03*
X-650712Y-168232D02*
D03*
X-627852Y-191092D02*
D03*
X-604992Y-168232D02*
D03*
X-611687Y-152068D02*
D03*
X-644016D02*
D03*
Y-184397D02*
D03*
X-611687D02*
D03*
X-627303Y-659632D02*
D03*
X-659632Y-659632D02*
D03*
X-659632Y-627303D02*
D03*
X-627303D02*
D03*
X-620607Y-643467D02*
D03*
X-643467Y-666327D02*
D03*
X-666327Y-643467D02*
D03*
X-643467Y-620607D02*
D03*
X-219361Y-895157D02*
D03*
X-251690Y-895157D02*
D03*
Y-862828D02*
D03*
X-219361Y-862828D02*
D03*
X-212665Y-878992D02*
D03*
X-235525Y-901852D02*
D03*
X-258385Y-878992D02*
D03*
X-235525Y-856133D02*
D03*
X-168232Y-604992D02*
D03*
X-191092Y-627852D02*
D03*
X-168232Y-650712D02*
D03*
X-145372Y-627852D02*
D03*
X-152068Y-611687D02*
D03*
X-184397D02*
D03*
Y-644016D02*
D03*
X-152068D02*
D03*
X-878992Y258385D02*
D03*
X-901852Y235525D02*
D03*
X-878992Y212665D02*
D03*
X-856133Y235525D02*
D03*
X-862828Y251690D02*
D03*
X-895157Y251690D02*
D03*
X-895157Y219361D02*
D03*
X-862828D02*
D03*
X-627303Y627303D02*
D03*
X-659632Y627303D02*
D03*
Y659632D02*
D03*
X-627303Y659632D02*
D03*
X-620607Y643467D02*
D03*
X-643467Y620607D02*
D03*
X-666327Y643467D02*
D03*
X-643467Y666327D02*
D03*
X-443455Y443455D02*
D03*
X-475784Y443455D02*
D03*
X-475784Y475784D02*
D03*
X-443455Y475784D02*
D03*
X-436759Y459619D02*
D03*
X-459619Y436759D02*
D03*
X-482479Y459619D02*
D03*
X-459619Y482480D02*
D03*
X-862828Y-251690D02*
D03*
X-895157D02*
D03*
X-895157Y-219361D02*
D03*
X-862828Y-219361D02*
D03*
X-856133Y-235525D02*
D03*
X-878992Y-258385D02*
D03*
X-901852Y-235525D02*
D03*
X-878992Y-212665D02*
D03*
D176*
X-420000Y727461D02*
D03*
X727461Y420000D02*
D03*
X840000Y0D02*
D03*
X0Y840000D02*
D03*
X420000Y727461D02*
D03*
Y-727461D02*
D03*
X727461Y-420000D02*
D03*
X0Y-840000D02*
D03*
X-840000Y0D02*
D03*
X-727461Y-420000D02*
D03*
X-420000Y-727461D02*
D03*
X-727461Y420000D02*
D03*
D177*
X-370000Y640859D02*
D03*
X370000Y-640859D02*
D03*
D178*
X245996Y-453310D02*
D03*
X-272700Y452700D02*
D03*
X247300D02*
D03*
D179*
X640859Y370000D02*
D03*
X-640859Y-370000D02*
D03*
D180*
X740000Y-0D02*
D03*
X-740000Y0D02*
D03*
D181*
X0Y740000D02*
D03*
X-0Y-740000D02*
D03*
D182*
X370000Y640859D02*
D03*
X-370000Y-640859D02*
D03*
D183*
X640859Y-370000D02*
D03*
X-640859Y370000D02*
D03*
D184*
X22990Y-327280D02*
D03*
Y-318170D02*
D03*
X23360Y-309000D02*
D03*
X18053Y-131995D02*
D03*
X-275180Y222110D02*
D03*
X-291860D02*
D03*
X-307940D02*
D03*
X-322790D02*
D03*
X-265790Y211420D02*
D03*
X-283700D02*
D03*
X-300380D02*
D03*
X-316020D02*
D03*
X-330000D02*
D03*
X581000Y184440D02*
D03*
Y203210D02*
D03*
Y194240D02*
D03*
X295190Y-168290D02*
D03*
X295090Y-151600D02*
D03*
X288820Y-125210D02*
D03*
X267800D02*
D03*
X308270Y-124950D02*
D03*
X320150Y-67250D02*
D03*
X278120Y-66730D02*
D03*
X295870Y-34490D02*
D03*
X798082Y83171D02*
D03*
X388082Y-216829D02*
D03*
X368082Y-256829D02*
D03*
X358082Y-276829D02*
D03*
X348082Y183172D02*
D03*
X338082Y163172D02*
D03*
X348082Y-256829D02*
D03*
X288082Y263172D02*
D03*
Y223172D02*
D03*
Y183172D02*
D03*
Y143172D02*
D03*
X258082Y203172D02*
D03*
X238082Y163172D02*
D03*
Y-436829D02*
D03*
X228082Y263172D02*
D03*
Y223172D02*
D03*
X208081Y263172D02*
D03*
X198081Y243172D02*
D03*
X208081Y223172D02*
D03*
X198081Y-436829D02*
D03*
X178081Y243172D02*
D03*
X188081Y183172D02*
D03*
X178081Y163172D02*
D03*
X188081Y143172D02*
D03*
X178081Y-236829D02*
D03*
X158082Y243172D02*
D03*
X168081Y223172D02*
D03*
X158082Y203172D02*
D03*
Y-76829D02*
D03*
Y-436829D02*
D03*
X148082Y223172D02*
D03*
X138082Y-436829D02*
D03*
X128082Y223172D02*
D03*
Y-16829D02*
D03*
X118082Y-436829D02*
D03*
X108082Y103171D02*
D03*
X68081Y223172D02*
D03*
X58081Y163172D02*
D03*
Y-236829D02*
D03*
Y-276829D02*
D03*
Y-396829D02*
D03*
X48081Y223172D02*
D03*
X38082Y163172D02*
D03*
Y43171D02*
D03*
Y-276829D02*
D03*
X48081Y-296829D02*
D03*
Y-336829D02*
D03*
X28082Y103171D02*
D03*
X18081Y-396829D02*
D03*
Y-556829D02*
D03*
X8081Y63171D02*
D03*
X-11919Y103171D02*
D03*
Y63171D02*
D03*
X-21919Y-156829D02*
D03*
X-31919Y223172D02*
D03*
Y103171D02*
D03*
X-51919D02*
D03*
Y63171D02*
D03*
X-71919Y103171D02*
D03*
Y63171D02*
D03*
X-91919Y103171D02*
D03*
Y63171D02*
D03*
X-141919Y43171D02*
D03*
X-131919Y23171D02*
D03*
Y-16829D02*
D03*
X-171919Y-56829D02*
D03*
X-181919Y-156829D02*
D03*
Y-196829D02*
D03*
Y-236829D02*
D03*
X-191919Y-176829D02*
D03*
Y-216829D02*
D03*
X-201919Y-236829D02*
D03*
X-211919Y-216829D02*
D03*
X-281919Y-196829D02*
D03*
X-291919Y-176829D02*
D03*
X-341919Y-276829D02*
D03*
X-331919Y-296829D02*
D03*
X-341919Y-316829D02*
D03*
X-331919Y-336829D02*
D03*
X-341919Y-356829D02*
D03*
X-331919Y-376829D02*
D03*
X-341919Y-396829D02*
D03*
Y-436829D02*
D03*
X-331919Y-456829D02*
D03*
X-361919Y-276829D02*
D03*
X-351919Y-296829D02*
D03*
X-361919Y-316829D02*
D03*
X-351919Y-336829D02*
D03*
X-361919Y-356829D02*
D03*
X-351919Y-376829D02*
D03*
X-361919Y-396829D02*
D03*
Y-436829D02*
D03*
X-351919Y-456829D02*
D03*
X-371919Y-376829D02*
D03*
X-381919Y-396829D02*
D03*
X-371919Y-456829D02*
D03*
X-401919Y-396829D02*
D03*
X-421919D02*
D03*
X-431919Y-376829D02*
D03*
X-451919D02*
D03*
X-471919D02*
D03*
X398082Y-336829D02*
D03*
X358082Y-376829D02*
D03*
X338082Y-336829D02*
D03*
X348082Y-356829D02*
D03*
X318082Y-136829D02*
D03*
X328082Y-396829D02*
D03*
X298082Y-56829D02*
D03*
X308082Y-76829D02*
D03*
X298082Y-96829D02*
D03*
Y-136829D02*
D03*
X288082Y-76829D02*
D03*
X278082Y-136829D02*
D03*
X268082Y-76829D02*
D03*
X258082Y-136829D02*
D03*
X218082Y-376829D02*
D03*
X108082Y-356829D02*
D03*
X38082Y383172D02*
D03*
X18081D02*
D03*
Y343172D02*
D03*
X-21919Y503172D02*
D03*
Y463172D02*
D03*
X-31919Y483172D02*
D03*
X-81919Y-336829D02*
D03*
X-101919D02*
D03*
X-141919Y-536829D02*
D03*
X-161919D02*
D03*
X-171919Y-516829D02*
D03*
X-181919Y-536829D02*
D03*
X-171919Y-556829D02*
D03*
X-201919Y-296829D02*
D03*
X-191919Y-516829D02*
D03*
X-201919Y-536829D02*
D03*
X-191919Y-556829D02*
D03*
X-221919Y-536829D02*
D03*
Y-576829D02*
D03*
X-241919Y-296829D02*
D03*
X-261919Y-336829D02*
D03*
Y-536829D02*
D03*
X-251919Y-556829D02*
D03*
X-281919Y183172D02*
D03*
Y143172D02*
D03*
Y63171D02*
D03*
Y23171D02*
D03*
Y-16829D02*
D03*
X-301919Y183172D02*
D03*
X-291919Y163172D02*
D03*
X-301919Y143172D02*
D03*
X-291919Y123172D02*
D03*
Y83171D02*
D03*
X-301919Y63171D02*
D03*
X-291919Y43171D02*
D03*
X-301919Y-16829D02*
D03*
X-321919Y183172D02*
D03*
Y143172D02*
D03*
X-311919Y123172D02*
D03*
Y83171D02*
D03*
X-321919Y63171D02*
D03*
X-331919Y123172D02*
D03*
Y83171D02*
D03*
X-491919Y283172D02*
D03*
X-531919Y323172D02*
D03*
X-541919Y303172D02*
D03*
Y263172D02*
D03*
Y223172D02*
D03*
X173220Y-511890D02*
D03*
Y-520720D02*
D03*
Y-529670D02*
D03*
X182740D02*
D03*
Y-520720D02*
D03*
Y-511890D02*
D03*
X171260Y-551790D02*
D03*
X180090D02*
D03*
X189040D02*
D03*
Y-561310D02*
D03*
X180090D02*
D03*
X171260D02*
D03*
X-498013Y240125D02*
D03*
X-446160Y192910D02*
D03*
X-430760Y191960D02*
D03*
X-485000Y-40110D02*
D03*
X-464310Y-39950D02*
D03*
X-474920Y-39940D02*
D03*
X-485000Y-5420D02*
D03*
X-464640Y-5260D02*
D03*
X-474920Y-5250D02*
D03*
X-57360Y-94910D02*
D03*
X-10071Y-167847D02*
D03*
X-57360Y-106800D02*
D03*
X96400Y-95354D02*
D03*
X102460Y-87990D02*
D03*
X-131230Y-554560D02*
D03*
Y-564090D02*
D03*
X-130920Y-573920D02*
D03*
X-146400Y-569020D02*
D03*
X-120570Y-573700D02*
D03*
X-120880Y-563870D02*
D03*
Y-554340D02*
D03*
X-83410Y-478680D02*
D03*
X-48240Y-451870D02*
D03*
X68110Y-475780D02*
D03*
X-652550Y66300D02*
D03*
X-659460Y84060D02*
D03*
X-554720Y-299140D02*
D03*
Y-288385D02*
D03*
Y-277630D02*
D03*
X-246620Y356250D02*
D03*
X-246450Y345870D02*
D03*
X-391510Y353270D02*
D03*
X-346390Y115510D02*
D03*
X356060Y-241820D02*
D03*
X24020Y-193060D02*
D03*
X105430Y-341750D02*
D03*
X313170Y-328080D02*
D03*
X295310Y-328210D02*
D03*
X190820Y-357230D02*
D03*
X169680Y-356310D02*
D03*
X143160Y-356180D02*
D03*
X222590Y-363130D02*
D03*
X353340Y-337800D02*
D03*
X255090Y256690D02*
D03*
X255980Y215050D02*
D03*
X256430Y181280D02*
D03*
X334650Y182880D02*
D03*
X50260Y258330D02*
D03*
X-32640Y196860D02*
D03*
X-31810Y257560D02*
D03*
X-102810Y-347270D02*
D03*
X66850Y487220D02*
D03*
X154640Y330849D02*
D03*
X245370Y332230D02*
D03*
X206540Y330630D02*
D03*
X347260Y-212210D02*
D03*
X215790Y-231210D02*
D03*
X282590Y-253650D02*
D03*
X396790Y-228690D02*
D03*
X-66450Y-501510D02*
D03*
X-184360Y-299090D02*
D03*
X-51560Y-416740D02*
D03*
X-57360Y-440780D02*
D03*
X-138244Y511370D02*
D03*
X422310Y231210D02*
D03*
X345400Y-33520D02*
D03*
Y-57450D02*
D03*
Y-90120D02*
D03*
Y-116230D02*
D03*
Y-150000D02*
D03*
Y-162270D02*
D03*
Y-102230D02*
D03*
Y-45670D02*
D03*
Y-173000D02*
D03*
X353920D02*
D03*
X242810Y-33900D02*
D03*
Y-58050D02*
D03*
Y-89340D02*
D03*
Y-116470D02*
D03*
Y-148710D02*
D03*
Y-46010D02*
D03*
Y-102850D02*
D03*
Y-160670D02*
D03*
X242870Y-171820D02*
D03*
X234020D02*
D03*
X-346390Y102180D02*
D03*
Y160040D02*
D03*
Y147780D02*
D03*
Y89040D02*
D03*
Y59770D02*
D03*
Y32100D02*
D03*
Y46630D02*
D03*
Y173050D02*
D03*
X-199930Y207380D02*
D03*
Y219840D02*
D03*
Y194980D02*
D03*
X-191550Y207180D02*
D03*
Y219640D02*
D03*
Y194780D02*
D03*
X-246050Y103770D02*
D03*
Y160240D02*
D03*
Y89890D02*
D03*
Y172700D02*
D03*
Y115960D02*
D03*
Y147840D02*
D03*
Y45600D02*
D03*
Y58620D02*
D03*
Y31750D02*
D03*
X-264350Y369990D02*
D03*
X-252290Y377860D02*
D03*
X-503660Y397760D02*
D03*
X-486564D02*
D03*
X-478016D02*
D03*
X-204210Y410810D02*
D03*
X-204290Y418380D02*
D03*
X-211950Y397120D02*
D03*
X-212030Y404210D02*
D03*
X-407190Y188450D02*
D03*
X-417765Y233465D02*
D03*
X-435900Y242260D02*
D03*
X-365510Y234480D02*
D03*
X-407240Y311870D02*
D03*
X-435740Y270850D02*
D03*
X-426020Y316370D02*
D03*
X-474920Y-13120D02*
D03*
X-464310Y-13130D02*
D03*
X-485000Y-13290D02*
D03*
Y-22260D02*
D03*
X-474920Y-22090D02*
D03*
X-464310Y-22100D02*
D03*
X-485000Y-31890D02*
D03*
X-474920Y-32170D02*
D03*
X-464490Y-31890D02*
D03*
X570900Y184440D02*
D03*
X560820D02*
D03*
X570900Y194240D02*
D03*
X560820D02*
D03*
Y203210D02*
D03*
X570900D02*
D03*
X572285Y247860D02*
D03*
X582250D02*
D03*
X562320D02*
D03*
X417895Y251675D02*
D03*
X-38680Y-37920D02*
D03*
X-54252Y-10593D02*
D03*
X482200Y230770D02*
D03*
X-389410Y-223830D02*
D03*
X-425010Y-225920D02*
D03*
X-429950Y-248990D02*
D03*
X2850Y-34630D02*
D03*
X232140Y-204280D02*
D03*
X251040Y-204080D02*
D03*
X283780Y-212030D02*
D03*
X313390Y-203490D02*
D03*
X-91770Y35410D02*
D03*
X232400Y-293700D02*
D03*
X8130Y-249710D02*
D03*
X-82270Y-260270D02*
D03*
X-199560Y-226270D02*
D03*
X-227070Y-145110D02*
D03*
X-196990Y-160910D02*
D03*
X101960Y435130D02*
D03*
X144600Y406880D02*
D03*
X227410Y187770D02*
D03*
X227760Y236350D02*
D03*
X344550Y210390D02*
D03*
X344840Y223600D02*
D03*
X344670Y250160D02*
D03*
X468320Y-186420D02*
D03*
X55450Y-39910D02*
D03*
X128450Y28280D02*
D03*
X115350Y42660D02*
D03*
X-3900Y-98060D02*
D03*
X11540Y-104180D02*
D03*
X6287Y-132360D02*
D03*
X31150Y-210890D02*
D03*
X53820Y-192710D02*
D03*
X39988Y-210679D02*
D03*
X15720Y-186520D02*
D03*
X-5980Y-255140D02*
D03*
X14930Y-261680D02*
D03*
X47520Y-180170D02*
D03*
X51943Y-153547D02*
D03*
X24023Y-181237D02*
D03*
X-67190Y-135780D02*
D03*
X-43090Y-107150D02*
D03*
X-110530Y34902D02*
D03*
X-93130Y23660D02*
D03*
X-110530Y26770D02*
D03*
X-81400Y46150D02*
D03*
X21320Y444420D02*
D03*
X-535858Y203908D02*
D03*
X-476800Y192640D02*
D03*
X-536600Y251967D02*
D03*
X-488590Y333150D02*
D03*
X-25180Y440630D02*
D03*
X-174970Y458300D02*
D03*
X-61130Y513050D02*
D03*
X72740Y-251770D02*
D03*
X3400Y-49640D02*
D03*
X78610Y-116990D02*
D03*
X-107550Y-211780D02*
D03*
X-115350Y-220260D02*
D03*
X-105760Y-147130D02*
D03*
Y-119372D02*
D03*
Y-86810D02*
D03*
X397230Y-240150D02*
D03*
X346860Y-231340D02*
D03*
X366900Y-241620D02*
D03*
X282450Y-231220D02*
D03*
X302810Y126850D02*
D03*
X312500Y273780D02*
D03*
X13510Y11880D02*
D03*
X-10990Y258820D02*
D03*
X-10818Y195970D02*
D03*
X107210Y166940D02*
D03*
X108020Y229330D02*
D03*
X-129140Y-40745D02*
D03*
X-300280Y-149080D02*
D03*
X6230Y516210D02*
D03*
X39590Y-476520D02*
D03*
X-12450Y-419120D02*
D03*
X51460Y-476420D02*
D03*
X25490Y-476520D02*
D03*
X-192640Y486970D02*
D03*
X-186530Y475700D02*
D03*
X-144830Y-476430D02*
D03*
X-23420Y475560D02*
D03*
X93080Y485790D02*
D03*
X100930Y476870D02*
D03*
X75726Y481164D02*
D03*
X-207070Y-119450D02*
D03*
X-659460Y73820D02*
D03*
X-237530Y32010D02*
D03*
Y58880D02*
D03*
X-355310Y173320D02*
D03*
Y46900D02*
D03*
Y32370D02*
D03*
X-237530Y45860D02*
D03*
X-360910Y-168250D02*
D03*
X-237530Y148100D02*
D03*
Y116220D02*
D03*
X-355310Y60040D02*
D03*
X-237530Y172960D02*
D03*
Y90150D02*
D03*
Y160500D02*
D03*
Y104030D02*
D03*
X-355310Y89310D02*
D03*
Y148050D02*
D03*
Y115780D02*
D03*
Y160310D02*
D03*
Y102450D02*
D03*
X-55230Y428460D02*
D03*
X50260Y400610D02*
D03*
X353920Y-45670D02*
D03*
Y-102230D02*
D03*
Y-162270D02*
D03*
X233960Y-160670D02*
D03*
Y-102850D02*
D03*
Y-46010D02*
D03*
X-133000Y542990D02*
D03*
X-122480Y565750D02*
D03*
X-485700Y278460D02*
D03*
X-495200Y263970D02*
D03*
X-460920Y397760D02*
D03*
X-469468D02*
D03*
X-495112D02*
D03*
X-241290Y378010D02*
D03*
X-211950Y411370D02*
D03*
Y418460D02*
D03*
X37130Y447030D02*
D03*
X353920Y-150000D02*
D03*
Y-116230D02*
D03*
Y-90120D02*
D03*
Y-57450D02*
D03*
Y-33520D02*
D03*
X233960Y-148710D02*
D03*
Y-116470D02*
D03*
Y-89340D02*
D03*
Y-58050D02*
D03*
Y-33900D02*
D03*
X23310Y-299790D02*
D03*
X-161960Y489440D02*
D03*
X172520Y460160D02*
D03*
X172730Y505400D02*
D03*
X-82490Y173320D02*
D03*
X-83710Y258310D02*
D03*
X111890Y25790D02*
D03*
X130480Y41460D02*
D03*
X139619Y52251D02*
D03*
X164190Y154400D02*
D03*
X149862Y46230D02*
D03*
X-92840Y45600D02*
D03*
X-120969Y-60789D02*
D03*
X-114850Y-41670D02*
D03*
X-55290Y-125480D02*
D03*
X115950Y52310D02*
D03*
X78530Y-124520D02*
D03*
X45990Y-147797D02*
D03*
X-20650Y-205810D02*
D03*
X-21330Y-214800D02*
D03*
X47350Y-172000D02*
D03*
X24980Y-167630D02*
D03*
X18760Y-173380D02*
D03*
X52610Y434620D02*
D03*
X29540Y471020D02*
D03*
X-105820Y-199660D02*
D03*
Y-187590D02*
D03*
Y-172730D02*
D03*
X66250Y-4515D02*
D03*
X70460Y-20940D02*
D03*
X364650Y238100D02*
D03*
X-447980Y331030D02*
D03*
X-345420Y317940D02*
D03*
X-402150Y273150D02*
D03*
X-435190Y398930D02*
D03*
X-466840Y289350D02*
D03*
X-56200Y-136600D02*
D03*
X-32800Y-106800D02*
D03*
X70000Y-31500D02*
D03*
X-48440Y-119840D02*
D03*
X-17520Y-56930D02*
D03*
X20650Y-56680D02*
D03*
X-7700Y-135000D02*
D03*
X56300Y-176991D02*
D03*
X58940Y-200830D02*
D03*
X-25700Y1580D02*
D03*
X-63240Y-48070D02*
D03*
X-43565Y-48510D02*
D03*
X47650Y-200530D02*
D03*
X89960Y-157570D02*
D03*
X86510Y-135800D02*
D03*
X71500Y8600D02*
D03*
Y24200D02*
D03*
X-25600Y-170491D02*
D03*
X-21100Y-176500D02*
D03*
X-24100Y-146400D02*
D03*
X-60900Y-143900D02*
D03*
X37200Y-38300D02*
D03*
X16287Y-250000D02*
D03*
X-35700Y174400D02*
D03*
X-36300Y236600D02*
D03*
X50100Y239100D02*
D03*
X50200Y176600D02*
D03*
X200160Y117610D02*
D03*
X191180Y-225110D02*
D03*
X-92230Y-478480D02*
D03*
X17703Y-374025D02*
D03*
Y-364769D02*
D03*
Y-383319D02*
D03*
X82630Y-430320D02*
D03*
X-119000Y-384990D02*
D03*
Y-366440D02*
D03*
Y-375696D02*
D03*
X-35410Y-339930D02*
D03*
X-67310Y-387220D02*
D03*
X-56950Y-426050D02*
D03*
X-181860Y-333710D02*
D03*
X-181830Y-415680D02*
D03*
X230720Y-352780D02*
D03*
X262040Y-352200D02*
D03*
X113850Y-225400D02*
D03*
D185*
X-460590Y264610D02*
D03*
X-471590Y253610D02*
D03*
Y264610D02*
D03*
X-460590Y253610D02*
D03*
M02*
