G04*
G04 #@! TF.GenerationSoftware,Altium Limited,Altium Designer,24.1.2 (44)*
G04*
G04 Layer_Physical_Order=2*
G04 Layer_Color=1265191*
%FSLAX44Y44*%
%MOMM*%
G71*
G04*
G04 #@! TF.SameCoordinates,55DC127D-BC8F-4358-AF77-4F1C1AD15F99*
G04*
G04*
G04 #@! TF.FilePolarity,Positive*
G04*
G01*
G75*
%ADD14C,0.4000*%
%ADD143R,2.5000X2.5000*%
%ADD144C,2.5000*%
%ADD156C,5.0000*%
%ADD167C,1.0000*%
%ADD169C,1.5200*%
%ADD170R,1.5200X1.5200*%
%ADD171R,1.5200X1.5200*%
%ADD172C,2.0000*%
%ADD173R,2.2860X1.9050*%
%ADD174O,2.2860X1.9050*%
%ADD175O,1.9050X2.2860*%
%ADD176R,1.9050X2.2860*%
%ADD177R,1.5000X1.5000*%
%ADD178C,1.5000*%
%ADD179C,6.3500*%
%ADD180C,1.0000*%
%ADD181C,4.0000*%
%ADD182P,5.6569X4X165.0*%
%ADD183P,5.6569X4X75.0*%
%ADD184R,4.0000X4.0000*%
%ADD185R,4.0000X4.0000*%
%ADD186P,5.6569X4X105.0*%
%ADD187P,5.6569X4X375.0*%
%ADD188C,0.8000*%
G36*
X196970Y408060D02*
X494150D01*
Y-10230D01*
X547120Y-63200D01*
Y-370340D01*
X482241Y-435219D01*
X481280Y-434258D01*
X477046Y-431181D01*
X472383Y-428805D01*
X467405Y-427188D01*
X462236Y-426369D01*
X457002D01*
X451833Y-427188D01*
X446856Y-428805D01*
X442193Y-431181D01*
X437958Y-434258D01*
X434258Y-437958D01*
X431181Y-442192D01*
X428805Y-446856D01*
X427188Y-451833D01*
X426369Y-457002D01*
Y-462236D01*
X427188Y-467405D01*
X428805Y-472383D01*
X431181Y-477046D01*
X434258Y-481280D01*
X435219Y-482241D01*
X286280Y-631180D01*
X211770D01*
X186030Y-656920D01*
X-103920D01*
X-117420Y-643420D01*
X-117420Y-622234D01*
X-158896Y-581284D01*
X-241260Y-581490D01*
X-269090Y-553660D01*
Y-293420D01*
X-94850D01*
Y-416180D01*
X-73980Y-437050D01*
X-52220D01*
Y-448072D01*
X-52903Y-448755D01*
X-53740Y-450776D01*
Y-452964D01*
X-52903Y-454986D01*
X-52220Y-455668D01*
Y-589990D01*
X196970D01*
X219560Y-567400D01*
Y-513210D01*
X221794D01*
X224109Y-512590D01*
X226184Y-511392D01*
X227878Y-509697D01*
X229076Y-507622D01*
X229696Y-505308D01*
Y-502912D01*
X229076Y-500597D01*
X227878Y-498522D01*
X226184Y-496828D01*
X224109Y-495630D01*
X223623Y-495500D01*
X223791Y-494230D01*
X286280D01*
Y-488725D01*
X311890D01*
Y-466675D01*
X286280D01*
Y-458375D01*
X286960Y-458069D01*
X287550Y-458023D01*
X289192Y-460163D01*
X291495Y-461930D01*
X294177Y-463041D01*
X297055Y-463420D01*
X300865D01*
X303743Y-463041D01*
X306425Y-461930D01*
X308728Y-460163D01*
X310495Y-457860D01*
X311606Y-455178D01*
X311985Y-452300D01*
X311606Y-449422D01*
X310495Y-446740D01*
X308728Y-444437D01*
X306425Y-442670D01*
X303743Y-441559D01*
X300865Y-441180D01*
X297055D01*
X294177Y-441559D01*
X291495Y-442670D01*
X289192Y-444437D01*
X287550Y-446577D01*
X286960Y-446531D01*
X286280Y-446225D01*
X286280Y-395321D01*
X287366Y-394397D01*
X287969Y-394646D01*
X290847Y-395025D01*
X293725Y-394646D01*
X296407Y-393535D01*
X298710Y-391768D01*
X300477Y-389465D01*
X301588Y-386783D01*
X301967Y-383905D01*
Y-380095D01*
X301588Y-377217D01*
X300477Y-374535D01*
X298710Y-372232D01*
X296407Y-370465D01*
X293725Y-369354D01*
X290847Y-368975D01*
X287969Y-369354D01*
X285287Y-370465D01*
X282984Y-372232D01*
X281217Y-374535D01*
X280106Y-377217D01*
X279727Y-380095D01*
Y-383905D01*
X280106Y-386783D01*
X281217Y-389465D01*
X282984Y-391768D01*
X285287Y-393535D01*
X285371Y-393570D01*
X285118Y-394840D01*
X271176D01*
X270923Y-393570D01*
X271007Y-393535D01*
X273310Y-391768D01*
X275077Y-389465D01*
X276188Y-386783D01*
X276567Y-383905D01*
Y-380095D01*
X276188Y-377217D01*
X275077Y-374535D01*
X273310Y-372232D01*
X271007Y-370465D01*
X268325Y-369354D01*
X265447Y-368975D01*
X262569Y-369354D01*
X259887Y-370465D01*
X257584Y-372232D01*
X255817Y-374535D01*
X254706Y-377217D01*
X254327Y-380095D01*
Y-383905D01*
X254706Y-386783D01*
X255817Y-389465D01*
X257584Y-391768D01*
X259887Y-393535D01*
X259971Y-393570D01*
X259718Y-394840D01*
X251072D01*
Y-369070D01*
X229022D01*
Y-394840D01*
X161686D01*
X161433Y-393570D01*
X161517Y-393535D01*
X163820Y-391768D01*
X165587Y-389465D01*
X166698Y-386783D01*
X167077Y-383905D01*
Y-380095D01*
X166698Y-377217D01*
X165587Y-374535D01*
X163820Y-372232D01*
X161517Y-370465D01*
X158835Y-369354D01*
X155957Y-368975D01*
X153079Y-369354D01*
X150397Y-370465D01*
X148094Y-372232D01*
X146327Y-374535D01*
X145216Y-377217D01*
X144837Y-380095D01*
Y-383905D01*
X145216Y-386783D01*
X146327Y-389465D01*
X148094Y-391768D01*
X150397Y-393535D01*
X150481Y-393570D01*
X150228Y-394840D01*
X136286D01*
X136033Y-393570D01*
X136117Y-393535D01*
X138420Y-391768D01*
X140187Y-389465D01*
X141298Y-386783D01*
X141677Y-383905D01*
Y-380095D01*
X141298Y-377217D01*
X140187Y-374535D01*
X138420Y-372232D01*
X136117Y-370465D01*
X133435Y-369354D01*
X130557Y-368975D01*
X127679Y-369354D01*
X124997Y-370465D01*
X122694Y-372232D01*
X120927Y-374535D01*
X119816Y-377217D01*
X119437Y-380095D01*
Y-383905D01*
X119816Y-386783D01*
X120927Y-389465D01*
X122694Y-391768D01*
X124997Y-393535D01*
X125081Y-393570D01*
X124828Y-394840D01*
X116182D01*
Y-369070D01*
X98090D01*
Y-308670D01*
X459400D01*
Y-177720D01*
X360194D01*
X359668Y-176450D01*
X360133Y-175986D01*
X360970Y-173964D01*
Y-171776D01*
X360133Y-169755D01*
X358586Y-168207D01*
X358423Y-168140D01*
Y-166870D01*
X358586Y-166803D01*
X360133Y-165256D01*
X360970Y-163234D01*
Y-161046D01*
X360133Y-159024D01*
X358586Y-157477D01*
X356564Y-156640D01*
X354376D01*
X352952Y-157230D01*
X351922Y-156542D01*
X351950Y-155591D01*
X351984Y-155473D01*
X353162Y-154867D01*
X354376Y-155370D01*
X356564D01*
X358586Y-154533D01*
X360133Y-152985D01*
X360970Y-150964D01*
Y-148776D01*
X360133Y-146755D01*
X358586Y-145207D01*
X356564Y-144370D01*
X354376D01*
X352853Y-145001D01*
X352670Y-144943D01*
X351688Y-144228D01*
X351680Y-144217D01*
Y-142446D01*
X350843Y-140424D01*
X349296Y-138877D01*
X347274Y-138040D01*
X345086D01*
X343064Y-138877D01*
X341517Y-140424D01*
X340680Y-142446D01*
Y-144634D01*
X341517Y-146656D01*
X343064Y-148203D01*
X345086Y-149040D01*
X347274D01*
X348698Y-148450D01*
X349728Y-149138D01*
X349700Y-150089D01*
X349665Y-150207D01*
X348489Y-150813D01*
X347274Y-150310D01*
X345086D01*
X343064Y-151147D01*
X341517Y-152695D01*
X340680Y-154716D01*
Y-156904D01*
X341517Y-158926D01*
X343064Y-160473D01*
X343227Y-160540D01*
Y-161810D01*
X343064Y-161877D01*
X341517Y-163424D01*
X340680Y-165446D01*
Y-167634D01*
X341517Y-169655D01*
X343064Y-171203D01*
X345086Y-172040D01*
X347274D01*
X348797Y-171409D01*
X348980Y-171467D01*
X349962Y-172182D01*
X349970Y-172193D01*
Y-173964D01*
X350807Y-175986D01*
X351272Y-176450D01*
X350746Y-177720D01*
X237467D01*
X237175Y-176629D01*
X237168Y-176450D01*
X238683Y-174935D01*
X239520Y-172914D01*
Y-171987D01*
X240576Y-171281D01*
X241056Y-171480D01*
X243244D01*
X245266Y-170643D01*
X246813Y-169095D01*
X247650Y-167074D01*
Y-164886D01*
X246813Y-162864D01*
X245266Y-161317D01*
X244692Y-161080D01*
Y-159705D01*
X245205Y-159493D01*
X246753Y-157945D01*
X247590Y-155924D01*
Y-153736D01*
X246753Y-151714D01*
X245205Y-150167D01*
X243685Y-149537D01*
Y-148163D01*
X245205Y-147533D01*
X246753Y-145985D01*
X247590Y-143964D01*
Y-141776D01*
X246753Y-139754D01*
X245205Y-138207D01*
X243184Y-137370D01*
X240996D01*
X238974Y-138207D01*
X237427Y-139754D01*
X236590Y-141776D01*
Y-142703D01*
X235534Y-143409D01*
X235054Y-143210D01*
X232866D01*
X230844Y-144047D01*
X229297Y-145595D01*
X228460Y-147616D01*
Y-149804D01*
X229297Y-151826D01*
X230844Y-153373D01*
X232365Y-154003D01*
Y-155377D01*
X230844Y-156007D01*
X229297Y-157555D01*
X228460Y-159576D01*
Y-161764D01*
X229297Y-163785D01*
X230844Y-165333D01*
X231418Y-165570D01*
Y-166945D01*
X230905Y-167157D01*
X229357Y-168704D01*
X228520Y-170726D01*
Y-172914D01*
X229357Y-174935D01*
X230872Y-176450D01*
X230865Y-176629D01*
X230573Y-177720D01*
X219560D01*
Y-14860D01*
X332550D01*
X397310Y49900D01*
Y324810D01*
X210158D01*
X209834Y325556D01*
X209768Y326080D01*
X211203Y327514D01*
X212040Y329536D01*
Y331724D01*
X211203Y333745D01*
X209655Y335293D01*
X207634Y336130D01*
X205446D01*
X203424Y335293D01*
X201877Y333745D01*
X201040Y331724D01*
Y329536D01*
X201877Y327514D01*
X203312Y326080D01*
X203246Y325556D01*
X202922Y324810D01*
X157752D01*
X157499Y326080D01*
X157755Y326186D01*
X159303Y327733D01*
X160140Y329755D01*
Y331943D01*
X159303Y333964D01*
X157755Y335511D01*
X155734Y336349D01*
X153546D01*
X151524Y335511D01*
X149977Y333964D01*
X149140Y331943D01*
Y329755D01*
X149977Y327733D01*
X151524Y326186D01*
X151781Y326080D01*
X151528Y324810D01*
X-111787D01*
X-181260Y254323D01*
Y172291D01*
X-220030Y133521D01*
Y-21860D01*
X-238740Y-40570D01*
Y-48710D01*
X-316090D01*
X-345600Y-78220D01*
Y-194170D01*
X-386640Y-235210D01*
X-472660D01*
Y-189300D01*
X-472660Y-119110D01*
X-411580Y-58030D01*
Y99780D01*
X-546870D01*
Y334759D01*
X-517449Y364180D01*
X-189760D01*
Y469342D01*
X-188587Y469828D01*
X-188256Y469497D01*
X-186234Y468660D01*
X-184046D01*
X-182024Y469497D01*
X-180477Y471045D01*
X-179640Y473066D01*
Y475254D01*
X-180477Y477276D01*
X-182024Y478823D01*
X-184046Y479660D01*
X-186234D01*
X-188256Y478823D01*
X-188587Y478492D01*
X-189760Y478978D01*
Y482044D01*
X-189125Y482307D01*
X-187577Y483854D01*
X-186740Y485876D01*
Y488064D01*
X-187577Y490085D01*
X-189125Y491633D01*
X-189760Y491896D01*
Y526170D01*
X196970D01*
Y408060D01*
D02*
G37*
G36*
X-234620Y593720D02*
X233890D01*
Y804320D01*
X285300D01*
Y438340D01*
X233890D01*
Y558760D01*
X-234620D01*
Y436780D01*
X-285630D01*
Y804760D01*
X-234620D01*
Y593720D01*
D02*
G37*
G36*
X360680Y242577D02*
X360644Y242563D01*
X359097Y241015D01*
X358260Y238994D01*
Y236806D01*
X359097Y234785D01*
X360644Y233237D01*
X360680Y233223D01*
Y149710D01*
X306160D01*
X270303Y114070D01*
X206021D01*
X205173Y115340D01*
X205660Y116516D01*
Y118704D01*
X204823Y120725D01*
X203276Y122273D01*
X201254Y123110D01*
X199066D01*
X197045Y122273D01*
X195497Y120725D01*
X194660Y118704D01*
Y116516D01*
X195147Y115340D01*
X194298Y114070D01*
X170420D01*
Y38976D01*
X169150Y38544D01*
X168138Y39863D01*
X165835Y41630D01*
X163153Y42741D01*
X160275Y43120D01*
X156465D01*
X153587Y42741D01*
X150905Y41630D01*
X148602Y39863D01*
X146835Y37560D01*
X145724Y34878D01*
X145345Y32000D01*
X145724Y29122D01*
X146835Y26440D01*
X148602Y24137D01*
X150905Y22370D01*
X153587Y21259D01*
X156465Y20880D01*
X160275D01*
X163153Y21259D01*
X165835Y22370D01*
X168138Y24137D01*
X169150Y25456D01*
X170420Y25024D01*
Y13576D01*
X169150Y13144D01*
X168138Y14463D01*
X165835Y16230D01*
X163153Y17341D01*
X160275Y17720D01*
X156465D01*
X153587Y17341D01*
X150905Y16230D01*
X148602Y14463D01*
X146835Y12160D01*
X145724Y9478D01*
X145345Y6600D01*
X145724Y3722D01*
X146835Y1040D01*
X148602Y-1263D01*
X150905Y-3030D01*
X153587Y-4141D01*
X156465Y-4520D01*
X160275D01*
X163153Y-4141D01*
X165835Y-3030D01*
X168138Y-1263D01*
X169150Y56D01*
X170420Y-375D01*
Y-33175D01*
X145440D01*
Y-55225D01*
X170420D01*
Y-119829D01*
X169150Y-120260D01*
X168518Y-119437D01*
X166215Y-117670D01*
X163533Y-116559D01*
X160655Y-116180D01*
X156845D01*
X153967Y-116559D01*
X151285Y-117670D01*
X148982Y-119437D01*
X147215Y-121740D01*
X146104Y-124422D01*
X145725Y-127300D01*
X146104Y-130178D01*
X147215Y-132860D01*
X148982Y-135163D01*
X151285Y-136930D01*
X153967Y-138041D01*
X156845Y-138420D01*
X160655D01*
X163533Y-138041D01*
X166215Y-136930D01*
X168518Y-135163D01*
X169150Y-134340D01*
X170420Y-134771D01*
Y-161400D01*
X208810Y-199790D01*
X227546D01*
X228072Y-201060D01*
X227327Y-201805D01*
X226490Y-203826D01*
Y-206014D01*
X227327Y-208036D01*
X228874Y-209583D01*
X230896Y-210420D01*
X233084D01*
X235105Y-209583D01*
X236653Y-208036D01*
X237490Y-206014D01*
Y-203826D01*
X236653Y-201805D01*
X235908Y-201060D01*
X236434Y-199790D01*
X246666D01*
X247192Y-201060D01*
X246887Y-201364D01*
X246050Y-203386D01*
Y-205574D01*
X246887Y-207596D01*
X248435Y-209143D01*
X250456Y-209980D01*
X252644D01*
X254666Y-209143D01*
X256213Y-207596D01*
X257050Y-205574D01*
Y-203386D01*
X256213Y-201364D01*
X255908Y-201060D01*
X256434Y-199790D01*
X290426D01*
X290952Y-201060D01*
X290207Y-201805D01*
X289370Y-203826D01*
Y-206014D01*
X290207Y-208036D01*
X291754Y-209583D01*
X293776Y-210420D01*
X295964D01*
X297985Y-209583D01*
X299533Y-208036D01*
X300370Y-206014D01*
Y-203826D01*
X299533Y-201805D01*
X298788Y-201060D01*
X299314Y-199790D01*
X309806D01*
X310332Y-201060D01*
X309587Y-201805D01*
X308750Y-203826D01*
Y-206014D01*
X309587Y-208036D01*
X311134Y-209583D01*
X313156Y-210420D01*
X315344D01*
X317365Y-209583D01*
X318913Y-208036D01*
X319750Y-206014D01*
Y-203826D01*
X318913Y-201805D01*
X318168Y-201060D01*
X318694Y-199790D01*
X415650D01*
Y-289170D01*
X358910Y-289170D01*
X328270Y-258530D01*
X82154D01*
X81628Y-257260D01*
X82553Y-256336D01*
X83390Y-254314D01*
Y-252126D01*
X82553Y-250105D01*
X81005Y-248557D01*
X78984Y-247720D01*
X76796D01*
X74774Y-248557D01*
X73227Y-250105D01*
X72390Y-252126D01*
Y-254314D01*
X73227Y-256336D01*
X74774Y-257883D01*
X76796Y-258720D01*
X77600D01*
Y-423310D01*
X257350D01*
Y-467690D01*
X193690D01*
Y-553360D01*
X178780Y-568270D01*
X-19890D01*
Y-420390D01*
X-55850D01*
Y-258530D01*
X-102575D01*
Y-233070D01*
X-124625D01*
Y-258530D01*
X-132650D01*
X-133081Y-257260D01*
X-131137Y-255768D01*
X-129370Y-253465D01*
X-128259Y-250783D01*
X-127880Y-247905D01*
Y-244095D01*
X-128259Y-241217D01*
X-129370Y-238535D01*
X-131137Y-236232D01*
X-133440Y-234465D01*
X-136122Y-233354D01*
X-139000Y-232975D01*
X-141878Y-233354D01*
X-144560Y-234465D01*
X-146863Y-236232D01*
X-148630Y-238535D01*
X-149741Y-241217D01*
X-150120Y-244095D01*
Y-247905D01*
X-149741Y-250783D01*
X-148630Y-253465D01*
X-146863Y-255768D01*
X-144919Y-257260D01*
X-145350Y-258530D01*
X-221992D01*
X-222666Y-257260D01*
X-222030Y-255724D01*
Y-253536D01*
X-222867Y-251514D01*
X-224415Y-249967D01*
X-226436Y-249130D01*
X-228624D01*
X-230646Y-249967D01*
X-232193Y-251514D01*
X-233030Y-253536D01*
Y-255724D01*
X-232394Y-257260D01*
X-233067Y-258530D01*
X-286920D01*
X-307550Y-279160D01*
Y-485560D01*
X-464470D01*
X-476830Y-473257D01*
Y-368110D01*
X-307550Y-198830D01*
Y-118630D01*
X-212570D01*
Y-120544D01*
X-211733Y-122565D01*
X-210186Y-124113D01*
X-208164Y-124950D01*
X-205976D01*
X-203955Y-124113D01*
X-202407Y-122565D01*
X-201570Y-120544D01*
Y-118630D01*
X-177810D01*
Y97680D01*
X-123720Y151770D01*
X-112740Y162078D01*
Y257550D01*
X-83690Y286600D01*
X360680D01*
Y242577D01*
D02*
G37*
G36*
X587450Y124910D02*
X834649D01*
Y65560D01*
X542770D01*
Y214820D01*
X587450D01*
Y124910D01*
D02*
G37*
G36*
X-451220Y-45070D02*
X-509990D01*
Y-113250D01*
X-836560D01*
Y-58320D01*
X-592640D01*
Y-320D01*
X-451220D01*
Y-45070D01*
D02*
G37*
%LPC*%
G36*
X7324Y521710D02*
X5136D01*
X3115Y520873D01*
X1567Y519325D01*
X730Y517304D01*
Y515116D01*
X1567Y513094D01*
X3115Y511547D01*
X5136Y510710D01*
X7324D01*
X9345Y511547D01*
X10893Y513094D01*
X11730Y515116D01*
Y517304D01*
X10893Y519325D01*
X9345Y520873D01*
X7324Y521710D01*
D02*
G37*
G36*
X173824Y510900D02*
X171636D01*
X169615Y510063D01*
X168067Y508516D01*
X167230Y506494D01*
Y504306D01*
X168067Y502285D01*
X169615Y500737D01*
X171636Y499900D01*
X173824D01*
X175846Y500737D01*
X177393Y502285D01*
X178230Y504306D01*
Y506494D01*
X177393Y508516D01*
X175846Y510063D01*
X173824Y510900D01*
D02*
G37*
G36*
X-161536Y498050D02*
X-163724D01*
X-165746Y497213D01*
X-167293Y495666D01*
X-168130Y493644D01*
Y491456D01*
X-167293Y489435D01*
X-165746Y487887D01*
X-163724Y487050D01*
X-161536D01*
X-159515Y487887D01*
X-157967Y489435D01*
X-157130Y491456D01*
Y493644D01*
X-157967Y495666D01*
X-159515Y497213D01*
X-161536Y498050D01*
D02*
G37*
G36*
X94174Y491290D02*
X91986D01*
X89965Y490453D01*
X88417Y488905D01*
X87580Y486884D01*
Y484696D01*
X88417Y482674D01*
X89965Y481127D01*
X91986Y480290D01*
X94174D01*
X96195Y481127D01*
X97743Y482674D01*
X98580Y484696D01*
Y486884D01*
X97743Y488905D01*
X96195Y490453D01*
X94174Y491290D01*
D02*
G37*
G36*
X76820Y486664D02*
X74632D01*
X72610Y485826D01*
X71063Y484279D01*
X70226Y482258D01*
Y480070D01*
X71063Y478048D01*
X72610Y476501D01*
X74632Y475664D01*
X76820D01*
X78841Y476501D01*
X80389Y478048D01*
X81226Y480070D01*
Y482258D01*
X80389Y484279D01*
X78841Y485826D01*
X76820Y486664D01*
D02*
G37*
G36*
X103654Y481790D02*
X101466D01*
X99445Y480953D01*
X97897Y479406D01*
X97060Y477384D01*
Y475196D01*
X97897Y473175D01*
X99445Y471627D01*
X101466Y470790D01*
X103654D01*
X105675Y471627D01*
X107223Y473175D01*
X108060Y475196D01*
Y477384D01*
X107223Y479406D01*
X105675Y480953D01*
X103654Y481790D01*
D02*
G37*
G36*
X-22326Y481060D02*
X-24514D01*
X-26535Y480223D01*
X-28083Y478675D01*
X-28920Y476654D01*
Y474466D01*
X-28083Y472444D01*
X-26535Y470897D01*
X-24514Y470060D01*
X-22326D01*
X-20305Y470897D01*
X-18757Y472444D01*
X-17920Y474466D01*
Y476654D01*
X-18757Y478675D01*
X-20305Y480223D01*
X-22326Y481060D01*
D02*
G37*
G36*
X30564Y477280D02*
X28376D01*
X26354Y476443D01*
X24807Y474896D01*
X23970Y472874D01*
Y470686D01*
X24807Y468665D01*
X26354Y467117D01*
X28376Y466280D01*
X30564D01*
X32585Y467117D01*
X34133Y468665D01*
X34970Y470686D01*
Y472874D01*
X34133Y474896D01*
X32585Y476443D01*
X30564Y477280D01*
D02*
G37*
G36*
X173619Y464915D02*
X171431D01*
X169410Y464078D01*
X167863Y462531D01*
X167025Y460509D01*
Y458321D01*
X167863Y456300D01*
X169410Y454753D01*
X171431Y453915D01*
X173619D01*
X175641Y454753D01*
X177188Y456300D01*
X178025Y458321D01*
Y460509D01*
X177188Y462531D01*
X175641Y464078D01*
X173619Y464915D01*
D02*
G37*
G36*
X38224Y452530D02*
X36036D01*
X34014Y451693D01*
X32467Y450145D01*
X31630Y448124D01*
Y445936D01*
X32467Y443914D01*
X34014Y442367D01*
X36036Y441530D01*
X38224D01*
X40245Y442367D01*
X41793Y443914D01*
X42630Y445936D01*
Y448124D01*
X41793Y450145D01*
X40245Y451693D01*
X38224Y452530D01*
D02*
G37*
G36*
X53420Y438490D02*
X51232D01*
X49210Y437653D01*
X47663Y436105D01*
X46826Y434084D01*
Y431896D01*
X47663Y429874D01*
X49210Y428327D01*
X51232Y427490D01*
X53420D01*
X55441Y428327D01*
X56988Y429874D01*
X57826Y431896D01*
Y434084D01*
X56988Y436105D01*
X55441Y437653D01*
X53420Y438490D01*
D02*
G37*
G36*
X-54136Y433960D02*
X-56324D01*
X-58345Y433123D01*
X-59893Y431576D01*
X-60730Y429554D01*
Y427366D01*
X-59893Y425345D01*
X-58345Y423797D01*
X-56324Y422960D01*
X-54136D01*
X-52115Y423797D01*
X-50567Y425345D01*
X-49730Y427366D01*
Y429554D01*
X-50567Y431576D01*
X-52115Y433123D01*
X-54136Y433960D01*
D02*
G37*
G36*
X51354Y406110D02*
X49166D01*
X47144Y405273D01*
X45597Y403726D01*
X44760Y401704D01*
Y399516D01*
X45597Y397495D01*
X47144Y395947D01*
X49166Y395110D01*
X51354D01*
X53376Y395947D01*
X54923Y397495D01*
X55760Y399516D01*
Y401704D01*
X54923Y403726D01*
X53376Y405273D01*
X51354Y406110D01*
D02*
G37*
G36*
X124870Y453810D02*
X82610D01*
Y389080D01*
X160690D01*
Y423260D01*
X124870D01*
Y453810D01*
D02*
G37*
G36*
X197590Y395775D02*
X171730D01*
Y373725D01*
X197590D01*
Y395775D01*
D02*
G37*
G36*
X186565Y370470D02*
X182755D01*
X179877Y370091D01*
X177195Y368980D01*
X174892Y367213D01*
X173125Y364910D01*
X172014Y362228D01*
X171635Y359350D01*
X172014Y356472D01*
X173125Y353790D01*
X174892Y351487D01*
X177195Y349720D01*
X179877Y348609D01*
X182755Y348230D01*
X186565D01*
X189443Y348609D01*
X192125Y349720D01*
X194428Y351487D01*
X196195Y353790D01*
X197306Y356472D01*
X197685Y359350D01*
X197306Y362228D01*
X196195Y364910D01*
X194428Y367213D01*
X192125Y368980D01*
X189443Y370091D01*
X186565Y370470D01*
D02*
G37*
G36*
X-390416Y358770D02*
X-392604D01*
X-394626Y357933D01*
X-396173Y356385D01*
X-397010Y354364D01*
Y352176D01*
X-396173Y350154D01*
X-394626Y348607D01*
X-392604Y347770D01*
X-390416D01*
X-388395Y348607D01*
X-386847Y350154D01*
X-386010Y352176D01*
Y354364D01*
X-386847Y356385D01*
X-388395Y357933D01*
X-390416Y358770D01*
D02*
G37*
G36*
X4360Y370470D02*
X-23640D01*
Y342470D01*
X4360D01*
Y370470D01*
D02*
G37*
G36*
X95560Y370240D02*
X67560D01*
Y342240D01*
X95560D01*
Y370240D01*
D02*
G37*
G36*
X-58007D02*
X-61693D01*
X-65254Y369286D01*
X-68446Y367443D01*
X-71053Y364836D01*
X-72896Y361644D01*
X-73850Y358083D01*
Y354397D01*
X-72896Y350836D01*
X-71053Y347644D01*
X-68446Y345037D01*
X-65254Y343194D01*
X-61693Y342240D01*
X-58007D01*
X-54446Y343194D01*
X-51254Y345037D01*
X-48647Y347644D01*
X-46804Y350836D01*
X-45850Y354397D01*
Y358083D01*
X-46804Y361644D01*
X-48647Y364836D01*
X-51254Y367443D01*
X-54446Y369286D01*
X-58007Y370240D01*
D02*
G37*
G36*
X-85450D02*
X-113450D01*
Y342240D01*
X-85450D01*
Y370240D01*
D02*
G37*
G36*
X-245526Y361750D02*
X-247714D01*
X-249736Y360913D01*
X-251283Y359366D01*
X-252120Y357344D01*
Y355156D01*
X-251283Y353134D01*
X-249912Y351764D01*
X-249764Y351236D01*
X-249841Y350257D01*
X-251113Y348985D01*
X-251950Y346964D01*
Y344776D01*
X-251113Y342755D01*
X-249566Y341207D01*
X-247544Y340370D01*
X-245356D01*
X-243335Y341207D01*
X-241787Y342755D01*
X-240950Y344776D01*
Y346964D01*
X-241787Y348985D01*
X-243158Y350356D01*
X-243307Y350884D01*
X-243228Y351863D01*
X-241957Y353134D01*
X-241120Y355156D01*
Y357344D01*
X-241957Y359366D01*
X-243505Y360913D01*
X-245526Y361750D01*
D02*
G37*
G36*
X246464Y337730D02*
X244276D01*
X242255Y336893D01*
X240707Y335345D01*
X239870Y333324D01*
Y331136D01*
X240707Y329114D01*
X242255Y327567D01*
X244276Y326730D01*
X246464D01*
X248486Y327567D01*
X250033Y329114D01*
X250870Y331136D01*
Y333324D01*
X250033Y335345D01*
X248486Y336893D01*
X246464Y337730D01*
D02*
G37*
G36*
X-446886Y336530D02*
X-449074D01*
X-451096Y335693D01*
X-452643Y334146D01*
X-453480Y332124D01*
Y329936D01*
X-452643Y327915D01*
X-451096Y326367D01*
X-449074Y325530D01*
X-446886D01*
X-444865Y326367D01*
X-443317Y327915D01*
X-442480Y329936D01*
Y332124D01*
X-443317Y334146D01*
X-444865Y335693D01*
X-446886Y336530D01*
D02*
G37*
G36*
X-344326Y323440D02*
X-346514D01*
X-348535Y322603D01*
X-350083Y321055D01*
X-350920Y319034D01*
Y316846D01*
X-350083Y314825D01*
X-348535Y313277D01*
X-346514Y312440D01*
X-344326D01*
X-342304Y313277D01*
X-340757Y314825D01*
X-339920Y316846D01*
Y319034D01*
X-340757Y321055D01*
X-342304Y322603D01*
X-344326Y323440D01*
D02*
G37*
G36*
X-424926Y321870D02*
X-427114D01*
X-429136Y321033D01*
X-430683Y319485D01*
X-431520Y317464D01*
Y315276D01*
X-430683Y313255D01*
X-429136Y311707D01*
X-427114Y310870D01*
X-424926D01*
X-422905Y311707D01*
X-421357Y313255D01*
X-420520Y315276D01*
Y317464D01*
X-421357Y319485D01*
X-422905Y321033D01*
X-424926Y321870D01*
D02*
G37*
G36*
X-466746Y295620D02*
X-468934D01*
X-470956Y294783D01*
X-472503Y293235D01*
X-473340Y291214D01*
Y289026D01*
X-472503Y287005D01*
X-470956Y285457D01*
X-468934Y284620D01*
X-466746D01*
X-464725Y285457D01*
X-463177Y287005D01*
X-462340Y289026D01*
Y291214D01*
X-463177Y293235D01*
X-464725Y294783D01*
X-466746Y295620D01*
D02*
G37*
G36*
X-484606Y283960D02*
X-486794D01*
X-488815Y283123D01*
X-490363Y281576D01*
X-491200Y279554D01*
Y277366D01*
X-490363Y275345D01*
X-488815Y273797D01*
X-486794Y272960D01*
X-484606D01*
X-482584Y273797D01*
X-481037Y275345D01*
X-480200Y277366D01*
Y279554D01*
X-481037Y281576D01*
X-482584Y283123D01*
X-484606Y283960D01*
D02*
G37*
G36*
X-401546Y278460D02*
X-403734D01*
X-405756Y277623D01*
X-407303Y276075D01*
X-408140Y274054D01*
Y271866D01*
X-407303Y269844D01*
X-405756Y268297D01*
X-403734Y267460D01*
X-401546D01*
X-399524Y268297D01*
X-397977Y269844D01*
X-397140Y271866D01*
Y274054D01*
X-397977Y276075D01*
X-399524Y277623D01*
X-401546Y278460D01*
D02*
G37*
G36*
X-434646Y276350D02*
X-436834D01*
X-438856Y275513D01*
X-440403Y273965D01*
X-441240Y271944D01*
Y269756D01*
X-440403Y267735D01*
X-438856Y266187D01*
X-436834Y265350D01*
X-434646D01*
X-432625Y266187D01*
X-431077Y267735D01*
X-430240Y269756D01*
Y271944D01*
X-431077Y273965D01*
X-432625Y275513D01*
X-434646Y276350D01*
D02*
G37*
G36*
X-494106Y268580D02*
X-496294D01*
X-498316Y267743D01*
X-499863Y266196D01*
X-500700Y264174D01*
Y261986D01*
X-499863Y259965D01*
X-498316Y258417D01*
X-496294Y257580D01*
X-494106D01*
X-492085Y258417D01*
X-490537Y259965D01*
X-489700Y261986D01*
Y264174D01*
X-490537Y266196D01*
X-492085Y267743D01*
X-494106Y268580D01*
D02*
G37*
G36*
X418989Y257175D02*
X416801D01*
X414780Y256338D01*
X413232Y254790D01*
X412395Y252769D01*
Y250581D01*
X413232Y248559D01*
X414780Y247012D01*
X416801Y246175D01*
X418989D01*
X421011Y247012D01*
X422558Y248559D01*
X423395Y250581D01*
Y252769D01*
X422558Y254790D01*
X421011Y256338D01*
X418989Y257175D01*
D02*
G37*
G36*
X-434439Y247407D02*
X-436627D01*
X-438648Y246570D01*
X-440196Y245023D01*
X-441033Y243001D01*
Y240813D01*
X-440196Y238792D01*
X-438648Y237244D01*
X-436627Y236407D01*
X-434439D01*
X-432417Y237244D01*
X-430870Y238792D01*
X-430033Y240813D01*
Y243001D01*
X-430870Y245023D01*
X-432417Y246570D01*
X-434439Y247407D01*
D02*
G37*
G36*
X-496816Y245670D02*
X-499004D01*
X-501026Y244833D01*
X-502573Y243286D01*
X-503410Y241264D01*
Y239076D01*
X-502573Y237055D01*
X-501026Y235507D01*
X-499004Y234670D01*
X-496816D01*
X-494795Y235507D01*
X-493247Y237055D01*
X-492410Y239076D01*
Y241264D01*
X-493247Y243286D01*
X-494795Y244833D01*
X-496816Y245670D01*
D02*
G37*
G36*
X-191596Y239340D02*
X-193784D01*
X-195805Y238503D01*
X-197353Y236956D01*
X-198190Y234934D01*
Y234627D01*
X-199460Y233807D01*
X-200746Y234340D01*
X-202934D01*
X-204956Y233503D01*
X-206503Y231956D01*
X-207340Y229934D01*
Y227746D01*
X-206503Y225725D01*
X-204956Y224177D01*
X-202934Y223340D01*
X-200746D01*
X-200410Y223479D01*
X-199183Y222627D01*
X-199187Y222540D01*
X-200417Y221744D01*
X-200746Y221880D01*
X-202934D01*
X-204956Y221043D01*
X-206503Y219496D01*
X-207340Y217474D01*
Y215286D01*
X-206503Y213265D01*
X-204956Y211717D01*
X-202934Y210880D01*
X-200746D01*
X-200483Y210989D01*
X-199298Y210162D01*
X-200508Y209381D01*
X-200746Y209480D01*
X-202934D01*
X-204956Y208643D01*
X-206503Y207096D01*
X-207340Y205074D01*
Y202886D01*
X-206503Y200865D01*
X-204956Y199317D01*
X-202934Y198480D01*
X-200746D01*
X-199693Y198916D01*
X-199566Y198879D01*
X-198520Y198027D01*
Y196386D01*
X-197683Y194364D01*
X-196136Y192817D01*
X-194114Y191980D01*
X-191926D01*
X-189904Y192817D01*
X-188357Y194364D01*
X-187520Y196386D01*
Y198574D01*
X-188357Y200595D01*
X-189904Y202143D01*
X-191926Y202980D01*
X-194114D01*
X-194377Y202871D01*
X-195562Y203698D01*
X-194352Y204479D01*
X-194114Y204380D01*
X-191926D01*
X-189904Y205217D01*
X-188357Y206765D01*
X-187520Y208786D01*
Y210974D01*
X-188357Y212995D01*
X-189904Y214543D01*
X-191926Y215380D01*
X-194114D01*
X-194450Y215241D01*
X-195677Y216093D01*
X-195673Y216180D01*
X-194443Y216976D01*
X-194114Y216840D01*
X-191926D01*
X-189904Y217677D01*
X-188357Y219224D01*
X-187520Y221246D01*
Y223434D01*
X-188357Y225455D01*
X-189904Y227003D01*
X-190705Y227334D01*
Y228709D01*
X-189575Y229177D01*
X-188027Y230725D01*
X-187190Y232746D01*
Y234934D01*
X-188027Y236956D01*
X-189575Y238503D01*
X-191596Y239340D01*
D02*
G37*
G36*
X-364416Y239980D02*
X-366604D01*
X-368625Y239143D01*
X-370173Y237596D01*
X-371010Y235574D01*
Y233386D01*
X-370173Y231364D01*
X-368625Y229817D01*
X-366604Y228980D01*
X-364416D01*
X-362394Y229817D01*
X-360847Y231364D01*
X-360010Y233386D01*
Y235574D01*
X-360847Y237596D01*
X-362394Y239143D01*
X-364416Y239980D01*
D02*
G37*
G36*
X-416671Y238965D02*
X-418859D01*
X-420881Y238128D01*
X-422428Y236581D01*
X-423265Y234559D01*
Y232371D01*
X-422428Y230350D01*
X-420881Y228803D01*
X-418859Y227965D01*
X-416671D01*
X-414650Y228803D01*
X-413103Y230350D01*
X-412265Y232371D01*
Y234559D01*
X-413103Y236581D01*
X-414650Y238128D01*
X-416671Y238965D01*
D02*
G37*
G36*
X483294Y236270D02*
X481106D01*
X479085Y235433D01*
X477537Y233885D01*
X476700Y231864D01*
Y229676D01*
X477537Y227654D01*
X479085Y226107D01*
X481106Y225270D01*
X483294D01*
X485316Y226107D01*
X486863Y227654D01*
X487700Y229676D01*
Y231864D01*
X486863Y233885D01*
X485316Y235433D01*
X483294Y236270D01*
D02*
G37*
G36*
X-429666Y197460D02*
X-431854D01*
X-433876Y196623D01*
X-435423Y195075D01*
X-436260Y193054D01*
Y190866D01*
X-435423Y188845D01*
X-433876Y187297D01*
X-431854Y186460D01*
X-429666D01*
X-427645Y187297D01*
X-426097Y188845D01*
X-425260Y190866D01*
Y193054D01*
X-426097Y195075D01*
X-427645Y196623D01*
X-429666Y197460D01*
D02*
G37*
G36*
X-444446Y197200D02*
X-446634D01*
X-448656Y196363D01*
X-450203Y194816D01*
X-451040Y192794D01*
Y190606D01*
X-450203Y188584D01*
X-448656Y187037D01*
X-446634Y186200D01*
X-444446D01*
X-442425Y187037D01*
X-440877Y188584D01*
X-440040Y190606D01*
Y192794D01*
X-440877Y194816D01*
X-442425Y196363D01*
X-444446Y197200D01*
D02*
G37*
G36*
X-345076Y185420D02*
X-347264D01*
X-349286Y184583D01*
X-350833Y183036D01*
X-351670Y181014D01*
Y179118D01*
X-352383Y178452D01*
X-352799Y178233D01*
X-354216Y178820D01*
X-356404D01*
X-358425Y177983D01*
X-359973Y176436D01*
X-360810Y174414D01*
Y172226D01*
X-359973Y170205D01*
X-358425Y168657D01*
X-356404Y167820D01*
X-354216D01*
X-352843Y168389D01*
X-352653Y168326D01*
X-351670Y167523D01*
Y166108D01*
X-352383Y165442D01*
X-352799Y165223D01*
X-354216Y165810D01*
X-356404D01*
X-358425Y164973D01*
X-359973Y163426D01*
X-360810Y161404D01*
Y159216D01*
X-359973Y157194D01*
X-358425Y155647D01*
X-356404Y154810D01*
Y153550D01*
X-358425Y152713D01*
X-359973Y151166D01*
X-360810Y149144D01*
Y146956D01*
X-359973Y144935D01*
X-358425Y143387D01*
X-356404Y142550D01*
X-354216D01*
X-352195Y143387D01*
X-350647Y144935D01*
X-349810Y146956D01*
Y148853D01*
X-349097Y149518D01*
X-348681Y149737D01*
X-347264Y149150D01*
X-345076D01*
X-343055Y149987D01*
X-341507Y151535D01*
X-340670Y153556D01*
Y155744D01*
X-341507Y157766D01*
X-343055Y159313D01*
X-345076Y160150D01*
Y161410D01*
X-343055Y162247D01*
X-341507Y163794D01*
X-340670Y165816D01*
Y168004D01*
X-341507Y170026D01*
X-343055Y171573D01*
X-345076Y172410D01*
X-347264D01*
X-348637Y171841D01*
X-348827Y171904D01*
X-349810Y172708D01*
Y174123D01*
X-349097Y174788D01*
X-348681Y175007D01*
X-347264Y174420D01*
X-345076D01*
X-343055Y175257D01*
X-341507Y176805D01*
X-340670Y178826D01*
Y181014D01*
X-341507Y183036D01*
X-343055Y184583D01*
X-345076Y185420D01*
D02*
G37*
G36*
X-243176Y185120D02*
X-245364D01*
X-247386Y184283D01*
X-248933Y182736D01*
X-249770Y180714D01*
Y178526D01*
X-248933Y176504D01*
X-247386Y174957D01*
X-245364Y174120D01*
X-243176D01*
X-241428Y174844D01*
X-240604Y174254D01*
X-240403Y173999D01*
X-240430Y173934D01*
Y172793D01*
X-240475Y172732D01*
X-241700Y172049D01*
X-243176Y172660D01*
X-245364D01*
X-247386Y171823D01*
X-248933Y170275D01*
X-249770Y168254D01*
Y166066D01*
X-248933Y164044D01*
X-247386Y162497D01*
X-245364Y161660D01*
X-243176D01*
X-241428Y162384D01*
X-240604Y161794D01*
X-240403Y161539D01*
X-240430Y161474D01*
Y160393D01*
X-240475Y160332D01*
X-241700Y159649D01*
X-243176Y160260D01*
X-245364D01*
X-247386Y159423D01*
X-248933Y157875D01*
X-249770Y155854D01*
Y153666D01*
X-248933Y151644D01*
X-247386Y150097D01*
X-245364Y149260D01*
X-243176D01*
X-241428Y149984D01*
X-240604Y149394D01*
X-240403Y149138D01*
X-240430Y149074D01*
Y146886D01*
X-239593Y144865D01*
X-238046Y143317D01*
X-236024Y142480D01*
X-233836D01*
X-231814Y143317D01*
X-230267Y144865D01*
X-229430Y146886D01*
Y149074D01*
X-230267Y151096D01*
X-231814Y152643D01*
X-233836Y153480D01*
X-236024D01*
X-237772Y152756D01*
X-238596Y153346D01*
X-238797Y153602D01*
X-238770Y153666D01*
Y154747D01*
X-238725Y154808D01*
X-237500Y155491D01*
X-236024Y154880D01*
X-233836D01*
X-231814Y155717D01*
X-230267Y157264D01*
X-229430Y159286D01*
Y161474D01*
X-230267Y163496D01*
X-231814Y165043D01*
X-233836Y165880D01*
X-236024D01*
X-237772Y165156D01*
X-238596Y165746D01*
X-238797Y166001D01*
X-238770Y166066D01*
Y167208D01*
X-238725Y167268D01*
X-237500Y167951D01*
X-236024Y167340D01*
X-233836D01*
X-231814Y168177D01*
X-230267Y169725D01*
X-229430Y171746D01*
Y173934D01*
X-230267Y175956D01*
X-231814Y177503D01*
X-233836Y178340D01*
X-236024D01*
X-237772Y177616D01*
X-238596Y178206D01*
X-238797Y178461D01*
X-238770Y178526D01*
Y180714D01*
X-239607Y182736D01*
X-241154Y184283D01*
X-243176Y185120D01*
D02*
G37*
G36*
X-345296Y127440D02*
X-347484D01*
X-349506Y126603D01*
X-351053Y125056D01*
X-351890Y123034D01*
Y121691D01*
X-353158Y120842D01*
X-354216Y121280D01*
X-356404D01*
X-358425Y120443D01*
X-359973Y118896D01*
X-360810Y116874D01*
Y114686D01*
X-359973Y112664D01*
X-358425Y111117D01*
X-356404Y110280D01*
X-354216D01*
X-352780Y110875D01*
X-351808Y109903D01*
X-351890Y109704D01*
Y108361D01*
X-353158Y107512D01*
X-354216Y107950D01*
X-356404D01*
X-358425Y107113D01*
X-359973Y105566D01*
X-360810Y103544D01*
Y101356D01*
X-359973Y99334D01*
X-358425Y97787D01*
X-356404Y96950D01*
X-354216D01*
X-352875Y97506D01*
X-351890Y96564D01*
Y95221D01*
X-353158Y94372D01*
X-354216Y94810D01*
X-356404D01*
X-358425Y93973D01*
X-359973Y92425D01*
X-360810Y90404D01*
Y88216D01*
X-359973Y86194D01*
X-358425Y84647D01*
X-356404Y83810D01*
X-354216D01*
X-352195Y84647D01*
X-350647Y86194D01*
X-349810Y88216D01*
Y89559D01*
X-348542Y90408D01*
X-347484Y89970D01*
X-345296D01*
X-343274Y90807D01*
X-341727Y92354D01*
X-340890Y94376D01*
Y96564D01*
X-341727Y98586D01*
X-343274Y100133D01*
X-345296Y100970D01*
X-347484D01*
X-348825Y100414D01*
X-349810Y101356D01*
Y102699D01*
X-348542Y103548D01*
X-347484Y103110D01*
X-345296D01*
X-343274Y103947D01*
X-341727Y105494D01*
X-340890Y107516D01*
Y109704D01*
X-341727Y111726D01*
X-343274Y113273D01*
X-345296Y114110D01*
X-347484D01*
X-348920Y113515D01*
X-349892Y114487D01*
X-349810Y114686D01*
Y116029D01*
X-348542Y116878D01*
X-347484Y116440D01*
X-345296D01*
X-343274Y117277D01*
X-341727Y118825D01*
X-340890Y120846D01*
Y123034D01*
X-341727Y125056D01*
X-343274Y126603D01*
X-345296Y127440D01*
D02*
G37*
G36*
X-243176Y128380D02*
X-245364D01*
X-247386Y127543D01*
X-248933Y125996D01*
X-249770Y123974D01*
Y121786D01*
X-248933Y119764D01*
X-247386Y118217D01*
X-245364Y117380D01*
Y116190D01*
X-247386Y115353D01*
X-248933Y113806D01*
X-249770Y111784D01*
Y109596D01*
X-248933Y107575D01*
X-247386Y106027D01*
X-245364Y105190D01*
X-243176D01*
X-241723Y105792D01*
X-241435Y105684D01*
X-240550Y104972D01*
Y103166D01*
X-240195Y102309D01*
X-240951Y101650D01*
X-241238Y101507D01*
X-243176Y102310D01*
X-245364D01*
X-247386Y101473D01*
X-248933Y99925D01*
X-249770Y97904D01*
Y95716D01*
X-248933Y93694D01*
X-247386Y92147D01*
X-245364Y91310D01*
X-243176D01*
X-241723Y91912D01*
X-241435Y91804D01*
X-240550Y91093D01*
Y89286D01*
X-239713Y87264D01*
X-238165Y85717D01*
X-236144Y84880D01*
X-233956D01*
X-231935Y85717D01*
X-230387Y87264D01*
X-229550Y89286D01*
Y91474D01*
X-230387Y93496D01*
X-231935Y95043D01*
X-233956Y95880D01*
X-236144D01*
X-237597Y95278D01*
X-237885Y95386D01*
X-238770Y96097D01*
Y97904D01*
X-239125Y98761D01*
X-238369Y99420D01*
X-238083Y99563D01*
X-236144Y98760D01*
X-233956D01*
X-231935Y99597D01*
X-230387Y101145D01*
X-229550Y103166D01*
Y105354D01*
X-230387Y107375D01*
X-231935Y108923D01*
X-233956Y109760D01*
Y110950D01*
X-231935Y111787D01*
X-230387Y113335D01*
X-229550Y115356D01*
Y117544D01*
X-230387Y119565D01*
X-231935Y121113D01*
X-233956Y121950D01*
X-236144D01*
X-237597Y121348D01*
X-237885Y121456D01*
X-238770Y122168D01*
Y123974D01*
X-239607Y125996D01*
X-241154Y127543D01*
X-243176Y128380D01*
D02*
G37*
G36*
X-345476Y72680D02*
X-347664D01*
X-349686Y71843D01*
X-351233Y70296D01*
X-352070Y68274D01*
Y66086D01*
X-352040Y66013D01*
X-353012Y65041D01*
X-354216Y65540D01*
X-356404D01*
X-358425Y64703D01*
X-359973Y63155D01*
X-360810Y61134D01*
Y58946D01*
X-359973Y56925D01*
X-358425Y55377D01*
X-356404Y54540D01*
X-354216D01*
X-353340Y54903D01*
X-352141Y54102D01*
X-352070Y53041D01*
Y52946D01*
X-352062Y52928D01*
X-352058Y52856D01*
X-353012Y51901D01*
X-354216Y52400D01*
X-356404D01*
X-358425Y51563D01*
X-359973Y50016D01*
X-360810Y47994D01*
Y45806D01*
X-359973Y43784D01*
X-358425Y42237D01*
X-356404Y41400D01*
X-354216D01*
X-352887Y41950D01*
X-351915Y40978D01*
X-352070Y40604D01*
Y38416D01*
X-352040Y38343D01*
X-353012Y37371D01*
X-354216Y37870D01*
X-356404D01*
X-358425Y37033D01*
X-359973Y35485D01*
X-360810Y33464D01*
Y31276D01*
X-359973Y29255D01*
X-358425Y27707D01*
X-356404Y26870D01*
X-354216D01*
X-352195Y27707D01*
X-350647Y29255D01*
X-349810Y31276D01*
Y33464D01*
X-349840Y33537D01*
X-348868Y34509D01*
X-347664Y34010D01*
X-345476D01*
X-343455Y34847D01*
X-341907Y36395D01*
X-341070Y38416D01*
Y40604D01*
X-341907Y42625D01*
X-343455Y44173D01*
X-345476Y45010D01*
X-347664D01*
X-348993Y44459D01*
X-349965Y45431D01*
X-349810Y45806D01*
Y47994D01*
X-349840Y48067D01*
X-348868Y49039D01*
X-347664Y48540D01*
X-345476D01*
X-343455Y49377D01*
X-341907Y50925D01*
X-341070Y52946D01*
Y55134D01*
X-341907Y57155D01*
X-343455Y58703D01*
X-345476Y59540D01*
X-347664D01*
X-348540Y59177D01*
X-349739Y59978D01*
X-349810Y61039D01*
Y61134D01*
X-349818Y61152D01*
X-349822Y61224D01*
X-348868Y62179D01*
X-347664Y61680D01*
X-345476D01*
X-343455Y62517D01*
X-341907Y64064D01*
X-341070Y66086D01*
Y68274D01*
X-341907Y70296D01*
X-343455Y71843D01*
X-345476Y72680D01*
D02*
G37*
G36*
X-243176Y71040D02*
X-245364D01*
X-247386Y70203D01*
X-248933Y68656D01*
X-249770Y66634D01*
Y64446D01*
X-248933Y62425D01*
X-247386Y60877D01*
X-245364Y60040D01*
X-243176D01*
X-241485Y60740D01*
X-240522Y59981D01*
X-240461Y59895D01*
X-240540Y59704D01*
Y58228D01*
X-241779Y57441D01*
X-243176Y58020D01*
X-245364D01*
X-247386Y57183D01*
X-248933Y55635D01*
X-249770Y53614D01*
Y51426D01*
X-248933Y49405D01*
X-247386Y47857D01*
X-245364Y47020D01*
X-243176D01*
X-241485Y47720D01*
X-240522Y46961D01*
X-240461Y46875D01*
X-240540Y46684D01*
Y44496D01*
X-240466Y44317D01*
X-240516Y44246D01*
X-241490Y43472D01*
X-243176Y44170D01*
X-245364D01*
X-247386Y43333D01*
X-248933Y41785D01*
X-249770Y39764D01*
Y37576D01*
X-248933Y35554D01*
X-247386Y34007D01*
X-245364Y33170D01*
X-243176D01*
X-241485Y33870D01*
X-240522Y33111D01*
X-240461Y33025D01*
X-240540Y32834D01*
Y30646D01*
X-239703Y28624D01*
X-238155Y27077D01*
X-236134Y26240D01*
X-233946D01*
X-231924Y27077D01*
X-230377Y28624D01*
X-229540Y30646D01*
Y32834D01*
X-230377Y34855D01*
X-231924Y36403D01*
X-233946Y37240D01*
X-236134D01*
X-237825Y36540D01*
X-238788Y37299D01*
X-238849Y37385D01*
X-238770Y37576D01*
Y39764D01*
X-238844Y39943D01*
X-238794Y40014D01*
X-237820Y40788D01*
X-236134Y40090D01*
X-233946D01*
X-231924Y40927D01*
X-230377Y42474D01*
X-229540Y44496D01*
Y46684D01*
X-230377Y48706D01*
X-231924Y50253D01*
X-233946Y51090D01*
X-236134D01*
X-237825Y50390D01*
X-238788Y51149D01*
X-238849Y51235D01*
X-238770Y51426D01*
Y52902D01*
X-237531Y53689D01*
X-236134Y53110D01*
X-233946D01*
X-231924Y53947D01*
X-230377Y55494D01*
X-229540Y57516D01*
Y59704D01*
X-230377Y61726D01*
X-231924Y63273D01*
X-233946Y64110D01*
X-236134D01*
X-237825Y63410D01*
X-238788Y64169D01*
X-238849Y64255D01*
X-238770Y64446D01*
Y66634D01*
X-239607Y68656D01*
X-241154Y70203D01*
X-243176Y71040D01*
D02*
G37*
G36*
X243184Y-22560D02*
X240996D01*
X238974Y-23397D01*
X237427Y-24945D01*
X236590Y-26966D01*
Y-27893D01*
X235534Y-28599D01*
X235054Y-28400D01*
X232866D01*
X230844Y-29237D01*
X229297Y-30784D01*
X228460Y-32806D01*
Y-34994D01*
X229297Y-37016D01*
X230844Y-38563D01*
X232673Y-39320D01*
X232713Y-39568D01*
Y-40342D01*
X232673Y-40590D01*
X230844Y-41347D01*
X229297Y-42895D01*
X228460Y-44916D01*
Y-47104D01*
X229297Y-49125D01*
X230844Y-50673D01*
X232544Y-51377D01*
Y-52683D01*
X230844Y-53387D01*
X229297Y-54935D01*
X228460Y-56956D01*
Y-59144D01*
X229297Y-61165D01*
X230844Y-62713D01*
X232866Y-63550D01*
X235054D01*
X237076Y-62713D01*
X238623Y-61165D01*
X239460Y-59144D01*
Y-58217D01*
X240516Y-57511D01*
X240996Y-57710D01*
X243184D01*
X245205Y-56873D01*
X246753Y-55325D01*
X247590Y-53304D01*
Y-51116D01*
X246753Y-49095D01*
X245205Y-47547D01*
X243506Y-46843D01*
Y-45537D01*
X245205Y-44833D01*
X246753Y-43285D01*
X247590Y-41264D01*
Y-39076D01*
X246753Y-37055D01*
X245205Y-35507D01*
X243377Y-34750D01*
X243337Y-34502D01*
Y-33728D01*
X243377Y-33480D01*
X245205Y-32723D01*
X246753Y-31175D01*
X247590Y-29154D01*
Y-26966D01*
X246753Y-24945D01*
X245205Y-23397D01*
X243184Y-22560D01*
D02*
G37*
G36*
X347274Y-21560D02*
X345086D01*
X343064Y-22397D01*
X341517Y-23944D01*
X340680Y-25966D01*
Y-28154D01*
X341517Y-30175D01*
X343064Y-31723D01*
X344941Y-32500D01*
X345017Y-33135D01*
X344941Y-33770D01*
X343064Y-34547D01*
X341517Y-36095D01*
X340680Y-38116D01*
Y-40304D01*
X341517Y-42326D01*
X343064Y-43873D01*
X344368Y-44413D01*
Y-45787D01*
X343064Y-46327D01*
X341517Y-47874D01*
X340680Y-49896D01*
Y-52084D01*
X341517Y-54106D01*
X343064Y-55653D01*
X345086Y-56490D01*
X347274D01*
X348797Y-55859D01*
X348980Y-55917D01*
X349962Y-56632D01*
X349970Y-56643D01*
Y-58414D01*
X350807Y-60436D01*
X352355Y-61983D01*
X354376Y-62820D01*
X356564D01*
X358586Y-61983D01*
X360133Y-60436D01*
X360970Y-58414D01*
Y-56226D01*
X360133Y-54205D01*
X358586Y-52657D01*
X357282Y-52117D01*
Y-50743D01*
X358586Y-50203D01*
X360133Y-48656D01*
X360970Y-46634D01*
Y-44446D01*
X360133Y-42425D01*
X358586Y-40877D01*
X356709Y-40100D01*
X356633Y-39465D01*
X356709Y-38830D01*
X358586Y-38053D01*
X360133Y-36505D01*
X360970Y-34484D01*
Y-32296D01*
X360133Y-30275D01*
X358586Y-28727D01*
X356564Y-27890D01*
X354376D01*
X352853Y-28521D01*
X352670Y-28463D01*
X351688Y-27748D01*
X351680Y-27737D01*
Y-25966D01*
X350843Y-23944D01*
X349296Y-22397D01*
X347274Y-21560D01*
D02*
G37*
G36*
X243184Y-78000D02*
X240996D01*
X238974Y-78837D01*
X237427Y-80385D01*
X236590Y-82406D01*
Y-83333D01*
X235534Y-84039D01*
X235054Y-83840D01*
X232866D01*
X230844Y-84677D01*
X229297Y-86224D01*
X228460Y-88246D01*
Y-90434D01*
X229297Y-92456D01*
X230844Y-94003D01*
X232866Y-94840D01*
X235054D01*
X235787Y-94536D01*
X236759Y-95508D01*
X236590Y-95916D01*
Y-96843D01*
X235534Y-97549D01*
X235054Y-97350D01*
X232866D01*
X230844Y-98187D01*
X229297Y-99734D01*
X228460Y-101756D01*
Y-103944D01*
X229297Y-105965D01*
X230844Y-107513D01*
X232866Y-108350D01*
X235054D01*
X235842Y-108024D01*
X236814Y-108996D01*
X236590Y-109536D01*
Y-110463D01*
X235534Y-111169D01*
X235054Y-110970D01*
X232866D01*
X230844Y-111807D01*
X229297Y-113355D01*
X228460Y-115376D01*
Y-117564D01*
X229297Y-119586D01*
X230844Y-121133D01*
X232866Y-121970D01*
X235054D01*
X237076Y-121133D01*
X238623Y-119586D01*
X239460Y-117564D01*
Y-116637D01*
X240516Y-115931D01*
X240996Y-116130D01*
X243184D01*
X245205Y-115293D01*
X246753Y-113745D01*
X247590Y-111724D01*
Y-109536D01*
X246753Y-107514D01*
X245205Y-105967D01*
X243184Y-105130D01*
X240996D01*
X240208Y-105456D01*
X239236Y-104484D01*
X239460Y-103944D01*
Y-103017D01*
X240516Y-102311D01*
X240996Y-102510D01*
X243184D01*
X245205Y-101673D01*
X246753Y-100126D01*
X247590Y-98104D01*
Y-95916D01*
X246753Y-93895D01*
X245205Y-92347D01*
X243184Y-91510D01*
X240996D01*
X240263Y-91813D01*
X239291Y-90842D01*
X239460Y-90434D01*
Y-89507D01*
X240516Y-88801D01*
X240996Y-89000D01*
X243184D01*
X245205Y-88163D01*
X246753Y-86615D01*
X247590Y-84594D01*
Y-82406D01*
X246753Y-80385D01*
X245205Y-78837D01*
X243184Y-78000D01*
D02*
G37*
G36*
X347274Y-78160D02*
X345086D01*
X343064Y-78997D01*
X341517Y-80545D01*
X340680Y-82566D01*
Y-84754D01*
X341517Y-86776D01*
X343064Y-88323D01*
X344893Y-89080D01*
X344933Y-89328D01*
Y-90102D01*
X344893Y-90350D01*
X343064Y-91107D01*
X341517Y-92654D01*
X340680Y-94676D01*
Y-96864D01*
X341517Y-98885D01*
X343064Y-100433D01*
X345086Y-101270D01*
X347274D01*
X348797Y-100639D01*
X348980Y-100697D01*
X349962Y-101412D01*
X349970Y-101423D01*
Y-103194D01*
X350530Y-104546D01*
X349453Y-105265D01*
X349296Y-105107D01*
X347274Y-104270D01*
X345086D01*
X343064Y-105107D01*
X341517Y-106655D01*
X340680Y-108676D01*
Y-110864D01*
X341517Y-112886D01*
X343064Y-114433D01*
X345086Y-115270D01*
X347274D01*
X348797Y-114639D01*
X348980Y-114697D01*
X349962Y-115412D01*
X349970Y-115423D01*
Y-117194D01*
X350807Y-119215D01*
X352355Y-120763D01*
X354376Y-121600D01*
X356564D01*
X358586Y-120763D01*
X360133Y-119215D01*
X360970Y-117194D01*
Y-115006D01*
X360133Y-112985D01*
X358586Y-111437D01*
X356564Y-110600D01*
X354376D01*
X352853Y-111231D01*
X352670Y-111173D01*
X351688Y-110458D01*
X351680Y-110447D01*
Y-108676D01*
X351120Y-107324D01*
X352197Y-106605D01*
X352355Y-106763D01*
X354376Y-107600D01*
X356564D01*
X358586Y-106763D01*
X360133Y-105216D01*
X360970Y-103194D01*
Y-101006D01*
X360133Y-98984D01*
X358586Y-97437D01*
X356757Y-96680D01*
X356717Y-96432D01*
Y-95658D01*
X356757Y-95410D01*
X358586Y-94653D01*
X360133Y-93105D01*
X360970Y-91084D01*
Y-88896D01*
X360133Y-86875D01*
X358586Y-85327D01*
X356564Y-84490D01*
X354376D01*
X352853Y-85121D01*
X352670Y-85063D01*
X351688Y-84348D01*
X351680Y-84337D01*
Y-82566D01*
X350843Y-80545D01*
X349296Y-78997D01*
X347274Y-78160D01*
D02*
G37*
G36*
X-359816Y-162750D02*
X-362004D01*
X-364025Y-163587D01*
X-365573Y-165135D01*
X-366410Y-167156D01*
Y-169344D01*
X-365573Y-171366D01*
X-364025Y-172913D01*
X-362004Y-173750D01*
X-359816D01*
X-357794Y-172913D01*
X-356247Y-171366D01*
X-355410Y-169344D01*
Y-167156D01*
X-356247Y-165135D01*
X-357794Y-163587D01*
X-359816Y-162750D01*
D02*
G37*
G36*
X-225330Y-295452D02*
Y-305340D01*
X-215443D01*
X-216148Y-302708D01*
X-217728Y-299972D01*
X-219962Y-297738D01*
X-222698Y-296158D01*
X-225330Y-295452D01*
D02*
G37*
G36*
X-250730D02*
Y-305340D01*
X-240843D01*
X-241548Y-302708D01*
X-243128Y-299972D01*
X-245362Y-297738D01*
X-248098Y-296158D01*
X-250730Y-295452D01*
D02*
G37*
G36*
X-229330D02*
X-231962Y-296158D01*
X-234698Y-297738D01*
X-236932Y-299972D01*
X-238512Y-302708D01*
X-239217Y-305340D01*
X-229330D01*
Y-295452D01*
D02*
G37*
G36*
X-254730D02*
X-257362Y-296158D01*
X-260098Y-297738D01*
X-262332Y-299972D01*
X-263912Y-302708D01*
X-264617Y-305340D01*
X-254730D01*
Y-295452D01*
D02*
G37*
G36*
X-215443Y-309340D02*
X-225330D01*
Y-319227D01*
X-222698Y-318522D01*
X-219962Y-316942D01*
X-217728Y-314708D01*
X-216148Y-311972D01*
X-215443Y-309340D01*
D02*
G37*
G36*
X-240843D02*
X-250730D01*
Y-319227D01*
X-248098Y-318522D01*
X-245362Y-316942D01*
X-243128Y-314708D01*
X-241548Y-311972D01*
X-240843Y-309340D01*
D02*
G37*
G36*
X-229330D02*
X-239217D01*
X-238512Y-311972D01*
X-236932Y-314708D01*
X-234698Y-316942D01*
X-231962Y-318522D01*
X-229330Y-319227D01*
Y-309340D01*
D02*
G37*
G36*
X-254730D02*
X-264617D01*
X-263912Y-311972D01*
X-262332Y-314708D01*
X-260098Y-316942D01*
X-257362Y-318522D01*
X-254730Y-319227D01*
Y-309340D01*
D02*
G37*
G36*
X263134Y-346700D02*
X260946D01*
X258925Y-347537D01*
X257377Y-349085D01*
X256540Y-351106D01*
Y-353294D01*
X257377Y-355316D01*
X258925Y-356863D01*
X260946Y-357700D01*
X263134D01*
X265156Y-356863D01*
X266703Y-355316D01*
X267540Y-353294D01*
Y-351106D01*
X266703Y-349085D01*
X265156Y-347537D01*
X263134Y-346700D01*
D02*
G37*
G36*
X231814Y-347280D02*
X229626D01*
X227605Y-348117D01*
X226057Y-349664D01*
X225220Y-351686D01*
Y-353874D01*
X226057Y-355896D01*
X227605Y-357443D01*
X229626Y-358280D01*
X231814D01*
X233836Y-357443D01*
X235383Y-355896D01*
X236220Y-353874D01*
Y-351686D01*
X235383Y-349664D01*
X233836Y-348117D01*
X231814Y-347280D01*
D02*
G37*
G36*
X365135Y-441180D02*
X361325D01*
X358447Y-441559D01*
X355765Y-442670D01*
X353462Y-444437D01*
X351695Y-446740D01*
X350584Y-449422D01*
X350205Y-452300D01*
X350584Y-455178D01*
X351695Y-457860D01*
X353462Y-460163D01*
X355765Y-461930D01*
X358447Y-463041D01*
X361325Y-463420D01*
X365135D01*
X368013Y-463041D01*
X370695Y-461930D01*
X372998Y-460163D01*
X374765Y-457860D01*
X375876Y-455178D01*
X376255Y-452300D01*
X375876Y-449422D01*
X374765Y-446740D01*
X372998Y-444437D01*
X370695Y-442670D01*
X368013Y-441559D01*
X365135Y-441180D01*
D02*
G37*
G36*
X-225816Y-448240D02*
X-228844D01*
X-231769Y-449024D01*
X-234391Y-450538D01*
X-236532Y-452679D01*
X-238046Y-455301D01*
X-238830Y-458226D01*
Y-461254D01*
X-238046Y-464179D01*
X-236532Y-466801D01*
X-234391Y-468942D01*
X-231769Y-470456D01*
X-228844Y-471240D01*
X-225816D01*
X-222891Y-470456D01*
X-220269Y-468942D01*
X-218128Y-466801D01*
X-216614Y-464179D01*
X-215830Y-461254D01*
Y-458226D01*
X-216614Y-455301D01*
X-218128Y-452679D01*
X-220269Y-450538D01*
X-222891Y-449024D01*
X-225816Y-448240D01*
D02*
G37*
G36*
X-251216D02*
X-254244D01*
X-257169Y-449024D01*
X-259791Y-450538D01*
X-261932Y-452679D01*
X-263446Y-455301D01*
X-264230Y-458226D01*
Y-461254D01*
X-263446Y-464179D01*
X-261932Y-466801D01*
X-259791Y-468942D01*
X-257169Y-470456D01*
X-254244Y-471240D01*
X-251216D01*
X-248291Y-470456D01*
X-245669Y-468942D01*
X-243528Y-466801D01*
X-242014Y-464179D01*
X-241230Y-461254D01*
Y-458226D01*
X-242014Y-455301D01*
X-243528Y-452679D01*
X-245669Y-450538D01*
X-248291Y-449024D01*
X-251216Y-448240D01*
D02*
G37*
G36*
X-81386Y-469450D02*
X-83574D01*
X-85596Y-470287D01*
X-86445Y-471137D01*
X-87275Y-471739D01*
X-88105Y-471137D01*
X-88954Y-470287D01*
X-90976Y-469450D01*
X-93164D01*
X-95185Y-470287D01*
X-96733Y-471834D01*
X-97570Y-473856D01*
Y-476044D01*
X-96733Y-478065D01*
X-95185Y-479613D01*
X-93164Y-480450D01*
X-90976D01*
X-88954Y-479613D01*
X-88105Y-478763D01*
X-87275Y-478162D01*
X-86445Y-478763D01*
X-85596Y-479613D01*
X-83574Y-480450D01*
X-81386D01*
X-79365Y-479613D01*
X-77817Y-478065D01*
X-76980Y-476044D01*
Y-473856D01*
X-77817Y-471834D01*
X-79365Y-470287D01*
X-81386Y-469450D01*
D02*
G37*
G36*
X-145416Y-467650D02*
X-147604D01*
X-149626Y-468487D01*
X-151173Y-470034D01*
X-152010Y-472056D01*
Y-474244D01*
X-151173Y-476265D01*
X-149626Y-477813D01*
X-147604Y-478650D01*
X-145416D01*
X-143394Y-477813D01*
X-141847Y-476265D01*
X-141010Y-474244D01*
Y-472056D01*
X-141847Y-470034D01*
X-143394Y-468487D01*
X-145416Y-467650D01*
D02*
G37*
G36*
X376160Y-466675D02*
X350300D01*
Y-488725D01*
X376160D01*
Y-466675D01*
D02*
G37*
G36*
X27397Y582103D02*
Y574700D01*
X34799D01*
X34342Y576406D01*
X33078Y578595D01*
X31291Y580382D01*
X29102Y581646D01*
X27397Y582103D01*
D02*
G37*
G36*
X23397D02*
X21691Y581646D01*
X19502Y580382D01*
X17715Y578595D01*
X16451Y576406D01*
X15994Y574700D01*
X23397D01*
Y582103D01*
D02*
G37*
G36*
X1997D02*
Y574700D01*
X9399D01*
X8942Y576406D01*
X7678Y578595D01*
X5891Y580382D01*
X3702Y581646D01*
X1997Y582103D01*
D02*
G37*
G36*
X-2003D02*
X-3709Y581646D01*
X-5898Y580382D01*
X-7685Y578595D01*
X-8949Y576406D01*
X-9406Y574700D01*
X-2003D01*
Y582103D01*
D02*
G37*
G36*
X-15803Y582300D02*
X-23403D01*
Y574700D01*
X-15803D01*
Y582300D01*
D02*
G37*
G36*
X-27403D02*
X-35003D01*
Y574700D01*
X-27403D01*
Y582300D01*
D02*
G37*
G36*
X34799Y570700D02*
X27397D01*
Y563297D01*
X29102Y563754D01*
X31291Y565018D01*
X33078Y566806D01*
X34342Y568995D01*
X34799Y570700D01*
D02*
G37*
G36*
X23397D02*
X15994D01*
X16451Y568995D01*
X17715Y566806D01*
X19502Y565018D01*
X21691Y563754D01*
X23397Y563297D01*
Y570700D01*
D02*
G37*
G36*
X9399D02*
X1997D01*
Y563297D01*
X3702Y563754D01*
X5891Y565018D01*
X7678Y566806D01*
X8942Y568995D01*
X9399Y570700D01*
D02*
G37*
G36*
X-2003D02*
X-9406D01*
X-8949Y568995D01*
X-7685Y566806D01*
X-5898Y565018D01*
X-3709Y563754D01*
X-2003Y563297D01*
Y570700D01*
D02*
G37*
G36*
X-15803D02*
X-23403D01*
Y563100D01*
X-15803D01*
Y570700D01*
D02*
G37*
G36*
X-27403D02*
X-35003D01*
Y563100D01*
X-27403D01*
Y570700D01*
D02*
G37*
G36*
X313594Y279280D02*
X311406D01*
X309384Y278443D01*
X307837Y276896D01*
X307000Y274874D01*
Y272686D01*
X307837Y270665D01*
X309384Y269117D01*
X311406Y268280D01*
X313594D01*
X315616Y269117D01*
X317163Y270665D01*
X318000Y272686D01*
Y274874D01*
X317163Y276896D01*
X315616Y278443D01*
X313594Y279280D01*
D02*
G37*
G36*
X-9896Y264320D02*
X-12084D01*
X-14105Y263483D01*
X-15653Y261936D01*
X-16490Y259914D01*
Y257726D01*
X-15653Y255704D01*
X-14105Y254157D01*
X-12084Y253320D01*
X-9896D01*
X-7875Y254157D01*
X-6327Y255704D01*
X-5490Y257726D01*
Y259914D01*
X-6327Y261936D01*
X-7875Y263483D01*
X-9896Y264320D01*
D02*
G37*
G36*
X-82616Y263810D02*
X-84804D01*
X-86826Y262973D01*
X-88373Y261425D01*
X-89210Y259404D01*
Y257216D01*
X-88373Y255194D01*
X-86826Y253647D01*
X-84804Y252810D01*
X-82616D01*
X-80595Y253647D01*
X-79047Y255194D01*
X-78210Y257216D01*
Y259404D01*
X-79047Y261425D01*
X-80595Y262973D01*
X-82616Y263810D01*
D02*
G37*
G36*
X109114Y234830D02*
X106926D01*
X104904Y233993D01*
X103357Y232446D01*
X102520Y230424D01*
Y228236D01*
X103357Y226215D01*
X104904Y224667D01*
X106926Y223830D01*
X109114D01*
X111136Y224667D01*
X112683Y226215D01*
X113520Y228236D01*
Y230424D01*
X112683Y232446D01*
X111136Y233993D01*
X109114Y234830D01*
D02*
G37*
G36*
X323904Y229890D02*
X321716D01*
X319694Y229053D01*
X318147Y227505D01*
X317310Y225484D01*
Y223296D01*
X318147Y221275D01*
X319694Y219727D01*
X321716Y218890D01*
X323904D01*
X325925Y219727D01*
X327473Y221275D01*
X328310Y223296D01*
Y225484D01*
X327473Y227505D01*
X325925Y229053D01*
X323904Y229890D01*
D02*
G37*
G36*
X-9724Y201470D02*
X-11912D01*
X-13933Y200633D01*
X-15481Y199086D01*
X-16318Y197064D01*
Y194876D01*
X-15481Y192855D01*
X-13933Y191308D01*
X-11912Y190470D01*
X-9724D01*
X-7702Y191308D01*
X-6155Y192855D01*
X-5318Y194876D01*
Y197064D01*
X-6155Y199086D01*
X-7702Y200633D01*
X-9724Y201470D01*
D02*
G37*
G36*
X-81396Y178820D02*
X-83584D01*
X-85605Y177983D01*
X-87153Y176436D01*
X-87990Y174414D01*
Y172226D01*
X-87153Y170205D01*
X-85605Y168657D01*
X-83584Y167820D01*
X-81396D01*
X-79374Y168657D01*
X-77827Y170205D01*
X-76990Y172226D01*
Y174414D01*
X-77827Y176436D01*
X-79374Y177983D01*
X-81396Y178820D01*
D02*
G37*
G36*
X108304Y172440D02*
X106116D01*
X104094Y171603D01*
X102547Y170056D01*
X101710Y168034D01*
Y165846D01*
X102547Y163825D01*
X104094Y162277D01*
X106116Y161440D01*
X108304D01*
X110325Y162277D01*
X111873Y163825D01*
X112710Y165846D01*
Y168034D01*
X111873Y170056D01*
X110325Y171603D01*
X108304Y172440D01*
D02*
G37*
G36*
X165284Y159900D02*
X163096D01*
X161075Y159063D01*
X159527Y157515D01*
X158690Y155494D01*
Y153306D01*
X159527Y151285D01*
X161075Y149737D01*
X163096Y148900D01*
X165284D01*
X167306Y149737D01*
X168853Y151285D01*
X169690Y153306D01*
Y155494D01*
X168853Y157515D01*
X167306Y159063D01*
X165284Y159900D01*
D02*
G37*
G36*
X93520Y96440D02*
X75520D01*
Y78440D01*
X93520D01*
Y96440D01*
D02*
G37*
G36*
X65705D02*
X63335D01*
X61046Y95827D01*
X58994Y94642D01*
X57318Y92966D01*
X56133Y90914D01*
X55520Y88625D01*
Y86255D01*
X56133Y83966D01*
X57318Y81914D01*
X58994Y80238D01*
X61046Y79053D01*
X63335Y78440D01*
X65705D01*
X67994Y79053D01*
X70046Y80238D01*
X71722Y81914D01*
X72907Y83966D01*
X73520Y86255D01*
Y88625D01*
X72907Y90914D01*
X71722Y92966D01*
X70046Y94642D01*
X67994Y95827D01*
X65705Y96440D01*
D02*
G37*
G36*
X45705D02*
X43335D01*
X41046Y95827D01*
X38994Y94642D01*
X37318Y92966D01*
X36133Y90914D01*
X35520Y88625D01*
Y86255D01*
X36133Y83966D01*
X37318Y81914D01*
X38994Y80238D01*
X41046Y79053D01*
X43335Y78440D01*
X45705D01*
X47994Y79053D01*
X50046Y80238D01*
X51722Y81914D01*
X52907Y83966D01*
X53520Y86255D01*
Y88625D01*
X52907Y90914D01*
X51722Y92966D01*
X50046Y94642D01*
X47994Y95827D01*
X45705Y96440D01*
D02*
G37*
G36*
X25705D02*
X23335D01*
X21046Y95827D01*
X18994Y94642D01*
X17318Y92966D01*
X16133Y90914D01*
X15520Y88625D01*
Y86255D01*
X16133Y83966D01*
X17318Y81914D01*
X18994Y80238D01*
X21046Y79053D01*
X23335Y78440D01*
X25705D01*
X27994Y79053D01*
X30046Y80238D01*
X31722Y81914D01*
X32907Y83966D01*
X33520Y86255D01*
Y88625D01*
X32907Y90914D01*
X31722Y92966D01*
X30046Y94642D01*
X27994Y95827D01*
X25705Y96440D01*
D02*
G37*
G36*
X5705D02*
X3335D01*
X1046Y95827D01*
X-1006Y94642D01*
X-2682Y92966D01*
X-3867Y90914D01*
X-4480Y88625D01*
Y86255D01*
X-3867Y83966D01*
X-2682Y81914D01*
X-1006Y80238D01*
X1046Y79053D01*
X3335Y78440D01*
X5705D01*
X7994Y79053D01*
X10046Y80238D01*
X11722Y81914D01*
X12907Y83966D01*
X13520Y86255D01*
Y88625D01*
X12907Y90914D01*
X11722Y92966D01*
X10046Y94642D01*
X7994Y95827D01*
X5705Y96440D01*
D02*
G37*
G36*
X-14295D02*
X-16665D01*
X-18954Y95827D01*
X-21006Y94642D01*
X-22682Y92966D01*
X-23867Y90914D01*
X-24480Y88625D01*
Y86255D01*
X-23867Y83966D01*
X-22682Y81914D01*
X-21006Y80238D01*
X-18954Y79053D01*
X-16665Y78440D01*
X-14295D01*
X-12006Y79053D01*
X-9954Y80238D01*
X-8278Y81914D01*
X-7093Y83966D01*
X-6480Y86255D01*
Y88625D01*
X-7093Y90914D01*
X-8278Y92966D01*
X-9954Y94642D01*
X-12006Y95827D01*
X-14295Y96440D01*
D02*
G37*
G36*
X-34295D02*
X-36664D01*
X-38953Y95827D01*
X-41006Y94642D01*
X-42681Y92966D01*
X-43866Y90914D01*
X-44480Y88625D01*
Y86255D01*
X-43866Y83966D01*
X-42681Y81914D01*
X-41006Y80238D01*
X-38953Y79053D01*
X-36664Y78440D01*
X-34295D01*
X-32006Y79053D01*
X-29953Y80238D01*
X-28278Y81914D01*
X-27093Y83966D01*
X-26480Y86255D01*
Y88625D01*
X-27093Y90914D01*
X-28278Y92966D01*
X-29953Y94642D01*
X-32006Y95827D01*
X-34295Y96440D01*
D02*
G37*
G36*
X-54295D02*
X-56664D01*
X-58953Y95827D01*
X-61006Y94642D01*
X-62681Y92966D01*
X-63866Y90914D01*
X-64479Y88625D01*
Y86255D01*
X-63866Y83966D01*
X-62681Y81914D01*
X-61006Y80238D01*
X-58953Y79053D01*
X-56664Y78440D01*
X-54295D01*
X-52006Y79053D01*
X-49953Y80238D01*
X-48278Y81914D01*
X-47093Y83966D01*
X-46480Y86255D01*
Y88625D01*
X-47093Y90914D01*
X-48278Y92966D01*
X-49953Y94642D01*
X-52006Y95827D01*
X-54295Y96440D01*
D02*
G37*
G36*
X-74295D02*
X-76664D01*
X-78953Y95827D01*
X-81006Y94642D01*
X-82681Y92966D01*
X-83866Y90914D01*
X-84480Y88625D01*
Y86255D01*
X-83866Y83966D01*
X-82681Y81914D01*
X-81006Y80238D01*
X-78953Y79053D01*
X-76664Y78440D01*
X-74295D01*
X-72006Y79053D01*
X-69953Y80238D01*
X-68278Y81914D01*
X-67093Y83966D01*
X-66480Y86255D01*
Y88625D01*
X-67093Y90914D01*
X-68278Y92966D01*
X-69953Y94642D01*
X-72006Y95827D01*
X-74295Y96440D01*
D02*
G37*
G36*
X145984Y58402D02*
X143796D01*
X141775Y57565D01*
X140228Y56018D01*
X139390Y53996D01*
Y52251D01*
X138984Y51980D01*
X136796D01*
X134775Y51142D01*
X133228Y49595D01*
X132605Y48092D01*
X132390Y47574D01*
X131120Y47437D01*
X130364Y47750D01*
X128176D01*
X126154Y46913D01*
X124607Y45366D01*
X123770Y43344D01*
Y41156D01*
X124607Y39135D01*
X126154Y37587D01*
X128176Y36750D01*
X130364D01*
X132386Y37587D01*
X133933Y39135D01*
X134555Y40638D01*
X134770Y41156D01*
X136040Y41293D01*
X136796Y40980D01*
X138984D01*
X141006Y41817D01*
X142553Y43364D01*
X143390Y45386D01*
Y47131D01*
X143796Y47402D01*
X145984D01*
X148006Y48240D01*
X149553Y49787D01*
X150390Y51808D01*
Y53996D01*
X149553Y56018D01*
X148006Y57565D01*
X145984Y58402D01*
D02*
G37*
G36*
X116364Y55390D02*
X114176D01*
X112155Y54553D01*
X110607Y53005D01*
X109770Y50984D01*
Y48796D01*
X110607Y46775D01*
X112155Y45227D01*
X114176Y44390D01*
X116364D01*
X118385Y45227D01*
X119933Y46775D01*
X120770Y48796D01*
Y50984D01*
X119933Y53005D01*
X118385Y54553D01*
X116364Y55390D01*
D02*
G37*
G36*
X51991Y56090D02*
X49595D01*
X47281Y55470D01*
X45206Y54272D01*
X43512Y52578D01*
X42314Y50503D01*
X41693Y48188D01*
Y45792D01*
X42314Y43478D01*
X43512Y41403D01*
X45206Y39708D01*
X47281Y38510D01*
X49595Y37890D01*
X51991D01*
X54306Y38510D01*
X56381Y39708D01*
X58075Y41403D01*
X59273Y43478D01*
X59893Y45792D01*
Y48188D01*
X59273Y50503D01*
X58075Y52578D01*
X56381Y54272D01*
X54306Y55470D01*
X51991Y56090D01*
D02*
G37*
G36*
X26591D02*
X24195D01*
X21881Y55470D01*
X19806Y54272D01*
X18112Y52578D01*
X16914Y50503D01*
X16293Y48188D01*
Y45792D01*
X16914Y43478D01*
X18112Y41403D01*
X19806Y39708D01*
X21881Y38510D01*
X24195Y37890D01*
X26591D01*
X28906Y38510D01*
X30981Y39708D01*
X32675Y41403D01*
X33873Y43478D01*
X34493Y45792D01*
Y48188D01*
X33873Y50503D01*
X32675Y52578D01*
X30981Y54272D01*
X28906Y55470D01*
X26591Y56090D01*
D02*
G37*
G36*
X-24209D02*
X-26605D01*
X-28919Y55470D01*
X-30994Y54272D01*
X-32688Y52578D01*
X-33886Y50503D01*
X-34507Y48188D01*
Y45792D01*
X-33886Y43478D01*
X-32688Y41403D01*
X-30994Y39708D01*
X-28919Y38510D01*
X-26605Y37890D01*
X-24209D01*
X-21894Y38510D01*
X-19819Y39708D01*
X-18125Y41403D01*
X-16927Y43478D01*
X-16307Y45792D01*
Y48188D01*
X-16927Y50503D01*
X-18125Y52578D01*
X-19819Y54272D01*
X-21894Y55470D01*
X-24209Y56090D01*
D02*
G37*
G36*
X-49609D02*
X-52005D01*
X-54319Y55470D01*
X-56394Y54272D01*
X-58088Y52578D01*
X-59286Y50503D01*
X-59907Y48188D01*
Y45792D01*
X-59286Y43478D01*
X-58088Y41403D01*
X-56394Y39708D01*
X-54319Y38510D01*
X-52005Y37890D01*
X-49609D01*
X-47294Y38510D01*
X-45219Y39708D01*
X-43525Y41403D01*
X-42327Y43478D01*
X-41707Y45792D01*
Y48188D01*
X-42327Y50503D01*
X-43525Y52578D01*
X-45219Y54272D01*
X-47294Y55470D01*
X-49609Y56090D01*
D02*
G37*
G36*
X-92339Y52473D02*
X-94527D01*
X-96549Y51635D01*
X-98096Y50088D01*
X-98933Y48067D01*
Y45879D01*
X-98096Y43857D01*
X-97309Y43070D01*
X-96638Y42205D01*
X-97309Y41411D01*
X-98131Y40588D01*
X-98968Y38567D01*
Y36379D01*
X-98131Y34357D01*
X-96584Y32810D01*
X-94562Y31973D01*
X-92374D01*
X-90353Y32810D01*
X-88806Y34357D01*
X-87968Y36379D01*
Y38567D01*
X-88806Y40588D01*
X-89593Y41376D01*
X-90264Y42241D01*
X-89593Y43035D01*
X-88771Y43857D01*
X-87933Y45879D01*
Y48067D01*
X-88771Y50088D01*
X-90318Y51635D01*
X-92339Y52473D01*
D02*
G37*
G36*
X114544Y41785D02*
X112356D01*
X110335Y40948D01*
X108787Y39401D01*
X107950Y37380D01*
Y35192D01*
X108787Y33170D01*
X110335Y31623D01*
X112356Y30786D01*
X114544D01*
X116566Y31623D01*
X118113Y33170D01*
X118950Y35192D01*
Y37380D01*
X118113Y39401D01*
X116566Y40948D01*
X114544Y41785D01*
D02*
G37*
G36*
X-107686Y36868D02*
X-109874D01*
X-111896Y36031D01*
X-113443Y34484D01*
X-114280Y32462D01*
Y30274D01*
X-113443Y28253D01*
X-111896Y26706D01*
X-109874Y25868D01*
X-108523D01*
X-107686Y25868D01*
X-107350Y24695D01*
Y23776D01*
X-106513Y21755D01*
X-104965Y20207D01*
X-102944Y19370D01*
X-100756D01*
X-98735Y20207D01*
X-97187Y21755D01*
X-96350Y23776D01*
Y25964D01*
X-97187Y27985D01*
X-98735Y29533D01*
X-100756Y30370D01*
X-102107D01*
X-102944Y30370D01*
X-103280Y31543D01*
Y32462D01*
X-104117Y34484D01*
X-105665Y36031D01*
X-107686Y36868D01*
D02*
G37*
G36*
X26591Y30690D02*
X24195D01*
X21881Y30070D01*
X19806Y28872D01*
X18112Y27178D01*
X16914Y25103D01*
X16293Y22788D01*
Y20392D01*
X16914Y18078D01*
X17137Y17690D01*
X16242Y16702D01*
X14604Y17380D01*
X12416D01*
X10395Y16543D01*
X8847Y14995D01*
X8010Y12974D01*
Y10786D01*
X8847Y8765D01*
X10395Y7217D01*
X12416Y6380D01*
X14604D01*
X16625Y7217D01*
X18173Y8765D01*
X19010Y10786D01*
Y12974D01*
X18774Y13544D01*
X19741Y14260D01*
X19840Y14289D01*
X21881Y13110D01*
X24195Y12490D01*
X26591D01*
X28906Y13110D01*
X30981Y14308D01*
X32675Y16003D01*
X33873Y18078D01*
X34493Y20392D01*
Y22788D01*
X33873Y25103D01*
X32675Y27178D01*
X30981Y28872D01*
X28906Y30070D01*
X26591Y30690D01*
D02*
G37*
G36*
X59893D02*
X41693D01*
Y12490D01*
X59893D01*
Y30690D01*
D02*
G37*
G36*
X1191D02*
X-1205D01*
X-3519Y30070D01*
X-5594Y28872D01*
X-7288Y27178D01*
X-8486Y25103D01*
X-9107Y22788D01*
Y20392D01*
X-8486Y18078D01*
X-7288Y16003D01*
X-5594Y14308D01*
X-3519Y13110D01*
X-1205Y12490D01*
X1191D01*
X3506Y13110D01*
X5581Y14308D01*
X7275Y16003D01*
X8473Y18078D01*
X9093Y20392D01*
Y22788D01*
X8473Y25103D01*
X7275Y27178D01*
X5581Y28872D01*
X3506Y30070D01*
X1191Y30690D01*
D02*
G37*
G36*
X-24209D02*
X-26605D01*
X-28919Y30070D01*
X-30994Y28872D01*
X-32688Y27178D01*
X-33886Y25103D01*
X-34507Y22788D01*
Y20392D01*
X-33886Y18078D01*
X-32688Y16003D01*
X-30994Y14308D01*
X-28919Y13110D01*
X-26605Y12490D01*
X-24209D01*
X-21894Y13110D01*
X-19819Y14308D01*
X-18125Y16003D01*
X-16927Y18078D01*
X-16307Y20392D01*
Y22788D01*
X-16927Y25103D01*
X-18125Y27178D01*
X-19819Y28872D01*
X-21894Y30070D01*
X-24209Y30690D01*
D02*
G37*
G36*
X-49609D02*
X-52005D01*
X-54319Y30070D01*
X-56394Y28872D01*
X-58088Y27178D01*
X-59286Y25103D01*
X-59907Y22788D01*
Y20392D01*
X-59286Y18078D01*
X-58088Y16003D01*
X-56394Y14308D01*
X-54319Y13110D01*
X-52005Y12490D01*
X-49609D01*
X-47294Y13110D01*
X-45219Y14308D01*
X-43525Y16003D01*
X-42327Y18078D01*
X-41707Y20392D01*
Y22788D01*
X-42327Y25103D01*
X-43525Y27178D01*
X-45219Y28872D01*
X-47294Y30070D01*
X-49609Y30690D01*
D02*
G37*
G36*
X71844Y27470D02*
X69656D01*
X67635Y26633D01*
X66087Y25085D01*
X65250Y23064D01*
Y20876D01*
X66087Y18855D01*
X67635Y17307D01*
X69457Y16553D01*
X69619Y15841D01*
X69583Y15230D01*
X68263Y14684D01*
X66716Y13136D01*
X65878Y11115D01*
Y8927D01*
X66716Y6905D01*
X68263Y5358D01*
X70284Y4521D01*
X72472D01*
X74494Y5358D01*
X76041Y6905D01*
X76878Y8927D01*
Y11115D01*
X76041Y13136D01*
X74494Y14684D01*
X72672Y15438D01*
X72509Y16149D01*
X72545Y16761D01*
X73865Y17307D01*
X75413Y18855D01*
X76250Y20876D01*
Y23064D01*
X75413Y25085D01*
X73865Y26633D01*
X71844Y27470D01*
D02*
G37*
G36*
X-161095Y19220D02*
X-164905D01*
X-167783Y18841D01*
X-170465Y17730D01*
X-172768Y15963D01*
X-174535Y13660D01*
X-175646Y10978D01*
X-176025Y8100D01*
X-175646Y5222D01*
X-174535Y2540D01*
X-172768Y237D01*
X-170465Y-1530D01*
X-167783Y-2641D01*
X-164905Y-3020D01*
X-161095D01*
X-158217Y-2641D01*
X-155535Y-1530D01*
X-153232Y237D01*
X-151465Y2540D01*
X-150354Y5222D01*
X-149975Y8100D01*
X-150354Y10978D01*
X-151465Y13660D01*
X-153232Y15963D01*
X-155535Y17730D01*
X-158217Y18841D01*
X-161095Y19220D01*
D02*
G37*
G36*
X-23976Y7860D02*
X-26164D01*
X-28186Y7023D01*
X-29733Y5476D01*
X-30570Y3454D01*
Y1266D01*
X-29733Y-755D01*
X-28186Y-2303D01*
X-26164Y-3140D01*
X-23976D01*
X-21955Y-2303D01*
X-20407Y-755D01*
X-19570Y1266D01*
Y3454D01*
X-20407Y5476D01*
X-21955Y7023D01*
X-23976Y7860D01*
D02*
G37*
G36*
X67344Y985D02*
X65156D01*
X63134Y148D01*
X61587Y-1400D01*
X60750Y-3421D01*
Y-5609D01*
X61587Y-7631D01*
X63134Y-9178D01*
X65156Y-10015D01*
X67344D01*
X69366Y-9178D01*
X70913Y-7631D01*
X71750Y-5609D01*
Y-3421D01*
X70913Y-1400D01*
X69366Y148D01*
X67344Y985D01*
D02*
G37*
G36*
X71554Y-15440D02*
X69366D01*
X67344Y-16277D01*
X65797Y-17824D01*
X64960Y-19846D01*
Y-22034D01*
X65797Y-24056D01*
X67111Y-25369D01*
X67072Y-26760D01*
X66884Y-26837D01*
X65337Y-28384D01*
X64500Y-30406D01*
Y-32594D01*
X65337Y-34615D01*
X66884Y-36163D01*
X68906Y-37000D01*
X71094D01*
X73116Y-36163D01*
X74663Y-34615D01*
X75500Y-32594D01*
Y-30406D01*
X74663Y-28384D01*
X73349Y-27071D01*
X73388Y-25680D01*
X73576Y-25603D01*
X75123Y-24056D01*
X75960Y-22034D01*
Y-19846D01*
X75123Y-17824D01*
X73576Y-16277D01*
X71554Y-15440D01*
D02*
G37*
G36*
X3944Y-29130D02*
X1756D01*
X-266Y-29967D01*
X-1813Y-31514D01*
X-2650Y-33536D01*
Y-35724D01*
X-1813Y-37745D01*
X-266Y-39293D01*
X1756Y-40130D01*
X3944D01*
X5965Y-39293D01*
X7513Y-37745D01*
X8350Y-35724D01*
Y-33536D01*
X7513Y-31514D01*
X5965Y-29967D01*
X3944Y-29130D01*
D02*
G37*
G36*
X37174Y-32670D02*
X34986D01*
X32964Y-33507D01*
X31417Y-35055D01*
X30580Y-37076D01*
Y-39264D01*
X31417Y-41286D01*
X32964Y-42833D01*
X34986Y-43670D01*
X37174D01*
X39195Y-42833D01*
X40743Y-41286D01*
X41580Y-39264D01*
Y-37076D01*
X40743Y-35055D01*
X39195Y-33507D01*
X37174Y-32670D01*
D02*
G37*
G36*
X-128046Y-35245D02*
X-130234D01*
X-132255Y-36082D01*
X-133803Y-37629D01*
X-134640Y-39651D01*
Y-41839D01*
X-133803Y-43861D01*
X-132255Y-45408D01*
X-130234Y-46245D01*
X-128046D01*
X-126025Y-45408D01*
X-124477Y-43861D01*
X-123640Y-41839D01*
Y-39651D01*
X-124477Y-37629D01*
X-126025Y-36082D01*
X-128046Y-35245D01*
D02*
G37*
G36*
X-113756Y-36170D02*
X-115944D01*
X-117965Y-37007D01*
X-119513Y-38554D01*
X-120350Y-40576D01*
Y-42764D01*
X-119513Y-44785D01*
X-117965Y-46333D01*
X-115944Y-47170D01*
X-113756D01*
X-111735Y-46333D01*
X-110187Y-44785D01*
X-109350Y-42764D01*
Y-40576D01*
X-110187Y-38554D01*
X-111735Y-37007D01*
X-113756Y-36170D01*
D02*
G37*
G36*
X-150070Y-31675D02*
X-175930D01*
Y-53725D01*
X-150070D01*
Y-31675D01*
D02*
G37*
G36*
X-42346Y-43780D02*
X-44534D01*
X-46556Y-44617D01*
X-48103Y-46164D01*
X-48940Y-48186D01*
Y-50374D01*
X-48103Y-52396D01*
X-46556Y-53943D01*
X-44534Y-54780D01*
X-42346D01*
X-40325Y-53943D01*
X-38777Y-52396D01*
X-37940Y-50374D01*
Y-48186D01*
X-38777Y-46164D01*
X-40325Y-44617D01*
X-42346Y-43780D01*
D02*
G37*
G36*
X-63316Y-44550D02*
X-65504D01*
X-67526Y-45387D01*
X-69073Y-46934D01*
X-69910Y-48956D01*
Y-51144D01*
X-69073Y-53165D01*
X-67526Y-54713D01*
X-65504Y-55550D01*
X-63316D01*
X-61294Y-54713D01*
X-59747Y-53165D01*
X-58910Y-51144D01*
Y-48956D01*
X-59747Y-46934D01*
X-61294Y-45387D01*
X-63316Y-44550D01*
D02*
G37*
G36*
X-120506Y-54620D02*
X-122694D01*
X-124715Y-55457D01*
X-126263Y-57004D01*
X-127100Y-59026D01*
Y-61214D01*
X-126263Y-63236D01*
X-124715Y-64783D01*
X-122694Y-65620D01*
X-120506D01*
X-118484Y-64783D01*
X-116937Y-63236D01*
X-116100Y-61214D01*
Y-59026D01*
X-116937Y-57004D01*
X-118484Y-55457D01*
X-120506Y-54620D01*
D02*
G37*
G36*
X-104666Y-81310D02*
X-106854D01*
X-108876Y-82147D01*
X-110423Y-83694D01*
X-111260Y-85716D01*
Y-87904D01*
X-110423Y-89925D01*
X-108876Y-91473D01*
X-106854Y-92310D01*
X-104666D01*
X-102645Y-91473D01*
X-101097Y-89925D01*
X-100260Y-87904D01*
Y-85716D01*
X-101097Y-83694D01*
X-102645Y-82147D01*
X-104666Y-81310D01*
D02*
G37*
G36*
X-161095Y-89780D02*
X-164905D01*
X-167783Y-90159D01*
X-170465Y-91270D01*
X-172768Y-93037D01*
X-174535Y-95340D01*
X-175646Y-98022D01*
X-176025Y-100900D01*
X-175646Y-103778D01*
X-174535Y-106460D01*
X-172768Y-108763D01*
X-170465Y-110530D01*
X-167783Y-111641D01*
X-164905Y-112020D01*
X-161095D01*
X-158217Y-111641D01*
X-155535Y-110530D01*
X-153232Y-108763D01*
X-151465Y-106460D01*
X-150354Y-103778D01*
X-149975Y-100900D01*
X-150354Y-98022D01*
X-151465Y-95340D01*
X-153232Y-93037D01*
X-155535Y-91270D01*
X-158217Y-90159D01*
X-161095Y-89780D01*
D02*
G37*
G36*
X-31706Y-101300D02*
X-33894D01*
X-35916Y-102137D01*
X-37463Y-103685D01*
X-38300Y-105706D01*
Y-107894D01*
X-37463Y-109916D01*
X-35916Y-111463D01*
X-33894Y-112300D01*
X-31706D01*
X-29685Y-111463D01*
X-28137Y-109916D01*
X-27300Y-107894D01*
Y-105706D01*
X-28137Y-103685D01*
X-29685Y-102137D01*
X-31706Y-101300D01*
D02*
G37*
G36*
X-104666Y-113872D02*
X-106854D01*
X-108876Y-114709D01*
X-110423Y-116256D01*
X-111260Y-118278D01*
Y-120466D01*
X-110423Y-122487D01*
X-108876Y-124034D01*
X-106854Y-124872D01*
X-104666D01*
X-102645Y-124034D01*
X-101097Y-122487D01*
X-100260Y-120466D01*
Y-118278D01*
X-101097Y-116256D01*
X-102645Y-114709D01*
X-104666Y-113872D01*
D02*
G37*
G36*
X85814Y-109050D02*
X83626D01*
X81604Y-109887D01*
X80057Y-111434D01*
X79220Y-113456D01*
Y-115644D01*
X80057Y-117666D01*
X81351Y-118960D01*
X81553Y-119563D01*
X81414Y-120508D01*
X80207Y-121714D01*
X79370Y-123736D01*
Y-125924D01*
X80207Y-127945D01*
X81755Y-129493D01*
X83776Y-130330D01*
X85964D01*
X87985Y-129493D01*
X89533Y-127945D01*
X90370Y-125924D01*
Y-123736D01*
X89533Y-121714D01*
X88238Y-120420D01*
X88037Y-119817D01*
X88176Y-118872D01*
X89383Y-117666D01*
X90220Y-115644D01*
Y-113456D01*
X89383Y-111434D01*
X87836Y-109887D01*
X85814Y-109050D01*
D02*
G37*
G36*
X23119Y-124845D02*
X20931D01*
X18910Y-125683D01*
X17363Y-127230D01*
X16525Y-129251D01*
Y-131439D01*
X17363Y-133461D01*
X18910Y-135008D01*
X20931Y-135845D01*
X23119D01*
X25141Y-135008D01*
X26688Y-133461D01*
X27525Y-131439D01*
Y-129251D01*
X26688Y-127230D01*
X25141Y-125683D01*
X23119Y-124845D01*
D02*
G37*
G36*
X-161095Y-115180D02*
X-164905D01*
X-167783Y-115559D01*
X-170465Y-116670D01*
X-172768Y-118437D01*
X-174535Y-120740D01*
X-175646Y-123422D01*
X-176025Y-126300D01*
X-175646Y-129178D01*
X-174535Y-131860D01*
X-172768Y-134163D01*
X-170465Y-135930D01*
X-167783Y-137041D01*
X-164905Y-137420D01*
X-161095D01*
X-158217Y-137041D01*
X-155535Y-135930D01*
X-153232Y-134163D01*
X-151465Y-131860D01*
X-150354Y-129178D01*
X-149975Y-126300D01*
X-150354Y-123422D01*
X-151465Y-120740D01*
X-153232Y-118437D01*
X-155535Y-116670D01*
X-158217Y-115559D01*
X-161095Y-115180D01*
D02*
G37*
G36*
X-6876Y-127910D02*
X-9064D01*
X-11085Y-128747D01*
X-12633Y-130295D01*
X-13470Y-132316D01*
Y-134504D01*
X-12633Y-136525D01*
X-11085Y-138073D01*
X-9064Y-138910D01*
X-6876D01*
X-4854Y-138073D01*
X-3307Y-136525D01*
X-2470Y-134504D01*
Y-132316D01*
X-3307Y-130295D01*
X-4854Y-128747D01*
X-6876Y-127910D01*
D02*
G37*
G36*
X7864Y-130660D02*
X5676D01*
X3654Y-131497D01*
X2107Y-133045D01*
X1270Y-135066D01*
Y-137254D01*
X2107Y-139276D01*
X3654Y-140823D01*
X5676Y-141660D01*
X7864D01*
X9886Y-140823D01*
X11433Y-139276D01*
X12270Y-137254D01*
Y-135066D01*
X11433Y-133045D01*
X9886Y-131497D01*
X7864Y-130660D01*
D02*
G37*
G36*
X-46046Y-113340D02*
X-48234D01*
X-50255Y-114177D01*
X-51803Y-115724D01*
X-52640Y-117746D01*
Y-118930D01*
X-53411Y-119964D01*
X-53813Y-119980D01*
X-55610D01*
X-57632Y-120817D01*
X-59179Y-122365D01*
X-60016Y-124386D01*
Y-126574D01*
X-59535Y-127736D01*
X-60384Y-129006D01*
X-61223D01*
X-63244Y-129843D01*
X-64791Y-131390D01*
X-65629Y-133412D01*
Y-135600D01*
X-64791Y-137621D01*
X-63244Y-139169D01*
X-63117Y-139808D01*
X-64180Y-140871D01*
X-65017Y-142892D01*
Y-145080D01*
X-64180Y-147102D01*
X-62633Y-148649D01*
X-60611Y-149486D01*
X-58423D01*
X-56402Y-148649D01*
X-54855Y-147102D01*
X-54017Y-145080D01*
Y-142892D01*
X-54855Y-140871D01*
X-56402Y-139324D01*
X-56529Y-138685D01*
X-55466Y-137621D01*
X-54629Y-135600D01*
Y-133412D01*
X-55110Y-132250D01*
X-54261Y-130980D01*
X-53422D01*
X-51401Y-130143D01*
X-49854Y-128596D01*
X-49016Y-126574D01*
Y-125391D01*
X-48246Y-124356D01*
X-47843Y-124340D01*
X-46046D01*
X-44025Y-123503D01*
X-42477Y-121955D01*
X-41640Y-119934D01*
Y-117746D01*
X-42477Y-115724D01*
X-44025Y-114177D01*
X-46046Y-113340D01*
D02*
G37*
G36*
X55504Y-133240D02*
X53316D01*
X51294Y-134077D01*
X49747Y-135625D01*
X48910Y-137646D01*
Y-139834D01*
X47973Y-140890D01*
X47116D01*
X45094Y-141727D01*
X43547Y-143274D01*
X42710Y-145296D01*
Y-147484D01*
X43547Y-149506D01*
X45094Y-151053D01*
X47116Y-151890D01*
X49304D01*
X51325Y-151053D01*
X52873Y-149506D01*
X53710Y-147484D01*
Y-145296D01*
X54647Y-144240D01*
X55504D01*
X57526Y-143403D01*
X59073Y-141855D01*
X59910Y-139834D01*
Y-137646D01*
X59073Y-135625D01*
X57526Y-134077D01*
X55504Y-133240D01*
D02*
G37*
G36*
X-104666Y-141630D02*
X-106854D01*
X-108876Y-142467D01*
X-110423Y-144015D01*
X-111260Y-146036D01*
Y-148224D01*
X-110423Y-150246D01*
X-108876Y-151793D01*
X-106854Y-152630D01*
X-104666D01*
X-102645Y-151793D01*
X-101097Y-150246D01*
X-100260Y-148224D01*
Y-146036D01*
X-101097Y-144015D01*
X-102645Y-142467D01*
X-104666Y-141630D01*
D02*
G37*
G36*
X-299186Y-143580D02*
X-301374D01*
X-303396Y-144417D01*
X-304943Y-145964D01*
X-305780Y-147986D01*
Y-150174D01*
X-304943Y-152196D01*
X-303396Y-153743D01*
X-301374Y-154580D01*
X-299186D01*
X-297164Y-153743D01*
X-295617Y-152196D01*
X-294780Y-150174D01*
Y-147986D01*
X-295617Y-145964D01*
X-297164Y-144417D01*
X-299186Y-143580D01*
D02*
G37*
G36*
X-161095Y-140580D02*
X-164905D01*
X-167783Y-140959D01*
X-170465Y-142070D01*
X-172768Y-143837D01*
X-174535Y-146140D01*
X-175646Y-148822D01*
X-176025Y-151700D01*
X-175646Y-154578D01*
X-174535Y-157260D01*
X-172768Y-159563D01*
X-170465Y-161330D01*
X-167783Y-162441D01*
X-164905Y-162820D01*
X-161095D01*
X-158217Y-162441D01*
X-155535Y-161330D01*
X-153232Y-159563D01*
X-151465Y-157260D01*
X-150354Y-154578D01*
X-149975Y-151700D01*
X-150354Y-148822D01*
X-151465Y-146140D01*
X-153232Y-143837D01*
X-155535Y-142070D01*
X-158217Y-140959D01*
X-161095Y-140580D01*
D02*
G37*
G36*
X91004Y-152491D02*
X88816D01*
X86795Y-153328D01*
X85247Y-154875D01*
X84410Y-156897D01*
Y-159085D01*
X85247Y-161106D01*
X86795Y-162654D01*
X88816Y-163491D01*
X91004D01*
X93026Y-162654D01*
X94573Y-161106D01*
X95410Y-159085D01*
Y-156897D01*
X94573Y-154875D01*
X93026Y-153328D01*
X91004Y-152491D01*
D02*
G37*
G36*
X-102866Y-166520D02*
X-105054D01*
X-107076Y-167357D01*
X-108623Y-168904D01*
X-109460Y-170926D01*
Y-173114D01*
X-108623Y-175135D01*
X-107076Y-176683D01*
X-105054Y-177520D01*
X-102866D01*
X-100844Y-176683D01*
X-99297Y-175135D01*
X-98460Y-173114D01*
Y-170926D01*
X-99297Y-168904D01*
X-100844Y-167357D01*
X-102866Y-166520D01*
D02*
G37*
G36*
X-23434Y-164128D02*
X-25622D01*
X-27643Y-164965D01*
X-29191Y-166513D01*
X-30028Y-168534D01*
Y-170722D01*
X-29191Y-172743D01*
X-27643Y-174291D01*
X-25622Y-175128D01*
X-23842D01*
X-23449Y-175586D01*
X-23150Y-176119D01*
X-23098Y-176301D01*
X-23850Y-178116D01*
Y-180304D01*
X-23013Y-182325D01*
X-21465Y-183873D01*
X-19444Y-184710D01*
X-17256D01*
X-15235Y-183873D01*
X-13687Y-182325D01*
X-12850Y-180304D01*
Y-178116D01*
X-13687Y-176094D01*
X-15235Y-174547D01*
X-17256Y-173710D01*
X-19036D01*
X-19429Y-173252D01*
X-19728Y-172719D01*
X-19780Y-172537D01*
X-19028Y-170722D01*
Y-168534D01*
X-19865Y-166513D01*
X-21412Y-164965D01*
X-23434Y-164128D01*
D02*
G37*
G36*
X20752Y-168541D02*
X18564D01*
X16542Y-169379D01*
X14995Y-170926D01*
X14158Y-172947D01*
Y-174364D01*
X13586Y-175293D01*
X12984Y-175460D01*
X11296D01*
X9275Y-176297D01*
X7727Y-177845D01*
X6890Y-179866D01*
Y-182054D01*
X7727Y-184076D01*
X9275Y-185623D01*
X11296Y-186460D01*
X13484D01*
X15505Y-185623D01*
X17053Y-184076D01*
X17890Y-182054D01*
Y-180637D01*
X18461Y-179708D01*
X19063Y-179541D01*
X20752D01*
X22773Y-178704D01*
X24320Y-177157D01*
X25158Y-175135D01*
Y-172947D01*
X24320Y-170926D01*
X22773Y-169379D01*
X20752Y-168541D01*
D02*
G37*
G36*
X-150070Y-166075D02*
X-175930D01*
Y-188125D01*
X-150070D01*
Y-166075D01*
D02*
G37*
G36*
X171680Y-167075D02*
X145820D01*
Y-189125D01*
X171680D01*
Y-167075D01*
D02*
G37*
G36*
X102644Y-167810D02*
X100456D01*
X98434Y-168647D01*
X96887Y-170194D01*
X96050Y-172216D01*
Y-174404D01*
X96887Y-176425D01*
X98434Y-177973D01*
X99821Y-178547D01*
X99848Y-178722D01*
X99694Y-179869D01*
X97985Y-180577D01*
X96437Y-182125D01*
X95600Y-184146D01*
Y-186334D01*
X96437Y-188356D01*
X97985Y-189903D01*
X100006Y-190740D01*
X102194D01*
X104215Y-189903D01*
X105763Y-188356D01*
X106600Y-186334D01*
Y-184146D01*
X105763Y-182125D01*
X104215Y-180577D01*
X102829Y-180003D01*
X102802Y-179828D01*
X102956Y-178681D01*
X104665Y-177973D01*
X106213Y-176425D01*
X107050Y-174404D01*
Y-172216D01*
X106213Y-170194D01*
X104665Y-168647D01*
X102644Y-167810D01*
D02*
G37*
G36*
X-182906Y-186120D02*
X-185094D01*
X-187115Y-186957D01*
X-188663Y-188505D01*
X-189500Y-190526D01*
Y-192714D01*
X-188663Y-194736D01*
X-187115Y-196283D01*
X-185094Y-197120D01*
X-182906D01*
X-180884Y-196283D01*
X-179337Y-194736D01*
X-178500Y-192714D01*
Y-190526D01*
X-179337Y-188505D01*
X-180884Y-186957D01*
X-182906Y-186120D01*
D02*
G37*
G36*
X49575Y-168496D02*
X47387D01*
X45366Y-169333D01*
X43818Y-170880D01*
X42981Y-172902D01*
Y-175090D01*
X43818Y-177111D01*
X45366Y-178659D01*
X47387Y-179496D01*
X47800D01*
X48506Y-180552D01*
X48460Y-180663D01*
Y-182851D01*
X49297Y-184872D01*
X50844Y-186419D01*
X51091Y-187661D01*
X50717Y-188034D01*
X49880Y-190056D01*
Y-192244D01*
X50717Y-194265D01*
X50768Y-194317D01*
X50283Y-195490D01*
X50136D01*
X48115Y-196327D01*
X46567Y-197875D01*
X45730Y-199896D01*
Y-200091D01*
X44480Y-200139D01*
X43643Y-198118D01*
X42095Y-196570D01*
X40074Y-195733D01*
X37886D01*
X35865Y-196570D01*
X34317Y-198118D01*
X33480Y-200139D01*
Y-202327D01*
X34317Y-204348D01*
X35865Y-205896D01*
X36052Y-206837D01*
X35325Y-207564D01*
X34488Y-209585D01*
Y-211773D01*
X35325Y-213795D01*
X36872Y-215342D01*
X38894Y-216179D01*
X41082D01*
X43103Y-215342D01*
X44650Y-213795D01*
X45488Y-211773D01*
Y-209585D01*
X44650Y-207564D01*
X43103Y-206017D01*
X42916Y-205075D01*
X43643Y-204348D01*
X44480Y-202327D01*
Y-202132D01*
X45730Y-202084D01*
X46567Y-204105D01*
X48115Y-205653D01*
X50136Y-206490D01*
X52324D01*
X54345Y-205653D01*
X55893Y-204105D01*
X56730Y-202084D01*
Y-199896D01*
X55893Y-197875D01*
X55841Y-197823D01*
X56328Y-196650D01*
X56474D01*
X58495Y-195813D01*
X60043Y-194265D01*
X60880Y-192244D01*
Y-190056D01*
X60043Y-188034D01*
X58495Y-186487D01*
X58249Y-185246D01*
X58623Y-184872D01*
X59460Y-182851D01*
Y-180663D01*
X58623Y-178641D01*
X57076Y-177094D01*
X55054Y-176257D01*
X54641D01*
X53935Y-175201D01*
X53981Y-175090D01*
Y-172902D01*
X53144Y-170880D01*
X51596Y-169333D01*
X49575Y-168496D01*
D02*
G37*
G36*
X-103796Y-181780D02*
X-105984D01*
X-108006Y-182617D01*
X-109553Y-184165D01*
X-110390Y-186186D01*
Y-188374D01*
X-109553Y-190396D01*
X-108006Y-191943D01*
X-106559Y-192542D01*
X-106543Y-192629D01*
X-106685Y-193864D01*
X-108371Y-194563D01*
X-109918Y-196110D01*
X-110755Y-198131D01*
Y-200319D01*
X-109918Y-202341D01*
X-108371Y-203888D01*
X-106349Y-204725D01*
X-104161D01*
X-102140Y-203888D01*
X-100593Y-202341D01*
X-99755Y-200319D01*
Y-198131D01*
X-100593Y-196110D01*
X-102140Y-194563D01*
X-103587Y-193963D01*
X-103602Y-193876D01*
X-103461Y-192641D01*
X-101775Y-191943D01*
X-100227Y-190396D01*
X-99390Y-188374D01*
Y-186186D01*
X-100227Y-184165D01*
X-101775Y-182617D01*
X-103796Y-181780D01*
D02*
G37*
G36*
X-12566Y-201660D02*
X-14754D01*
X-16775Y-202498D01*
X-18323Y-204045D01*
X-19160Y-206066D01*
Y-208254D01*
X-18630Y-209533D01*
X-19602Y-210505D01*
X-20436Y-210160D01*
X-22624D01*
X-24646Y-210997D01*
X-26193Y-212544D01*
X-27030Y-214566D01*
Y-216754D01*
X-26193Y-218776D01*
X-24646Y-220323D01*
X-22624Y-221160D01*
X-20436D01*
X-18414Y-220323D01*
X-16867Y-218776D01*
X-16030Y-216754D01*
Y-214566D01*
X-16560Y-213287D01*
X-15588Y-212315D01*
X-14754Y-212660D01*
X-12566D01*
X-10545Y-211823D01*
X-8997Y-210276D01*
X-8160Y-208254D01*
Y-206066D01*
X-8997Y-204045D01*
X-10545Y-202498D01*
X-12566Y-201660D01*
D02*
G37*
G36*
X12414Y-203720D02*
X10226D01*
X8205Y-204557D01*
X6657Y-206105D01*
X5820Y-208126D01*
Y-210314D01*
X6657Y-212335D01*
X8205Y-213883D01*
X10226Y-214720D01*
X12414D01*
X14435Y-213883D01*
X15983Y-212335D01*
X16820Y-210314D01*
Y-208126D01*
X15983Y-206105D01*
X14435Y-204557D01*
X12414Y-203720D01*
D02*
G37*
G36*
X-108496Y-206240D02*
X-110684D01*
X-112705Y-207077D01*
X-114253Y-208624D01*
X-115090Y-210646D01*
Y-212834D01*
X-114253Y-214855D01*
X-112705Y-216403D01*
X-110684Y-217240D01*
X-108496D01*
X-106475Y-216403D01*
X-104927Y-214855D01*
X-104090Y-212834D01*
Y-210646D01*
X-104927Y-208624D01*
X-106475Y-207077D01*
X-108496Y-206240D01*
D02*
G37*
G36*
X-119396Y-215080D02*
X-121584D01*
X-123605Y-215917D01*
X-125153Y-217465D01*
X-125990Y-219486D01*
Y-221674D01*
X-125153Y-223696D01*
X-123605Y-225243D01*
X-121584Y-226080D01*
X-119396D01*
X-117374Y-225243D01*
X-115827Y-223696D01*
X-114990Y-221674D01*
Y-219486D01*
X-115827Y-217465D01*
X-117374Y-215917D01*
X-119396Y-215080D01*
D02*
G37*
G36*
X89098Y-214574D02*
X86910D01*
X84889Y-215412D01*
X83342Y-216959D01*
X82504Y-218980D01*
Y-221168D01*
X83342Y-223190D01*
X84889Y-224737D01*
X86553Y-225426D01*
X87380Y-226748D01*
X87170Y-227256D01*
Y-229444D01*
X88007Y-231465D01*
X89554Y-233013D01*
X91576Y-233850D01*
X93764D01*
X95785Y-233013D01*
X96507Y-232291D01*
X97501Y-231633D01*
X98166Y-232291D01*
X99053Y-233177D01*
X101074Y-234014D01*
X103262D01*
X105284Y-233177D01*
X106831Y-231630D01*
X107668Y-229608D01*
Y-227421D01*
X106831Y-225399D01*
X105284Y-223852D01*
X103262Y-223015D01*
X101074D01*
X99053Y-223852D01*
X98331Y-224574D01*
X97337Y-225232D01*
X96671Y-224574D01*
X95785Y-223687D01*
X94121Y-222998D01*
X93294Y-221677D01*
X93504Y-221168D01*
Y-218980D01*
X92667Y-216959D01*
X91120Y-215412D01*
X89098Y-214574D01*
D02*
G37*
G36*
X152954Y-225770D02*
X150766D01*
X148744Y-226607D01*
X147197Y-228155D01*
X146360Y-230176D01*
Y-232364D01*
X147197Y-234386D01*
X148744Y-235933D01*
X150766Y-236770D01*
X152954D01*
X154976Y-235933D01*
X156523Y-234386D01*
X157360Y-232364D01*
Y-230176D01*
X156523Y-228155D01*
X154976Y-226607D01*
X152954Y-225770D01*
D02*
G37*
G36*
X172294Y-228450D02*
X170106D01*
X168085Y-229287D01*
X166537Y-230835D01*
X165700Y-232856D01*
Y-235044D01*
X166537Y-237066D01*
X168085Y-238613D01*
X170106Y-239450D01*
X172294D01*
X174315Y-238613D01*
X175863Y-237066D01*
X176700Y-235044D01*
Y-232856D01*
X175863Y-230835D01*
X174315Y-229287D01*
X172294Y-228450D01*
D02*
G37*
G36*
X282994Y-233970D02*
X280806D01*
X278785Y-234807D01*
X277237Y-236355D01*
X276400Y-238376D01*
Y-240564D01*
X277237Y-242586D01*
X278785Y-244133D01*
X280806Y-244970D01*
X282994D01*
X285016Y-244133D01*
X286563Y-242586D01*
X287400Y-240564D01*
Y-238376D01*
X286563Y-236355D01*
X285016Y-234807D01*
X282994Y-233970D01*
D02*
G37*
G36*
X344634Y-234460D02*
X342446D01*
X340424Y-235297D01*
X338877Y-236845D01*
X338040Y-238866D01*
Y-241054D01*
X338877Y-243076D01*
X340424Y-244623D01*
X342446Y-245460D01*
X344634D01*
X346656Y-244623D01*
X348203Y-243076D01*
X349040Y-241054D01*
Y-238866D01*
X348203Y-236845D01*
X346656Y-235297D01*
X344634Y-234460D01*
D02*
G37*
G36*
X402984Y-235200D02*
X400796D01*
X398774Y-236037D01*
X397227Y-237584D01*
X396390Y-239606D01*
Y-241794D01*
X397227Y-243815D01*
X398774Y-245363D01*
X400796Y-246200D01*
X402984D01*
X405005Y-245363D01*
X406553Y-243815D01*
X407390Y-241794D01*
Y-239606D01*
X406553Y-237584D01*
X405005Y-236037D01*
X402984Y-235200D01*
D02*
G37*
G36*
X13934Y-244680D02*
X11746D01*
X9725Y-245517D01*
X8675Y-246567D01*
X7958Y-246970D01*
X7015Y-246567D01*
X6065Y-245617D01*
X4044Y-244780D01*
X1856D01*
X-166Y-245617D01*
X-1713Y-247164D01*
X-2550Y-249186D01*
Y-251374D01*
X-1713Y-253396D01*
X-166Y-254943D01*
X1856Y-255780D01*
X4044D01*
X6065Y-254943D01*
X7115Y-253893D01*
X7832Y-253489D01*
X8775Y-253893D01*
X9725Y-254843D01*
X11746Y-255680D01*
X13934D01*
X15955Y-254843D01*
X17503Y-253295D01*
X18340Y-251274D01*
Y-249086D01*
X17503Y-247064D01*
X15955Y-245517D01*
X13934Y-244680D01*
D02*
G37*
G36*
X367994Y-236120D02*
X365806D01*
X363784Y-236957D01*
X362237Y-238505D01*
X361400Y-240526D01*
Y-242714D01*
X362237Y-244736D01*
X363784Y-246283D01*
X365806Y-247120D01*
X367994D01*
X370015Y-246283D01*
X371563Y-244736D01*
X372400Y-242714D01*
Y-240526D01*
X371563Y-238505D01*
X370015Y-236957D01*
X367994Y-236120D01*
D02*
G37*
G36*
X64324Y-279340D02*
X62136D01*
X60114Y-280177D01*
X58567Y-281724D01*
X57730Y-283746D01*
Y-285934D01*
X58567Y-287955D01*
X60114Y-289503D01*
X62136Y-290340D01*
X64324D01*
X66346Y-289503D01*
X67893Y-287955D01*
X68730Y-285934D01*
Y-283746D01*
X67893Y-281724D01*
X66346Y-280177D01*
X64324Y-279340D01*
D02*
G37*
G36*
X24294Y-291610D02*
X22106D01*
X20085Y-292447D01*
X18537Y-293995D01*
X17700Y-296016D01*
Y-298204D01*
X18537Y-300226D01*
X19773Y-301462D01*
X19968Y-302240D01*
X19773Y-303018D01*
X18537Y-304254D01*
X17700Y-306276D01*
Y-308464D01*
X18537Y-310485D01*
X19922Y-311870D01*
X20013Y-312605D01*
X19922Y-313340D01*
X18537Y-314725D01*
X17700Y-316746D01*
Y-318934D01*
X18537Y-320956D01*
X19915Y-322333D01*
X20011Y-323070D01*
X19915Y-323807D01*
X18537Y-325185D01*
X17700Y-327206D01*
Y-329394D01*
X18537Y-331415D01*
X20085Y-332963D01*
X22106Y-333800D01*
X24294D01*
X26316Y-332963D01*
X27863Y-331415D01*
X28700Y-329394D01*
Y-327206D01*
X27863Y-325185D01*
X26485Y-323807D01*
X26389Y-323070D01*
X26485Y-322333D01*
X27863Y-320956D01*
X28700Y-318934D01*
Y-316746D01*
X27863Y-314725D01*
X26478Y-313340D01*
X26387Y-312605D01*
X26478Y-311870D01*
X27863Y-310485D01*
X28700Y-308464D01*
Y-306276D01*
X27863Y-304254D01*
X26627Y-303018D01*
X26432Y-302240D01*
X26627Y-301462D01*
X27863Y-300226D01*
X28700Y-298204D01*
Y-296016D01*
X27863Y-293995D01*
X26316Y-292447D01*
X24294Y-291610D01*
D02*
G37*
G36*
X-11356Y-413620D02*
X-13544D01*
X-15566Y-414457D01*
X-17113Y-416004D01*
X-17950Y-418026D01*
Y-420214D01*
X-17113Y-422235D01*
X-15566Y-423783D01*
X-13544Y-424620D01*
X-11356D01*
X-9334Y-423783D01*
X-7787Y-422235D01*
X-6950Y-420214D01*
Y-418026D01*
X-7787Y-416004D01*
X-9334Y-414457D01*
X-11356Y-413620D01*
D02*
G37*
G36*
X83724Y-424820D02*
X81536D01*
X79514Y-425657D01*
X77967Y-427205D01*
X77130Y-429226D01*
Y-431414D01*
X77967Y-433436D01*
X79514Y-434983D01*
X81536Y-435820D01*
X83724D01*
X85745Y-434983D01*
X87293Y-433436D01*
X88130Y-431414D01*
Y-429226D01*
X87293Y-427205D01*
X85745Y-425657D01*
X83724Y-424820D01*
D02*
G37*
G36*
X-403130Y-447853D02*
Y-457740D01*
X-393243D01*
X-393948Y-455108D01*
X-395528Y-452372D01*
X-397762Y-450138D01*
X-400498Y-448558D01*
X-403130Y-447853D01*
D02*
G37*
G36*
X-407130D02*
X-409762Y-448558D01*
X-412498Y-450138D01*
X-414732Y-452372D01*
X-416312Y-455108D01*
X-417017Y-457740D01*
X-407130D01*
Y-447853D01*
D02*
G37*
G36*
X221794Y-444210D02*
X219398D01*
X217084Y-444830D01*
X215009Y-446028D01*
X213314Y-447722D01*
X212116Y-449797D01*
X211496Y-452112D01*
Y-454508D01*
X212116Y-456822D01*
X213314Y-458897D01*
X215009Y-460592D01*
X217084Y-461790D01*
X219398Y-462410D01*
X221794D01*
X224109Y-461790D01*
X226184Y-460592D01*
X227878Y-458897D01*
X229076Y-456822D01*
X229696Y-454508D01*
Y-452112D01*
X229076Y-449797D01*
X227878Y-447722D01*
X226184Y-446028D01*
X224109Y-444830D01*
X221794Y-444210D01*
D02*
G37*
G36*
X-454416Y-448240D02*
X-457444D01*
X-460369Y-449024D01*
X-462991Y-450538D01*
X-465132Y-452679D01*
X-466646Y-455301D01*
X-467430Y-458226D01*
Y-461254D01*
X-466646Y-464179D01*
X-465132Y-466801D01*
X-462991Y-468942D01*
X-460369Y-470456D01*
X-457444Y-471240D01*
X-454416D01*
X-451491Y-470456D01*
X-448869Y-468942D01*
X-446728Y-466801D01*
X-445214Y-464179D01*
X-444430Y-461254D01*
Y-458226D01*
X-445214Y-455301D01*
X-446728Y-452679D01*
X-448869Y-450538D01*
X-451491Y-449024D01*
X-454416Y-448240D01*
D02*
G37*
G36*
X-393243Y-461740D02*
X-403130D01*
Y-471627D01*
X-400498Y-470922D01*
X-397762Y-469342D01*
X-395528Y-467108D01*
X-393948Y-464372D01*
X-393243Y-461740D01*
D02*
G37*
G36*
X-407130D02*
X-417017D01*
X-416312Y-464372D01*
X-414732Y-467108D01*
X-412498Y-469342D01*
X-409762Y-470922D01*
X-407130Y-471627D01*
Y-461740D01*
D02*
G37*
G36*
X52554Y-470920D02*
X50366D01*
X48344Y-471757D01*
X46797Y-473304D01*
X46192Y-474767D01*
X44817D01*
X44253Y-473405D01*
X42705Y-471857D01*
X40684Y-471020D01*
X38496D01*
X36474Y-471857D01*
X34927Y-473405D01*
X34090Y-475426D01*
Y-477614D01*
X34927Y-479636D01*
X36474Y-481183D01*
X38496Y-482020D01*
X40684D01*
X42705Y-481183D01*
X44253Y-479636D01*
X44858Y-478173D01*
X46233D01*
X46797Y-479535D01*
X48344Y-481083D01*
X50366Y-481920D01*
X52554D01*
X54576Y-481083D01*
X56123Y-479535D01*
X56960Y-477514D01*
Y-475326D01*
X56123Y-473304D01*
X54576Y-471757D01*
X52554Y-470920D01*
D02*
G37*
G36*
X26584Y-471020D02*
X24396D01*
X22374Y-471857D01*
X20827Y-473405D01*
X19990Y-475426D01*
Y-477614D01*
X20827Y-479636D01*
X22374Y-481183D01*
X24396Y-482020D01*
X26584D01*
X28605Y-481183D01*
X30153Y-479636D01*
X30990Y-477614D01*
Y-475426D01*
X30153Y-473405D01*
X28605Y-471857D01*
X26584Y-471020D01*
D02*
G37*
G36*
X183764Y-504240D02*
X181576D01*
X179555Y-505077D01*
X178600Y-506032D01*
X177885Y-506557D01*
X176940Y-506032D01*
X176096Y-505187D01*
X174074Y-504350D01*
X171886D01*
X169865Y-505187D01*
X168317Y-506735D01*
X167480Y-508756D01*
Y-510944D01*
X168317Y-512966D01*
X169773Y-514421D01*
X169822Y-515135D01*
X169773Y-515849D01*
X168317Y-517304D01*
X167480Y-519326D01*
Y-521514D01*
X168317Y-523535D01*
X169307Y-524525D01*
X169727Y-525355D01*
X169307Y-526185D01*
X168317Y-527174D01*
X167480Y-529196D01*
Y-531384D01*
X168317Y-533405D01*
X169865Y-534953D01*
X171886Y-535790D01*
X174074D01*
X176096Y-534953D01*
X177305Y-533743D01*
X177643Y-533405D01*
X178903Y-533681D01*
X179555Y-534333D01*
X181576Y-535170D01*
X183764D01*
X185786Y-534333D01*
X187333Y-532785D01*
X188170Y-530764D01*
Y-528576D01*
X187333Y-526554D01*
X186328Y-525550D01*
X185925Y-524720D01*
X186328Y-523890D01*
X187333Y-522886D01*
X188170Y-520864D01*
Y-518676D01*
X187333Y-516655D01*
X186259Y-515581D01*
X185927Y-514755D01*
X186259Y-513929D01*
X187333Y-512855D01*
X188170Y-510834D01*
Y-508646D01*
X187333Y-506624D01*
X185786Y-505077D01*
X183764Y-504240D01*
D02*
G37*
%LPD*%
D14*
X232480Y-312740D02*
X233120Y-313380D01*
D143*
X81560Y356240D02*
D03*
X-9640Y356470D02*
D03*
X-99450Y356240D02*
D03*
D144*
X121160D02*
D03*
X29960Y356470D02*
D03*
X-59850Y356240D02*
D03*
D156*
X840000Y0D02*
G03*
X840000Y0I-840000J0D01*
G01*
D167*
X232080Y-298500D02*
X232480Y-298900D01*
Y-312740D02*
Y-298900D01*
X148250Y-319980D02*
X150000Y-318230D01*
Y-299340D01*
D169*
X365400Y427300D02*
D03*
Y452700D02*
D03*
X340000D02*
D03*
Y427300D02*
D03*
X314600D02*
D03*
X272700Y503500D02*
D03*
Y478100D02*
D03*
X247300D02*
D03*
Y503500D02*
D03*
X272700Y452700D02*
D03*
X-247300Y478100D02*
D03*
Y503500D02*
D03*
Y452700D02*
D03*
X-272700Y503500D02*
D03*
Y478100D02*
D03*
X-7Y46990D02*
D03*
Y21590D02*
D03*
X50793Y46990D02*
D03*
X25393D02*
D03*
X-25407D02*
D03*
X-50807D02*
D03*
Y21590D02*
D03*
X-25407D02*
D03*
X25393D02*
D03*
X220596Y-504110D02*
D03*
Y-478710D02*
D03*
X245996D02*
D03*
X220596Y-453310D02*
D03*
X245996Y-504110D02*
D03*
X-25403Y547300D02*
D03*
X25397D02*
D03*
X-3D02*
D03*
X25397Y572700D02*
D03*
X-3D02*
D03*
X-365400Y427300D02*
D03*
X-340000Y452700D02*
D03*
Y427300D02*
D03*
X-314600Y452700D02*
D03*
Y427300D02*
D03*
D170*
X314600Y452700D02*
D03*
X50793Y21590D02*
D03*
X-25403Y572700D02*
D03*
X-365400Y452700D02*
D03*
D171*
X247300D02*
D03*
X-272700D02*
D03*
X245996Y-453310D02*
D03*
D172*
X-252730Y-307340D02*
D03*
X-227330D02*
D03*
X-455930Y-459740D02*
D03*
X-405130D02*
D03*
X-252730D02*
D03*
X-227330D02*
D03*
X-455930Y-307340D02*
D03*
D173*
X298960Y-477700D02*
D03*
X363230D02*
D03*
X184660Y384750D02*
D03*
X-163000Y-177100D02*
D03*
Y-42700D02*
D03*
X158750Y-178100D02*
D03*
X158370Y-44200D02*
D03*
D174*
X298960Y-452300D02*
D03*
X363230D02*
D03*
X184660Y359350D02*
D03*
X-163000Y-151700D02*
D03*
Y-126300D02*
D03*
Y-100900D02*
D03*
Y8100D02*
D03*
Y33500D02*
D03*
Y-17300D02*
D03*
X158750Y-101900D02*
D03*
Y-152700D02*
D03*
Y-127300D02*
D03*
X158370Y-18800D02*
D03*
Y32000D02*
D03*
Y6600D02*
D03*
D175*
X-164400Y-246000D02*
D03*
X-139000D02*
D03*
X316247Y-382000D02*
D03*
X265447D02*
D03*
X290847D02*
D03*
X155957D02*
D03*
X130557D02*
D03*
X181357D02*
D03*
D176*
X-113600Y-246000D02*
D03*
X240047Y-382000D02*
D03*
X105157D02*
D03*
D177*
X84520Y87440D02*
D03*
D178*
X-95479D02*
D03*
X-75479D02*
D03*
X-55479D02*
D03*
X-35480D02*
D03*
X-15480D02*
D03*
X4520D02*
D03*
X24520D02*
D03*
X44520D02*
D03*
X64520D02*
D03*
X84522Y307438D02*
D03*
X64522D02*
D03*
X44522D02*
D03*
X24522D02*
D03*
X4522D02*
D03*
X-15478D02*
D03*
X-35478D02*
D03*
X-55478D02*
D03*
X-75478D02*
D03*
X-95478D02*
D03*
D179*
X878992Y235525D02*
D03*
X-235525Y878992D02*
D03*
X627852Y168232D02*
D03*
X168232Y627852D02*
D03*
X643467Y643467D02*
D03*
X235525Y878992D02*
D03*
Y-878992D02*
D03*
X643467Y-643467D02*
D03*
X459619Y-459619D02*
D03*
X878992Y-235525D02*
D03*
X-627852Y-168232D02*
D03*
X-643467Y-643467D02*
D03*
X-235525Y-878992D02*
D03*
X-168232Y-627852D02*
D03*
X-878992Y235525D02*
D03*
X-643467Y643467D02*
D03*
X-459619Y459619D02*
D03*
X-878992Y-235525D02*
D03*
D180*
X878992Y258385D02*
D03*
X856133Y235525D02*
D03*
X878992Y212665D02*
D03*
X901852Y235525D02*
D03*
X895157Y251690D02*
D03*
X862828D02*
D03*
Y219361D02*
D03*
X895157D02*
D03*
X-235525Y901852D02*
D03*
X-258385Y878992D02*
D03*
X-235525Y856133D02*
D03*
X-212665Y878992D02*
D03*
X-219361Y895157D02*
D03*
X-251690D02*
D03*
Y862828D02*
D03*
X-219361D02*
D03*
X627852Y191092D02*
D03*
X604992Y168232D02*
D03*
X627852Y145372D02*
D03*
X650712Y168232D02*
D03*
X644016Y184397D02*
D03*
X611687Y184397D02*
D03*
Y152068D02*
D03*
X644016Y152068D02*
D03*
X168232Y650712D02*
D03*
X145372Y627852D02*
D03*
X168232Y604992D02*
D03*
X191092Y627852D02*
D03*
X184397Y644016D02*
D03*
X152068Y644016D02*
D03*
X152068Y611687D02*
D03*
X184397Y611687D02*
D03*
X643467Y666327D02*
D03*
X620607Y643467D02*
D03*
X643467Y620607D02*
D03*
X666327Y643467D02*
D03*
X659632Y659632D02*
D03*
X627303D02*
D03*
Y627303D02*
D03*
X659632Y627303D02*
D03*
X235525Y901852D02*
D03*
X212665Y878992D02*
D03*
X235525Y856133D02*
D03*
X258385Y878992D02*
D03*
X251690Y895157D02*
D03*
X219361D02*
D03*
Y862828D02*
D03*
X251690D02*
D03*
X235525Y-856133D02*
D03*
X212665Y-878992D02*
D03*
X235525Y-901852D02*
D03*
X258385Y-878992D02*
D03*
X251690Y-862828D02*
D03*
X219361D02*
D03*
X219361Y-895157D02*
D03*
X251690D02*
D03*
X659632Y-659632D02*
D03*
X627303Y-659632D02*
D03*
Y-627303D02*
D03*
X659632Y-627303D02*
D03*
X666327Y-643467D02*
D03*
X643467Y-666327D02*
D03*
X620607Y-643467D02*
D03*
X643467Y-620607D02*
D03*
X459620Y-436759D02*
D03*
X436760Y-459619D02*
D03*
X459620Y-482479D02*
D03*
X482479Y-459619D02*
D03*
X475784Y-443455D02*
D03*
X443455Y-443455D02*
D03*
X443455Y-475784D02*
D03*
X475784Y-475784D02*
D03*
X878992Y-212665D02*
D03*
X856133Y-235525D02*
D03*
X878992Y-258385D02*
D03*
X901852Y-235525D02*
D03*
X895157Y-219361D02*
D03*
X862828D02*
D03*
Y-251690D02*
D03*
X895157D02*
D03*
X-627852Y-145372D02*
D03*
X-650712Y-168232D02*
D03*
X-627852Y-191092D02*
D03*
X-604992Y-168232D02*
D03*
X-611687Y-152068D02*
D03*
X-644016D02*
D03*
Y-184397D02*
D03*
X-611687D02*
D03*
X-627303Y-659632D02*
D03*
X-659632Y-659632D02*
D03*
X-659632Y-627303D02*
D03*
X-627303D02*
D03*
X-620607Y-643467D02*
D03*
X-643467Y-666327D02*
D03*
X-666327Y-643467D02*
D03*
X-643467Y-620607D02*
D03*
X-219361Y-895157D02*
D03*
X-251690Y-895157D02*
D03*
Y-862828D02*
D03*
X-219361Y-862828D02*
D03*
X-212665Y-878992D02*
D03*
X-235525Y-901852D02*
D03*
X-258385Y-878992D02*
D03*
X-235525Y-856133D02*
D03*
X-168232Y-604992D02*
D03*
X-191092Y-627852D02*
D03*
X-168232Y-650712D02*
D03*
X-145372Y-627852D02*
D03*
X-152068Y-611687D02*
D03*
X-184397D02*
D03*
Y-644016D02*
D03*
X-152068D02*
D03*
X-878992Y258385D02*
D03*
X-901852Y235525D02*
D03*
X-878992Y212665D02*
D03*
X-856133Y235525D02*
D03*
X-862828Y251690D02*
D03*
X-895157Y251690D02*
D03*
X-895157Y219361D02*
D03*
X-862828D02*
D03*
X-627303Y627303D02*
D03*
X-659632Y627303D02*
D03*
Y659632D02*
D03*
X-627303Y659632D02*
D03*
X-620607Y643467D02*
D03*
X-643467Y620607D02*
D03*
X-666327Y643467D02*
D03*
X-643467Y666327D02*
D03*
X-443455Y443455D02*
D03*
X-475784Y443455D02*
D03*
X-475784Y475784D02*
D03*
X-443455Y475784D02*
D03*
X-436759Y459619D02*
D03*
X-459619Y436759D02*
D03*
X-482479Y459619D02*
D03*
X-459619Y482480D02*
D03*
X-862828Y-251690D02*
D03*
X-895157D02*
D03*
X-895157Y-219361D02*
D03*
X-862828Y-219361D02*
D03*
X-856133Y-235525D02*
D03*
X-878992Y-258385D02*
D03*
X-901852Y-235525D02*
D03*
X-878992Y-212665D02*
D03*
D181*
X-420000Y727461D02*
D03*
X727461Y420000D02*
D03*
X840000Y0D02*
D03*
X0Y840000D02*
D03*
X420000Y727461D02*
D03*
Y-727461D02*
D03*
X727461Y-420000D02*
D03*
X0Y-840000D02*
D03*
X-840000Y0D02*
D03*
X-727461Y-420000D02*
D03*
X-420000Y-727461D02*
D03*
X-727461Y420000D02*
D03*
D182*
X-370000Y640859D02*
D03*
X370000Y-640859D02*
D03*
D183*
X640859Y370000D02*
D03*
X-640859Y-370000D02*
D03*
D184*
X740000Y-0D02*
D03*
X-740000Y0D02*
D03*
D185*
X0Y740000D02*
D03*
X-0Y-740000D02*
D03*
D186*
X370000Y640859D02*
D03*
X-370000Y-640859D02*
D03*
D187*
X640859Y-370000D02*
D03*
X-640859Y370000D02*
D03*
D188*
X54410Y-138740D02*
D03*
X48210Y-146390D02*
D03*
X55310Y-153600D02*
D03*
X-25070Y2360D02*
D03*
X37080Y34060D02*
D03*
X-12400Y34410D02*
D03*
X36080Y-38170D02*
D03*
X169570Y-431130D02*
D03*
X150570Y-430880D02*
D03*
X130370Y-431010D02*
D03*
X-296410Y178250D02*
D03*
X-281410Y75150D02*
D03*
X-309350Y74570D02*
D03*
X-295630Y85240D02*
D03*
X-295630Y58580D02*
D03*
X-294790Y33460D02*
D03*
X-296400Y121240D02*
D03*
X-282540Y131330D02*
D03*
X-310620Y131330D02*
D03*
X-274510Y178290D02*
D03*
X-295730Y159940D02*
D03*
X-296280Y141150D02*
D03*
X294680Y-64740D02*
D03*
X295230Y-45950D02*
D03*
X272900Y-27050D02*
D03*
X316450Y-27600D02*
D03*
X353079Y-356831D02*
D03*
X218079Y-386831D02*
D03*
X173079Y-356831D02*
D03*
X143079D02*
D03*
X113079D02*
D03*
X-171921Y-446831D02*
D03*
Y-506831D02*
D03*
X-156921Y-536831D02*
D03*
X-171921Y-566831D02*
D03*
X-186921Y-536831D02*
D03*
X-216921D02*
D03*
X-231921Y-566831D02*
D03*
X-471921Y333169D02*
D03*
X-531921D02*
D03*
X263079Y513169D02*
D03*
X233079Y273169D02*
D03*
X188079Y243169D02*
D03*
Y183169D02*
D03*
X158079Y243169D02*
D03*
X-51921Y63169D02*
D03*
X-81921D02*
D03*
X-66921Y33169D02*
D03*
X-141921Y63169D02*
D03*
X-171921D02*
D03*
X-201921Y-176831D02*
D03*
X-351921Y-296831D02*
D03*
X-336921Y-326831D02*
D03*
X-351921Y-356831D02*
D03*
X-336921Y-386831D02*
D03*
Y-446831D02*
D03*
X-381921Y-296831D02*
D03*
X-366921Y-326831D02*
D03*
Y-386831D02*
D03*
Y-446831D02*
D03*
X-396921Y-326831D02*
D03*
Y-386831D02*
D03*
X-426921Y-326831D02*
D03*
X-441921Y-356831D02*
D03*
X-426921Y-386831D02*
D03*
X-456921D02*
D03*
X-162630Y492550D02*
D03*
X-192240Y486970D02*
D03*
X280340Y-74560D02*
D03*
X308420Y-74560D02*
D03*
X294560Y-84650D02*
D03*
X-316780Y179420D02*
D03*
X172980Y-530290D02*
D03*
Y-520420D02*
D03*
Y-509850D02*
D03*
X182670Y-519770D02*
D03*
Y-509740D02*
D03*
X-118900Y-375830D02*
D03*
X-495200Y263080D02*
D03*
X-146510Y-473150D02*
D03*
X-67310Y-388220D02*
D03*
X314250Y-204920D02*
D03*
X294870D02*
D03*
X231990D02*
D03*
X251550Y-204480D02*
D03*
X-39760Y-38470D02*
D03*
X113450Y36286D02*
D03*
X112430Y25090D02*
D03*
X71378Y10021D02*
D03*
X70750Y21970D02*
D03*
X421740Y229620D02*
D03*
X-185140Y474160D02*
D03*
X99970Y435050D02*
D03*
X172525Y459415D02*
D03*
X29470Y471780D02*
D03*
X52326Y432990D02*
D03*
X-121600Y-60120D02*
D03*
X12840Y-250180D02*
D03*
X2950Y-250280D02*
D03*
X-181650Y-334080D02*
D03*
X-35352Y-339298D02*
D03*
X16590Y-364900D02*
D03*
X16670Y-375000D02*
D03*
X16520Y-384740D02*
D03*
X144890Y52902D02*
D03*
X137890Y46480D02*
D03*
X129270Y42250D02*
D03*
X128090Y30790D02*
D03*
X50510Y-39010D02*
D03*
X-60129Y-134506D02*
D03*
X-59517Y-143986D02*
D03*
X-54517Y-125480D02*
D03*
X-47140Y-118840D02*
D03*
X-105255Y-199225D02*
D03*
X-17810Y-260280D02*
D03*
X102168Y-228514D02*
D03*
X6770Y-136160D02*
D03*
X-497910Y240170D02*
D03*
X-435533Y241907D02*
D03*
X-402640Y272960D02*
D03*
X-467840Y290120D02*
D03*
X569769Y206550D02*
D03*
X343540Y-239960D02*
D03*
X212510Y-272560D02*
D03*
X173120Y-285819D02*
D03*
X154060Y-268880D02*
D03*
X112780Y-224580D02*
D03*
X118450Y-237170D02*
D03*
X88004Y-220074D02*
D03*
X92670Y-228350D02*
D03*
X17210Y-194550D02*
D03*
X24260Y-210380D02*
D03*
X-9540Y-172350D02*
D03*
X-18350Y-179210D02*
D03*
X84720Y-114550D02*
D03*
X84870Y-124830D02*
D03*
X19658Y-174041D02*
D03*
X12390Y-180960D02*
D03*
X44240Y-187690D02*
D03*
X38980Y-201233D02*
D03*
X-13660Y-207160D02*
D03*
X-24528Y-169628D02*
D03*
X-19990Y-151090D02*
D03*
X-109590Y-211740D02*
D03*
X-120490Y-220580D02*
D03*
X-104890Y-187280D02*
D03*
X-103960Y-172020D02*
D03*
X-485000Y-16700D02*
D03*
X-485190Y-27980D02*
D03*
Y-39260D02*
D03*
X-192690Y233840D02*
D03*
X-193020Y209880D02*
D03*
Y222340D02*
D03*
Y197480D02*
D03*
X-200460Y409390D02*
D03*
X-200620Y418750D02*
D03*
X-212580Y418790D02*
D03*
X-212670Y409530D02*
D03*
X-206870Y401020D02*
D03*
X-246620Y356250D02*
D03*
X102560Y476290D02*
D03*
X20360Y446040D02*
D03*
X-35000Y236556D02*
D03*
X49490Y239130D02*
D03*
X49890Y177020D02*
D03*
X115270Y49890D02*
D03*
X-108780Y31368D02*
D03*
X-93468Y37473D02*
D03*
X-93433Y46973D02*
D03*
X-64410Y-50050D02*
D03*
X-43440Y-49280D02*
D03*
X-17500Y-56770D02*
D03*
X3631Y-50039D02*
D03*
X-55310Y-10950D02*
D03*
X-7970Y-133410D02*
D03*
X22025Y-130345D02*
D03*
X48481Y-173996D02*
D03*
X11320Y-209220D02*
D03*
X-21530Y-215660D02*
D03*
X51767Y-331140D02*
D03*
X23200Y-297110D02*
D03*
Y-307370D02*
D03*
Y-317840D02*
D03*
Y-328300D02*
D03*
X89910Y-157991D02*
D03*
X53960Y-181757D02*
D03*
X55380Y-191150D02*
D03*
X-121750Y553110D02*
D03*
X298500Y124720D02*
D03*
X551557Y206550D02*
D03*
X551062Y196815D02*
D03*
X551352Y187080D02*
D03*
X49870Y190350D02*
D03*
X50030Y224030D02*
D03*
X-227070Y-145110D02*
D03*
X333590Y233813D02*
D03*
X333710Y218885D02*
D03*
Y203958D02*
D03*
Y189030D02*
D03*
X56760Y-339940D02*
D03*
X46930Y-340180D02*
D03*
X62333Y-331000D02*
D03*
X42050Y-331130D02*
D03*
X-5190Y-255720D02*
D03*
X232080Y-298500D02*
D03*
X150000Y-299340D02*
D03*
X63230Y-284840D02*
D03*
X77890Y-253220D02*
D03*
X151860Y-231270D02*
D03*
X171200Y-233950D02*
D03*
X-82480Y-474950D02*
D03*
X-92070D02*
D03*
X-65810Y-503620D02*
D03*
X363760Y237900D02*
D03*
X472200Y-186660D02*
D03*
X-184000Y-191620D02*
D03*
X-259910Y-333770D02*
D03*
X-240280Y-318930D02*
D03*
X-204570Y-299400D02*
D03*
X401890Y-240700D02*
D03*
X396150Y-323230D02*
D03*
X355480Y-325460D02*
D03*
X356840Y-372530D02*
D03*
X282780Y-224550D02*
D03*
X281900Y-239470D02*
D03*
X-445540Y191700D02*
D03*
X-246450Y345870D02*
D03*
X89610Y-96470D02*
D03*
X77040Y-220580D02*
D03*
X101550Y-173310D02*
D03*
X51230Y-200990D02*
D03*
X101100Y-185240D02*
D03*
X-101850Y24870D02*
D03*
X163960Y164810D02*
D03*
X265370Y294690D02*
D03*
X322810Y224390D02*
D03*
X-227530Y-254630D02*
D03*
X-275180Y222110D02*
D03*
X-291860D02*
D03*
X-307940D02*
D03*
X-322790D02*
D03*
X-265790Y211420D02*
D03*
X-283700D02*
D03*
X-300380D02*
D03*
X-316020D02*
D03*
X-330000D02*
D03*
X580650Y187080D02*
D03*
X578875Y206550D02*
D03*
X579720Y196815D02*
D03*
X296170Y-172430D02*
D03*
X295330Y-147310D02*
D03*
X295330Y-120650D02*
D03*
X281610Y-131320D02*
D03*
X309550Y-130740D02*
D03*
X294550Y-27640D02*
D03*
X182670Y-529670D02*
D03*
X171260Y-551790D02*
D03*
X180620D02*
D03*
X190470D02*
D03*
Y-561310D02*
D03*
X180620D02*
D03*
X171260D02*
D03*
X-430760Y191960D02*
D03*
X-464500Y-39100D02*
D03*
X-475110Y-39090D02*
D03*
X-485000Y-5420D02*
D03*
X-464640Y-5260D02*
D03*
X-474920Y-5250D02*
D03*
X-57360Y-94910D02*
D03*
X-13301Y-160228D02*
D03*
X-57360Y-106800D02*
D03*
X99350Y-92484D02*
D03*
X102260Y-81400D02*
D03*
X-131230Y-552670D02*
D03*
Y-563090D02*
D03*
X-130920Y-573920D02*
D03*
X-146400Y-569020D02*
D03*
X-120570Y-573700D02*
D03*
X-120880Y-562870D02*
D03*
Y-552450D02*
D03*
X-48240Y-451870D02*
D03*
X68110Y-475780D02*
D03*
X-652550Y66300D02*
D03*
X-659460Y84060D02*
D03*
X-554720Y-299140D02*
D03*
Y-288385D02*
D03*
Y-277630D02*
D03*
X-391510Y353270D02*
D03*
X-346390Y121940D02*
D03*
X356060Y-241820D02*
D03*
X105430Y-341750D02*
D03*
X313170Y-328080D02*
D03*
X295310Y-328210D02*
D03*
X190820Y-357230D02*
D03*
X222590Y-363130D02*
D03*
X353340Y-337800D02*
D03*
X255090Y256690D02*
D03*
X255980Y214700D02*
D03*
X256430Y181280D02*
D03*
X50260Y258330D02*
D03*
X-32640Y196860D02*
D03*
X-32680Y258040D02*
D03*
X-102810Y-347270D02*
D03*
X66850Y487220D02*
D03*
X-460590Y264610D02*
D03*
X-471590Y253610D02*
D03*
Y264610D02*
D03*
X-460590Y253610D02*
D03*
X154640Y330849D02*
D03*
X245370Y332230D02*
D03*
X206540Y330630D02*
D03*
X356450Y-255010D02*
D03*
X282590Y-253650D02*
D03*
X396520Y-225590D02*
D03*
X-184360Y-299090D02*
D03*
X-51560Y-416740D02*
D03*
X-57360Y-440780D02*
D03*
X-138244Y511370D02*
D03*
X346180Y-27060D02*
D03*
Y-50990D02*
D03*
Y-83660D02*
D03*
Y-109770D02*
D03*
Y-143540D02*
D03*
Y-155810D02*
D03*
Y-95770D02*
D03*
Y-39210D02*
D03*
Y-166540D02*
D03*
X355470Y-172870D02*
D03*
X242090Y-28060D02*
D03*
Y-52210D02*
D03*
Y-83500D02*
D03*
Y-110630D02*
D03*
Y-142870D02*
D03*
Y-40170D02*
D03*
Y-97010D02*
D03*
Y-154830D02*
D03*
X242150Y-165980D02*
D03*
X234020Y-171820D02*
D03*
X-346390Y108610D02*
D03*
X-346170Y166910D02*
D03*
Y154650D02*
D03*
X-346390Y95470D02*
D03*
X-346570Y67180D02*
D03*
Y39510D02*
D03*
Y54040D02*
D03*
X-346170Y179920D02*
D03*
X-201840Y216380D02*
D03*
Y228840D02*
D03*
Y203980D02*
D03*
X-244270Y110690D02*
D03*
Y167160D02*
D03*
Y96810D02*
D03*
Y179620D02*
D03*
Y122880D02*
D03*
Y154760D02*
D03*
Y52520D02*
D03*
Y65540D02*
D03*
Y38670D02*
D03*
X-264350Y369990D02*
D03*
X-252220Y377790D02*
D03*
X-503660Y397760D02*
D03*
X-492975Y397840D02*
D03*
X-482290Y397760D02*
D03*
X-407190Y188450D02*
D03*
X-417765Y233465D02*
D03*
X-365510Y234480D02*
D03*
X-407240Y311870D02*
D03*
X-435740Y270850D02*
D03*
X-426020Y316370D02*
D03*
X-474920Y-16530D02*
D03*
X-464310Y-16540D02*
D03*
X-475110Y-27810D02*
D03*
X-464680Y-27820D02*
D03*
X570884Y187080D02*
D03*
X561118D02*
D03*
X570167Y196815D02*
D03*
X560615D02*
D03*
X560663Y206550D02*
D03*
X572285Y247860D02*
D03*
X582250D02*
D03*
X562320D02*
D03*
X417895Y251675D02*
D03*
X482200Y230770D02*
D03*
X-389410Y-223830D02*
D03*
X-425010Y-225920D02*
D03*
X-429950Y-248990D02*
D03*
X2850Y-34630D02*
D03*
X-82270Y-260270D02*
D03*
X-196990Y-160910D02*
D03*
X144600Y406880D02*
D03*
X227410Y187770D02*
D03*
X227760Y236350D02*
D03*
X333710Y248740D02*
D03*
X-3900Y-98060D02*
D03*
X11540Y-104180D02*
D03*
X39988Y-210679D02*
D03*
X15140Y-261780D02*
D03*
X-71070Y-134810D02*
D03*
X-43090Y-107150D02*
D03*
X-90300Y21730D02*
D03*
X-80860Y47800D02*
D03*
X-535858Y203908D02*
D03*
X-476800Y192640D02*
D03*
X-536600Y251967D02*
D03*
X-488590Y333150D02*
D03*
X-25180Y440630D02*
D03*
X-174970Y458300D02*
D03*
X-61130Y513050D02*
D03*
X-105760Y-147130D02*
D03*
Y-119372D02*
D03*
Y-86810D02*
D03*
X366900Y-241620D02*
D03*
X312500Y273780D02*
D03*
X13510Y11880D02*
D03*
X-10990Y258820D02*
D03*
X-10818Y195970D02*
D03*
X107210Y166940D02*
D03*
X108020Y229330D02*
D03*
X-129140Y-40745D02*
D03*
X-300280Y-149080D02*
D03*
X6230Y516210D02*
D03*
X39590Y-476520D02*
D03*
X-12450Y-419120D02*
D03*
X51460Y-476420D02*
D03*
X25490Y-476520D02*
D03*
X-23420Y475560D02*
D03*
X93080Y485790D02*
D03*
X75726Y481164D02*
D03*
X-207070Y-119450D02*
D03*
X-659460Y73820D02*
D03*
X-235040Y31740D02*
D03*
Y58610D02*
D03*
X-355310Y173320D02*
D03*
Y46900D02*
D03*
Y32370D02*
D03*
X-235040Y45590D02*
D03*
X-360910Y-168250D02*
D03*
X-234930Y147980D02*
D03*
X-235050Y116450D02*
D03*
X-355310Y60040D02*
D03*
X-234930Y172840D02*
D03*
X-235050Y90380D02*
D03*
X-234930Y160380D02*
D03*
X-235050Y104260D02*
D03*
X-355310Y89310D02*
D03*
Y148050D02*
D03*
Y115780D02*
D03*
Y160310D02*
D03*
Y102450D02*
D03*
X-55230Y428460D02*
D03*
X50260Y400610D02*
D03*
X355470Y-45540D02*
D03*
Y-102100D02*
D03*
Y-162140D02*
D03*
X233960Y-160670D02*
D03*
Y-102850D02*
D03*
Y-46010D02*
D03*
X-133000Y542990D02*
D03*
X-485700Y278460D02*
D03*
X-460920Y397760D02*
D03*
X-471605D02*
D03*
X-241290Y378010D02*
D03*
X37130Y447030D02*
D03*
X355470Y-149870D02*
D03*
Y-116100D02*
D03*
Y-89990D02*
D03*
Y-57320D02*
D03*
Y-33390D02*
D03*
X233960Y-148710D02*
D03*
Y-116470D02*
D03*
Y-89340D02*
D03*
Y-58050D02*
D03*
Y-33900D02*
D03*
X172730Y505400D02*
D03*
X-82490Y173320D02*
D03*
X-83710Y258310D02*
D03*
X164190Y154400D02*
D03*
X-114850Y-41670D02*
D03*
X66250Y-4515D02*
D03*
X70460Y-20940D02*
D03*
X-447980Y331030D02*
D03*
X-345420Y317940D02*
D03*
X-435190Y398930D02*
D03*
X-32800Y-106800D02*
D03*
X70000Y-31500D02*
D03*
X20650Y-56680D02*
D03*
X86510Y-135800D02*
D03*
X-35700Y174400D02*
D03*
X200160Y117610D02*
D03*
X82630Y-430320D02*
D03*
X-119000Y-384990D02*
D03*
Y-366440D02*
D03*
X-56950Y-426050D02*
D03*
X-181830Y-415680D02*
D03*
X230720Y-352780D02*
D03*
X262040Y-352200D02*
D03*
M02*
