G04*
G04 #@! TF.GenerationSoftware,Altium Limited,Altium Designer,24.1.2 (44)*
G04*
G04 Layer_Color=4660084*
%FSLAX44Y44*%
%MOMM*%
G71*
G04*
G04 #@! TF.SameCoordinates,55DC127D-BC8F-4358-AF77-4F1C1AD15F99*
G04*
G04*
G04 #@! TF.FilePolarity,Negative*
G04*
G01*
G75*
%ADD13C,0.2540*%
%ADD24R,0.9000X0.9500*%
%ADD81R,1.1000X1.1500*%
%ADD82R,1.1000X1.4000*%
G04:AMPARAMS|DCode=83|XSize=1.1mm|YSize=0.9mm|CornerRadius=0.135mm|HoleSize=0mm|Usage=FLASHONLY|Rotation=270.000|XOffset=0mm|YOffset=0mm|HoleType=Round|Shape=RoundedRectangle|*
%AMROUNDEDRECTD83*
21,1,1.1000,0.6300,0,0,270.0*
21,1,0.8300,0.9000,0,0,270.0*
1,1,0.2700,-0.3150,-0.4150*
1,1,0.2700,-0.3150,0.4150*
1,1,0.2700,0.3150,0.4150*
1,1,0.2700,0.3150,-0.4150*
%
%ADD83ROUNDEDRECTD83*%
G04:AMPARAMS|DCode=128|XSize=1.1mm|YSize=0.9mm|CornerRadius=0.135mm|HoleSize=0mm|Usage=FLASHONLY|Rotation=0.000|XOffset=0mm|YOffset=0mm|HoleType=Round|Shape=RoundedRectangle|*
%AMROUNDEDRECTD128*
21,1,1.1000,0.6300,0,0,0.0*
21,1,0.8300,0.9000,0,0,0.0*
1,1,0.2700,0.4150,-0.3150*
1,1,0.2700,-0.4150,-0.3150*
1,1,0.2700,-0.4150,0.3150*
1,1,0.2700,0.4150,0.3150*
%
%ADD128ROUNDEDRECTD128*%
%ADD134R,2.4700X2.6300*%
%ADD135C,1.7200*%
%ADD136R,1.7200X1.7200*%
%ADD137R,1.7200X1.7200*%
%ADD138C,2.2000*%
%ADD139R,2.4860X2.1050*%
%ADD140O,2.4860X2.1050*%
%ADD141O,2.1050X2.4860*%
%ADD142R,2.1050X2.4860*%
%ADD143R,2.5000X2.5000*%
%ADD144C,2.5000*%
%ADD145R,1.7000X1.7000*%
%ADD146C,1.7000*%
%ADD147C,6.5500*%
%ADD148C,1.2000*%
%ADD149C,4.2000*%
%ADD150P,5.9397X4X165.0*%
%ADD151P,5.9397X4X75.0*%
%ADD152R,4.2000X4.2000*%
%ADD153R,4.2000X4.2000*%
%ADD154P,5.9397X4X105.0*%
%ADD155P,5.9397X4X375.0*%
G04:AMPARAMS|DCode=204|XSize=1.844mm|YSize=0.794mm|CornerRadius=0.2495mm|HoleSize=0mm|Usage=FLASHONLY|Rotation=0.000|XOffset=0mm|YOffset=0mm|HoleType=Round|Shape=RoundedRectangle|*
%AMROUNDEDRECTD204*
21,1,1.8440,0.2950,0,0,0.0*
21,1,1.3450,0.7940,0,0,0.0*
1,1,0.4990,0.6725,-0.1475*
1,1,0.4990,-0.6725,-0.1475*
1,1,0.4990,-0.6725,0.1475*
1,1,0.4990,0.6725,0.1475*
%
%ADD204ROUNDEDRECTD204*%
%ADD205R,1.4954X2.1050*%
%ADD206R,0.8604X1.7494*%
G04:AMPARAMS|DCode=207|XSize=1.7mm|YSize=3.6mm|CornerRadius=0.475mm|HoleSize=0mm|Usage=FLASHONLY|Rotation=270.000|XOffset=0mm|YOffset=0mm|HoleType=Round|Shape=RoundedRectangle|*
%AMROUNDEDRECTD207*
21,1,1.7000,2.6500,0,0,270.0*
21,1,0.7500,3.6000,0,0,270.0*
1,1,0.9500,-1.3250,-0.3750*
1,1,0.9500,-1.3250,0.3750*
1,1,0.9500,1.3250,0.3750*
1,1,0.9500,1.3250,-0.3750*
%
%ADD207ROUNDEDRECTD207*%
%ADD208R,8.2000X10.9000*%
%ADD209R,1.7000X2.9000*%
G04:AMPARAMS|DCode=210|XSize=2.9mm|YSize=1.7mm|CornerRadius=0mm|HoleSize=0mm|Usage=FLASHONLY|Rotation=45.000|XOffset=0mm|YOffset=0mm|HoleType=Round|Shape=Rectangle|*
%AMROTATEDRECTD210*
4,1,4,-0.4243,-1.6264,-1.6264,-0.4243,0.4243,1.6264,1.6264,0.4243,-0.4243,-1.6264,0.0*
%
%ADD210ROTATEDRECTD210*%

G04:AMPARAMS|DCode=211|XSize=10.9mm|YSize=8.2mm|CornerRadius=0mm|HoleSize=0mm|Usage=FLASHONLY|Rotation=240.000|XOffset=0mm|YOffset=0mm|HoleType=Round|Shape=Rectangle|*
%AMROTATEDRECTD211*
4,1,4,-0.8257,6.7698,6.2757,2.6698,0.8257,-6.7698,-6.2757,-2.6698,-0.8257,6.7698,0.0*
%
%ADD211ROTATEDRECTD211*%

G04:AMPARAMS|DCode=212|XSize=1.2mm|YSize=3.6mm|CornerRadius=0.35mm|HoleSize=0mm|Usage=FLASHONLY|Rotation=240.000|XOffset=0mm|YOffset=0mm|HoleType=Round|Shape=RoundedRectangle|*
%AMROUNDEDRECTD212*
21,1,1.2000,2.9000,0,0,240.0*
21,1,0.5000,3.6000,0,0,240.0*
1,1,0.7000,-1.3807,0.5085*
1,1,0.7000,-1.1307,0.9415*
1,1,0.7000,1.3807,-0.5085*
1,1,0.7000,1.1307,-0.9415*
%
%ADD212ROUNDEDRECTD212*%
%ADD213R,10.9000X8.2000*%
G04:AMPARAMS|DCode=214|XSize=1.2mm|YSize=3.6mm|CornerRadius=0.35mm|HoleSize=0mm|Usage=FLASHONLY|Rotation=180.000|XOffset=0mm|YOffset=0mm|HoleType=Round|Shape=RoundedRectangle|*
%AMROUNDEDRECTD214*
21,1,1.2000,2.9000,0,0,180.0*
21,1,0.5000,3.6000,0,0,180.0*
1,1,0.7000,-0.2500,1.4500*
1,1,0.7000,0.2500,1.4500*
1,1,0.7000,0.2500,-1.4500*
1,1,0.7000,-0.2500,-1.4500*
%
%ADD214ROUNDEDRECTD214*%
G04:AMPARAMS|DCode=215|XSize=10.9mm|YSize=8.2mm|CornerRadius=0mm|HoleSize=0mm|Usage=FLASHONLY|Rotation=120.000|XOffset=0mm|YOffset=0mm|HoleType=Round|Shape=Rectangle|*
%AMROTATEDRECTD215*
4,1,4,6.2757,-2.6698,-0.8257,-6.7698,-6.2757,2.6698,0.8257,6.7698,6.2757,-2.6698,0.0*
%
%ADD215ROTATEDRECTD215*%

G04:AMPARAMS|DCode=216|XSize=1.2mm|YSize=3.6mm|CornerRadius=0.35mm|HoleSize=0mm|Usage=FLASHONLY|Rotation=120.000|XOffset=0mm|YOffset=0mm|HoleType=Round|Shape=RoundedRectangle|*
%AMROUNDEDRECTD216*
21,1,1.2000,2.9000,0,0,120.0*
21,1,0.5000,3.6000,0,0,120.0*
1,1,0.7000,1.1307,0.9415*
1,1,0.7000,1.3807,0.5085*
1,1,0.7000,-1.1307,-0.9415*
1,1,0.7000,-1.3807,-0.5085*
%
%ADD216ROUNDEDRECTD216*%
G04:AMPARAMS|DCode=217|XSize=1.2mm|YSize=3.6mm|CornerRadius=0.35mm|HoleSize=0mm|Usage=FLASHONLY|Rotation=90.000|XOffset=0mm|YOffset=0mm|HoleType=Round|Shape=RoundedRectangle|*
%AMROUNDEDRECTD217*
21,1,1.2000,2.9000,0,0,90.0*
21,1,0.5000,3.6000,0,0,90.0*
1,1,0.7000,1.4500,0.2500*
1,1,0.7000,1.4500,-0.2500*
1,1,0.7000,-1.4500,-0.2500*
1,1,0.7000,-1.4500,0.2500*
%
%ADD217ROUNDEDRECTD217*%
G04:AMPARAMS|DCode=218|XSize=2.9mm|YSize=1.7mm|CornerRadius=0mm|HoleSize=0mm|Usage=FLASHONLY|Rotation=135.000|XOffset=0mm|YOffset=0mm|HoleType=Round|Shape=Rectangle|*
%AMROTATEDRECTD218*
4,1,4,1.6264,-0.4243,0.4243,-1.6264,-1.6264,0.4243,-0.4243,1.6264,1.6264,-0.4243,0.0*
%
%ADD218ROTATEDRECTD218*%

D13*
X498459Y-25075D02*
G03*
X498333Y-25977I3160J-901D01*
G01*
X498459Y-25075D02*
G03*
X498333Y-25977I3160J-901D01*
G01*
Y-102177D02*
G03*
X498459Y-103078I3286J0D01*
G01*
X498333Y-102177D02*
G03*
X498459Y-103078I3286J0D01*
G01*
D24*
X-218377Y-215191D02*
D03*
D81*
X-237377D02*
D03*
D82*
X-227877Y-239691D02*
D03*
D83*
X106939Y-292332D02*
D03*
X90939D02*
D03*
Y-243880D02*
D03*
X106939D02*
D03*
X90939Y-276182D02*
D03*
X106939D02*
D03*
X228620Y-243578D02*
D03*
X212620D02*
D03*
X228620Y-281541D02*
D03*
X212620D02*
D03*
X90939Y-260031D02*
D03*
X106939D02*
D03*
X228620Y-262560D02*
D03*
X212620D02*
D03*
X-219965Y-199792D02*
D03*
X-235965D02*
D03*
X-90559Y-183520D02*
D03*
X-74559D02*
D03*
X-74510Y-199930D02*
D03*
X-90510D02*
D03*
X-74869Y-167110D02*
D03*
X-90869D02*
D03*
X-74780Y-150590D02*
D03*
X-90780D02*
D03*
X38001Y-4310D02*
D03*
X54001D02*
D03*
X38001Y-21440D02*
D03*
X54001D02*
D03*
X-50001Y-195250D02*
D03*
X-34001D02*
D03*
Y-211342D02*
D03*
X-50001D02*
D03*
X105501Y-124404D02*
D03*
X121501D02*
D03*
X121500Y-140160D02*
D03*
X105500D02*
D03*
X-49999Y-149418D02*
D03*
X-33999D02*
D03*
X105501Y-108583D02*
D03*
X121501D02*
D03*
D128*
X-64940Y-293180D02*
D03*
Y-309180D02*
D03*
X-15302Y-309540D02*
D03*
Y-293540D02*
D03*
X-31822Y-309180D02*
D03*
Y-293180D02*
D03*
X-48240Y-309180D02*
D03*
Y-293180D02*
D03*
X-81822Y-309180D02*
D03*
Y-293180D02*
D03*
X-461770Y-413231D02*
D03*
Y-397231D02*
D03*
X-437573Y-413231D02*
D03*
Y-397231D02*
D03*
X-17305Y-83808D02*
D03*
Y-67808D02*
D03*
X-69820Y-36820D02*
D03*
Y-20820D02*
D03*
X-52380Y-36690D02*
D03*
Y-20690D02*
D03*
X21790Y-67349D02*
D03*
Y-83349D02*
D03*
X2100Y-67679D02*
D03*
Y-83679D02*
D03*
D134*
X-396530Y-421644D02*
D03*
Y-363224D02*
D03*
D135*
X365400Y427300D02*
D03*
Y452700D02*
D03*
X340000D02*
D03*
Y427300D02*
D03*
X314600D02*
D03*
X272700Y503500D02*
D03*
Y478100D02*
D03*
X247300D02*
D03*
Y503500D02*
D03*
X272700Y452700D02*
D03*
X-247300Y478100D02*
D03*
Y503500D02*
D03*
Y452700D02*
D03*
X-272700Y503500D02*
D03*
Y478100D02*
D03*
X-7Y46990D02*
D03*
Y21590D02*
D03*
X50793Y46990D02*
D03*
X25393D02*
D03*
X-25407D02*
D03*
X-50807D02*
D03*
Y21590D02*
D03*
X-25407D02*
D03*
X25393D02*
D03*
X220596Y-504110D02*
D03*
Y-478710D02*
D03*
X245996D02*
D03*
X220596Y-453310D02*
D03*
X245996Y-504110D02*
D03*
X-25403Y547300D02*
D03*
X25397D02*
D03*
X-3D02*
D03*
X25397Y572700D02*
D03*
X-3D02*
D03*
X-365400Y427300D02*
D03*
X-340000Y452700D02*
D03*
Y427300D02*
D03*
X-314600Y452700D02*
D03*
Y427300D02*
D03*
D136*
X314600Y452700D02*
D03*
X50793Y21590D02*
D03*
X-25403Y572700D02*
D03*
X-365400Y452700D02*
D03*
D137*
X247300D02*
D03*
X-272700D02*
D03*
X245996Y-453310D02*
D03*
D138*
X-252730Y-307340D02*
D03*
X-227330D02*
D03*
X-455930Y-459740D02*
D03*
X-405130D02*
D03*
X-252730D02*
D03*
X-227330D02*
D03*
X-455930Y-307340D02*
D03*
D139*
X298960Y-477700D02*
D03*
X363230D02*
D03*
X184660Y384750D02*
D03*
X-163000Y-177100D02*
D03*
Y-42700D02*
D03*
X158750Y-178100D02*
D03*
X158370Y-44200D02*
D03*
D140*
X298960Y-452300D02*
D03*
X363230D02*
D03*
X184660Y359350D02*
D03*
X-163000Y-151700D02*
D03*
Y-126300D02*
D03*
Y-100900D02*
D03*
Y8100D02*
D03*
Y33500D02*
D03*
Y-17300D02*
D03*
X158750Y-101900D02*
D03*
Y-152700D02*
D03*
Y-127300D02*
D03*
X158370Y-18800D02*
D03*
Y32000D02*
D03*
Y6600D02*
D03*
D141*
X-164400Y-246000D02*
D03*
X-139000D02*
D03*
X316247Y-382000D02*
D03*
X265447D02*
D03*
X290847D02*
D03*
X155957D02*
D03*
X130557D02*
D03*
X181357D02*
D03*
D142*
X-113600Y-246000D02*
D03*
X240047Y-382000D02*
D03*
X105157D02*
D03*
D143*
X81560Y356240D02*
D03*
X-9640Y356470D02*
D03*
X-99450Y356240D02*
D03*
D144*
X121160D02*
D03*
X29960Y356470D02*
D03*
X-59850Y356240D02*
D03*
D145*
X84520Y87440D02*
D03*
D146*
X-95479D02*
D03*
X-75479D02*
D03*
X-55479D02*
D03*
X-35480D02*
D03*
X-15480D02*
D03*
X4520D02*
D03*
X24520D02*
D03*
X44520D02*
D03*
X64520D02*
D03*
X84522Y307438D02*
D03*
X64522D02*
D03*
X44522D02*
D03*
X24522D02*
D03*
X4522D02*
D03*
X-15478D02*
D03*
X-35478D02*
D03*
X-55478D02*
D03*
X-75478D02*
D03*
X-95478D02*
D03*
D147*
X878992Y235525D02*
D03*
X-235525Y878992D02*
D03*
X627852Y168232D02*
D03*
X168232Y627852D02*
D03*
X643467Y643467D02*
D03*
X235525Y878992D02*
D03*
Y-878992D02*
D03*
X643467Y-643467D02*
D03*
X459619Y-459619D02*
D03*
X878992Y-235525D02*
D03*
X-627852Y-168232D02*
D03*
X-643467Y-643467D02*
D03*
X-235525Y-878992D02*
D03*
X-168232Y-627852D02*
D03*
X-878992Y235525D02*
D03*
X-643467Y643467D02*
D03*
X-459619Y459619D02*
D03*
X-878992Y-235525D02*
D03*
D148*
X878992Y258385D02*
D03*
X856133Y235525D02*
D03*
X878992Y212665D02*
D03*
X901852Y235525D02*
D03*
X895157Y251690D02*
D03*
X862828D02*
D03*
Y219361D02*
D03*
X895157D02*
D03*
X-235525Y901852D02*
D03*
X-258385Y878992D02*
D03*
X-235525Y856133D02*
D03*
X-212665Y878992D02*
D03*
X-219361Y895157D02*
D03*
X-251690D02*
D03*
Y862828D02*
D03*
X-219361D02*
D03*
X627852Y191092D02*
D03*
X604992Y168232D02*
D03*
X627852Y145372D02*
D03*
X650712Y168232D02*
D03*
X644016Y184397D02*
D03*
X611687Y184397D02*
D03*
Y152068D02*
D03*
X644016Y152068D02*
D03*
X168232Y650712D02*
D03*
X145372Y627852D02*
D03*
X168232Y604992D02*
D03*
X191092Y627852D02*
D03*
X184397Y644016D02*
D03*
X152068Y644016D02*
D03*
X152068Y611687D02*
D03*
X184397Y611687D02*
D03*
X643467Y666327D02*
D03*
X620607Y643467D02*
D03*
X643467Y620607D02*
D03*
X666327Y643467D02*
D03*
X659632Y659632D02*
D03*
X627303D02*
D03*
Y627303D02*
D03*
X659632Y627303D02*
D03*
X235525Y901852D02*
D03*
X212665Y878992D02*
D03*
X235525Y856133D02*
D03*
X258385Y878992D02*
D03*
X251690Y895157D02*
D03*
X219361D02*
D03*
Y862828D02*
D03*
X251690D02*
D03*
X235525Y-856133D02*
D03*
X212665Y-878992D02*
D03*
X235525Y-901852D02*
D03*
X258385Y-878992D02*
D03*
X251690Y-862828D02*
D03*
X219361D02*
D03*
X219361Y-895157D02*
D03*
X251690D02*
D03*
X659632Y-659632D02*
D03*
X627303Y-659632D02*
D03*
Y-627303D02*
D03*
X659632Y-627303D02*
D03*
X666327Y-643467D02*
D03*
X643467Y-666327D02*
D03*
X620607Y-643467D02*
D03*
X643467Y-620607D02*
D03*
X459620Y-436759D02*
D03*
X436760Y-459619D02*
D03*
X459620Y-482479D02*
D03*
X482479Y-459619D02*
D03*
X475784Y-443455D02*
D03*
X443455Y-443455D02*
D03*
X443455Y-475784D02*
D03*
X475784Y-475784D02*
D03*
X878992Y-212665D02*
D03*
X856133Y-235525D02*
D03*
X878992Y-258385D02*
D03*
X901852Y-235525D02*
D03*
X895157Y-219361D02*
D03*
X862828D02*
D03*
Y-251690D02*
D03*
X895157D02*
D03*
X-627852Y-145372D02*
D03*
X-650712Y-168232D02*
D03*
X-627852Y-191092D02*
D03*
X-604992Y-168232D02*
D03*
X-611687Y-152068D02*
D03*
X-644016D02*
D03*
Y-184397D02*
D03*
X-611687D02*
D03*
X-627303Y-659632D02*
D03*
X-659632Y-659632D02*
D03*
X-659632Y-627303D02*
D03*
X-627303D02*
D03*
X-620607Y-643467D02*
D03*
X-643467Y-666327D02*
D03*
X-666327Y-643467D02*
D03*
X-643467Y-620607D02*
D03*
X-219361Y-895157D02*
D03*
X-251690Y-895157D02*
D03*
Y-862828D02*
D03*
X-219361Y-862828D02*
D03*
X-212665Y-878992D02*
D03*
X-235525Y-901852D02*
D03*
X-258385Y-878992D02*
D03*
X-235525Y-856133D02*
D03*
X-168232Y-604992D02*
D03*
X-191092Y-627852D02*
D03*
X-168232Y-650712D02*
D03*
X-145372Y-627852D02*
D03*
X-152068Y-611687D02*
D03*
X-184397D02*
D03*
Y-644016D02*
D03*
X-152068D02*
D03*
X-878992Y258385D02*
D03*
X-901852Y235525D02*
D03*
X-878992Y212665D02*
D03*
X-856133Y235525D02*
D03*
X-862828Y251690D02*
D03*
X-895157Y251690D02*
D03*
X-895157Y219361D02*
D03*
X-862828D02*
D03*
X-627303Y627303D02*
D03*
X-659632Y627303D02*
D03*
Y659632D02*
D03*
X-627303Y659632D02*
D03*
X-620607Y643467D02*
D03*
X-643467Y620607D02*
D03*
X-666327Y643467D02*
D03*
X-643467Y666327D02*
D03*
X-443455Y443455D02*
D03*
X-475784Y443455D02*
D03*
X-475784Y475784D02*
D03*
X-443455Y475784D02*
D03*
X-436759Y459619D02*
D03*
X-459619Y436759D02*
D03*
X-482479Y459619D02*
D03*
X-459619Y482480D02*
D03*
X-862828Y-251690D02*
D03*
X-895157D02*
D03*
X-895157Y-219361D02*
D03*
X-862828Y-219361D02*
D03*
X-856133Y-235525D02*
D03*
X-878992Y-258385D02*
D03*
X-901852Y-235525D02*
D03*
X-878992Y-212665D02*
D03*
D149*
X-420000Y727461D02*
D03*
X727461Y420000D02*
D03*
X840000Y0D02*
D03*
X0Y840000D02*
D03*
X420000Y727461D02*
D03*
Y-727461D02*
D03*
X727461Y-420000D02*
D03*
X0Y-840000D02*
D03*
X-840000Y0D02*
D03*
X-727461Y-420000D02*
D03*
X-420000Y-727461D02*
D03*
X-727461Y420000D02*
D03*
D150*
X-370000Y640859D02*
D03*
X370000Y-640859D02*
D03*
D151*
X640859Y370000D02*
D03*
X-640859Y-370000D02*
D03*
D152*
X740000Y-0D02*
D03*
X-740000Y0D02*
D03*
D153*
X0Y740000D02*
D03*
X-0Y-740000D02*
D03*
D154*
X370000Y640859D02*
D03*
X-370000Y-640859D02*
D03*
D155*
X640859Y-370000D02*
D03*
X-640859Y370000D02*
D03*
D204*
X190466Y-282850D02*
D03*
Y-270150D02*
D03*
Y-257450D02*
D03*
Y-244750D02*
D03*
X137766D02*
D03*
Y-257450D02*
D03*
Y-270150D02*
D03*
Y-282850D02*
D03*
D205*
X-74900Y-242012D02*
D03*
X-18900D02*
D03*
D206*
X-61900Y-267812D02*
D03*
X-51900D02*
D03*
X-31900D02*
D03*
X-41900D02*
D03*
D207*
X647500Y-37032D02*
D03*
Y-88340D02*
D03*
X647100Y93790D02*
D03*
Y42482D02*
D03*
D208*
X537450Y-64174D02*
D03*
X536610Y66068D02*
D03*
X-550000Y-62000D02*
D03*
X-549820Y70430D02*
D03*
D209*
X752474Y130224D02*
D03*
X802474D02*
D03*
X761716Y64182D02*
D03*
X811716D02*
D03*
D210*
X-545618Y570833D02*
D03*
X-580973Y606189D02*
D03*
X-534998Y510329D02*
D03*
X-570353Y545685D02*
D03*
D211*
X507361Y-242660D02*
D03*
D212*
X615984Y-274303D02*
D03*
X590330Y-318737D02*
D03*
D213*
X85628Y-549758D02*
D03*
X-44014Y-549380D02*
D03*
D214*
X113250Y-658898D02*
D03*
X61942D02*
D03*
X-68270Y-658890D02*
D03*
X-16962D02*
D03*
D215*
X-507543Y-238182D02*
D03*
D216*
X-588833Y-316249D02*
D03*
X-614487Y-271815D02*
D03*
D217*
X-659103Y-37231D02*
D03*
Y-88539D02*
D03*
X-658480Y94300D02*
D03*
Y42992D02*
D03*
D218*
X-577365Y-538028D02*
D03*
X-612721Y-573383D02*
D03*
X-517402Y-529768D02*
D03*
X-552757Y-565123D02*
D03*
M02*
