G04*
G04 #@! TF.GenerationSoftware,Altium Limited,Altium Designer,24.1.2 (44)*
G04*
G04 Layer_Color=128*
%FSLAX44Y44*%
%MOMM*%
G71*
G04*
G04 #@! TF.SameCoordinates,55DC127D-BC8F-4358-AF77-4F1C1AD15F99*
G04*
G04*
G04 #@! TF.FilePolarity,Positive*
G04*
G01*
G75*
%ADD16C,0.1270*%
D16*
X360300Y427300D02*
X370500D01*
X365400Y422200D02*
Y432400D01*
X360300Y452700D02*
X370500D01*
X365400Y447600D02*
Y457800D01*
X309500Y452700D02*
X319700D01*
X314600Y447600D02*
Y457800D01*
X334900Y452700D02*
X345100D01*
X340000Y447600D02*
Y457800D01*
X334900Y427300D02*
X345100D01*
X340000Y422200D02*
Y432400D01*
X309500Y427300D02*
X319700D01*
X314600Y422200D02*
Y432400D01*
X267600Y503500D02*
X277800D01*
X272700Y498400D02*
Y508600D01*
X267600Y478100D02*
X277800D01*
X272700Y473000D02*
Y483200D01*
X242200Y478100D02*
X252400D01*
X247300Y473000D02*
Y483200D01*
X242200Y503500D02*
X252400D01*
X247300Y498400D02*
Y508600D01*
X267600Y452700D02*
X277800D01*
X272700Y447600D02*
Y457800D01*
X242200Y452700D02*
X252400D01*
X247300Y447600D02*
Y457800D01*
X-252400Y478100D02*
X-242200D01*
X-247300Y473000D02*
Y483200D01*
X-252400Y503500D02*
X-242200D01*
X-247300Y498400D02*
Y508600D01*
X-252400Y452700D02*
X-242200D01*
X-247300Y447600D02*
Y457800D01*
X-277800Y503500D02*
X-267600D01*
X-272700Y498400D02*
Y508600D01*
X-277800Y478100D02*
X-267600D01*
X-272700Y473000D02*
Y483200D01*
X-277800Y452700D02*
X-267600D01*
X-272700Y447600D02*
Y457800D01*
X-257230Y-307340D02*
X-248230D01*
X-252730Y-311840D02*
Y-302840D01*
X-231830Y-307340D02*
X-222830D01*
X-227330Y-311840D02*
Y-302840D01*
X-460430Y-459740D02*
X-451430D01*
X-455930Y-464240D02*
Y-455240D01*
X-409630Y-459740D02*
X-400630D01*
X-405130Y-464240D02*
Y-455240D01*
X-257230Y-459740D02*
X-248230D01*
X-252730Y-464240D02*
Y-455240D01*
X-231830Y-459740D02*
X-222830D01*
X-227330Y-464240D02*
Y-455240D01*
X-460430Y-307340D02*
X-451430D01*
X-455930Y-311840D02*
Y-302840D01*
X294642Y-477700D02*
X303278D01*
X298960Y-482018D02*
Y-473382D01*
X294642Y-452300D02*
X303278D01*
X298960Y-456618D02*
Y-447982D01*
X-168718Y-246000D02*
X-160082D01*
X-164400Y-250318D02*
Y-241682D01*
X-117918Y-246000D02*
X-109282D01*
X-113600Y-250318D02*
Y-241682D01*
X-143318Y-246000D02*
X-134682D01*
X-139000Y-250318D02*
Y-241682D01*
X73310Y356240D02*
X89810D01*
X81560Y347990D02*
Y364490D01*
X112910Y356240D02*
X129410D01*
X121160Y347990D02*
Y364490D01*
X-5107Y46990D02*
X5093D01*
X-7Y41890D02*
Y52090D01*
X-5107Y21590D02*
X5093D01*
X-7Y16490D02*
Y26690D01*
X45693Y46990D02*
X55893D01*
X50793Y41890D02*
Y52090D01*
X20293Y46990D02*
X30493D01*
X25393Y41890D02*
Y52090D01*
X-30507Y46990D02*
X-20307D01*
X-25407Y41890D02*
Y52090D01*
X-55907Y46990D02*
X-45707D01*
X-50807Y41890D02*
Y52090D01*
X-55907Y21590D02*
X-45707D01*
X-50807Y16490D02*
Y26690D01*
X-30507Y21590D02*
X-20307D01*
X-25407Y16490D02*
Y26690D01*
X20293Y21590D02*
X30493D01*
X25393Y16490D02*
Y26690D01*
X45693Y21590D02*
X55893D01*
X50793Y16490D02*
Y26690D01*
X80520Y87440D02*
X88520D01*
X84520Y83440D02*
Y91440D01*
X-99480Y87440D02*
X-91480D01*
X-95479Y83440D02*
Y91440D01*
X-79479Y87440D02*
X-71480D01*
X-75479Y83440D02*
Y91440D01*
X-59479Y87440D02*
X-51480D01*
X-55479Y83440D02*
Y91440D01*
X-39480Y87440D02*
X-31480D01*
X-35480Y83440D02*
Y91440D01*
X-19480Y87440D02*
X-11480D01*
X-15480Y83440D02*
Y91440D01*
X520Y87440D02*
X8520D01*
X4520Y83440D02*
Y91440D01*
X20520Y87440D02*
X28520D01*
X24520Y83440D02*
Y91440D01*
X40520Y87440D02*
X48520D01*
X44520Y83440D02*
Y91440D01*
X60520Y87440D02*
X68520D01*
X64520Y83440D02*
Y91440D01*
X80522Y307438D02*
X88521D01*
X84522Y303438D02*
Y311438D01*
X60522Y307438D02*
X68522D01*
X64522Y303438D02*
Y311438D01*
X40522Y307438D02*
X48522D01*
X44522Y303438D02*
Y311438D01*
X20522Y307438D02*
X28522D01*
X24522Y303438D02*
Y311438D01*
X522Y307438D02*
X8522D01*
X4522Y303438D02*
Y311438D01*
X-19478Y307438D02*
X-11478D01*
X-15478Y303438D02*
Y311438D01*
X-39478Y307438D02*
X-31478D01*
X-35478Y303438D02*
Y311438D01*
X-59478Y307438D02*
X-51478D01*
X-55478Y303438D02*
Y311438D01*
X-79478Y307438D02*
X-71478D01*
X-75478Y303438D02*
Y311438D01*
X-99478Y307438D02*
X-91478D01*
X-95478Y303438D02*
Y311438D01*
X863092Y235525D02*
X894893D01*
X878992Y219625D02*
Y251425D01*
X875492Y258385D02*
X882493D01*
X878992Y254885D02*
Y261885D01*
X852633Y235525D02*
X859632D01*
X856133Y232025D02*
Y239025D01*
X875492Y212665D02*
X882493D01*
X878992Y209165D02*
Y216165D01*
X898353Y235525D02*
X905352D01*
X901852Y232025D02*
Y239025D01*
X891657Y251690D02*
X898657D01*
X895157Y248190D02*
Y255190D01*
X859328Y251690D02*
X866328D01*
X862828Y248190D02*
Y255190D01*
X859328Y219361D02*
X866328D01*
X862828Y215861D02*
Y222861D01*
X891657Y219361D02*
X898657D01*
X895157Y215861D02*
Y222861D01*
X-430000Y727461D02*
X-410000D01*
X-420000Y717461D02*
Y737461D01*
X-380000Y640859D02*
X-360000D01*
X-370000Y630859D02*
Y650859D01*
X215496Y-504110D02*
X225696D01*
X220596Y-509210D02*
Y-499010D01*
X215496Y-478710D02*
X225696D01*
X220596Y-483810D02*
Y-473610D01*
X240896Y-478710D02*
X251096D01*
X245996Y-483810D02*
Y-473610D01*
X215496Y-453310D02*
X225696D01*
X220596Y-458410D02*
Y-448210D01*
X240896Y-453310D02*
X251096D01*
X245996Y-458410D02*
Y-448210D01*
X240896Y-504110D02*
X251096D01*
X245996Y-509210D02*
Y-499010D01*
X311929Y-382000D02*
X320565D01*
X316247Y-386318D02*
Y-377682D01*
X235729Y-382000D02*
X244365D01*
X240047Y-386318D02*
Y-377682D01*
X261129Y-382000D02*
X269765D01*
X265447Y-386318D02*
Y-377682D01*
X286529Y-382000D02*
X295165D01*
X290847Y-386318D02*
Y-377682D01*
X151639Y-382000D02*
X160275D01*
X155957Y-386318D02*
Y-377682D01*
X126239Y-382000D02*
X134875D01*
X130557Y-386318D02*
Y-377682D01*
X100839Y-382000D02*
X109475D01*
X105157Y-386318D02*
Y-377682D01*
X177039Y-382000D02*
X185675D01*
X181357Y-386318D02*
Y-377682D01*
X358912Y-452300D02*
X367548D01*
X363230Y-456618D02*
Y-447982D01*
X358912Y-477700D02*
X367548D01*
X363230Y-482018D02*
Y-473382D01*
X180342Y384750D02*
X188978D01*
X184660Y380432D02*
Y389068D01*
X180342Y359350D02*
X188978D01*
X184660Y355032D02*
Y363668D01*
X-17890Y356470D02*
X-1390D01*
X-9640Y348220D02*
Y364720D01*
X21710Y356470D02*
X38210D01*
X29960Y348220D02*
Y364720D01*
X-68100Y356240D02*
X-51600D01*
X-59850Y347990D02*
Y364490D01*
X-107700Y356240D02*
X-91200D01*
X-99450Y347990D02*
Y364490D01*
X-251425Y878992D02*
X-219625D01*
X-235525Y863092D02*
Y894893D01*
X-239025Y901852D02*
X-232025D01*
X-235525Y898353D02*
Y905352D01*
X-261885Y878992D02*
X-254885D01*
X-258385Y875492D02*
Y882493D01*
X-239025Y856133D02*
X-232025D01*
X-235525Y852633D02*
Y859632D01*
X-216165Y878992D02*
X-209165D01*
X-212665Y875492D02*
Y882493D01*
X-222861Y895157D02*
X-215861D01*
X-219361Y891657D02*
Y898657D01*
X-255190Y895157D02*
X-248190D01*
X-251690Y891657D02*
Y898657D01*
X-255190Y862828D02*
X-248190D01*
X-251690Y859328D02*
Y866328D01*
X-222861Y862828D02*
X-215861D01*
X-219361Y859328D02*
Y866328D01*
X717461Y420000D02*
X737461D01*
X727461Y410000D02*
Y430000D01*
X630859Y370000D02*
X650859D01*
X640859Y360000D02*
Y380000D01*
X611952Y168232D02*
X643752D01*
X627852Y152332D02*
Y184132D01*
X624352Y191092D02*
X631352D01*
X627852Y187592D02*
Y194592D01*
X601492Y168232D02*
X608492D01*
X604992Y164732D02*
Y171732D01*
X624352Y145372D02*
X631352D01*
X627852Y141872D02*
Y148872D01*
X647212Y168232D02*
X654212D01*
X650712Y164732D02*
Y171732D01*
X640516Y184397D02*
X647516D01*
X644016Y180897D02*
Y187897D01*
X608187Y184397D02*
X615187D01*
X611687Y180897D02*
Y187897D01*
X608187Y152068D02*
X615187D01*
X611687Y148568D02*
Y155568D01*
X640516Y152068D02*
X647516D01*
X644016Y148568D02*
Y155568D01*
X830000Y0D02*
X850000D01*
X840000Y-10000D02*
Y10000D01*
X730000Y-0D02*
X750000D01*
X740000Y-10000D02*
Y10000D01*
X-10000Y740000D02*
X10000D01*
X0Y730000D02*
Y750000D01*
X-10000Y840000D02*
X10000D01*
X0Y830000D02*
Y850000D01*
X152332Y627852D02*
X184132D01*
X168232Y611952D02*
Y643752D01*
X164732Y650712D02*
X171732D01*
X168232Y647212D02*
Y654212D01*
X141873Y627852D02*
X148872D01*
X145372Y624352D02*
Y631352D01*
X164732Y604992D02*
X171732D01*
X168232Y601492D02*
Y608492D01*
X187592Y627852D02*
X194592D01*
X191092Y624352D02*
Y631352D01*
X180897Y644016D02*
X187897D01*
X184397Y640516D02*
Y647516D01*
X148568Y644016D02*
X155568D01*
X152068Y640516D02*
Y647516D01*
X148568Y611687D02*
X155568D01*
X152068Y608187D02*
Y615187D01*
X180897Y611687D02*
X187897D01*
X184397Y608187D02*
Y615187D01*
X627567Y643467D02*
X659367D01*
X643467Y627567D02*
Y659367D01*
X639967Y666327D02*
X646967D01*
X643467Y662827D02*
Y669827D01*
X617107Y643467D02*
X624107D01*
X620607Y639967D02*
Y646967D01*
X639967Y620607D02*
X646967D01*
X643467Y617107D02*
Y624107D01*
X662827Y643467D02*
X669827D01*
X666327Y639967D02*
Y646967D01*
X656132Y659632D02*
X663132D01*
X659632Y656132D02*
Y663132D01*
X623803Y659632D02*
X630803D01*
X627303Y656132D02*
Y663132D01*
X623803Y627303D02*
X630803D01*
X627303Y623803D02*
Y630803D01*
X656132Y627303D02*
X663132D01*
X659632Y623803D02*
Y630803D01*
X360000Y640859D02*
X380000D01*
X370000Y630859D02*
Y650859D01*
X410000Y727461D02*
X430000D01*
X420000Y717461D02*
Y737461D01*
X219625Y878992D02*
X251425D01*
X235525Y863092D02*
Y894893D01*
X232025Y901852D02*
X239025D01*
X235525Y898353D02*
Y905352D01*
X209165Y878992D02*
X216165D01*
X212665Y875492D02*
Y882493D01*
X232025Y856133D02*
X239025D01*
X235525Y852633D02*
Y859632D01*
X254885Y878992D02*
X261885D01*
X258385Y875492D02*
Y882493D01*
X248190Y895157D02*
X255190D01*
X251690Y891657D02*
Y898657D01*
X215861Y895157D02*
X222861D01*
X219361Y891657D02*
Y898657D01*
X215861Y862828D02*
X222861D01*
X219361Y859328D02*
Y866328D01*
X248190Y862828D02*
X255190D01*
X251690Y859328D02*
Y866328D01*
X219625Y-878992D02*
X251425D01*
X235525Y-894893D02*
Y-863092D01*
X232025Y-856133D02*
X239025D01*
X235525Y-859632D02*
Y-852633D01*
X209165Y-878992D02*
X216165D01*
X212665Y-882493D02*
Y-875492D01*
X232025Y-901852D02*
X239025D01*
X235525Y-905352D02*
Y-898353D01*
X254885Y-878992D02*
X261885D01*
X258385Y-882493D02*
Y-875492D01*
X248190Y-862828D02*
X255190D01*
X251690Y-866328D02*
Y-859328D01*
X215861Y-862828D02*
X222861D01*
X219361Y-866328D02*
Y-859328D01*
X215861Y-895157D02*
X222861D01*
X219361Y-898657D02*
Y-891657D01*
X248190Y-895157D02*
X255190D01*
X251690Y-898657D02*
Y-891657D01*
X360000Y-640859D02*
X380000D01*
X370000Y-650859D02*
Y-630859D01*
X410000Y-727461D02*
X430000D01*
X420000Y-737461D02*
Y-717461D01*
X656132Y-659632D02*
X663132D01*
X659632Y-663132D02*
Y-656132D01*
X623803Y-659632D02*
X630803D01*
X627303Y-663132D02*
Y-656132D01*
X623803Y-627303D02*
X630803D01*
X627303Y-630803D02*
Y-623803D01*
X656132Y-627303D02*
X663132D01*
X659632Y-630803D02*
Y-623803D01*
X662827Y-643467D02*
X669827D01*
X666327Y-646967D02*
Y-639967D01*
X639967Y-666327D02*
X646967D01*
X643467Y-669827D02*
Y-662827D01*
X617107Y-643467D02*
X624107D01*
X620607Y-646967D02*
Y-639967D01*
X639967Y-620607D02*
X646967D01*
X643467Y-624107D02*
Y-617107D01*
X627567Y-643467D02*
X659367D01*
X643467Y-659367D02*
Y-627567D01*
X443719Y-459619D02*
X475519D01*
X459619Y-475519D02*
Y-443719D01*
X456120Y-436759D02*
X463120D01*
X459620Y-440259D02*
Y-433259D01*
X433260Y-459619D02*
X440260D01*
X436760Y-463119D02*
Y-456119D01*
X456120Y-482479D02*
X463120D01*
X459620Y-485979D02*
Y-478979D01*
X478979Y-459619D02*
X485979D01*
X482479Y-463119D02*
Y-456119D01*
X472284Y-443455D02*
X479284D01*
X475784Y-446955D02*
Y-439955D01*
X439955Y-443455D02*
X446955D01*
X443455Y-446955D02*
Y-439955D01*
X439955Y-475784D02*
X446955D01*
X443455Y-479284D02*
Y-472284D01*
X472284Y-475784D02*
X479284D01*
X475784Y-479284D02*
Y-472284D01*
X630859Y-370000D02*
X650859D01*
X640859Y-380000D02*
Y-360000D01*
X717461Y-420000D02*
X737461D01*
X727461Y-430000D02*
Y-410000D01*
X863092Y-235525D02*
X894893D01*
X878992Y-251425D02*
Y-219625D01*
X875492Y-212665D02*
X882493D01*
X878992Y-216165D02*
Y-209165D01*
X852633Y-235525D02*
X859632D01*
X856133Y-239025D02*
Y-232025D01*
X875492Y-258385D02*
X882493D01*
X878992Y-261885D02*
Y-254885D01*
X898353Y-235525D02*
X905352D01*
X901852Y-239025D02*
Y-232025D01*
X891657Y-219361D02*
X898657D01*
X895157Y-222861D02*
Y-215861D01*
X859328Y-219361D02*
X866328D01*
X862828Y-222861D02*
Y-215861D01*
X859328Y-251690D02*
X866328D01*
X862828Y-255190D02*
Y-248190D01*
X891657Y-251690D02*
X898657D01*
X895157Y-255190D02*
Y-248190D01*
X-10000Y-740000D02*
X10000D01*
X-0Y-750000D02*
Y-730000D01*
X-10000Y-840000D02*
X10000D01*
X0Y-850000D02*
Y-830000D01*
X-750000Y0D02*
X-730000D01*
X-740000Y-10000D02*
Y10000D01*
X-850000Y0D02*
X-830000D01*
X-840000Y-10000D02*
Y10000D01*
X-643752Y-168232D02*
X-611952D01*
X-627852Y-184132D02*
Y-152332D01*
X-631352Y-145372D02*
X-624352D01*
X-627852Y-148872D02*
Y-141872D01*
X-654212Y-168232D02*
X-647212D01*
X-650712Y-171732D02*
Y-164732D01*
X-631352Y-191092D02*
X-624352D01*
X-627852Y-194592D02*
Y-187592D01*
X-608492Y-168232D02*
X-601492D01*
X-604992Y-171732D02*
Y-164732D01*
X-615187Y-152068D02*
X-608187D01*
X-611687Y-155568D02*
Y-148568D01*
X-647516Y-152068D02*
X-640516D01*
X-644016Y-155568D02*
Y-148568D01*
X-647516Y-184397D02*
X-640516D01*
X-644016Y-187897D02*
Y-180897D01*
X-615187Y-184397D02*
X-608187D01*
X-611687Y-187897D02*
Y-180897D01*
X-630803Y-659632D02*
X-623803D01*
X-627303Y-663132D02*
Y-656132D01*
X-663132Y-659632D02*
X-656132D01*
X-659632Y-663132D02*
Y-656132D01*
X-663132Y-627303D02*
X-656132D01*
X-659632Y-630803D02*
Y-623803D01*
X-630803Y-627303D02*
X-623803D01*
X-627303Y-630803D02*
Y-623803D01*
X-624107Y-643467D02*
X-617107D01*
X-620607Y-646967D02*
Y-639967D01*
X-646967Y-666327D02*
X-639967D01*
X-643467Y-669827D02*
Y-662827D01*
X-669827Y-643467D02*
X-662827D01*
X-666327Y-646967D02*
Y-639967D01*
X-646967Y-620607D02*
X-639967D01*
X-643467Y-624107D02*
Y-617107D01*
X-659367Y-643467D02*
X-627567D01*
X-643467Y-659367D02*
Y-627567D01*
X-650859Y-370000D02*
X-630859D01*
X-640859Y-380000D02*
Y-360000D01*
X-737461Y-420000D02*
X-717461D01*
X-727461Y-430000D02*
Y-410000D01*
X-380000Y-640859D02*
X-360000D01*
X-370000Y-650859D02*
Y-630859D01*
X-430000Y-727461D02*
X-410000D01*
X-420000Y-737461D02*
Y-717461D01*
X-222861Y-895157D02*
X-215861D01*
X-219361Y-898657D02*
Y-891657D01*
X-255190Y-895157D02*
X-248190D01*
X-251690Y-898657D02*
Y-891657D01*
X-255190Y-862828D02*
X-248190D01*
X-251690Y-866328D02*
Y-859328D01*
X-222861Y-862828D02*
X-215861D01*
X-219361Y-866328D02*
Y-859328D01*
X-216165Y-878992D02*
X-209165D01*
X-212665Y-882493D02*
Y-875492D01*
X-239025Y-901852D02*
X-232025D01*
X-235525Y-905352D02*
Y-898353D01*
X-261885Y-878992D02*
X-254885D01*
X-258385Y-882493D02*
Y-875492D01*
X-239025Y-856133D02*
X-232025D01*
X-235525Y-859632D02*
Y-852633D01*
X-251425Y-878992D02*
X-219625D01*
X-235525Y-894893D02*
Y-863092D01*
X-184132Y-627852D02*
X-152332D01*
X-168232Y-643752D02*
Y-611952D01*
X-171732Y-604992D02*
X-164732D01*
X-168232Y-608492D02*
Y-601492D01*
X-194592Y-627852D02*
X-187592D01*
X-191092Y-631352D02*
Y-624352D01*
X-171732Y-650712D02*
X-164732D01*
X-168232Y-654212D02*
Y-647212D01*
X-148872Y-627852D02*
X-141872D01*
X-145372Y-631352D02*
Y-624352D01*
X-155568Y-611687D02*
X-148568D01*
X-152068Y-615187D02*
Y-608187D01*
X-187897Y-611687D02*
X-180897D01*
X-184397Y-615187D02*
Y-608187D01*
X-187897Y-644016D02*
X-180897D01*
X-184397Y-647516D02*
Y-640516D01*
X-155568Y-644016D02*
X-148568D01*
X-152068Y-647516D02*
Y-640516D01*
X-894893Y235525D02*
X-863092D01*
X-878992Y219625D02*
Y251425D01*
X-882493Y258385D02*
X-875492D01*
X-878992Y254885D02*
Y261885D01*
X-905352Y235525D02*
X-898353D01*
X-901852Y232025D02*
Y239025D01*
X-882493Y212665D02*
X-875492D01*
X-878992Y209165D02*
Y216165D01*
X-859632Y235525D02*
X-852633D01*
X-856133Y232025D02*
Y239025D01*
X-866328Y251690D02*
X-859328D01*
X-862828Y248190D02*
Y255190D01*
X-898657Y251690D02*
X-891657D01*
X-895157Y248190D02*
Y255190D01*
X-898657Y219361D02*
X-891657D01*
X-895157Y215861D02*
Y222861D01*
X-866328Y219361D02*
X-859328D01*
X-862828Y215861D02*
Y222861D01*
X-630803Y627303D02*
X-623803D01*
X-627303Y623803D02*
Y630803D01*
X-663132Y627303D02*
X-656132D01*
X-659632Y623803D02*
Y630803D01*
X-663132Y659632D02*
X-656132D01*
X-659632Y656132D02*
Y663132D01*
X-630803Y659632D02*
X-623803D01*
X-627303Y656132D02*
Y663132D01*
X-624107Y643467D02*
X-617107D01*
X-620607Y639967D02*
Y646967D01*
X-646967Y620607D02*
X-639967D01*
X-643467Y617107D02*
Y624107D01*
X-669827Y643467D02*
X-662827D01*
X-666327Y639967D02*
Y646967D01*
X-646967Y666327D02*
X-639967D01*
X-643467Y662827D02*
Y669827D01*
X-659367Y643467D02*
X-627567D01*
X-643467Y627567D02*
Y659367D01*
X-446955Y443455D02*
X-439955D01*
X-443455Y439955D02*
Y446955D01*
X-479284Y443455D02*
X-472284D01*
X-475784Y439955D02*
Y446955D01*
X-479284Y475784D02*
X-472284D01*
X-475784Y472284D02*
Y479284D01*
X-446955Y475784D02*
X-439955D01*
X-443455Y472284D02*
Y479283D01*
X-440260Y459619D02*
X-433260D01*
X-436759Y456119D02*
Y463119D01*
X-463119Y436759D02*
X-456119D01*
X-459619Y433259D02*
Y440259D01*
X-485979Y459619D02*
X-478979D01*
X-482479Y456119D02*
Y463119D01*
X-463119Y482480D02*
X-456119D01*
X-459619Y478979D02*
Y485979D01*
X-475519Y459619D02*
X-443719D01*
X-459619Y443719D02*
Y475519D01*
X-866328Y-251690D02*
X-859328D01*
X-862828Y-255190D02*
Y-248190D01*
X-898657Y-251690D02*
X-891657D01*
X-895157Y-255190D02*
Y-248190D01*
X-898657Y-219361D02*
X-891657D01*
X-895157Y-222861D02*
Y-215861D01*
X-866328Y-219361D02*
X-859328D01*
X-862828Y-222861D02*
Y-215861D01*
X-859632Y-235525D02*
X-852633D01*
X-856133Y-239025D02*
Y-232025D01*
X-882493Y-258385D02*
X-875492D01*
X-878992Y-261885D02*
Y-254885D01*
X-905352Y-235525D02*
X-898353D01*
X-901852Y-239025D02*
Y-232025D01*
X-882493Y-212665D02*
X-875492D01*
X-878992Y-216165D02*
Y-209165D01*
X-894893Y-235525D02*
X-863092D01*
X-878992Y-251425D02*
Y-219625D01*
X-650859Y370000D02*
X-630859D01*
X-640859Y360000D02*
Y380000D01*
X-737461Y420000D02*
X-717461D01*
X-727461Y410000D02*
Y430000D01*
X-167318Y-177100D02*
X-158682D01*
X-163000Y-181418D02*
Y-172782D01*
X-167318Y-151700D02*
X-158682D01*
X-163000Y-156018D02*
Y-147382D01*
X-167318Y-126300D02*
X-158682D01*
X-163000Y-130618D02*
Y-121982D01*
X-167318Y-100900D02*
X-158682D01*
X-163000Y-105218D02*
Y-96582D01*
X-167318Y-42700D02*
X-158682D01*
X-163000Y-47018D02*
Y-38382D01*
X-167318Y8100D02*
X-158682D01*
X-163000Y3782D02*
Y12418D01*
X-167318Y33500D02*
X-158682D01*
X-163000Y29182D02*
Y37818D01*
X-167318Y-17300D02*
X-158682D01*
X-163000Y-21618D02*
Y-12982D01*
X-30503Y572700D02*
X-20303D01*
X-25403Y567600D02*
Y577800D01*
X-30503Y547300D02*
X-20303D01*
X-25403Y542200D02*
Y552400D01*
X20297Y547300D02*
X30497D01*
X25397Y542200D02*
Y552400D01*
X-5103Y547300D02*
X5097D01*
X-3Y542200D02*
Y552400D01*
X20297Y572700D02*
X30497D01*
X25397Y567600D02*
Y577800D01*
X-5103Y572700D02*
X5097D01*
X-3Y567600D02*
Y577800D01*
X154432Y-101900D02*
X163068D01*
X158750Y-106218D02*
Y-97582D01*
X154432Y-152700D02*
X163068D01*
X158750Y-157018D02*
Y-148382D01*
X154432Y-127300D02*
X163068D01*
X158750Y-131618D02*
Y-122982D01*
X154432Y-178100D02*
X163068D01*
X158750Y-182418D02*
Y-173782D01*
X154052Y-44200D02*
X162688D01*
X158370Y-48518D02*
Y-39882D01*
X154052Y-18800D02*
X162688D01*
X158370Y-23118D02*
Y-14482D01*
X154052Y32000D02*
X162688D01*
X158370Y27682D02*
Y36318D01*
X154052Y6600D02*
X162688D01*
X158370Y2282D02*
Y10918D01*
X-370500Y427300D02*
X-360300D01*
X-365400Y422200D02*
Y432400D01*
X-370500Y452700D02*
X-360300D01*
X-365400Y447600D02*
Y457800D01*
X-345100Y452700D02*
X-334900D01*
X-340000Y447600D02*
Y457800D01*
X-345100Y427300D02*
X-334900D01*
X-340000Y422200D02*
Y432400D01*
X-319700Y452700D02*
X-309500D01*
X-314600Y447600D02*
Y457800D01*
X-319700Y427300D02*
X-309500D01*
X-314600Y422200D02*
Y432400D01*
X51910Y-138740D02*
X56910D01*
X54410Y-141240D02*
Y-136240D01*
X45710Y-146390D02*
X50710D01*
X48210Y-148890D02*
Y-143890D01*
X52810Y-153600D02*
X57810D01*
X55310Y-156100D02*
Y-151100D01*
X-27570Y2360D02*
X-22570D01*
X-25070Y-140D02*
Y4860D01*
X34580Y34060D02*
X39580D01*
X37080Y31560D02*
Y36560D01*
X-14900Y34410D02*
X-9900D01*
X-12400Y31910D02*
Y36910D01*
X33580Y-38170D02*
X38580D01*
X36080Y-40670D02*
Y-35670D01*
X167070Y-431130D02*
X172070D01*
X169570Y-433630D02*
Y-428630D01*
X148070Y-430880D02*
X153070D01*
X150570Y-433380D02*
Y-428380D01*
X127870Y-431010D02*
X132870D01*
X130370Y-433510D02*
Y-428510D01*
X-298910Y178250D02*
X-293910D01*
X-296410Y175750D02*
Y180750D01*
X-283910Y75150D02*
X-278910D01*
X-281410Y72650D02*
Y77650D01*
X-311850Y74570D02*
X-306850D01*
X-309350Y72070D02*
Y77070D01*
X-298130Y85240D02*
X-293130D01*
X-295630Y82740D02*
Y87740D01*
X-298130Y58580D02*
X-293130D01*
X-295630Y56080D02*
Y61080D01*
X-297290Y33460D02*
X-292290D01*
X-294790Y30960D02*
Y35960D01*
X-298900Y121240D02*
X-293900D01*
X-296400Y118740D02*
Y123740D01*
X-285040Y131330D02*
X-280040D01*
X-282540Y128830D02*
Y133830D01*
X-313120Y131330D02*
X-308120D01*
X-310620Y128830D02*
Y133830D01*
X-277010Y178290D02*
X-272010D01*
X-274510Y175790D02*
Y180790D01*
X-298230Y159940D02*
X-293230D01*
X-295730Y157440D02*
Y162440D01*
X-298780Y141150D02*
X-293780D01*
X-296280Y138650D02*
Y143650D01*
X292180Y-64740D02*
X297180D01*
X294680Y-67240D02*
Y-62240D01*
X292730Y-45950D02*
X297730D01*
X295230Y-48450D02*
Y-43450D01*
X270400Y-27050D02*
X275400D01*
X272900Y-29550D02*
Y-24550D01*
X313950Y-27600D02*
X318950D01*
X316450Y-30100D02*
Y-25100D01*
X350579Y-356831D02*
X355579D01*
X353079Y-359331D02*
Y-354331D01*
X215579Y-386831D02*
X220579D01*
X218079Y-389331D02*
Y-384331D01*
X170579Y-356831D02*
X175579D01*
X173079Y-359331D02*
Y-354331D01*
X140579Y-356831D02*
X145579D01*
X143079Y-359331D02*
Y-354331D01*
X110579Y-356831D02*
X115579D01*
X113079Y-359331D02*
Y-354331D01*
X-174421Y-446831D02*
X-169421D01*
X-171921Y-449331D02*
Y-444331D01*
X-174421Y-506831D02*
X-169421D01*
X-171921Y-509331D02*
Y-504331D01*
X-159421Y-536831D02*
X-154421D01*
X-156921Y-539331D02*
Y-534331D01*
X-174421Y-566831D02*
X-169421D01*
X-171921Y-569331D02*
Y-564331D01*
X-189421Y-536831D02*
X-184421D01*
X-186921Y-539331D02*
Y-534331D01*
X-219421Y-536831D02*
X-214421D01*
X-216921Y-539331D02*
Y-534331D01*
X-234421Y-566831D02*
X-229421D01*
X-231921Y-569331D02*
Y-564331D01*
X-474421Y333169D02*
X-469421D01*
X-471921Y330669D02*
Y335669D01*
X-534421Y333169D02*
X-529421D01*
X-531921Y330669D02*
Y335669D01*
X260579Y513169D02*
X265579D01*
X263079Y510669D02*
Y515669D01*
X230579Y273169D02*
X235579D01*
X233079Y270669D02*
Y275669D01*
X185579Y243169D02*
X190579D01*
X188079Y240669D02*
Y245669D01*
X185579Y183169D02*
X190579D01*
X188079Y180669D02*
Y185669D01*
X155579Y243169D02*
X160579D01*
X158079Y240669D02*
Y245669D01*
X-54421Y63169D02*
X-49421D01*
X-51921Y60669D02*
Y65669D01*
X-84421Y63169D02*
X-79421D01*
X-81921Y60669D02*
Y65669D01*
X-69421Y33169D02*
X-64421D01*
X-66921Y30669D02*
Y35669D01*
X-144421Y63169D02*
X-139421D01*
X-141921Y60669D02*
Y65669D01*
X-174421Y63169D02*
X-169421D01*
X-171921Y60669D02*
Y65669D01*
X-204421Y-176831D02*
X-199421D01*
X-201921Y-179331D02*
Y-174331D01*
X-354421Y-296831D02*
X-349421D01*
X-351921Y-299331D02*
Y-294331D01*
X-339421Y-326831D02*
X-334421D01*
X-336921Y-329331D02*
Y-324331D01*
X-354421Y-356831D02*
X-349421D01*
X-351921Y-359331D02*
Y-354331D01*
X-339421Y-386831D02*
X-334421D01*
X-336921Y-389331D02*
Y-384331D01*
X-339421Y-446831D02*
X-334421D01*
X-336921Y-449331D02*
Y-444331D01*
X-384421Y-296831D02*
X-379421D01*
X-381921Y-299331D02*
Y-294331D01*
X-369421Y-326831D02*
X-364421D01*
X-366921Y-329331D02*
Y-324331D01*
X-369421Y-386831D02*
X-364421D01*
X-366921Y-389331D02*
Y-384331D01*
X-369421Y-446831D02*
X-364421D01*
X-366921Y-449331D02*
Y-444331D01*
X-399421Y-326831D02*
X-394421D01*
X-396921Y-329331D02*
Y-324331D01*
X-399421Y-386831D02*
X-394421D01*
X-396921Y-389331D02*
Y-384331D01*
X-429421Y-326831D02*
X-424421D01*
X-426921Y-329331D02*
Y-324331D01*
X-444421Y-356831D02*
X-439421D01*
X-441921Y-359331D02*
Y-354331D01*
X-429421Y-386831D02*
X-424421D01*
X-426921Y-389331D02*
Y-384331D01*
X-459421Y-386831D02*
X-454421D01*
X-456921Y-389331D02*
Y-384331D01*
X-165130Y492550D02*
X-160130D01*
X-162630Y490050D02*
Y495050D01*
X-194740Y486970D02*
X-189740D01*
X-192240Y484470D02*
Y489470D01*
X277840Y-74560D02*
X282840D01*
X280340Y-77060D02*
Y-72060D01*
X305920Y-74560D02*
X310920D01*
X308420Y-77060D02*
Y-72060D01*
X292060Y-84650D02*
X297060D01*
X294560Y-87150D02*
Y-82150D01*
X-319280Y179420D02*
X-314280D01*
X-316780Y176920D02*
Y181920D01*
X170480Y-530290D02*
X175480D01*
X172980Y-532790D02*
Y-527790D01*
X170480Y-520420D02*
X175480D01*
X172980Y-522920D02*
Y-517920D01*
X170480Y-509850D02*
X175480D01*
X172980Y-512350D02*
Y-507350D01*
X180170Y-519770D02*
X185170D01*
X182670Y-522270D02*
Y-517270D01*
X180170Y-509740D02*
X185170D01*
X182670Y-512240D02*
Y-507240D01*
X-121400Y-375830D02*
X-116400D01*
X-118900Y-378330D02*
Y-373330D01*
X-497700Y263080D02*
X-492700D01*
X-495200Y260580D02*
Y265580D01*
X-149010Y-473150D02*
X-144010D01*
X-146510Y-475650D02*
Y-470650D01*
X-69810Y-388220D02*
X-64810D01*
X-67310Y-390720D02*
Y-385720D01*
X311750Y-204920D02*
X316750D01*
X314250Y-207420D02*
Y-202420D01*
X292370Y-204920D02*
X297370D01*
X294870Y-207420D02*
Y-202420D01*
X229490Y-204920D02*
X234490D01*
X231990Y-207420D02*
Y-202420D01*
X249050Y-204480D02*
X254050D01*
X251550Y-206980D02*
Y-201980D01*
X-42260Y-38470D02*
X-37260D01*
X-39760Y-40970D02*
Y-35970D01*
X110950Y36286D02*
X115950D01*
X113450Y33786D02*
Y38786D01*
X109930Y25090D02*
X114930D01*
X112430Y22590D02*
Y27590D01*
X68878Y10021D02*
X73878D01*
X71378Y7521D02*
Y12521D01*
X68250Y21970D02*
X73250D01*
X70750Y19470D02*
Y24470D01*
X419240Y229620D02*
X424240D01*
X421740Y227120D02*
Y232120D01*
X-187640Y474160D02*
X-182640D01*
X-185140Y471660D02*
Y476660D01*
X97470Y435050D02*
X102470D01*
X99970Y432550D02*
Y437550D01*
X170025Y459415D02*
X175025D01*
X172525Y456915D02*
Y461915D01*
X26970Y471780D02*
X31970D01*
X29470Y469280D02*
Y474280D01*
X49826Y432990D02*
X54826D01*
X52326Y430490D02*
Y435490D01*
X-124100Y-60120D02*
X-119100D01*
X-121600Y-62620D02*
Y-57620D01*
X10340Y-250180D02*
X15340D01*
X12840Y-252680D02*
Y-247680D01*
X450Y-250280D02*
X5450D01*
X2950Y-252780D02*
Y-247780D01*
X-184150Y-334080D02*
X-179150D01*
X-181650Y-336580D02*
Y-331580D01*
X-37852Y-339298D02*
X-32852D01*
X-35352Y-341798D02*
Y-336798D01*
X14090Y-364900D02*
X19090D01*
X16590Y-367400D02*
Y-362400D01*
X14170Y-375000D02*
X19170D01*
X16670Y-377500D02*
Y-372500D01*
X14020Y-384740D02*
X19020D01*
X16520Y-387240D02*
Y-382240D01*
X142390Y52902D02*
X147390D01*
X144890Y50402D02*
Y55402D01*
X135390Y46480D02*
X140390D01*
X137890Y43980D02*
Y48980D01*
X126770Y42250D02*
X131770D01*
X129270Y39750D02*
Y44750D01*
X125590Y30790D02*
X130590D01*
X128090Y28290D02*
Y33290D01*
X48010Y-39010D02*
X53010D01*
X50510Y-41510D02*
Y-36510D01*
X-62629Y-134506D02*
X-57629D01*
X-60129Y-137006D02*
Y-132006D01*
X-62017Y-143986D02*
X-57017D01*
X-59517Y-146486D02*
Y-141486D01*
X-57017Y-125480D02*
X-52017D01*
X-54517Y-127980D02*
Y-122980D01*
X-49640Y-118840D02*
X-44640D01*
X-47140Y-121340D02*
Y-116340D01*
X-107755Y-199225D02*
X-102755D01*
X-105255Y-201725D02*
Y-196725D01*
X-20310Y-260280D02*
X-15310D01*
X-17810Y-262780D02*
Y-257780D01*
X99668Y-228514D02*
X104668D01*
X102168Y-231014D02*
Y-226014D01*
X4270Y-136160D02*
X9270D01*
X6770Y-138660D02*
Y-133660D01*
X-500410Y240170D02*
X-495410D01*
X-497910Y237670D02*
Y242670D01*
X-438033Y241907D02*
X-433033D01*
X-435533Y239407D02*
Y244407D01*
X-405140Y272960D02*
X-400140D01*
X-402640Y270460D02*
Y275460D01*
X-470340Y290120D02*
X-465340D01*
X-467840Y287620D02*
Y292620D01*
X567269Y206550D02*
X572269D01*
X569769Y204050D02*
Y209050D01*
X341040Y-239960D02*
X346040D01*
X343540Y-242460D02*
Y-237460D01*
X210010Y-272560D02*
X215010D01*
X212510Y-275060D02*
Y-270060D01*
X170620Y-285819D02*
X175620D01*
X173120Y-288319D02*
Y-283319D01*
X151560Y-268880D02*
X156560D01*
X154060Y-271380D02*
Y-266380D01*
X110280Y-224580D02*
X115280D01*
X112780Y-227080D02*
Y-222080D01*
X115950Y-237170D02*
X120950D01*
X118450Y-239670D02*
Y-234670D01*
X85504Y-220074D02*
X90504D01*
X88004Y-222574D02*
Y-217574D01*
X90170Y-228350D02*
X95170D01*
X92670Y-230850D02*
Y-225850D01*
X14710Y-194550D02*
X19710D01*
X17210Y-197050D02*
Y-192050D01*
X21760Y-210380D02*
X26760D01*
X24260Y-212880D02*
Y-207880D01*
X-12040Y-172350D02*
X-7040D01*
X-9540Y-174850D02*
Y-169850D01*
X-20850Y-179210D02*
X-15850D01*
X-18350Y-181710D02*
Y-176710D01*
X82220Y-114550D02*
X87220D01*
X84720Y-117050D02*
Y-112050D01*
X82370Y-124830D02*
X87370D01*
X84870Y-127330D02*
Y-122330D01*
X17158Y-174041D02*
X22158D01*
X19658Y-176541D02*
Y-171541D01*
X9890Y-180960D02*
X14890D01*
X12390Y-183460D02*
Y-178460D01*
X41740Y-187690D02*
X46740D01*
X44240Y-190190D02*
Y-185190D01*
X36480Y-201233D02*
X41480D01*
X38980Y-203733D02*
Y-198733D01*
X-16160Y-207160D02*
X-11160D01*
X-13660Y-209660D02*
Y-204660D01*
X-27028Y-169628D02*
X-22028D01*
X-24528Y-172128D02*
Y-167128D01*
X-22490Y-151090D02*
X-17490D01*
X-19990Y-153590D02*
Y-148590D01*
X-112090Y-211740D02*
X-107090D01*
X-109590Y-214240D02*
Y-209240D01*
X-122990Y-220580D02*
X-117990D01*
X-120490Y-223080D02*
Y-218080D01*
X-107390Y-187280D02*
X-102390D01*
X-104890Y-189780D02*
Y-184780D01*
X-106460Y-172020D02*
X-101460D01*
X-103960Y-174520D02*
Y-169520D01*
X-487500Y-16700D02*
X-482500D01*
X-485000Y-19200D02*
Y-14200D01*
X-487690Y-27980D02*
X-482690D01*
X-485190Y-30480D02*
Y-25480D01*
X-487690Y-39260D02*
X-482690D01*
X-485190Y-41760D02*
Y-36760D01*
X-195190Y233840D02*
X-190190D01*
X-192690Y231340D02*
Y236340D01*
X-195520Y209880D02*
X-190520D01*
X-193020Y207380D02*
Y212380D01*
X-195520Y222340D02*
X-190520D01*
X-193020Y219840D02*
Y224840D01*
X-195520Y197480D02*
X-190520D01*
X-193020Y194980D02*
Y199980D01*
X-202960Y409390D02*
X-197960D01*
X-200460Y406890D02*
Y411890D01*
X-203120Y418750D02*
X-198120D01*
X-200620Y416250D02*
Y421250D01*
X-215080Y418790D02*
X-210080D01*
X-212580Y416290D02*
Y421290D01*
X-215170Y409530D02*
X-210170D01*
X-212670Y407030D02*
Y412030D01*
X-209370Y401020D02*
X-204370D01*
X-206870Y398520D02*
Y403520D01*
X-249120Y356250D02*
X-244120D01*
X-246620Y353750D02*
Y358750D01*
X100060Y476290D02*
X105060D01*
X102560Y473790D02*
Y478790D01*
X17860Y446040D02*
X22860D01*
X20360Y443540D02*
Y448540D01*
X-37500Y236556D02*
X-32500D01*
X-35000Y234056D02*
Y239056D01*
X46990Y239130D02*
X51990D01*
X49490Y236630D02*
Y241630D01*
X47390Y177020D02*
X52390D01*
X49890Y174520D02*
Y179520D01*
X112770Y49890D02*
X117770D01*
X115270Y47390D02*
Y52390D01*
X-111280Y31368D02*
X-106280D01*
X-108780Y28868D02*
Y33868D01*
X-95968Y37473D02*
X-90968D01*
X-93468Y34973D02*
Y39973D01*
X-95933Y46973D02*
X-90933D01*
X-93433Y44473D02*
Y49473D01*
X-66910Y-50050D02*
X-61910D01*
X-64410Y-52550D02*
Y-47550D01*
X-45940Y-49280D02*
X-40940D01*
X-43440Y-51780D02*
Y-46780D01*
X-20000Y-56770D02*
X-15000D01*
X-17500Y-59270D02*
Y-54270D01*
X1131Y-50039D02*
X6131D01*
X3631Y-52539D02*
Y-47539D01*
X-57810Y-10950D02*
X-52810D01*
X-55310Y-13450D02*
Y-8450D01*
X-10470Y-133410D02*
X-5470D01*
X-7970Y-135910D02*
Y-130910D01*
X19525Y-130345D02*
X24525D01*
X22025Y-132845D02*
Y-127845D01*
X45981Y-173996D02*
X50981D01*
X48481Y-176496D02*
Y-171496D01*
X8820Y-209220D02*
X13820D01*
X11320Y-211720D02*
Y-206720D01*
X-24030Y-215660D02*
X-19030D01*
X-21530Y-218160D02*
Y-213160D01*
X49267Y-331140D02*
X54267D01*
X51767Y-333640D02*
Y-328640D01*
X20700Y-297110D02*
X25700D01*
X23200Y-299610D02*
Y-294610D01*
X20700Y-307370D02*
X25700D01*
X23200Y-309870D02*
Y-304870D01*
X20700Y-317840D02*
X25700D01*
X23200Y-320340D02*
Y-315340D01*
X20700Y-328300D02*
X25700D01*
X23200Y-330800D02*
Y-325800D01*
X87410Y-157991D02*
X92410D01*
X89910Y-160491D02*
Y-155491D01*
X51460Y-181757D02*
X56460D01*
X53960Y-184257D02*
Y-179257D01*
X52880Y-191150D02*
X57880D01*
X55380Y-193650D02*
Y-188650D01*
X-124250Y553110D02*
X-119250D01*
X-121750Y550610D02*
Y555610D01*
X296000Y124720D02*
X301000D01*
X298500Y122220D02*
Y127220D01*
X549057Y206550D02*
X554057D01*
X551557Y204050D02*
Y209050D01*
X548562Y196815D02*
X553562D01*
X551062Y194315D02*
Y199315D01*
X548852Y187080D02*
X553852D01*
X551352Y184580D02*
Y189580D01*
X47370Y190350D02*
X52370D01*
X49870Y187850D02*
Y192850D01*
X47530Y224030D02*
X52530D01*
X50030Y221530D02*
Y226530D01*
X-229570Y-145110D02*
X-224570D01*
X-227070Y-147610D02*
Y-142610D01*
X331090Y233813D02*
X336090D01*
X333590Y231313D02*
Y236313D01*
X331210Y218885D02*
X336210D01*
X333710Y216385D02*
Y221385D01*
X331210Y203958D02*
X336210D01*
X333710Y201458D02*
Y206458D01*
X331210Y189030D02*
X336210D01*
X333710Y186530D02*
Y191530D01*
X54260Y-339940D02*
X59260D01*
X56760Y-342440D02*
Y-337440D01*
X44430Y-340180D02*
X49430D01*
X46930Y-342680D02*
Y-337680D01*
X59833Y-331000D02*
X64833D01*
X62333Y-333500D02*
Y-328500D01*
X39550Y-331130D02*
X44550D01*
X42050Y-333630D02*
Y-328630D01*
X-7690Y-255720D02*
X-2690D01*
X-5190Y-258220D02*
Y-253220D01*
X229580Y-298500D02*
X234580D01*
X232080Y-301000D02*
Y-296000D01*
X147500Y-299340D02*
X152500D01*
X150000Y-301840D02*
Y-296840D01*
X60730Y-284840D02*
X65730D01*
X63230Y-287340D02*
Y-282340D01*
X75390Y-253220D02*
X80390D01*
X77890Y-255720D02*
Y-250720D01*
X149360Y-231270D02*
X154360D01*
X151860Y-233770D02*
Y-228770D01*
X168700Y-233950D02*
X173700D01*
X171200Y-236450D02*
Y-231450D01*
X-84980Y-474950D02*
X-79980D01*
X-82480Y-477450D02*
Y-472450D01*
X-94570Y-474950D02*
X-89570D01*
X-92070Y-477450D02*
Y-472450D01*
X-68310Y-503620D02*
X-63310D01*
X-65810Y-506120D02*
Y-501120D01*
X361260Y237900D02*
X366260D01*
X363760Y235400D02*
Y240400D01*
X469700Y-186660D02*
X474700D01*
X472200Y-189160D02*
Y-184160D01*
X-186500Y-191620D02*
X-181500D01*
X-184000Y-194120D02*
Y-189120D01*
X-262410Y-333770D02*
X-257410D01*
X-259910Y-336270D02*
Y-331270D01*
X-242780Y-318930D02*
X-237780D01*
X-240280Y-321430D02*
Y-316430D01*
X-207070Y-299400D02*
X-202070D01*
X-204570Y-301900D02*
Y-296900D01*
X399390Y-240700D02*
X404390D01*
X401890Y-243200D02*
Y-238200D01*
X393650Y-323230D02*
X398650D01*
X396150Y-325730D02*
Y-320730D01*
X352980Y-325460D02*
X357980D01*
X355480Y-327960D02*
Y-322960D01*
X354340Y-372530D02*
X359340D01*
X356840Y-375030D02*
Y-370030D01*
X280280Y-224550D02*
X285280D01*
X282780Y-227050D02*
Y-222050D01*
X279400Y-239470D02*
X284400D01*
X281900Y-241970D02*
Y-236970D01*
X-448040Y191700D02*
X-443040D01*
X-445540Y189200D02*
Y194200D01*
X-248950Y345870D02*
X-243950D01*
X-246450Y343370D02*
Y348370D01*
X87110Y-96470D02*
X92110D01*
X89610Y-98970D02*
Y-93970D01*
X74540Y-220580D02*
X79540D01*
X77040Y-223080D02*
Y-218080D01*
X99050Y-173310D02*
X104050D01*
X101550Y-175810D02*
Y-170810D01*
X48730Y-200990D02*
X53730D01*
X51230Y-203490D02*
Y-198490D01*
X98600Y-185240D02*
X103600D01*
X101100Y-187740D02*
Y-182740D01*
X-104350Y24870D02*
X-99350D01*
X-101850Y22370D02*
Y27370D01*
X161460Y164810D02*
X166460D01*
X163960Y162310D02*
Y167310D01*
X262870Y294690D02*
X267870D01*
X265370Y292190D02*
Y297190D01*
X320310Y224390D02*
X325310D01*
X322810Y221890D02*
Y226890D01*
X-230030Y-254630D02*
X-225030D01*
X-227530Y-257130D02*
Y-252130D01*
X-277680Y222110D02*
X-272680D01*
X-275180Y219610D02*
Y224610D01*
X-294360Y222110D02*
X-289360D01*
X-291860Y219610D02*
Y224610D01*
X-310440Y222110D02*
X-305440D01*
X-307940Y219610D02*
Y224610D01*
X-325290Y222110D02*
X-320290D01*
X-322790Y219610D02*
Y224610D01*
X-268290Y211420D02*
X-263290D01*
X-265790Y208920D02*
Y213920D01*
X-286200Y211420D02*
X-281200D01*
X-283700Y208920D02*
Y213920D01*
X-302880Y211420D02*
X-297880D01*
X-300380Y208920D02*
Y213920D01*
X-318520Y211420D02*
X-313520D01*
X-316020Y208920D02*
Y213920D01*
X-332500Y211420D02*
X-327500D01*
X-330000Y208920D02*
Y213920D01*
X578150Y187080D02*
X583150D01*
X580650Y184580D02*
Y189580D01*
X576375Y206550D02*
X581375D01*
X578875Y204050D02*
Y209050D01*
X577220Y196815D02*
X582220D01*
X579720Y194315D02*
Y199315D01*
X293670Y-172430D02*
X298670D01*
X296170Y-174930D02*
Y-169930D01*
X292830Y-147310D02*
X297830D01*
X295330Y-149810D02*
Y-144810D01*
X292830Y-120650D02*
X297830D01*
X295330Y-123150D02*
Y-118150D01*
X279110Y-131320D02*
X284110D01*
X281610Y-133820D02*
Y-128820D01*
X307050Y-130740D02*
X312050D01*
X309550Y-133240D02*
Y-128240D01*
X292050Y-27640D02*
X297050D01*
X294550Y-30140D02*
Y-25140D01*
X180170Y-529670D02*
X185170D01*
X182670Y-532170D02*
Y-527170D01*
X168760Y-551790D02*
X173760D01*
X171260Y-554290D02*
Y-549290D01*
X178120Y-551790D02*
X183120D01*
X180620Y-554290D02*
Y-549290D01*
X187970Y-551790D02*
X192970D01*
X190470Y-554290D02*
Y-549290D01*
X187970Y-561310D02*
X192970D01*
X190470Y-563810D02*
Y-558810D01*
X178120Y-561310D02*
X183120D01*
X180620Y-563810D02*
Y-558810D01*
X168760Y-561310D02*
X173760D01*
X171260Y-563810D02*
Y-558810D01*
X-433260Y191960D02*
X-428260D01*
X-430760Y189460D02*
Y194460D01*
X-467000Y-39100D02*
X-462000D01*
X-464500Y-41600D02*
Y-36600D01*
X-477610Y-39090D02*
X-472610D01*
X-475110Y-41590D02*
Y-36590D01*
X-487500Y-5420D02*
X-482500D01*
X-485000Y-7920D02*
Y-2920D01*
X-467140Y-5260D02*
X-462140D01*
X-464640Y-7760D02*
Y-2760D01*
X-477420Y-5250D02*
X-472420D01*
X-474920Y-7750D02*
Y-2750D01*
X-59860Y-94910D02*
X-54860D01*
X-57360Y-97410D02*
Y-92410D01*
X-15801Y-160228D02*
X-10801D01*
X-13301Y-162728D02*
Y-157728D01*
X-59860Y-106800D02*
X-54860D01*
X-57360Y-109300D02*
Y-104300D01*
X96850Y-92484D02*
X101850D01*
X99350Y-94984D02*
Y-89984D01*
X99760Y-81400D02*
X104760D01*
X102260Y-83900D02*
Y-78900D01*
X-133730Y-552670D02*
X-128730D01*
X-131230Y-555170D02*
Y-550170D01*
X-133730Y-563090D02*
X-128730D01*
X-131230Y-565590D02*
Y-560590D01*
X-133420Y-573920D02*
X-128420D01*
X-130920Y-576420D02*
Y-571420D01*
X-148900Y-569020D02*
X-143900D01*
X-146400Y-571520D02*
Y-566520D01*
X-123070Y-573700D02*
X-118070D01*
X-120570Y-576200D02*
Y-571200D01*
X-123380Y-562870D02*
X-118380D01*
X-120880Y-565370D02*
Y-560370D01*
X-123380Y-552450D02*
X-118380D01*
X-120880Y-554950D02*
Y-549950D01*
X-50740Y-451870D02*
X-45740D01*
X-48240Y-454370D02*
Y-449370D01*
X65610Y-475780D02*
X70610D01*
X68110Y-478280D02*
Y-473280D01*
X-655050Y66300D02*
X-650050D01*
X-652550Y63800D02*
Y68800D01*
X-661960Y84060D02*
X-656960D01*
X-659460Y81560D02*
Y86560D01*
X-557220Y-299140D02*
X-552220D01*
X-554720Y-301640D02*
Y-296640D01*
X-557220Y-288385D02*
X-552220D01*
X-554720Y-290885D02*
Y-285885D01*
X-557220Y-277630D02*
X-552220D01*
X-554720Y-280130D02*
Y-275130D01*
X-394010Y353270D02*
X-389010D01*
X-391510Y350770D02*
Y355770D01*
X-348890Y121940D02*
X-343890D01*
X-346390Y119440D02*
Y124440D01*
X353560Y-241820D02*
X358560D01*
X356060Y-244320D02*
Y-239320D01*
X102930Y-341750D02*
X107930D01*
X105430Y-344250D02*
Y-339250D01*
X310670Y-328080D02*
X315670D01*
X313170Y-330580D02*
Y-325580D01*
X292810Y-328210D02*
X297810D01*
X295310Y-330710D02*
Y-325710D01*
X188320Y-357230D02*
X193320D01*
X190820Y-359730D02*
Y-354730D01*
X220090Y-363130D02*
X225090D01*
X222590Y-365630D02*
Y-360630D01*
X350840Y-337800D02*
X355840D01*
X353340Y-340300D02*
Y-335300D01*
X252590Y256690D02*
X257590D01*
X255090Y254190D02*
Y259190D01*
X253480Y214700D02*
X258480D01*
X255980Y212200D02*
Y217200D01*
X253930Y181280D02*
X258930D01*
X256430Y178780D02*
Y183780D01*
X47760Y258330D02*
X52760D01*
X50260Y255830D02*
Y260830D01*
X-35140Y196860D02*
X-30140D01*
X-32640Y194360D02*
Y199360D01*
X-35180Y258040D02*
X-30180D01*
X-32680Y255540D02*
Y260540D01*
X-105310Y-347270D02*
X-100310D01*
X-102810Y-349770D02*
Y-344770D01*
X64350Y487220D02*
X69350D01*
X66850Y484720D02*
Y489720D01*
X-463090Y264610D02*
X-458090D01*
X-460590Y262110D02*
Y267110D01*
X-474090Y253610D02*
X-469090D01*
X-471590Y251110D02*
Y256110D01*
X-474090Y264610D02*
X-469090D01*
X-471590Y262110D02*
Y267110D01*
X-463090Y253610D02*
X-458090D01*
X-460590Y251110D02*
Y256110D01*
X152140Y330849D02*
X157140D01*
X154640Y328349D02*
Y333349D01*
X242870Y332230D02*
X247870D01*
X245370Y329730D02*
Y334730D01*
X204040Y330630D02*
X209040D01*
X206540Y328130D02*
Y333130D01*
X353950Y-255010D02*
X358950D01*
X356450Y-257510D02*
Y-252510D01*
X280090Y-253650D02*
X285090D01*
X282590Y-256150D02*
Y-251150D01*
X394020Y-225590D02*
X399020D01*
X396520Y-228090D02*
Y-223090D01*
X-186860Y-299090D02*
X-181860D01*
X-184360Y-301590D02*
Y-296590D01*
X-54060Y-416740D02*
X-49060D01*
X-51560Y-419240D02*
Y-414240D01*
X-59860Y-440780D02*
X-54860D01*
X-57360Y-443280D02*
Y-438280D01*
X-140744Y511370D02*
X-135744D01*
X-138244Y508870D02*
Y513870D01*
X343680Y-27060D02*
X348680D01*
X346180Y-29560D02*
Y-24560D01*
X343680Y-50990D02*
X348680D01*
X346180Y-53490D02*
Y-48490D01*
X343680Y-83660D02*
X348680D01*
X346180Y-86160D02*
Y-81160D01*
X343680Y-109770D02*
X348680D01*
X346180Y-112270D02*
Y-107270D01*
X343680Y-143540D02*
X348680D01*
X346180Y-146040D02*
Y-141040D01*
X343680Y-155810D02*
X348680D01*
X346180Y-158310D02*
Y-153310D01*
X343680Y-95770D02*
X348680D01*
X346180Y-98270D02*
Y-93270D01*
X343680Y-39210D02*
X348680D01*
X346180Y-41710D02*
Y-36710D01*
X343680Y-166540D02*
X348680D01*
X346180Y-169040D02*
Y-164040D01*
X352970Y-172870D02*
X357970D01*
X355470Y-175370D02*
Y-170370D01*
X239590Y-28060D02*
X244590D01*
X242090Y-30560D02*
Y-25560D01*
X239590Y-52210D02*
X244590D01*
X242090Y-54710D02*
Y-49710D01*
X239590Y-83500D02*
X244590D01*
X242090Y-86000D02*
Y-81000D01*
X239590Y-110630D02*
X244590D01*
X242090Y-113130D02*
Y-108130D01*
X239590Y-142870D02*
X244590D01*
X242090Y-145370D02*
Y-140370D01*
X239590Y-40170D02*
X244590D01*
X242090Y-42670D02*
Y-37670D01*
X239590Y-97010D02*
X244590D01*
X242090Y-99510D02*
Y-94510D01*
X239590Y-154830D02*
X244590D01*
X242090Y-157330D02*
Y-152330D01*
X239650Y-165980D02*
X244650D01*
X242150Y-168480D02*
Y-163480D01*
X231520Y-171820D02*
X236520D01*
X234020Y-174320D02*
Y-169320D01*
X-348890Y108610D02*
X-343890D01*
X-346390Y106110D02*
Y111110D01*
X-348670Y166910D02*
X-343670D01*
X-346170Y164410D02*
Y169410D01*
X-348670Y154650D02*
X-343670D01*
X-346170Y152150D02*
Y157150D01*
X-348890Y95470D02*
X-343890D01*
X-346390Y92970D02*
Y97970D01*
X-349070Y67180D02*
X-344070D01*
X-346570Y64680D02*
Y69680D01*
X-349070Y39510D02*
X-344070D01*
X-346570Y37010D02*
Y42010D01*
X-349070Y54040D02*
X-344070D01*
X-346570Y51540D02*
Y56540D01*
X-348670Y179920D02*
X-343670D01*
X-346170Y177420D02*
Y182420D01*
X-204340Y216380D02*
X-199340D01*
X-201840Y213880D02*
Y218880D01*
X-204340Y228840D02*
X-199340D01*
X-201840Y226340D02*
Y231340D01*
X-204340Y203980D02*
X-199340D01*
X-201840Y201480D02*
Y206480D01*
X-246770Y110690D02*
X-241770D01*
X-244270Y108190D02*
Y113190D01*
X-246770Y167160D02*
X-241770D01*
X-244270Y164660D02*
Y169660D01*
X-246770Y96810D02*
X-241770D01*
X-244270Y94310D02*
Y99310D01*
X-246770Y179620D02*
X-241770D01*
X-244270Y177120D02*
Y182120D01*
X-246770Y122880D02*
X-241770D01*
X-244270Y120380D02*
Y125380D01*
X-246770Y154760D02*
X-241770D01*
X-244270Y152260D02*
Y157260D01*
X-246770Y52520D02*
X-241770D01*
X-244270Y50020D02*
Y55020D01*
X-246770Y65540D02*
X-241770D01*
X-244270Y63040D02*
Y68040D01*
X-246770Y38670D02*
X-241770D01*
X-244270Y36170D02*
Y41170D01*
X-266850Y369990D02*
X-261850D01*
X-264350Y367490D02*
Y372490D01*
X-254720Y377790D02*
X-249720D01*
X-252220Y375290D02*
Y380290D01*
X-506160Y397760D02*
X-501160D01*
X-503660Y395260D02*
Y400260D01*
X-495475Y397840D02*
X-490475D01*
X-492975Y395340D02*
Y400340D01*
X-484790Y397760D02*
X-479790D01*
X-482290Y395260D02*
Y400260D01*
X-409690Y188450D02*
X-404690D01*
X-407190Y185950D02*
Y190950D01*
X-420265Y233465D02*
X-415265D01*
X-417765Y230965D02*
Y235965D01*
X-368010Y234480D02*
X-363010D01*
X-365510Y231980D02*
Y236980D01*
X-409740Y311870D02*
X-404740D01*
X-407240Y309370D02*
Y314370D01*
X-438240Y270850D02*
X-433240D01*
X-435740Y268350D02*
Y273350D01*
X-428520Y316370D02*
X-423520D01*
X-426020Y313870D02*
Y318870D01*
X-477420Y-16530D02*
X-472420D01*
X-474920Y-19030D02*
Y-14030D01*
X-466810Y-16540D02*
X-461810D01*
X-464310Y-19040D02*
Y-14040D01*
X-477610Y-27810D02*
X-472610D01*
X-475110Y-30310D02*
Y-25310D01*
X-467180Y-27820D02*
X-462180D01*
X-464680Y-30320D02*
Y-25320D01*
X568384Y187080D02*
X573384D01*
X570884Y184580D02*
Y189580D01*
X558618Y187080D02*
X563618D01*
X561118Y184580D02*
Y189580D01*
X567667Y196815D02*
X572667D01*
X570167Y194315D02*
Y199315D01*
X558115Y196815D02*
X563115D01*
X560615Y194315D02*
Y199315D01*
X558163Y206550D02*
X563163D01*
X560663Y204050D02*
Y209050D01*
X569785Y247860D02*
X574785D01*
X572285Y245360D02*
Y250360D01*
X579750Y247860D02*
X584750D01*
X582250Y245360D02*
Y250360D01*
X559820Y247860D02*
X564820D01*
X562320Y245360D02*
Y250360D01*
X415395Y251675D02*
X420395D01*
X417895Y249175D02*
Y254175D01*
X479700Y230770D02*
X484700D01*
X482200Y228270D02*
Y233270D01*
X-391910Y-223830D02*
X-386910D01*
X-389410Y-226330D02*
Y-221330D01*
X-427510Y-225920D02*
X-422510D01*
X-425010Y-228420D02*
Y-223420D01*
X-432450Y-248990D02*
X-427450D01*
X-429950Y-251490D02*
Y-246490D01*
X350Y-34630D02*
X5350D01*
X2850Y-37130D02*
Y-32130D01*
X-84770Y-260270D02*
X-79770D01*
X-82270Y-262770D02*
Y-257770D01*
X-199490Y-160910D02*
X-194490D01*
X-196990Y-163410D02*
Y-158410D01*
X142100Y406880D02*
X147100D01*
X144600Y404380D02*
Y409380D01*
X224910Y187770D02*
X229910D01*
X227410Y185270D02*
Y190270D01*
X225260Y236350D02*
X230260D01*
X227760Y233850D02*
Y238850D01*
X331210Y248740D02*
X336210D01*
X333710Y246240D02*
Y251240D01*
X-6400Y-98060D02*
X-1400D01*
X-3900Y-100560D02*
Y-95560D01*
X9040Y-104180D02*
X14040D01*
X11540Y-106680D02*
Y-101680D01*
X37488Y-210679D02*
X42488D01*
X39988Y-213179D02*
Y-208179D01*
X12640Y-261780D02*
X17640D01*
X15140Y-264280D02*
Y-259280D01*
X-73570Y-134810D02*
X-68570D01*
X-71070Y-137310D02*
Y-132310D01*
X-45590Y-107150D02*
X-40590D01*
X-43090Y-109650D02*
Y-104650D01*
X-92800Y21730D02*
X-87800D01*
X-90300Y19230D02*
Y24230D01*
X-83360Y47800D02*
X-78360D01*
X-80860Y45300D02*
Y50300D01*
X-538358Y203908D02*
X-533358D01*
X-535858Y201408D02*
Y206408D01*
X-479300Y192640D02*
X-474300D01*
X-476800Y190140D02*
Y195140D01*
X-539100Y251967D02*
X-534100D01*
X-536600Y249467D02*
Y254467D01*
X-491090Y333150D02*
X-486090D01*
X-488590Y330650D02*
Y335650D01*
X-27680Y440630D02*
X-22680D01*
X-25180Y438130D02*
Y443130D01*
X-177470Y458300D02*
X-172470D01*
X-174970Y455800D02*
Y460800D01*
X-63630Y513050D02*
X-58630D01*
X-61130Y510550D02*
Y515550D01*
X-108260Y-147130D02*
X-103260D01*
X-105760Y-149630D02*
Y-144630D01*
X-108260Y-119372D02*
X-103260D01*
X-105760Y-121872D02*
Y-116872D01*
X-108260Y-86810D02*
X-103260D01*
X-105760Y-89310D02*
Y-84310D01*
X364400Y-241620D02*
X369400D01*
X366900Y-244120D02*
Y-239120D01*
X310000Y273780D02*
X315000D01*
X312500Y271280D02*
Y276280D01*
X11010Y11880D02*
X16010D01*
X13510Y9380D02*
Y14380D01*
X-13490Y258820D02*
X-8490D01*
X-10990Y256320D02*
Y261320D01*
X-13318Y195970D02*
X-8318D01*
X-10818Y193470D02*
Y198470D01*
X104710Y166940D02*
X109710D01*
X107210Y164440D02*
Y169440D01*
X105520Y229330D02*
X110520D01*
X108020Y226830D02*
Y231830D01*
X-131640Y-40745D02*
X-126640D01*
X-129140Y-43245D02*
Y-38245D01*
X-302780Y-149080D02*
X-297780D01*
X-300280Y-151580D02*
Y-146580D01*
X3730Y516210D02*
X8730D01*
X6230Y513710D02*
Y518710D01*
X37090Y-476520D02*
X42090D01*
X39590Y-479020D02*
Y-474020D01*
X-14950Y-419120D02*
X-9950D01*
X-12450Y-421620D02*
Y-416620D01*
X48960Y-476420D02*
X53960D01*
X51460Y-478920D02*
Y-473920D01*
X22990Y-476520D02*
X27990D01*
X25490Y-479020D02*
Y-474020D01*
X-25920Y475560D02*
X-20920D01*
X-23420Y473060D02*
Y478060D01*
X90580Y485790D02*
X95580D01*
X93080Y483290D02*
Y488290D01*
X73226Y481164D02*
X78226D01*
X75726Y478664D02*
Y483664D01*
X-209570Y-119450D02*
X-204570D01*
X-207070Y-121950D02*
Y-116950D01*
X-661960Y73820D02*
X-656960D01*
X-659460Y71320D02*
Y76320D01*
X-237540Y31740D02*
X-232540D01*
X-235040Y29240D02*
Y34240D01*
X-237540Y58610D02*
X-232540D01*
X-235040Y56110D02*
Y61110D01*
X-357810Y173320D02*
X-352810D01*
X-355310Y170820D02*
Y175820D01*
X-357810Y46900D02*
X-352810D01*
X-355310Y44400D02*
Y49400D01*
X-357810Y32370D02*
X-352810D01*
X-355310Y29870D02*
Y34870D01*
X-237540Y45590D02*
X-232540D01*
X-235040Y43090D02*
Y48090D01*
X-363410Y-168250D02*
X-358410D01*
X-360910Y-170750D02*
Y-165750D01*
X-237430Y147980D02*
X-232430D01*
X-234930Y145480D02*
Y150480D01*
X-237550Y116450D02*
X-232550D01*
X-235050Y113950D02*
Y118950D01*
X-357810Y60040D02*
X-352810D01*
X-355310Y57540D02*
Y62540D01*
X-237430Y172840D02*
X-232430D01*
X-234930Y170340D02*
Y175340D01*
X-237550Y90380D02*
X-232550D01*
X-235050Y87880D02*
Y92880D01*
X-237430Y160380D02*
X-232430D01*
X-234930Y157880D02*
Y162880D01*
X-237550Y104260D02*
X-232550D01*
X-235050Y101760D02*
Y106760D01*
X-357810Y89310D02*
X-352810D01*
X-355310Y86810D02*
Y91810D01*
X-357810Y148050D02*
X-352810D01*
X-355310Y145550D02*
Y150550D01*
X-357810Y115780D02*
X-352810D01*
X-355310Y113280D02*
Y118280D01*
X-357810Y160310D02*
X-352810D01*
X-355310Y157810D02*
Y162810D01*
X-357810Y102450D02*
X-352810D01*
X-355310Y99950D02*
Y104950D01*
X-57730Y428460D02*
X-52730D01*
X-55230Y425960D02*
Y430960D01*
X47760Y400610D02*
X52760D01*
X50260Y398110D02*
Y403110D01*
X352970Y-45540D02*
X357970D01*
X355470Y-48040D02*
Y-43040D01*
X352970Y-102100D02*
X357970D01*
X355470Y-104600D02*
Y-99600D01*
X352970Y-162140D02*
X357970D01*
X355470Y-164640D02*
Y-159640D01*
X231460Y-160670D02*
X236460D01*
X233960Y-163170D02*
Y-158170D01*
X231460Y-102850D02*
X236460D01*
X233960Y-105350D02*
Y-100350D01*
X231460Y-46010D02*
X236460D01*
X233960Y-48510D02*
Y-43510D01*
X-135500Y542990D02*
X-130500D01*
X-133000Y540490D02*
Y545490D01*
X-488200Y278460D02*
X-483200D01*
X-485700Y275960D02*
Y280960D01*
X-463420Y397760D02*
X-458420D01*
X-460920Y395260D02*
Y400260D01*
X-474105Y397760D02*
X-469105D01*
X-471605Y395260D02*
Y400260D01*
X-243790Y378010D02*
X-238790D01*
X-241290Y375510D02*
Y380510D01*
X34630Y447030D02*
X39630D01*
X37130Y444530D02*
Y449530D01*
X352970Y-149870D02*
X357970D01*
X355470Y-152370D02*
Y-147370D01*
X352970Y-116100D02*
X357970D01*
X355470Y-118600D02*
Y-113600D01*
X352970Y-89990D02*
X357970D01*
X355470Y-92490D02*
Y-87490D01*
X352970Y-57320D02*
X357970D01*
X355470Y-59820D02*
Y-54820D01*
X352970Y-33390D02*
X357970D01*
X355470Y-35890D02*
Y-30890D01*
X231460Y-148710D02*
X236460D01*
X233960Y-151210D02*
Y-146210D01*
X231460Y-116470D02*
X236460D01*
X233960Y-118970D02*
Y-113970D01*
X231460Y-89340D02*
X236460D01*
X233960Y-91840D02*
Y-86840D01*
X231460Y-58050D02*
X236460D01*
X233960Y-60550D02*
Y-55550D01*
X231460Y-33900D02*
X236460D01*
X233960Y-36400D02*
Y-31400D01*
X170230Y505400D02*
X175230D01*
X172730Y502900D02*
Y507900D01*
X-84990Y173320D02*
X-79990D01*
X-82490Y170820D02*
Y175820D01*
X-86210Y258310D02*
X-81210D01*
X-83710Y255810D02*
Y260810D01*
X161690Y154400D02*
X166690D01*
X164190Y151900D02*
Y156900D01*
X-117350Y-41670D02*
X-112350D01*
X-114850Y-44170D02*
Y-39170D01*
X63750Y-4515D02*
X68750D01*
X66250Y-7015D02*
Y-2015D01*
X67960Y-20940D02*
X72960D01*
X70460Y-23440D02*
Y-18440D01*
X-450480Y331030D02*
X-445480D01*
X-447980Y328530D02*
Y333530D01*
X-347920Y317940D02*
X-342920D01*
X-345420Y315440D02*
Y320440D01*
X-437690Y398930D02*
X-432690D01*
X-435190Y396430D02*
Y401430D01*
X-35300Y-106800D02*
X-30300D01*
X-32800Y-109300D02*
Y-104300D01*
X67500Y-31500D02*
X72500D01*
X70000Y-34000D02*
Y-29000D01*
X18150Y-56680D02*
X23150D01*
X20650Y-59180D02*
Y-54180D01*
X84010Y-135800D02*
X89010D01*
X86510Y-138300D02*
Y-133300D01*
X-38200Y174400D02*
X-33200D01*
X-35700Y171900D02*
Y176900D01*
X197660Y117610D02*
X202660D01*
X200160Y115110D02*
Y120110D01*
X80130Y-430320D02*
X85130D01*
X82630Y-432820D02*
Y-427820D01*
X-121500Y-384990D02*
X-116500D01*
X-119000Y-387490D02*
Y-382490D01*
X-121500Y-366440D02*
X-116500D01*
X-119000Y-368940D02*
Y-363940D01*
X-59450Y-426050D02*
X-54450D01*
X-56950Y-428550D02*
Y-423550D01*
X-184330Y-415680D02*
X-179330D01*
X-181830Y-418180D02*
Y-413180D01*
X228220Y-352780D02*
X233220D01*
X230720Y-355280D02*
Y-350280D01*
X259540Y-352200D02*
X264540D01*
X262040Y-354700D02*
Y-349700D01*
M02*
