G04*
G04 #@! TF.GenerationSoftware,Altium Limited,Altium Designer,24.1.2 (44)*
G04*
G04 Layer_Physical_Order=3*
G04 Layer_Color=16777215*
%FSLAX44Y44*%
%MOMM*%
G71*
G04*
G04 #@! TF.SameCoordinates,597BB2CB-753F-44E1-99FD-8B09ED07158F*
G04*
G04*
G04 #@! TF.FilePolarity,Positive*
G04*
G01*
G75*
%ADD12C,0.2500*%
%ADD14C,0.4000*%
%ADD23C,0.3000*%
%ADD144R,2.5000X2.5000*%
%ADD145C,2.5000*%
%ADD157C,0.5000*%
%ADD158C,5.0000*%
%ADD164C,1.0000*%
%ADD166C,1.5200*%
%ADD167R,1.5200X1.5200*%
%ADD168R,1.5200X1.5200*%
%ADD169C,2.0000*%
%ADD170R,2.2860X1.9050*%
%ADD171O,2.2860X1.9050*%
%ADD172O,1.9050X2.2860*%
%ADD173R,1.9050X2.2860*%
%ADD174R,1.5000X1.5000*%
%ADD175C,1.5000*%
%ADD176C,6.3500*%
%ADD177C,1.0000*%
%ADD178C,4.0000*%
%ADD179P,5.6569X4X165.0*%
%ADD180P,5.6569X4X75.0*%
%ADD181R,4.0000X4.0000*%
%ADD182R,4.0000X4.0000*%
%ADD183P,5.6569X4X105.0*%
%ADD184P,5.6569X4X375.0*%
%ADD185C,0.8000*%
G36*
X107840Y469980D02*
X98470D01*
Y440346D01*
X97859Y440147D01*
X97087Y439754D01*
X96387Y439245D01*
X95775Y438633D01*
X95266Y437933D01*
X94873Y437161D01*
X94605Y436338D01*
X94470Y435483D01*
Y434617D01*
X94605Y433762D01*
X94873Y432939D01*
X95266Y432167D01*
X95775Y431467D01*
X96387Y430855D01*
X97087Y430346D01*
X97859Y429953D01*
X98470Y429754D01*
X98470Y340901D01*
X97570Y340005D01*
X62080Y340130D01*
X62080Y409530D01*
X-146920D01*
X-209380Y347070D01*
X-241071Y347070D01*
X-241085Y347158D01*
X-241353Y347981D01*
X-241746Y348753D01*
X-242255Y349453D01*
X-242444Y349643D01*
X-242511Y349787D01*
X-242491Y350970D01*
X-242366Y351271D01*
X-242299Y351322D01*
X-241692Y351929D01*
X-241171Y352609D01*
X-240742Y353351D01*
X-240414Y354143D01*
X-240192Y354971D01*
X-240080Y355821D01*
Y356679D01*
X-240192Y357529D01*
X-240414Y358357D01*
X-240742Y359149D01*
X-241171Y359891D01*
X-241692Y360571D01*
X-242299Y361178D01*
X-242979Y361699D01*
X-243721Y362128D01*
X-244513Y362456D01*
X-245341Y362678D01*
X-246191Y362790D01*
X-247049D01*
X-247899Y362678D01*
X-248727Y362456D01*
X-249519Y362128D01*
X-250261Y361699D01*
X-250941Y361178D01*
X-251548Y360571D01*
X-252069Y359891D01*
X-252498Y359149D01*
X-252826Y358357D01*
X-253048Y357529D01*
X-253160Y356679D01*
Y355821D01*
X-253048Y354971D01*
X-252826Y354143D01*
X-252498Y353351D01*
X-252069Y352609D01*
X-251548Y351929D01*
X-250941Y351322D01*
X-250709Y351144D01*
X-250624Y351009D01*
X-250489Y349885D01*
X-250580Y349518D01*
X-250645Y349453D01*
X-251154Y348753D01*
X-251547Y347981D01*
X-251815Y347158D01*
X-251828Y347070D01*
X-271920Y347070D01*
Y386110D01*
X-210200D01*
X-188100Y408210D01*
Y440740D01*
X-30680D01*
Y440197D01*
X-30545Y439342D01*
X-30277Y438519D01*
X-29884Y437747D01*
X-29375Y437047D01*
X-28763Y436435D01*
X-28063Y435926D01*
X-27291Y435533D01*
X-26468Y435265D01*
X-25613Y435130D01*
X-24747D01*
X-23892Y435265D01*
X-23069Y435533D01*
X-22297Y435926D01*
X-21597Y436435D01*
X-20985Y437047D01*
X-20476Y437747D01*
X-20083Y438519D01*
X-19815Y439342D01*
X-19680Y440197D01*
Y440740D01*
X18873D01*
X19072Y440675D01*
X19927Y440540D01*
X20793D01*
X21648Y440675D01*
X21847Y440740D01*
X81040D01*
Y479720D01*
X81090Y479876D01*
X81226Y480731D01*
Y481360D01*
X89820D01*
X90197Y481086D01*
X90969Y480693D01*
X91792Y480425D01*
X92647Y480290D01*
X93513D01*
X94368Y480425D01*
X95191Y480693D01*
X95963Y481086D01*
X96340Y481360D01*
X107840D01*
Y469980D01*
D02*
G37*
G36*
X285450Y438320D02*
X234040D01*
Y805440D01*
X285450D01*
Y438320D01*
D02*
G37*
G36*
X-234380Y437920D02*
X-285790D01*
Y805040D01*
X-234380D01*
Y437920D01*
D02*
G37*
G36*
X9090Y336000D02*
X-32430D01*
Y373930D01*
X-125400D01*
X-203490Y295840D01*
X-400300D01*
X-410282Y305822D01*
X-409526Y306862D01*
X-409351Y306773D01*
X-408528Y306505D01*
X-407673Y306370D01*
X-406807D01*
X-405952Y306505D01*
X-405129Y306773D01*
X-404357Y307166D01*
X-403657Y307675D01*
X-403045Y308287D01*
X-402536Y308987D01*
X-402143Y309759D01*
X-401875Y310582D01*
X-401740Y311437D01*
Y312303D01*
X-401875Y313158D01*
X-402143Y313981D01*
X-402536Y314753D01*
X-403045Y315453D01*
X-403657Y316065D01*
X-404357Y316574D01*
X-405129Y316967D01*
X-405952Y317235D01*
X-406807Y317370D01*
X-407673D01*
X-408528Y317235D01*
X-409351Y316967D01*
X-410123Y316574D01*
X-410823Y316065D01*
X-411435Y315453D01*
X-411944Y314753D01*
X-412337Y313981D01*
X-412605Y313158D01*
X-412740Y312303D01*
Y311437D01*
X-412605Y310582D01*
X-412337Y309759D01*
X-412248Y309584D01*
X-413288Y308828D01*
X-420520Y316060D01*
Y316803D01*
X-420655Y317658D01*
X-420923Y318481D01*
X-421316Y319253D01*
X-421825Y319953D01*
X-422437Y320565D01*
X-423137Y321074D01*
X-423909Y321467D01*
X-424732Y321735D01*
X-425587Y321870D01*
X-426330D01*
X-478390Y373930D01*
X-509710Y373930D01*
Y406030D01*
X-455030D01*
X-381010Y332010D01*
X-215310D01*
X-141290Y406030D01*
X9090D01*
Y336000D01*
D02*
G37*
G36*
X293340Y128694D02*
X293332Y128685D01*
X292859Y127977D01*
X292482Y127213D01*
X292208Y126406D01*
X292042Y125570D01*
X291986Y124720D01*
X292042Y123870D01*
X292208Y123034D01*
X292482Y122227D01*
X292559Y122070D01*
X291835Y120800D01*
X224750D01*
X181160Y164390D01*
X113475D01*
X112575Y165652D01*
X112710Y166507D01*
Y167373D01*
X112575Y168228D01*
X112307Y169051D01*
X111914Y169823D01*
X111405Y170523D01*
X110793Y171135D01*
X110093Y171644D01*
X109321Y172037D01*
X108498Y172305D01*
X107643Y172440D01*
X106777D01*
X105922Y172305D01*
X105099Y172037D01*
X104327Y171644D01*
X103627Y171135D01*
X103015Y170523D01*
X102506Y169823D01*
X102113Y169051D01*
X101845Y168228D01*
X101710Y167373D01*
Y166507D01*
X101845Y165652D01*
X100945Y164390D01*
X-117730D01*
Y251130D01*
X-88080Y280780D01*
X148126D01*
Y278648D01*
X103414Y233936D01*
X102852Y233295D01*
X102379Y232587D01*
X102002Y231823D01*
X101728Y231016D01*
X101562Y230180D01*
X101506Y229330D01*
X101562Y228480D01*
X101728Y227644D01*
X102002Y226837D01*
X102379Y226073D01*
X102852Y225365D01*
X103414Y224724D01*
X104055Y224162D01*
X104763Y223689D01*
X105527Y223312D01*
X106334Y223038D01*
X107170Y222872D01*
X108020Y222816D01*
X108870Y222872D01*
X109706Y223038D01*
X110513Y223312D01*
X111277Y223689D01*
X111985Y224162D01*
X112626Y224724D01*
X159246Y271344D01*
X159808Y271985D01*
X160281Y272693D01*
X160658Y273457D01*
X160932Y274264D01*
X161098Y275100D01*
X161154Y275950D01*
Y280780D01*
X293340D01*
Y128694D01*
D02*
G37*
G36*
X-84272Y92750D02*
X-83540Y91479D01*
X-83569Y91429D01*
X-84020Y90339D01*
X-84326Y89200D01*
X-84480Y88030D01*
Y86850D01*
X-84326Y85680D01*
X-84020Y84541D01*
X-83569Y83451D01*
X-82979Y82429D01*
X-82261Y81493D01*
X-81426Y80659D01*
X-80490Y79941D01*
X-79469Y79351D01*
X-78379Y78899D01*
X-77239Y78594D01*
X-76069Y78440D01*
X-74890D01*
X-73720Y78594D01*
X-72580Y78899D01*
X-71490Y79351D01*
X-70469Y79941D01*
X-69533Y80659D01*
X-68698Y81493D01*
X-67980Y82429D01*
X-67390Y83451D01*
X-66939Y84541D01*
X-66634Y85680D01*
X-66480Y86850D01*
Y88030D01*
X-66634Y89200D01*
X-66939Y90339D01*
X-67390Y91429D01*
X-67399Y91444D01*
X-66665Y92713D01*
X-64297Y92708D01*
X-63565Y91436D01*
X-63569Y91429D01*
X-64020Y90339D01*
X-64325Y89200D01*
X-64479Y88030D01*
Y86850D01*
X-64325Y85680D01*
X-64020Y84541D01*
X-63569Y83451D01*
X-62979Y82429D01*
X-62261Y81493D01*
X-61426Y80659D01*
X-60490Y79941D01*
X-59469Y79351D01*
X-58379Y78899D01*
X-57239Y78594D01*
X-56069Y78440D01*
X-54890D01*
X-53720Y78594D01*
X-52580Y78899D01*
X-51490Y79351D01*
X-50469Y79941D01*
X-49533Y80659D01*
X-48699Y81493D01*
X-47980Y82429D01*
X-47390Y83451D01*
X-46939Y84541D01*
X-46634Y85680D01*
X-46480Y86850D01*
Y88030D01*
X-46634Y89200D01*
X-46939Y90339D01*
X-47390Y91429D01*
X-46640Y92670D01*
X-44322Y92665D01*
X-43569Y91429D01*
X-44020Y90339D01*
X-44326Y89200D01*
X-44480Y88030D01*
Y86850D01*
X-44326Y85680D01*
X-44020Y84541D01*
X-43569Y83451D01*
X-42979Y82429D01*
X-42261Y81493D01*
X-41426Y80659D01*
X-40490Y79941D01*
X-39469Y79351D01*
X-38379Y78899D01*
X-37239Y78594D01*
X-36070Y78440D01*
X-34890D01*
X-33720Y78594D01*
X-32580Y78899D01*
X-31490Y79351D01*
X-30469Y79941D01*
X-29533Y80659D01*
X-28698Y81493D01*
X-27980Y82429D01*
X-27390Y83451D01*
X-26939Y84541D01*
X-26634Y85680D01*
X-26480Y86850D01*
Y88030D01*
X-26634Y89200D01*
X-26939Y90339D01*
X-27390Y91429D01*
X-26616Y92627D01*
X-24347Y92622D01*
X-23569Y91429D01*
X-24021Y90339D01*
X-24326Y89200D01*
X-24480Y88030D01*
Y86850D01*
X-24326Y85680D01*
X-24021Y84541D01*
X-23569Y83451D01*
X-22979Y82429D01*
X-22261Y81493D01*
X-21427Y80659D01*
X-20491Y79941D01*
X-19469Y79351D01*
X-18379Y78899D01*
X-17240Y78594D01*
X-16070Y78440D01*
X-14890D01*
X-13721Y78594D01*
X-12581Y78899D01*
X-11491Y79351D01*
X-10469Y79941D01*
X-9533Y80659D01*
X-8699Y81493D01*
X-7981Y82429D01*
X-7391Y83451D01*
X-6939Y84541D01*
X-6634Y85680D01*
X-6480Y86850D01*
Y88030D01*
X-6634Y89200D01*
X-6939Y90339D01*
X-7344Y91316D01*
X-7209Y91692D01*
X-6592Y92584D01*
X-4371Y92580D01*
X-3764Y91708D01*
X-3619Y91308D01*
X-4020Y90339D01*
X-4326Y89200D01*
X-4480Y88030D01*
Y86850D01*
X-4326Y85680D01*
X-4020Y84541D01*
X-3569Y83451D01*
X-2979Y82429D01*
X-2261Y81493D01*
X-1427Y80659D01*
X-491Y79941D01*
X531Y79351D01*
X1621Y78899D01*
X2761Y78594D01*
X3930Y78440D01*
X5110D01*
X6280Y78594D01*
X7419Y78899D01*
X8509Y79351D01*
X9531Y79941D01*
X10467Y80659D01*
X11301Y81493D01*
X12019Y82429D01*
X12609Y83451D01*
X13061Y84541D01*
X13366Y85680D01*
X13520Y86850D01*
Y88030D01*
X13366Y89200D01*
X13061Y90339D01*
X12674Y91273D01*
X12863Y91771D01*
X13433Y92542D01*
X15604Y92537D01*
X16165Y91785D01*
X16363Y91266D01*
X15979Y90339D01*
X15674Y89200D01*
X15520Y88030D01*
Y86850D01*
X15674Y85680D01*
X15979Y84541D01*
X16431Y83451D01*
X17021Y82429D01*
X17739Y81493D01*
X18573Y80659D01*
X19509Y79941D01*
X20531Y79351D01*
X21621Y78899D01*
X22761Y78594D01*
X23930Y78440D01*
X25110D01*
X26280Y78594D01*
X27419Y78899D01*
X28509Y79351D01*
X29531Y79941D01*
X30467Y80659D01*
X31301Y81493D01*
X32019Y82429D01*
X32609Y83451D01*
X33061Y84541D01*
X33366Y85680D01*
X33520Y86850D01*
Y88030D01*
X33366Y89200D01*
X33061Y90339D01*
X32691Y91231D01*
X32934Y91839D01*
X33458Y92499D01*
X35580Y92495D01*
X36094Y91850D01*
X36346Y91223D01*
X35979Y90339D01*
X35674Y89200D01*
X35520Y88030D01*
Y86850D01*
X35674Y85680D01*
X35979Y84541D01*
X36431Y83451D01*
X37021Y82429D01*
X37739Y81493D01*
X38573Y80659D01*
X39509Y79941D01*
X40531Y79351D01*
X41621Y78899D01*
X42760Y78594D01*
X43930Y78440D01*
X45110D01*
X46280Y78594D01*
X47419Y78899D01*
X48509Y79351D01*
X49531Y79941D01*
X50467Y80659D01*
X51301Y81493D01*
X52019Y82429D01*
X52609Y83451D01*
X53061Y84541D01*
X53366Y85680D01*
X53520Y86850D01*
Y88030D01*
X53366Y89200D01*
X53061Y90339D01*
X52709Y91188D01*
X53005Y91895D01*
X53482Y92457D01*
X55794Y92452D01*
X56328Y91180D01*
X55979Y90339D01*
X55674Y89200D01*
X55520Y88030D01*
Y86850D01*
X55674Y85680D01*
X55979Y84541D01*
X56431Y83451D01*
X57021Y82429D01*
X57739Y81493D01*
X58573Y80659D01*
X59509Y79941D01*
X60531Y79351D01*
X61621Y78899D01*
X62760Y78594D01*
X63930Y78440D01*
X65110D01*
X66280Y78594D01*
X67419Y78899D01*
X68509Y79351D01*
X69531Y79941D01*
X70467Y80659D01*
X71301Y81493D01*
X72019Y82429D01*
X72609Y83451D01*
X73061Y84541D01*
X73366Y85680D01*
X73520Y86850D01*
Y88030D01*
X73366Y89200D01*
X73061Y90339D01*
X72727Y91145D01*
X73283Y92414D01*
X75520Y92409D01*
Y78440D01*
X93520D01*
Y80926D01*
X131722D01*
X172080Y40568D01*
Y35437D01*
X170810Y35257D01*
X170698Y35647D01*
X170224Y36791D01*
X169625Y37875D01*
X168908Y38885D01*
X168083Y39808D01*
X167160Y40633D01*
X166150Y41350D01*
X165066Y41949D01*
X163922Y42423D01*
X162732Y42765D01*
X161511Y42973D01*
X160275Y43042D01*
X156465D01*
X155229Y42973D01*
X154008Y42765D01*
X152818Y42423D01*
X151674Y41949D01*
X150590Y41350D01*
X149580Y40633D01*
X148657Y39808D01*
X147832Y38885D01*
X147115Y37875D01*
X146516Y36791D01*
X146042Y35647D01*
X145700Y34457D01*
X145492Y33236D01*
X145423Y32000D01*
X145492Y30764D01*
X145700Y29543D01*
X146042Y28353D01*
X146516Y27209D01*
X147115Y26125D01*
X147832Y25115D01*
X148657Y24192D01*
X149580Y23367D01*
X150590Y22650D01*
X151674Y22051D01*
X152818Y21577D01*
X154008Y21235D01*
X155229Y21027D01*
X156465Y20958D01*
X160275D01*
X161511Y21027D01*
X162732Y21235D01*
X163922Y21577D01*
X165066Y22051D01*
X166150Y22650D01*
X167160Y23367D01*
X168083Y24192D01*
X168908Y25115D01*
X169625Y26125D01*
X170224Y27209D01*
X170698Y28353D01*
X170810Y28742D01*
X172080Y28563D01*
Y10037D01*
X170810Y9858D01*
X170698Y10247D01*
X170224Y11391D01*
X169625Y12475D01*
X168908Y13485D01*
X168083Y14408D01*
X167160Y15233D01*
X166150Y15950D01*
X165066Y16549D01*
X163922Y17023D01*
X162732Y17365D01*
X161511Y17573D01*
X160275Y17642D01*
X156465D01*
X155229Y17573D01*
X154008Y17365D01*
X152818Y17023D01*
X151674Y16549D01*
X150590Y15950D01*
X149580Y15233D01*
X148657Y14408D01*
X147832Y13485D01*
X147115Y12475D01*
X146516Y11391D01*
X146042Y10247D01*
X145700Y9057D01*
X145492Y7836D01*
X145423Y6600D01*
X145492Y5364D01*
X145700Y4143D01*
X146042Y2953D01*
X146516Y1809D01*
X147115Y725D01*
X147832Y-285D01*
X148657Y-1208D01*
X149580Y-2033D01*
X150590Y-2750D01*
X151674Y-3349D01*
X152818Y-3823D01*
X154008Y-4166D01*
X155229Y-4373D01*
X156465Y-4442D01*
X160275D01*
X161511Y-4373D01*
X162732Y-4166D01*
X163922Y-3823D01*
X165066Y-3349D01*
X166150Y-2750D01*
X167160Y-2033D01*
X168083Y-1208D01*
X168908Y-285D01*
X169625Y725D01*
X170224Y1809D01*
X170698Y2953D01*
X170810Y3343D01*
X172080Y3163D01*
Y-32228D01*
X171300Y-33175D01*
X145440D01*
Y-40181D01*
X118895D01*
X96812Y-18098D01*
X96203Y-17598D01*
X95508Y-17227D01*
X94754Y-16998D01*
X93970Y-16921D01*
X74479D01*
Y-8996D01*
X74402Y-8212D01*
X74173Y-7457D01*
X73802Y-6762D01*
X73302Y-6154D01*
X71750Y-4601D01*
Y-4082D01*
X71615Y-3227D01*
X71347Y-2404D01*
X70954Y-1632D01*
X70445Y-932D01*
X69833Y-320D01*
X69133Y189D01*
X68361Y582D01*
X67538Y850D01*
X66683Y985D01*
X65817D01*
X64962Y850D01*
X64139Y582D01*
X63367Y189D01*
X62667Y-320D01*
X62491Y-496D01*
X31570D01*
X19010Y12064D01*
Y12313D01*
X18875Y13168D01*
X18722Y13638D01*
X19774Y14432D01*
X20327Y14008D01*
X21360Y13411D01*
X22462Y12955D01*
X23614Y12646D01*
X24797Y12490D01*
X25990D01*
X27173Y12646D01*
X28325Y12955D01*
X29427Y13411D01*
X30460Y14008D01*
X31406Y14734D01*
X32250Y15577D01*
X32976Y16524D01*
X33572Y17557D01*
X34029Y18659D01*
X34338Y19811D01*
X34493Y20994D01*
Y22187D01*
X34338Y23369D01*
X34029Y24522D01*
X33572Y25624D01*
X32976Y26657D01*
X32250Y27603D01*
X31406Y28447D01*
X30460Y29173D01*
X29427Y29769D01*
X28325Y30226D01*
X27173Y30534D01*
X25990Y30690D01*
X24797D01*
X23614Y30534D01*
X22462Y30226D01*
X21360Y29769D01*
X20327Y29173D01*
X19381Y28447D01*
X18537Y27603D01*
X17811Y26657D01*
X17214Y25624D01*
X16758Y24522D01*
X16449Y23369D01*
X16293Y22187D01*
Y20994D01*
X16449Y19811D01*
X16758Y18659D01*
X17214Y17557D01*
X16544Y16764D01*
X16275Y16644D01*
X15621Y16977D01*
X14798Y17245D01*
X13943Y17380D01*
X13077D01*
X12222Y17245D01*
X11399Y16977D01*
X10627Y16584D01*
X9927Y16075D01*
X9315Y15463D01*
X8806Y14763D01*
X8413Y13991D01*
X8145Y13168D01*
X8010Y12313D01*
Y11447D01*
X8145Y10592D01*
X8413Y9769D01*
X8806Y8997D01*
X9315Y8297D01*
X9927Y7685D01*
X10627Y7176D01*
X11399Y6783D01*
X12222Y6515D01*
X13077Y6380D01*
X13326D01*
X27063Y-7357D01*
X27672Y-7857D01*
X28367Y-8228D01*
X29121Y-8457D01*
X29905Y-8534D01*
X62491D01*
X62667Y-8710D01*
X63367Y-9219D01*
X64139Y-9612D01*
X64962Y-9880D01*
X65791Y-10011D01*
X66441Y-10661D01*
Y-17181D01*
X66265Y-17357D01*
X65756Y-18057D01*
X65363Y-18829D01*
X65095Y-19652D01*
X64960Y-20507D01*
Y-21373D01*
X65095Y-22228D01*
X65363Y-23051D01*
X65756Y-23823D01*
X66265Y-24523D01*
X66877Y-25135D01*
X67167Y-25345D01*
X67189Y-26616D01*
X67117Y-26796D01*
X66417Y-27305D01*
X65805Y-27917D01*
X65296Y-28617D01*
X64903Y-29389D01*
X64635Y-30212D01*
X64500Y-31067D01*
Y-31933D01*
X64635Y-32788D01*
X64903Y-33611D01*
X65296Y-34383D01*
X65805Y-35083D01*
X66417Y-35695D01*
X66420Y-35731D01*
X19825Y-82327D01*
X-59480D01*
X-60019Y-82380D01*
X-60538Y-82537D01*
X-61015Y-82792D01*
X-61434Y-83136D01*
X-83654Y-105356D01*
X-83998Y-105775D01*
X-84253Y-106252D01*
X-84410Y-106771D01*
X-84463Y-107310D01*
Y-169295D01*
X-98632Y-183464D01*
X-100927D01*
X-101307Y-183085D01*
X-102007Y-182576D01*
X-102779Y-182183D01*
X-103602Y-181915D01*
X-104457Y-181780D01*
X-105323D01*
X-106178Y-181915D01*
X-107001Y-182183D01*
X-107773Y-182576D01*
X-108473Y-183085D01*
X-109085Y-183697D01*
X-109594Y-184397D01*
X-109987Y-185169D01*
X-110255Y-185992D01*
X-110390Y-186847D01*
Y-187713D01*
X-110255Y-188568D01*
X-109987Y-189391D01*
X-109594Y-190163D01*
X-109085Y-190863D01*
X-108473Y-191475D01*
X-107773Y-191984D01*
X-107001Y-192377D01*
X-106442Y-192559D01*
X-106416Y-193657D01*
X-106460Y-193848D01*
X-106543Y-193861D01*
X-107367Y-194128D01*
X-108138Y-194521D01*
X-108838Y-195030D01*
X-109451Y-195642D01*
X-109959Y-196343D01*
X-110352Y-197114D01*
X-110620Y-197938D01*
X-110755Y-198792D01*
Y-199566D01*
X-110958Y-199742D01*
X-111962Y-200155D01*
X-113476Y-198642D01*
Y-164058D01*
X-101154Y-151736D01*
X-100592Y-151095D01*
X-100119Y-150387D01*
X-99742Y-149623D01*
X-99468Y-148816D01*
X-99302Y-147980D01*
X-99246Y-147130D01*
Y-119372D01*
Y-93324D01*
X-83410D01*
X-82560Y-93268D01*
X-81724Y-93102D01*
X-80917Y-92828D01*
X-80153Y-92451D01*
X-79445Y-91978D01*
X-78804Y-91416D01*
X-59804Y-72416D01*
X-59242Y-71775D01*
X-58769Y-71067D01*
X-58392Y-70303D01*
X-58118Y-69496D01*
X-57952Y-68660D01*
X-57896Y-67810D01*
Y-56564D01*
X-44210D01*
X-43360Y-56508D01*
X-42524Y-56342D01*
X-41717Y-56068D01*
X-40953Y-55691D01*
X-40245Y-55218D01*
X-39604Y-54656D01*
X-38834Y-53886D01*
X-38272Y-53245D01*
X-37799Y-52537D01*
X-37422Y-51773D01*
X-37148Y-50966D01*
X-36982Y-50130D01*
X-36926Y-49280D01*
X-36982Y-48430D01*
X-37148Y-47594D01*
X-37422Y-46787D01*
X-37799Y-46023D01*
X-38272Y-45315D01*
X-38834Y-44674D01*
X-39475Y-44112D01*
X-40183Y-43639D01*
X-40947Y-43262D01*
X-41754Y-42988D01*
X-42590Y-42822D01*
X-43440Y-42766D01*
X-44290Y-42822D01*
X-45126Y-42988D01*
X-45933Y-43262D01*
X-46489Y-43536D01*
X-64410D01*
X-65260Y-43592D01*
X-66096Y-43758D01*
X-66903Y-44032D01*
X-67667Y-44409D01*
X-68375Y-44882D01*
X-69016Y-45444D01*
X-69578Y-46085D01*
X-70051Y-46793D01*
X-70428Y-47557D01*
X-70702Y-48364D01*
X-70868Y-49200D01*
X-70924Y-50050D01*
Y-65112D01*
X-86108Y-80296D01*
X-131946D01*
Y-53034D01*
X-124534Y-45622D01*
X-123972Y-44981D01*
X-123499Y-44273D01*
X-123122Y-43508D01*
X-122848Y-42702D01*
X-122682Y-41866D01*
X-122626Y-41016D01*
X-122682Y-40165D01*
X-122848Y-39330D01*
X-123122Y-38523D01*
X-123499Y-37759D01*
X-123972Y-37050D01*
X-124534Y-36410D01*
X-125175Y-35848D01*
X-125883Y-35374D01*
X-126647Y-34997D01*
X-127454Y-34724D01*
X-128290Y-34557D01*
X-129140Y-34502D01*
X-129990Y-34557D01*
X-130826Y-34724D01*
X-131633Y-34997D01*
X-132397Y-35374D01*
X-133105Y-35848D01*
X-133746Y-36410D01*
X-143066Y-45730D01*
X-143628Y-46370D01*
X-144101Y-47079D01*
X-144478Y-47843D01*
X-144752Y-48650D01*
X-144918Y-49485D01*
X-144974Y-50336D01*
Y-83881D01*
X-144918Y-84731D01*
X-144752Y-85567D01*
X-144478Y-86374D01*
X-144101Y-87138D01*
X-143628Y-87846D01*
X-143066Y-88487D01*
X-140137Y-91416D01*
X-139496Y-91978D01*
X-138788Y-92451D01*
X-138024Y-92828D01*
X-137217Y-93102D01*
X-136381Y-93268D01*
X-135531Y-93324D01*
X-112274D01*
Y-119372D01*
Y-144432D01*
X-124596Y-156754D01*
X-125158Y-157395D01*
X-125631Y-158103D01*
X-126008Y-158867D01*
X-126282Y-159674D01*
X-126448Y-160510D01*
X-126504Y-161360D01*
Y-201340D01*
X-126448Y-202190D01*
X-126282Y-203026D01*
X-126008Y-203833D01*
X-125631Y-204597D01*
X-125158Y-205305D01*
X-124596Y-205946D01*
X-114196Y-216346D01*
X-114196Y-216346D01*
X-71614Y-258928D01*
Y-280170D01*
X-178260D01*
Y39870D01*
X-125293Y92837D01*
X-84272Y92750D01*
D02*
G37*
G36*
X114388Y-47042D02*
X114997Y-47542D01*
X115692Y-47913D01*
X116446Y-48142D01*
X117230Y-48219D01*
X145440D01*
Y-55225D01*
X162088D01*
X172080Y-65217D01*
Y-122754D01*
X170810Y-123007D01*
X170604Y-122509D01*
X170005Y-121425D01*
X169288Y-120415D01*
X168463Y-119492D01*
X167540Y-118667D01*
X166530Y-117950D01*
X165446Y-117351D01*
X164302Y-116877D01*
X163112Y-116535D01*
X161891Y-116327D01*
X160655Y-116258D01*
X156845D01*
X155609Y-116327D01*
X154388Y-116535D01*
X153198Y-116877D01*
X152054Y-117351D01*
X150970Y-117950D01*
X149960Y-118667D01*
X149037Y-119492D01*
X148212Y-120415D01*
X147495Y-121425D01*
X146896Y-122509D01*
X146422Y-123653D01*
X146080Y-124843D01*
X145872Y-126064D01*
X145803Y-127300D01*
X145872Y-128536D01*
X146080Y-129757D01*
X146422Y-130947D01*
X146896Y-132091D01*
X147495Y-133175D01*
X148212Y-134185D01*
X149037Y-135108D01*
X149960Y-135933D01*
X150970Y-136650D01*
X152054Y-137249D01*
X153198Y-137723D01*
X154388Y-138066D01*
X155609Y-138273D01*
X156845Y-138342D01*
X160655D01*
X161891Y-138273D01*
X163112Y-138066D01*
X164302Y-137723D01*
X165446Y-137249D01*
X166530Y-136650D01*
X167540Y-135933D01*
X168463Y-135108D01*
X169288Y-134185D01*
X170005Y-133175D01*
X170604Y-132091D01*
X170810Y-131593D01*
X172080Y-131846D01*
Y-165971D01*
X171680Y-167075D01*
X170810Y-167075D01*
X145820D01*
Y-189125D01*
X170810D01*
X171680Y-189125D01*
X172080Y-190229D01*
Y-227365D01*
X170968Y-228450D01*
X170767D01*
X169912Y-228585D01*
X169836Y-228610D01*
X156678D01*
X156564Y-228387D01*
X156055Y-227687D01*
X155443Y-227075D01*
X154743Y-226566D01*
X153971Y-226173D01*
X153148Y-225905D01*
X152293Y-225770D01*
X151427D01*
X150572Y-225905D01*
X149749Y-226173D01*
X148977Y-226566D01*
X148277Y-227075D01*
X147665Y-227687D01*
X147156Y-228387D01*
X147043Y-228610D01*
X107668D01*
Y-228082D01*
X107533Y-227227D01*
X107265Y-226403D01*
X106872Y-225632D01*
X106363Y-224932D01*
X105751Y-224319D01*
X105051Y-223810D01*
X104279Y-223417D01*
X103456Y-223150D01*
X102601Y-223015D01*
X101735D01*
X100880Y-223150D01*
X100057Y-223417D01*
X99285Y-223810D01*
X98585Y-224319D01*
X98310Y-224595D01*
X97226Y-224724D01*
X96667Y-224569D01*
X96253Y-224155D01*
X95552Y-223646D01*
X94781Y-223253D01*
X94096Y-223030D01*
X93899Y-222863D01*
X93293Y-221598D01*
X93369Y-221362D01*
X93504Y-220507D01*
Y-219641D01*
X93369Y-218786D01*
X93102Y-217963D01*
X92709Y-217192D01*
X92200Y-216491D01*
X91587Y-215879D01*
X90887Y-215370D01*
X90116Y-214977D01*
X89292Y-214710D01*
X88437Y-214574D01*
X87572D01*
X86716Y-214710D01*
X85893Y-214977D01*
X85122Y-215370D01*
X84421Y-215879D01*
X83809Y-216491D01*
X83300Y-217192D01*
X82907Y-217963D01*
X82640Y-218786D01*
X82504Y-219641D01*
Y-220507D01*
X82640Y-221362D01*
X82907Y-222186D01*
X83300Y-222957D01*
X83809Y-223657D01*
X84421Y-224270D01*
X85122Y-224778D01*
X85893Y-225171D01*
X86578Y-225394D01*
X86775Y-225562D01*
X87381Y-226827D01*
X87305Y-227062D01*
X87170Y-227917D01*
Y-228610D01*
X81220D01*
Y-247319D01*
X80001Y-248123D01*
X79178Y-247855D01*
X78323Y-247720D01*
X78074D01*
X70319Y-239965D01*
Y-145065D01*
X85054Y-130330D01*
X85303D01*
X86158Y-130195D01*
X86981Y-129927D01*
X87753Y-129534D01*
X88453Y-129025D01*
X89065Y-128413D01*
X89574Y-127713D01*
X89967Y-126941D01*
X90235Y-126118D01*
X90370Y-125263D01*
Y-124397D01*
X90235Y-123542D01*
X89967Y-122719D01*
X89574Y-121947D01*
X89065Y-121247D01*
X88814Y-120996D01*
Y-118234D01*
X88915Y-118133D01*
X89424Y-117433D01*
X89817Y-116661D01*
X90085Y-115838D01*
X90220Y-114983D01*
Y-114117D01*
X90085Y-113262D01*
X89817Y-112439D01*
X89424Y-111667D01*
X88915Y-110967D01*
X88303Y-110355D01*
X87603Y-109846D01*
X86831Y-109453D01*
X86008Y-109185D01*
X85153Y-109050D01*
X84287D01*
X83432Y-109185D01*
X82609Y-109453D01*
X81837Y-109846D01*
X81137Y-110355D01*
X80525Y-110967D01*
X80016Y-111667D01*
X79623Y-112439D01*
X79355Y-113262D01*
X79220Y-114117D01*
Y-114983D01*
X79355Y-115838D01*
X79623Y-116661D01*
X80016Y-117433D01*
X80525Y-118133D01*
X80776Y-118384D01*
Y-121146D01*
X80675Y-121247D01*
X80166Y-121947D01*
X79773Y-122719D01*
X79505Y-123542D01*
X79370Y-124397D01*
Y-124646D01*
X63458Y-140558D01*
X62958Y-141167D01*
X62587Y-141862D01*
X62358Y-142616D01*
X62281Y-143400D01*
Y-241630D01*
X62358Y-242414D01*
X62587Y-243168D01*
X62958Y-243863D01*
X63458Y-244472D01*
X67013Y-248027D01*
X66527Y-249201D01*
X33386D01*
X-3497Y-212318D01*
X-4106Y-211818D01*
X-4801Y-211447D01*
X-5555Y-211218D01*
X-6339Y-211141D01*
X-8184D01*
X-8672Y-210447D01*
X-8868Y-209871D01*
X-8563Y-209272D01*
X-8295Y-208448D01*
X-8160Y-207593D01*
Y-206727D01*
X-8295Y-205872D01*
X-8563Y-205049D01*
X-8956Y-204278D01*
X-9465Y-203577D01*
X-10077Y-202965D01*
X-10777Y-202456D01*
X-11549Y-202063D01*
X-12372Y-201796D01*
X-13227Y-201660D01*
X-14093D01*
X-14948Y-201796D01*
X-15771Y-202063D01*
X-16543Y-202456D01*
X-17243Y-202965D01*
X-17855Y-203577D01*
X-18364Y-204278D01*
X-18757Y-205049D01*
X-19025Y-205872D01*
X-19160Y-206727D01*
Y-207593D01*
X-19025Y-208448D01*
X-18757Y-209272D01*
X-18617Y-209546D01*
X-19220Y-210311D01*
X-19545Y-210522D01*
X-20242Y-210295D01*
X-21097Y-210160D01*
X-21963D01*
X-22818Y-210295D01*
X-23641Y-210563D01*
X-24413Y-210956D01*
X-25113Y-211465D01*
X-25289Y-211641D01*
X-37005D01*
X-55498Y-193148D01*
Y-148006D01*
X-31806D01*
X-31022Y-147928D01*
X-30268Y-147700D01*
X-29573Y-147328D01*
X-28964Y-146828D01*
X-19565Y-137429D01*
X-11729D01*
X-11553Y-137605D01*
X-10853Y-138114D01*
X-10081Y-138507D01*
X-9258Y-138775D01*
X-8403Y-138910D01*
X-7537D01*
X-6682Y-138775D01*
X-5859Y-138507D01*
X-5087Y-138114D01*
X-4387Y-137605D01*
X-3775Y-136993D01*
X-3266Y-136293D01*
X-2873Y-135521D01*
X-2605Y-134698D01*
X-2470Y-133843D01*
Y-132977D01*
X-2605Y-132122D01*
X-2873Y-131299D01*
X-3266Y-130527D01*
X-3775Y-129827D01*
X-4387Y-129215D01*
X-5087Y-128706D01*
X-5859Y-128313D01*
X-6682Y-128045D01*
X-7537Y-127910D01*
X-8403D01*
X-9258Y-128045D01*
X-10081Y-128313D01*
X-10853Y-128706D01*
X-11553Y-129215D01*
X-11729Y-129391D01*
X-21230D01*
X-22014Y-129468D01*
X-22768Y-129697D01*
X-23463Y-130068D01*
X-24072Y-130568D01*
X-33471Y-139967D01*
X-55759D01*
X-55914Y-139812D01*
X-55937Y-139787D01*
X-56001Y-139672D01*
X-56058Y-138236D01*
X-56029Y-138185D01*
X-55933Y-138089D01*
X-55425Y-137388D01*
X-55031Y-136617D01*
X-54764Y-135794D01*
X-54629Y-134939D01*
Y-134073D01*
X-54764Y-133218D01*
X-55031Y-132395D01*
X-55117Y-132227D01*
X-55099Y-132095D01*
X-54371Y-130980D01*
X-54084D01*
X-53229Y-130845D01*
X-52405Y-130577D01*
X-51634Y-130184D01*
X-50933Y-129675D01*
X-50321Y-129063D01*
X-49812Y-128363D01*
X-49419Y-127591D01*
X-49152Y-126768D01*
X-49016Y-125913D01*
Y-125349D01*
X-48878Y-125079D01*
X-48552Y-124748D01*
X-47850Y-124296D01*
X-47573Y-124340D01*
X-46707D01*
X-45852Y-124205D01*
X-45029Y-123937D01*
X-44257Y-123544D01*
X-43557Y-123035D01*
X-42945Y-122423D01*
X-42436Y-121723D01*
X-42043Y-120951D01*
X-41775Y-120128D01*
X-41640Y-119273D01*
Y-118407D01*
X-41775Y-117552D01*
X-42043Y-116729D01*
X-42436Y-115957D01*
X-42945Y-115257D01*
X-43557Y-114645D01*
X-44257Y-114136D01*
X-45029Y-113743D01*
X-45852Y-113475D01*
X-46707Y-113340D01*
X-47573D01*
X-48428Y-113475D01*
X-49251Y-113743D01*
X-50023Y-114136D01*
X-50723Y-114645D01*
X-51335Y-115257D01*
X-51844Y-115957D01*
X-52237Y-116729D01*
X-52505Y-117552D01*
X-52640Y-118407D01*
Y-118971D01*
X-52779Y-119241D01*
X-53105Y-119572D01*
X-53807Y-120024D01*
X-54084Y-119980D01*
X-54949D01*
X-55804Y-120115D01*
X-56628Y-120383D01*
X-57399Y-120776D01*
X-58099Y-121285D01*
X-58712Y-121897D01*
X-59220Y-122597D01*
X-59613Y-123369D01*
X-59881Y-124192D01*
X-60016Y-125047D01*
Y-125913D01*
X-59881Y-126768D01*
X-59613Y-127591D01*
X-59528Y-127759D01*
X-59546Y-127891D01*
X-60274Y-129006D01*
X-60561D01*
X-61417Y-129141D01*
X-62240Y-129409D01*
X-63011Y-129802D01*
X-63712Y-130311D01*
X-64324Y-130923D01*
X-64833Y-131623D01*
X-65226Y-132395D01*
X-65493Y-133218D01*
X-65629Y-134073D01*
Y-134939D01*
X-65493Y-135794D01*
X-65226Y-136617D01*
X-64833Y-137388D01*
X-64324Y-138089D01*
X-63732Y-138680D01*
X-63709Y-138706D01*
X-63645Y-138821D01*
X-63588Y-140256D01*
X-63617Y-140308D01*
X-63713Y-140403D01*
X-64221Y-141104D01*
X-64614Y-141875D01*
X-64882Y-142698D01*
X-65017Y-143553D01*
Y-144419D01*
X-64882Y-145274D01*
X-64614Y-146097D01*
X-64221Y-146869D01*
X-63713Y-147569D01*
X-63537Y-147745D01*
Y-194813D01*
X-63460Y-195597D01*
X-63231Y-196351D01*
X-62859Y-197046D01*
X-62359Y-197655D01*
X-41512Y-218502D01*
X-40903Y-219002D01*
X-40208Y-219373D01*
X-39454Y-219602D01*
X-38670Y-219679D01*
X-37893D01*
X-37407Y-220853D01*
X-64321Y-247767D01*
X-64353Y-247765D01*
X-104984Y-207134D01*
X-104984Y-207134D01*
X-106185Y-205933D01*
X-105772Y-204928D01*
X-105597Y-204725D01*
X-104823D01*
X-103968Y-204590D01*
X-103144Y-204322D01*
X-102373Y-203929D01*
X-101672Y-203421D01*
X-101060Y-202808D01*
X-100551Y-202108D01*
X-100158Y-201337D01*
X-99891Y-200513D01*
X-99755Y-199658D01*
Y-198792D01*
X-99891Y-197938D01*
X-100158Y-197114D01*
X-100551Y-196343D01*
X-101060Y-195642D01*
X-101672Y-195030D01*
X-102373Y-194521D01*
X-103144Y-194128D01*
X-103704Y-193946D01*
X-103730Y-192848D01*
X-103685Y-192658D01*
X-103602Y-192645D01*
X-102779Y-192377D01*
X-102007Y-191984D01*
X-101307Y-191475D01*
X-100695Y-190863D01*
X-100186Y-190163D01*
X-99793Y-189391D01*
X-99663Y-188991D01*
X-97488D01*
X-96948Y-188938D01*
X-96430Y-188781D01*
X-95952Y-188525D01*
X-95534Y-188182D01*
X-79746Y-172394D01*
X-79402Y-171975D01*
X-79147Y-171497D01*
X-78990Y-170979D01*
X-78937Y-170440D01*
Y-108455D01*
X-58335Y-87853D01*
X20969D01*
X21508Y-87800D01*
X22027Y-87643D01*
X22504Y-87388D01*
X22923Y-87044D01*
X71954Y-38013D01*
X72298Y-37594D01*
X72553Y-37117D01*
X72710Y-36598D01*
X72742Y-36276D01*
X72883Y-36204D01*
X73583Y-35695D01*
X74195Y-35083D01*
X74704Y-34383D01*
X75097Y-33611D01*
X75365Y-32788D01*
X75500Y-31933D01*
Y-31067D01*
X75365Y-30212D01*
X75097Y-29389D01*
X74704Y-28617D01*
X74195Y-27917D01*
X73583Y-27305D01*
X73293Y-27094D01*
X73271Y-25824D01*
X73343Y-25644D01*
X74043Y-25135D01*
X74219Y-24959D01*
X92305D01*
X114388Y-47042D01*
D02*
G37*
G36*
X-81210Y323170D02*
X-111770Y323170D01*
X-161335Y273605D01*
X-162220Y272720D01*
Y145460D01*
X167970Y145460D01*
X194759Y118671D01*
X194660Y118043D01*
Y117177D01*
X194795Y116322D01*
X195063Y115499D01*
X195456Y114727D01*
X195965Y114027D01*
X196577Y113415D01*
X197277Y112906D01*
X198049Y112513D01*
X198872Y112245D01*
X199727Y112110D01*
X200593D01*
X201221Y112209D01*
X270490Y42940D01*
X336560D01*
Y137270D01*
X408380Y209090D01*
Y257480D01*
X429040D01*
Y194360D01*
X367530Y132850D01*
Y-183980D01*
X217580D01*
X217580Y36620D01*
X144570Y109630D01*
X-220900D01*
Y-136139D01*
X-220950Y-137320D01*
X-220950Y-137320D01*
X-231620D01*
X-235270Y-140970D01*
Y-150050D01*
X-232550Y-152770D01*
X-220900D01*
Y-253213D01*
X-222165Y-253342D01*
X-222433Y-252519D01*
X-222826Y-251747D01*
X-223335Y-251047D01*
X-223947Y-250435D01*
X-224647Y-249926D01*
X-225419Y-249533D01*
X-226242Y-249265D01*
X-227097Y-249130D01*
X-227963D01*
X-228818Y-249265D01*
X-229641Y-249533D01*
X-230413Y-249926D01*
X-231113Y-250435D01*
X-231725Y-251047D01*
X-232234Y-251747D01*
X-232627Y-252519D01*
X-232895Y-253342D01*
X-233030Y-254197D01*
Y-255063D01*
X-232895Y-255918D01*
X-232627Y-256741D01*
X-232234Y-257513D01*
X-231725Y-258213D01*
X-231113Y-258825D01*
X-230413Y-259334D01*
X-229641Y-259727D01*
X-228818Y-259995D01*
X-227963Y-260130D01*
X-227097D01*
X-226242Y-259995D01*
X-225419Y-259727D01*
X-224647Y-259334D01*
X-223947Y-258825D01*
X-223335Y-258213D01*
X-222826Y-257513D01*
X-222433Y-256741D01*
X-222165Y-255918D01*
X-220900Y-256047D01*
Y-271340D01*
X-227730Y-278170D01*
X-267780D01*
X-274850Y-285240D01*
Y-417270D01*
X-269620Y-422330D01*
X-205720D01*
X-193540Y-434510D01*
Y-479860D01*
X-305420D01*
X-323400Y-461880D01*
Y-263200D01*
X-443930D01*
Y-239580D01*
X-323400D01*
Y-229090D01*
X-309030Y-214720D01*
X-287550D01*
Y-45780D01*
X-391020D01*
Y189440D01*
X-339640Y240820D01*
X-251700D01*
X-122980Y369540D01*
X-81210Y369540D01*
X-81210Y323170D01*
D02*
G37*
G36*
X28879Y-256062D02*
X29488Y-256562D01*
X30183Y-256933D01*
X30937Y-257162D01*
X31721Y-257239D01*
X74131D01*
X74307Y-257415D01*
X75007Y-257924D01*
X75779Y-258317D01*
X76602Y-258585D01*
X77457Y-258720D01*
X78323D01*
X79178Y-258585D01*
X80001Y-258317D01*
X81220Y-259121D01*
Y-409680D01*
X-48560D01*
Y-280170D01*
X-58586D01*
Y-254230D01*
X-58637Y-253451D01*
X-25071Y-219886D01*
X-24413Y-220364D01*
X-23641Y-220757D01*
X-22818Y-221025D01*
X-21963Y-221160D01*
X-21097D01*
X-20242Y-221025D01*
X-19419Y-220757D01*
X-18647Y-220364D01*
X-17947Y-219855D01*
X-17335Y-219243D01*
X-17289Y-219180D01*
X-8004D01*
X28879Y-256062D01*
D02*
G37*
%LPC*%
G36*
X52759Y438490D02*
X51893D01*
X51038Y438355D01*
X50215Y438087D01*
X49443Y437694D01*
X48743Y437185D01*
X48131Y436573D01*
X47622Y435873D01*
X47229Y435101D01*
X46961Y434278D01*
X46826Y433423D01*
Y432557D01*
X46961Y431702D01*
X47229Y430879D01*
X47622Y430107D01*
X48131Y429407D01*
X48743Y428795D01*
X49443Y428286D01*
X50215Y427893D01*
X51038Y427625D01*
X51893Y427490D01*
X52759D01*
X53614Y427625D01*
X54437Y427893D01*
X55208Y428286D01*
X55909Y428795D01*
X56521Y429407D01*
X57030Y430107D01*
X57423Y430879D01*
X57690Y431702D01*
X57826Y432557D01*
Y433423D01*
X57690Y434278D01*
X57423Y435101D01*
X57030Y435873D01*
X56521Y436573D01*
X55909Y437185D01*
X55208Y437694D01*
X54437Y438087D01*
X53614Y438355D01*
X52759Y438490D01*
D02*
G37*
G36*
X-54797Y433960D02*
X-55663D01*
X-56518Y433825D01*
X-57341Y433557D01*
X-58113Y433164D01*
X-58813Y432655D01*
X-59425Y432043D01*
X-59934Y431343D01*
X-60327Y430571D01*
X-60595Y429748D01*
X-60730Y428893D01*
Y428027D01*
X-60595Y427172D01*
X-60327Y426349D01*
X-59934Y425577D01*
X-59425Y424877D01*
X-58813Y424265D01*
X-58113Y423756D01*
X-57341Y423363D01*
X-56518Y423095D01*
X-55663Y422960D01*
X-54797D01*
X-53942Y423095D01*
X-53119Y423363D01*
X-52347Y423756D01*
X-51647Y424265D01*
X-51035Y424877D01*
X-50526Y425577D01*
X-50133Y426349D01*
X-49865Y427172D01*
X-49730Y428027D01*
Y428893D01*
X-49865Y429748D01*
X-50133Y430571D01*
X-50526Y431343D01*
X-51035Y432043D01*
X-51647Y432655D01*
X-52347Y433164D01*
X-53119Y433557D01*
X-53942Y433825D01*
X-54797Y433960D01*
D02*
G37*
G36*
X-10557Y264320D02*
X-11423D01*
X-12278Y264185D01*
X-13101Y263917D01*
X-13873Y263524D01*
X-14573Y263015D01*
X-15185Y262403D01*
X-15694Y261703D01*
X-16087Y260931D01*
X-16355Y260108D01*
X-16490Y259253D01*
Y258387D01*
X-16355Y257532D01*
X-16087Y256709D01*
X-15694Y255937D01*
X-15185Y255237D01*
X-14573Y254625D01*
X-13873Y254116D01*
X-13101Y253723D01*
X-12278Y253455D01*
X-11423Y253320D01*
X-10557D01*
X-9702Y253455D01*
X-8879Y253723D01*
X-8107Y254116D01*
X-7407Y254625D01*
X-6795Y255237D01*
X-6286Y255937D01*
X-5893Y256709D01*
X-5625Y257532D01*
X-5490Y258387D01*
Y259253D01*
X-5625Y260108D01*
X-5893Y260931D01*
X-6286Y261703D01*
X-6795Y262403D01*
X-7407Y263015D01*
X-8107Y263524D01*
X-8879Y263917D01*
X-9702Y264185D01*
X-10557Y264320D01*
D02*
G37*
G36*
X-83277Y263810D02*
X-84143D01*
X-84998Y263675D01*
X-85821Y263407D01*
X-86593Y263014D01*
X-87293Y262505D01*
X-87905Y261893D01*
X-88414Y261193D01*
X-88807Y260421D01*
X-89075Y259598D01*
X-89210Y258743D01*
Y257877D01*
X-89075Y257022D01*
X-88807Y256199D01*
X-88414Y255427D01*
X-87905Y254727D01*
X-87293Y254115D01*
X-86593Y253606D01*
X-85821Y253213D01*
X-84998Y252945D01*
X-84143Y252810D01*
X-83277D01*
X-82422Y252945D01*
X-81599Y253213D01*
X-80827Y253606D01*
X-80127Y254115D01*
X-79515Y254727D01*
X-79006Y255427D01*
X-78613Y256199D01*
X-78345Y257022D01*
X-78210Y257877D01*
Y258743D01*
X-78345Y259598D01*
X-78613Y260421D01*
X-79006Y261193D01*
X-79515Y261893D01*
X-80127Y262505D01*
X-80827Y263014D01*
X-81599Y263407D01*
X-82422Y263675D01*
X-83277Y263810D01*
D02*
G37*
G36*
X-10385Y201470D02*
X-11251D01*
X-12106Y201335D01*
X-12929Y201067D01*
X-13700Y200674D01*
X-14401Y200166D01*
X-15013Y199553D01*
X-15522Y198853D01*
X-15915Y198082D01*
X-16182Y197258D01*
X-16318Y196403D01*
Y195537D01*
X-16182Y194682D01*
X-15915Y193859D01*
X-15522Y193088D01*
X-15013Y192387D01*
X-14401Y191775D01*
X-13700Y191266D01*
X-12929Y190873D01*
X-12106Y190606D01*
X-11251Y190470D01*
X-10385D01*
X-9530Y190606D01*
X-8706Y190873D01*
X-7935Y191266D01*
X-7235Y191775D01*
X-6623Y192387D01*
X-6114Y193088D01*
X-5721Y193859D01*
X-5453Y194682D01*
X-5318Y195537D01*
Y196403D01*
X-5453Y197258D01*
X-5721Y198082D01*
X-6114Y198853D01*
X-6623Y199553D01*
X-7235Y200166D01*
X-7935Y200674D01*
X-8706Y201067D01*
X-9530Y201335D01*
X-10385Y201470D01*
D02*
G37*
G36*
X-82057Y178820D02*
X-82923D01*
X-83778Y178685D01*
X-84601Y178417D01*
X-85373Y178024D01*
X-86073Y177515D01*
X-86685Y176903D01*
X-87194Y176203D01*
X-87587Y175431D01*
X-87855Y174608D01*
X-87990Y173753D01*
Y172887D01*
X-87855Y172032D01*
X-87587Y171209D01*
X-87194Y170437D01*
X-86685Y169737D01*
X-86073Y169125D01*
X-85373Y168616D01*
X-84601Y168223D01*
X-83778Y167955D01*
X-82923Y167820D01*
X-82057D01*
X-81202Y167955D01*
X-80379Y168223D01*
X-79607Y168616D01*
X-78907Y169125D01*
X-78295Y169737D01*
X-77786Y170437D01*
X-77393Y171209D01*
X-77125Y172032D01*
X-76990Y172887D01*
Y173753D01*
X-77125Y174608D01*
X-77393Y175431D01*
X-77786Y176203D01*
X-78295Y176903D01*
X-78907Y177515D01*
X-79607Y178024D01*
X-80379Y178417D01*
X-81202Y178685D01*
X-82057Y178820D01*
D02*
G37*
G36*
X145323Y58402D02*
X144457D01*
X143602Y58267D01*
X142779Y57999D01*
X142008Y57606D01*
X141307Y57098D01*
X140695Y56485D01*
X140186Y55785D01*
X139793Y55014D01*
X139526Y54190D01*
X139390Y53335D01*
Y53090D01*
X138413Y52073D01*
X138182Y51980D01*
X137457D01*
X136602Y51844D01*
X135779Y51577D01*
X135008Y51184D01*
X134307Y50675D01*
X133695Y50063D01*
X133186Y49362D01*
X132793Y48591D01*
X132643Y48129D01*
X131710Y47550D01*
X131183Y47411D01*
X130558Y47615D01*
X129703Y47750D01*
X128837D01*
X127982Y47615D01*
X127159Y47347D01*
X126387Y46954D01*
X125687Y46445D01*
X125075Y45833D01*
X124566Y45133D01*
X124173Y44361D01*
X123905Y43538D01*
X123770Y42683D01*
Y41817D01*
X123905Y40962D01*
X124173Y40139D01*
X124566Y39367D01*
X125075Y38667D01*
X125687Y38055D01*
X126387Y37546D01*
X127159Y37153D01*
X127982Y36885D01*
X128837Y36750D01*
X129703D01*
X130558Y36885D01*
X131381Y37153D01*
X132153Y37546D01*
X132853Y38055D01*
X133465Y38667D01*
X133974Y39367D01*
X134367Y40139D01*
X134517Y40600D01*
X135450Y41179D01*
X135977Y41318D01*
X136602Y41115D01*
X137457Y40980D01*
X138323D01*
X139178Y41115D01*
X140001Y41383D01*
X140773Y41776D01*
X141473Y42284D01*
X142085Y42897D01*
X142594Y43597D01*
X142987Y44368D01*
X143255Y45192D01*
X143390Y46047D01*
Y46292D01*
X144367Y47309D01*
X144599Y47402D01*
X145323D01*
X146178Y47538D01*
X147001Y47805D01*
X147773Y48198D01*
X148473Y48707D01*
X149085Y49319D01*
X149594Y50020D01*
X149987Y50791D01*
X150255Y51614D01*
X150390Y52469D01*
Y53335D01*
X150255Y54190D01*
X149987Y55014D01*
X149594Y55785D01*
X149085Y56485D01*
X148473Y57098D01*
X147773Y57606D01*
X147001Y57999D01*
X146178Y58267D01*
X145323Y58402D01*
D02*
G37*
G36*
X115703Y55390D02*
X114837D01*
X113982Y55255D01*
X113159Y54987D01*
X112387Y54594D01*
X111687Y54085D01*
X111075Y53473D01*
X110566Y52773D01*
X110173Y52001D01*
X109905Y51178D01*
X109770Y50323D01*
Y49457D01*
X109905Y48602D01*
X110173Y47779D01*
X110566Y47007D01*
X111075Y46307D01*
X111687Y45695D01*
X112387Y45186D01*
X113159Y44793D01*
X113982Y44525D01*
X114837Y44390D01*
X115703D01*
X116558Y44525D01*
X117381Y44793D01*
X118153Y45186D01*
X118853Y45695D01*
X119465Y46307D01*
X119974Y47007D01*
X120367Y47779D01*
X120635Y48602D01*
X120770Y49457D01*
Y50323D01*
X120635Y51178D01*
X120367Y52001D01*
X119974Y52773D01*
X119465Y53473D01*
X118853Y54085D01*
X118153Y54594D01*
X117381Y54987D01*
X116558Y55255D01*
X115703Y55390D01*
D02*
G37*
G36*
X51390Y56090D02*
X50197D01*
X49014Y55934D01*
X47862Y55626D01*
X46760Y55169D01*
X45727Y54573D01*
X44781Y53847D01*
X43937Y53003D01*
X43211Y52057D01*
X42614Y51024D01*
X42158Y49921D01*
X41849Y48769D01*
X41693Y47587D01*
Y46394D01*
X41849Y45211D01*
X42158Y44059D01*
X42614Y42957D01*
X43211Y41924D01*
X43937Y40977D01*
X44781Y40134D01*
X45727Y39407D01*
X46760Y38811D01*
X47862Y38355D01*
X49014Y38046D01*
X50197Y37890D01*
X51390D01*
X52572Y38046D01*
X53725Y38355D01*
X54827Y38811D01*
X55860Y39407D01*
X56806Y40134D01*
X57650Y40977D01*
X58376Y41924D01*
X58972Y42957D01*
X59429Y44059D01*
X59738Y45211D01*
X59893Y46394D01*
Y47587D01*
X59738Y48769D01*
X59429Y49921D01*
X58972Y51024D01*
X58376Y52057D01*
X57650Y53003D01*
X56806Y53847D01*
X55860Y54573D01*
X54827Y55169D01*
X53725Y55626D01*
X52572Y55934D01*
X51390Y56090D01*
D02*
G37*
G36*
X25990D02*
X24797D01*
X23614Y55934D01*
X22462Y55626D01*
X21360Y55169D01*
X20327Y54573D01*
X19381Y53847D01*
X18537Y53003D01*
X17811Y52057D01*
X17214Y51024D01*
X16758Y49921D01*
X16449Y48769D01*
X16293Y47587D01*
Y46394D01*
X16449Y45211D01*
X16758Y44059D01*
X17214Y42957D01*
X17811Y41924D01*
X18537Y40977D01*
X19381Y40134D01*
X20327Y39407D01*
X21360Y38811D01*
X22462Y38355D01*
X23614Y38046D01*
X24797Y37890D01*
X25990D01*
X27173Y38046D01*
X28325Y38355D01*
X29427Y38811D01*
X30460Y39407D01*
X31406Y40134D01*
X32250Y40977D01*
X32976Y41924D01*
X33572Y42957D01*
X34029Y44059D01*
X34338Y45211D01*
X34493Y46394D01*
Y47587D01*
X34338Y48769D01*
X34029Y49921D01*
X33572Y51024D01*
X32976Y52057D01*
X32250Y53003D01*
X31406Y53847D01*
X30460Y54573D01*
X29427Y55169D01*
X28325Y55626D01*
X27173Y55934D01*
X25990Y56090D01*
D02*
G37*
G36*
X-24810D02*
X-26003D01*
X-27186Y55934D01*
X-28338Y55626D01*
X-29440Y55169D01*
X-30473Y54573D01*
X-31419Y53847D01*
X-32263Y53003D01*
X-32989Y52057D01*
X-33586Y51024D01*
X-34042Y49921D01*
X-34351Y48769D01*
X-34507Y47587D01*
Y46394D01*
X-34351Y45211D01*
X-34042Y44059D01*
X-33586Y42957D01*
X-32989Y41924D01*
X-32263Y40977D01*
X-31419Y40134D01*
X-30473Y39407D01*
X-29440Y38811D01*
X-28338Y38355D01*
X-27186Y38046D01*
X-26003Y37890D01*
X-24810D01*
X-23628Y38046D01*
X-22475Y38355D01*
X-21373Y38811D01*
X-20340Y39407D01*
X-19394Y40134D01*
X-18550Y40977D01*
X-17824Y41924D01*
X-17228Y42957D01*
X-16771Y44059D01*
X-16462Y45211D01*
X-16307Y46394D01*
Y47587D01*
X-16462Y48769D01*
X-16771Y49921D01*
X-17228Y51024D01*
X-17824Y52057D01*
X-18550Y53003D01*
X-19394Y53847D01*
X-20340Y54573D01*
X-21373Y55169D01*
X-22475Y55626D01*
X-23628Y55934D01*
X-24810Y56090D01*
D02*
G37*
G36*
X-50210D02*
X-51403D01*
X-52586Y55934D01*
X-53738Y55626D01*
X-54840Y55169D01*
X-55873Y54573D01*
X-56820Y53847D01*
X-57663Y53003D01*
X-58389Y52057D01*
X-58986Y51024D01*
X-59442Y49921D01*
X-59751Y48769D01*
X-59907Y47587D01*
Y46394D01*
X-59751Y45211D01*
X-59442Y44059D01*
X-58986Y42957D01*
X-58389Y41924D01*
X-57663Y40977D01*
X-56820Y40134D01*
X-55873Y39407D01*
X-54840Y38811D01*
X-53738Y38355D01*
X-52586Y38046D01*
X-51403Y37890D01*
X-50210D01*
X-49028Y38046D01*
X-47875Y38355D01*
X-46773Y38811D01*
X-45740Y39407D01*
X-44794Y40134D01*
X-43950Y40977D01*
X-43224Y41924D01*
X-42628Y42957D01*
X-42171Y44059D01*
X-41862Y45211D01*
X-41707Y46394D01*
Y47587D01*
X-41862Y48769D01*
X-42171Y49921D01*
X-42628Y51024D01*
X-43224Y52057D01*
X-43950Y53003D01*
X-44794Y53847D01*
X-45740Y54573D01*
X-46773Y55169D01*
X-47875Y55626D01*
X-49028Y55934D01*
X-50210Y56090D01*
D02*
G37*
G36*
X-93000Y52473D02*
X-93866D01*
X-94721Y52337D01*
X-95545Y52070D01*
X-96316Y51677D01*
X-97016Y51168D01*
X-97628Y50556D01*
X-98137Y49855D01*
X-98530Y49084D01*
X-98798Y48261D01*
X-98933Y47406D01*
Y46540D01*
X-98798Y45685D01*
X-98530Y44861D01*
X-98137Y44090D01*
X-97628Y43390D01*
X-97298Y43059D01*
X-97142Y42181D01*
X-97303Y41416D01*
X-97664Y41056D01*
X-98172Y40355D01*
X-98565Y39584D01*
X-98833Y38761D01*
X-98968Y37906D01*
Y37040D01*
X-98833Y36185D01*
X-98565Y35361D01*
X-98172Y34590D01*
X-97664Y33890D01*
X-97051Y33278D01*
X-96351Y32769D01*
X-95580Y32376D01*
X-94756Y32108D01*
X-93901Y31973D01*
X-93035D01*
X-92181Y32108D01*
X-91357Y32376D01*
X-90586Y32769D01*
X-89885Y33278D01*
X-89273Y33890D01*
X-88764Y34590D01*
X-88371Y35361D01*
X-88104Y36185D01*
X-87968Y37040D01*
Y37906D01*
X-88104Y38761D01*
X-88371Y39584D01*
X-88764Y40355D01*
X-89273Y41056D01*
X-89604Y41387D01*
X-89760Y42265D01*
X-89599Y43029D01*
X-89238Y43390D01*
X-88729Y44090D01*
X-88336Y44861D01*
X-88069Y45685D01*
X-87933Y46540D01*
Y47406D01*
X-88069Y48261D01*
X-88336Y49084D01*
X-88729Y49855D01*
X-89238Y50556D01*
X-89850Y51168D01*
X-90551Y51677D01*
X-91322Y52070D01*
X-92145Y52337D01*
X-93000Y52473D01*
D02*
G37*
G36*
X113883Y41785D02*
X113017D01*
X112162Y41650D01*
X111339Y41382D01*
X110567Y40989D01*
X109867Y40481D01*
X109255Y39869D01*
X108746Y39168D01*
X108353Y38397D01*
X108085Y37573D01*
X107950Y36718D01*
Y35853D01*
X108085Y34998D01*
X108353Y34174D01*
X108746Y33403D01*
X109255Y32703D01*
X109867Y32090D01*
X110567Y31581D01*
X111339Y31188D01*
X112162Y30921D01*
X113017Y30786D01*
X113883D01*
X114738Y30921D01*
X115561Y31188D01*
X116333Y31581D01*
X117033Y32090D01*
X117645Y32703D01*
X118154Y33403D01*
X118547Y34174D01*
X118815Y34998D01*
X118950Y35853D01*
Y36718D01*
X118815Y37573D01*
X118547Y38397D01*
X118154Y39168D01*
X117645Y39869D01*
X117033Y40481D01*
X116333Y40989D01*
X115561Y41382D01*
X114738Y41650D01*
X113883Y41785D01*
D02*
G37*
G36*
X-108347Y36868D02*
X-109213D01*
X-110068Y36733D01*
X-110891Y36465D01*
X-111663Y36072D01*
X-112363Y35563D01*
X-112975Y34951D01*
X-113484Y34251D01*
X-113877Y33479D01*
X-114145Y32656D01*
X-114280Y31801D01*
Y30935D01*
X-114145Y30080D01*
X-113877Y29257D01*
X-113484Y28486D01*
X-112975Y27785D01*
X-112363Y27173D01*
X-111663Y26664D01*
X-110891Y26271D01*
X-110068Y26003D01*
X-109213Y25868D01*
X-108546D01*
X-108204Y25707D01*
X-107350Y24740D01*
Y24437D01*
X-107215Y23582D01*
X-106947Y22759D01*
X-106554Y21987D01*
X-106045Y21287D01*
X-105433Y20675D01*
X-104733Y20166D01*
X-103961Y19773D01*
X-103138Y19505D01*
X-102283Y19370D01*
X-101417D01*
X-100562Y19505D01*
X-99739Y19773D01*
X-98967Y20166D01*
X-98267Y20675D01*
X-97655Y21287D01*
X-97146Y21987D01*
X-96753Y22759D01*
X-96485Y23582D01*
X-96350Y24437D01*
Y25303D01*
X-96485Y26158D01*
X-96753Y26981D01*
X-97146Y27753D01*
X-97655Y28453D01*
X-98267Y29065D01*
X-98967Y29574D01*
X-99739Y29967D01*
X-100562Y30235D01*
X-101417Y30370D01*
X-102084D01*
X-102426Y30532D01*
X-103280Y31498D01*
Y31801D01*
X-103415Y32656D01*
X-103683Y33479D01*
X-104076Y34251D01*
X-104585Y34951D01*
X-105197Y35563D01*
X-105897Y36072D01*
X-106669Y36465D01*
X-107492Y36733D01*
X-108347Y36868D01*
D02*
G37*
G36*
X59893Y30690D02*
X41693D01*
Y12490D01*
X59893D01*
Y30690D01*
D02*
G37*
G36*
X-24810D02*
X-26003D01*
X-27186Y30534D01*
X-28338Y30226D01*
X-29440Y29769D01*
X-30473Y29173D01*
X-31419Y28447D01*
X-32263Y27603D01*
X-32989Y26657D01*
X-33586Y25624D01*
X-34042Y24522D01*
X-34351Y23369D01*
X-34507Y22187D01*
Y20994D01*
X-34351Y19811D01*
X-34042Y18659D01*
X-33586Y17557D01*
X-32989Y16524D01*
X-32263Y15577D01*
X-31419Y14734D01*
X-30473Y14008D01*
X-29440Y13411D01*
X-28338Y12955D01*
X-27186Y12646D01*
X-26003Y12490D01*
X-24810D01*
X-23628Y12646D01*
X-22475Y12955D01*
X-21373Y13411D01*
X-20340Y14008D01*
X-19394Y14734D01*
X-18550Y15577D01*
X-17824Y16524D01*
X-17228Y17557D01*
X-16771Y18659D01*
X-16462Y19811D01*
X-16307Y20994D01*
Y22187D01*
X-16462Y23369D01*
X-16771Y24522D01*
X-17228Y25624D01*
X-17824Y26657D01*
X-18550Y27603D01*
X-19394Y28447D01*
X-20340Y29173D01*
X-21373Y29769D01*
X-22475Y30226D01*
X-23628Y30534D01*
X-24810Y30690D01*
D02*
G37*
G36*
X-50210D02*
X-51403D01*
X-52586Y30534D01*
X-53738Y30226D01*
X-54840Y29769D01*
X-55873Y29173D01*
X-56820Y28447D01*
X-57663Y27603D01*
X-58389Y26657D01*
X-58986Y25624D01*
X-59442Y24522D01*
X-59751Y23369D01*
X-59907Y22187D01*
Y20994D01*
X-59751Y19811D01*
X-59442Y18659D01*
X-58986Y17557D01*
X-58389Y16524D01*
X-57663Y15577D01*
X-56820Y14734D01*
X-55873Y14008D01*
X-54840Y13411D01*
X-53738Y12955D01*
X-52586Y12646D01*
X-51403Y12490D01*
X-50210D01*
X-49028Y12646D01*
X-47875Y12955D01*
X-46773Y13411D01*
X-45740Y14008D01*
X-44794Y14734D01*
X-43950Y15577D01*
X-43224Y16524D01*
X-42628Y17557D01*
X-42171Y18659D01*
X-41862Y19811D01*
X-41707Y20994D01*
Y22187D01*
X-41862Y23369D01*
X-42171Y24522D01*
X-42628Y25624D01*
X-43224Y26657D01*
X-43950Y27603D01*
X-44794Y28447D01*
X-45740Y29173D01*
X-46773Y29769D01*
X-47875Y30226D01*
X-49028Y30534D01*
X-50210Y30690D01*
D02*
G37*
G36*
X71183Y27470D02*
X70317D01*
X69462Y27335D01*
X68639Y27067D01*
X67867Y26674D01*
X67167Y26165D01*
X66555Y25553D01*
X66046Y24853D01*
X65653Y24081D01*
X65385Y23258D01*
X65250Y22403D01*
Y21537D01*
X65385Y20682D01*
X65653Y19859D01*
X66046Y19087D01*
X66555Y18387D01*
X67167Y17775D01*
X67867Y17266D01*
X68639Y16873D01*
X69462Y16605D01*
X69646Y16576D01*
X69748Y15274D01*
X69267Y15118D01*
X68496Y14725D01*
X67795Y14216D01*
X67183Y13604D01*
X66674Y12903D01*
X66281Y12132D01*
X66014Y11309D01*
X65878Y10454D01*
Y9588D01*
X66014Y8733D01*
X66281Y7910D01*
X66674Y7138D01*
X67183Y6438D01*
X67795Y5826D01*
X68496Y5317D01*
X69267Y4924D01*
X70090Y4656D01*
X70946Y4521D01*
X71811D01*
X72666Y4656D01*
X73490Y4924D01*
X74261Y5317D01*
X74961Y5826D01*
X75574Y6438D01*
X76082Y7138D01*
X76476Y7910D01*
X76743Y8733D01*
X76878Y9588D01*
Y10454D01*
X76743Y11309D01*
X76476Y12132D01*
X76082Y12903D01*
X75574Y13604D01*
X74961Y14216D01*
X74261Y14725D01*
X73490Y15118D01*
X72666Y15385D01*
X72483Y15415D01*
X72380Y16717D01*
X72861Y16873D01*
X73633Y17266D01*
X74333Y17775D01*
X74945Y18387D01*
X75454Y19087D01*
X75847Y19859D01*
X76115Y20682D01*
X76250Y21537D01*
Y22403D01*
X76115Y23258D01*
X75847Y24081D01*
X75454Y24853D01*
X74945Y25553D01*
X74333Y26165D01*
X73633Y26674D01*
X72861Y27067D01*
X72038Y27335D01*
X71183Y27470D01*
D02*
G37*
G36*
X-161095Y19142D02*
X-164905D01*
X-166141Y19073D01*
X-167362Y18865D01*
X-168552Y18523D01*
X-169696Y18049D01*
X-170780Y17450D01*
X-171790Y16733D01*
X-172713Y15908D01*
X-173538Y14985D01*
X-174255Y13975D01*
X-174854Y12891D01*
X-175328Y11747D01*
X-175671Y10557D01*
X-175878Y9336D01*
X-175947Y8100D01*
X-175878Y6864D01*
X-175671Y5643D01*
X-175328Y4453D01*
X-174854Y3309D01*
X-174255Y2225D01*
X-173538Y1215D01*
X-172713Y292D01*
X-171790Y-533D01*
X-170780Y-1250D01*
X-169696Y-1849D01*
X-168552Y-2323D01*
X-167362Y-2666D01*
X-166141Y-2873D01*
X-164905Y-2942D01*
X-161095D01*
X-159859Y-2873D01*
X-158638Y-2666D01*
X-157448Y-2323D01*
X-156304Y-1849D01*
X-155220Y-1250D01*
X-154210Y-533D01*
X-153287Y292D01*
X-152462Y1215D01*
X-151745Y2225D01*
X-151146Y3309D01*
X-150672Y4453D01*
X-150330Y5643D01*
X-150122Y6864D01*
X-150053Y8100D01*
X-150122Y9336D01*
X-150330Y10557D01*
X-150672Y11747D01*
X-151146Y12891D01*
X-151745Y13975D01*
X-152462Y14985D01*
X-153287Y15908D01*
X-154210Y16733D01*
X-155220Y17450D01*
X-156304Y18049D01*
X-157448Y18523D01*
X-158638Y18865D01*
X-159859Y19073D01*
X-161095Y19142D01*
D02*
G37*
G36*
X-24637Y7860D02*
X-25503D01*
X-26358Y7725D01*
X-27181Y7457D01*
X-27953Y7064D01*
X-28653Y6555D01*
X-29265Y5943D01*
X-29774Y5243D01*
X-30167Y4471D01*
X-30435Y3648D01*
X-30570Y2793D01*
Y1927D01*
X-30435Y1072D01*
X-30167Y249D01*
X-29774Y-523D01*
X-29265Y-1223D01*
X-28653Y-1835D01*
X-27953Y-2344D01*
X-27181Y-2737D01*
X-26358Y-3005D01*
X-25503Y-3140D01*
X-24637D01*
X-23782Y-3005D01*
X-22959Y-2737D01*
X-22187Y-2344D01*
X-21487Y-1835D01*
X-20875Y-1223D01*
X-20366Y-523D01*
X-19973Y249D01*
X-19705Y1072D01*
X-19570Y1927D01*
Y2793D01*
X-19705Y3648D01*
X-19973Y4471D01*
X-20366Y5243D01*
X-20875Y5943D01*
X-21487Y6555D01*
X-22187Y7064D01*
X-22959Y7457D01*
X-23782Y7725D01*
X-24637Y7860D01*
D02*
G37*
G36*
X590Y30690D02*
X-603D01*
X-1786Y30534D01*
X-2938Y30226D01*
X-4040Y29769D01*
X-5073Y29173D01*
X-6019Y28447D01*
X-6863Y27603D01*
X-7589Y26657D01*
X-8186Y25624D01*
X-8642Y24522D01*
X-8951Y23369D01*
X-9107Y22187D01*
Y20994D01*
X-8951Y19811D01*
X-8642Y18659D01*
X-8186Y17557D01*
X-7589Y16524D01*
X-6863Y15577D01*
X-6019Y14734D01*
X-5073Y14008D01*
X-4040Y13411D01*
X-3524Y13197D01*
Y-31232D01*
X-3456Y-31918D01*
X-3256Y-32578D01*
X-2931Y-33186D01*
X-2561Y-33637D01*
X-2650Y-34197D01*
Y-35063D01*
X-2515Y-35918D01*
X-2247Y-36741D01*
X-1854Y-37513D01*
X-1345Y-38213D01*
X-733Y-38825D01*
X-33Y-39334D01*
X739Y-39727D01*
X1562Y-39995D01*
X2417Y-40130D01*
X3283D01*
X4138Y-39995D01*
X4961Y-39727D01*
X5733Y-39334D01*
X6433Y-38825D01*
X7045Y-38213D01*
X7554Y-37513D01*
X7947Y-36741D01*
X8215Y-35918D01*
X8350Y-35063D01*
Y-34197D01*
X8215Y-33342D01*
X7947Y-32519D01*
X7554Y-31747D01*
X7045Y-31047D01*
X6433Y-30435D01*
X5733Y-29926D01*
X4961Y-29533D01*
X4138Y-29265D01*
X3510Y-29166D01*
Y13197D01*
X4027Y13411D01*
X5060Y14008D01*
X6006Y14734D01*
X6850Y15577D01*
X7576Y16524D01*
X8172Y17557D01*
X8629Y18659D01*
X8938Y19811D01*
X9093Y20994D01*
Y22187D01*
X8938Y23369D01*
X8629Y24522D01*
X8172Y25624D01*
X7576Y26657D01*
X6850Y27603D01*
X6006Y28447D01*
X5060Y29173D01*
X4027Y29769D01*
X2925Y30226D01*
X1772Y30534D01*
X590Y30690D01*
D02*
G37*
G36*
X36513Y-32670D02*
X35647D01*
X34792Y-32805D01*
X33969Y-33073D01*
X33197Y-33466D01*
X32497Y-33975D01*
X31885Y-34587D01*
X31376Y-35287D01*
X30983Y-36059D01*
X30715Y-36882D01*
X30580Y-37737D01*
Y-38603D01*
X30715Y-39458D01*
X30983Y-40281D01*
X31376Y-41053D01*
X31885Y-41753D01*
X32497Y-42365D01*
X33197Y-42874D01*
X33969Y-43267D01*
X34792Y-43535D01*
X35647Y-43670D01*
X36513D01*
X37368Y-43535D01*
X38191Y-43267D01*
X38963Y-42874D01*
X39663Y-42365D01*
X40275Y-41753D01*
X40784Y-41053D01*
X41177Y-40281D01*
X41445Y-39458D01*
X41580Y-38603D01*
Y-37737D01*
X41445Y-36882D01*
X41177Y-36059D01*
X40784Y-35287D01*
X40275Y-34587D01*
X39663Y-33975D01*
X38963Y-33466D01*
X38191Y-33073D01*
X37368Y-32805D01*
X36513Y-32670D01*
D02*
G37*
G36*
X-114417Y-36170D02*
X-115283D01*
X-116138Y-36305D01*
X-116961Y-36573D01*
X-117733Y-36966D01*
X-118433Y-37475D01*
X-119045Y-38087D01*
X-119554Y-38787D01*
X-119947Y-39559D01*
X-120215Y-40382D01*
X-120350Y-41237D01*
Y-42103D01*
X-120215Y-42958D01*
X-119947Y-43781D01*
X-119554Y-44553D01*
X-119045Y-45253D01*
X-118433Y-45865D01*
X-117733Y-46374D01*
X-116961Y-46767D01*
X-116138Y-47035D01*
X-115283Y-47170D01*
X-114417D01*
X-113562Y-47035D01*
X-112739Y-46767D01*
X-111967Y-46374D01*
X-111267Y-45865D01*
X-110655Y-45253D01*
X-110146Y-44553D01*
X-109753Y-43781D01*
X-109485Y-42958D01*
X-109350Y-42103D01*
Y-41237D01*
X-109485Y-40382D01*
X-109753Y-39559D01*
X-110146Y-38787D01*
X-110655Y-38087D01*
X-111267Y-37475D01*
X-111967Y-36966D01*
X-112739Y-36573D01*
X-113562Y-36305D01*
X-114417Y-36170D01*
D02*
G37*
G36*
X-150070Y-31675D02*
X-175930D01*
Y-53725D01*
X-150070D01*
Y-31675D01*
D02*
G37*
G36*
X-121167Y-54620D02*
X-122033D01*
X-122888Y-54755D01*
X-123711Y-55023D01*
X-124483Y-55416D01*
X-125183Y-55925D01*
X-125795Y-56537D01*
X-126304Y-57237D01*
X-126697Y-58009D01*
X-126965Y-58832D01*
X-127100Y-59687D01*
Y-60553D01*
X-126965Y-61408D01*
X-126697Y-62231D01*
X-126304Y-63003D01*
X-125795Y-63703D01*
X-125183Y-64315D01*
X-124483Y-64824D01*
X-123711Y-65217D01*
X-122888Y-65485D01*
X-122033Y-65620D01*
X-121167D01*
X-120312Y-65485D01*
X-119489Y-65217D01*
X-118717Y-64824D01*
X-118017Y-64315D01*
X-117405Y-63703D01*
X-116896Y-63003D01*
X-116503Y-62231D01*
X-116235Y-61408D01*
X-116100Y-60553D01*
Y-59687D01*
X-116235Y-58832D01*
X-116503Y-58009D01*
X-116896Y-57237D01*
X-117405Y-56537D01*
X-118017Y-55925D01*
X-118717Y-55416D01*
X-119489Y-55023D01*
X-120312Y-54755D01*
X-121167Y-54620D01*
D02*
G37*
G36*
X-161095Y-89858D02*
X-164905D01*
X-166141Y-89927D01*
X-167362Y-90134D01*
X-168552Y-90477D01*
X-169696Y-90951D01*
X-170780Y-91550D01*
X-171790Y-92267D01*
X-172713Y-93092D01*
X-173538Y-94015D01*
X-174255Y-95025D01*
X-174854Y-96109D01*
X-175328Y-97253D01*
X-175671Y-98443D01*
X-175878Y-99664D01*
X-175947Y-100900D01*
X-175878Y-102136D01*
X-175671Y-103357D01*
X-175328Y-104547D01*
X-174854Y-105691D01*
X-174255Y-106775D01*
X-173538Y-107785D01*
X-172713Y-108708D01*
X-171790Y-109533D01*
X-170780Y-110250D01*
X-169696Y-110849D01*
X-168552Y-111323D01*
X-167362Y-111665D01*
X-166141Y-111873D01*
X-164905Y-111942D01*
X-161095D01*
X-159859Y-111873D01*
X-158638Y-111665D01*
X-157448Y-111323D01*
X-156304Y-110849D01*
X-155220Y-110250D01*
X-154210Y-109533D01*
X-153287Y-108708D01*
X-152462Y-107785D01*
X-151745Y-106775D01*
X-151146Y-105691D01*
X-150672Y-104547D01*
X-150330Y-103357D01*
X-150122Y-102136D01*
X-150053Y-100900D01*
X-150122Y-99664D01*
X-150330Y-98443D01*
X-150672Y-97253D01*
X-151146Y-96109D01*
X-151745Y-95025D01*
X-152462Y-94015D01*
X-153287Y-93092D01*
X-154210Y-92267D01*
X-155220Y-91550D01*
X-156304Y-90951D01*
X-157448Y-90477D01*
X-158638Y-90134D01*
X-159859Y-89927D01*
X-161095Y-89858D01*
D02*
G37*
G36*
Y-115258D02*
X-164905D01*
X-166141Y-115327D01*
X-167362Y-115534D01*
X-168552Y-115877D01*
X-169696Y-116351D01*
X-170780Y-116950D01*
X-171790Y-117667D01*
X-172713Y-118492D01*
X-173538Y-119415D01*
X-174255Y-120425D01*
X-174854Y-121509D01*
X-175328Y-122653D01*
X-175671Y-123843D01*
X-175878Y-125064D01*
X-175947Y-126300D01*
X-175878Y-127536D01*
X-175671Y-128757D01*
X-175328Y-129947D01*
X-174854Y-131091D01*
X-174255Y-132175D01*
X-173538Y-133185D01*
X-172713Y-134108D01*
X-171790Y-134933D01*
X-170780Y-135650D01*
X-169696Y-136249D01*
X-168552Y-136723D01*
X-167362Y-137065D01*
X-166141Y-137273D01*
X-164905Y-137342D01*
X-161095D01*
X-159859Y-137273D01*
X-158638Y-137065D01*
X-157448Y-136723D01*
X-156304Y-136249D01*
X-155220Y-135650D01*
X-154210Y-134933D01*
X-153287Y-134108D01*
X-152462Y-133185D01*
X-151745Y-132175D01*
X-151146Y-131091D01*
X-150672Y-129947D01*
X-150330Y-128757D01*
X-150122Y-127536D01*
X-150053Y-126300D01*
X-150122Y-125064D01*
X-150330Y-123843D01*
X-150672Y-122653D01*
X-151146Y-121509D01*
X-151745Y-120425D01*
X-152462Y-119415D01*
X-153287Y-118492D01*
X-154210Y-117667D01*
X-155220Y-116950D01*
X-156304Y-116351D01*
X-157448Y-115877D01*
X-158638Y-115534D01*
X-159859Y-115327D01*
X-161095Y-115258D01*
D02*
G37*
G36*
Y-140658D02*
X-164905D01*
X-166141Y-140727D01*
X-167362Y-140934D01*
X-168552Y-141277D01*
X-169696Y-141751D01*
X-170780Y-142350D01*
X-171790Y-143067D01*
X-172713Y-143892D01*
X-173538Y-144815D01*
X-174255Y-145825D01*
X-174854Y-146909D01*
X-175328Y-148053D01*
X-175671Y-149243D01*
X-175878Y-150464D01*
X-175947Y-151700D01*
X-175878Y-152936D01*
X-175671Y-154157D01*
X-175328Y-155347D01*
X-174854Y-156491D01*
X-174255Y-157575D01*
X-173538Y-158585D01*
X-172713Y-159508D01*
X-171790Y-160333D01*
X-170780Y-161050D01*
X-169696Y-161649D01*
X-168552Y-162123D01*
X-167362Y-162465D01*
X-166141Y-162673D01*
X-164905Y-162742D01*
X-161095D01*
X-159859Y-162673D01*
X-158638Y-162465D01*
X-157448Y-162123D01*
X-156304Y-161649D01*
X-155220Y-161050D01*
X-154210Y-160333D01*
X-153287Y-159508D01*
X-152462Y-158585D01*
X-151745Y-157575D01*
X-151146Y-156491D01*
X-150672Y-155347D01*
X-150330Y-154157D01*
X-150122Y-152936D01*
X-150053Y-151700D01*
X-150122Y-150464D01*
X-150330Y-149243D01*
X-150672Y-148053D01*
X-151146Y-146909D01*
X-151745Y-145825D01*
X-152462Y-144815D01*
X-153287Y-143892D01*
X-154210Y-143067D01*
X-155220Y-142350D01*
X-156304Y-141751D01*
X-157448Y-141277D01*
X-158638Y-140934D01*
X-159859Y-140727D01*
X-161095Y-140658D01*
D02*
G37*
G36*
X-103527Y-166520D02*
X-104393D01*
X-105248Y-166655D01*
X-106071Y-166923D01*
X-106843Y-167316D01*
X-107543Y-167825D01*
X-108155Y-168437D01*
X-108664Y-169137D01*
X-109057Y-169909D01*
X-109325Y-170732D01*
X-109460Y-171587D01*
Y-172453D01*
X-109325Y-173308D01*
X-109057Y-174131D01*
X-108664Y-174903D01*
X-108155Y-175603D01*
X-107543Y-176215D01*
X-106843Y-176724D01*
X-106071Y-177117D01*
X-105248Y-177385D01*
X-104393Y-177520D01*
X-103527D01*
X-102672Y-177385D01*
X-101849Y-177117D01*
X-101077Y-176724D01*
X-100377Y-176215D01*
X-99765Y-175603D01*
X-99256Y-174903D01*
X-98863Y-174131D01*
X-98595Y-173308D01*
X-98460Y-172453D01*
Y-171587D01*
X-98595Y-170732D01*
X-98863Y-169909D01*
X-99256Y-169137D01*
X-99765Y-168437D01*
X-100377Y-167825D01*
X-101077Y-167316D01*
X-101849Y-166923D01*
X-102672Y-166655D01*
X-103527Y-166520D01*
D02*
G37*
G36*
X-150070Y-166075D02*
X-175930D01*
Y-188125D01*
X-150070D01*
Y-166075D01*
D02*
G37*
G36*
X-120057Y-215080D02*
X-120923D01*
X-121778Y-215215D01*
X-122601Y-215483D01*
X-123373Y-215876D01*
X-124073Y-216385D01*
X-124685Y-216997D01*
X-125194Y-217697D01*
X-125587Y-218469D01*
X-125855Y-219292D01*
X-125990Y-220147D01*
Y-221013D01*
X-125855Y-221868D01*
X-125587Y-222691D01*
X-125194Y-223463D01*
X-124685Y-224163D01*
X-124073Y-224775D01*
X-123373Y-225284D01*
X-122601Y-225677D01*
X-121778Y-225945D01*
X-120923Y-226080D01*
X-120057D01*
X-119202Y-225945D01*
X-118379Y-225677D01*
X-117607Y-225284D01*
X-116907Y-224775D01*
X-116295Y-224163D01*
X-115786Y-223463D01*
X-115393Y-222691D01*
X-115125Y-221868D01*
X-114990Y-221013D01*
Y-220147D01*
X-115125Y-219292D01*
X-115393Y-218469D01*
X-115786Y-217697D01*
X-116295Y-216997D01*
X-116907Y-216385D01*
X-117607Y-215876D01*
X-118379Y-215483D01*
X-119202Y-215215D01*
X-120057Y-215080D01*
D02*
G37*
G36*
X-102575Y-233070D02*
X-124625D01*
Y-258930D01*
X-102575D01*
Y-233070D01*
D02*
G37*
G36*
X-139000Y-233053D02*
X-140236Y-233122D01*
X-141457Y-233330D01*
X-142647Y-233672D01*
X-143791Y-234146D01*
X-144875Y-234745D01*
X-145885Y-235462D01*
X-146808Y-236287D01*
X-147633Y-237210D01*
X-148350Y-238220D01*
X-148949Y-239304D01*
X-149423Y-240448D01*
X-149766Y-241638D01*
X-149973Y-242859D01*
X-150042Y-244095D01*
Y-247905D01*
X-149973Y-249141D01*
X-149766Y-250362D01*
X-149423Y-251552D01*
X-148949Y-252696D01*
X-148350Y-253780D01*
X-147633Y-254790D01*
X-146808Y-255713D01*
X-145885Y-256538D01*
X-144875Y-257255D01*
X-143791Y-257854D01*
X-142647Y-258328D01*
X-141457Y-258671D01*
X-140236Y-258878D01*
X-139000Y-258947D01*
X-137764Y-258878D01*
X-136543Y-258671D01*
X-135353Y-258328D01*
X-134209Y-257854D01*
X-133125Y-257255D01*
X-132115Y-256538D01*
X-131192Y-255713D01*
X-130367Y-254790D01*
X-129650Y-253780D01*
X-129051Y-252696D01*
X-128577Y-251552D01*
X-128235Y-250362D01*
X-128027Y-249141D01*
X-127958Y-247905D01*
Y-244095D01*
X-128027Y-242859D01*
X-128235Y-241638D01*
X-128577Y-240448D01*
X-129051Y-239304D01*
X-129650Y-238220D01*
X-130367Y-237210D01*
X-131192Y-236287D01*
X-132115Y-235462D01*
X-133125Y-234745D01*
X-134209Y-234146D01*
X-135353Y-233672D01*
X-136543Y-233330D01*
X-137764Y-233122D01*
X-139000Y-233053D01*
D02*
G37*
G36*
X-32367Y-101300D02*
X-33233D01*
X-34088Y-101435D01*
X-34911Y-101703D01*
X-35683Y-102096D01*
X-36383Y-102605D01*
X-36995Y-103217D01*
X-37504Y-103917D01*
X-37897Y-104689D01*
X-38165Y-105512D01*
X-38300Y-106367D01*
Y-107233D01*
X-38165Y-108088D01*
X-37897Y-108911D01*
X-37504Y-109683D01*
X-36995Y-110383D01*
X-36383Y-110995D01*
X-35683Y-111504D01*
X-34911Y-111897D01*
X-34088Y-112165D01*
X-33233Y-112300D01*
X-32367D01*
X-31512Y-112165D01*
X-30689Y-111897D01*
X-29917Y-111504D01*
X-29217Y-110995D01*
X-28605Y-110383D01*
X-28096Y-109683D01*
X-27703Y-108911D01*
X-27435Y-108088D01*
X-27300Y-107233D01*
Y-106367D01*
X-27435Y-105512D01*
X-27703Y-104689D01*
X-28096Y-103917D01*
X-28605Y-103217D01*
X-29217Y-102605D01*
X-29917Y-102096D01*
X-30689Y-101703D01*
X-31512Y-101435D01*
X-32367Y-101300D01*
D02*
G37*
G36*
X22458Y-124845D02*
X21592D01*
X20737Y-124981D01*
X19914Y-125248D01*
X19143Y-125641D01*
X18442Y-126150D01*
X17830Y-126762D01*
X17321Y-127463D01*
X16928Y-128234D01*
X16661Y-129057D01*
X16525Y-129912D01*
Y-130778D01*
X16661Y-131633D01*
X16928Y-132457D01*
X17321Y-133228D01*
X17830Y-133928D01*
X18442Y-134540D01*
X19143Y-135049D01*
X19914Y-135442D01*
X20737Y-135710D01*
X21592Y-135845D01*
X22458D01*
X23313Y-135710D01*
X24137Y-135442D01*
X24908Y-135049D01*
X25608Y-134540D01*
X26220Y-133928D01*
X26729Y-133228D01*
X27122Y-132457D01*
X27390Y-131633D01*
X27525Y-130778D01*
Y-129912D01*
X27390Y-129057D01*
X27122Y-128234D01*
X26729Y-127463D01*
X26220Y-126762D01*
X25608Y-126150D01*
X24908Y-125641D01*
X24137Y-125248D01*
X23313Y-124981D01*
X22458Y-124845D01*
D02*
G37*
G36*
X7203Y-130660D02*
X6337D01*
X5482Y-130795D01*
X4659Y-131063D01*
X3887Y-131456D01*
X3187Y-131965D01*
X2575Y-132577D01*
X2066Y-133277D01*
X1673Y-134049D01*
X1405Y-134872D01*
X1270Y-135727D01*
Y-136593D01*
X1405Y-137448D01*
X1673Y-138271D01*
X2066Y-139043D01*
X2575Y-139743D01*
X3187Y-140355D01*
X3887Y-140864D01*
X4659Y-141257D01*
X5482Y-141525D01*
X6337Y-141660D01*
X7203D01*
X8058Y-141525D01*
X8881Y-141257D01*
X9653Y-140864D01*
X10353Y-140355D01*
X10965Y-139743D01*
X11474Y-139043D01*
X11867Y-138271D01*
X12135Y-137448D01*
X12270Y-136593D01*
Y-135727D01*
X12135Y-134872D01*
X11867Y-134049D01*
X11474Y-133277D01*
X10965Y-132577D01*
X10353Y-131965D01*
X9653Y-131456D01*
X8881Y-131063D01*
X8058Y-130795D01*
X7203Y-130660D01*
D02*
G37*
G36*
X54843Y-133240D02*
X53977D01*
X53122Y-133375D01*
X52299Y-133643D01*
X51527Y-134036D01*
X50827Y-134545D01*
X50215Y-135157D01*
X49706Y-135857D01*
X49313Y-136629D01*
X49045Y-137452D01*
X48910Y-138307D01*
Y-139173D01*
X48987Y-139659D01*
X48925Y-139880D01*
X48494Y-140478D01*
X47990Y-140890D01*
X47777D01*
X46922Y-141025D01*
X46099Y-141293D01*
X45327Y-141686D01*
X44627Y-142195D01*
X44015Y-142807D01*
X43506Y-143507D01*
X43113Y-144279D01*
X42845Y-145102D01*
X42710Y-145957D01*
Y-146823D01*
X42845Y-147678D01*
X43113Y-148501D01*
X43506Y-149273D01*
X44015Y-149973D01*
X44627Y-150585D01*
X45327Y-151094D01*
X46099Y-151487D01*
X46922Y-151755D01*
X47777Y-151890D01*
X48643D01*
X49498Y-151755D01*
X50321Y-151487D01*
X51093Y-151094D01*
X51793Y-150585D01*
X52405Y-149973D01*
X52914Y-149273D01*
X53307Y-148501D01*
X53575Y-147678D01*
X53710Y-146823D01*
Y-145957D01*
X53633Y-145471D01*
X53695Y-145250D01*
X54126Y-144652D01*
X54630Y-144240D01*
X54843D01*
X55698Y-144105D01*
X56521Y-143837D01*
X57293Y-143444D01*
X57993Y-142935D01*
X58605Y-142323D01*
X59114Y-141623D01*
X59507Y-140851D01*
X59775Y-140028D01*
X59910Y-139173D01*
Y-138307D01*
X59775Y-137452D01*
X59507Y-136629D01*
X59114Y-135857D01*
X58605Y-135157D01*
X57993Y-134545D01*
X57293Y-134036D01*
X56521Y-133643D01*
X55698Y-133375D01*
X54843Y-133240D01*
D02*
G37*
G36*
X90343Y-152491D02*
X89477D01*
X88622Y-152626D01*
X87799Y-152894D01*
X87027Y-153287D01*
X86327Y-153796D01*
X85715Y-154408D01*
X85206Y-155108D01*
X84813Y-155880D01*
X84545Y-156703D01*
X84410Y-157558D01*
Y-158424D01*
X84545Y-159279D01*
X84813Y-160102D01*
X85206Y-160874D01*
X85715Y-161574D01*
X86327Y-162186D01*
X87027Y-162695D01*
X87799Y-163088D01*
X88622Y-163356D01*
X89477Y-163491D01*
X90343D01*
X91198Y-163356D01*
X92021Y-163088D01*
X92793Y-162695D01*
X93493Y-162186D01*
X94105Y-161574D01*
X94614Y-160874D01*
X95007Y-160102D01*
X95275Y-159279D01*
X95410Y-158424D01*
Y-157558D01*
X95275Y-156703D01*
X95007Y-155880D01*
X94614Y-155108D01*
X94105Y-154408D01*
X93493Y-153796D01*
X92793Y-153287D01*
X92021Y-152894D01*
X91198Y-152626D01*
X90343Y-152491D01*
D02*
G37*
G36*
X20090Y-168541D02*
X19225D01*
X18370Y-168677D01*
X17546Y-168944D01*
X16775Y-169337D01*
X16075Y-169846D01*
X15462Y-170458D01*
X14954Y-171159D01*
X14561Y-171930D01*
X14293Y-172753D01*
X14158Y-173608D01*
Y-174474D01*
X14124Y-174552D01*
X13033Y-175493D01*
X12823Y-175460D01*
X11957D01*
X11102Y-175595D01*
X10279Y-175863D01*
X9507Y-176256D01*
X8807Y-176765D01*
X8195Y-177377D01*
X7686Y-178077D01*
X7293Y-178849D01*
X7025Y-179672D01*
X6890Y-180527D01*
Y-181393D01*
X7025Y-182248D01*
X7293Y-183071D01*
X7686Y-183843D01*
X8195Y-184543D01*
X8807Y-185155D01*
X9507Y-185664D01*
X10279Y-186057D01*
X11102Y-186325D01*
X11957Y-186460D01*
X12823D01*
X13678Y-186325D01*
X14501Y-186057D01*
X15273Y-185664D01*
X15973Y-185155D01*
X16585Y-184543D01*
X17094Y-183843D01*
X17487Y-183071D01*
X17755Y-182248D01*
X17890Y-181393D01*
Y-180527D01*
X17923Y-180449D01*
X19014Y-179508D01*
X19225Y-179541D01*
X20090D01*
X20945Y-179406D01*
X21769Y-179138D01*
X22540Y-178745D01*
X23241Y-178236D01*
X23853Y-177624D01*
X24362Y-176924D01*
X24755Y-176152D01*
X25022Y-175329D01*
X25158Y-174474D01*
Y-173608D01*
X25022Y-172753D01*
X24755Y-171930D01*
X24362Y-171159D01*
X23853Y-170458D01*
X23241Y-169846D01*
X22540Y-169337D01*
X21769Y-168944D01*
X20945Y-168677D01*
X20090Y-168541D01*
D02*
G37*
G36*
X-24095Y-164128D02*
X-24961D01*
X-25816Y-164263D01*
X-26639Y-164531D01*
X-27411Y-164924D01*
X-28111Y-165433D01*
X-28723Y-166045D01*
X-29232Y-166745D01*
X-29625Y-167517D01*
X-29892Y-168340D01*
X-30028Y-169195D01*
Y-170061D01*
X-29892Y-170916D01*
X-29625Y-171739D01*
X-29232Y-172511D01*
X-28723Y-173211D01*
X-28111Y-173823D01*
X-27411Y-174332D01*
X-26639Y-174725D01*
X-25816Y-174993D01*
X-24961Y-175128D01*
X-24095D01*
X-23708Y-175067D01*
X-22959Y-176196D01*
X-23054Y-176327D01*
X-23447Y-177099D01*
X-23715Y-177922D01*
X-23850Y-178777D01*
Y-179643D01*
X-23715Y-180498D01*
X-23447Y-181321D01*
X-23054Y-182093D01*
X-22545Y-182793D01*
X-21933Y-183405D01*
X-21233Y-183914D01*
X-20461Y-184307D01*
X-19638Y-184575D01*
X-18783Y-184710D01*
X-17917D01*
X-17062Y-184575D01*
X-16239Y-184307D01*
X-15467Y-183914D01*
X-14767Y-183405D01*
X-14155Y-182793D01*
X-13646Y-182093D01*
X-13253Y-181321D01*
X-12985Y-180498D01*
X-12850Y-179643D01*
Y-178777D01*
X-12985Y-177922D01*
X-13253Y-177099D01*
X-13646Y-176327D01*
X-14155Y-175627D01*
X-14767Y-175015D01*
X-15467Y-174506D01*
X-16239Y-174113D01*
X-17062Y-173845D01*
X-17917Y-173710D01*
X-18783D01*
X-19170Y-173771D01*
X-19919Y-172642D01*
X-19824Y-172511D01*
X-19431Y-171739D01*
X-19163Y-170916D01*
X-19028Y-170061D01*
Y-169195D01*
X-19163Y-168340D01*
X-19431Y-167517D01*
X-19824Y-166745D01*
X-20333Y-166045D01*
X-20945Y-165433D01*
X-21645Y-164924D01*
X-22417Y-164531D01*
X-23240Y-164263D01*
X-24095Y-164128D01*
D02*
G37*
G36*
X101983Y-167810D02*
X101117D01*
X100262Y-167945D01*
X99439Y-168213D01*
X98667Y-168606D01*
X97967Y-169115D01*
X97355Y-169727D01*
X96846Y-170427D01*
X96453Y-171199D01*
X96185Y-172022D01*
X96050Y-172877D01*
Y-173743D01*
X96185Y-174598D01*
X96453Y-175421D01*
X96846Y-176193D01*
X97355Y-176893D01*
X97967Y-177505D01*
X98667Y-178014D01*
X99439Y-178407D01*
X99939Y-178570D01*
X99836Y-179872D01*
X99812Y-179875D01*
X98989Y-180143D01*
X98217Y-180536D01*
X97517Y-181045D01*
X96905Y-181657D01*
X96396Y-182357D01*
X96003Y-183129D01*
X95735Y-183952D01*
X95600Y-184807D01*
Y-185673D01*
X95735Y-186528D01*
X96003Y-187351D01*
X96396Y-188123D01*
X96905Y-188823D01*
X97517Y-189435D01*
X98217Y-189944D01*
X98989Y-190337D01*
X99812Y-190605D01*
X100667Y-190740D01*
X101533D01*
X102388Y-190605D01*
X103211Y-190337D01*
X103983Y-189944D01*
X104683Y-189435D01*
X105295Y-188823D01*
X105804Y-188123D01*
X106197Y-187351D01*
X106465Y-186528D01*
X106600Y-185673D01*
Y-184807D01*
X106465Y-183952D01*
X106197Y-183129D01*
X105804Y-182357D01*
X105295Y-181657D01*
X104683Y-181045D01*
X103983Y-180536D01*
X103211Y-180143D01*
X102711Y-179981D01*
X102814Y-178678D01*
X102838Y-178675D01*
X103661Y-178407D01*
X104433Y-178014D01*
X105133Y-177505D01*
X105745Y-176893D01*
X106254Y-176193D01*
X106647Y-175421D01*
X106915Y-174598D01*
X107050Y-173743D01*
Y-172877D01*
X106915Y-172022D01*
X106647Y-171199D01*
X106254Y-170427D01*
X105745Y-169727D01*
X105133Y-169115D01*
X104433Y-168606D01*
X103661Y-168213D01*
X102838Y-167945D01*
X101983Y-167810D01*
D02*
G37*
G36*
X48914Y-168496D02*
X48048D01*
X47193Y-168631D01*
X46370Y-168899D01*
X45598Y-169292D01*
X44898Y-169801D01*
X44286Y-170413D01*
X43777Y-171113D01*
X43384Y-171885D01*
X43116Y-172708D01*
X42981Y-173563D01*
Y-174429D01*
X43116Y-175284D01*
X43384Y-176107D01*
X43777Y-176879D01*
X44286Y-177579D01*
X44898Y-178191D01*
X45598Y-178700D01*
X46370Y-179093D01*
X47193Y-179361D01*
X47599Y-179425D01*
X48316Y-180176D01*
X48548Y-180766D01*
X48460Y-181324D01*
Y-182190D01*
X48595Y-183045D01*
X48863Y-183868D01*
X49256Y-184639D01*
X49765Y-185340D01*
X50377Y-185952D01*
X50740Y-186216D01*
X51035Y-187111D01*
X50987Y-187840D01*
X50676Y-188267D01*
X50283Y-189039D01*
X50015Y-189862D01*
X49880Y-190717D01*
Y-191583D01*
X50015Y-192438D01*
X50283Y-193261D01*
X50676Y-194033D01*
X50812Y-194220D01*
X50809Y-194438D01*
X50325Y-195518D01*
X50263Y-195574D01*
X49942Y-195625D01*
X49119Y-195893D01*
X48347Y-196286D01*
X47647Y-196795D01*
X47035Y-197407D01*
X46526Y-198107D01*
X46133Y-198879D01*
X45865Y-199702D01*
X45767Y-200321D01*
X45730Y-200557D01*
X45721Y-200575D01*
X44460Y-200674D01*
X44413Y-200380D01*
X44345Y-199945D01*
X44077Y-199122D01*
X43684Y-198350D01*
X43175Y-197650D01*
X42563Y-197038D01*
X41863Y-196529D01*
X41091Y-196136D01*
X40268Y-195868D01*
X39413Y-195733D01*
X38547D01*
X37692Y-195868D01*
X36869Y-196136D01*
X36097Y-196529D01*
X35397Y-197038D01*
X34785Y-197650D01*
X34276Y-198350D01*
X33883Y-199122D01*
X33615Y-199945D01*
X33480Y-200800D01*
Y-201666D01*
X33615Y-202521D01*
X33883Y-203344D01*
X34276Y-204116D01*
X34785Y-204816D01*
X35397Y-205428D01*
X35575Y-205558D01*
X35802Y-207001D01*
X35734Y-207177D01*
X35284Y-207797D01*
X34891Y-208568D01*
X34623Y-209391D01*
X34488Y-210247D01*
Y-211112D01*
X34623Y-211967D01*
X34891Y-212791D01*
X35284Y-213562D01*
X35793Y-214262D01*
X36405Y-214874D01*
X37105Y-215383D01*
X37876Y-215776D01*
X38700Y-216044D01*
X39555Y-216179D01*
X40420D01*
X41276Y-216044D01*
X42099Y-215776D01*
X42870Y-215383D01*
X43571Y-214874D01*
X44183Y-214262D01*
X44692Y-213562D01*
X45085Y-212791D01*
X45352Y-211967D01*
X45488Y-211112D01*
Y-210247D01*
X45352Y-209391D01*
X45085Y-208568D01*
X44692Y-207797D01*
X44183Y-207096D01*
X43571Y-206484D01*
X43392Y-206355D01*
X43166Y-204911D01*
X43234Y-204735D01*
X43684Y-204116D01*
X44077Y-203344D01*
X44345Y-202521D01*
X44443Y-201902D01*
X44480Y-201666D01*
X44489Y-201648D01*
X45750Y-201549D01*
X45796Y-201843D01*
X45865Y-202278D01*
X46133Y-203101D01*
X46526Y-203873D01*
X47035Y-204573D01*
X47647Y-205185D01*
X48347Y-205694D01*
X49119Y-206087D01*
X49942Y-206355D01*
X50797Y-206490D01*
X51663D01*
X52518Y-206355D01*
X53341Y-206087D01*
X54113Y-205694D01*
X54813Y-205185D01*
X55425Y-204573D01*
X55934Y-203873D01*
X56327Y-203101D01*
X56595Y-202278D01*
X56730Y-201423D01*
Y-200557D01*
X56595Y-199702D01*
X56327Y-198879D01*
X55934Y-198107D01*
X55798Y-197920D01*
X55800Y-197702D01*
X56285Y-196621D01*
X56347Y-196565D01*
X56668Y-196515D01*
X57491Y-196247D01*
X58263Y-195854D01*
X58963Y-195345D01*
X59575Y-194733D01*
X60084Y-194033D01*
X60477Y-193261D01*
X60745Y-192438D01*
X60880Y-191583D01*
Y-190717D01*
X60745Y-189862D01*
X60477Y-189039D01*
X60084Y-188267D01*
X59575Y-187567D01*
X58963Y-186955D01*
X58600Y-186691D01*
X58305Y-185796D01*
X58353Y-185067D01*
X58664Y-184639D01*
X59057Y-183868D01*
X59325Y-183045D01*
X59460Y-182190D01*
Y-181324D01*
X59325Y-180469D01*
X59057Y-179646D01*
X58664Y-178874D01*
X58155Y-178174D01*
X57543Y-177562D01*
X56843Y-177053D01*
X56071Y-176660D01*
X55248Y-176392D01*
X54842Y-176328D01*
X54125Y-175577D01*
X53893Y-174987D01*
X53981Y-174429D01*
Y-173563D01*
X53846Y-172708D01*
X53578Y-171885D01*
X53185Y-171113D01*
X52676Y-170413D01*
X52064Y-169801D01*
X51364Y-169292D01*
X50592Y-168899D01*
X49769Y-168631D01*
X48914Y-168496D01*
D02*
G37*
G36*
X11753Y-203720D02*
X10887D01*
X10032Y-203855D01*
X9209Y-204123D01*
X8437Y-204516D01*
X7737Y-205025D01*
X7125Y-205637D01*
X6616Y-206337D01*
X6223Y-207109D01*
X5955Y-207932D01*
X5820Y-208787D01*
Y-209653D01*
X5955Y-210508D01*
X6223Y-211331D01*
X6616Y-212103D01*
X7125Y-212803D01*
X7737Y-213415D01*
X8437Y-213924D01*
X9209Y-214317D01*
X10032Y-214585D01*
X10887Y-214720D01*
X11753D01*
X12608Y-214585D01*
X13431Y-214317D01*
X14203Y-213924D01*
X14903Y-213415D01*
X15515Y-212803D01*
X16024Y-212103D01*
X16417Y-211331D01*
X16685Y-210508D01*
X16820Y-209653D01*
Y-208787D01*
X16685Y-207932D01*
X16417Y-207109D01*
X16024Y-206337D01*
X15515Y-205637D01*
X14903Y-205025D01*
X14203Y-204516D01*
X13431Y-204123D01*
X12608Y-203855D01*
X11753Y-203720D01*
D02*
G37*
G36*
X422173Y235120D02*
X421307D01*
X420452Y234985D01*
X419629Y234717D01*
X418857Y234324D01*
X418157Y233815D01*
X417545Y233203D01*
X417036Y232503D01*
X416643Y231731D01*
X416375Y230908D01*
X416240Y230053D01*
Y229187D01*
X416375Y228332D01*
X416643Y227509D01*
X417036Y226737D01*
X417545Y226037D01*
X418157Y225425D01*
X418857Y224916D01*
X419629Y224523D01*
X420452Y224255D01*
X421307Y224120D01*
X422173D01*
X423028Y224255D01*
X423851Y224523D01*
X424623Y224916D01*
X425323Y225425D01*
X425935Y226037D01*
X426444Y226737D01*
X426837Y227509D01*
X427105Y228332D01*
X427240Y229187D01*
Y230053D01*
X427105Y230908D01*
X426837Y231731D01*
X426444Y232503D01*
X425935Y233203D01*
X425323Y233815D01*
X424623Y234324D01*
X423851Y234717D01*
X423028Y234985D01*
X422173Y235120D01*
D02*
G37*
G36*
X-274747Y227610D02*
X-275613D01*
X-276468Y227475D01*
X-277291Y227207D01*
X-278063Y226814D01*
X-278763Y226305D01*
X-279375Y225693D01*
X-279884Y224993D01*
X-280277Y224221D01*
X-280545Y223398D01*
X-280680Y222543D01*
Y221677D01*
X-280545Y220822D01*
X-280277Y219999D01*
X-279884Y219227D01*
X-279375Y218527D01*
X-278763Y217915D01*
X-278063Y217406D01*
X-277291Y217013D01*
X-276468Y216745D01*
X-275613Y216610D01*
X-274747D01*
X-273892Y216745D01*
X-273069Y217013D01*
X-272297Y217406D01*
X-271597Y217915D01*
X-270985Y218527D01*
X-270476Y219227D01*
X-270083Y219999D01*
X-269815Y220822D01*
X-269680Y221677D01*
Y222543D01*
X-269815Y223398D01*
X-270083Y224221D01*
X-270476Y224993D01*
X-270985Y225693D01*
X-271597Y226305D01*
X-272297Y226814D01*
X-273069Y227207D01*
X-273892Y227475D01*
X-274747Y227610D01*
D02*
G37*
G36*
X-291427D02*
X-292293D01*
X-293148Y227475D01*
X-293971Y227207D01*
X-294743Y226814D01*
X-295443Y226305D01*
X-296055Y225693D01*
X-296564Y224993D01*
X-296957Y224221D01*
X-297225Y223398D01*
X-297360Y222543D01*
Y221677D01*
X-297225Y220822D01*
X-296957Y219999D01*
X-296564Y219227D01*
X-296055Y218527D01*
X-295443Y217915D01*
X-294743Y217406D01*
X-293971Y217013D01*
X-293148Y216745D01*
X-292293Y216610D01*
X-291427D01*
X-290572Y216745D01*
X-289749Y217013D01*
X-288977Y217406D01*
X-288277Y217915D01*
X-287665Y218527D01*
X-287156Y219227D01*
X-286763Y219999D01*
X-286495Y220822D01*
X-286360Y221677D01*
Y222543D01*
X-286495Y223398D01*
X-286763Y224221D01*
X-287156Y224993D01*
X-287665Y225693D01*
X-288277Y226305D01*
X-288977Y226814D01*
X-289749Y227207D01*
X-290572Y227475D01*
X-291427Y227610D01*
D02*
G37*
G36*
X-307507D02*
X-308373D01*
X-309228Y227475D01*
X-310051Y227207D01*
X-310823Y226814D01*
X-311523Y226305D01*
X-312135Y225693D01*
X-312644Y224993D01*
X-313037Y224221D01*
X-313305Y223398D01*
X-313440Y222543D01*
Y221677D01*
X-313305Y220822D01*
X-313037Y219999D01*
X-312644Y219227D01*
X-312135Y218527D01*
X-311523Y217915D01*
X-310823Y217406D01*
X-310051Y217013D01*
X-309228Y216745D01*
X-308373Y216610D01*
X-307507D01*
X-306652Y216745D01*
X-305829Y217013D01*
X-305057Y217406D01*
X-304357Y217915D01*
X-303745Y218527D01*
X-303236Y219227D01*
X-302843Y219999D01*
X-302575Y220822D01*
X-302440Y221677D01*
Y222543D01*
X-302575Y223398D01*
X-302843Y224221D01*
X-303236Y224993D01*
X-303745Y225693D01*
X-304357Y226305D01*
X-305057Y226814D01*
X-305829Y227207D01*
X-306652Y227475D01*
X-307507Y227610D01*
D02*
G37*
G36*
X-322357D02*
X-323223D01*
X-324078Y227475D01*
X-324901Y227207D01*
X-325673Y226814D01*
X-326373Y226305D01*
X-326985Y225693D01*
X-327494Y224993D01*
X-327887Y224221D01*
X-328155Y223398D01*
X-328290Y222543D01*
Y221677D01*
X-328155Y220822D01*
X-327887Y219999D01*
X-327494Y219227D01*
X-326985Y218527D01*
X-326373Y217915D01*
X-325673Y217406D01*
X-324901Y217013D01*
X-324078Y216745D01*
X-323223Y216610D01*
X-322357D01*
X-321502Y216745D01*
X-320679Y217013D01*
X-319907Y217406D01*
X-319207Y217915D01*
X-318595Y218527D01*
X-318086Y219227D01*
X-317693Y219999D01*
X-317425Y220822D01*
X-317290Y221677D01*
Y222543D01*
X-317425Y223398D01*
X-317693Y224221D01*
X-318086Y224993D01*
X-318595Y225693D01*
X-319207Y226305D01*
X-319907Y226814D01*
X-320679Y227207D01*
X-321502Y227475D01*
X-322357Y227610D01*
D02*
G37*
G36*
X-265357Y216920D02*
X-266223D01*
X-267078Y216785D01*
X-267901Y216517D01*
X-268673Y216124D01*
X-269373Y215615D01*
X-269985Y215003D01*
X-270494Y214303D01*
X-270887Y213531D01*
X-271155Y212708D01*
X-271290Y211853D01*
Y210987D01*
X-271155Y210132D01*
X-270887Y209309D01*
X-270494Y208537D01*
X-269985Y207837D01*
X-269373Y207225D01*
X-268673Y206716D01*
X-267901Y206323D01*
X-267078Y206055D01*
X-266223Y205920D01*
X-265357D01*
X-264502Y206055D01*
X-263679Y206323D01*
X-262907Y206716D01*
X-262207Y207225D01*
X-261595Y207837D01*
X-261086Y208537D01*
X-260693Y209309D01*
X-260425Y210132D01*
X-260290Y210987D01*
Y211853D01*
X-260425Y212708D01*
X-260693Y213531D01*
X-261086Y214303D01*
X-261595Y215003D01*
X-262207Y215615D01*
X-262907Y216124D01*
X-263679Y216517D01*
X-264502Y216785D01*
X-265357Y216920D01*
D02*
G37*
G36*
X-283267D02*
X-284133D01*
X-284988Y216785D01*
X-285811Y216517D01*
X-286583Y216124D01*
X-287283Y215615D01*
X-287895Y215003D01*
X-288404Y214303D01*
X-288797Y213531D01*
X-289065Y212708D01*
X-289200Y211853D01*
Y210987D01*
X-289065Y210132D01*
X-288797Y209309D01*
X-288404Y208537D01*
X-287895Y207837D01*
X-287283Y207225D01*
X-286583Y206716D01*
X-285811Y206323D01*
X-284988Y206055D01*
X-284133Y205920D01*
X-283267D01*
X-282412Y206055D01*
X-281589Y206323D01*
X-280817Y206716D01*
X-280117Y207225D01*
X-279505Y207837D01*
X-278996Y208537D01*
X-278603Y209309D01*
X-278335Y210132D01*
X-278200Y210987D01*
Y211853D01*
X-278335Y212708D01*
X-278603Y213531D01*
X-278996Y214303D01*
X-279505Y215003D01*
X-280117Y215615D01*
X-280817Y216124D01*
X-281589Y216517D01*
X-282412Y216785D01*
X-283267Y216920D01*
D02*
G37*
G36*
X-299947D02*
X-300813D01*
X-301668Y216785D01*
X-302491Y216517D01*
X-303263Y216124D01*
X-303963Y215615D01*
X-304575Y215003D01*
X-305084Y214303D01*
X-305477Y213531D01*
X-305745Y212708D01*
X-305880Y211853D01*
Y210987D01*
X-305745Y210132D01*
X-305477Y209309D01*
X-305084Y208537D01*
X-304575Y207837D01*
X-303963Y207225D01*
X-303263Y206716D01*
X-302491Y206323D01*
X-301668Y206055D01*
X-300813Y205920D01*
X-299947D01*
X-299092Y206055D01*
X-298269Y206323D01*
X-297497Y206716D01*
X-296797Y207225D01*
X-296185Y207837D01*
X-295676Y208537D01*
X-295283Y209309D01*
X-295015Y210132D01*
X-294880Y210987D01*
Y211853D01*
X-295015Y212708D01*
X-295283Y213531D01*
X-295676Y214303D01*
X-296185Y215003D01*
X-296797Y215615D01*
X-297497Y216124D01*
X-298269Y216517D01*
X-299092Y216785D01*
X-299947Y216920D01*
D02*
G37*
G36*
X-315587D02*
X-316453D01*
X-317308Y216785D01*
X-318131Y216517D01*
X-318903Y216124D01*
X-319603Y215615D01*
X-320215Y215003D01*
X-320724Y214303D01*
X-321117Y213531D01*
X-321385Y212708D01*
X-321520Y211853D01*
Y210987D01*
X-321385Y210132D01*
X-321117Y209309D01*
X-320724Y208537D01*
X-320215Y207837D01*
X-319603Y207225D01*
X-318903Y206716D01*
X-318131Y206323D01*
X-317308Y206055D01*
X-316453Y205920D01*
X-315587D01*
X-314732Y206055D01*
X-313909Y206323D01*
X-313137Y206716D01*
X-312437Y207225D01*
X-311825Y207837D01*
X-311316Y208537D01*
X-310923Y209309D01*
X-310655Y210132D01*
X-310520Y210987D01*
Y211853D01*
X-310655Y212708D01*
X-310923Y213531D01*
X-311316Y214303D01*
X-311825Y215003D01*
X-312437Y215615D01*
X-313137Y216124D01*
X-313909Y216517D01*
X-314732Y216785D01*
X-315587Y216920D01*
D02*
G37*
G36*
X-329567D02*
X-330433D01*
X-331288Y216785D01*
X-332111Y216517D01*
X-332883Y216124D01*
X-333583Y215615D01*
X-334195Y215003D01*
X-334704Y214303D01*
X-335097Y213531D01*
X-335365Y212708D01*
X-335500Y211853D01*
Y210987D01*
X-335365Y210132D01*
X-335097Y209309D01*
X-334704Y208537D01*
X-334195Y207837D01*
X-333583Y207225D01*
X-332883Y206716D01*
X-332111Y206323D01*
X-331288Y206055D01*
X-330433Y205920D01*
X-329567D01*
X-328712Y206055D01*
X-327889Y206323D01*
X-327117Y206716D01*
X-326417Y207225D01*
X-325805Y207837D01*
X-325296Y208537D01*
X-324903Y209309D01*
X-324635Y210132D01*
X-324500Y210987D01*
Y211853D01*
X-324635Y212708D01*
X-324903Y213531D01*
X-325296Y214303D01*
X-325805Y215003D01*
X-326417Y215615D01*
X-327117Y216124D01*
X-327889Y216517D01*
X-328712Y216785D01*
X-329567Y216920D01*
D02*
G37*
G36*
X-316347Y184920D02*
X-317213D01*
X-318068Y184785D01*
X-318891Y184517D01*
X-319663Y184124D01*
X-320363Y183615D01*
X-320975Y183003D01*
X-321484Y182303D01*
X-321877Y181531D01*
X-322145Y180708D01*
X-322280Y179853D01*
Y178987D01*
X-322145Y178132D01*
X-321877Y177309D01*
X-321484Y176537D01*
X-320975Y175837D01*
X-320363Y175225D01*
X-319663Y174716D01*
X-318891Y174323D01*
X-318068Y174055D01*
X-317213Y173920D01*
X-316347D01*
X-315492Y174055D01*
X-314669Y174323D01*
X-313897Y174716D01*
X-313197Y175225D01*
X-312585Y175837D01*
X-312076Y176537D01*
X-311683Y177309D01*
X-311415Y178132D01*
X-311280Y178987D01*
Y179853D01*
X-311415Y180708D01*
X-311683Y181531D01*
X-312076Y182303D01*
X-312585Y183003D01*
X-313197Y183615D01*
X-313897Y184124D01*
X-314669Y184517D01*
X-315492Y184785D01*
X-316347Y184920D01*
D02*
G37*
G36*
X-274077Y183790D02*
X-274943D01*
X-275798Y183655D01*
X-276621Y183387D01*
X-277393Y182994D01*
X-278093Y182485D01*
X-278705Y181873D01*
X-279214Y181173D01*
X-279607Y180401D01*
X-279875Y179578D01*
X-280010Y178723D01*
Y177857D01*
X-279875Y177002D01*
X-279607Y176179D01*
X-279214Y175407D01*
X-278705Y174707D01*
X-278093Y174095D01*
X-277393Y173586D01*
X-276621Y173193D01*
X-275798Y172925D01*
X-274943Y172790D01*
X-274077D01*
X-273222Y172925D01*
X-272399Y173193D01*
X-271627Y173586D01*
X-270927Y174095D01*
X-270315Y174707D01*
X-269806Y175407D01*
X-269413Y176179D01*
X-269145Y177002D01*
X-269010Y177857D01*
Y178723D01*
X-269145Y179578D01*
X-269413Y180401D01*
X-269806Y181173D01*
X-270315Y181873D01*
X-270927Y182485D01*
X-271627Y182994D01*
X-272399Y183387D01*
X-273222Y183655D01*
X-274077Y183790D01*
D02*
G37*
G36*
X-295977Y183750D02*
X-296843D01*
X-297698Y183615D01*
X-298521Y183347D01*
X-299293Y182954D01*
X-299993Y182445D01*
X-300605Y181833D01*
X-301114Y181133D01*
X-301507Y180361D01*
X-301775Y179538D01*
X-301910Y178683D01*
Y177817D01*
X-301775Y176962D01*
X-301507Y176139D01*
X-301114Y175367D01*
X-300605Y174667D01*
X-299993Y174055D01*
X-299293Y173546D01*
X-298521Y173153D01*
X-297698Y172885D01*
X-296843Y172750D01*
X-295977D01*
X-295122Y172885D01*
X-294299Y173153D01*
X-293527Y173546D01*
X-292827Y174055D01*
X-292215Y174667D01*
X-291706Y175367D01*
X-291313Y176139D01*
X-291045Y176962D01*
X-290910Y177817D01*
Y178683D01*
X-291045Y179538D01*
X-291313Y180361D01*
X-291706Y181133D01*
X-292215Y181833D01*
X-292827Y182445D01*
X-293527Y182954D01*
X-294299Y183347D01*
X-295122Y183615D01*
X-295977Y183750D01*
D02*
G37*
G36*
X-295297Y165440D02*
X-296163D01*
X-297018Y165305D01*
X-297841Y165037D01*
X-298613Y164644D01*
X-299313Y164135D01*
X-299925Y163523D01*
X-300434Y162823D01*
X-300827Y162051D01*
X-301095Y161228D01*
X-301230Y160373D01*
Y159507D01*
X-301095Y158652D01*
X-300827Y157829D01*
X-300434Y157057D01*
X-299925Y156357D01*
X-299313Y155745D01*
X-298613Y155236D01*
X-297841Y154843D01*
X-297018Y154575D01*
X-296163Y154440D01*
X-295297D01*
X-294442Y154575D01*
X-293619Y154843D01*
X-292847Y155236D01*
X-292147Y155745D01*
X-291535Y156357D01*
X-291026Y157057D01*
X-290633Y157829D01*
X-290365Y158652D01*
X-290230Y159507D01*
Y160373D01*
X-290365Y161228D01*
X-290633Y162051D01*
X-291026Y162823D01*
X-291535Y163523D01*
X-292147Y164135D01*
X-292847Y164644D01*
X-293619Y165037D01*
X-294442Y165305D01*
X-295297Y165440D01*
D02*
G37*
G36*
X-295847Y146650D02*
X-296713D01*
X-297568Y146515D01*
X-298391Y146247D01*
X-299163Y145854D01*
X-299863Y145345D01*
X-300475Y144733D01*
X-300984Y144033D01*
X-301377Y143261D01*
X-301645Y142438D01*
X-301780Y141583D01*
Y140717D01*
X-301645Y139862D01*
X-301377Y139039D01*
X-300984Y138267D01*
X-300475Y137567D01*
X-299863Y136955D01*
X-299163Y136446D01*
X-298391Y136053D01*
X-297568Y135785D01*
X-296713Y135650D01*
X-295847D01*
X-294992Y135785D01*
X-294169Y136053D01*
X-293397Y136446D01*
X-292697Y136955D01*
X-292085Y137567D01*
X-291576Y138267D01*
X-291183Y139039D01*
X-290915Y139862D01*
X-290780Y140717D01*
Y141583D01*
X-290915Y142438D01*
X-291183Y143261D01*
X-291576Y144033D01*
X-292085Y144733D01*
X-292697Y145345D01*
X-293397Y145854D01*
X-294169Y146247D01*
X-294992Y146515D01*
X-295847Y146650D01*
D02*
G37*
G36*
X-310187Y136830D02*
X-311053D01*
X-311908Y136695D01*
X-312731Y136427D01*
X-313503Y136034D01*
X-314203Y135525D01*
X-314815Y134913D01*
X-315324Y134213D01*
X-315717Y133441D01*
X-315985Y132618D01*
X-316120Y131763D01*
Y130897D01*
X-315985Y130042D01*
X-315717Y129219D01*
X-315324Y128447D01*
X-314815Y127747D01*
X-314203Y127135D01*
X-313503Y126626D01*
X-312731Y126233D01*
X-311908Y125965D01*
X-311053Y125830D01*
X-310187D01*
X-309332Y125965D01*
X-308509Y126233D01*
X-307737Y126626D01*
X-307037Y127135D01*
X-306425Y127747D01*
X-305916Y128447D01*
X-305523Y129219D01*
X-305255Y130042D01*
X-305120Y130897D01*
Y131763D01*
X-305255Y132618D01*
X-305523Y133441D01*
X-305916Y134213D01*
X-306425Y134913D01*
X-307037Y135525D01*
X-307737Y136034D01*
X-308509Y136427D01*
X-309332Y136695D01*
X-310187Y136830D01*
D02*
G37*
G36*
X-282107Y136830D02*
X-282973D01*
X-283828Y136694D01*
X-284651Y136427D01*
X-285423Y136034D01*
X-286123Y135525D01*
X-286735Y134913D01*
X-287244Y134213D01*
X-287637Y133441D01*
X-287905Y132618D01*
X-288040Y131763D01*
Y130897D01*
X-287905Y130042D01*
X-287637Y129219D01*
X-287244Y128447D01*
X-286735Y127747D01*
X-286123Y127135D01*
X-285423Y126626D01*
X-284651Y126233D01*
X-283828Y125965D01*
X-282973Y125830D01*
X-282107D01*
X-281252Y125965D01*
X-280429Y126233D01*
X-279657Y126626D01*
X-278957Y127135D01*
X-278345Y127747D01*
X-277836Y128447D01*
X-277443Y129219D01*
X-277175Y130042D01*
X-277040Y130897D01*
Y131763D01*
X-277175Y132618D01*
X-277443Y133441D01*
X-277836Y134213D01*
X-278345Y134913D01*
X-278957Y135525D01*
X-279657Y136034D01*
X-280429Y136427D01*
X-281252Y136694D01*
X-282107Y136830D01*
D02*
G37*
G36*
X-295967Y126740D02*
X-296833D01*
X-297688Y126605D01*
X-298511Y126337D01*
X-299283Y125944D01*
X-299983Y125435D01*
X-300595Y124823D01*
X-301104Y124123D01*
X-301497Y123351D01*
X-301765Y122528D01*
X-301900Y121673D01*
Y120807D01*
X-301765Y119952D01*
X-301497Y119129D01*
X-301104Y118357D01*
X-300595Y117657D01*
X-299983Y117045D01*
X-299283Y116536D01*
X-298511Y116143D01*
X-297688Y115875D01*
X-296833Y115740D01*
X-295967D01*
X-295112Y115875D01*
X-294289Y116143D01*
X-293517Y116536D01*
X-292817Y117045D01*
X-292205Y117657D01*
X-291696Y118357D01*
X-291303Y119129D01*
X-291035Y119952D01*
X-290900Y120807D01*
Y121673D01*
X-291035Y122528D01*
X-291303Y123351D01*
X-291696Y124123D01*
X-292205Y124823D01*
X-292817Y125435D01*
X-293517Y125944D01*
X-294289Y126337D01*
X-295112Y126605D01*
X-295967Y126740D01*
D02*
G37*
G36*
X-295197Y90740D02*
X-296063D01*
X-296918Y90605D01*
X-297741Y90337D01*
X-298513Y89944D01*
X-299213Y89435D01*
X-299825Y88823D01*
X-300334Y88123D01*
X-300727Y87351D01*
X-300995Y86528D01*
X-301130Y85673D01*
Y84807D01*
X-300995Y83952D01*
X-300727Y83129D01*
X-300334Y82357D01*
X-299825Y81657D01*
X-299213Y81045D01*
X-298513Y80536D01*
X-297741Y80143D01*
X-296918Y79875D01*
X-296063Y79740D01*
X-295197D01*
X-294342Y79875D01*
X-293519Y80143D01*
X-292747Y80536D01*
X-292047Y81045D01*
X-291435Y81657D01*
X-290926Y82357D01*
X-290533Y83129D01*
X-290265Y83952D01*
X-290130Y84807D01*
Y85673D01*
X-290265Y86528D01*
X-290533Y87351D01*
X-290926Y88123D01*
X-291435Y88823D01*
X-292047Y89435D01*
X-292747Y89944D01*
X-293519Y90337D01*
X-294342Y90605D01*
X-295197Y90740D01*
D02*
G37*
G36*
X-280977Y80650D02*
X-281843D01*
X-282698Y80515D01*
X-283521Y80247D01*
X-284293Y79854D01*
X-284993Y79345D01*
X-285605Y78733D01*
X-286114Y78033D01*
X-286507Y77261D01*
X-286775Y76438D01*
X-286910Y75583D01*
Y74717D01*
X-286775Y73862D01*
X-286507Y73039D01*
X-286114Y72267D01*
X-285605Y71567D01*
X-284993Y70955D01*
X-284293Y70446D01*
X-283521Y70053D01*
X-282698Y69785D01*
X-281843Y69650D01*
X-280977D01*
X-280122Y69785D01*
X-279299Y70053D01*
X-278527Y70446D01*
X-277827Y70955D01*
X-277215Y71567D01*
X-276706Y72267D01*
X-276313Y73039D01*
X-276045Y73862D01*
X-275910Y74717D01*
Y75583D01*
X-276045Y76438D01*
X-276313Y77261D01*
X-276706Y78033D01*
X-277215Y78733D01*
X-277827Y79345D01*
X-278527Y79854D01*
X-279299Y80247D01*
X-280122Y80515D01*
X-280977Y80650D01*
D02*
G37*
G36*
X-308917Y80070D02*
X-309783D01*
X-310638Y79935D01*
X-311461Y79667D01*
X-312233Y79274D01*
X-312933Y78765D01*
X-313545Y78153D01*
X-314054Y77453D01*
X-314447Y76681D01*
X-314715Y75858D01*
X-314850Y75003D01*
Y74137D01*
X-314715Y73282D01*
X-314447Y72459D01*
X-314054Y71687D01*
X-313545Y70987D01*
X-312933Y70375D01*
X-312233Y69866D01*
X-311461Y69473D01*
X-310638Y69205D01*
X-309783Y69070D01*
X-308917D01*
X-308062Y69205D01*
X-307239Y69473D01*
X-306467Y69866D01*
X-305767Y70375D01*
X-305155Y70987D01*
X-304646Y71687D01*
X-304253Y72459D01*
X-303985Y73282D01*
X-303850Y74137D01*
Y75003D01*
X-303985Y75858D01*
X-304253Y76681D01*
X-304646Y77453D01*
X-305155Y78153D01*
X-305767Y78765D01*
X-306467Y79274D01*
X-307239Y79667D01*
X-308062Y79935D01*
X-308917Y80070D01*
D02*
G37*
G36*
X-295197Y64080D02*
X-296063D01*
X-296918Y63945D01*
X-297741Y63677D01*
X-298513Y63284D01*
X-299213Y62775D01*
X-299825Y62163D01*
X-300334Y61463D01*
X-300727Y60691D01*
X-300995Y59868D01*
X-301130Y59013D01*
Y58147D01*
X-300995Y57292D01*
X-300727Y56469D01*
X-300334Y55697D01*
X-299825Y54997D01*
X-299213Y54385D01*
X-298513Y53876D01*
X-297741Y53483D01*
X-296918Y53215D01*
X-296063Y53080D01*
X-295197D01*
X-294342Y53215D01*
X-293519Y53483D01*
X-292747Y53876D01*
X-292047Y54385D01*
X-291435Y54997D01*
X-290926Y55697D01*
X-290533Y56469D01*
X-290265Y57292D01*
X-290130Y58147D01*
Y59013D01*
X-290265Y59868D01*
X-290533Y60691D01*
X-290926Y61463D01*
X-291435Y62163D01*
X-292047Y62775D01*
X-292747Y63284D01*
X-293519Y63677D01*
X-294342Y63945D01*
X-295197Y64080D01*
D02*
G37*
G36*
X-294357Y38960D02*
X-295223D01*
X-296078Y38825D01*
X-296901Y38557D01*
X-297673Y38164D01*
X-298373Y37655D01*
X-298985Y37043D01*
X-299494Y36343D01*
X-299887Y35571D01*
X-300155Y34748D01*
X-300290Y33893D01*
Y33027D01*
X-300155Y32172D01*
X-299887Y31349D01*
X-299494Y30577D01*
X-298985Y29877D01*
X-298373Y29265D01*
X-297673Y28756D01*
X-296901Y28363D01*
X-296078Y28095D01*
X-295223Y27960D01*
X-294357D01*
X-293502Y28095D01*
X-292679Y28363D01*
X-291907Y28756D01*
X-291207Y29265D01*
X-290595Y29877D01*
X-290086Y30577D01*
X-289693Y31349D01*
X-289425Y32172D01*
X-289290Y33027D01*
Y33893D01*
X-289425Y34748D01*
X-289693Y35571D01*
X-290086Y36343D01*
X-290595Y37043D01*
X-291207Y37655D01*
X-291907Y38164D01*
X-292679Y38557D01*
X-293502Y38825D01*
X-294357Y38960D01*
D02*
G37*
G36*
X273333Y-21550D02*
X272467D01*
X271612Y-21685D01*
X270789Y-21953D01*
X270017Y-22346D01*
X269317Y-22855D01*
X268705Y-23467D01*
X268196Y-24167D01*
X267803Y-24939D01*
X267535Y-25762D01*
X267400Y-26617D01*
Y-27483D01*
X267535Y-28338D01*
X267803Y-29161D01*
X268196Y-29933D01*
X268705Y-30633D01*
X269317Y-31245D01*
X270017Y-31754D01*
X270789Y-32147D01*
X271612Y-32415D01*
X272467Y-32550D01*
X273333D01*
X274188Y-32415D01*
X275011Y-32147D01*
X275783Y-31754D01*
X276483Y-31245D01*
X277095Y-30633D01*
X277604Y-29933D01*
X277997Y-29161D01*
X278265Y-28338D01*
X278400Y-27483D01*
Y-26617D01*
X278265Y-25762D01*
X277997Y-24939D01*
X277604Y-24167D01*
X277095Y-23467D01*
X276483Y-22855D01*
X275783Y-22346D01*
X275011Y-21953D01*
X274188Y-21685D01*
X273333Y-21550D01*
D02*
G37*
G36*
X316883Y-22100D02*
X316017D01*
X315162Y-22235D01*
X314339Y-22503D01*
X313567Y-22896D01*
X312867Y-23405D01*
X312255Y-24017D01*
X311746Y-24717D01*
X311353Y-25489D01*
X311085Y-26312D01*
X310950Y-27167D01*
Y-28033D01*
X311085Y-28888D01*
X311353Y-29711D01*
X311746Y-30483D01*
X312255Y-31183D01*
X312867Y-31795D01*
X313567Y-32304D01*
X314339Y-32697D01*
X315162Y-32965D01*
X316017Y-33100D01*
X316883D01*
X317738Y-32965D01*
X318561Y-32697D01*
X319333Y-32304D01*
X320033Y-31795D01*
X320645Y-31183D01*
X321154Y-30483D01*
X321547Y-29711D01*
X321815Y-28888D01*
X321950Y-28033D01*
Y-27167D01*
X321815Y-26312D01*
X321547Y-25489D01*
X321154Y-24717D01*
X320645Y-24017D01*
X320033Y-23405D01*
X319333Y-22896D01*
X318561Y-22503D01*
X317738Y-22235D01*
X316883Y-22100D01*
D02*
G37*
G36*
X294983Y-22140D02*
X294117D01*
X293262Y-22275D01*
X292439Y-22543D01*
X291667Y-22936D01*
X290967Y-23445D01*
X290355Y-24057D01*
X289846Y-24757D01*
X289453Y-25529D01*
X289185Y-26352D01*
X289050Y-27207D01*
Y-28073D01*
X289185Y-28928D01*
X289453Y-29751D01*
X289846Y-30523D01*
X290355Y-31223D01*
X290967Y-31835D01*
X291667Y-32344D01*
X292439Y-32737D01*
X293262Y-33005D01*
X294117Y-33140D01*
X294983D01*
X295838Y-33005D01*
X296661Y-32737D01*
X297433Y-32344D01*
X298133Y-31835D01*
X298745Y-31223D01*
X299254Y-30523D01*
X299647Y-29751D01*
X299915Y-28928D01*
X300050Y-28073D01*
Y-27207D01*
X299915Y-26352D01*
X299647Y-25529D01*
X299254Y-24757D01*
X298745Y-24057D01*
X298133Y-23445D01*
X297433Y-22936D01*
X296661Y-22543D01*
X295838Y-22275D01*
X294983Y-22140D01*
D02*
G37*
G36*
X295663Y-40450D02*
X294797D01*
X293942Y-40585D01*
X293119Y-40853D01*
X292347Y-41246D01*
X291647Y-41755D01*
X291035Y-42367D01*
X290526Y-43067D01*
X290133Y-43839D01*
X289865Y-44662D01*
X289730Y-45517D01*
Y-46383D01*
X289865Y-47238D01*
X290133Y-48061D01*
X290526Y-48833D01*
X291035Y-49533D01*
X291647Y-50145D01*
X292347Y-50654D01*
X293119Y-51047D01*
X293942Y-51315D01*
X294797Y-51450D01*
X295663D01*
X296518Y-51315D01*
X297341Y-51047D01*
X298113Y-50654D01*
X298813Y-50145D01*
X299425Y-49533D01*
X299934Y-48833D01*
X300327Y-48061D01*
X300595Y-47238D01*
X300730Y-46383D01*
Y-45517D01*
X300595Y-44662D01*
X300327Y-43839D01*
X299934Y-43067D01*
X299425Y-42367D01*
X298813Y-41755D01*
X298113Y-41246D01*
X297341Y-40853D01*
X296518Y-40585D01*
X295663Y-40450D01*
D02*
G37*
G36*
X295113Y-59240D02*
X294247D01*
X293392Y-59375D01*
X292569Y-59643D01*
X291797Y-60036D01*
X291097Y-60545D01*
X290485Y-61157D01*
X289976Y-61857D01*
X289583Y-62629D01*
X289315Y-63452D01*
X289180Y-64307D01*
Y-65173D01*
X289315Y-66028D01*
X289583Y-66851D01*
X289976Y-67623D01*
X290485Y-68323D01*
X291097Y-68935D01*
X291797Y-69444D01*
X292569Y-69837D01*
X293392Y-70105D01*
X294247Y-70240D01*
X295113D01*
X295968Y-70105D01*
X296791Y-69837D01*
X297563Y-69444D01*
X298263Y-68935D01*
X298875Y-68323D01*
X299384Y-67623D01*
X299777Y-66851D01*
X300045Y-66028D01*
X300180Y-65173D01*
Y-64307D01*
X300045Y-63452D01*
X299777Y-62629D01*
X299384Y-61857D01*
X298875Y-61157D01*
X298263Y-60545D01*
X297563Y-60036D01*
X296791Y-59643D01*
X295968Y-59375D01*
X295113Y-59240D01*
D02*
G37*
G36*
X280773Y-69060D02*
X279907D01*
X279052Y-69195D01*
X278229Y-69463D01*
X277457Y-69856D01*
X276757Y-70365D01*
X276145Y-70977D01*
X275636Y-71677D01*
X275243Y-72449D01*
X274975Y-73272D01*
X274840Y-74127D01*
Y-74993D01*
X274975Y-75848D01*
X275243Y-76671D01*
X275636Y-77443D01*
X276145Y-78143D01*
X276757Y-78755D01*
X277457Y-79264D01*
X278229Y-79657D01*
X279052Y-79925D01*
X279907Y-80060D01*
X280773D01*
X281628Y-79925D01*
X282451Y-79657D01*
X283223Y-79264D01*
X283923Y-78755D01*
X284535Y-78143D01*
X285044Y-77443D01*
X285437Y-76671D01*
X285705Y-75848D01*
X285840Y-74993D01*
Y-74127D01*
X285705Y-73272D01*
X285437Y-72449D01*
X285044Y-71677D01*
X284535Y-70977D01*
X283923Y-70365D01*
X283223Y-69856D01*
X282451Y-69463D01*
X281628Y-69195D01*
X280773Y-69060D01*
D02*
G37*
G36*
X308853Y-69060D02*
X307987D01*
X307132Y-69195D01*
X306309Y-69463D01*
X305537Y-69856D01*
X304837Y-70365D01*
X304225Y-70977D01*
X303716Y-71677D01*
X303323Y-72449D01*
X303055Y-73272D01*
X302920Y-74127D01*
Y-74993D01*
X303055Y-75848D01*
X303323Y-76671D01*
X303716Y-77443D01*
X304225Y-78143D01*
X304837Y-78755D01*
X305537Y-79264D01*
X306309Y-79657D01*
X307132Y-79925D01*
X307987Y-80060D01*
X308853D01*
X309708Y-79925D01*
X310531Y-79657D01*
X311303Y-79264D01*
X312003Y-78755D01*
X312615Y-78143D01*
X313124Y-77443D01*
X313517Y-76671D01*
X313785Y-75848D01*
X313920Y-74993D01*
Y-74127D01*
X313785Y-73272D01*
X313517Y-72449D01*
X313124Y-71677D01*
X312615Y-70977D01*
X312003Y-70365D01*
X311303Y-69856D01*
X310531Y-69463D01*
X309708Y-69195D01*
X308853Y-69060D01*
D02*
G37*
G36*
X294993Y-79150D02*
X294127D01*
X293272Y-79285D01*
X292449Y-79553D01*
X291677Y-79946D01*
X290977Y-80455D01*
X290365Y-81067D01*
X289856Y-81767D01*
X289463Y-82539D01*
X289195Y-83362D01*
X289060Y-84217D01*
Y-85083D01*
X289195Y-85938D01*
X289463Y-86761D01*
X289856Y-87533D01*
X290365Y-88233D01*
X290977Y-88845D01*
X291677Y-89354D01*
X292449Y-89747D01*
X293272Y-90015D01*
X294127Y-90150D01*
X294993D01*
X295848Y-90015D01*
X296671Y-89747D01*
X297443Y-89354D01*
X298143Y-88845D01*
X298755Y-88233D01*
X299264Y-87533D01*
X299657Y-86761D01*
X299925Y-85938D01*
X300060Y-85083D01*
Y-84217D01*
X299925Y-83362D01*
X299657Y-82539D01*
X299264Y-81767D01*
X298755Y-81067D01*
X298143Y-80455D01*
X297443Y-79946D01*
X296671Y-79553D01*
X295848Y-79285D01*
X294993Y-79150D01*
D02*
G37*
G36*
X295763Y-115150D02*
X294897D01*
X294042Y-115285D01*
X293219Y-115553D01*
X292447Y-115946D01*
X291747Y-116455D01*
X291135Y-117067D01*
X290626Y-117767D01*
X290233Y-118539D01*
X289965Y-119362D01*
X289830Y-120217D01*
Y-121083D01*
X289965Y-121938D01*
X290233Y-122761D01*
X290626Y-123533D01*
X291135Y-124233D01*
X291747Y-124845D01*
X292447Y-125354D01*
X293219Y-125747D01*
X294042Y-126015D01*
X294897Y-126150D01*
X295763D01*
X296618Y-126015D01*
X297441Y-125747D01*
X298213Y-125354D01*
X298913Y-124845D01*
X299525Y-124233D01*
X300034Y-123533D01*
X300427Y-122761D01*
X300695Y-121938D01*
X300830Y-121083D01*
Y-120217D01*
X300695Y-119362D01*
X300427Y-118539D01*
X300034Y-117767D01*
X299525Y-117067D01*
X298913Y-116455D01*
X298213Y-115946D01*
X297441Y-115553D01*
X296618Y-115285D01*
X295763Y-115150D01*
D02*
G37*
G36*
X309983Y-125240D02*
X309117D01*
X308262Y-125375D01*
X307439Y-125643D01*
X306667Y-126036D01*
X305967Y-126545D01*
X305355Y-127157D01*
X304846Y-127857D01*
X304453Y-128629D01*
X304185Y-129452D01*
X304050Y-130307D01*
Y-131173D01*
X304185Y-132028D01*
X304453Y-132851D01*
X304846Y-133623D01*
X305355Y-134323D01*
X305967Y-134935D01*
X306667Y-135444D01*
X307439Y-135837D01*
X308262Y-136105D01*
X309117Y-136240D01*
X309983D01*
X310838Y-136105D01*
X311661Y-135837D01*
X312433Y-135444D01*
X313133Y-134935D01*
X313745Y-134323D01*
X314254Y-133623D01*
X314647Y-132851D01*
X314915Y-132028D01*
X315050Y-131173D01*
Y-130307D01*
X314915Y-129452D01*
X314647Y-128629D01*
X314254Y-127857D01*
X313745Y-127157D01*
X313133Y-126545D01*
X312433Y-126036D01*
X311661Y-125643D01*
X310838Y-125375D01*
X309983Y-125240D01*
D02*
G37*
G36*
X282043Y-125820D02*
X281177D01*
X280322Y-125955D01*
X279499Y-126223D01*
X278727Y-126616D01*
X278027Y-127125D01*
X277415Y-127737D01*
X276906Y-128437D01*
X276513Y-129209D01*
X276245Y-130032D01*
X276110Y-130887D01*
Y-131753D01*
X276245Y-132608D01*
X276513Y-133431D01*
X276906Y-134203D01*
X277415Y-134903D01*
X278027Y-135515D01*
X278727Y-136024D01*
X279499Y-136417D01*
X280322Y-136685D01*
X281177Y-136820D01*
X282043D01*
X282898Y-136685D01*
X283721Y-136417D01*
X284493Y-136024D01*
X285193Y-135515D01*
X285805Y-134903D01*
X286314Y-134203D01*
X286707Y-133431D01*
X286975Y-132608D01*
X287110Y-131753D01*
Y-130887D01*
X286975Y-130032D01*
X286707Y-129209D01*
X286314Y-128437D01*
X285805Y-127737D01*
X285193Y-127125D01*
X284493Y-126616D01*
X283721Y-126223D01*
X282898Y-125955D01*
X282043Y-125820D01*
D02*
G37*
G36*
X295763Y-141810D02*
X294897D01*
X294042Y-141945D01*
X293219Y-142213D01*
X292447Y-142606D01*
X291747Y-143115D01*
X291135Y-143727D01*
X290626Y-144427D01*
X290233Y-145199D01*
X289965Y-146022D01*
X289830Y-146877D01*
Y-147743D01*
X289965Y-148598D01*
X290233Y-149421D01*
X290626Y-150193D01*
X291135Y-150893D01*
X291747Y-151505D01*
X292447Y-152014D01*
X293219Y-152407D01*
X294042Y-152675D01*
X294897Y-152810D01*
X295763D01*
X296618Y-152675D01*
X297441Y-152407D01*
X298213Y-152014D01*
X298913Y-151505D01*
X299525Y-150893D01*
X300034Y-150193D01*
X300427Y-149421D01*
X300695Y-148598D01*
X300830Y-147743D01*
Y-146877D01*
X300695Y-146022D01*
X300427Y-145199D01*
X300034Y-144427D01*
X299525Y-143727D01*
X298913Y-143115D01*
X298213Y-142606D01*
X297441Y-142213D01*
X296618Y-141945D01*
X295763Y-141810D01*
D02*
G37*
G36*
X296603Y-166930D02*
X295737D01*
X294882Y-167065D01*
X294059Y-167333D01*
X293287Y-167726D01*
X292587Y-168235D01*
X291975Y-168847D01*
X291466Y-169547D01*
X291073Y-170319D01*
X290805Y-171142D01*
X290670Y-171997D01*
Y-172863D01*
X290805Y-173718D01*
X291073Y-174541D01*
X291466Y-175313D01*
X291975Y-176013D01*
X292587Y-176625D01*
X293287Y-177134D01*
X294059Y-177527D01*
X294882Y-177795D01*
X295737Y-177930D01*
X296603D01*
X297458Y-177795D01*
X298281Y-177527D01*
X299053Y-177134D01*
X299753Y-176625D01*
X300365Y-176013D01*
X300874Y-175313D01*
X301267Y-174541D01*
X301535Y-173718D01*
X301670Y-172863D01*
Y-171997D01*
X301535Y-171142D01*
X301267Y-170319D01*
X300874Y-169547D01*
X300365Y-168847D01*
X299753Y-168235D01*
X299053Y-167726D01*
X298281Y-167333D01*
X297458Y-167065D01*
X296603Y-166930D01*
D02*
G37*
G36*
X13273Y-244680D02*
X12407D01*
X11552Y-244815D01*
X10729Y-245083D01*
X9957Y-245476D01*
X9257Y-245985D01*
X8645Y-246597D01*
X8644Y-246599D01*
X7196Y-246694D01*
X7087Y-246639D01*
X6533Y-246085D01*
X5833Y-245576D01*
X5061Y-245183D01*
X4238Y-244915D01*
X3383Y-244780D01*
X2517D01*
X1662Y-244915D01*
X839Y-245183D01*
X67Y-245576D01*
X-633Y-246085D01*
X-1245Y-246697D01*
X-1754Y-247397D01*
X-2147Y-248169D01*
X-2415Y-248992D01*
X-2550Y-249847D01*
Y-250713D01*
X-2415Y-251568D01*
X-2147Y-252391D01*
X-1754Y-253163D01*
X-1245Y-253863D01*
X-633Y-254475D01*
X67Y-254984D01*
X839Y-255377D01*
X1662Y-255645D01*
X2517Y-255780D01*
X3383D01*
X4238Y-255645D01*
X5061Y-255377D01*
X5833Y-254984D01*
X6533Y-254475D01*
X7145Y-253863D01*
X7146Y-253861D01*
X8594Y-253766D01*
X8703Y-253821D01*
X9257Y-254375D01*
X9957Y-254884D01*
X10729Y-255277D01*
X11552Y-255545D01*
X12407Y-255680D01*
X13273D01*
X14128Y-255545D01*
X14951Y-255277D01*
X15723Y-254884D01*
X16423Y-254375D01*
X17035Y-253763D01*
X17544Y-253063D01*
X17937Y-252291D01*
X18205Y-251468D01*
X18340Y-250613D01*
Y-249747D01*
X18205Y-248892D01*
X17937Y-248069D01*
X17544Y-247297D01*
X17035Y-246597D01*
X16423Y-245985D01*
X15723Y-245476D01*
X14951Y-245083D01*
X14128Y-244815D01*
X13273Y-244680D01*
D02*
G37*
G36*
X63663Y-279340D02*
X62797D01*
X61942Y-279475D01*
X61119Y-279743D01*
X60347Y-280136D01*
X59647Y-280645D01*
X59035Y-281257D01*
X58526Y-281957D01*
X58133Y-282729D01*
X57865Y-283552D01*
X57730Y-284407D01*
Y-285273D01*
X57865Y-286128D01*
X58133Y-286951D01*
X58526Y-287723D01*
X59035Y-288423D01*
X59647Y-289035D01*
X60347Y-289544D01*
X61119Y-289937D01*
X61942Y-290205D01*
X62797Y-290340D01*
X63663D01*
X64518Y-290205D01*
X65341Y-289937D01*
X66113Y-289544D01*
X66813Y-289035D01*
X67425Y-288423D01*
X67934Y-287723D01*
X68327Y-286951D01*
X68595Y-286128D01*
X68730Y-285273D01*
Y-284407D01*
X68595Y-283552D01*
X68327Y-282729D01*
X67934Y-281957D01*
X67425Y-281257D01*
X66813Y-280645D01*
X66113Y-280136D01*
X65341Y-279743D01*
X64518Y-279475D01*
X63663Y-279340D01*
D02*
G37*
G36*
X23633Y-291610D02*
X22767D01*
X21912Y-291745D01*
X21089Y-292013D01*
X20317Y-292406D01*
X19617Y-292915D01*
X19005Y-293527D01*
X18496Y-294227D01*
X18103Y-294999D01*
X17835Y-295822D01*
X17700Y-296677D01*
Y-297543D01*
X17835Y-298398D01*
X18103Y-299221D01*
X18496Y-299993D01*
X19005Y-300693D01*
X19617Y-301305D01*
X19854Y-301477D01*
X19950Y-301725D01*
Y-302755D01*
X19854Y-303003D01*
X19617Y-303175D01*
X19005Y-303787D01*
X18496Y-304487D01*
X18103Y-305259D01*
X17835Y-306082D01*
X17700Y-306937D01*
Y-307803D01*
X17835Y-308658D01*
X18103Y-309481D01*
X18496Y-310253D01*
X19005Y-310953D01*
X19617Y-311565D01*
X20023Y-311860D01*
X20168Y-312486D01*
Y-312724D01*
X20023Y-313350D01*
X19617Y-313645D01*
X19005Y-314257D01*
X18496Y-314957D01*
X18103Y-315729D01*
X17835Y-316552D01*
X17700Y-317407D01*
Y-318273D01*
X17835Y-319128D01*
X18103Y-319951D01*
X18496Y-320723D01*
X19005Y-321423D01*
X19617Y-322035D01*
X20015Y-322324D01*
X20157Y-322922D01*
Y-323218D01*
X20015Y-323815D01*
X19617Y-324105D01*
X19005Y-324717D01*
X18496Y-325417D01*
X18103Y-326189D01*
X17835Y-327012D01*
X17700Y-327867D01*
Y-328733D01*
X17835Y-329588D01*
X18103Y-330411D01*
X18496Y-331183D01*
X19005Y-331883D01*
X19617Y-332495D01*
X20317Y-333004D01*
X21089Y-333397D01*
X21912Y-333665D01*
X22767Y-333800D01*
X23633D01*
X24488Y-333665D01*
X25311Y-333397D01*
X26083Y-333004D01*
X26783Y-332495D01*
X27395Y-331883D01*
X27904Y-331183D01*
X28297Y-330411D01*
X28565Y-329588D01*
X28700Y-328733D01*
Y-327867D01*
X28565Y-327012D01*
X28297Y-326189D01*
X27904Y-325417D01*
X27395Y-324717D01*
X26783Y-324105D01*
X26385Y-323815D01*
X26243Y-323218D01*
Y-322922D01*
X26385Y-322324D01*
X26783Y-322035D01*
X27395Y-321423D01*
X27904Y-320723D01*
X28297Y-319951D01*
X28565Y-319128D01*
X28700Y-318273D01*
Y-317407D01*
X28565Y-316552D01*
X28297Y-315729D01*
X27904Y-314957D01*
X27395Y-314257D01*
X26783Y-313645D01*
X26377Y-313350D01*
X26232Y-312724D01*
Y-312486D01*
X26377Y-311860D01*
X26783Y-311565D01*
X27395Y-310953D01*
X27904Y-310253D01*
X28297Y-309481D01*
X28565Y-308658D01*
X28700Y-307803D01*
Y-306937D01*
X28565Y-306082D01*
X28297Y-305259D01*
X27904Y-304487D01*
X27395Y-303787D01*
X26783Y-303175D01*
X26546Y-303003D01*
X26450Y-302755D01*
Y-301725D01*
X26546Y-301477D01*
X26783Y-301305D01*
X27395Y-300693D01*
X27904Y-299993D01*
X28297Y-299221D01*
X28565Y-298398D01*
X28700Y-297543D01*
Y-296677D01*
X28565Y-295822D01*
X28297Y-294999D01*
X27904Y-294227D01*
X27395Y-293527D01*
X26783Y-292915D01*
X26083Y-292406D01*
X25311Y-292013D01*
X24488Y-291745D01*
X23633Y-291610D01*
D02*
G37*
%LPD*%
D12*
X-103838Y-186228D02*
X-97488D01*
X-104890Y-187280D02*
X-103838Y-186228D01*
X-97488D02*
X-81700Y-170440D01*
Y-107310D02*
X-59480Y-85090D01*
X20969D02*
X70000Y-36059D01*
X-59480Y-85090D02*
X20969D01*
X-81700Y-170440D02*
Y-107310D01*
X70000Y-36059D02*
Y-31500D01*
D14*
X-7Y-31232D02*
Y21590D01*
Y-31232D02*
X2850Y-34089D01*
Y-34630D02*
Y-34089D01*
D23*
X172060Y-285819D02*
X173120D01*
X155120Y-268880D02*
X172060Y-285819D01*
X154060Y-268880D02*
X155120D01*
X33406Y447604D02*
X36556D01*
X-23420Y475560D02*
X5450D01*
X33406Y447604D01*
X36556D02*
X37130Y447030D01*
D144*
X81560Y356240D02*
D03*
X-9640Y356470D02*
D03*
X-99450Y356240D02*
D03*
D145*
X121160D02*
D03*
X29960Y356470D02*
D03*
X-59850Y356240D02*
D03*
D157*
X-31806Y-143986D02*
X-21230Y-133410D01*
X-7970D01*
X-58131Y-143986D02*
X-31806D01*
X66300Y-241630D02*
Y-143400D01*
Y-241630D02*
X77890Y-253220D01*
X66300Y-143400D02*
X84870Y-124830D01*
X-26530Y-215660D02*
X-21530D01*
X-38670D02*
X-26530D01*
X-65100Y-254230D02*
X-26530Y-215660D01*
X-59517Y-194813D02*
X-38670Y-215660D01*
X-59517Y-194813D02*
Y-143986D01*
X84795Y-124755D02*
Y-114625D01*
Y-124755D02*
X84870Y-124830D01*
X84720Y-114550D02*
X84795Y-114625D01*
X-21030Y-215160D02*
X-6339D01*
X-21530Y-215660D02*
X-21030Y-215160D01*
X31721Y-253220D02*
X77890D01*
X-6339Y-215160D02*
X31721Y-253220D01*
X-252730Y-459740D02*
X-227330D01*
X252640Y356700D02*
X394970D01*
X494500Y257170D01*
Y-182400D02*
Y257170D01*
X362060Y-314840D02*
X494500Y-182400D01*
X-129140Y-41016D02*
Y-40745D01*
X29905Y-4515D02*
X66250D01*
X13510Y11880D02*
X29905Y-4515D01*
X66250Y-4786D02*
X70460Y-8996D01*
X66250Y-4786D02*
Y-4515D01*
X70460Y-20940D02*
Y-8996D01*
Y-20940D02*
X93970D01*
X117230Y-44200D01*
X158370D01*
X270450Y-314840D02*
X362060D01*
X93080Y485790D02*
X123550D01*
X252640Y356700D01*
X240047Y-345243D02*
X270450Y-314840D01*
X240047Y-382000D02*
Y-345243D01*
D158*
X840000Y0D02*
G03*
X840000Y0I-840000J0D01*
G01*
D164*
X-109980Y-483630D02*
Y-397410D01*
X-65100Y-352530D02*
Y-254230D01*
X-109980Y-397410D02*
X-65100Y-352530D01*
X172980Y-530290D02*
Y-509850D01*
X156460Y-493120D02*
X173190Y-509850D01*
X-109980Y-483630D02*
X-100490Y-493120D01*
X156460D01*
X182740Y-529670D02*
X182840Y-529570D01*
X182670Y-509740D02*
X182840Y-509910D01*
Y-529570D02*
Y-509910D01*
X182670Y-509740D02*
X204885Y-487525D01*
Y-282100D01*
X-109590Y-211740D02*
X-65100Y-256230D01*
X-119990Y-201340D02*
X-109590Y-211740D01*
X-64410Y-67810D02*
Y-50050D01*
X-83410Y-86810D02*
X-64410Y-67810D01*
X192010Y-75935D02*
Y29850D01*
X134420Y87440D02*
X192010Y29850D01*
X164800Y-48725D02*
X192010Y-75935D01*
X345560Y-237471D02*
X468200Y-114831D01*
Y230900D01*
X281900Y-239470D02*
X343050D01*
X244160D02*
X281900D01*
X343540Y-239960D02*
X345560Y-237940D01*
Y-237471D01*
X204885Y-278745D02*
X211070Y-272560D01*
X212510D01*
X211790Y-271840D02*
X244160Y-239470D01*
X-119990Y-201340D02*
Y-161360D01*
X-44210Y-50050D02*
X-43440Y-49280D01*
X-64410Y-50050D02*
X-44210D01*
X298500Y124720D02*
X298610Y124610D01*
X307820D01*
X322810Y139600D01*
Y224390D01*
Y263470D01*
X90170Y-445320D02*
X108798Y-426693D01*
X30650Y-445320D02*
X90170D01*
X1020Y-474950D02*
X30650Y-445320D01*
X-82480Y-474950D02*
X1020D01*
X-92070D02*
X-82480D01*
X312090Y-529670D02*
X329540Y-512220D01*
Y-418920D01*
X182740Y-529670D02*
X312090D01*
X76920Y-528820D02*
X128110Y-580010D01*
X-119210Y-528820D02*
X76920D01*
X-188290Y-459740D02*
X-119210Y-528820D01*
X108798Y-426693D02*
Y-385640D01*
X105157Y-382000D02*
X108798Y-385640D01*
X192010Y-269960D02*
X204150Y-282100D01*
X192010Y-269960D02*
Y-75935D01*
X164800Y-48725D02*
Y-48725D01*
X158370Y-44200D02*
X160275D01*
X164800Y-48725D01*
X84520Y87440D02*
X134420D01*
X312500Y273780D02*
X322810Y263470D01*
X312500Y273780D02*
X425320D01*
X-659460Y73820D02*
X-536390Y-49250D01*
X308870Y-580010D02*
X360050Y-528830D01*
X128110Y-580010D02*
X308870D01*
X-227330Y-459740D02*
X-188290D01*
X360050Y-480880D02*
X363230Y-477700D01*
X360050Y-528830D02*
Y-480880D01*
X329540Y-418920D02*
X519270Y-229190D01*
X-659460Y73820D02*
Y84060D01*
X-536390Y-259620D02*
Y-49250D01*
X-554720Y-299140D02*
Y-277630D01*
X-554400D02*
X-536390Y-259620D01*
X-3Y547300D02*
X36957Y510340D01*
X136450D01*
X253220Y393570D01*
X394710D01*
X519270Y269010D01*
Y-229190D02*
Y269010D01*
X293010Y310330D02*
X312500Y290840D01*
X154640Y275950D02*
Y310330D01*
X293010D01*
X154640D02*
Y330849D01*
X108020Y229330D02*
X154640Y275950D01*
X312500Y273780D02*
Y290840D01*
X425320Y273780D02*
X468200Y230900D01*
X-138460Y-83881D02*
X-135531Y-86810D01*
X-138460Y-83881D02*
Y-50336D01*
X-135531Y-86810D02*
X-105760D01*
X-138460Y-50336D02*
X-129140Y-41016D01*
X-105760Y-86810D02*
X-83410D01*
X-105760Y-119372D02*
Y-86810D01*
Y-147130D02*
Y-119372D01*
X-119990Y-161360D02*
X-105760Y-147130D01*
D166*
X365400Y427300D02*
D03*
Y452700D02*
D03*
X340000D02*
D03*
Y427300D02*
D03*
X314600D02*
D03*
X272700Y503500D02*
D03*
Y478100D02*
D03*
X247300D02*
D03*
Y503500D02*
D03*
X272700Y452700D02*
D03*
X-247300Y478100D02*
D03*
Y503500D02*
D03*
Y452700D02*
D03*
X-272700Y503500D02*
D03*
Y478100D02*
D03*
X-7Y46990D02*
D03*
Y21590D02*
D03*
X50793Y46990D02*
D03*
X25393D02*
D03*
X-25407D02*
D03*
X-50807D02*
D03*
Y21590D02*
D03*
X-25407D02*
D03*
X25393D02*
D03*
X220596Y-504110D02*
D03*
Y-478710D02*
D03*
X245996D02*
D03*
X220596Y-453310D02*
D03*
X245996Y-504110D02*
D03*
X-25403Y547300D02*
D03*
X25397D02*
D03*
X-3D02*
D03*
X25397Y572700D02*
D03*
X-3D02*
D03*
X-365400Y427300D02*
D03*
X-340000Y452700D02*
D03*
Y427300D02*
D03*
X-314600Y452700D02*
D03*
Y427300D02*
D03*
D167*
X314600Y452700D02*
D03*
X50793Y21590D02*
D03*
X-25403Y572700D02*
D03*
X-365400Y452700D02*
D03*
D168*
X247300D02*
D03*
X-272700D02*
D03*
X245996Y-453310D02*
D03*
D169*
X-252730Y-307340D02*
D03*
X-227330D02*
D03*
X-455930Y-459740D02*
D03*
X-405130D02*
D03*
X-252730D02*
D03*
X-227330D02*
D03*
X-455930Y-307340D02*
D03*
D170*
X298960Y-477700D02*
D03*
X363230D02*
D03*
X184660Y384750D02*
D03*
X-163000Y-177100D02*
D03*
Y-42700D02*
D03*
X158750Y-178100D02*
D03*
X158370Y-44200D02*
D03*
D171*
X298960Y-452300D02*
D03*
X363230D02*
D03*
X184660Y359350D02*
D03*
X-163000Y-151700D02*
D03*
Y-126300D02*
D03*
Y-100900D02*
D03*
Y8100D02*
D03*
Y33500D02*
D03*
Y-17300D02*
D03*
X158750Y-101900D02*
D03*
Y-152700D02*
D03*
Y-127300D02*
D03*
X158370Y-18800D02*
D03*
Y32000D02*
D03*
Y6600D02*
D03*
D172*
X-164400Y-246000D02*
D03*
X-139000D02*
D03*
X316247Y-382000D02*
D03*
X265447D02*
D03*
X290847D02*
D03*
X155957D02*
D03*
X130557D02*
D03*
X181357D02*
D03*
D173*
X-113600Y-246000D02*
D03*
X240047Y-382000D02*
D03*
X105157D02*
D03*
D174*
X84520Y87440D02*
D03*
D175*
X-95479D02*
D03*
X-75479D02*
D03*
X-55479D02*
D03*
X-35480D02*
D03*
X-15480D02*
D03*
X4520D02*
D03*
X24520D02*
D03*
X44520D02*
D03*
X64520D02*
D03*
X84522Y307438D02*
D03*
X64522D02*
D03*
X44522D02*
D03*
X24522D02*
D03*
X4522D02*
D03*
X-15478D02*
D03*
X-35478D02*
D03*
X-55478D02*
D03*
X-75478D02*
D03*
X-95478D02*
D03*
D176*
X878992Y235525D02*
D03*
X-235525Y878992D02*
D03*
X627852Y168232D02*
D03*
X168232Y627852D02*
D03*
X643467Y643467D02*
D03*
X235525Y878992D02*
D03*
Y-878992D02*
D03*
X643467Y-643467D02*
D03*
X459619Y-459619D02*
D03*
X878992Y-235525D02*
D03*
X-627852Y-168232D02*
D03*
X-643467Y-643467D02*
D03*
X-235525Y-878992D02*
D03*
X-168232Y-627852D02*
D03*
X-878992Y235525D02*
D03*
X-643467Y643467D02*
D03*
X-459619Y459619D02*
D03*
X-878992Y-235525D02*
D03*
D177*
X878992Y258385D02*
D03*
X856133Y235525D02*
D03*
X878992Y212665D02*
D03*
X901852Y235525D02*
D03*
X895157Y251690D02*
D03*
X862828D02*
D03*
Y219361D02*
D03*
X895157D02*
D03*
X-235525Y901852D02*
D03*
X-258385Y878992D02*
D03*
X-235525Y856133D02*
D03*
X-212665Y878992D02*
D03*
X-219361Y895157D02*
D03*
X-251690D02*
D03*
Y862828D02*
D03*
X-219361D02*
D03*
X627852Y191092D02*
D03*
X604992Y168232D02*
D03*
X627852Y145372D02*
D03*
X650712Y168232D02*
D03*
X644016Y184397D02*
D03*
X611687Y184397D02*
D03*
Y152068D02*
D03*
X644016Y152068D02*
D03*
X168232Y650712D02*
D03*
X145372Y627852D02*
D03*
X168232Y604992D02*
D03*
X191092Y627852D02*
D03*
X184397Y644016D02*
D03*
X152068Y644016D02*
D03*
X152068Y611687D02*
D03*
X184397Y611687D02*
D03*
X643467Y666327D02*
D03*
X620607Y643467D02*
D03*
X643467Y620607D02*
D03*
X666327Y643467D02*
D03*
X659632Y659632D02*
D03*
X627303D02*
D03*
Y627303D02*
D03*
X659632Y627303D02*
D03*
X235525Y901852D02*
D03*
X212665Y878992D02*
D03*
X235525Y856133D02*
D03*
X258385Y878992D02*
D03*
X251690Y895157D02*
D03*
X219361D02*
D03*
Y862828D02*
D03*
X251690D02*
D03*
X235525Y-856133D02*
D03*
X212665Y-878992D02*
D03*
X235525Y-901852D02*
D03*
X258385Y-878992D02*
D03*
X251690Y-862828D02*
D03*
X219361D02*
D03*
X219361Y-895157D02*
D03*
X251690D02*
D03*
X659632Y-659632D02*
D03*
X627303Y-659632D02*
D03*
Y-627303D02*
D03*
X659632Y-627303D02*
D03*
X666327Y-643467D02*
D03*
X643467Y-666327D02*
D03*
X620607Y-643467D02*
D03*
X643467Y-620607D02*
D03*
X459620Y-436759D02*
D03*
X436760Y-459619D02*
D03*
X459620Y-482479D02*
D03*
X482479Y-459619D02*
D03*
X475784Y-443455D02*
D03*
X443455Y-443455D02*
D03*
X443455Y-475784D02*
D03*
X475784Y-475784D02*
D03*
X878992Y-212665D02*
D03*
X856133Y-235525D02*
D03*
X878992Y-258385D02*
D03*
X901852Y-235525D02*
D03*
X895157Y-219361D02*
D03*
X862828D02*
D03*
Y-251690D02*
D03*
X895157D02*
D03*
X-627852Y-145372D02*
D03*
X-650712Y-168232D02*
D03*
X-627852Y-191092D02*
D03*
X-604992Y-168232D02*
D03*
X-611687Y-152068D02*
D03*
X-644016D02*
D03*
Y-184397D02*
D03*
X-611687D02*
D03*
X-627303Y-659632D02*
D03*
X-659632Y-659632D02*
D03*
X-659632Y-627303D02*
D03*
X-627303D02*
D03*
X-620607Y-643467D02*
D03*
X-643467Y-666327D02*
D03*
X-666327Y-643467D02*
D03*
X-643467Y-620607D02*
D03*
X-219361Y-895157D02*
D03*
X-251690Y-895157D02*
D03*
Y-862828D02*
D03*
X-219361Y-862828D02*
D03*
X-212665Y-878992D02*
D03*
X-235525Y-901852D02*
D03*
X-258385Y-878992D02*
D03*
X-235525Y-856133D02*
D03*
X-168232Y-604992D02*
D03*
X-191092Y-627852D02*
D03*
X-168232Y-650712D02*
D03*
X-145372Y-627852D02*
D03*
X-152068Y-611687D02*
D03*
X-184397D02*
D03*
Y-644016D02*
D03*
X-152068D02*
D03*
X-878992Y258385D02*
D03*
X-901852Y235525D02*
D03*
X-878992Y212665D02*
D03*
X-856133Y235525D02*
D03*
X-862828Y251690D02*
D03*
X-895157Y251690D02*
D03*
X-895157Y219361D02*
D03*
X-862828D02*
D03*
X-627303Y627303D02*
D03*
X-659632Y627303D02*
D03*
Y659632D02*
D03*
X-627303Y659632D02*
D03*
X-620607Y643467D02*
D03*
X-643467Y620607D02*
D03*
X-666327Y643467D02*
D03*
X-643467Y666327D02*
D03*
X-443455Y443455D02*
D03*
X-475784Y443455D02*
D03*
X-475784Y475784D02*
D03*
X-443455Y475784D02*
D03*
X-436759Y459619D02*
D03*
X-459619Y436759D02*
D03*
X-482479Y459619D02*
D03*
X-459619Y482480D02*
D03*
X-862828Y-251690D02*
D03*
X-895157D02*
D03*
X-895157Y-219361D02*
D03*
X-862828Y-219361D02*
D03*
X-856133Y-235525D02*
D03*
X-878992Y-258385D02*
D03*
X-901852Y-235525D02*
D03*
X-878992Y-212665D02*
D03*
D178*
X-420000Y727461D02*
D03*
X727461Y420000D02*
D03*
X840000Y0D02*
D03*
X0Y840000D02*
D03*
X420000Y727461D02*
D03*
Y-727461D02*
D03*
X727461Y-420000D02*
D03*
X0Y-840000D02*
D03*
X-840000Y0D02*
D03*
X-727461Y-420000D02*
D03*
X-420000Y-727461D02*
D03*
X-727461Y420000D02*
D03*
D179*
X-370000Y640859D02*
D03*
X370000Y-640859D02*
D03*
D180*
X640859Y370000D02*
D03*
X-640859Y-370000D02*
D03*
D181*
X740000Y-0D02*
D03*
X-740000Y0D02*
D03*
D182*
X0Y740000D02*
D03*
X-0Y-740000D02*
D03*
D183*
X370000Y640859D02*
D03*
X-370000Y-640859D02*
D03*
D184*
X640859Y-370000D02*
D03*
X-640859Y370000D02*
D03*
D185*
X54410Y-138740D02*
D03*
X48210Y-146390D02*
D03*
X55310Y-153600D02*
D03*
X-25070Y2360D02*
D03*
X37080Y34060D02*
D03*
X-12400Y34410D02*
D03*
X36080Y-38170D02*
D03*
X169570Y-431130D02*
D03*
X150570Y-430880D02*
D03*
X130370Y-431010D02*
D03*
X-296410Y178250D02*
D03*
X-281410Y75150D02*
D03*
X-309350Y74570D02*
D03*
X-295630Y85240D02*
D03*
X-295630Y58580D02*
D03*
X-294790Y33460D02*
D03*
X-296400Y121240D02*
D03*
X-282540Y131330D02*
D03*
X-310620Y131330D02*
D03*
X-274510Y178290D02*
D03*
X-295730Y159940D02*
D03*
X-296280Y141150D02*
D03*
X294680Y-64740D02*
D03*
X295230Y-45950D02*
D03*
X272900Y-27050D02*
D03*
X316450Y-27600D02*
D03*
X353079Y-356831D02*
D03*
X218079Y-386831D02*
D03*
X173079Y-356831D02*
D03*
X143079D02*
D03*
X113079D02*
D03*
X-171921Y-446831D02*
D03*
Y-506831D02*
D03*
X-156921Y-536831D02*
D03*
X-171921Y-566831D02*
D03*
X-186921Y-536831D02*
D03*
X-216921D02*
D03*
X-231921Y-566831D02*
D03*
X-471921Y333169D02*
D03*
X-531921D02*
D03*
X233079Y273169D02*
D03*
X188079Y243169D02*
D03*
Y183169D02*
D03*
X158079Y243169D02*
D03*
X-51921Y63169D02*
D03*
X-81921D02*
D03*
X-66921Y33169D02*
D03*
X-141921Y63169D02*
D03*
X-171921D02*
D03*
X-201921Y-176831D02*
D03*
X-351921Y-296831D02*
D03*
X-336921Y-326831D02*
D03*
X-351921Y-356831D02*
D03*
X-336921Y-386831D02*
D03*
Y-446831D02*
D03*
X-381921Y-296831D02*
D03*
X-366921Y-326831D02*
D03*
Y-386831D02*
D03*
Y-446831D02*
D03*
X-396921Y-326831D02*
D03*
Y-386831D02*
D03*
X-426921Y-326831D02*
D03*
X-441921Y-356831D02*
D03*
X-426921Y-386831D02*
D03*
X-456921D02*
D03*
X-162630Y492550D02*
D03*
X-192240Y486970D02*
D03*
X280340Y-74560D02*
D03*
X308420Y-74560D02*
D03*
X294560Y-84650D02*
D03*
X-316780Y179420D02*
D03*
X172980Y-530290D02*
D03*
Y-520420D02*
D03*
Y-509850D02*
D03*
X182670Y-519770D02*
D03*
Y-509740D02*
D03*
X-118900Y-375830D02*
D03*
X-495200Y263080D02*
D03*
X-146510Y-473150D02*
D03*
X-67310Y-388220D02*
D03*
X314250Y-204920D02*
D03*
X294870D02*
D03*
X231990D02*
D03*
X251550Y-204480D02*
D03*
X-39760Y-38470D02*
D03*
X113450Y36286D02*
D03*
X112430Y25090D02*
D03*
X71378Y10021D02*
D03*
X70750Y21970D02*
D03*
X421740Y229620D02*
D03*
X-185140Y474160D02*
D03*
X99970Y435050D02*
D03*
X172525Y459415D02*
D03*
X29470Y471780D02*
D03*
X52326Y432990D02*
D03*
X-121600Y-60120D02*
D03*
X12840Y-250180D02*
D03*
X2950Y-250280D02*
D03*
X-181650Y-334080D02*
D03*
X-35352Y-339298D02*
D03*
X16590Y-364900D02*
D03*
X16670Y-375000D02*
D03*
X16520Y-384740D02*
D03*
X144890Y52902D02*
D03*
X137890Y46480D02*
D03*
X129270Y42250D02*
D03*
X128090Y30790D02*
D03*
X50510Y-39010D02*
D03*
X-60129Y-134506D02*
D03*
X-59517Y-143986D02*
D03*
X-54517Y-125480D02*
D03*
X-47140Y-118840D02*
D03*
X-105255Y-199225D02*
D03*
X-17810Y-260280D02*
D03*
X102168Y-228514D02*
D03*
X6770Y-136160D02*
D03*
X-497910Y240170D02*
D03*
X-435533Y241907D02*
D03*
X-402640Y272960D02*
D03*
X-467840Y290120D02*
D03*
X569769Y206550D02*
D03*
X343540Y-239960D02*
D03*
X212510Y-272560D02*
D03*
X173120Y-285819D02*
D03*
X154060Y-268880D02*
D03*
X112780Y-224580D02*
D03*
X118450Y-237170D02*
D03*
X88004Y-220074D02*
D03*
X92670Y-228350D02*
D03*
X17210Y-194550D02*
D03*
X24260Y-210380D02*
D03*
X-9540Y-172350D02*
D03*
X-18350Y-179210D02*
D03*
X84720Y-114550D02*
D03*
X84870Y-124830D02*
D03*
X19658Y-174041D02*
D03*
X12390Y-180960D02*
D03*
X44240Y-187690D02*
D03*
X38980Y-201233D02*
D03*
X-13660Y-207160D02*
D03*
X-24528Y-169628D02*
D03*
X-19990Y-151090D02*
D03*
X-109590Y-211740D02*
D03*
X-120490Y-220580D02*
D03*
X-104890Y-187280D02*
D03*
X-103960Y-172020D02*
D03*
X-485000Y-16700D02*
D03*
X-485190Y-27980D02*
D03*
Y-39260D02*
D03*
X-192690Y233840D02*
D03*
X-193020Y209880D02*
D03*
Y222340D02*
D03*
Y197480D02*
D03*
X-200460Y409390D02*
D03*
X-200620Y418750D02*
D03*
X-212580Y418790D02*
D03*
X-212670Y409530D02*
D03*
X-206870Y401020D02*
D03*
X-246620Y356250D02*
D03*
X102560Y476290D02*
D03*
X20360Y446040D02*
D03*
X-35000Y236556D02*
D03*
X49490Y239130D02*
D03*
X49890Y177020D02*
D03*
X115270Y49890D02*
D03*
X-108780Y31368D02*
D03*
X-93468Y37473D02*
D03*
X-93433Y46973D02*
D03*
X-64410Y-50050D02*
D03*
X-43440Y-49280D02*
D03*
X-17500Y-56770D02*
D03*
X3631Y-50039D02*
D03*
X-55310Y-10950D02*
D03*
X-7970Y-133410D02*
D03*
X22025Y-130345D02*
D03*
X48481Y-173996D02*
D03*
X11320Y-209220D02*
D03*
X-21530Y-215660D02*
D03*
X51767Y-331140D02*
D03*
X23200Y-297110D02*
D03*
Y-307370D02*
D03*
Y-317840D02*
D03*
Y-328300D02*
D03*
X89910Y-157991D02*
D03*
X53960Y-181757D02*
D03*
X55380Y-191150D02*
D03*
X-121750Y553110D02*
D03*
X298500Y124720D02*
D03*
X551557Y206550D02*
D03*
X551062Y196815D02*
D03*
X551352Y187080D02*
D03*
X49870Y190350D02*
D03*
X50030Y224030D02*
D03*
X-227070Y-145110D02*
D03*
X333590Y233813D02*
D03*
X333710Y218885D02*
D03*
Y203958D02*
D03*
Y189030D02*
D03*
X56760Y-339940D02*
D03*
X46930Y-340180D02*
D03*
X62333Y-331000D02*
D03*
X42050Y-331130D02*
D03*
X-5190Y-255720D02*
D03*
X232080Y-298500D02*
D03*
X150000Y-299340D02*
D03*
X63230Y-284840D02*
D03*
X77890Y-253220D02*
D03*
X151860Y-231270D02*
D03*
X171200Y-233950D02*
D03*
X-82480Y-474950D02*
D03*
X-92070D02*
D03*
X-65810Y-503620D02*
D03*
X363760Y237900D02*
D03*
X472200Y-186660D02*
D03*
X-184000Y-191620D02*
D03*
X-259910Y-333770D02*
D03*
X-240280Y-318930D02*
D03*
X-204570Y-299400D02*
D03*
X401890Y-240700D02*
D03*
X396150Y-323230D02*
D03*
X355480Y-325460D02*
D03*
X356840Y-372530D02*
D03*
X282780Y-224550D02*
D03*
X281900Y-239470D02*
D03*
X-445540Y191700D02*
D03*
X-246450Y345870D02*
D03*
X89610Y-96470D02*
D03*
X77040Y-220580D02*
D03*
X101550Y-173310D02*
D03*
X51230Y-200990D02*
D03*
X101100Y-185240D02*
D03*
X-101850Y24870D02*
D03*
X163960Y164810D02*
D03*
X265370Y294690D02*
D03*
X322810Y224390D02*
D03*
X-227530Y-254630D02*
D03*
X-275180Y222110D02*
D03*
X-291860D02*
D03*
X-307940D02*
D03*
X-322790D02*
D03*
X-265790Y211420D02*
D03*
X-283700D02*
D03*
X-300380D02*
D03*
X-316020D02*
D03*
X-330000D02*
D03*
X580650Y187080D02*
D03*
X578875Y206550D02*
D03*
X579720Y196815D02*
D03*
X296170Y-172430D02*
D03*
X295330Y-147310D02*
D03*
X295330Y-120650D02*
D03*
X281610Y-131320D02*
D03*
X309550Y-130740D02*
D03*
X294550Y-27640D02*
D03*
X182670Y-529670D02*
D03*
X171260Y-551790D02*
D03*
X180620D02*
D03*
X190470D02*
D03*
Y-561310D02*
D03*
X180620D02*
D03*
X171260D02*
D03*
X-430760Y191960D02*
D03*
X-464500Y-39100D02*
D03*
X-475110Y-39090D02*
D03*
X-485000Y-5420D02*
D03*
X-464640Y-5260D02*
D03*
X-474920Y-5250D02*
D03*
X-57360Y-94910D02*
D03*
X-13301Y-160228D02*
D03*
X-57360Y-106800D02*
D03*
X99350Y-92484D02*
D03*
X102260Y-81400D02*
D03*
X-131230Y-552670D02*
D03*
Y-563090D02*
D03*
X-130920Y-573920D02*
D03*
X-146400Y-569020D02*
D03*
X-120570Y-573700D02*
D03*
X-120880Y-562870D02*
D03*
Y-552450D02*
D03*
X-48240Y-451870D02*
D03*
X68110Y-475780D02*
D03*
X-652550Y66300D02*
D03*
X-659460Y84060D02*
D03*
X-554720Y-299140D02*
D03*
Y-288385D02*
D03*
Y-277630D02*
D03*
X-391510Y353270D02*
D03*
X-346390Y121940D02*
D03*
X356060Y-241820D02*
D03*
X105430Y-341750D02*
D03*
X313170Y-328080D02*
D03*
X295310Y-328210D02*
D03*
X190820Y-357230D02*
D03*
X222590Y-363130D02*
D03*
X353340Y-337800D02*
D03*
X255090Y256690D02*
D03*
X255980Y214700D02*
D03*
X256430Y181280D02*
D03*
X50260Y258330D02*
D03*
X-32640Y196860D02*
D03*
X-32680Y258040D02*
D03*
X-102810Y-347270D02*
D03*
X66850Y487220D02*
D03*
X-460590Y264610D02*
D03*
X-471590Y253610D02*
D03*
Y264610D02*
D03*
X-460590Y253610D02*
D03*
X154640Y330849D02*
D03*
X245370Y332230D02*
D03*
X206540Y330630D02*
D03*
X356450Y-255010D02*
D03*
X282590Y-253650D02*
D03*
X396520Y-225590D02*
D03*
X-184360Y-299090D02*
D03*
X-51560Y-416740D02*
D03*
X-57360Y-440780D02*
D03*
X-138244Y511370D02*
D03*
X346180Y-27060D02*
D03*
Y-50990D02*
D03*
Y-83660D02*
D03*
Y-109770D02*
D03*
Y-143540D02*
D03*
Y-155810D02*
D03*
Y-95770D02*
D03*
Y-39210D02*
D03*
Y-166540D02*
D03*
X355470Y-172870D02*
D03*
X242090Y-28060D02*
D03*
Y-52210D02*
D03*
Y-83500D02*
D03*
Y-110630D02*
D03*
Y-142870D02*
D03*
Y-40170D02*
D03*
Y-97010D02*
D03*
Y-154830D02*
D03*
X242150Y-165980D02*
D03*
X234020Y-171820D02*
D03*
X-346390Y108610D02*
D03*
X-346170Y166910D02*
D03*
Y154650D02*
D03*
X-346390Y95470D02*
D03*
X-346570Y67180D02*
D03*
Y39510D02*
D03*
Y54040D02*
D03*
X-346170Y179920D02*
D03*
X-201840Y216380D02*
D03*
Y228840D02*
D03*
Y203980D02*
D03*
X-244270Y110690D02*
D03*
Y167160D02*
D03*
Y96810D02*
D03*
Y179620D02*
D03*
Y122880D02*
D03*
Y154760D02*
D03*
Y52520D02*
D03*
Y65540D02*
D03*
Y38670D02*
D03*
X-264350Y369990D02*
D03*
X-252220Y377790D02*
D03*
X-503660Y397760D02*
D03*
X-492975Y397840D02*
D03*
X-482290Y397760D02*
D03*
X-407190Y188450D02*
D03*
X-417765Y233465D02*
D03*
X-365510Y234480D02*
D03*
X-407240Y311870D02*
D03*
X-435740Y270850D02*
D03*
X-426020Y316370D02*
D03*
X-474920Y-16530D02*
D03*
X-464310Y-16540D02*
D03*
X-475110Y-27810D02*
D03*
X-464680Y-27820D02*
D03*
X570884Y187080D02*
D03*
X561118D02*
D03*
X570167Y196815D02*
D03*
X560615D02*
D03*
X560663Y206550D02*
D03*
X572285Y247860D02*
D03*
X582250D02*
D03*
X562320D02*
D03*
X417895Y251675D02*
D03*
X482200Y230770D02*
D03*
X-389410Y-223830D02*
D03*
X-425010Y-225920D02*
D03*
X-429950Y-248990D02*
D03*
X2850Y-34630D02*
D03*
X-82270Y-260270D02*
D03*
X-196990Y-160910D02*
D03*
X144600Y406880D02*
D03*
X227410Y187770D02*
D03*
X227760Y236350D02*
D03*
X333710Y248740D02*
D03*
X-3900Y-98060D02*
D03*
X11540Y-104180D02*
D03*
X39988Y-210679D02*
D03*
X15140Y-261780D02*
D03*
X-71070Y-134810D02*
D03*
X-43090Y-107150D02*
D03*
X-90300Y21730D02*
D03*
X-80860Y47800D02*
D03*
X-535858Y203908D02*
D03*
X-476800Y192640D02*
D03*
X-536600Y251967D02*
D03*
X-488590Y333150D02*
D03*
X-25180Y440630D02*
D03*
X-174970Y458300D02*
D03*
X-61130Y513050D02*
D03*
X-105760Y-147130D02*
D03*
Y-119372D02*
D03*
Y-86810D02*
D03*
X366900Y-241620D02*
D03*
X312500Y273780D02*
D03*
X13510Y11880D02*
D03*
X-10990Y258820D02*
D03*
X-10818Y195970D02*
D03*
X107210Y166940D02*
D03*
X108020Y229330D02*
D03*
X-129140Y-40745D02*
D03*
X-300280Y-149080D02*
D03*
X6230Y516210D02*
D03*
X39590Y-476520D02*
D03*
X-12450Y-419120D02*
D03*
X51460Y-476420D02*
D03*
X25490Y-476520D02*
D03*
X-23420Y475560D02*
D03*
X93080Y485790D02*
D03*
X75726Y481164D02*
D03*
X-207070Y-119450D02*
D03*
X-659460Y73820D02*
D03*
X-235040Y31740D02*
D03*
Y58610D02*
D03*
X-355310Y173320D02*
D03*
Y46900D02*
D03*
Y32370D02*
D03*
X-235040Y45590D02*
D03*
X-360910Y-168250D02*
D03*
X-234930Y147980D02*
D03*
X-235050Y116450D02*
D03*
X-355310Y60040D02*
D03*
X-234930Y172840D02*
D03*
X-235050Y90380D02*
D03*
X-234930Y160380D02*
D03*
X-235050Y104260D02*
D03*
X-355310Y89310D02*
D03*
Y148050D02*
D03*
Y115780D02*
D03*
Y160310D02*
D03*
Y102450D02*
D03*
X-55230Y428460D02*
D03*
X50260Y400610D02*
D03*
X355470Y-45540D02*
D03*
Y-102100D02*
D03*
Y-162140D02*
D03*
X233960Y-160670D02*
D03*
Y-102850D02*
D03*
Y-46010D02*
D03*
X-133000Y542990D02*
D03*
X-485700Y278460D02*
D03*
X-460920Y397760D02*
D03*
X-471605D02*
D03*
X-241290Y378010D02*
D03*
X37130Y447030D02*
D03*
X355470Y-149870D02*
D03*
Y-116100D02*
D03*
Y-89990D02*
D03*
Y-57320D02*
D03*
Y-33390D02*
D03*
X233960Y-148710D02*
D03*
Y-116470D02*
D03*
Y-89340D02*
D03*
Y-58050D02*
D03*
Y-33900D02*
D03*
X172730Y505400D02*
D03*
X-82490Y173320D02*
D03*
X-83710Y258310D02*
D03*
X164190Y154400D02*
D03*
X-114850Y-41670D02*
D03*
X66250Y-4515D02*
D03*
X70460Y-20940D02*
D03*
X-447980Y331030D02*
D03*
X-345420Y317940D02*
D03*
X-435190Y398930D02*
D03*
X-32800Y-106800D02*
D03*
X70000Y-31500D02*
D03*
X20650Y-56680D02*
D03*
X86510Y-135800D02*
D03*
X-35700Y174400D02*
D03*
X200160Y117610D02*
D03*
X82630Y-430320D02*
D03*
X-119000Y-384990D02*
D03*
Y-366440D02*
D03*
X-56950Y-426050D02*
D03*
X-181830Y-415680D02*
D03*
X230720Y-352780D02*
D03*
X262040Y-352200D02*
D03*
M02*
