G04*
G04 #@! TF.GenerationSoftware,Altium Limited,Altium Designer,24.1.2 (44)*
G04*
G04 Layer_Color=8388736*
%FSLAX44Y44*%
%MOMM*%
G71*
G04*
G04 #@! TF.SameCoordinates,2C16BBA9-9998-41B8-83CB-84F837F6A615*
G04*
G04*
G04 #@! TF.FilePolarity,Negative*
G04*
G01*
G75*
%ADD24R,0.9000X0.9500*%
G04:AMPARAMS|DCode=41|XSize=1.2565mm|YSize=0.418mm|CornerRadius=0.209mm|HoleSize=0mm|Usage=FLASHONLY|Rotation=0.000|XOffset=0mm|YOffset=0mm|HoleType=Round|Shape=RoundedRectangle|*
%AMROUNDEDRECTD41*
21,1,1.2565,0.0000,0,0,0.0*
21,1,0.8385,0.4180,0,0,0.0*
1,1,0.4180,0.4193,0.0000*
1,1,0.4180,-0.4193,0.0000*
1,1,0.4180,-0.4193,0.0000*
1,1,0.4180,0.4193,0.0000*
%
%ADD41ROUNDEDRECTD41*%
%ADD42R,1.2565X0.4180*%
%ADD58R,1.8796X0.5588*%
%ADD60R,0.9500X0.9000*%
%ADD75R,1.9580X0.9740*%
%ADD76R,0.9280X1.5160*%
%ADD77R,0.9280X1.5160*%
%ADD78R,1.9710X0.9800*%
%ADD79R,0.7810X1.3200*%
%ADD80R,0.7830X1.1800*%
%ADD81R,1.1000X1.1500*%
%ADD82R,1.1000X1.4000*%
G04:AMPARAMS|DCode=83|XSize=1.1mm|YSize=0.9mm|CornerRadius=0.135mm|HoleSize=0mm|Usage=FLASHONLY|Rotation=270.000|XOffset=0mm|YOffset=0mm|HoleType=Round|Shape=RoundedRectangle|*
%AMROUNDEDRECTD83*
21,1,1.1000,0.6300,0,0,270.0*
21,1,0.8300,0.9000,0,0,270.0*
1,1,0.2700,-0.3150,-0.4150*
1,1,0.2700,-0.3150,0.4150*
1,1,0.2700,0.3150,0.4150*
1,1,0.2700,0.3150,-0.4150*
%
%ADD83ROUNDEDRECTD83*%
%ADD84R,1.4000X1.1000*%
%ADD85R,0.9000X1.0000*%
%ADD86R,2.6000X3.5000*%
%ADD87R,2.6000X1.2000*%
%ADD88R,1.5000X3.2000*%
%ADD89R,0.9000X0.8000*%
%ADD90R,2.2000X3.2000*%
%ADD91R,3.8000X4.3000*%
%ADD92R,1.4700X0.8100*%
%ADD93R,1.2200X0.8100*%
%ADD94R,4.0100X4.1100*%
G04:AMPARAMS|DCode=95|XSize=0.65mm|YSize=0.8mm|CornerRadius=0.145mm|HoleSize=0mm|Usage=FLASHONLY|Rotation=270.000|XOffset=0mm|YOffset=0mm|HoleType=Round|Shape=RoundedRectangle|*
%AMROUNDEDRECTD95*
21,1,0.6500,0.5100,0,0,270.0*
21,1,0.3600,0.8000,0,0,270.0*
1,1,0.2900,-0.2550,-0.1800*
1,1,0.2900,-0.2550,0.1800*
1,1,0.2900,0.2550,0.1800*
1,1,0.2900,0.2550,-0.1800*
%
%ADD95ROUNDEDRECTD95*%
%ADD96R,2.2000X2.7500*%
%ADD97R,2.9000X1.7000*%
%ADD98O,2.0000X0.8000*%
%ADD99R,2.4000X3.3000*%
%ADD100R,0.8000X1.7000*%
G04:AMPARAMS|DCode=101|XSize=0.37mm|YSize=0.93mm|CornerRadius=0.1175mm|HoleSize=0mm|Usage=FLASHONLY|Rotation=90.000|XOffset=0mm|YOffset=0mm|HoleType=Round|Shape=RoundedRectangle|*
%AMROUNDEDRECTD101*
21,1,0.3700,0.6950,0,0,90.0*
21,1,0.1350,0.9300,0,0,90.0*
1,1,0.2350,0.3475,0.0675*
1,1,0.2350,0.3475,-0.0675*
1,1,0.2350,-0.3475,-0.0675*
1,1,0.2350,-0.3475,0.0675*
%
%ADD101ROUNDEDRECTD101*%
G04:AMPARAMS|DCode=102|XSize=0.37mm|YSize=0.93mm|CornerRadius=0.1175mm|HoleSize=0mm|Usage=FLASHONLY|Rotation=180.000|XOffset=0mm|YOffset=0mm|HoleType=Round|Shape=RoundedRectangle|*
%AMROUNDEDRECTD102*
21,1,0.3700,0.6950,0,0,180.0*
21,1,0.1350,0.9300,0,0,180.0*
1,1,0.2350,-0.0675,0.3475*
1,1,0.2350,0.0675,0.3475*
1,1,0.2350,0.0675,-0.3475*
1,1,0.2350,-0.0675,-0.3475*
%
%ADD102ROUNDEDRECTD102*%
G04:AMPARAMS|DCode=103|XSize=1.57mm|YSize=0.38mm|CornerRadius=0.085mm|HoleSize=0mm|Usage=FLASHONLY|Rotation=0.000|XOffset=0mm|YOffset=0mm|HoleType=Round|Shape=RoundedRectangle|*
%AMROUNDEDRECTD103*
21,1,1.5700,0.2100,0,0,0.0*
21,1,1.4000,0.3800,0,0,0.0*
1,1,0.1700,0.7000,-0.1050*
1,1,0.1700,-0.7000,-0.1050*
1,1,0.1700,-0.7000,0.1050*
1,1,0.1700,0.7000,0.1050*
%
%ADD103ROUNDEDRECTD103*%
G04:AMPARAMS|DCode=104|XSize=1.57mm|YSize=0.38mm|CornerRadius=0.085mm|HoleSize=0mm|Usage=FLASHONLY|Rotation=270.000|XOffset=0mm|YOffset=0mm|HoleType=Round|Shape=RoundedRectangle|*
%AMROUNDEDRECTD104*
21,1,1.5700,0.2100,0,0,270.0*
21,1,1.4000,0.3800,0,0,270.0*
1,1,0.1700,-0.1050,-0.7000*
1,1,0.1700,-0.1050,0.7000*
1,1,0.1700,0.1050,0.7000*
1,1,0.1700,0.1050,-0.7000*
%
%ADD104ROUNDEDRECTD104*%
%ADD105R,0.3800X1.5700*%
%ADD106R,1.0000X0.6000*%
%ADD107R,0.9000X0.5000*%
%ADD108R,2.5000X2.5000*%
G04:AMPARAMS|DCode=109|XSize=0.35mm|YSize=0.8mm|CornerRadius=0.1125mm|HoleSize=0mm|Usage=FLASHONLY|Rotation=270.000|XOffset=0mm|YOffset=0mm|HoleType=Round|Shape=RoundedRectangle|*
%AMROUNDEDRECTD109*
21,1,0.3500,0.5750,0,0,270.0*
21,1,0.1250,0.8000,0,0,270.0*
1,1,0.2250,-0.2875,-0.0625*
1,1,0.2250,-0.2875,0.0625*
1,1,0.2250,0.2875,0.0625*
1,1,0.2250,0.2875,-0.0625*
%
%ADD109ROUNDEDRECTD109*%
G04:AMPARAMS|DCode=110|XSize=0.35mm|YSize=0.8mm|CornerRadius=0.1125mm|HoleSize=0mm|Usage=FLASHONLY|Rotation=0.000|XOffset=0mm|YOffset=0mm|HoleType=Round|Shape=RoundedRectangle|*
%AMROUNDEDRECTD110*
21,1,0.3500,0.5750,0,0,0.0*
21,1,0.1250,0.8000,0,0,0.0*
1,1,0.2250,0.0625,-0.2875*
1,1,0.2250,-0.0625,-0.2875*
1,1,0.2250,-0.0625,0.2875*
1,1,0.2250,0.0625,0.2875*
%
%ADD110ROUNDEDRECTD110*%
%ADD111R,0.7800X0.4500*%
%ADD112R,0.7800X0.5000*%
%ADD113R,0.5500X0.8300*%
%ADD114R,1.6000X1.4000*%
G04:AMPARAMS|DCode=115|XSize=1.4mm|YSize=1.8mm|CornerRadius=0.4mm|HoleSize=0mm|Usage=FLASHONLY|Rotation=45.000|XOffset=0mm|YOffset=0mm|HoleType=Round|Shape=RoundedRectangle|*
%AMROUNDEDRECTD115*
21,1,1.4000,1.0000,0,0,45.0*
21,1,0.6000,1.8000,0,0,45.0*
1,1,0.8000,0.5657,-0.1414*
1,1,0.8000,0.1414,-0.5657*
1,1,0.8000,-0.5657,0.1414*
1,1,0.8000,-0.1414,0.5657*
%
%ADD115ROUNDEDRECTD115*%
%ADD116R,4.0100X2.2320*%
G04:AMPARAMS|DCode=117|XSize=1.2mm|YSize=2.2mm|CornerRadius=0.225mm|HoleSize=0mm|Usage=FLASHONLY|Rotation=180.000|XOffset=0mm|YOffset=0mm|HoleType=Round|Shape=RoundedRectangle|*
%AMROUNDEDRECTD117*
21,1,1.2000,1.7500,0,0,180.0*
21,1,0.7500,2.2000,0,0,180.0*
1,1,0.4500,-0.3750,0.8750*
1,1,0.4500,0.3750,0.8750*
1,1,0.4500,0.3750,-0.8750*
1,1,0.4500,-0.3750,-0.8750*
%
%ADD117ROUNDEDRECTD117*%
G04:AMPARAMS|DCode=118|XSize=5.7mm|YSize=5.9mm|CornerRadius=0.7875mm|HoleSize=0mm|Usage=FLASHONLY|Rotation=180.000|XOffset=0mm|YOffset=0mm|HoleType=Round|Shape=RoundedRectangle|*
%AMROUNDEDRECTD118*
21,1,5.7000,4.3250,0,0,180.0*
21,1,4.1250,5.9000,0,0,180.0*
1,1,1.5750,-2.0625,2.1625*
1,1,1.5750,2.0625,2.1625*
1,1,1.5750,2.0625,-2.1625*
1,1,1.5750,-2.0625,-2.1625*
%
%ADD118ROUNDEDRECTD118*%
%ADD119O,0.7500X2.2000*%
%ADD120R,1.1500X1.1000*%
G04:AMPARAMS|DCode=121|XSize=1.4mm|YSize=1.8mm|CornerRadius=0.4mm|HoleSize=0mm|Usage=FLASHONLY|Rotation=0.000|XOffset=0mm|YOffset=0mm|HoleType=Round|Shape=RoundedRectangle|*
%AMROUNDEDRECTD121*
21,1,1.4000,1.0000,0,0,0.0*
21,1,0.6000,1.8000,0,0,0.0*
1,1,0.8000,0.3000,-0.5000*
1,1,0.8000,-0.3000,-0.5000*
1,1,0.8000,-0.3000,0.5000*
1,1,0.8000,0.3000,0.5000*
%
%ADD121ROUNDEDRECTD121*%
%ADD122R,1.9000X1.9000*%
%ADD123R,1.1000X1.0000*%
%ADD124O,0.8000X2.0000*%
%ADD125R,2.6300X2.4700*%
%ADD126R,0.4500X0.9000*%
%ADD127R,0.9000X0.4500*%
G04:AMPARAMS|DCode=128|XSize=1.1mm|YSize=0.9mm|CornerRadius=0.135mm|HoleSize=0mm|Usage=FLASHONLY|Rotation=0.000|XOffset=0mm|YOffset=0mm|HoleType=Round|Shape=RoundedRectangle|*
%AMROUNDEDRECTD128*
21,1,1.1000,0.6300,0,0,0.0*
21,1,0.8300,0.9000,0,0,0.0*
1,1,0.2700,0.4150,-0.3150*
1,1,0.2700,-0.4150,-0.3150*
1,1,0.2700,-0.4150,0.3150*
1,1,0.2700,0.4150,0.3150*
%
%ADD128ROUNDEDRECTD128*%
%ADD129O,1.3000X0.8000*%
G04:AMPARAMS|DCode=130|XSize=0.8mm|YSize=1.3mm|CornerRadius=0mm|HoleSize=0mm|Usage=FLASHONLY|Rotation=90.000|XOffset=0mm|YOffset=0mm|HoleType=Round|Shape=Octagon|*
%AMOCTAGOND130*
4,1,8,-0.6500,-0.2000,-0.6500,0.2000,-0.4500,0.4000,0.4500,0.4000,0.6500,0.2000,0.6500,-0.2000,0.4500,-0.4000,-0.4500,-0.4000,-0.6500,-0.2000,0.0*
%
%ADD130OCTAGOND130*%

%ADD131R,1.0000X1.1000*%
G04:AMPARAMS|DCode=132|XSize=2.232mm|YSize=4.01mm|CornerRadius=0mm|HoleSize=0mm|Usage=FLASHONLY|Rotation=225.000|XOffset=0mm|YOffset=0mm|HoleType=Round|Shape=Rectangle|*
%AMROTATEDRECTD132*
4,1,4,-0.6286,2.2069,2.2069,-0.6286,0.6286,-2.2069,-2.2069,0.6286,-0.6286,2.2069,0.0*
%
%ADD132ROTATEDRECTD132*%

G04:AMPARAMS|DCode=133|XSize=1.4mm|YSize=1.8mm|CornerRadius=0.4mm|HoleSize=0mm|Usage=FLASHONLY|Rotation=270.000|XOffset=0mm|YOffset=0mm|HoleType=Round|Shape=RoundedRectangle|*
%AMROUNDEDRECTD133*
21,1,1.4000,1.0000,0,0,270.0*
21,1,0.6000,1.8000,0,0,270.0*
1,1,0.8000,-0.5000,-0.3000*
1,1,0.8000,-0.5000,0.3000*
1,1,0.8000,0.5000,0.3000*
1,1,0.8000,0.5000,-0.3000*
%
%ADD133ROUNDEDRECTD133*%
%ADD134R,2.4700X2.6300*%
%ADD135C,1.7200*%
%ADD136R,1.7200X1.7200*%
%ADD137R,1.7200X1.7200*%
%ADD138C,2.2000*%
%ADD139R,2.4860X2.1050*%
%ADD140O,2.4860X2.1050*%
%ADD141O,2.1050X2.4860*%
%ADD142R,2.1050X2.4860*%
%ADD143R,2.5000X2.5000*%
%ADD144C,2.5000*%
%ADD145R,1.7000X1.7000*%
%ADD146C,1.7000*%
%ADD147C,6.5500*%
%ADD148C,1.2000*%
%ADD149C,4.2000*%
%ADD150P,5.9397X4X165.0*%
%ADD151P,5.9397X4X75.0*%
%ADD152R,4.2000X4.2000*%
%ADD153R,4.2000X4.2000*%
%ADD154P,5.9397X4X105.0*%
%ADD155P,5.9397X4X375.0*%
G36*
X-36120Y395700D02*
X-35989Y395674D01*
X-35863Y395631D01*
X-35743Y395572D01*
X-35633Y395498D01*
X-35533Y395410D01*
X-35445Y395310D01*
X-35371Y395199D01*
X-35312Y395080D01*
X-35269Y394954D01*
X-35243Y394823D01*
X-35234Y394690D01*
Y380690D01*
X-35243Y380557D01*
X-35269Y380426D01*
X-35312Y380300D01*
X-35371Y380181D01*
X-35445Y380070D01*
X-35533Y379970D01*
X-35633Y379882D01*
X-35743Y379808D01*
X-35863Y379749D01*
X-35989Y379707D01*
X-36120Y379681D01*
X-36253Y379672D01*
X-50252D01*
X-50385Y379681D01*
X-50516Y379707D01*
X-50642Y379749D01*
X-50762Y379808D01*
X-50872Y379882D01*
X-50972Y379970D01*
X-51060Y380070D01*
X-51134Y380181D01*
X-51193Y380300D01*
X-51196Y380307D01*
X-51533Y379970D01*
X-51633Y379882D01*
X-51743Y379808D01*
X-51863Y379749D01*
X-51989Y379707D01*
X-52120Y379681D01*
X-52252Y379672D01*
X-59253D01*
X-59385Y379681D01*
X-59516Y379707D01*
X-59642Y379749D01*
X-59762Y379808D01*
X-59872Y379882D01*
X-59972Y379970D01*
X-60060Y380070D01*
X-60134Y380181D01*
X-60193Y380300D01*
X-60236Y380426D01*
X-60262Y380557D01*
X-60271Y380690D01*
Y394690D01*
X-60262Y394823D01*
X-60236Y394954D01*
X-60193Y395080D01*
X-60134Y395199D01*
X-60060Y395310D01*
X-59972Y395410D01*
X-59872Y395498D01*
X-59762Y395572D01*
X-59642Y395631D01*
X-59516Y395674D01*
X-59385Y395700D01*
X-59253Y395708D01*
X-52252D01*
X-52120Y395700D01*
X-51989Y395674D01*
X-51863Y395631D01*
X-51743Y395572D01*
X-51633Y395498D01*
X-51533Y395410D01*
X-51196Y395073D01*
X-51193Y395080D01*
X-51134Y395199D01*
X-51060Y395310D01*
X-50972Y395410D01*
X-50872Y395498D01*
X-50762Y395572D01*
X-50642Y395631D01*
X-50516Y395674D01*
X-50385Y395700D01*
X-50252Y395708D01*
X-36253D01*
X-36120Y395700D01*
D02*
G37*
G36*
X179653Y494269D02*
X179783Y494244D01*
X179910Y494201D01*
X180029Y494142D01*
X180140Y494068D01*
X180240Y493980D01*
X180328Y493880D01*
X180402Y493769D01*
X180461Y493650D01*
X180503Y493523D01*
X180529Y493393D01*
X180538Y493260D01*
Y479260D01*
X180529Y479127D01*
X180503Y478997D01*
X180461Y478870D01*
X180402Y478751D01*
X180328Y478640D01*
X180240Y478540D01*
X180140Y478452D01*
X180029Y478378D01*
X179910Y478319D01*
X179903Y478317D01*
X180240Y477980D01*
X180328Y477880D01*
X180402Y477769D01*
X180461Y477650D01*
X180503Y477523D01*
X180529Y477393D01*
X180538Y477260D01*
Y470260D01*
X180529Y470127D01*
X180503Y469996D01*
X180461Y469870D01*
X180402Y469751D01*
X180328Y469640D01*
X180240Y469540D01*
X180140Y469452D01*
X180029Y469378D01*
X179910Y469319D01*
X179783Y469277D01*
X179653Y469250D01*
X179520Y469242D01*
X165520D01*
X165387Y469250D01*
X165256Y469277D01*
X165130Y469319D01*
X165011Y469378D01*
X164900Y469452D01*
X164800Y469540D01*
X164712Y469640D01*
X164638Y469751D01*
X164579Y469870D01*
X164536Y469996D01*
X164510Y470127D01*
X164502Y470260D01*
Y477260D01*
X164510Y477393D01*
X164536Y477523D01*
X164579Y477650D01*
X164638Y477769D01*
X164712Y477880D01*
X164800Y477980D01*
X165137Y478317D01*
X165130Y478319D01*
X165011Y478378D01*
X164900Y478452D01*
X164800Y478540D01*
X164712Y478640D01*
X164638Y478751D01*
X164579Y478870D01*
X164536Y478997D01*
X164510Y479127D01*
X164502Y479260D01*
Y493260D01*
X164510Y493393D01*
X164536Y493523D01*
X164579Y493650D01*
X164638Y493769D01*
X164712Y493880D01*
X164800Y493980D01*
X164900Y494068D01*
X165011Y494142D01*
X165130Y494201D01*
X165256Y494244D01*
X165387Y494269D01*
X165520Y494278D01*
X179520D01*
X179653Y494269D01*
D02*
G37*
D24*
X343077Y295908D02*
D03*
D41*
X-74260Y470170D02*
D03*
X-119260Y463670D02*
D03*
Y457170D02*
D03*
Y450670D02*
D03*
X-74260D02*
D03*
Y457170D02*
D03*
Y463670D02*
D03*
D42*
X-119260Y470170D02*
D03*
D58*
X-406682Y-160020D02*
D03*
X-311940D02*
D03*
Y-185420D02*
D03*
Y-223520D02*
D03*
X-406682Y-248920D02*
D03*
X-311940Y-210820D02*
D03*
X-406682Y-223520D02*
D03*
Y-185420D02*
D03*
Y-172720D02*
D03*
Y-236220D02*
D03*
X-311940Y-172720D02*
D03*
Y-198120D02*
D03*
Y-236220D02*
D03*
Y-248920D02*
D03*
X305060Y250320D02*
D03*
Y237620D02*
D03*
Y224920D02*
D03*
Y212220D02*
D03*
Y199520D02*
D03*
Y186820D02*
D03*
Y174120D02*
D03*
Y161420D02*
D03*
X399802Y250320D02*
D03*
Y237620D02*
D03*
Y224920D02*
D03*
Y186820D02*
D03*
Y174120D02*
D03*
Y161420D02*
D03*
D60*
X-264430Y-138330D02*
D03*
X126494Y491501D02*
D03*
X255750Y139420D02*
D03*
X445481Y-341034D02*
D03*
X445378Y-307087D02*
D03*
X112132Y476959D02*
D03*
D75*
X48360Y-28280D02*
D03*
D76*
X58380Y-16030D02*
D03*
D77*
X38250D02*
D03*
D78*
X48295Y-3670D02*
D03*
D79*
X65945Y463290D02*
D03*
D80*
X53235Y462460D02*
D03*
D81*
X362077Y295908D02*
D03*
D82*
X352577Y271408D02*
D03*
X474284Y-249190D02*
D03*
X440284D02*
D03*
D83*
X343628Y313477D02*
D03*
X359628D02*
D03*
X-39011Y475720D02*
D03*
X-55011D02*
D03*
X248001Y273420D02*
D03*
X264001D02*
D03*
X248001Y157500D02*
D03*
X264001D02*
D03*
X97289Y118610D02*
D03*
X81289D02*
D03*
X50091Y118560D02*
D03*
X66091D02*
D03*
X18510Y118400D02*
D03*
X34510D02*
D03*
X2691Y118540D02*
D03*
X-13309D02*
D03*
X80800Y149030D02*
D03*
X96800D02*
D03*
X80800Y167430D02*
D03*
X96800D02*
D03*
X96801Y185700D02*
D03*
X80801D02*
D03*
X80800Y211290D02*
D03*
X96800D02*
D03*
X80900Y229330D02*
D03*
X96900D02*
D03*
X58201Y148830D02*
D03*
X42201D02*
D03*
X58450Y211390D02*
D03*
X42450D02*
D03*
X96801Y248010D02*
D03*
X80801D02*
D03*
X-23300Y210160D02*
D03*
X-39300D02*
D03*
X-83308Y245510D02*
D03*
X-67308D02*
D03*
X-66370Y183800D02*
D03*
X-82370D02*
D03*
X-162719Y440490D02*
D03*
X-146719D02*
D03*
X-162719Y458140D02*
D03*
X-146719D02*
D03*
X-162720Y475720D02*
D03*
X-146720D02*
D03*
X-509780Y284580D02*
D03*
X-525780D02*
D03*
X-526120Y268710D02*
D03*
X-510120D02*
D03*
X-509660Y252290D02*
D03*
X-525660D02*
D03*
X-525331Y235890D02*
D03*
X-509331D02*
D03*
X-525341Y219500D02*
D03*
X-509341D02*
D03*
X-525001Y203580D02*
D03*
X-509001D02*
D03*
X-537030Y178140D02*
D03*
X-521030D02*
D03*
X-423531Y178000D02*
D03*
X-407531D02*
D03*
X-254881Y-270430D02*
D03*
X-270881D02*
D03*
X-254771Y-155560D02*
D03*
X-270771D02*
D03*
X321888Y-341650D02*
D03*
X305888D02*
D03*
X275337D02*
D03*
X291337D02*
D03*
X230088D02*
D03*
X214088D02*
D03*
X183723D02*
D03*
X199723D02*
D03*
X169543D02*
D03*
X153543D02*
D03*
X138623D02*
D03*
X122623D02*
D03*
X178933Y-225358D02*
D03*
X162933D02*
D03*
X124833D02*
D03*
X140833D02*
D03*
X260708Y-341650D02*
D03*
X244708D02*
D03*
X465081Y-271239D02*
D03*
X449081D02*
D03*
X-90580Y-239200D02*
D03*
X-74580D02*
D03*
X-90770Y-222070D02*
D03*
X-74770D02*
D03*
X-75000Y-204730D02*
D03*
X-91000D02*
D03*
X-75000Y-188140D02*
D03*
X-91000D02*
D03*
Y-171500D02*
D03*
X-75000D02*
D03*
X-122600Y-204610D02*
D03*
X-138600D02*
D03*
X-122600Y-187810D02*
D03*
X-138600D02*
D03*
Y-170430D02*
D03*
X-122600D02*
D03*
Y-152990D02*
D03*
X-138600D02*
D03*
Y-136250D02*
D03*
X-122600D02*
D03*
Y-119570D02*
D03*
X-138600D02*
D03*
X-122600Y-103110D02*
D03*
X-138600D02*
D03*
X-122600Y-87170D02*
D03*
X-138600D02*
D03*
X82000Y-31100D02*
D03*
X98000D02*
D03*
X98100Y-14032D02*
D03*
X82100D02*
D03*
X98000Y4200D02*
D03*
X82000D02*
D03*
X98000Y21500D02*
D03*
X82000D02*
D03*
X98000Y38821D02*
D03*
X82000D02*
D03*
X98000Y55900D02*
D03*
X82000D02*
D03*
X-87800Y-51200D02*
D03*
X-103800D02*
D03*
X-87800Y-32200D02*
D03*
X-103800D02*
D03*
Y-13170D02*
D03*
X-87800D02*
D03*
X-103800Y5430D02*
D03*
X-87800D02*
D03*
X-275480Y0D02*
D03*
X-259480D02*
D03*
X130931Y390620D02*
D03*
X114931D02*
D03*
X130930Y423560D02*
D03*
X114930D02*
D03*
X130931Y407000D02*
D03*
X114931D02*
D03*
X114930Y439860D02*
D03*
X130930D02*
D03*
X4479Y406910D02*
D03*
X-11521D02*
D03*
X4479Y390110D02*
D03*
X-11521D02*
D03*
X-11520Y440198D02*
D03*
X4480D02*
D03*
X-11520Y423538D02*
D03*
X4480D02*
D03*
X37198Y457689D02*
D03*
X21198D02*
D03*
X-39010Y458140D02*
D03*
X-55010D02*
D03*
X-412001Y281300D02*
D03*
X-428001D02*
D03*
X19550Y258820D02*
D03*
X3550D02*
D03*
X112010Y-189840D02*
D03*
X128010D02*
D03*
X128000Y-121940D02*
D03*
X112000D02*
D03*
X-23300Y147300D02*
D03*
X-39300D02*
D03*
X252600Y1400D02*
D03*
X268600D02*
D03*
X-55010Y440490D02*
D03*
X-39010D02*
D03*
X112000Y-138850D02*
D03*
X128000D02*
D03*
Y-155950D02*
D03*
X112000D02*
D03*
X-381481Y312720D02*
D03*
X-397481D02*
D03*
X-194800Y542340D02*
D03*
X-210800D02*
D03*
X-381341Y328610D02*
D03*
X-397341D02*
D03*
X3221Y195180D02*
D03*
X277910Y424940D02*
D03*
X19221Y195180D02*
D03*
X-194800Y589094D02*
D03*
X-210800D02*
D03*
X127930Y-172643D02*
D03*
X111930D02*
D03*
X3840Y242560D02*
D03*
X19840D02*
D03*
X2810Y179080D02*
D03*
X18810D02*
D03*
X-210800Y565240D02*
D03*
X-194800D02*
D03*
X-11520Y457890D02*
D03*
X4480D02*
D03*
X-11520Y475470D02*
D03*
X4480D02*
D03*
X261910Y424940D02*
D03*
D84*
X491220Y-313344D02*
D03*
Y-279343D02*
D03*
X-207000Y-30480D02*
D03*
Y3520D02*
D03*
X-239930Y-128830D02*
D03*
X150994Y501001D02*
D03*
X231250Y129920D02*
D03*
X200000Y31880D02*
D03*
Y-2120D02*
D03*
X469981Y-331534D02*
D03*
X469878Y-297587D02*
D03*
X87632Y467459D02*
D03*
D85*
X-155950Y565780D02*
D03*
X-171950D02*
D03*
X-155950Y542750D02*
D03*
X-171950D02*
D03*
X-155950Y589122D02*
D03*
X-171950D02*
D03*
D86*
X169950Y-484640D02*
D03*
D87*
X111950D02*
D03*
Y-461640D02*
D03*
Y-507640D02*
D03*
D88*
X-576300Y-122790D02*
D03*
X-486300Y146410D02*
D03*
X-516300D02*
D03*
X-426300D02*
D03*
X-456300D02*
D03*
X-546300Y-122790D02*
D03*
X-516300D02*
D03*
X-486300D02*
D03*
X-456300D02*
D03*
X-426300D02*
D03*
X-546300Y146410D02*
D03*
X-576300D02*
D03*
X577080Y-135630D02*
D03*
X547080D02*
D03*
X517080D02*
D03*
X487080D02*
D03*
X457080D02*
D03*
X427080D02*
D03*
X547080Y133570D02*
D03*
X577080D02*
D03*
X517080D02*
D03*
X487080D02*
D03*
X457080D02*
D03*
X427080D02*
D03*
D89*
X-358620Y363340D02*
D03*
Y349340D02*
D03*
D90*
X-10740Y-445514D02*
D03*
X43760Y-445515D02*
D03*
X-91954Y-447041D02*
D03*
X-146454Y-447039D02*
D03*
D91*
X-337590Y259300D02*
D03*
X-237590D02*
D03*
D92*
X-332970Y373170D02*
D03*
Y360470D02*
D03*
Y347770D02*
D03*
Y335070D02*
D03*
X-435610Y350520D02*
D03*
Y363220D02*
D03*
Y375920D02*
D03*
Y388620D02*
D03*
D93*
X-278320Y373170D02*
D03*
Y360470D02*
D03*
Y347770D02*
D03*
Y335070D02*
D03*
X-490260Y350520D02*
D03*
Y363220D02*
D03*
Y375920D02*
D03*
Y388620D02*
D03*
D94*
X-298680Y354120D02*
D03*
X-469900Y369570D02*
D03*
D95*
X-365000Y205250D02*
D03*
Y211750D02*
D03*
Y218250D02*
D03*
Y224750D02*
D03*
X-395000Y224750D02*
D03*
Y205250D02*
D03*
Y211750D02*
D03*
Y218250D02*
D03*
Y292840D02*
D03*
Y273340D02*
D03*
Y279840D02*
D03*
Y286340D02*
D03*
X-365000Y273340D02*
D03*
Y292840D02*
D03*
Y286340D02*
D03*
Y279840D02*
D03*
D96*
X-384330Y215000D02*
D03*
X-375670Y283090D02*
D03*
D97*
X122628Y538641D02*
D03*
Y588641D02*
D03*
X65390Y538900D02*
D03*
Y588900D02*
D03*
D98*
X-11740Y-380521D02*
D03*
Y-367821D02*
D03*
X44760D02*
D03*
Y-380521D02*
D03*
Y-393220D02*
D03*
Y-355121D02*
D03*
X-11740Y-393220D02*
D03*
Y-355121D02*
D03*
X-90954Y-394746D02*
D03*
Y-356646D02*
D03*
X-147454Y-394746D02*
D03*
Y-356646D02*
D03*
Y-382046D02*
D03*
X-90954D02*
D03*
Y-369346D02*
D03*
X-147454D02*
D03*
X29956Y423000D02*
D03*
Y410300D02*
D03*
Y397600D02*
D03*
X86456Y423000D02*
D03*
Y410300D02*
D03*
Y435700D02*
D03*
Y397600D02*
D03*
X29956Y435700D02*
D03*
D99*
X16510Y-374170D02*
D03*
X-119204Y-375696D02*
D03*
D100*
X374290Y-278030D02*
D03*
Y-341530D02*
D03*
X386990D02*
D03*
Y-278030D02*
D03*
X418510D02*
D03*
Y-341530D02*
D03*
X405810D02*
D03*
Y-278030D02*
D03*
D101*
X-64688Y-16000D02*
D03*
Y-6000D02*
D03*
X-35288Y-21000D02*
D03*
Y-16000D02*
D03*
Y-11000D02*
D03*
Y-6000D02*
D03*
X-64688Y-11000D02*
D03*
Y-21000D02*
D03*
Y-26000D02*
D03*
X-35288D02*
D03*
D102*
X-54988Y-1300D02*
D03*
X-49988D02*
D03*
X-44988D02*
D03*
Y-30700D02*
D03*
X-54988D02*
D03*
X-49988D02*
D03*
D103*
X-42163Y-136241D02*
D03*
Y-151241D02*
D03*
Y-156241D02*
D03*
Y-161241D02*
D03*
Y-166241D02*
D03*
Y-171241D02*
D03*
Y-176241D02*
D03*
Y-181241D02*
D03*
Y-186241D02*
D03*
Y-191241D02*
D03*
Y-196241D02*
D03*
Y-201241D02*
D03*
Y-206241D02*
D03*
X71237Y-211241D02*
D03*
Y-206241D02*
D03*
Y-196241D02*
D03*
Y-191241D02*
D03*
Y-186241D02*
D03*
Y-181241D02*
D03*
Y-166241D02*
D03*
Y-161241D02*
D03*
Y-156241D02*
D03*
Y-151241D02*
D03*
Y-146241D02*
D03*
Y-171241D02*
D03*
Y-201241D02*
D03*
Y-176241D02*
D03*
X-42163Y-141241D02*
D03*
X71237D02*
D03*
X-42163Y-211241D02*
D03*
Y-146241D02*
D03*
X71237Y-136241D02*
D03*
D104*
X47037Y-117041D02*
D03*
X42037D02*
D03*
X37037D02*
D03*
X32037D02*
D03*
X27037D02*
D03*
X22037D02*
D03*
X17037D02*
D03*
X12037D02*
D03*
X7037D02*
D03*
X2037D02*
D03*
X-12963D02*
D03*
X-17963D02*
D03*
X-22963D02*
D03*
Y-230441D02*
D03*
X-17963D02*
D03*
X-12963D02*
D03*
X-7963D02*
D03*
X-2963D02*
D03*
X2037D02*
D03*
X7037D02*
D03*
X12037D02*
D03*
X17037D02*
D03*
X22037D02*
D03*
X27037D02*
D03*
X32037D02*
D03*
X37037D02*
D03*
X42037D02*
D03*
X47037D02*
D03*
X-2963Y-117041D02*
D03*
X-7963D02*
D03*
X52037Y-230441D02*
D03*
D105*
Y-117041D02*
D03*
D106*
X59750Y183570D02*
D03*
Y170570D02*
D03*
X59850Y232870D02*
D03*
Y245870D02*
D03*
D107*
X39750Y177070D02*
D03*
Y170570D02*
D03*
Y183570D02*
D03*
X39850Y245870D02*
D03*
Y232870D02*
D03*
Y239370D02*
D03*
D108*
X-466090Y259110D02*
D03*
D109*
X-483840Y249110D02*
D03*
Y254110D02*
D03*
X-448340Y269110D02*
D03*
Y264110D02*
D03*
Y259110D02*
D03*
Y254110D02*
D03*
Y249110D02*
D03*
X-483840Y259110D02*
D03*
Y264110D02*
D03*
Y269110D02*
D03*
D110*
X-456090Y241360D02*
D03*
X-461090D02*
D03*
X-466090D02*
D03*
X-471090D02*
D03*
X-476090D02*
D03*
Y276860D02*
D03*
X-471090D02*
D03*
X-466090D02*
D03*
X-461090D02*
D03*
X-456090D02*
D03*
D111*
X65926Y464845D02*
D03*
Y459845D02*
D03*
X53226Y464845D02*
D03*
Y459845D02*
D03*
D112*
X65926Y454845D02*
D03*
X53226Y469845D02*
D03*
X65926D02*
D03*
X53226Y454845D02*
D03*
D113*
X59576Y470945D02*
D03*
Y453745D02*
D03*
D114*
X41488Y-84000D02*
D03*
X63488Y-68000D02*
D03*
X41488D02*
D03*
X63488Y-84000D02*
D03*
D115*
X-383508Y-15685D02*
D03*
X-362295Y5528D02*
D03*
X-325462Y2985D02*
D03*
X-346675Y-18228D02*
D03*
X318582Y-1585D02*
D03*
X339795Y19628D02*
D03*
X355415Y-4128D02*
D03*
X376628Y17085D02*
D03*
D116*
X-355620Y-52130D02*
D03*
Y-123250D02*
D03*
X348740Y124650D02*
D03*
Y53530D02*
D03*
D117*
X-560060Y-161120D02*
D03*
X-514360Y-161120D02*
D03*
X551310Y168920D02*
D03*
X505610Y168920D02*
D03*
X-135270Y276470D02*
D03*
X-180970Y276470D02*
D03*
X-195090Y313150D02*
D03*
X-149390Y313150D02*
D03*
X-290330Y0D02*
D03*
X-244630Y0D02*
D03*
X237750Y1400D02*
D03*
X283450Y1400D02*
D03*
D118*
X-537210Y-235120D02*
D03*
X528460Y242920D02*
D03*
X-158120Y202470D02*
D03*
X-172240Y387150D02*
D03*
X-267480Y-74000D02*
D03*
X260600Y75400D02*
D03*
D119*
X137533Y-251650D02*
D03*
X124833Y-315650D02*
D03*
X137533D02*
D03*
X150233D02*
D03*
X162933D02*
D03*
X175633D02*
D03*
X188333D02*
D03*
X201033D02*
D03*
X213733D02*
D03*
X124833Y-251650D02*
D03*
X150233D02*
D03*
X162933D02*
D03*
X175633D02*
D03*
X188333D02*
D03*
X201033D02*
D03*
X213733D02*
D03*
D120*
X-264430Y-119330D02*
D03*
X126494Y510501D02*
D03*
X255750Y120420D02*
D03*
X445481Y-322034D02*
D03*
X445378Y-288087D02*
D03*
X112132Y457959D02*
D03*
D121*
X-381240Y378462D02*
D03*
X-411240D02*
D03*
Y353060D02*
D03*
X-381240D02*
D03*
D122*
X-147510Y-551420D02*
D03*
Y-509420D02*
D03*
X-7796Y-509604D02*
D03*
Y-551604D02*
D03*
D123*
X19930Y519820D02*
D03*
X-7070D02*
D03*
X-6760Y496570D02*
D03*
X20240D02*
D03*
D124*
X295013Y-311900D02*
D03*
X333113Y-255400D02*
D03*
X295013D02*
D03*
X307713Y-311900D02*
D03*
X320413D02*
D03*
X333113D02*
D03*
X307713Y-255400D02*
D03*
X320413D02*
D03*
X257673D02*
D03*
X244973D02*
D03*
X270373Y-311900D02*
D03*
X257673D02*
D03*
X244973D02*
D03*
X232273Y-255400D02*
D03*
X270373D02*
D03*
X232273Y-311900D02*
D03*
D125*
X273210Y-45970D02*
D03*
X214790D02*
D03*
X57045Y-313764D02*
D03*
X-1375D02*
D03*
X-141420Y-313580D02*
D03*
X-83000D02*
D03*
X375210Y-45970D02*
D03*
X316790D02*
D03*
X214790Y-102910D02*
D03*
X273210D02*
D03*
X375210Y-103120D02*
D03*
X316790D02*
D03*
X375210Y-160270D02*
D03*
X316790D02*
D03*
X214790D02*
D03*
X273210D02*
D03*
X-215790Y45720D02*
D03*
X-274210D02*
D03*
X-375210Y102870D02*
D03*
X-316790D02*
D03*
X-215790Y160020D02*
D03*
X-274210D02*
D03*
X-316790D02*
D03*
X-375210D02*
D03*
X-215790Y102870D02*
D03*
X-274210D02*
D03*
X-316790Y45720D02*
D03*
X-375210D02*
D03*
D126*
X50844Y-3400D02*
D03*
X40844D02*
D03*
X55844D02*
D03*
X45844D02*
D03*
X55844Y-28500D02*
D03*
X45844D02*
D03*
X50844D02*
D03*
X40844D02*
D03*
D127*
X58500Y-16000D02*
D03*
X38300Y-11000D02*
D03*
Y-16000D02*
D03*
Y-21000D02*
D03*
X58500D02*
D03*
Y-11000D02*
D03*
D128*
X-66380Y147799D02*
D03*
Y163799D02*
D03*
X-414690Y218959D02*
D03*
Y202959D02*
D03*
X435230Y168040D02*
D03*
Y184040D02*
D03*
X455670Y184040D02*
D03*
Y168040D02*
D03*
X455990Y243711D02*
D03*
Y259711D02*
D03*
X435550Y243711D02*
D03*
Y259711D02*
D03*
X435730Y204001D02*
D03*
Y220001D02*
D03*
X455900Y204001D02*
D03*
Y220001D02*
D03*
X242000Y256940D02*
D03*
Y240940D02*
D03*
X269440Y256939D02*
D03*
Y240939D02*
D03*
Y207941D02*
D03*
Y223941D02*
D03*
X242000Y207940D02*
D03*
Y223940D02*
D03*
Y174540D02*
D03*
Y190540D02*
D03*
X269440Y174541D02*
D03*
Y190541D02*
D03*
X278820Y137059D02*
D03*
Y121059D02*
D03*
X-82610Y163800D02*
D03*
Y147800D02*
D03*
X-67060Y210339D02*
D03*
Y226339D02*
D03*
X-83710Y210640D02*
D03*
Y226640D02*
D03*
X-91460Y512229D02*
D03*
Y496229D02*
D03*
X-108280Y512230D02*
D03*
Y496230D02*
D03*
X-125460Y496231D02*
D03*
Y512231D02*
D03*
X-446165Y202796D02*
D03*
Y218796D02*
D03*
X-430510Y202700D02*
D03*
Y218700D02*
D03*
X-461687Y202797D02*
D03*
Y218797D02*
D03*
X-477189Y202841D02*
D03*
Y218841D02*
D03*
X-492760Y202820D02*
D03*
Y218820D02*
D03*
X-441760Y-195311D02*
D03*
Y-211311D02*
D03*
X-466390Y-195311D02*
D03*
Y-211311D02*
D03*
X-467140Y-249061D02*
D03*
Y-233061D02*
D03*
X-443140Y-249061D02*
D03*
Y-233061D02*
D03*
X-441710Y-173400D02*
D03*
Y-157400D02*
D03*
X-465710Y-157400D02*
D03*
Y-173400D02*
D03*
X-248070Y-239350D02*
D03*
Y-255350D02*
D03*
X-277070Y-255351D02*
D03*
Y-239351D02*
D03*
X-248070Y-205350D02*
D03*
Y-221350D02*
D03*
X-277070Y-221351D02*
D03*
Y-205351D02*
D03*
X-248070Y-171350D02*
D03*
Y-187350D02*
D03*
X-277070Y-187351D02*
D03*
Y-171351D02*
D03*
X-286050Y-136929D02*
D03*
Y-120929D02*
D03*
X104300Y-269741D02*
D03*
Y-285741D02*
D03*
X104300Y-305978D02*
D03*
Y-321978D02*
D03*
X333113Y-215001D02*
D03*
Y-231001D02*
D03*
X314063Y-231000D02*
D03*
Y-215000D02*
D03*
X232273Y-231000D02*
D03*
Y-215000D02*
D03*
X-205298Y-512440D02*
D03*
Y-496440D02*
D03*
X-229840Y-512327D02*
D03*
Y-496328D02*
D03*
X-253348Y-512540D02*
D03*
Y-496540D02*
D03*
X113670Y-549570D02*
D03*
Y-533570D02*
D03*
X96170D02*
D03*
Y-549570D02*
D03*
X78762D02*
D03*
Y-533570D02*
D03*
X139690D02*
D03*
Y-549570D02*
D03*
X156710D02*
D03*
Y-533570D02*
D03*
X488769Y-332659D02*
D03*
Y-348659D02*
D03*
X421330Y-378000D02*
D03*
Y-362000D02*
D03*
X405750D02*
D03*
Y-378000D02*
D03*
X387951D02*
D03*
Y-362000D02*
D03*
X372060D02*
D03*
Y-378000D02*
D03*
X412600Y-240310D02*
D03*
Y-256310D02*
D03*
X381270Y-240260D02*
D03*
Y-256260D02*
D03*
X502750Y-169999D02*
D03*
Y-185999D02*
D03*
X442730Y-169999D02*
D03*
Y-185999D02*
D03*
X51303Y-251791D02*
D03*
Y-267791D02*
D03*
X67889D02*
D03*
Y-251791D02*
D03*
X83750Y-83999D02*
D03*
Y-67999D02*
D03*
X21244Y-68001D02*
D03*
Y-84001D02*
D03*
X4133Y-68000D02*
D03*
Y-84000D02*
D03*
X-13110Y-67999D02*
D03*
Y-83999D02*
D03*
X-30600Y-68000D02*
D03*
Y-84000D02*
D03*
X-47900Y-68000D02*
D03*
Y-84000D02*
D03*
X3873Y-2000D02*
D03*
Y-18000D02*
D03*
X20480Y-18130D02*
D03*
Y-2130D02*
D03*
X-12893Y-2000D02*
D03*
Y-18000D02*
D03*
X57956Y495331D02*
D03*
Y511331D02*
D03*
X75726Y511330D02*
D03*
Y495330D02*
D03*
X40184Y511330D02*
D03*
Y495330D02*
D03*
X128676Y458600D02*
D03*
Y474600D02*
D03*
X146524Y474580D02*
D03*
Y458580D02*
D03*
X92706Y511330D02*
D03*
Y495330D02*
D03*
X110366Y511330D02*
D03*
Y495330D02*
D03*
X-66760Y-440529D02*
D03*
Y-456529D02*
D03*
X-66398Y-487680D02*
D03*
Y-471680D02*
D03*
X-35380Y-296001D02*
D03*
Y-312001D02*
D03*
X-488650Y319701D02*
D03*
Y303701D02*
D03*
X-464660Y304001D02*
D03*
Y320001D02*
D03*
X-448370Y320000D02*
D03*
Y304000D02*
D03*
X3391Y226460D02*
D03*
Y210460D02*
D03*
X20450Y226630D02*
D03*
Y210630D02*
D03*
X-74430Y496229D02*
D03*
Y512229D02*
D03*
X295013Y-215000D02*
D03*
Y-231000D02*
D03*
X251323Y-215000D02*
D03*
Y-231000D02*
D03*
X270373Y-231001D02*
D03*
Y-215001D02*
D03*
X-358710Y318020D02*
D03*
Y334020D02*
D03*
X-171099Y-299440D02*
D03*
Y-333823D02*
D03*
Y-415700D02*
D03*
X-67410Y-348060D02*
D03*
X-35384Y-382681D02*
D03*
X-35483Y-401116D02*
D03*
X19980Y146680D02*
D03*
X-35483Y-417116D02*
D03*
X68404Y-462785D02*
D03*
X-35384Y-332298D02*
D03*
X68404Y-348234D02*
D03*
X-171099Y-399700D02*
D03*
Y-315440D02*
D03*
Y-384207D02*
D03*
X-66990Y-409951D02*
D03*
Y-425951D02*
D03*
X-171099Y-368207D02*
D03*
X-67410Y-364060D02*
D03*
X-171099Y-349823D02*
D03*
X68404Y-397085D02*
D03*
Y-381085D02*
D03*
X-35384Y-366681D02*
D03*
X68404Y-364235D02*
D03*
X68404Y-413935D02*
D03*
Y-429935D02*
D03*
X-67310Y-395220D02*
D03*
Y-379220D02*
D03*
X68404Y-446785D02*
D03*
X-35384Y-348298D02*
D03*
X2671Y146910D02*
D03*
Y162910D02*
D03*
X19980Y162680D02*
D03*
D129*
X-18450Y183850D02*
D03*
X-46390Y174452D02*
D03*
X-18450Y164800D02*
D03*
X-46390D02*
D03*
Y226860D02*
D03*
X-18450D02*
D03*
X-46390Y236512D02*
D03*
X-18450Y245910D02*
D03*
D130*
X-46390Y183850D02*
D03*
Y245910D02*
D03*
D131*
X-425840Y326190D02*
D03*
Y299190D02*
D03*
D132*
X644832Y-144528D02*
D03*
X594543Y-194817D02*
D03*
X-657362Y144138D02*
D03*
X-607073Y194427D02*
D03*
D133*
X200002Y135040D02*
D03*
Y105040D02*
D03*
X199998Y83450D02*
D03*
Y53450D02*
D03*
X-207002Y-107530D02*
D03*
Y-137530D02*
D03*
X-206998Y-85940D02*
D03*
Y-55940D02*
D03*
X-246652Y335610D02*
D03*
Y365610D02*
D03*
D134*
X-101860Y-564580D02*
D03*
Y-506160D02*
D03*
X39194Y-505205D02*
D03*
Y-563624D02*
D03*
D135*
X365400Y427300D02*
D03*
Y452700D02*
D03*
X340000D02*
D03*
Y427300D02*
D03*
X314600D02*
D03*
X272700Y503500D02*
D03*
Y478100D02*
D03*
X247300D02*
D03*
Y503500D02*
D03*
X272700Y452700D02*
D03*
X-247300Y478100D02*
D03*
Y503500D02*
D03*
Y452700D02*
D03*
X-272700Y503500D02*
D03*
Y478100D02*
D03*
X-7Y46990D02*
D03*
Y21590D02*
D03*
X50793Y46990D02*
D03*
X25393D02*
D03*
X-25407D02*
D03*
X-50807D02*
D03*
Y21590D02*
D03*
X-25407D02*
D03*
X25393D02*
D03*
X220596Y-504110D02*
D03*
Y-478710D02*
D03*
X245996D02*
D03*
X220596Y-453310D02*
D03*
X245996Y-504110D02*
D03*
X-25403Y547300D02*
D03*
X25397D02*
D03*
X-3D02*
D03*
X25397Y572700D02*
D03*
X-3D02*
D03*
X-365400Y427300D02*
D03*
X-340000Y452700D02*
D03*
Y427300D02*
D03*
X-314600Y452700D02*
D03*
Y427300D02*
D03*
D136*
X314600Y452700D02*
D03*
X50793Y21590D02*
D03*
X-25403Y572700D02*
D03*
X-365400Y452700D02*
D03*
D137*
X247300D02*
D03*
X-272700D02*
D03*
X245996Y-453310D02*
D03*
D138*
X-252730Y-307340D02*
D03*
X-227330D02*
D03*
X-455930Y-459740D02*
D03*
X-405130D02*
D03*
X-252730D02*
D03*
X-227330D02*
D03*
X-455930Y-307340D02*
D03*
D139*
X298960Y-477700D02*
D03*
X363230D02*
D03*
X184660Y384750D02*
D03*
X-163000Y-177100D02*
D03*
Y-42700D02*
D03*
X158750Y-178100D02*
D03*
X158370Y-44200D02*
D03*
D140*
X298960Y-452300D02*
D03*
X363230D02*
D03*
X184660Y359350D02*
D03*
X-163000Y-151700D02*
D03*
Y-126300D02*
D03*
Y-100900D02*
D03*
Y8100D02*
D03*
Y33500D02*
D03*
Y-17300D02*
D03*
X158750Y-101900D02*
D03*
Y-152700D02*
D03*
Y-127300D02*
D03*
X158370Y-18800D02*
D03*
Y32000D02*
D03*
Y6600D02*
D03*
D141*
X-164400Y-246000D02*
D03*
X-139000D02*
D03*
X316247Y-382000D02*
D03*
X265447D02*
D03*
X290847D02*
D03*
X155957D02*
D03*
X130557D02*
D03*
X181357D02*
D03*
D142*
X-113600Y-246000D02*
D03*
X240047Y-382000D02*
D03*
X105157D02*
D03*
D143*
X81560Y356240D02*
D03*
X-9640Y356470D02*
D03*
X-99450Y356240D02*
D03*
D144*
X121160D02*
D03*
X29960Y356470D02*
D03*
X-59850Y356240D02*
D03*
D145*
X84520Y87440D02*
D03*
D146*
X-95479D02*
D03*
X-75479D02*
D03*
X-55479D02*
D03*
X-35480D02*
D03*
X-15480D02*
D03*
X4520D02*
D03*
X24520D02*
D03*
X44520D02*
D03*
X64520D02*
D03*
X84522Y307438D02*
D03*
X64522D02*
D03*
X44522D02*
D03*
X24522D02*
D03*
X4522D02*
D03*
X-15478D02*
D03*
X-35478D02*
D03*
X-55478D02*
D03*
X-75478D02*
D03*
X-95478D02*
D03*
D147*
X878992Y235525D02*
D03*
X-235525Y878992D02*
D03*
X627852Y168232D02*
D03*
X168232Y627852D02*
D03*
X643467Y643467D02*
D03*
X235525Y878992D02*
D03*
Y-878992D02*
D03*
X643467Y-643467D02*
D03*
X459619Y-459619D02*
D03*
X878992Y-235525D02*
D03*
X-627852Y-168232D02*
D03*
X-643467Y-643467D02*
D03*
X-235525Y-878992D02*
D03*
X-168232Y-627852D02*
D03*
X-878992Y235525D02*
D03*
X-643467Y643467D02*
D03*
X-459619Y459619D02*
D03*
X-878992Y-235525D02*
D03*
D148*
X878992Y258385D02*
D03*
X856133Y235525D02*
D03*
X878992Y212665D02*
D03*
X901852Y235525D02*
D03*
X895157Y251690D02*
D03*
X862828D02*
D03*
Y219361D02*
D03*
X895157D02*
D03*
X-235525Y901852D02*
D03*
X-258385Y878992D02*
D03*
X-235525Y856133D02*
D03*
X-212665Y878992D02*
D03*
X-219361Y895157D02*
D03*
X-251690D02*
D03*
Y862828D02*
D03*
X-219361D02*
D03*
X627852Y191092D02*
D03*
X604992Y168232D02*
D03*
X627852Y145372D02*
D03*
X650712Y168232D02*
D03*
X644016Y184397D02*
D03*
X611687Y184397D02*
D03*
Y152068D02*
D03*
X644016Y152068D02*
D03*
X168232Y650712D02*
D03*
X145372Y627852D02*
D03*
X168232Y604992D02*
D03*
X191092Y627852D02*
D03*
X184397Y644016D02*
D03*
X152068Y644016D02*
D03*
X152068Y611687D02*
D03*
X184397Y611687D02*
D03*
X643467Y666327D02*
D03*
X620607Y643467D02*
D03*
X643467Y620607D02*
D03*
X666327Y643467D02*
D03*
X659632Y659632D02*
D03*
X627303D02*
D03*
Y627303D02*
D03*
X659632Y627303D02*
D03*
X235525Y901852D02*
D03*
X212665Y878992D02*
D03*
X235525Y856133D02*
D03*
X258385Y878992D02*
D03*
X251690Y895157D02*
D03*
X219361D02*
D03*
Y862828D02*
D03*
X251690D02*
D03*
X235525Y-856133D02*
D03*
X212665Y-878992D02*
D03*
X235525Y-901852D02*
D03*
X258385Y-878992D02*
D03*
X251690Y-862828D02*
D03*
X219361D02*
D03*
X219361Y-895157D02*
D03*
X251690D02*
D03*
X659632Y-659632D02*
D03*
X627303Y-659632D02*
D03*
Y-627303D02*
D03*
X659632Y-627303D02*
D03*
X666327Y-643467D02*
D03*
X643467Y-666327D02*
D03*
X620607Y-643467D02*
D03*
X643467Y-620607D02*
D03*
X459620Y-436759D02*
D03*
X436760Y-459619D02*
D03*
X459620Y-482479D02*
D03*
X482479Y-459619D02*
D03*
X475784Y-443455D02*
D03*
X443455Y-443455D02*
D03*
X443455Y-475784D02*
D03*
X475784Y-475784D02*
D03*
X878992Y-212665D02*
D03*
X856133Y-235525D02*
D03*
X878992Y-258385D02*
D03*
X901852Y-235525D02*
D03*
X895157Y-219361D02*
D03*
X862828D02*
D03*
Y-251690D02*
D03*
X895157D02*
D03*
X-627852Y-145372D02*
D03*
X-650712Y-168232D02*
D03*
X-627852Y-191092D02*
D03*
X-604992Y-168232D02*
D03*
X-611687Y-152068D02*
D03*
X-644016D02*
D03*
Y-184397D02*
D03*
X-611687D02*
D03*
X-627303Y-659632D02*
D03*
X-659632Y-659632D02*
D03*
X-659632Y-627303D02*
D03*
X-627303D02*
D03*
X-620607Y-643467D02*
D03*
X-643467Y-666327D02*
D03*
X-666327Y-643467D02*
D03*
X-643467Y-620607D02*
D03*
X-219361Y-895157D02*
D03*
X-251690Y-895157D02*
D03*
Y-862828D02*
D03*
X-219361Y-862828D02*
D03*
X-212665Y-878992D02*
D03*
X-235525Y-901852D02*
D03*
X-258385Y-878992D02*
D03*
X-235525Y-856133D02*
D03*
X-168232Y-604992D02*
D03*
X-191092Y-627852D02*
D03*
X-168232Y-650712D02*
D03*
X-145372Y-627852D02*
D03*
X-152068Y-611687D02*
D03*
X-184397D02*
D03*
Y-644016D02*
D03*
X-152068D02*
D03*
X-878992Y258385D02*
D03*
X-901852Y235525D02*
D03*
X-878992Y212665D02*
D03*
X-856133Y235525D02*
D03*
X-862828Y251690D02*
D03*
X-895157Y251690D02*
D03*
X-895157Y219361D02*
D03*
X-862828D02*
D03*
X-627303Y627303D02*
D03*
X-659632Y627303D02*
D03*
Y659632D02*
D03*
X-627303Y659632D02*
D03*
X-620607Y643467D02*
D03*
X-643467Y620607D02*
D03*
X-666327Y643467D02*
D03*
X-643467Y666327D02*
D03*
X-443455Y443455D02*
D03*
X-475784Y443455D02*
D03*
X-475784Y475784D02*
D03*
X-443455Y475784D02*
D03*
X-436759Y459619D02*
D03*
X-459619Y436759D02*
D03*
X-482479Y459619D02*
D03*
X-459619Y482480D02*
D03*
X-862828Y-251690D02*
D03*
X-895157D02*
D03*
X-895157Y-219361D02*
D03*
X-862828Y-219361D02*
D03*
X-856133Y-235525D02*
D03*
X-878992Y-258385D02*
D03*
X-901852Y-235525D02*
D03*
X-878992Y-212665D02*
D03*
D149*
X-420000Y727461D02*
D03*
X727461Y420000D02*
D03*
X840000Y0D02*
D03*
X0Y840000D02*
D03*
X420000Y727461D02*
D03*
Y-727461D02*
D03*
X727461Y-420000D02*
D03*
X0Y-840000D02*
D03*
X-840000Y0D02*
D03*
X-727461Y-420000D02*
D03*
X-420000Y-727461D02*
D03*
X-727461Y420000D02*
D03*
D150*
X-370000Y640859D02*
D03*
X370000Y-640859D02*
D03*
D151*
X640859Y370000D02*
D03*
X-640859Y-370000D02*
D03*
D152*
X740000Y-0D02*
D03*
X-740000Y0D02*
D03*
D153*
X0Y740000D02*
D03*
X-0Y-740000D02*
D03*
D154*
X370000Y640859D02*
D03*
X-370000Y-640859D02*
D03*
D155*
X640859Y-370000D02*
D03*
X-640859Y370000D02*
D03*
M02*
