G04*
G04 #@! TF.GenerationSoftware,Altium Limited,Altium Designer,24.1.2 (44)*
G04*
G04 Layer_Physical_Order=3*
G04 Layer_Color=39423*
%FSLAX44Y44*%
%MOMM*%
G71*
G04*
G04 #@! TF.SameCoordinates,55DC127D-BC8F-4358-AF77-4F1C1AD15F99*
G04*
G04*
G04 #@! TF.FilePolarity,Positive*
G04*
G01*
G75*
%ADD12C,0.2500*%
%ADD14C,0.4000*%
%ADD22C,0.3000*%
%ADD143R,2.5000X2.5000*%
%ADD144C,2.5000*%
%ADD156C,5.0000*%
%ADD166C,0.5000*%
%ADD167C,1.0000*%
%ADD169C,1.5200*%
%ADD170R,1.5200X1.5200*%
%ADD171R,1.5200X1.5200*%
%ADD172C,2.0000*%
%ADD173R,2.2860X1.9050*%
%ADD174O,2.2860X1.9050*%
%ADD175O,1.9050X2.2860*%
%ADD176R,1.9050X2.2860*%
%ADD177R,1.5000X1.5000*%
%ADD178C,1.5000*%
%ADD179C,6.3500*%
%ADD180C,1.0000*%
%ADD181C,4.0000*%
%ADD182P,5.6569X4X165.0*%
%ADD183P,5.6569X4X75.0*%
%ADD184R,4.0000X4.0000*%
%ADD185R,4.0000X4.0000*%
%ADD186P,5.6569X4X105.0*%
%ADD187P,5.6569X4X375.0*%
%ADD188C,0.8000*%
G36*
X107840Y469980D02*
X98470D01*
Y440382D01*
X96854Y439713D01*
X95307Y438166D01*
X94470Y436144D01*
Y433956D01*
X95307Y431935D01*
X96854Y430387D01*
X98470Y429718D01*
X98470Y340901D01*
X97570Y340005D01*
X62080Y340130D01*
X62080Y409530D01*
X-146920D01*
X-209380Y347070D01*
X-240994Y347070D01*
X-241787Y348985D01*
X-242444Y349643D01*
X-242604Y351017D01*
X-242382Y351239D01*
X-241387Y352234D01*
X-240526Y353726D01*
X-240080Y355389D01*
Y357111D01*
X-240526Y358774D01*
X-241387Y360266D01*
X-242604Y361483D01*
X-244096Y362344D01*
X-245759Y362790D01*
X-247481D01*
X-249144Y362344D01*
X-250636Y361483D01*
X-251853Y360266D01*
X-252714Y358774D01*
X-253160Y357111D01*
Y355389D01*
X-252714Y353726D01*
X-251853Y352234D01*
X-250636Y351017D01*
X-250554Y350969D01*
X-250388Y349710D01*
X-251113Y348985D01*
X-251906Y347070D01*
X-271920Y347070D01*
Y386110D01*
X-210200D01*
X-188100Y408210D01*
Y440740D01*
X-30680D01*
Y439536D01*
X-29843Y437514D01*
X-28296Y435967D01*
X-26274Y435130D01*
X-24086D01*
X-22064Y435967D01*
X-20517Y437514D01*
X-19680Y439536D01*
Y440740D01*
X18783D01*
X19266Y440540D01*
X21454D01*
X21937Y440740D01*
X81040D01*
Y479621D01*
X81226Y480070D01*
Y481360D01*
X89732D01*
X89965Y481127D01*
X91986Y480290D01*
X94174D01*
X96195Y481127D01*
X96428Y481360D01*
X107840D01*
Y469980D01*
D02*
G37*
G36*
X285450Y438320D02*
X234040D01*
Y805440D01*
X285450D01*
Y438320D01*
D02*
G37*
G36*
X-234380Y437920D02*
X-285790D01*
Y805040D01*
X-234380D01*
Y437920D01*
D02*
G37*
G36*
X9090Y336000D02*
X-32430D01*
Y373930D01*
X-125400D01*
X-203490Y295840D01*
X-400300D01*
X-410248Y305788D01*
X-409529Y306865D01*
X-408334Y306370D01*
X-406146D01*
X-404124Y307207D01*
X-402577Y308755D01*
X-401740Y310776D01*
Y312964D01*
X-402577Y314986D01*
X-404124Y316533D01*
X-406146Y317370D01*
X-408334D01*
X-410355Y316533D01*
X-411903Y314986D01*
X-412740Y312964D01*
Y310776D01*
X-412245Y309581D01*
X-413322Y308862D01*
X-420520Y316060D01*
Y317464D01*
X-421357Y319485D01*
X-422905Y321033D01*
X-424926Y321870D01*
X-426330D01*
X-478390Y373930D01*
X-509710Y373930D01*
Y406030D01*
X-455030D01*
X-381010Y332010D01*
X-215310D01*
X-141290Y406030D01*
X9090D01*
Y336000D01*
D02*
G37*
G36*
X293340Y128673D02*
X292822Y127998D01*
X292167Y126417D01*
X291944Y124720D01*
X292167Y123023D01*
X292562Y122070D01*
X291805Y120800D01*
X224750D01*
X181160Y164390D01*
X113250D01*
X112544Y165446D01*
X112710Y165846D01*
Y168034D01*
X111873Y170056D01*
X110325Y171603D01*
X108304Y172440D01*
X106116D01*
X104094Y171603D01*
X102547Y170056D01*
X101710Y168034D01*
Y165846D01*
X101876Y165446D01*
X101170Y164390D01*
X-117730D01*
Y251130D01*
X-88080Y280780D01*
X148084D01*
Y278666D01*
X103384Y233966D01*
X102342Y232608D01*
X101687Y231027D01*
X101464Y229330D01*
X101687Y227633D01*
X102342Y226052D01*
X103384Y224694D01*
X104742Y223652D01*
X106323Y222997D01*
X108020Y222774D01*
X109717Y222997D01*
X111298Y223652D01*
X112656Y224694D01*
X159276Y271314D01*
X160318Y272672D01*
X160973Y274253D01*
X161196Y275950D01*
Y280780D01*
X293340D01*
Y128673D01*
D02*
G37*
G36*
X-84075Y92750D02*
X-83442Y91649D01*
X-83866Y90914D01*
X-84480Y88625D01*
Y86255D01*
X-83866Y83966D01*
X-82681Y81914D01*
X-81006Y80238D01*
X-78953Y79053D01*
X-76664Y78440D01*
X-74295D01*
X-72006Y79053D01*
X-69953Y80238D01*
X-68278Y81914D01*
X-67093Y83966D01*
X-66480Y86255D01*
Y88625D01*
X-67093Y90914D01*
X-67497Y91614D01*
X-66861Y92713D01*
X-64100Y92707D01*
X-63466Y91607D01*
X-63866Y90914D01*
X-64479Y88625D01*
Y86255D01*
X-63866Y83966D01*
X-62681Y81914D01*
X-61006Y80238D01*
X-58953Y79053D01*
X-56664Y78440D01*
X-54295D01*
X-52006Y79053D01*
X-49953Y80238D01*
X-48278Y81914D01*
X-47093Y83966D01*
X-46480Y86255D01*
Y88625D01*
X-47093Y90914D01*
X-47472Y91571D01*
X-46836Y92670D01*
X-44125Y92664D01*
X-43491Y91564D01*
X-43866Y90914D01*
X-44480Y88625D01*
Y86255D01*
X-43866Y83966D01*
X-42681Y81914D01*
X-41006Y80238D01*
X-38953Y79053D01*
X-36664Y78440D01*
X-34295D01*
X-32006Y79053D01*
X-29953Y80238D01*
X-28278Y81914D01*
X-27093Y83966D01*
X-26480Y86255D01*
Y88625D01*
X-27093Y90914D01*
X-27448Y91528D01*
X-26812Y92628D01*
X-24150Y92622D01*
X-23516Y91521D01*
X-23867Y90914D01*
X-24480Y88625D01*
Y86255D01*
X-23867Y83966D01*
X-22682Y81914D01*
X-21006Y80238D01*
X-18954Y79053D01*
X-16665Y78440D01*
X-14295D01*
X-12006Y79053D01*
X-9954Y80238D01*
X-8278Y81914D01*
X-7093Y83966D01*
X-6480Y86255D01*
Y88625D01*
X-7093Y90914D01*
X-7424Y91486D01*
X-6787Y92585D01*
X-4174Y92579D01*
X-3540Y91479D01*
X-3867Y90914D01*
X-4480Y88625D01*
Y86255D01*
X-3867Y83966D01*
X-2682Y81914D01*
X-1006Y80238D01*
X1046Y79053D01*
X3335Y78440D01*
X5705D01*
X7994Y79053D01*
X10046Y80238D01*
X11722Y81914D01*
X12907Y83966D01*
X13520Y86255D01*
Y88625D01*
X12907Y90914D01*
X12601Y91443D01*
X13237Y92542D01*
X15801Y92537D01*
X16435Y91436D01*
X16133Y90914D01*
X15520Y88625D01*
Y86255D01*
X16133Y83966D01*
X17318Y81914D01*
X18994Y80238D01*
X21046Y79053D01*
X23335Y78440D01*
X25705D01*
X27994Y79053D01*
X30046Y80238D01*
X31722Y81914D01*
X32907Y83966D01*
X33520Y86255D01*
Y88625D01*
X32907Y90914D01*
X32626Y91400D01*
X33262Y92500D01*
X35777Y92494D01*
X36410Y91394D01*
X36133Y90914D01*
X35520Y88625D01*
Y86255D01*
X36133Y83966D01*
X37318Y81914D01*
X38994Y80238D01*
X41046Y79053D01*
X43335Y78440D01*
X45705D01*
X47994Y79053D01*
X50046Y80238D01*
X51722Y81914D01*
X52907Y83966D01*
X53520Y86255D01*
Y88625D01*
X52907Y90914D01*
X52650Y91358D01*
X53287Y92457D01*
X55752Y92452D01*
X56386Y91351D01*
X56133Y90914D01*
X55520Y88625D01*
Y86255D01*
X56133Y83966D01*
X57318Y81914D01*
X58994Y80238D01*
X61046Y79053D01*
X63335Y78440D01*
X65705D01*
X67994Y79053D01*
X70046Y80238D01*
X71722Y81914D01*
X72907Y83966D01*
X73520Y86255D01*
Y88625D01*
X72907Y90914D01*
X72675Y91315D01*
X73311Y92414D01*
X75520Y92409D01*
Y78440D01*
X93520D01*
Y80884D01*
X131704D01*
X172080Y40508D01*
Y35629D01*
X170810Y35376D01*
X169905Y37560D01*
X168138Y39863D01*
X165835Y41630D01*
X163153Y42741D01*
X160275Y43120D01*
X156465D01*
X153587Y42741D01*
X150905Y41630D01*
X148602Y39863D01*
X146835Y37560D01*
X145724Y34878D01*
X145345Y32000D01*
X145724Y29122D01*
X146835Y26440D01*
X148602Y24137D01*
X150905Y22370D01*
X153587Y21259D01*
X156465Y20880D01*
X160275D01*
X163153Y21259D01*
X165835Y22370D01*
X168138Y24137D01*
X169905Y26440D01*
X170810Y28624D01*
X172080Y28371D01*
Y10229D01*
X170810Y9976D01*
X169905Y12160D01*
X168138Y14463D01*
X165835Y16230D01*
X163153Y17341D01*
X160275Y17720D01*
X156465D01*
X153587Y17341D01*
X150905Y16230D01*
X148602Y14463D01*
X146835Y12160D01*
X145724Y9478D01*
X145345Y6600D01*
X145724Y3722D01*
X146835Y1040D01*
X148602Y-1263D01*
X150905Y-3030D01*
X153587Y-4141D01*
X156465Y-4520D01*
X160275D01*
X163153Y-4141D01*
X165835Y-3030D01*
X168138Y-1263D01*
X169905Y1040D01*
X170810Y3224D01*
X172080Y2971D01*
Y-32228D01*
X171300Y-33175D01*
X145440D01*
Y-40122D01*
X118919D01*
X96854Y-18056D01*
X95531Y-17172D01*
X93970Y-16862D01*
X93970Y-16862D01*
X74538D01*
Y-8996D01*
X74538Y-8996D01*
X74228Y-7435D01*
X73344Y-6112D01*
X71750Y-4518D01*
Y-3421D01*
X70913Y-1400D01*
X69366Y148D01*
X67344Y985D01*
X65156D01*
X63134Y148D01*
X62550Y-437D01*
X31594D01*
X19010Y12148D01*
Y12974D01*
X18774Y13544D01*
X19741Y14260D01*
X19840Y14289D01*
X21881Y13110D01*
X24195Y12490D01*
X26591D01*
X28906Y13110D01*
X30981Y14308D01*
X32675Y16003D01*
X33873Y18078D01*
X34493Y20392D01*
Y22788D01*
X33873Y25103D01*
X32675Y27178D01*
X30981Y28872D01*
X28906Y30070D01*
X26591Y30690D01*
X24195D01*
X21881Y30070D01*
X19806Y28872D01*
X18112Y27178D01*
X16914Y25103D01*
X16293Y22788D01*
Y20392D01*
X16914Y18078D01*
X17137Y17690D01*
X16242Y16702D01*
X14604Y17380D01*
X12416D01*
X10395Y16543D01*
X8847Y14995D01*
X8010Y12974D01*
Y10786D01*
X8847Y8765D01*
X10395Y7217D01*
X12416Y6380D01*
X13242D01*
X27021Y-7399D01*
X27021Y-7399D01*
X28344Y-8283D01*
X29905Y-8593D01*
X62550D01*
X63134Y-9178D01*
X65156Y-10015D01*
X65712D01*
X66382Y-10685D01*
Y-17240D01*
X65797Y-17824D01*
X64960Y-19846D01*
Y-22034D01*
X65797Y-24056D01*
X67111Y-25369D01*
X67072Y-26760D01*
X66884Y-26837D01*
X65337Y-28384D01*
X64500Y-30406D01*
Y-32594D01*
X65337Y-34615D01*
X66408Y-35686D01*
X19808Y-82286D01*
X-59480D01*
X-60553Y-82500D01*
X-61463Y-83107D01*
X-83683Y-105327D01*
X-84290Y-106237D01*
X-84504Y-107310D01*
Y-169279D01*
X-98649Y-183424D01*
X-100968D01*
X-101775Y-182617D01*
X-103796Y-181780D01*
X-105984D01*
X-108006Y-182617D01*
X-109553Y-184165D01*
X-110390Y-186186D01*
Y-188374D01*
X-109553Y-190396D01*
X-108006Y-191943D01*
X-106559Y-192542D01*
X-106543Y-192629D01*
X-106685Y-193864D01*
X-108371Y-194563D01*
X-109918Y-196110D01*
X-110755Y-198131D01*
Y-199507D01*
X-112025Y-200033D01*
X-113434Y-198624D01*
Y-164076D01*
X-101124Y-151766D01*
X-100082Y-150408D01*
X-99427Y-148827D01*
X-99204Y-147130D01*
Y-119372D01*
Y-93366D01*
X-83410D01*
X-81713Y-93143D01*
X-80132Y-92488D01*
X-78774Y-91446D01*
X-59774Y-72446D01*
X-58732Y-71088D01*
X-58077Y-69507D01*
X-57854Y-67810D01*
Y-56606D01*
X-44210D01*
X-42513Y-56383D01*
X-40932Y-55728D01*
X-39574Y-54686D01*
X-38804Y-53916D01*
X-37762Y-52558D01*
X-37107Y-50977D01*
X-36884Y-49280D01*
X-37107Y-47583D01*
X-37762Y-46002D01*
X-38804Y-44644D01*
X-40162Y-43602D01*
X-41743Y-42947D01*
X-43440Y-42724D01*
X-45137Y-42947D01*
X-46456Y-43494D01*
X-64410D01*
X-66107Y-43717D01*
X-67688Y-44372D01*
X-69046Y-45414D01*
X-70088Y-46772D01*
X-70743Y-48353D01*
X-70966Y-50050D01*
Y-65094D01*
X-86126Y-80254D01*
X-131904D01*
Y-53051D01*
X-124504Y-45651D01*
X-123462Y-44294D01*
X-122807Y-42712D01*
X-122584Y-41016D01*
X-122807Y-39319D01*
X-123462Y-37738D01*
X-124504Y-36380D01*
X-125862Y-35338D01*
X-127443Y-34683D01*
X-129140Y-34460D01*
X-130837Y-34683D01*
X-132418Y-35338D01*
X-133776Y-36380D01*
X-143096Y-45700D01*
X-144138Y-47058D01*
X-144793Y-48639D01*
X-145016Y-50336D01*
Y-83881D01*
X-144793Y-85578D01*
X-144138Y-87159D01*
X-143096Y-88517D01*
X-140167Y-91446D01*
X-138809Y-92488D01*
X-137228Y-93143D01*
X-135531Y-93366D01*
X-112316D01*
Y-119372D01*
Y-144414D01*
X-124626Y-156724D01*
X-125668Y-158082D01*
X-126323Y-159663D01*
X-126546Y-161360D01*
Y-201340D01*
X-126323Y-203037D01*
X-125668Y-204618D01*
X-124626Y-205976D01*
X-114226Y-216376D01*
X-114226Y-216376D01*
X-71656Y-258946D01*
Y-280170D01*
X-178260D01*
Y39870D01*
X-125293Y92837D01*
X-84075Y92750D01*
D02*
G37*
G36*
X114346Y-47084D02*
X114346Y-47084D01*
X115669Y-47968D01*
X117230Y-48278D01*
X145440D01*
Y-55225D01*
X162028D01*
X172080Y-65277D01*
Y-122754D01*
X170810Y-123007D01*
X170285Y-121740D01*
X168518Y-119437D01*
X166215Y-117670D01*
X163533Y-116559D01*
X160655Y-116180D01*
X156845D01*
X153967Y-116559D01*
X151285Y-117670D01*
X148982Y-119437D01*
X147215Y-121740D01*
X146104Y-124422D01*
X145725Y-127300D01*
X146104Y-130178D01*
X147215Y-132860D01*
X148982Y-135163D01*
X151285Y-136930D01*
X153967Y-138041D01*
X156845Y-138420D01*
X160655D01*
X163533Y-138041D01*
X166215Y-136930D01*
X168518Y-135163D01*
X170285Y-132860D01*
X170810Y-131593D01*
X172080Y-131846D01*
Y-165971D01*
X171680Y-167075D01*
X170810Y-167075D01*
X145820D01*
Y-189125D01*
X170810D01*
X171680Y-189125D01*
X172080Y-190229D01*
Y-228450D01*
X170106D01*
X169720Y-228610D01*
X156711D01*
X156523Y-228155D01*
X154976Y-226607D01*
X152954Y-225770D01*
X150766D01*
X148744Y-226607D01*
X147197Y-228155D01*
X147009Y-228610D01*
X107668D01*
Y-227421D01*
X106831Y-225399D01*
X105284Y-223852D01*
X103262Y-223015D01*
X101074D01*
X99053Y-223852D01*
X98331Y-224574D01*
X97337Y-225232D01*
X96671Y-224574D01*
X95785Y-223687D01*
X94121Y-222998D01*
X93294Y-221677D01*
X93504Y-221168D01*
Y-218980D01*
X92667Y-216959D01*
X91120Y-215412D01*
X89098Y-214574D01*
X86910D01*
X84889Y-215412D01*
X83342Y-216959D01*
X82504Y-218980D01*
Y-221168D01*
X83342Y-223190D01*
X84889Y-224737D01*
X86553Y-225426D01*
X87380Y-226748D01*
X87170Y-227256D01*
Y-228610D01*
X81220D01*
Y-247271D01*
X79950Y-248120D01*
X78984Y-247720D01*
X78158D01*
X70378Y-239941D01*
Y-145089D01*
X85138Y-130330D01*
X85964D01*
X87985Y-129493D01*
X89533Y-127945D01*
X90370Y-125924D01*
Y-123736D01*
X89533Y-121714D01*
X88873Y-121055D01*
Y-118175D01*
X89383Y-117666D01*
X90220Y-115644D01*
Y-113456D01*
X89383Y-111434D01*
X87836Y-109887D01*
X85814Y-109050D01*
X83626D01*
X81604Y-109887D01*
X80057Y-111434D01*
X79220Y-113456D01*
Y-115644D01*
X80057Y-117666D01*
X80717Y-118325D01*
Y-121205D01*
X80207Y-121714D01*
X79370Y-123736D01*
Y-124562D01*
X63416Y-140516D01*
X62532Y-141839D01*
X62222Y-143400D01*
X62222Y-143400D01*
Y-241630D01*
X62222Y-241630D01*
X62532Y-243191D01*
X63416Y-244514D01*
X66871Y-247968D01*
X66385Y-249142D01*
X33410D01*
X-3455Y-212276D01*
X-4778Y-211392D01*
X-6339Y-211082D01*
X-6339Y-211082D01*
X-8144D01*
X-8805Y-209812D01*
X-8160Y-208254D01*
Y-206066D01*
X-8997Y-204045D01*
X-10545Y-202498D01*
X-12566Y-201660D01*
X-14754D01*
X-16775Y-202498D01*
X-18323Y-204045D01*
X-19160Y-206066D01*
Y-208254D01*
X-18630Y-209533D01*
X-19602Y-210505D01*
X-20436Y-210160D01*
X-22624D01*
X-24646Y-210997D01*
X-25230Y-211582D01*
X-26530D01*
X-26530Y-211582D01*
X-26530Y-211582D01*
X-36981D01*
X-55439Y-193123D01*
Y-148065D01*
X-31806D01*
X-31806Y-148065D01*
X-30245Y-147754D01*
X-28922Y-146870D01*
X-19541Y-137488D01*
X-11670D01*
X-11085Y-138073D01*
X-9064Y-138910D01*
X-6876D01*
X-4854Y-138073D01*
X-3307Y-136525D01*
X-2470Y-134504D01*
Y-132316D01*
X-3307Y-130295D01*
X-4854Y-128747D01*
X-6876Y-127910D01*
X-9064D01*
X-11085Y-128747D01*
X-11670Y-129332D01*
X-21230D01*
X-21230Y-129332D01*
X-22791Y-129642D01*
X-24114Y-130526D01*
X-24114Y-130526D01*
X-33496Y-139908D01*
X-55818D01*
X-56402Y-139324D01*
X-56529Y-138685D01*
X-55466Y-137621D01*
X-54629Y-135600D01*
Y-133412D01*
X-55110Y-132250D01*
X-54261Y-130980D01*
X-53422D01*
X-51401Y-130143D01*
X-49854Y-128596D01*
X-49016Y-126574D01*
Y-125391D01*
X-48246Y-124356D01*
X-47843Y-124340D01*
X-46046D01*
X-44025Y-123503D01*
X-42477Y-121955D01*
X-41640Y-119934D01*
Y-117746D01*
X-42477Y-115724D01*
X-44025Y-114177D01*
X-46046Y-113340D01*
X-48234D01*
X-50255Y-114177D01*
X-51803Y-115724D01*
X-52640Y-117746D01*
Y-118930D01*
X-53411Y-119964D01*
X-53813Y-119980D01*
X-55610D01*
X-57632Y-120817D01*
X-59179Y-122365D01*
X-60016Y-124386D01*
Y-126574D01*
X-59535Y-127736D01*
X-60384Y-129006D01*
X-61223D01*
X-63244Y-129843D01*
X-64791Y-131390D01*
X-65629Y-133412D01*
Y-135600D01*
X-64791Y-137621D01*
X-63244Y-139169D01*
X-63117Y-139808D01*
X-64180Y-140871D01*
X-65017Y-142892D01*
Y-145080D01*
X-64180Y-147102D01*
X-63596Y-147686D01*
Y-194813D01*
X-63596Y-194813D01*
X-63285Y-196373D01*
X-62401Y-197696D01*
X-41554Y-218544D01*
X-41554Y-218544D01*
X-40231Y-219428D01*
X-38670Y-219738D01*
X-38670Y-219738D01*
X-38035D01*
X-37549Y-220912D01*
X-64348Y-247710D01*
X-104954Y-207104D01*
X-104954Y-207104D01*
X-106063Y-205995D01*
X-105537Y-204725D01*
X-104161D01*
X-102140Y-203888D01*
X-100593Y-202341D01*
X-99755Y-200319D01*
Y-198131D01*
X-100593Y-196110D01*
X-102140Y-194563D01*
X-103587Y-193963D01*
X-103602Y-193876D01*
X-103461Y-192641D01*
X-101775Y-191943D01*
X-100227Y-190396D01*
X-99662Y-189032D01*
X-97488D01*
X-96415Y-188818D01*
X-95505Y-188210D01*
X-79717Y-172423D01*
X-79110Y-171513D01*
X-78896Y-170440D01*
Y-108471D01*
X-58319Y-87894D01*
X20969D01*
X22042Y-87680D01*
X22952Y-87073D01*
X71983Y-38042D01*
X72590Y-37132D01*
X72754Y-36313D01*
X73116Y-36163D01*
X74663Y-34615D01*
X75500Y-32594D01*
Y-30406D01*
X74663Y-28384D01*
X73349Y-27071D01*
X73388Y-25680D01*
X73576Y-25603D01*
X74160Y-25018D01*
X92281D01*
X114346Y-47084D01*
D02*
G37*
G36*
X-81210Y323170D02*
X-111770Y323170D01*
X-161335Y273605D01*
X-162220Y272720D01*
Y145460D01*
X167970Y145460D01*
X194679Y118751D01*
X194660Y118704D01*
Y116516D01*
X195497Y114494D01*
X197045Y112947D01*
X199066Y112110D01*
X201254D01*
X201301Y112129D01*
X270490Y42940D01*
X336560D01*
Y137270D01*
X408380Y209090D01*
Y257480D01*
X429040D01*
Y194360D01*
X367530Y132850D01*
Y-183980D01*
X217580D01*
X217580Y36620D01*
X144570Y109630D01*
X-220900D01*
Y-136139D01*
X-220950Y-137320D01*
X-220950Y-137320D01*
X-231620D01*
X-235270Y-140970D01*
Y-150050D01*
X-232550Y-152770D01*
X-220900D01*
Y-252945D01*
X-222170Y-253198D01*
X-222867Y-251514D01*
X-224415Y-249967D01*
X-226436Y-249130D01*
X-228624D01*
X-230646Y-249967D01*
X-232193Y-251514D01*
X-233030Y-253536D01*
Y-255724D01*
X-232193Y-257745D01*
X-230646Y-259293D01*
X-228624Y-260130D01*
X-226436D01*
X-224415Y-259293D01*
X-222867Y-257745D01*
X-222170Y-256062D01*
X-220900Y-256315D01*
Y-271340D01*
X-227730Y-278170D01*
X-267780D01*
X-274850Y-285240D01*
Y-417270D01*
X-269620Y-422330D01*
X-205720D01*
X-193540Y-434510D01*
Y-479860D01*
X-305420D01*
X-323400Y-461880D01*
Y-263200D01*
X-443930D01*
Y-239580D01*
X-323400D01*
Y-229090D01*
X-309030Y-214720D01*
X-287550D01*
Y-45780D01*
X-391020D01*
Y189440D01*
X-339640Y240820D01*
X-251700D01*
X-122980Y369540D01*
X-81210Y369540D01*
X-81210Y323170D01*
D02*
G37*
G36*
X28837Y-256104D02*
X28837Y-256104D01*
X30160Y-256988D01*
X31721Y-257298D01*
X74190D01*
X74774Y-257883D01*
X76796Y-258720D01*
X78984D01*
X79950Y-258320D01*
X81220Y-259168D01*
Y-409680D01*
X-48560D01*
Y-280170D01*
X-58544D01*
Y-254230D01*
X-58636Y-253533D01*
X-25035Y-219933D01*
X-24646Y-220323D01*
X-22624Y-221160D01*
X-20436D01*
X-18414Y-220323D01*
X-17330Y-219239D01*
X-8028D01*
X28837Y-256104D01*
D02*
G37*
%LPC*%
G36*
X53420Y438490D02*
X51232D01*
X49210Y437653D01*
X47663Y436105D01*
X46826Y434084D01*
Y431896D01*
X47663Y429874D01*
X49210Y428327D01*
X51232Y427490D01*
X53420D01*
X55441Y428327D01*
X56988Y429874D01*
X57826Y431896D01*
Y434084D01*
X56988Y436105D01*
X55441Y437653D01*
X53420Y438490D01*
D02*
G37*
G36*
X-54136Y433960D02*
X-56324D01*
X-58345Y433123D01*
X-59893Y431576D01*
X-60730Y429554D01*
Y427366D01*
X-59893Y425345D01*
X-58345Y423797D01*
X-56324Y422960D01*
X-54136D01*
X-52115Y423797D01*
X-50567Y425345D01*
X-49730Y427366D01*
Y429554D01*
X-50567Y431576D01*
X-52115Y433123D01*
X-54136Y433960D01*
D02*
G37*
G36*
X-9896Y264320D02*
X-12084D01*
X-14105Y263483D01*
X-15653Y261936D01*
X-16490Y259914D01*
Y257726D01*
X-15653Y255704D01*
X-14105Y254157D01*
X-12084Y253320D01*
X-9896D01*
X-7875Y254157D01*
X-6327Y255704D01*
X-5490Y257726D01*
Y259914D01*
X-6327Y261936D01*
X-7875Y263483D01*
X-9896Y264320D01*
D02*
G37*
G36*
X-82616Y263810D02*
X-84804D01*
X-86826Y262973D01*
X-88373Y261425D01*
X-89210Y259404D01*
Y257216D01*
X-88373Y255194D01*
X-86826Y253647D01*
X-84804Y252810D01*
X-82616D01*
X-80595Y253647D01*
X-79047Y255194D01*
X-78210Y257216D01*
Y259404D01*
X-79047Y261425D01*
X-80595Y262973D01*
X-82616Y263810D01*
D02*
G37*
G36*
X-9724Y201470D02*
X-11912D01*
X-13933Y200633D01*
X-15481Y199086D01*
X-16318Y197064D01*
Y194876D01*
X-15481Y192855D01*
X-13933Y191308D01*
X-11912Y190470D01*
X-9724D01*
X-7702Y191308D01*
X-6155Y192855D01*
X-5318Y194876D01*
Y197064D01*
X-6155Y199086D01*
X-7702Y200633D01*
X-9724Y201470D01*
D02*
G37*
G36*
X-81396Y178820D02*
X-83584D01*
X-85605Y177983D01*
X-87153Y176436D01*
X-87990Y174414D01*
Y172226D01*
X-87153Y170205D01*
X-85605Y168657D01*
X-83584Y167820D01*
X-81396D01*
X-79374Y168657D01*
X-77827Y170205D01*
X-76990Y172226D01*
Y174414D01*
X-77827Y176436D01*
X-79374Y177983D01*
X-81396Y178820D01*
D02*
G37*
G36*
X145984Y58402D02*
X143796D01*
X141775Y57565D01*
X140228Y56018D01*
X139390Y53996D01*
Y52251D01*
X138984Y51980D01*
X136796D01*
X134775Y51142D01*
X133228Y49595D01*
X132605Y48092D01*
X132390Y47574D01*
X131120Y47437D01*
X130364Y47750D01*
X128176D01*
X126154Y46913D01*
X124607Y45366D01*
X123770Y43344D01*
Y41156D01*
X124607Y39135D01*
X126154Y37587D01*
X128176Y36750D01*
X130364D01*
X132386Y37587D01*
X133933Y39135D01*
X134555Y40638D01*
X134770Y41156D01*
X136040Y41293D01*
X136796Y40980D01*
X138984D01*
X141006Y41817D01*
X142553Y43364D01*
X143390Y45386D01*
Y47131D01*
X143796Y47402D01*
X145984D01*
X148006Y48240D01*
X149553Y49787D01*
X150390Y51808D01*
Y53996D01*
X149553Y56018D01*
X148006Y57565D01*
X145984Y58402D01*
D02*
G37*
G36*
X116364Y55390D02*
X114176D01*
X112155Y54553D01*
X110607Y53005D01*
X109770Y50984D01*
Y48796D01*
X110607Y46775D01*
X112155Y45227D01*
X114176Y44390D01*
X116364D01*
X118385Y45227D01*
X119933Y46775D01*
X120770Y48796D01*
Y50984D01*
X119933Y53005D01*
X118385Y54553D01*
X116364Y55390D01*
D02*
G37*
G36*
X51991Y56090D02*
X49595D01*
X47281Y55470D01*
X45206Y54272D01*
X43512Y52578D01*
X42314Y50503D01*
X41693Y48188D01*
Y45792D01*
X42314Y43478D01*
X43512Y41403D01*
X45206Y39708D01*
X47281Y38510D01*
X49595Y37890D01*
X51991D01*
X54306Y38510D01*
X56381Y39708D01*
X58075Y41403D01*
X59273Y43478D01*
X59893Y45792D01*
Y48188D01*
X59273Y50503D01*
X58075Y52578D01*
X56381Y54272D01*
X54306Y55470D01*
X51991Y56090D01*
D02*
G37*
G36*
X26591D02*
X24195D01*
X21881Y55470D01*
X19806Y54272D01*
X18112Y52578D01*
X16914Y50503D01*
X16293Y48188D01*
Y45792D01*
X16914Y43478D01*
X18112Y41403D01*
X19806Y39708D01*
X21881Y38510D01*
X24195Y37890D01*
X26591D01*
X28906Y38510D01*
X30981Y39708D01*
X32675Y41403D01*
X33873Y43478D01*
X34493Y45792D01*
Y48188D01*
X33873Y50503D01*
X32675Y52578D01*
X30981Y54272D01*
X28906Y55470D01*
X26591Y56090D01*
D02*
G37*
G36*
X-24209D02*
X-26605D01*
X-28919Y55470D01*
X-30994Y54272D01*
X-32688Y52578D01*
X-33886Y50503D01*
X-34507Y48188D01*
Y45792D01*
X-33886Y43478D01*
X-32688Y41403D01*
X-30994Y39708D01*
X-28919Y38510D01*
X-26605Y37890D01*
X-24209D01*
X-21894Y38510D01*
X-19819Y39708D01*
X-18125Y41403D01*
X-16927Y43478D01*
X-16307Y45792D01*
Y48188D01*
X-16927Y50503D01*
X-18125Y52578D01*
X-19819Y54272D01*
X-21894Y55470D01*
X-24209Y56090D01*
D02*
G37*
G36*
X-49609D02*
X-52005D01*
X-54319Y55470D01*
X-56394Y54272D01*
X-58088Y52578D01*
X-59286Y50503D01*
X-59907Y48188D01*
Y45792D01*
X-59286Y43478D01*
X-58088Y41403D01*
X-56394Y39708D01*
X-54319Y38510D01*
X-52005Y37890D01*
X-49609D01*
X-47294Y38510D01*
X-45219Y39708D01*
X-43525Y41403D01*
X-42327Y43478D01*
X-41707Y45792D01*
Y48188D01*
X-42327Y50503D01*
X-43525Y52578D01*
X-45219Y54272D01*
X-47294Y55470D01*
X-49609Y56090D01*
D02*
G37*
G36*
X-92339Y52473D02*
X-94527D01*
X-96549Y51635D01*
X-98096Y50088D01*
X-98933Y48067D01*
Y45879D01*
X-98096Y43857D01*
X-97309Y43070D01*
X-96638Y42205D01*
X-97309Y41411D01*
X-98131Y40588D01*
X-98968Y38567D01*
Y36379D01*
X-98131Y34357D01*
X-96584Y32810D01*
X-94562Y31973D01*
X-92374D01*
X-90353Y32810D01*
X-88806Y34357D01*
X-87968Y36379D01*
Y38567D01*
X-88806Y40588D01*
X-89593Y41376D01*
X-90264Y42241D01*
X-89593Y43035D01*
X-88771Y43857D01*
X-87933Y45879D01*
Y48067D01*
X-88771Y50088D01*
X-90318Y51635D01*
X-92339Y52473D01*
D02*
G37*
G36*
X114544Y41785D02*
X112356D01*
X110335Y40948D01*
X108787Y39401D01*
X107950Y37380D01*
Y35192D01*
X108787Y33170D01*
X110335Y31623D01*
X112356Y30786D01*
X114544D01*
X116566Y31623D01*
X118113Y33170D01*
X118950Y35192D01*
Y37380D01*
X118113Y39401D01*
X116566Y40948D01*
X114544Y41785D01*
D02*
G37*
G36*
X-107686Y36868D02*
X-109874D01*
X-111896Y36031D01*
X-113443Y34484D01*
X-114280Y32462D01*
Y30274D01*
X-113443Y28253D01*
X-111896Y26706D01*
X-109874Y25868D01*
X-108523D01*
X-107686Y25868D01*
X-107350Y24695D01*
Y23776D01*
X-106513Y21755D01*
X-104965Y20207D01*
X-102944Y19370D01*
X-100756D01*
X-98735Y20207D01*
X-97187Y21755D01*
X-96350Y23776D01*
Y25964D01*
X-97187Y27985D01*
X-98735Y29533D01*
X-100756Y30370D01*
X-102107D01*
X-102944Y30370D01*
X-103280Y31543D01*
Y32462D01*
X-104117Y34484D01*
X-105665Y36031D01*
X-107686Y36868D01*
D02*
G37*
G36*
X59893Y30690D02*
X41693D01*
Y12490D01*
X59893D01*
Y30690D01*
D02*
G37*
G36*
X-24209D02*
X-26605D01*
X-28919Y30070D01*
X-30994Y28872D01*
X-32688Y27178D01*
X-33886Y25103D01*
X-34507Y22788D01*
Y20392D01*
X-33886Y18078D01*
X-32688Y16003D01*
X-30994Y14308D01*
X-28919Y13110D01*
X-26605Y12490D01*
X-24209D01*
X-21894Y13110D01*
X-19819Y14308D01*
X-18125Y16003D01*
X-16927Y18078D01*
X-16307Y20392D01*
Y22788D01*
X-16927Y25103D01*
X-18125Y27178D01*
X-19819Y28872D01*
X-21894Y30070D01*
X-24209Y30690D01*
D02*
G37*
G36*
X-49609D02*
X-52005D01*
X-54319Y30070D01*
X-56394Y28872D01*
X-58088Y27178D01*
X-59286Y25103D01*
X-59907Y22788D01*
Y20392D01*
X-59286Y18078D01*
X-58088Y16003D01*
X-56394Y14308D01*
X-54319Y13110D01*
X-52005Y12490D01*
X-49609D01*
X-47294Y13110D01*
X-45219Y14308D01*
X-43525Y16003D01*
X-42327Y18078D01*
X-41707Y20392D01*
Y22788D01*
X-42327Y25103D01*
X-43525Y27178D01*
X-45219Y28872D01*
X-47294Y30070D01*
X-49609Y30690D01*
D02*
G37*
G36*
X71844Y27470D02*
X69656D01*
X67635Y26633D01*
X66087Y25085D01*
X65250Y23064D01*
Y20876D01*
X66087Y18855D01*
X67635Y17307D01*
X69457Y16553D01*
X69619Y15841D01*
X69583Y15230D01*
X68263Y14684D01*
X66716Y13136D01*
X65878Y11115D01*
Y8927D01*
X66716Y6905D01*
X68263Y5358D01*
X70284Y4521D01*
X72472D01*
X74494Y5358D01*
X76041Y6905D01*
X76878Y8927D01*
Y11115D01*
X76041Y13136D01*
X74494Y14684D01*
X72672Y15438D01*
X72509Y16149D01*
X72545Y16761D01*
X73865Y17307D01*
X75413Y18855D01*
X76250Y20876D01*
Y23064D01*
X75413Y25085D01*
X73865Y26633D01*
X71844Y27470D01*
D02*
G37*
G36*
X-161095Y19220D02*
X-164905D01*
X-167783Y18841D01*
X-170465Y17730D01*
X-172768Y15963D01*
X-174535Y13660D01*
X-175646Y10978D01*
X-176025Y8100D01*
X-175646Y5222D01*
X-174535Y2540D01*
X-172768Y237D01*
X-170465Y-1530D01*
X-167783Y-2641D01*
X-164905Y-3020D01*
X-161095D01*
X-158217Y-2641D01*
X-155535Y-1530D01*
X-153232Y237D01*
X-151465Y2540D01*
X-150354Y5222D01*
X-149975Y8100D01*
X-150354Y10978D01*
X-151465Y13660D01*
X-153232Y15963D01*
X-155535Y17730D01*
X-158217Y18841D01*
X-161095Y19220D01*
D02*
G37*
G36*
X-23976Y7860D02*
X-26164D01*
X-28186Y7023D01*
X-29733Y5476D01*
X-30570Y3454D01*
Y1266D01*
X-29733Y-755D01*
X-28186Y-2303D01*
X-26164Y-3140D01*
X-23976D01*
X-21955Y-2303D01*
X-20407Y-755D01*
X-19570Y1266D01*
Y3454D01*
X-20407Y5476D01*
X-21955Y7023D01*
X-23976Y7860D01*
D02*
G37*
G36*
X1191Y30690D02*
X-1205D01*
X-3519Y30070D01*
X-5594Y28872D01*
X-7288Y27178D01*
X-8486Y25103D01*
X-9107Y22788D01*
Y20392D01*
X-8486Y18078D01*
X-7288Y16003D01*
X-5594Y14308D01*
X-3575Y13143D01*
Y-31232D01*
X-3304Y-32598D01*
X-2650Y-33576D01*
Y-35724D01*
X-1813Y-37745D01*
X-266Y-39293D01*
X1756Y-40130D01*
X3944D01*
X5965Y-39293D01*
X7513Y-37745D01*
X8350Y-35724D01*
Y-33536D01*
X7513Y-31514D01*
X5965Y-29967D01*
X3944Y-29130D01*
X3562D01*
Y13143D01*
X5581Y14308D01*
X7275Y16003D01*
X8473Y18078D01*
X9093Y20392D01*
Y22788D01*
X8473Y25103D01*
X7275Y27178D01*
X5581Y28872D01*
X3506Y30070D01*
X1191Y30690D01*
D02*
G37*
G36*
X37174Y-32670D02*
X34986D01*
X32964Y-33507D01*
X31417Y-35055D01*
X30580Y-37076D01*
Y-39264D01*
X31417Y-41286D01*
X32964Y-42833D01*
X34986Y-43670D01*
X37174D01*
X39195Y-42833D01*
X40743Y-41286D01*
X41580Y-39264D01*
Y-37076D01*
X40743Y-35055D01*
X39195Y-33507D01*
X37174Y-32670D01*
D02*
G37*
G36*
X-113756Y-36170D02*
X-115944D01*
X-117965Y-37007D01*
X-119513Y-38554D01*
X-120350Y-40576D01*
Y-42764D01*
X-119513Y-44785D01*
X-117965Y-46333D01*
X-115944Y-47170D01*
X-113756D01*
X-111735Y-46333D01*
X-110187Y-44785D01*
X-109350Y-42764D01*
Y-40576D01*
X-110187Y-38554D01*
X-111735Y-37007D01*
X-113756Y-36170D01*
D02*
G37*
G36*
X-150070Y-31675D02*
X-175930D01*
Y-53725D01*
X-150070D01*
Y-31675D01*
D02*
G37*
G36*
X-120506Y-54620D02*
X-122694D01*
X-124715Y-55457D01*
X-126263Y-57004D01*
X-127100Y-59026D01*
Y-61214D01*
X-126263Y-63236D01*
X-124715Y-64783D01*
X-122694Y-65620D01*
X-120506D01*
X-118484Y-64783D01*
X-116937Y-63236D01*
X-116100Y-61214D01*
Y-59026D01*
X-116937Y-57004D01*
X-118484Y-55457D01*
X-120506Y-54620D01*
D02*
G37*
G36*
X-161095Y-89780D02*
X-164905D01*
X-167783Y-90159D01*
X-170465Y-91270D01*
X-172768Y-93037D01*
X-174535Y-95340D01*
X-175646Y-98022D01*
X-176025Y-100900D01*
X-175646Y-103778D01*
X-174535Y-106460D01*
X-172768Y-108763D01*
X-170465Y-110530D01*
X-167783Y-111641D01*
X-164905Y-112020D01*
X-161095D01*
X-158217Y-111641D01*
X-155535Y-110530D01*
X-153232Y-108763D01*
X-151465Y-106460D01*
X-150354Y-103778D01*
X-149975Y-100900D01*
X-150354Y-98022D01*
X-151465Y-95340D01*
X-153232Y-93037D01*
X-155535Y-91270D01*
X-158217Y-90159D01*
X-161095Y-89780D01*
D02*
G37*
G36*
Y-115180D02*
X-164905D01*
X-167783Y-115559D01*
X-170465Y-116670D01*
X-172768Y-118437D01*
X-174535Y-120740D01*
X-175646Y-123422D01*
X-176025Y-126300D01*
X-175646Y-129178D01*
X-174535Y-131860D01*
X-172768Y-134163D01*
X-170465Y-135930D01*
X-167783Y-137041D01*
X-164905Y-137420D01*
X-161095D01*
X-158217Y-137041D01*
X-155535Y-135930D01*
X-153232Y-134163D01*
X-151465Y-131860D01*
X-150354Y-129178D01*
X-149975Y-126300D01*
X-150354Y-123422D01*
X-151465Y-120740D01*
X-153232Y-118437D01*
X-155535Y-116670D01*
X-158217Y-115559D01*
X-161095Y-115180D01*
D02*
G37*
G36*
Y-140580D02*
X-164905D01*
X-167783Y-140959D01*
X-170465Y-142070D01*
X-172768Y-143837D01*
X-174535Y-146140D01*
X-175646Y-148822D01*
X-176025Y-151700D01*
X-175646Y-154578D01*
X-174535Y-157260D01*
X-172768Y-159563D01*
X-170465Y-161330D01*
X-167783Y-162441D01*
X-164905Y-162820D01*
X-161095D01*
X-158217Y-162441D01*
X-155535Y-161330D01*
X-153232Y-159563D01*
X-151465Y-157260D01*
X-150354Y-154578D01*
X-149975Y-151700D01*
X-150354Y-148822D01*
X-151465Y-146140D01*
X-153232Y-143837D01*
X-155535Y-142070D01*
X-158217Y-140959D01*
X-161095Y-140580D01*
D02*
G37*
G36*
X-102866Y-166520D02*
X-105054D01*
X-107076Y-167357D01*
X-108623Y-168904D01*
X-109460Y-170926D01*
Y-173114D01*
X-108623Y-175135D01*
X-107076Y-176683D01*
X-105054Y-177520D01*
X-102866D01*
X-100844Y-176683D01*
X-99297Y-175135D01*
X-98460Y-173114D01*
Y-170926D01*
X-99297Y-168904D01*
X-100844Y-167357D01*
X-102866Y-166520D01*
D02*
G37*
G36*
X-150070Y-166075D02*
X-175930D01*
Y-188125D01*
X-150070D01*
Y-166075D01*
D02*
G37*
G36*
X-119396Y-215080D02*
X-121584D01*
X-123605Y-215917D01*
X-125153Y-217465D01*
X-125990Y-219486D01*
Y-221674D01*
X-125153Y-223696D01*
X-123605Y-225243D01*
X-121584Y-226080D01*
X-119396D01*
X-117374Y-225243D01*
X-115827Y-223696D01*
X-114990Y-221674D01*
Y-219486D01*
X-115827Y-217465D01*
X-117374Y-215917D01*
X-119396Y-215080D01*
D02*
G37*
G36*
X-102575Y-233070D02*
X-124625D01*
Y-258930D01*
X-102575D01*
Y-233070D01*
D02*
G37*
G36*
X-139000Y-232975D02*
X-141878Y-233354D01*
X-144560Y-234465D01*
X-146863Y-236232D01*
X-148630Y-238535D01*
X-149741Y-241217D01*
X-150120Y-244095D01*
Y-247905D01*
X-149741Y-250783D01*
X-148630Y-253465D01*
X-146863Y-255768D01*
X-144560Y-257535D01*
X-141878Y-258646D01*
X-139000Y-259025D01*
X-136122Y-258646D01*
X-133440Y-257535D01*
X-131137Y-255768D01*
X-129370Y-253465D01*
X-128259Y-250783D01*
X-127880Y-247905D01*
Y-244095D01*
X-128259Y-241217D01*
X-129370Y-238535D01*
X-131137Y-236232D01*
X-133440Y-234465D01*
X-136122Y-233354D01*
X-139000Y-232975D01*
D02*
G37*
G36*
X-31706Y-101300D02*
X-33894D01*
X-35916Y-102137D01*
X-37463Y-103685D01*
X-38300Y-105706D01*
Y-107894D01*
X-37463Y-109916D01*
X-35916Y-111463D01*
X-33894Y-112300D01*
X-31706D01*
X-29685Y-111463D01*
X-28137Y-109916D01*
X-27300Y-107894D01*
Y-105706D01*
X-28137Y-103685D01*
X-29685Y-102137D01*
X-31706Y-101300D01*
D02*
G37*
G36*
X23119Y-124845D02*
X20931D01*
X18910Y-125683D01*
X17363Y-127230D01*
X16525Y-129251D01*
Y-131439D01*
X17363Y-133461D01*
X18910Y-135008D01*
X20931Y-135845D01*
X23119D01*
X25141Y-135008D01*
X26688Y-133461D01*
X27525Y-131439D01*
Y-129251D01*
X26688Y-127230D01*
X25141Y-125683D01*
X23119Y-124845D01*
D02*
G37*
G36*
X7864Y-130660D02*
X5676D01*
X3654Y-131497D01*
X2107Y-133045D01*
X1270Y-135066D01*
Y-137254D01*
X2107Y-139276D01*
X3654Y-140823D01*
X5676Y-141660D01*
X7864D01*
X9886Y-140823D01*
X11433Y-139276D01*
X12270Y-137254D01*
Y-135066D01*
X11433Y-133045D01*
X9886Y-131497D01*
X7864Y-130660D01*
D02*
G37*
G36*
X55504Y-133240D02*
X53316D01*
X51294Y-134077D01*
X49747Y-135625D01*
X48910Y-137646D01*
Y-139834D01*
X47973Y-140890D01*
X47116D01*
X45094Y-141727D01*
X43547Y-143274D01*
X42710Y-145296D01*
Y-147484D01*
X43547Y-149506D01*
X45094Y-151053D01*
X47116Y-151890D01*
X49304D01*
X51325Y-151053D01*
X52873Y-149506D01*
X53710Y-147484D01*
Y-145296D01*
X54647Y-144240D01*
X55504D01*
X57526Y-143403D01*
X59073Y-141855D01*
X59910Y-139834D01*
Y-137646D01*
X59073Y-135625D01*
X57526Y-134077D01*
X55504Y-133240D01*
D02*
G37*
G36*
X91004Y-152491D02*
X88816D01*
X86795Y-153328D01*
X85247Y-154875D01*
X84410Y-156897D01*
Y-159085D01*
X85247Y-161106D01*
X86795Y-162654D01*
X88816Y-163491D01*
X91004D01*
X93026Y-162654D01*
X94573Y-161106D01*
X95410Y-159085D01*
Y-156897D01*
X94573Y-154875D01*
X93026Y-153328D01*
X91004Y-152491D01*
D02*
G37*
G36*
X-23434Y-164128D02*
X-25622D01*
X-27643Y-164965D01*
X-29191Y-166513D01*
X-30028Y-168534D01*
Y-170722D01*
X-29191Y-172743D01*
X-27643Y-174291D01*
X-25622Y-175128D01*
X-23842D01*
X-23449Y-175586D01*
X-23150Y-176119D01*
X-23098Y-176301D01*
X-23850Y-178116D01*
Y-180304D01*
X-23013Y-182325D01*
X-21465Y-183873D01*
X-19444Y-184710D01*
X-17256D01*
X-15235Y-183873D01*
X-13687Y-182325D01*
X-12850Y-180304D01*
Y-178116D01*
X-13687Y-176094D01*
X-15235Y-174547D01*
X-17256Y-173710D01*
X-19036D01*
X-19429Y-173252D01*
X-19728Y-172719D01*
X-19780Y-172537D01*
X-19028Y-170722D01*
Y-168534D01*
X-19865Y-166513D01*
X-21412Y-164965D01*
X-23434Y-164128D01*
D02*
G37*
G36*
X20752Y-168541D02*
X18564D01*
X16542Y-169379D01*
X14995Y-170926D01*
X14158Y-172947D01*
Y-174364D01*
X13586Y-175293D01*
X12984Y-175460D01*
X11296D01*
X9275Y-176297D01*
X7727Y-177845D01*
X6890Y-179866D01*
Y-182054D01*
X7727Y-184076D01*
X9275Y-185623D01*
X11296Y-186460D01*
X13484D01*
X15505Y-185623D01*
X17053Y-184076D01*
X17890Y-182054D01*
Y-180637D01*
X18461Y-179708D01*
X19063Y-179541D01*
X20752D01*
X22773Y-178704D01*
X24320Y-177157D01*
X25158Y-175135D01*
Y-172947D01*
X24320Y-170926D01*
X22773Y-169379D01*
X20752Y-168541D01*
D02*
G37*
G36*
X102644Y-167810D02*
X100456D01*
X98434Y-168647D01*
X96887Y-170194D01*
X96050Y-172216D01*
Y-174404D01*
X96887Y-176425D01*
X98434Y-177973D01*
X99821Y-178547D01*
X99848Y-178722D01*
X99694Y-179869D01*
X97985Y-180577D01*
X96437Y-182125D01*
X95600Y-184146D01*
Y-186334D01*
X96437Y-188356D01*
X97985Y-189903D01*
X100006Y-190740D01*
X102194D01*
X104215Y-189903D01*
X105763Y-188356D01*
X106600Y-186334D01*
Y-184146D01*
X105763Y-182125D01*
X104215Y-180577D01*
X102829Y-180003D01*
X102802Y-179828D01*
X102956Y-178681D01*
X104665Y-177973D01*
X106213Y-176425D01*
X107050Y-174404D01*
Y-172216D01*
X106213Y-170194D01*
X104665Y-168647D01*
X102644Y-167810D01*
D02*
G37*
G36*
X49575Y-168496D02*
X47387D01*
X45366Y-169333D01*
X43818Y-170880D01*
X42981Y-172902D01*
Y-175090D01*
X43818Y-177111D01*
X45366Y-178659D01*
X47387Y-179496D01*
X47800D01*
X48506Y-180552D01*
X48460Y-180663D01*
Y-182851D01*
X49297Y-184872D01*
X50844Y-186419D01*
X51091Y-187661D01*
X50717Y-188034D01*
X49880Y-190056D01*
Y-192244D01*
X50717Y-194265D01*
X50768Y-194317D01*
X50283Y-195490D01*
X50136D01*
X48115Y-196327D01*
X46567Y-197875D01*
X45730Y-199896D01*
Y-200091D01*
X44480Y-200139D01*
X43643Y-198118D01*
X42095Y-196570D01*
X40074Y-195733D01*
X37886D01*
X35865Y-196570D01*
X34317Y-198118D01*
X33480Y-200139D01*
Y-202327D01*
X34317Y-204348D01*
X35865Y-205896D01*
X36052Y-206837D01*
X35325Y-207564D01*
X34488Y-209585D01*
Y-211773D01*
X35325Y-213795D01*
X36872Y-215342D01*
X38894Y-216179D01*
X41082D01*
X43103Y-215342D01*
X44650Y-213795D01*
X45488Y-211773D01*
Y-209585D01*
X44650Y-207564D01*
X43103Y-206017D01*
X42916Y-205075D01*
X43643Y-204348D01*
X44480Y-202327D01*
Y-202132D01*
X45730Y-202084D01*
X46567Y-204105D01*
X48115Y-205653D01*
X50136Y-206490D01*
X52324D01*
X54345Y-205653D01*
X55893Y-204105D01*
X56730Y-202084D01*
Y-199896D01*
X55893Y-197875D01*
X55841Y-197823D01*
X56328Y-196650D01*
X56474D01*
X58495Y-195813D01*
X60043Y-194265D01*
X60880Y-192244D01*
Y-190056D01*
X60043Y-188034D01*
X58495Y-186487D01*
X58249Y-185246D01*
X58623Y-184872D01*
X59460Y-182851D01*
Y-180663D01*
X58623Y-178641D01*
X57076Y-177094D01*
X55054Y-176257D01*
X54641D01*
X53935Y-175201D01*
X53981Y-175090D01*
Y-172902D01*
X53144Y-170880D01*
X51596Y-169333D01*
X49575Y-168496D01*
D02*
G37*
G36*
X12414Y-203720D02*
X10226D01*
X8205Y-204557D01*
X6657Y-206105D01*
X5820Y-208126D01*
Y-210314D01*
X6657Y-212335D01*
X8205Y-213883D01*
X10226Y-214720D01*
X12414D01*
X14435Y-213883D01*
X15983Y-212335D01*
X16820Y-210314D01*
Y-208126D01*
X15983Y-206105D01*
X14435Y-204557D01*
X12414Y-203720D01*
D02*
G37*
G36*
X422834Y235120D02*
X420646D01*
X418624Y234283D01*
X417077Y232736D01*
X416240Y230714D01*
Y228526D01*
X417077Y226504D01*
X418624Y224957D01*
X420646Y224120D01*
X422834D01*
X424855Y224957D01*
X426403Y226504D01*
X427240Y228526D01*
Y230714D01*
X426403Y232736D01*
X424855Y234283D01*
X422834Y235120D01*
D02*
G37*
G36*
X-274086Y227610D02*
X-276274D01*
X-278295Y226773D01*
X-279843Y225226D01*
X-280680Y223204D01*
Y221016D01*
X-279843Y218995D01*
X-278295Y217447D01*
X-276274Y216610D01*
X-274086D01*
X-272064Y217447D01*
X-270517Y218995D01*
X-269680Y221016D01*
Y223204D01*
X-270517Y225226D01*
X-272064Y226773D01*
X-274086Y227610D01*
D02*
G37*
G36*
X-290766D02*
X-292954D01*
X-294975Y226773D01*
X-296523Y225226D01*
X-297360Y223204D01*
Y221016D01*
X-296523Y218995D01*
X-294975Y217447D01*
X-292954Y216610D01*
X-290766D01*
X-288745Y217447D01*
X-287197Y218995D01*
X-286360Y221016D01*
Y223204D01*
X-287197Y225226D01*
X-288745Y226773D01*
X-290766Y227610D01*
D02*
G37*
G36*
X-306846D02*
X-309034D01*
X-311056Y226773D01*
X-312603Y225226D01*
X-313440Y223204D01*
Y221016D01*
X-312603Y218995D01*
X-311056Y217447D01*
X-309034Y216610D01*
X-306846D01*
X-304825Y217447D01*
X-303277Y218995D01*
X-302440Y221016D01*
Y223204D01*
X-303277Y225226D01*
X-304825Y226773D01*
X-306846Y227610D01*
D02*
G37*
G36*
X-321696D02*
X-323884D01*
X-325905Y226773D01*
X-327453Y225226D01*
X-328290Y223204D01*
Y221016D01*
X-327453Y218995D01*
X-325905Y217447D01*
X-323884Y216610D01*
X-321696D01*
X-319674Y217447D01*
X-318127Y218995D01*
X-317290Y221016D01*
Y223204D01*
X-318127Y225226D01*
X-319674Y226773D01*
X-321696Y227610D01*
D02*
G37*
G36*
X-264696Y216920D02*
X-266884D01*
X-268906Y216083D01*
X-270453Y214536D01*
X-271290Y212514D01*
Y210326D01*
X-270453Y208305D01*
X-268906Y206757D01*
X-266884Y205920D01*
X-264696D01*
X-262675Y206757D01*
X-261127Y208305D01*
X-260290Y210326D01*
Y212514D01*
X-261127Y214536D01*
X-262675Y216083D01*
X-264696Y216920D01*
D02*
G37*
G36*
X-282606D02*
X-284794D01*
X-286815Y216083D01*
X-288363Y214536D01*
X-289200Y212514D01*
Y210326D01*
X-288363Y208305D01*
X-286815Y206757D01*
X-284794Y205920D01*
X-282606D01*
X-280585Y206757D01*
X-279037Y208305D01*
X-278200Y210326D01*
Y212514D01*
X-279037Y214536D01*
X-280585Y216083D01*
X-282606Y216920D01*
D02*
G37*
G36*
X-299286D02*
X-301474D01*
X-303496Y216083D01*
X-305043Y214536D01*
X-305880Y212514D01*
Y210326D01*
X-305043Y208305D01*
X-303496Y206757D01*
X-301474Y205920D01*
X-299286D01*
X-297264Y206757D01*
X-295717Y208305D01*
X-294880Y210326D01*
Y212514D01*
X-295717Y214536D01*
X-297264Y216083D01*
X-299286Y216920D01*
D02*
G37*
G36*
X-314926D02*
X-317114D01*
X-319135Y216083D01*
X-320683Y214536D01*
X-321520Y212514D01*
Y210326D01*
X-320683Y208305D01*
X-319135Y206757D01*
X-317114Y205920D01*
X-314926D01*
X-312904Y206757D01*
X-311357Y208305D01*
X-310520Y210326D01*
Y212514D01*
X-311357Y214536D01*
X-312904Y216083D01*
X-314926Y216920D01*
D02*
G37*
G36*
X-328906D02*
X-331094D01*
X-333116Y216083D01*
X-334663Y214536D01*
X-335500Y212514D01*
Y210326D01*
X-334663Y208305D01*
X-333116Y206757D01*
X-331094Y205920D01*
X-328906D01*
X-326884Y206757D01*
X-325337Y208305D01*
X-324500Y210326D01*
Y212514D01*
X-325337Y214536D01*
X-326884Y216083D01*
X-328906Y216920D01*
D02*
G37*
G36*
X-315686Y184920D02*
X-317874D01*
X-319895Y184083D01*
X-321443Y182535D01*
X-322280Y180514D01*
Y178326D01*
X-321443Y176304D01*
X-319895Y174757D01*
X-317874Y173920D01*
X-315686D01*
X-313664Y174757D01*
X-312117Y176304D01*
X-311280Y178326D01*
Y180514D01*
X-312117Y182535D01*
X-313664Y184083D01*
X-315686Y184920D01*
D02*
G37*
G36*
X-273416Y183790D02*
X-275604D01*
X-277626Y182953D01*
X-279173Y181406D01*
X-280010Y179384D01*
Y177196D01*
X-279173Y175175D01*
X-277626Y173627D01*
X-275604Y172790D01*
X-273416D01*
X-271395Y173627D01*
X-269847Y175175D01*
X-269010Y177196D01*
Y179384D01*
X-269847Y181406D01*
X-271395Y182953D01*
X-273416Y183790D01*
D02*
G37*
G36*
X-295316Y183750D02*
X-297504D01*
X-299526Y182913D01*
X-301073Y181366D01*
X-301910Y179344D01*
Y177156D01*
X-301073Y175135D01*
X-299526Y173587D01*
X-297504Y172750D01*
X-295316D01*
X-293295Y173587D01*
X-291747Y175135D01*
X-290910Y177156D01*
Y179344D01*
X-291747Y181366D01*
X-293295Y182913D01*
X-295316Y183750D01*
D02*
G37*
G36*
X-294636Y165440D02*
X-296824D01*
X-298846Y164603D01*
X-300393Y163055D01*
X-301230Y161034D01*
Y158846D01*
X-300393Y156825D01*
X-298846Y155277D01*
X-296824Y154440D01*
X-294636D01*
X-292614Y155277D01*
X-291067Y156825D01*
X-290230Y158846D01*
Y161034D01*
X-291067Y163055D01*
X-292614Y164603D01*
X-294636Y165440D01*
D02*
G37*
G36*
X-295186Y146650D02*
X-297374D01*
X-299396Y145813D01*
X-300943Y144265D01*
X-301780Y142244D01*
Y140056D01*
X-300943Y138034D01*
X-299396Y136487D01*
X-297374Y135650D01*
X-295186D01*
X-293165Y136487D01*
X-291617Y138034D01*
X-290780Y140056D01*
Y142244D01*
X-291617Y144265D01*
X-293165Y145813D01*
X-295186Y146650D01*
D02*
G37*
G36*
X-309526Y136830D02*
X-311714D01*
X-313736Y135993D01*
X-315283Y134445D01*
X-316120Y132424D01*
Y130236D01*
X-315283Y128215D01*
X-313736Y126667D01*
X-311714Y125830D01*
X-309526D01*
X-307505Y126667D01*
X-305957Y128215D01*
X-305120Y130236D01*
Y132424D01*
X-305957Y134445D01*
X-307505Y135993D01*
X-309526Y136830D01*
D02*
G37*
G36*
X-281446Y136830D02*
X-283634D01*
X-285655Y135993D01*
X-287203Y134445D01*
X-288040Y132424D01*
Y130236D01*
X-287203Y128215D01*
X-285655Y126667D01*
X-283634Y125830D01*
X-281446D01*
X-279424Y126667D01*
X-277877Y128215D01*
X-277040Y130236D01*
Y132424D01*
X-277877Y134445D01*
X-279424Y135993D01*
X-281446Y136830D01*
D02*
G37*
G36*
X-295306Y126740D02*
X-297494D01*
X-299515Y125903D01*
X-301063Y124355D01*
X-301900Y122334D01*
Y120146D01*
X-301063Y118125D01*
X-299515Y116577D01*
X-297494Y115740D01*
X-295306D01*
X-293284Y116577D01*
X-291737Y118125D01*
X-290900Y120146D01*
Y122334D01*
X-291737Y124355D01*
X-293284Y125903D01*
X-295306Y126740D01*
D02*
G37*
G36*
X-294536Y90740D02*
X-296724D01*
X-298745Y89903D01*
X-300293Y88356D01*
X-301130Y86334D01*
Y84146D01*
X-300293Y82125D01*
X-298745Y80577D01*
X-296724Y79740D01*
X-294536D01*
X-292514Y80577D01*
X-290967Y82125D01*
X-290130Y84146D01*
Y86334D01*
X-290967Y88356D01*
X-292514Y89903D01*
X-294536Y90740D01*
D02*
G37*
G36*
X-280316Y80650D02*
X-282504D01*
X-284526Y79813D01*
X-286073Y78266D01*
X-286910Y76244D01*
Y74056D01*
X-286073Y72035D01*
X-284526Y70487D01*
X-282504Y69650D01*
X-280316D01*
X-278295Y70487D01*
X-276747Y72035D01*
X-275910Y74056D01*
Y76244D01*
X-276747Y78266D01*
X-278295Y79813D01*
X-280316Y80650D01*
D02*
G37*
G36*
X-308256Y80070D02*
X-310444D01*
X-312465Y79233D01*
X-314013Y77685D01*
X-314850Y75664D01*
Y73476D01*
X-314013Y71455D01*
X-312465Y69907D01*
X-310444Y69070D01*
X-308256D01*
X-306234Y69907D01*
X-304687Y71455D01*
X-303850Y73476D01*
Y75664D01*
X-304687Y77685D01*
X-306234Y79233D01*
X-308256Y80070D01*
D02*
G37*
G36*
X-294536Y64080D02*
X-296724D01*
X-298745Y63243D01*
X-300293Y61695D01*
X-301130Y59674D01*
Y57486D01*
X-300293Y55465D01*
X-298745Y53917D01*
X-296724Y53080D01*
X-294536D01*
X-292514Y53917D01*
X-290967Y55465D01*
X-290130Y57486D01*
Y59674D01*
X-290967Y61695D01*
X-292514Y63243D01*
X-294536Y64080D01*
D02*
G37*
G36*
X-293696Y38960D02*
X-295884D01*
X-297906Y38123D01*
X-299453Y36576D01*
X-300290Y34554D01*
Y32366D01*
X-299453Y30345D01*
X-297906Y28797D01*
X-295884Y27960D01*
X-293696D01*
X-291674Y28797D01*
X-290127Y30345D01*
X-289290Y32366D01*
Y34554D01*
X-290127Y36576D01*
X-291674Y38123D01*
X-293696Y38960D01*
D02*
G37*
G36*
X273994Y-21550D02*
X271806D01*
X269785Y-22387D01*
X268237Y-23935D01*
X267400Y-25956D01*
Y-28144D01*
X268237Y-30166D01*
X269785Y-31713D01*
X271806Y-32550D01*
X273994D01*
X276015Y-31713D01*
X277563Y-30166D01*
X278400Y-28144D01*
Y-25956D01*
X277563Y-23935D01*
X276015Y-22387D01*
X273994Y-21550D01*
D02*
G37*
G36*
X317544Y-22100D02*
X315356D01*
X313335Y-22937D01*
X311787Y-24485D01*
X310950Y-26506D01*
Y-28694D01*
X311787Y-30715D01*
X313335Y-32263D01*
X315356Y-33100D01*
X317544D01*
X319566Y-32263D01*
X321113Y-30715D01*
X321950Y-28694D01*
Y-26506D01*
X321113Y-24485D01*
X319566Y-22937D01*
X317544Y-22100D01*
D02*
G37*
G36*
X295644Y-22140D02*
X293456D01*
X291434Y-22977D01*
X289887Y-24525D01*
X289050Y-26546D01*
Y-28734D01*
X289887Y-30756D01*
X291434Y-32303D01*
X293456Y-33140D01*
X295644D01*
X297666Y-32303D01*
X299213Y-30756D01*
X300050Y-28734D01*
Y-26546D01*
X299213Y-24525D01*
X297666Y-22977D01*
X295644Y-22140D01*
D02*
G37*
G36*
X296324Y-40450D02*
X294136D01*
X292115Y-41287D01*
X290567Y-42835D01*
X289730Y-44856D01*
Y-47044D01*
X290567Y-49065D01*
X292115Y-50613D01*
X294136Y-51450D01*
X296324D01*
X298346Y-50613D01*
X299893Y-49065D01*
X300730Y-47044D01*
Y-44856D01*
X299893Y-42835D01*
X298346Y-41287D01*
X296324Y-40450D01*
D02*
G37*
G36*
X295774Y-59240D02*
X293586D01*
X291565Y-60077D01*
X290017Y-61624D01*
X289180Y-63646D01*
Y-65834D01*
X290017Y-67856D01*
X291565Y-69403D01*
X293586Y-70240D01*
X295774D01*
X297796Y-69403D01*
X299343Y-67856D01*
X300180Y-65834D01*
Y-63646D01*
X299343Y-61624D01*
X297796Y-60077D01*
X295774Y-59240D01*
D02*
G37*
G36*
X281434Y-69060D02*
X279246D01*
X277225Y-69897D01*
X275677Y-71445D01*
X274840Y-73466D01*
Y-75654D01*
X275677Y-77675D01*
X277225Y-79223D01*
X279246Y-80060D01*
X281434D01*
X283456Y-79223D01*
X285003Y-77675D01*
X285840Y-75654D01*
Y-73466D01*
X285003Y-71445D01*
X283456Y-69897D01*
X281434Y-69060D01*
D02*
G37*
G36*
X309514Y-69060D02*
X307326D01*
X305305Y-69897D01*
X303757Y-71445D01*
X302920Y-73466D01*
Y-75654D01*
X303757Y-77675D01*
X305305Y-79223D01*
X307326Y-80060D01*
X309514D01*
X311535Y-79223D01*
X313083Y-77675D01*
X313920Y-75654D01*
Y-73466D01*
X313083Y-71445D01*
X311535Y-69897D01*
X309514Y-69060D01*
D02*
G37*
G36*
X295654Y-79150D02*
X293466D01*
X291444Y-79987D01*
X289897Y-81535D01*
X289060Y-83556D01*
Y-85744D01*
X289897Y-87766D01*
X291444Y-89313D01*
X293466Y-90150D01*
X295654D01*
X297675Y-89313D01*
X299223Y-87766D01*
X300060Y-85744D01*
Y-83556D01*
X299223Y-81535D01*
X297675Y-79987D01*
X295654Y-79150D01*
D02*
G37*
G36*
X296424Y-115150D02*
X294236D01*
X292215Y-115987D01*
X290667Y-117535D01*
X289830Y-119556D01*
Y-121744D01*
X290667Y-123765D01*
X292215Y-125313D01*
X294236Y-126150D01*
X296424D01*
X298445Y-125313D01*
X299993Y-123765D01*
X300830Y-121744D01*
Y-119556D01*
X299993Y-117535D01*
X298445Y-115987D01*
X296424Y-115150D01*
D02*
G37*
G36*
X310644Y-125240D02*
X308456D01*
X306434Y-126077D01*
X304887Y-127625D01*
X304050Y-129646D01*
Y-131834D01*
X304887Y-133855D01*
X306434Y-135403D01*
X308456Y-136240D01*
X310644D01*
X312666Y-135403D01*
X314213Y-133855D01*
X315050Y-131834D01*
Y-129646D01*
X314213Y-127625D01*
X312666Y-126077D01*
X310644Y-125240D01*
D02*
G37*
G36*
X282704Y-125820D02*
X280516D01*
X278494Y-126657D01*
X276947Y-128204D01*
X276110Y-130226D01*
Y-132414D01*
X276947Y-134436D01*
X278494Y-135983D01*
X280516Y-136820D01*
X282704D01*
X284725Y-135983D01*
X286273Y-134436D01*
X287110Y-132414D01*
Y-130226D01*
X286273Y-128204D01*
X284725Y-126657D01*
X282704Y-125820D01*
D02*
G37*
G36*
X296424Y-141810D02*
X294236D01*
X292215Y-142647D01*
X290667Y-144194D01*
X289830Y-146216D01*
Y-148404D01*
X290667Y-150426D01*
X292215Y-151973D01*
X294236Y-152810D01*
X296424D01*
X298445Y-151973D01*
X299993Y-150426D01*
X300830Y-148404D01*
Y-146216D01*
X299993Y-144194D01*
X298445Y-142647D01*
X296424Y-141810D01*
D02*
G37*
G36*
X297264Y-166930D02*
X295076D01*
X293055Y-167767D01*
X291507Y-169314D01*
X290670Y-171336D01*
Y-173524D01*
X291507Y-175546D01*
X293055Y-177093D01*
X295076Y-177930D01*
X297264D01*
X299286Y-177093D01*
X300833Y-175546D01*
X301670Y-173524D01*
Y-171336D01*
X300833Y-169314D01*
X299286Y-167767D01*
X297264Y-166930D01*
D02*
G37*
G36*
X13934Y-244680D02*
X11746D01*
X9725Y-245517D01*
X8675Y-246567D01*
X7958Y-246970D01*
X7015Y-246567D01*
X6065Y-245617D01*
X4044Y-244780D01*
X1856D01*
X-166Y-245617D01*
X-1713Y-247164D01*
X-2550Y-249186D01*
Y-251374D01*
X-1713Y-253396D01*
X-166Y-254943D01*
X1856Y-255780D01*
X4044D01*
X6065Y-254943D01*
X7115Y-253893D01*
X7832Y-253489D01*
X8775Y-253893D01*
X9725Y-254843D01*
X11746Y-255680D01*
X13934D01*
X15955Y-254843D01*
X17503Y-253295D01*
X18340Y-251274D01*
Y-249086D01*
X17503Y-247064D01*
X15955Y-245517D01*
X13934Y-244680D01*
D02*
G37*
G36*
X64324Y-279340D02*
X62136D01*
X60114Y-280177D01*
X58567Y-281724D01*
X57730Y-283746D01*
Y-285934D01*
X58567Y-287955D01*
X60114Y-289503D01*
X62136Y-290340D01*
X64324D01*
X66346Y-289503D01*
X67893Y-287955D01*
X68730Y-285934D01*
Y-283746D01*
X67893Y-281724D01*
X66346Y-280177D01*
X64324Y-279340D01*
D02*
G37*
G36*
X24294Y-291610D02*
X22106D01*
X20085Y-292447D01*
X18537Y-293995D01*
X17700Y-296016D01*
Y-298204D01*
X18537Y-300226D01*
X19773Y-301462D01*
X19968Y-302240D01*
X19773Y-303018D01*
X18537Y-304254D01*
X17700Y-306276D01*
Y-308464D01*
X18537Y-310485D01*
X19922Y-311870D01*
X20013Y-312605D01*
X19922Y-313340D01*
X18537Y-314725D01*
X17700Y-316746D01*
Y-318934D01*
X18537Y-320956D01*
X19915Y-322333D01*
X20011Y-323070D01*
X19915Y-323807D01*
X18537Y-325185D01*
X17700Y-327206D01*
Y-329394D01*
X18537Y-331415D01*
X20085Y-332963D01*
X22106Y-333800D01*
X24294D01*
X26316Y-332963D01*
X27863Y-331415D01*
X28700Y-329394D01*
Y-327206D01*
X27863Y-325185D01*
X26485Y-323807D01*
X26389Y-323070D01*
X26485Y-322333D01*
X27863Y-320956D01*
X28700Y-318934D01*
Y-316746D01*
X27863Y-314725D01*
X26478Y-313340D01*
X26387Y-312605D01*
X26478Y-311870D01*
X27863Y-310485D01*
X28700Y-308464D01*
Y-306276D01*
X27863Y-304254D01*
X26627Y-303018D01*
X26432Y-302240D01*
X26627Y-301462D01*
X27863Y-300226D01*
X28700Y-298204D01*
Y-296016D01*
X27863Y-293995D01*
X26316Y-292447D01*
X24294Y-291610D01*
D02*
G37*
%LPD*%
D12*
X-103838Y-186228D02*
X-97488D01*
X-104890Y-187280D02*
X-103838Y-186228D01*
X-97488D02*
X-81700Y-170440D01*
Y-107310D02*
X-59480Y-85090D01*
X20969D02*
X70000Y-36059D01*
X-59480Y-85090D02*
X20969D01*
X-81700Y-170440D02*
Y-107310D01*
X70000Y-36059D02*
Y-31500D01*
D14*
X-7Y-31232D02*
Y21590D01*
Y-31232D02*
X2850Y-34089D01*
Y-34630D02*
Y-34089D01*
D22*
X172060Y-285819D02*
X173120D01*
X155120Y-268880D02*
X172060Y-285819D01*
X154060Y-268880D02*
X155120D01*
X33406Y447604D02*
X36556D01*
X-23420Y475560D02*
X5450D01*
X33406Y447604D01*
X36556D02*
X37130Y447030D01*
D143*
X81560Y356240D02*
D03*
X-9640Y356470D02*
D03*
X-99450Y356240D02*
D03*
D144*
X121160D02*
D03*
X29960Y356470D02*
D03*
X-59850Y356240D02*
D03*
D156*
X840000Y0D02*
G03*
X840000Y0I-840000J0D01*
G01*
D166*
X-31806Y-143986D02*
X-21230Y-133410D01*
X-7970D01*
X-58131Y-143986D02*
X-31806D01*
X66300Y-241630D02*
Y-143400D01*
Y-241630D02*
X77890Y-253220D01*
X66300Y-143400D02*
X84870Y-124830D01*
X-26530Y-215660D02*
X-21530D01*
X-38670D02*
X-26530D01*
X-65100Y-254230D02*
X-26530Y-215660D01*
X-59517Y-194813D02*
X-38670Y-215660D01*
X-59517Y-194813D02*
Y-143986D01*
X84795Y-124755D02*
Y-114625D01*
Y-124755D02*
X84870Y-124830D01*
X84720Y-114550D02*
X84795Y-114625D01*
X-21030Y-215160D02*
X-6339D01*
X-21530Y-215660D02*
X-21030Y-215160D01*
X31721Y-253220D02*
X77890D01*
X-6339Y-215160D02*
X31721Y-253220D01*
X-252730Y-459740D02*
X-227330D01*
X252640Y356700D02*
X394970D01*
X494500Y257170D01*
Y-182400D02*
Y257170D01*
X362060Y-314840D02*
X494500Y-182400D01*
X-129140Y-41016D02*
Y-40745D01*
X29905Y-4515D02*
X66250D01*
X13510Y11880D02*
X29905Y-4515D01*
X66250Y-4786D02*
X70460Y-8996D01*
X66250Y-4786D02*
Y-4515D01*
X70460Y-20940D02*
Y-8996D01*
Y-20940D02*
X93970D01*
X117230Y-44200D01*
X158370D01*
X270450Y-314840D02*
X362060D01*
X93080Y485790D02*
X123550D01*
X252640Y356700D01*
X240047Y-345243D02*
X270450Y-314840D01*
X240047Y-382000D02*
Y-345243D01*
D167*
X-109980Y-483630D02*
Y-397410D01*
X-65100Y-352530D02*
Y-254230D01*
X-109980Y-397410D02*
X-65100Y-352530D01*
X172980Y-530290D02*
Y-509850D01*
X156460Y-493120D02*
X173190Y-509850D01*
X-109980Y-483630D02*
X-100490Y-493120D01*
X156460D01*
X182740Y-529670D02*
X182840Y-529570D01*
X182670Y-509740D02*
X182840Y-509910D01*
Y-529570D02*
Y-509910D01*
X182670Y-509740D02*
X204885Y-487525D01*
Y-282100D01*
X-109590Y-211740D02*
X-65100Y-256230D01*
X-119990Y-201340D02*
X-109590Y-211740D01*
X-64410Y-67810D02*
Y-50050D01*
X-83410Y-86810D02*
X-64410Y-67810D01*
X192010Y-75935D02*
Y29850D01*
X134420Y87440D02*
X192010Y29850D01*
X164800Y-48725D02*
X192010Y-75935D01*
X345560Y-237471D02*
X468200Y-114831D01*
Y230900D01*
X281900Y-239470D02*
X343050D01*
X244160D02*
X281900D01*
X343540Y-239960D02*
X345560Y-237940D01*
Y-237471D01*
X204885Y-278745D02*
X211070Y-272560D01*
X212510D01*
X211790Y-271840D02*
X244160Y-239470D01*
X-119990Y-201340D02*
Y-161360D01*
X-44210Y-50050D02*
X-43440Y-49280D01*
X-64410Y-50050D02*
X-44210D01*
X298500Y124720D02*
X298610Y124610D01*
X307820D01*
X322810Y139600D01*
Y224390D01*
Y263470D01*
X90170Y-445320D02*
X108798Y-426693D01*
X30650Y-445320D02*
X90170D01*
X1020Y-474950D02*
X30650Y-445320D01*
X-82480Y-474950D02*
X1020D01*
X-92070D02*
X-82480D01*
X312090Y-529670D02*
X329540Y-512220D01*
Y-418920D01*
X182740Y-529670D02*
X312090D01*
X76920Y-528820D02*
X128110Y-580010D01*
X-119210Y-528820D02*
X76920D01*
X-188290Y-459740D02*
X-119210Y-528820D01*
X108798Y-426693D02*
Y-385640D01*
X105157Y-382000D02*
X108798Y-385640D01*
X192010Y-269960D02*
X204150Y-282100D01*
X192010Y-269960D02*
Y-75935D01*
X164800Y-48725D02*
Y-48725D01*
X158370Y-44200D02*
X160275D01*
X164800Y-48725D01*
X84520Y87440D02*
X134420D01*
X312500Y273780D02*
X322810Y263470D01*
X312500Y273780D02*
X425320D01*
X-659460Y73820D02*
X-536390Y-49250D01*
X308870Y-580010D02*
X360050Y-528830D01*
X128110Y-580010D02*
X308870D01*
X-227330Y-459740D02*
X-188290D01*
X360050Y-480880D02*
X363230Y-477700D01*
X360050Y-528830D02*
Y-480880D01*
X329540Y-418920D02*
X519270Y-229190D01*
X-659460Y73820D02*
Y84060D01*
X-536390Y-259620D02*
Y-49250D01*
X-554720Y-299140D02*
Y-277630D01*
X-554400D02*
X-536390Y-259620D01*
X-3Y547300D02*
X36957Y510340D01*
X136450D01*
X253220Y393570D01*
X394710D01*
X519270Y269010D01*
Y-229190D02*
Y269010D01*
X293010Y310330D02*
X312500Y290840D01*
X154640Y275950D02*
Y310330D01*
X293010D01*
X154640D02*
Y330849D01*
X108020Y229330D02*
X154640Y275950D01*
X312500Y273780D02*
Y290840D01*
X425320Y273780D02*
X468200Y230900D01*
X-138460Y-83881D02*
X-135531Y-86810D01*
X-138460Y-83881D02*
Y-50336D01*
X-135531Y-86810D02*
X-105760D01*
X-138460Y-50336D02*
X-129140Y-41016D01*
X-105760Y-86810D02*
X-83410D01*
X-105760Y-119372D02*
Y-86810D01*
Y-147130D02*
Y-119372D01*
X-119990Y-161360D02*
X-105760Y-147130D01*
D169*
X365400Y427300D02*
D03*
Y452700D02*
D03*
X340000D02*
D03*
Y427300D02*
D03*
X314600D02*
D03*
X272700Y503500D02*
D03*
Y478100D02*
D03*
X247300D02*
D03*
Y503500D02*
D03*
X272700Y452700D02*
D03*
X-247300Y478100D02*
D03*
Y503500D02*
D03*
Y452700D02*
D03*
X-272700Y503500D02*
D03*
Y478100D02*
D03*
X-7Y46990D02*
D03*
Y21590D02*
D03*
X50793Y46990D02*
D03*
X25393D02*
D03*
X-25407D02*
D03*
X-50807D02*
D03*
Y21590D02*
D03*
X-25407D02*
D03*
X25393D02*
D03*
X220596Y-504110D02*
D03*
Y-478710D02*
D03*
X245996D02*
D03*
X220596Y-453310D02*
D03*
X245996Y-504110D02*
D03*
X-25403Y547300D02*
D03*
X25397D02*
D03*
X-3D02*
D03*
X25397Y572700D02*
D03*
X-3D02*
D03*
X-365400Y427300D02*
D03*
X-340000Y452700D02*
D03*
Y427300D02*
D03*
X-314600Y452700D02*
D03*
Y427300D02*
D03*
D170*
X314600Y452700D02*
D03*
X50793Y21590D02*
D03*
X-25403Y572700D02*
D03*
X-365400Y452700D02*
D03*
D171*
X247300D02*
D03*
X-272700D02*
D03*
X245996Y-453310D02*
D03*
D172*
X-252730Y-307340D02*
D03*
X-227330D02*
D03*
X-455930Y-459740D02*
D03*
X-405130D02*
D03*
X-252730D02*
D03*
X-227330D02*
D03*
X-455930Y-307340D02*
D03*
D173*
X298960Y-477700D02*
D03*
X363230D02*
D03*
X184660Y384750D02*
D03*
X-163000Y-177100D02*
D03*
Y-42700D02*
D03*
X158750Y-178100D02*
D03*
X158370Y-44200D02*
D03*
D174*
X298960Y-452300D02*
D03*
X363230D02*
D03*
X184660Y359350D02*
D03*
X-163000Y-151700D02*
D03*
Y-126300D02*
D03*
Y-100900D02*
D03*
Y8100D02*
D03*
Y33500D02*
D03*
Y-17300D02*
D03*
X158750Y-101900D02*
D03*
Y-152700D02*
D03*
Y-127300D02*
D03*
X158370Y-18800D02*
D03*
Y32000D02*
D03*
Y6600D02*
D03*
D175*
X-164400Y-246000D02*
D03*
X-139000D02*
D03*
X316247Y-382000D02*
D03*
X265447D02*
D03*
X290847D02*
D03*
X155957D02*
D03*
X130557D02*
D03*
X181357D02*
D03*
D176*
X-113600Y-246000D02*
D03*
X240047Y-382000D02*
D03*
X105157D02*
D03*
D177*
X84520Y87440D02*
D03*
D178*
X-95479D02*
D03*
X-75479D02*
D03*
X-55479D02*
D03*
X-35480D02*
D03*
X-15480D02*
D03*
X4520D02*
D03*
X24520D02*
D03*
X44520D02*
D03*
X64520D02*
D03*
X84522Y307438D02*
D03*
X64522D02*
D03*
X44522D02*
D03*
X24522D02*
D03*
X4522D02*
D03*
X-15478D02*
D03*
X-35478D02*
D03*
X-55478D02*
D03*
X-75478D02*
D03*
X-95478D02*
D03*
D179*
X878992Y235525D02*
D03*
X-235525Y878992D02*
D03*
X627852Y168232D02*
D03*
X168232Y627852D02*
D03*
X643467Y643467D02*
D03*
X235525Y878992D02*
D03*
Y-878992D02*
D03*
X643467Y-643467D02*
D03*
X459619Y-459619D02*
D03*
X878992Y-235525D02*
D03*
X-627852Y-168232D02*
D03*
X-643467Y-643467D02*
D03*
X-235525Y-878992D02*
D03*
X-168232Y-627852D02*
D03*
X-878992Y235525D02*
D03*
X-643467Y643467D02*
D03*
X-459619Y459619D02*
D03*
X-878992Y-235525D02*
D03*
D180*
X878992Y258385D02*
D03*
X856133Y235525D02*
D03*
X878992Y212665D02*
D03*
X901852Y235525D02*
D03*
X895157Y251690D02*
D03*
X862828D02*
D03*
Y219361D02*
D03*
X895157D02*
D03*
X-235525Y901852D02*
D03*
X-258385Y878992D02*
D03*
X-235525Y856133D02*
D03*
X-212665Y878992D02*
D03*
X-219361Y895157D02*
D03*
X-251690D02*
D03*
Y862828D02*
D03*
X-219361D02*
D03*
X627852Y191092D02*
D03*
X604992Y168232D02*
D03*
X627852Y145372D02*
D03*
X650712Y168232D02*
D03*
X644016Y184397D02*
D03*
X611687Y184397D02*
D03*
Y152068D02*
D03*
X644016Y152068D02*
D03*
X168232Y650712D02*
D03*
X145372Y627852D02*
D03*
X168232Y604992D02*
D03*
X191092Y627852D02*
D03*
X184397Y644016D02*
D03*
X152068Y644016D02*
D03*
X152068Y611687D02*
D03*
X184397Y611687D02*
D03*
X643467Y666327D02*
D03*
X620607Y643467D02*
D03*
X643467Y620607D02*
D03*
X666327Y643467D02*
D03*
X659632Y659632D02*
D03*
X627303D02*
D03*
Y627303D02*
D03*
X659632Y627303D02*
D03*
X235525Y901852D02*
D03*
X212665Y878992D02*
D03*
X235525Y856133D02*
D03*
X258385Y878992D02*
D03*
X251690Y895157D02*
D03*
X219361D02*
D03*
Y862828D02*
D03*
X251690D02*
D03*
X235525Y-856133D02*
D03*
X212665Y-878992D02*
D03*
X235525Y-901852D02*
D03*
X258385Y-878992D02*
D03*
X251690Y-862828D02*
D03*
X219361D02*
D03*
X219361Y-895157D02*
D03*
X251690D02*
D03*
X659632Y-659632D02*
D03*
X627303Y-659632D02*
D03*
Y-627303D02*
D03*
X659632Y-627303D02*
D03*
X666327Y-643467D02*
D03*
X643467Y-666327D02*
D03*
X620607Y-643467D02*
D03*
X643467Y-620607D02*
D03*
X459620Y-436759D02*
D03*
X436760Y-459619D02*
D03*
X459620Y-482479D02*
D03*
X482479Y-459619D02*
D03*
X475784Y-443455D02*
D03*
X443455Y-443455D02*
D03*
X443455Y-475784D02*
D03*
X475784Y-475784D02*
D03*
X878992Y-212665D02*
D03*
X856133Y-235525D02*
D03*
X878992Y-258385D02*
D03*
X901852Y-235525D02*
D03*
X895157Y-219361D02*
D03*
X862828D02*
D03*
Y-251690D02*
D03*
X895157D02*
D03*
X-627852Y-145372D02*
D03*
X-650712Y-168232D02*
D03*
X-627852Y-191092D02*
D03*
X-604992Y-168232D02*
D03*
X-611687Y-152068D02*
D03*
X-644016D02*
D03*
Y-184397D02*
D03*
X-611687D02*
D03*
X-627303Y-659632D02*
D03*
X-659632Y-659632D02*
D03*
X-659632Y-627303D02*
D03*
X-627303D02*
D03*
X-620607Y-643467D02*
D03*
X-643467Y-666327D02*
D03*
X-666327Y-643467D02*
D03*
X-643467Y-620607D02*
D03*
X-219361Y-895157D02*
D03*
X-251690Y-895157D02*
D03*
Y-862828D02*
D03*
X-219361Y-862828D02*
D03*
X-212665Y-878992D02*
D03*
X-235525Y-901852D02*
D03*
X-258385Y-878992D02*
D03*
X-235525Y-856133D02*
D03*
X-168232Y-604992D02*
D03*
X-191092Y-627852D02*
D03*
X-168232Y-650712D02*
D03*
X-145372Y-627852D02*
D03*
X-152068Y-611687D02*
D03*
X-184397D02*
D03*
Y-644016D02*
D03*
X-152068D02*
D03*
X-878992Y258385D02*
D03*
X-901852Y235525D02*
D03*
X-878992Y212665D02*
D03*
X-856133Y235525D02*
D03*
X-862828Y251690D02*
D03*
X-895157Y251690D02*
D03*
X-895157Y219361D02*
D03*
X-862828D02*
D03*
X-627303Y627303D02*
D03*
X-659632Y627303D02*
D03*
Y659632D02*
D03*
X-627303Y659632D02*
D03*
X-620607Y643467D02*
D03*
X-643467Y620607D02*
D03*
X-666327Y643467D02*
D03*
X-643467Y666327D02*
D03*
X-443455Y443455D02*
D03*
X-475784Y443455D02*
D03*
X-475784Y475784D02*
D03*
X-443455Y475784D02*
D03*
X-436759Y459619D02*
D03*
X-459619Y436759D02*
D03*
X-482479Y459619D02*
D03*
X-459619Y482480D02*
D03*
X-862828Y-251690D02*
D03*
X-895157D02*
D03*
X-895157Y-219361D02*
D03*
X-862828Y-219361D02*
D03*
X-856133Y-235525D02*
D03*
X-878992Y-258385D02*
D03*
X-901852Y-235525D02*
D03*
X-878992Y-212665D02*
D03*
D181*
X-420000Y727461D02*
D03*
X727461Y420000D02*
D03*
X840000Y0D02*
D03*
X0Y840000D02*
D03*
X420000Y727461D02*
D03*
Y-727461D02*
D03*
X727461Y-420000D02*
D03*
X0Y-840000D02*
D03*
X-840000Y0D02*
D03*
X-727461Y-420000D02*
D03*
X-420000Y-727461D02*
D03*
X-727461Y420000D02*
D03*
D182*
X-370000Y640859D02*
D03*
X370000Y-640859D02*
D03*
D183*
X640859Y370000D02*
D03*
X-640859Y-370000D02*
D03*
D184*
X740000Y-0D02*
D03*
X-740000Y0D02*
D03*
D185*
X0Y740000D02*
D03*
X-0Y-740000D02*
D03*
D186*
X370000Y640859D02*
D03*
X-370000Y-640859D02*
D03*
D187*
X640859Y-370000D02*
D03*
X-640859Y370000D02*
D03*
D188*
X54410Y-138740D02*
D03*
X48210Y-146390D02*
D03*
X55310Y-153600D02*
D03*
X-25070Y2360D02*
D03*
X37080Y34060D02*
D03*
X-12400Y34410D02*
D03*
X36080Y-38170D02*
D03*
X169570Y-431130D02*
D03*
X150570Y-430880D02*
D03*
X130370Y-431010D02*
D03*
X-296410Y178250D02*
D03*
X-281410Y75150D02*
D03*
X-309350Y74570D02*
D03*
X-295630Y85240D02*
D03*
X-295630Y58580D02*
D03*
X-294790Y33460D02*
D03*
X-296400Y121240D02*
D03*
X-282540Y131330D02*
D03*
X-310620Y131330D02*
D03*
X-274510Y178290D02*
D03*
X-295730Y159940D02*
D03*
X-296280Y141150D02*
D03*
X294680Y-64740D02*
D03*
X295230Y-45950D02*
D03*
X272900Y-27050D02*
D03*
X316450Y-27600D02*
D03*
X353079Y-356831D02*
D03*
X218079Y-386831D02*
D03*
X173079Y-356831D02*
D03*
X143079D02*
D03*
X113079D02*
D03*
X-171921Y-446831D02*
D03*
Y-506831D02*
D03*
X-156921Y-536831D02*
D03*
X-171921Y-566831D02*
D03*
X-186921Y-536831D02*
D03*
X-216921D02*
D03*
X-231921Y-566831D02*
D03*
X-471921Y333169D02*
D03*
X-531921D02*
D03*
X263079Y513169D02*
D03*
X233079Y273169D02*
D03*
X188079Y243169D02*
D03*
Y183169D02*
D03*
X158079Y243169D02*
D03*
X-51921Y63169D02*
D03*
X-81921D02*
D03*
X-66921Y33169D02*
D03*
X-141921Y63169D02*
D03*
X-171921D02*
D03*
X-201921Y-176831D02*
D03*
X-351921Y-296831D02*
D03*
X-336921Y-326831D02*
D03*
X-351921Y-356831D02*
D03*
X-336921Y-386831D02*
D03*
Y-446831D02*
D03*
X-381921Y-296831D02*
D03*
X-366921Y-326831D02*
D03*
Y-386831D02*
D03*
Y-446831D02*
D03*
X-396921Y-326831D02*
D03*
Y-386831D02*
D03*
X-426921Y-326831D02*
D03*
X-441921Y-356831D02*
D03*
X-426921Y-386831D02*
D03*
X-456921D02*
D03*
X-162630Y492550D02*
D03*
X-192240Y486970D02*
D03*
X280340Y-74560D02*
D03*
X308420Y-74560D02*
D03*
X294560Y-84650D02*
D03*
X-316780Y179420D02*
D03*
X172980Y-530290D02*
D03*
Y-520420D02*
D03*
Y-509850D02*
D03*
X182670Y-519770D02*
D03*
Y-509740D02*
D03*
X-118900Y-375830D02*
D03*
X-495200Y263080D02*
D03*
X-146510Y-473150D02*
D03*
X-67310Y-388220D02*
D03*
X314250Y-204920D02*
D03*
X294870D02*
D03*
X231990D02*
D03*
X251550Y-204480D02*
D03*
X-39760Y-38470D02*
D03*
X113450Y36286D02*
D03*
X112430Y25090D02*
D03*
X71378Y10021D02*
D03*
X70750Y21970D02*
D03*
X421740Y229620D02*
D03*
X-185140Y474160D02*
D03*
X99970Y435050D02*
D03*
X172525Y459415D02*
D03*
X29470Y471780D02*
D03*
X52326Y432990D02*
D03*
X-121600Y-60120D02*
D03*
X12840Y-250180D02*
D03*
X2950Y-250280D02*
D03*
X-181650Y-334080D02*
D03*
X-35352Y-339298D02*
D03*
X16590Y-364900D02*
D03*
X16670Y-375000D02*
D03*
X16520Y-384740D02*
D03*
X144890Y52902D02*
D03*
X137890Y46480D02*
D03*
X129270Y42250D02*
D03*
X128090Y30790D02*
D03*
X50510Y-39010D02*
D03*
X-60129Y-134506D02*
D03*
X-59517Y-143986D02*
D03*
X-54517Y-125480D02*
D03*
X-47140Y-118840D02*
D03*
X-105255Y-199225D02*
D03*
X-17810Y-260280D02*
D03*
X102168Y-228514D02*
D03*
X6770Y-136160D02*
D03*
X-497910Y240170D02*
D03*
X-435533Y241907D02*
D03*
X-402640Y272960D02*
D03*
X-467840Y290120D02*
D03*
X569769Y206550D02*
D03*
X343540Y-239960D02*
D03*
X212510Y-272560D02*
D03*
X173120Y-285819D02*
D03*
X154060Y-268880D02*
D03*
X112780Y-224580D02*
D03*
X118450Y-237170D02*
D03*
X88004Y-220074D02*
D03*
X92670Y-228350D02*
D03*
X17210Y-194550D02*
D03*
X24260Y-210380D02*
D03*
X-9540Y-172350D02*
D03*
X-18350Y-179210D02*
D03*
X84720Y-114550D02*
D03*
X84870Y-124830D02*
D03*
X19658Y-174041D02*
D03*
X12390Y-180960D02*
D03*
X44240Y-187690D02*
D03*
X38980Y-201233D02*
D03*
X-13660Y-207160D02*
D03*
X-24528Y-169628D02*
D03*
X-19990Y-151090D02*
D03*
X-109590Y-211740D02*
D03*
X-120490Y-220580D02*
D03*
X-104890Y-187280D02*
D03*
X-103960Y-172020D02*
D03*
X-485000Y-16700D02*
D03*
X-485190Y-27980D02*
D03*
Y-39260D02*
D03*
X-192690Y233840D02*
D03*
X-193020Y209880D02*
D03*
Y222340D02*
D03*
Y197480D02*
D03*
X-200460Y409390D02*
D03*
X-200620Y418750D02*
D03*
X-212580Y418790D02*
D03*
X-212670Y409530D02*
D03*
X-206870Y401020D02*
D03*
X-246620Y356250D02*
D03*
X102560Y476290D02*
D03*
X20360Y446040D02*
D03*
X-35000Y236556D02*
D03*
X49490Y239130D02*
D03*
X49890Y177020D02*
D03*
X115270Y49890D02*
D03*
X-108780Y31368D02*
D03*
X-93468Y37473D02*
D03*
X-93433Y46973D02*
D03*
X-64410Y-50050D02*
D03*
X-43440Y-49280D02*
D03*
X-17500Y-56770D02*
D03*
X3631Y-50039D02*
D03*
X-55310Y-10950D02*
D03*
X-7970Y-133410D02*
D03*
X22025Y-130345D02*
D03*
X48481Y-173996D02*
D03*
X11320Y-209220D02*
D03*
X-21530Y-215660D02*
D03*
X51767Y-331140D02*
D03*
X23200Y-297110D02*
D03*
Y-307370D02*
D03*
Y-317840D02*
D03*
Y-328300D02*
D03*
X89910Y-157991D02*
D03*
X53960Y-181757D02*
D03*
X55380Y-191150D02*
D03*
X-121750Y553110D02*
D03*
X298500Y124720D02*
D03*
X551557Y206550D02*
D03*
X551062Y196815D02*
D03*
X551352Y187080D02*
D03*
X49870Y190350D02*
D03*
X50030Y224030D02*
D03*
X-227070Y-145110D02*
D03*
X333590Y233813D02*
D03*
X333710Y218885D02*
D03*
Y203958D02*
D03*
Y189030D02*
D03*
X56760Y-339940D02*
D03*
X46930Y-340180D02*
D03*
X62333Y-331000D02*
D03*
X42050Y-331130D02*
D03*
X-5190Y-255720D02*
D03*
X232080Y-298500D02*
D03*
X150000Y-299340D02*
D03*
X63230Y-284840D02*
D03*
X77890Y-253220D02*
D03*
X151860Y-231270D02*
D03*
X171200Y-233950D02*
D03*
X-82480Y-474950D02*
D03*
X-92070D02*
D03*
X-65810Y-503620D02*
D03*
X363760Y237900D02*
D03*
X472200Y-186660D02*
D03*
X-184000Y-191620D02*
D03*
X-259910Y-333770D02*
D03*
X-240280Y-318930D02*
D03*
X-204570Y-299400D02*
D03*
X401890Y-240700D02*
D03*
X396150Y-323230D02*
D03*
X355480Y-325460D02*
D03*
X356840Y-372530D02*
D03*
X282780Y-224550D02*
D03*
X281900Y-239470D02*
D03*
X-445540Y191700D02*
D03*
X-246450Y345870D02*
D03*
X89610Y-96470D02*
D03*
X77040Y-220580D02*
D03*
X101550Y-173310D02*
D03*
X51230Y-200990D02*
D03*
X101100Y-185240D02*
D03*
X-101850Y24870D02*
D03*
X163960Y164810D02*
D03*
X265370Y294690D02*
D03*
X322810Y224390D02*
D03*
X-227530Y-254630D02*
D03*
X-275180Y222110D02*
D03*
X-291860D02*
D03*
X-307940D02*
D03*
X-322790D02*
D03*
X-265790Y211420D02*
D03*
X-283700D02*
D03*
X-300380D02*
D03*
X-316020D02*
D03*
X-330000D02*
D03*
X580650Y187080D02*
D03*
X578875Y206550D02*
D03*
X579720Y196815D02*
D03*
X296170Y-172430D02*
D03*
X295330Y-147310D02*
D03*
X295330Y-120650D02*
D03*
X281610Y-131320D02*
D03*
X309550Y-130740D02*
D03*
X294550Y-27640D02*
D03*
X182670Y-529670D02*
D03*
X171260Y-551790D02*
D03*
X180620D02*
D03*
X190470D02*
D03*
Y-561310D02*
D03*
X180620D02*
D03*
X171260D02*
D03*
X-430760Y191960D02*
D03*
X-464500Y-39100D02*
D03*
X-475110Y-39090D02*
D03*
X-485000Y-5420D02*
D03*
X-464640Y-5260D02*
D03*
X-474920Y-5250D02*
D03*
X-57360Y-94910D02*
D03*
X-13301Y-160228D02*
D03*
X-57360Y-106800D02*
D03*
X99350Y-92484D02*
D03*
X102260Y-81400D02*
D03*
X-131230Y-552670D02*
D03*
Y-563090D02*
D03*
X-130920Y-573920D02*
D03*
X-146400Y-569020D02*
D03*
X-120570Y-573700D02*
D03*
X-120880Y-562870D02*
D03*
Y-552450D02*
D03*
X-48240Y-451870D02*
D03*
X68110Y-475780D02*
D03*
X-652550Y66300D02*
D03*
X-659460Y84060D02*
D03*
X-554720Y-299140D02*
D03*
Y-288385D02*
D03*
Y-277630D02*
D03*
X-391510Y353270D02*
D03*
X-346390Y121940D02*
D03*
X356060Y-241820D02*
D03*
X105430Y-341750D02*
D03*
X313170Y-328080D02*
D03*
X295310Y-328210D02*
D03*
X190820Y-357230D02*
D03*
X222590Y-363130D02*
D03*
X353340Y-337800D02*
D03*
X255090Y256690D02*
D03*
X255980Y214700D02*
D03*
X256430Y181280D02*
D03*
X50260Y258330D02*
D03*
X-32640Y196860D02*
D03*
X-32680Y258040D02*
D03*
X-102810Y-347270D02*
D03*
X66850Y487220D02*
D03*
X-460590Y264610D02*
D03*
X-471590Y253610D02*
D03*
Y264610D02*
D03*
X-460590Y253610D02*
D03*
X154640Y330849D02*
D03*
X245370Y332230D02*
D03*
X206540Y330630D02*
D03*
X356450Y-255010D02*
D03*
X282590Y-253650D02*
D03*
X396520Y-225590D02*
D03*
X-184360Y-299090D02*
D03*
X-51560Y-416740D02*
D03*
X-57360Y-440780D02*
D03*
X-138244Y511370D02*
D03*
X346180Y-27060D02*
D03*
Y-50990D02*
D03*
Y-83660D02*
D03*
Y-109770D02*
D03*
Y-143540D02*
D03*
Y-155810D02*
D03*
Y-95770D02*
D03*
Y-39210D02*
D03*
Y-166540D02*
D03*
X355470Y-172870D02*
D03*
X242090Y-28060D02*
D03*
Y-52210D02*
D03*
Y-83500D02*
D03*
Y-110630D02*
D03*
Y-142870D02*
D03*
Y-40170D02*
D03*
Y-97010D02*
D03*
Y-154830D02*
D03*
X242150Y-165980D02*
D03*
X234020Y-171820D02*
D03*
X-346390Y108610D02*
D03*
X-346170Y166910D02*
D03*
Y154650D02*
D03*
X-346390Y95470D02*
D03*
X-346570Y67180D02*
D03*
Y39510D02*
D03*
Y54040D02*
D03*
X-346170Y179920D02*
D03*
X-201840Y216380D02*
D03*
Y228840D02*
D03*
Y203980D02*
D03*
X-244270Y110690D02*
D03*
Y167160D02*
D03*
Y96810D02*
D03*
Y179620D02*
D03*
Y122880D02*
D03*
Y154760D02*
D03*
Y52520D02*
D03*
Y65540D02*
D03*
Y38670D02*
D03*
X-264350Y369990D02*
D03*
X-252220Y377790D02*
D03*
X-503660Y397760D02*
D03*
X-492975Y397840D02*
D03*
X-482290Y397760D02*
D03*
X-407190Y188450D02*
D03*
X-417765Y233465D02*
D03*
X-365510Y234480D02*
D03*
X-407240Y311870D02*
D03*
X-435740Y270850D02*
D03*
X-426020Y316370D02*
D03*
X-474920Y-16530D02*
D03*
X-464310Y-16540D02*
D03*
X-475110Y-27810D02*
D03*
X-464680Y-27820D02*
D03*
X570884Y187080D02*
D03*
X561118D02*
D03*
X570167Y196815D02*
D03*
X560615D02*
D03*
X560663Y206550D02*
D03*
X572285Y247860D02*
D03*
X582250D02*
D03*
X562320D02*
D03*
X417895Y251675D02*
D03*
X482200Y230770D02*
D03*
X-389410Y-223830D02*
D03*
X-425010Y-225920D02*
D03*
X-429950Y-248990D02*
D03*
X2850Y-34630D02*
D03*
X-82270Y-260270D02*
D03*
X-196990Y-160910D02*
D03*
X144600Y406880D02*
D03*
X227410Y187770D02*
D03*
X227760Y236350D02*
D03*
X333710Y248740D02*
D03*
X-3900Y-98060D02*
D03*
X11540Y-104180D02*
D03*
X39988Y-210679D02*
D03*
X15140Y-261780D02*
D03*
X-71070Y-134810D02*
D03*
X-43090Y-107150D02*
D03*
X-90300Y21730D02*
D03*
X-80860Y47800D02*
D03*
X-535858Y203908D02*
D03*
X-476800Y192640D02*
D03*
X-536600Y251967D02*
D03*
X-488590Y333150D02*
D03*
X-25180Y440630D02*
D03*
X-174970Y458300D02*
D03*
X-61130Y513050D02*
D03*
X-105760Y-147130D02*
D03*
Y-119372D02*
D03*
Y-86810D02*
D03*
X366900Y-241620D02*
D03*
X312500Y273780D02*
D03*
X13510Y11880D02*
D03*
X-10990Y258820D02*
D03*
X-10818Y195970D02*
D03*
X107210Y166940D02*
D03*
X108020Y229330D02*
D03*
X-129140Y-40745D02*
D03*
X-300280Y-149080D02*
D03*
X6230Y516210D02*
D03*
X39590Y-476520D02*
D03*
X-12450Y-419120D02*
D03*
X51460Y-476420D02*
D03*
X25490Y-476520D02*
D03*
X-23420Y475560D02*
D03*
X93080Y485790D02*
D03*
X75726Y481164D02*
D03*
X-207070Y-119450D02*
D03*
X-659460Y73820D02*
D03*
X-235040Y31740D02*
D03*
Y58610D02*
D03*
X-355310Y173320D02*
D03*
Y46900D02*
D03*
Y32370D02*
D03*
X-235040Y45590D02*
D03*
X-360910Y-168250D02*
D03*
X-234930Y147980D02*
D03*
X-235050Y116450D02*
D03*
X-355310Y60040D02*
D03*
X-234930Y172840D02*
D03*
X-235050Y90380D02*
D03*
X-234930Y160380D02*
D03*
X-235050Y104260D02*
D03*
X-355310Y89310D02*
D03*
Y148050D02*
D03*
Y115780D02*
D03*
Y160310D02*
D03*
Y102450D02*
D03*
X-55230Y428460D02*
D03*
X50260Y400610D02*
D03*
X355470Y-45540D02*
D03*
Y-102100D02*
D03*
Y-162140D02*
D03*
X233960Y-160670D02*
D03*
Y-102850D02*
D03*
Y-46010D02*
D03*
X-133000Y542990D02*
D03*
X-485700Y278460D02*
D03*
X-460920Y397760D02*
D03*
X-471605D02*
D03*
X-241290Y378010D02*
D03*
X37130Y447030D02*
D03*
X355470Y-149870D02*
D03*
Y-116100D02*
D03*
Y-89990D02*
D03*
Y-57320D02*
D03*
Y-33390D02*
D03*
X233960Y-148710D02*
D03*
Y-116470D02*
D03*
Y-89340D02*
D03*
Y-58050D02*
D03*
Y-33900D02*
D03*
X172730Y505400D02*
D03*
X-82490Y173320D02*
D03*
X-83710Y258310D02*
D03*
X164190Y154400D02*
D03*
X-114850Y-41670D02*
D03*
X66250Y-4515D02*
D03*
X70460Y-20940D02*
D03*
X-447980Y331030D02*
D03*
X-345420Y317940D02*
D03*
X-435190Y398930D02*
D03*
X-32800Y-106800D02*
D03*
X70000Y-31500D02*
D03*
X20650Y-56680D02*
D03*
X86510Y-135800D02*
D03*
X-35700Y174400D02*
D03*
X200160Y117610D02*
D03*
X82630Y-430320D02*
D03*
X-119000Y-384990D02*
D03*
Y-366440D02*
D03*
X-56950Y-426050D02*
D03*
X-181830Y-415680D02*
D03*
X230720Y-352780D02*
D03*
X262040Y-352200D02*
D03*
M02*
