G04*
G04 #@! TF.GenerationSoftware,Altium Limited,Altium Designer,24.1.2 (44)*
G04*
G04 Layer_Physical_Order=3*
G04 Layer_Color=39423*
%FSLAX44Y44*%
%MOMM*%
G71*
G04*
G04 #@! TF.SameCoordinates,73D3B6D1-293B-4555-8E94-AA9770B35CAF*
G04*
G04*
G04 #@! TF.FilePolarity,Positive*
G04*
G01*
G75*
%ADD10C,0.2500*%
%ADD12C,0.4000*%
%ADD22C,0.3000*%
%ADD134R,2.5000X2.5000*%
%ADD135C,2.5000*%
%ADD152C,5.0000*%
%ADD162C,1.0000*%
%ADD163C,0.5000*%
%ADD165R,2.2860X1.9050*%
%ADD166O,2.2860X1.9050*%
%ADD167O,1.9050X2.2860*%
%ADD168R,1.9050X2.2860*%
%ADD169C,1.5200*%
%ADD170R,1.5200X1.5200*%
%ADD171C,2.0000*%
%ADD172R,1.5000X1.5000*%
%ADD173C,1.5000*%
%ADD174C,6.3500*%
%ADD175C,1.0000*%
%ADD176C,4.0000*%
%ADD177P,5.6569X4X165.0*%
%ADD178R,1.5200X1.5200*%
%ADD179P,5.6569X4X75.0*%
%ADD180R,4.0000X4.0000*%
%ADD181R,4.0000X4.0000*%
%ADD182P,5.6569X4X105.0*%
%ADD183P,5.6569X4X375.0*%
%ADD184C,0.6000*%
%ADD185C,0.5000*%
G36*
X107840Y469980D02*
X98470D01*
Y438004D01*
X98145Y437679D01*
X97460Y436025D01*
Y434235D01*
X98145Y432581D01*
X98470Y432256D01*
Y429790D01*
X98470Y340901D01*
X97570Y340005D01*
X66140Y340116D01*
X66140Y411250D01*
X-145200Y411250D01*
X-209380Y347070D01*
X-242076Y347070D01*
X-242635Y348419D01*
X-243901Y349685D01*
X-244288Y349845D01*
Y351220D01*
X-243482Y351553D01*
X-241923Y353112D01*
X-241080Y355148D01*
Y357352D01*
X-241923Y359388D01*
X-243482Y360947D01*
X-245518Y361790D01*
X-247722D01*
X-249758Y360947D01*
X-251317Y359388D01*
X-252160Y357352D01*
Y355148D01*
X-251317Y353112D01*
X-249758Y351553D01*
X-248782Y351149D01*
Y349775D01*
X-248999Y349685D01*
X-250265Y348419D01*
X-250824Y347070D01*
X-271920Y347070D01*
Y386110D01*
X-210200D01*
X-188100Y408210D01*
Y440740D01*
X-29680D01*
Y439735D01*
X-28995Y438081D01*
X-27729Y436815D01*
X-26075Y436130D01*
X-24285D01*
X-22631Y436815D01*
X-21365Y438081D01*
X-20680Y439735D01*
Y440740D01*
X18636D01*
X18771Y440605D01*
X20425Y439920D01*
X22215D01*
X23869Y440605D01*
X24004Y440740D01*
X81040D01*
Y481360D01*
X92016D01*
X92185Y481290D01*
X93975D01*
X94144Y481360D01*
X107840D01*
Y469980D01*
D02*
G37*
G36*
X285450Y438320D02*
X234040D01*
Y805440D01*
X285450D01*
Y438320D01*
D02*
G37*
G36*
X-234380Y437920D02*
X-285790D01*
Y805040D01*
X-234380D01*
Y437920D01*
D02*
G37*
G36*
X9090Y336000D02*
X-32430D01*
Y373930D01*
X-125400D01*
X-203490Y295840D01*
X-400300D01*
X-421520Y317060D01*
Y317265D01*
X-422205Y318919D01*
X-423471Y320185D01*
X-425125Y320870D01*
X-425330D01*
X-478390Y373930D01*
X-509710Y373930D01*
Y406030D01*
X-455030D01*
X-381010Y332010D01*
X-215310D01*
X-141290Y406030D01*
X9090D01*
Y336000D01*
D02*
G37*
G36*
X293340Y120800D02*
X205820D01*
X171020Y155600D01*
X168564D01*
X168005Y156949D01*
X166739Y158215D01*
X165085Y158900D01*
X163295D01*
X161641Y158215D01*
X160375Y156949D01*
X159816Y155600D01*
X-117730D01*
X-117730Y251130D01*
X-88080Y280780D01*
X148084D01*
Y278666D01*
X103384Y233966D01*
X102342Y232608D01*
X101687Y231027D01*
X101464Y229330D01*
X101687Y227633D01*
X102342Y226052D01*
X103384Y224694D01*
X104742Y223652D01*
X106323Y222997D01*
X108020Y222774D01*
X109717Y222997D01*
X111298Y223652D01*
X112656Y224694D01*
X159276Y271314D01*
X160318Y272672D01*
X160560Y273256D01*
X160973Y274253D01*
X161196Y275950D01*
Y280780D01*
X293340D01*
Y120800D01*
D02*
G37*
G36*
X-84075Y92750D02*
X-83442Y91649D01*
X-83866Y90914D01*
X-84480Y88625D01*
Y86255D01*
X-83866Y83966D01*
X-82681Y81914D01*
X-81006Y80238D01*
X-78953Y79053D01*
X-76664Y78440D01*
X-74295D01*
X-72006Y79053D01*
X-69953Y80238D01*
X-68278Y81914D01*
X-67093Y83966D01*
X-66480Y86255D01*
Y88625D01*
X-67093Y90914D01*
X-67497Y91614D01*
X-66861Y92713D01*
X-64100Y92707D01*
X-63466Y91607D01*
X-63866Y90914D01*
X-64479Y88625D01*
Y86255D01*
X-63866Y83966D01*
X-62681Y81914D01*
X-61006Y80238D01*
X-58953Y79053D01*
X-56664Y78440D01*
X-54295D01*
X-52006Y79053D01*
X-49953Y80238D01*
X-48278Y81914D01*
X-47093Y83966D01*
X-46480Y86255D01*
Y88625D01*
X-47093Y90914D01*
X-47472Y91571D01*
X-46836Y92670D01*
X-44125Y92664D01*
X-43491Y91564D01*
X-43866Y90914D01*
X-44480Y88625D01*
Y86255D01*
X-43866Y83966D01*
X-42681Y81914D01*
X-41006Y80238D01*
X-38953Y79053D01*
X-36664Y78440D01*
X-34295D01*
X-32006Y79053D01*
X-29953Y80238D01*
X-28278Y81914D01*
X-27093Y83966D01*
X-26480Y86255D01*
Y88625D01*
X-27093Y90914D01*
X-27448Y91528D01*
X-26812Y92628D01*
X-24150Y92622D01*
X-23516Y91521D01*
X-23867Y90914D01*
X-24480Y88625D01*
Y86255D01*
X-23867Y83966D01*
X-22682Y81914D01*
X-21006Y80238D01*
X-18954Y79053D01*
X-16665Y78440D01*
X-14295D01*
X-12006Y79053D01*
X-9954Y80238D01*
X-8278Y81914D01*
X-7093Y83966D01*
X-6480Y86255D01*
Y88625D01*
X-7093Y90914D01*
X-7424Y91486D01*
X-6787Y92585D01*
X-4174Y92579D01*
X-3540Y91479D01*
X-3867Y90914D01*
X-4480Y88625D01*
Y86255D01*
X-3867Y83966D01*
X-2682Y81914D01*
X-1006Y80238D01*
X1046Y79053D01*
X3335Y78440D01*
X5705D01*
X7994Y79053D01*
X10046Y80238D01*
X11722Y81914D01*
X12907Y83966D01*
X13520Y86255D01*
Y88625D01*
X12907Y90914D01*
X12601Y91443D01*
X13237Y92542D01*
X15801Y92537D01*
X16435Y91436D01*
X16133Y90914D01*
X15520Y88625D01*
Y86255D01*
X16133Y83966D01*
X17318Y81914D01*
X18994Y80238D01*
X21046Y79053D01*
X23335Y78440D01*
X25705D01*
X27994Y79053D01*
X30046Y80238D01*
X31722Y81914D01*
X32907Y83966D01*
X33520Y86255D01*
Y88625D01*
X32907Y90914D01*
X32626Y91400D01*
X33262Y92500D01*
X35777Y92494D01*
X36410Y91394D01*
X36133Y90914D01*
X35520Y88625D01*
Y86255D01*
X36133Y83966D01*
X37318Y81914D01*
X38994Y80238D01*
X41046Y79053D01*
X43335Y78440D01*
X45705D01*
X47994Y79053D01*
X50046Y80238D01*
X51722Y81914D01*
X52907Y83966D01*
X53520Y86255D01*
Y88625D01*
X52907Y90914D01*
X52650Y91358D01*
X53287Y92457D01*
X55752Y92452D01*
X56386Y91351D01*
X56133Y90914D01*
X55520Y88625D01*
Y86255D01*
X56133Y83966D01*
X57318Y81914D01*
X58994Y80238D01*
X61046Y79053D01*
X63335Y78440D01*
X65705D01*
X67994Y79053D01*
X70046Y80238D01*
X71722Y81914D01*
X72907Y83966D01*
X73520Y86255D01*
Y88625D01*
X72907Y90914D01*
X72675Y91315D01*
X73311Y92414D01*
X75520Y92409D01*
Y78440D01*
X93520D01*
Y91472D01*
X94419Y92369D01*
X143415Y92265D01*
X172080Y63600D01*
Y35629D01*
X170810Y35376D01*
X169905Y37560D01*
X168138Y39863D01*
X165835Y41630D01*
X163153Y42741D01*
X160275Y43120D01*
X156465D01*
X154613Y42876D01*
X154412Y43050D01*
X153831Y44054D01*
X154362Y45335D01*
Y47125D01*
X153677Y48779D01*
X152411Y50045D01*
X150757Y50730D01*
X148967D01*
X147313Y50045D01*
X146047Y48779D01*
X145362Y47125D01*
Y45335D01*
X146047Y43681D01*
X147313Y42415D01*
X148967Y41730D01*
X149380Y40460D01*
X148602Y39863D01*
X146835Y37560D01*
X145724Y34878D01*
X145345Y32000D01*
X145724Y29122D01*
X146835Y26440D01*
X148602Y24137D01*
X150905Y22370D01*
X153587Y21259D01*
X156465Y20880D01*
X160275D01*
X163153Y21259D01*
X165835Y22370D01*
X168138Y24137D01*
X169905Y26440D01*
X170810Y28624D01*
X172080Y28371D01*
Y10229D01*
X170810Y9976D01*
X169905Y12160D01*
X168138Y14463D01*
X165835Y16230D01*
X163153Y17341D01*
X160275Y17720D01*
X156465D01*
X153587Y17341D01*
X150905Y16230D01*
X148602Y14463D01*
X146835Y12160D01*
X145724Y9478D01*
X145345Y6600D01*
X145724Y3722D01*
X146835Y1040D01*
X148602Y-1263D01*
X150905Y-3030D01*
X153587Y-4141D01*
X156465Y-4520D01*
X160275D01*
X163153Y-4141D01*
X165835Y-3030D01*
X168138Y-1263D01*
X169905Y1040D01*
X170810Y3224D01*
X172080Y2971D01*
Y-32228D01*
X171300Y-33175D01*
X145440D01*
Y-40122D01*
X118919D01*
X96854Y-18056D01*
X95531Y-17172D01*
X93970Y-16862D01*
X93970Y-16862D01*
X74538D01*
Y-8996D01*
X74538Y-8996D01*
X74228Y-7435D01*
X73344Y-6112D01*
X70678Y-3446D01*
X70065Y-1966D01*
X68799Y-700D01*
X67145Y-15D01*
X65355D01*
X64337Y-437D01*
X31594D01*
X17746Y13411D01*
X17325Y14429D01*
X16059Y15695D01*
X14405Y16380D01*
X12615D01*
X10961Y15695D01*
X9695Y14429D01*
X9010Y12775D01*
Y10985D01*
X9695Y9331D01*
X10961Y8065D01*
X11979Y7643D01*
X27021Y-7399D01*
X27021Y-7399D01*
X28344Y-8283D01*
X29905Y-8593D01*
X64290D01*
X66382Y-10685D01*
Y-19027D01*
X65960Y-20045D01*
Y-21835D01*
X66645Y-23489D01*
X67911Y-24755D01*
X69565Y-25440D01*
X71355D01*
X72373Y-25018D01*
X92281D01*
X114346Y-47084D01*
X114346Y-47084D01*
X115669Y-47968D01*
X117230Y-48278D01*
X145440D01*
Y-55225D01*
X160133D01*
X160164Y-55266D01*
X172080Y-67182D01*
Y-122754D01*
X170810Y-123007D01*
X170285Y-121740D01*
X168518Y-119437D01*
X166215Y-117670D01*
X163533Y-116559D01*
X160655Y-116180D01*
X156845D01*
X153967Y-116559D01*
X151285Y-117670D01*
X148982Y-119437D01*
X147215Y-121740D01*
X146104Y-124422D01*
X145725Y-127300D01*
X146104Y-130178D01*
X147215Y-132860D01*
X148982Y-135163D01*
X151285Y-136930D01*
X153967Y-138041D01*
X156845Y-138420D01*
X160655D01*
X163533Y-138041D01*
X166215Y-136930D01*
X168518Y-135163D01*
X170285Y-132860D01*
X170810Y-131593D01*
X172080Y-131846D01*
Y-165971D01*
X171680Y-167075D01*
X170810Y-167075D01*
X145820D01*
Y-189125D01*
X170810D01*
X171680Y-189125D01*
X172080Y-190229D01*
Y-228610D01*
X118663D01*
X117917Y-227340D01*
X118350Y-226295D01*
Y-224505D01*
X117665Y-222851D01*
X116399Y-221585D01*
X114745Y-220900D01*
X112955D01*
X111301Y-221585D01*
X110035Y-222851D01*
X109350Y-224505D01*
Y-226295D01*
X109783Y-227340D01*
X109037Y-228610D01*
X82608D01*
Y-126433D01*
X83030Y-125415D01*
Y-123625D01*
X82648Y-122704D01*
Y-119000D01*
X83110Y-117885D01*
Y-116095D01*
X82425Y-114441D01*
X81159Y-113175D01*
X79505Y-112490D01*
X77715D01*
X76061Y-113175D01*
X74795Y-114441D01*
X74110Y-116095D01*
Y-117885D01*
X74492Y-118806D01*
Y-122510D01*
X74030Y-123625D01*
Y-125415D01*
X74452Y-126433D01*
Y-244291D01*
X71209Y-247533D01*
X70827Y-247692D01*
X43779D01*
X8004Y-211916D01*
X6681Y-211032D01*
X5120Y-210722D01*
X5120Y-210722D01*
X-17538D01*
X-17770Y-210271D01*
X-17928Y-209452D01*
X-16835Y-208359D01*
X-16150Y-206705D01*
Y-204915D01*
X-16835Y-203261D01*
X-18101Y-201995D01*
X-19755Y-201310D01*
X-21545D01*
X-23199Y-201995D01*
X-24465Y-203261D01*
X-25150Y-204915D01*
Y-206705D01*
X-24465Y-208359D01*
X-23408Y-209415D01*
X-23391Y-209550D01*
X-23530Y-210271D01*
X-23762Y-210722D01*
X-37841D01*
X-56822Y-191741D01*
Y-147978D01*
X-42500D01*
X-42500Y-147978D01*
X-40939Y-147668D01*
X-39616Y-146784D01*
X-31911Y-139078D01*
X-9613D01*
X-8595Y-139500D01*
X-6805D01*
X-5151Y-138815D01*
X-3885Y-137549D01*
X-3200Y-135895D01*
Y-134105D01*
X-3885Y-132451D01*
X-5151Y-131185D01*
X-6805Y-130500D01*
X-8595D01*
X-9613Y-130922D01*
X-33600D01*
X-33600Y-130922D01*
X-35161Y-131232D01*
X-36484Y-132116D01*
X-36484Y-132116D01*
X-44189Y-139822D01*
X-51398D01*
X-52138Y-138552D01*
X-51700Y-137495D01*
Y-135705D01*
X-52385Y-134051D01*
X-53651Y-132785D01*
X-55305Y-132100D01*
X-57095D01*
X-58749Y-132785D01*
X-60015Y-134051D01*
X-60700Y-135705D01*
Y-137495D01*
X-60437Y-138130D01*
X-61286Y-139400D01*
X-61795D01*
X-63449Y-140085D01*
X-64715Y-141351D01*
X-65400Y-143005D01*
Y-144795D01*
X-64978Y-145813D01*
Y-193430D01*
X-64978Y-193430D01*
X-64668Y-194991D01*
X-63784Y-196314D01*
X-42414Y-217684D01*
X-41091Y-218568D01*
X-39530Y-218878D01*
X-39530Y-218878D01*
X-32835D01*
X-32349Y-220052D01*
X-61178Y-248880D01*
X-102914Y-207144D01*
X-102914Y-207144D01*
X-104725Y-205333D01*
X-104343Y-203919D01*
X-103271Y-203475D01*
X-102005Y-202209D01*
X-101320Y-200555D01*
Y-198765D01*
X-102005Y-197111D01*
X-103271Y-195845D01*
X-104925Y-195160D01*
X-106715D01*
X-108369Y-195845D01*
X-109635Y-197111D01*
X-110079Y-198183D01*
X-111493Y-198565D01*
X-113434Y-196624D01*
Y-164076D01*
X-101124Y-151766D01*
X-100082Y-150408D01*
X-99427Y-148827D01*
X-99204Y-147130D01*
Y-119372D01*
Y-93366D01*
X-83410D01*
X-81713Y-93143D01*
X-80132Y-92488D01*
X-78774Y-91446D01*
X-58604Y-71276D01*
X-57562Y-69918D01*
X-56907Y-68337D01*
X-56684Y-66640D01*
Y-54626D01*
X-44276D01*
X-42579Y-54403D01*
X-40998Y-53748D01*
X-39640Y-52706D01*
X-38598Y-51348D01*
X-37943Y-49767D01*
X-37720Y-48070D01*
X-37943Y-46373D01*
X-38598Y-44792D01*
X-39640Y-43434D01*
X-40998Y-42392D01*
X-42579Y-41737D01*
X-44276Y-41514D01*
X-63240D01*
X-64937Y-41737D01*
X-66518Y-42392D01*
X-67876Y-43434D01*
X-68918Y-44792D01*
X-69573Y-46373D01*
X-69796Y-48070D01*
Y-63924D01*
X-86126Y-80254D01*
X-131904D01*
Y-53051D01*
X-124504Y-45651D01*
X-123462Y-44294D01*
X-122807Y-42712D01*
X-122584Y-41016D01*
X-122807Y-39319D01*
X-123462Y-37738D01*
X-124504Y-36380D01*
X-125862Y-35338D01*
X-127443Y-34683D01*
X-129140Y-34460D01*
X-130837Y-34683D01*
X-132418Y-35338D01*
X-133776Y-36380D01*
X-143096Y-45700D01*
X-144138Y-47058D01*
X-144793Y-48639D01*
X-145016Y-50336D01*
Y-83881D01*
X-144793Y-85578D01*
X-144138Y-87159D01*
X-143096Y-88517D01*
X-140167Y-91446D01*
X-138809Y-92488D01*
X-137228Y-93143D01*
X-135531Y-93366D01*
X-112316D01*
Y-119372D01*
Y-144414D01*
X-124626Y-156724D01*
X-125668Y-158082D01*
X-126323Y-159663D01*
X-126546Y-161360D01*
Y-199340D01*
X-126323Y-201037D01*
X-125668Y-202618D01*
X-124626Y-203976D01*
X-114015Y-214587D01*
X-114271Y-215271D01*
X-114638Y-215760D01*
X-116245D01*
X-117899Y-216445D01*
X-119165Y-217711D01*
X-119850Y-219365D01*
Y-221155D01*
X-119165Y-222809D01*
X-117899Y-224075D01*
X-116245Y-224760D01*
X-114455D01*
X-112801Y-224075D01*
X-111535Y-222809D01*
X-110850Y-221155D01*
Y-219548D01*
X-110361Y-219181D01*
X-109677Y-218925D01*
X-71656Y-256946D01*
Y-280170D01*
X-178260D01*
Y39870D01*
X-125293Y92837D01*
X-84075Y92750D01*
D02*
G37*
G36*
X-81210Y323170D02*
X-111770Y323170D01*
X-161335Y273605D01*
X-162220Y272720D01*
Y145460D01*
X161700D01*
X264220Y42940D01*
X336560D01*
Y151020D01*
X408380Y222840D01*
Y257480D01*
X429040D01*
Y212530D01*
X367530Y151020D01*
Y-183980D01*
X217580D01*
Y36160D01*
X144110Y109630D01*
X-220900D01*
Y-271340D01*
X-227730Y-278170D01*
X-267780D01*
X-274850Y-285240D01*
Y-417270D01*
X-269620Y-422330D01*
X-205720D01*
X-193540Y-434510D01*
Y-479860D01*
X-305420D01*
X-323400Y-461880D01*
Y-263200D01*
X-443930D01*
Y-239580D01*
X-323400D01*
Y-229090D01*
X-309030Y-214720D01*
X-267730Y-214720D01*
Y-45780D01*
X-391020D01*
Y189440D01*
X-339640Y240820D01*
X-251700D01*
X-122980Y369540D01*
X-81210Y369540D01*
X-81210Y323170D01*
D02*
G37*
G36*
X39206Y-254654D02*
X39206Y-254654D01*
X40529Y-255538D01*
X42090Y-255848D01*
X42090Y-255848D01*
X70827D01*
X71845Y-256270D01*
X73635D01*
X75289Y-255585D01*
X76555Y-254319D01*
X76977Y-253301D01*
X80047Y-250231D01*
X81220Y-250717D01*
Y-409680D01*
X-48560D01*
Y-280170D01*
X-58544D01*
Y-257560D01*
X-57876Y-257114D01*
X-19799Y-219037D01*
X-19417Y-218878D01*
X3431D01*
X39206Y-254654D01*
D02*
G37*
%LPC*%
G36*
X53505Y439120D02*
X51715D01*
X50061Y438435D01*
X48795Y437169D01*
X48110Y435515D01*
Y433725D01*
X48795Y432071D01*
X50061Y430805D01*
X51715Y430120D01*
X53505D01*
X55159Y430805D01*
X56425Y432071D01*
X57110Y433725D01*
Y435515D01*
X56425Y437169D01*
X55159Y438435D01*
X53505Y439120D01*
D02*
G37*
G36*
X-54335Y432960D02*
X-56125D01*
X-57779Y432275D01*
X-59045Y431009D01*
X-59730Y429355D01*
Y427565D01*
X-59045Y425911D01*
X-57779Y424645D01*
X-56125Y423960D01*
X-54335D01*
X-52681Y424645D01*
X-51415Y425911D01*
X-50730Y427565D01*
Y429355D01*
X-51415Y431009D01*
X-52681Y432275D01*
X-54335Y432960D01*
D02*
G37*
G36*
X-406345Y316370D02*
X-408135D01*
X-409789Y315685D01*
X-411055Y314419D01*
X-411740Y312765D01*
Y310975D01*
X-411055Y309321D01*
X-409789Y308055D01*
X-408135Y307370D01*
X-406345D01*
X-404691Y308055D01*
X-403425Y309321D01*
X-402740Y310975D01*
Y312765D01*
X-403425Y314419D01*
X-404691Y315685D01*
X-406345Y316370D01*
D02*
G37*
G36*
X-10095Y263320D02*
X-11885D01*
X-13539Y262635D01*
X-14805Y261369D01*
X-15490Y259715D01*
Y257925D01*
X-14805Y256271D01*
X-13539Y255005D01*
X-11885Y254320D01*
X-10095D01*
X-8441Y255005D01*
X-7175Y256271D01*
X-6490Y257925D01*
Y259715D01*
X-7175Y261369D01*
X-8441Y262635D01*
X-10095Y263320D01*
D02*
G37*
G36*
X-82815Y262810D02*
X-84605D01*
X-86259Y262125D01*
X-87525Y260859D01*
X-88210Y259205D01*
Y257415D01*
X-87525Y255761D01*
X-86259Y254495D01*
X-84605Y253810D01*
X-82815D01*
X-81161Y254495D01*
X-79895Y255761D01*
X-79210Y257415D01*
Y259205D01*
X-79895Y260859D01*
X-81161Y262125D01*
X-82815Y262810D01*
D02*
G37*
G36*
X-9923Y200470D02*
X-11713D01*
X-13367Y199785D01*
X-14633Y198519D01*
X-15318Y196865D01*
Y195075D01*
X-14633Y193421D01*
X-13367Y192155D01*
X-11713Y191470D01*
X-9923D01*
X-8269Y192155D01*
X-7003Y193421D01*
X-6318Y195075D01*
Y196865D01*
X-7003Y198519D01*
X-8269Y199785D01*
X-9923Y200470D01*
D02*
G37*
G36*
X-81595Y177820D02*
X-83385D01*
X-85039Y177135D01*
X-86305Y175869D01*
X-86990Y174215D01*
Y172425D01*
X-86305Y170771D01*
X-85039Y169505D01*
X-83385Y168820D01*
X-81595D01*
X-79941Y169505D01*
X-78675Y170771D01*
X-77990Y172425D01*
Y174215D01*
X-78675Y175869D01*
X-79941Y177135D01*
X-81595Y177820D01*
D02*
G37*
G36*
X108105Y171440D02*
X106315D01*
X104661Y170755D01*
X103395Y169489D01*
X102710Y167835D01*
Y166045D01*
X103395Y164391D01*
X104661Y163125D01*
X106315Y162440D01*
X108105D01*
X109759Y163125D01*
X111025Y164391D01*
X111710Y166045D01*
Y167835D01*
X111025Y169489D01*
X109759Y170755D01*
X108105Y171440D01*
D02*
G37*
G36*
X116845Y56810D02*
X115055D01*
X113401Y56125D01*
X112135Y54859D01*
X111450Y53205D01*
Y51415D01*
X112135Y49761D01*
X113401Y48495D01*
X115055Y47810D01*
X116845D01*
X118499Y48495D01*
X119765Y49761D01*
X120450Y51415D01*
Y53205D01*
X119765Y54859D01*
X118499Y56125D01*
X116845Y56810D01*
D02*
G37*
G36*
X140514Y56751D02*
X138724D01*
X137070Y56066D01*
X135804Y54800D01*
X135119Y53146D01*
Y51356D01*
X135804Y49702D01*
X137070Y48436D01*
X138724Y47751D01*
X140514D01*
X142168Y48436D01*
X143434Y49702D01*
X144119Y51356D01*
Y53146D01*
X143434Y54800D01*
X142168Y56066D01*
X140514Y56751D01*
D02*
G37*
G36*
X51991Y56090D02*
X49595D01*
X47281Y55470D01*
X45206Y54272D01*
X43512Y52578D01*
X42314Y50503D01*
X41693Y48188D01*
Y45792D01*
X42314Y43478D01*
X43512Y41403D01*
X45206Y39708D01*
X47281Y38510D01*
X49595Y37890D01*
X51991D01*
X54306Y38510D01*
X56381Y39708D01*
X58075Y41403D01*
X59273Y43478D01*
X59893Y45792D01*
Y48188D01*
X59273Y50503D01*
X58075Y52578D01*
X56381Y54272D01*
X54306Y55470D01*
X51991Y56090D01*
D02*
G37*
G36*
X26591D02*
X24195D01*
X21881Y55470D01*
X19806Y54272D01*
X18112Y52578D01*
X16914Y50503D01*
X16293Y48188D01*
Y45792D01*
X16914Y43478D01*
X18112Y41403D01*
X19806Y39708D01*
X21881Y38510D01*
X24195Y37890D01*
X26591D01*
X28906Y38510D01*
X30981Y39708D01*
X32675Y41403D01*
X33873Y43478D01*
X34493Y45792D01*
Y48188D01*
X33873Y50503D01*
X32675Y52578D01*
X30981Y54272D01*
X28906Y55470D01*
X26591Y56090D01*
D02*
G37*
G36*
X-24209D02*
X-26605D01*
X-28919Y55470D01*
X-30994Y54272D01*
X-32688Y52578D01*
X-33886Y50503D01*
X-34507Y48188D01*
Y45792D01*
X-33886Y43478D01*
X-32688Y41403D01*
X-30994Y39708D01*
X-28919Y38510D01*
X-26605Y37890D01*
X-24209D01*
X-21894Y38510D01*
X-19819Y39708D01*
X-18125Y41403D01*
X-16927Y43478D01*
X-16307Y45792D01*
Y48188D01*
X-16927Y50503D01*
X-18125Y52578D01*
X-19819Y54272D01*
X-21894Y55470D01*
X-24209Y56090D01*
D02*
G37*
G36*
X-49609D02*
X-52005D01*
X-54319Y55470D01*
X-56394Y54272D01*
X-58088Y52578D01*
X-59286Y50503D01*
X-59907Y48188D01*
Y45792D01*
X-59286Y43478D01*
X-58088Y41403D01*
X-56394Y39708D01*
X-54319Y38510D01*
X-52005Y37890D01*
X-49609D01*
X-47294Y38510D01*
X-45219Y39708D01*
X-43525Y41403D01*
X-42327Y43478D01*
X-41707Y45792D01*
Y48188D01*
X-42327Y50503D01*
X-43525Y52578D01*
X-45219Y54272D01*
X-47294Y55470D01*
X-49609Y56090D01*
D02*
G37*
G36*
X131375Y45960D02*
X129585D01*
X127931Y45275D01*
X126665Y44009D01*
X125980Y42355D01*
Y40565D01*
X126665Y38911D01*
X127931Y37645D01*
X129585Y36960D01*
X131375D01*
X133029Y37645D01*
X134295Y38911D01*
X134980Y40565D01*
Y42355D01*
X134295Y44009D01*
X133029Y45275D01*
X131375Y45960D01*
D02*
G37*
G36*
X-91945Y50100D02*
X-93735D01*
X-95389Y49415D01*
X-96655Y48149D01*
X-97340Y46495D01*
Y44705D01*
X-96655Y43051D01*
X-95389Y41785D01*
X-93735Y41100D01*
X-93151D01*
X-92858Y41100D01*
X-92665Y39910D01*
X-93015Y39765D01*
X-94319Y39225D01*
X-95585Y37959D01*
X-96270Y36305D01*
Y34515D01*
X-95585Y32861D01*
X-94319Y31595D01*
X-92665Y30910D01*
X-90875D01*
X-89221Y31595D01*
X-87955Y32861D01*
X-87270Y34515D01*
Y36305D01*
X-87955Y37959D01*
X-89221Y39225D01*
X-90875Y39910D01*
X-91460D01*
X-91752Y39910D01*
X-91945Y41100D01*
X-91595Y41245D01*
X-90291Y41785D01*
X-89025Y43051D01*
X-88340Y44705D01*
Y46495D01*
X-89025Y48149D01*
X-90291Y49415D01*
X-91945Y50100D01*
D02*
G37*
G36*
X-109635Y39402D02*
X-111425D01*
X-113079Y38717D01*
X-114345Y37451D01*
X-115030Y35797D01*
Y34007D01*
X-114345Y32353D01*
X-113658Y31665D01*
X-113214Y30836D01*
X-113658Y30006D01*
X-114345Y29319D01*
X-115030Y27665D01*
Y25875D01*
X-114345Y24221D01*
X-113079Y22955D01*
X-111425Y22270D01*
X-109635D01*
X-107981Y22955D01*
X-106715Y24221D01*
X-106030Y25875D01*
Y27665D01*
X-106715Y29319D01*
X-107402Y30006D01*
X-107846Y30836D01*
X-107402Y31665D01*
X-106715Y32353D01*
X-106030Y34007D01*
Y35797D01*
X-106715Y37451D01*
X-107981Y38717D01*
X-109635Y39402D01*
D02*
G37*
G36*
X112785Y30290D02*
X110995D01*
X109341Y29605D01*
X108075Y28339D01*
X107390Y26685D01*
Y24895D01*
X108075Y23241D01*
X109341Y21975D01*
X110995Y21290D01*
X112785D01*
X114439Y21975D01*
X115705Y23241D01*
X116390Y24895D01*
Y26685D01*
X115705Y28339D01*
X114439Y29605D01*
X112785Y30290D01*
D02*
G37*
G36*
X72395Y28700D02*
X70605D01*
X68951Y28015D01*
X67685Y26749D01*
X67000Y25095D01*
Y23305D01*
X67685Y21651D01*
X68951Y20385D01*
X70605Y19700D01*
X72395D01*
X74049Y20385D01*
X75315Y21651D01*
X76000Y23305D01*
Y25095D01*
X75315Y26749D01*
X74049Y28015D01*
X72395Y28700D01*
D02*
G37*
G36*
X59893Y30690D02*
X41693D01*
Y12490D01*
X59893D01*
Y30690D01*
D02*
G37*
G36*
X26591D02*
X24195D01*
X21881Y30070D01*
X19806Y28872D01*
X18112Y27178D01*
X16914Y25103D01*
X16293Y22788D01*
Y20392D01*
X16914Y18078D01*
X18112Y16003D01*
X19806Y14308D01*
X21881Y13110D01*
X24195Y12490D01*
X26591D01*
X28906Y13110D01*
X30981Y14308D01*
X32675Y16003D01*
X33873Y18078D01*
X34493Y20392D01*
Y22788D01*
X33873Y25103D01*
X32675Y27178D01*
X30981Y28872D01*
X28906Y30070D01*
X26591Y30690D01*
D02*
G37*
G36*
X-24209D02*
X-26605D01*
X-28919Y30070D01*
X-30994Y28872D01*
X-32688Y27178D01*
X-33886Y25103D01*
X-34507Y22788D01*
Y20392D01*
X-33886Y18078D01*
X-32688Y16003D01*
X-30994Y14308D01*
X-28919Y13110D01*
X-26605Y12490D01*
X-24209D01*
X-21894Y13110D01*
X-19819Y14308D01*
X-18125Y16003D01*
X-16927Y18078D01*
X-16307Y20392D01*
Y22788D01*
X-16927Y25103D01*
X-18125Y27178D01*
X-19819Y28872D01*
X-21894Y30070D01*
X-24209Y30690D01*
D02*
G37*
G36*
X-49609D02*
X-52005D01*
X-54319Y30070D01*
X-56394Y28872D01*
X-58088Y27178D01*
X-59286Y25103D01*
X-59907Y22788D01*
Y20392D01*
X-59286Y18078D01*
X-58088Y16003D01*
X-56394Y14308D01*
X-54319Y13110D01*
X-52005Y12490D01*
X-49609D01*
X-47294Y13110D01*
X-45219Y14308D01*
X-43525Y16003D01*
X-42327Y18078D01*
X-41707Y20392D01*
Y22788D01*
X-42327Y25103D01*
X-43525Y27178D01*
X-45219Y28872D01*
X-47294Y30070D01*
X-49609Y30690D01*
D02*
G37*
G36*
X72395Y13100D02*
X70605D01*
X68951Y12415D01*
X67685Y11149D01*
X67000Y9495D01*
Y7705D01*
X67685Y6051D01*
X68951Y4785D01*
X70605Y4100D01*
X72395D01*
X74049Y4785D01*
X75315Y6051D01*
X76000Y7705D01*
Y9495D01*
X75315Y11149D01*
X74049Y12415D01*
X72395Y13100D01*
D02*
G37*
G36*
X-24805Y6080D02*
X-26595D01*
X-28249Y5395D01*
X-29515Y4129D01*
X-30200Y2475D01*
Y685D01*
X-29515Y-969D01*
X-28249Y-2235D01*
X-26595Y-2920D01*
X-24805D01*
X-23151Y-2235D01*
X-21885Y-969D01*
X-21200Y685D01*
Y2475D01*
X-21885Y4129D01*
X-23151Y5395D01*
X-24805Y6080D01*
D02*
G37*
G36*
X-161095Y19220D02*
X-164905D01*
X-167783Y18841D01*
X-170465Y17730D01*
X-172768Y15963D01*
X-174535Y13660D01*
X-175646Y10978D01*
X-176025Y8100D01*
X-175646Y5222D01*
X-174535Y2540D01*
X-172768Y237D01*
X-170465Y-1530D01*
X-167783Y-2641D01*
X-164905Y-3020D01*
X-161095D01*
X-158217Y-2641D01*
X-155535Y-1530D01*
X-153232Y237D01*
X-151465Y2540D01*
X-150354Y5222D01*
X-149975Y8100D01*
X-150354Y10978D01*
X-151465Y13660D01*
X-153232Y15963D01*
X-155535Y17730D01*
X-158217Y18841D01*
X-161095Y19220D01*
D02*
G37*
G36*
X1191Y30690D02*
X-1205D01*
X-3519Y30070D01*
X-5594Y28872D01*
X-7288Y27178D01*
X-8486Y25103D01*
X-9107Y22788D01*
Y20392D01*
X-8486Y18078D01*
X-7288Y16003D01*
X-5594Y14308D01*
X-3575Y13143D01*
Y-31232D01*
X-3304Y-32598D01*
X-2530Y-33756D01*
X-1650Y-34636D01*
Y-35525D01*
X-965Y-37179D01*
X301Y-38445D01*
X1955Y-39130D01*
X3745D01*
X5399Y-38445D01*
X6665Y-37179D01*
X7350Y-35525D01*
Y-33735D01*
X6665Y-32081D01*
X5399Y-30815D01*
X4074Y-30266D01*
X3562Y-29754D01*
Y13143D01*
X5581Y14308D01*
X7275Y16003D01*
X8473Y18078D01*
X9093Y20392D01*
Y22788D01*
X8473Y25103D01*
X7275Y27178D01*
X5581Y28872D01*
X3506Y30070D01*
X1191Y30690D01*
D02*
G37*
G36*
X38095Y-33800D02*
X36305D01*
X34651Y-34485D01*
X33385Y-35751D01*
X32700Y-37405D01*
Y-39195D01*
X33385Y-40849D01*
X34651Y-42115D01*
X36305Y-42800D01*
X38095D01*
X39749Y-42115D01*
X41015Y-40849D01*
X41700Y-39195D01*
Y-37405D01*
X41015Y-35751D01*
X39749Y-34485D01*
X38095Y-33800D01*
D02*
G37*
G36*
X-113955Y-37170D02*
X-115745D01*
X-117399Y-37855D01*
X-118665Y-39121D01*
X-119350Y-40775D01*
Y-42565D01*
X-118665Y-44219D01*
X-117399Y-45485D01*
X-115745Y-46170D01*
X-113955D01*
X-112301Y-45485D01*
X-111035Y-44219D01*
X-110350Y-42565D01*
Y-40775D01*
X-111035Y-39121D01*
X-112301Y-37855D01*
X-113955Y-37170D01*
D02*
G37*
G36*
X-150070Y-31675D02*
X-175930D01*
Y-53725D01*
X-150070D01*
Y-31675D01*
D02*
G37*
G36*
X-120074Y-56289D02*
X-121864D01*
X-123518Y-56974D01*
X-124784Y-58240D01*
X-125469Y-59894D01*
Y-61684D01*
X-124784Y-63338D01*
X-123518Y-64604D01*
X-121864Y-65289D01*
X-120074D01*
X-118420Y-64604D01*
X-117154Y-63338D01*
X-116469Y-61684D01*
Y-59894D01*
X-117154Y-58240D01*
X-118420Y-56974D01*
X-120074Y-56289D01*
D02*
G37*
G36*
X-31905Y-102300D02*
X-33695D01*
X-35349Y-102985D01*
X-36615Y-104251D01*
X-37300Y-105905D01*
Y-107695D01*
X-36615Y-109349D01*
X-35349Y-110615D01*
X-33695Y-111300D01*
X-31905D01*
X-30251Y-110615D01*
X-28985Y-109349D01*
X-28300Y-107695D01*
Y-105905D01*
X-28985Y-104251D01*
X-30251Y-102985D01*
X-31905Y-102300D01*
D02*
G37*
G36*
X-161095Y-89780D02*
X-164905D01*
X-167783Y-90159D01*
X-170465Y-91270D01*
X-172768Y-93037D01*
X-174535Y-95340D01*
X-175646Y-98022D01*
X-176025Y-100900D01*
X-175646Y-103778D01*
X-174535Y-106460D01*
X-172768Y-108763D01*
X-170465Y-110530D01*
X-167783Y-111641D01*
X-164905Y-112020D01*
X-161095D01*
X-158217Y-111641D01*
X-155535Y-110530D01*
X-153232Y-108763D01*
X-151465Y-106460D01*
X-150354Y-103778D01*
X-149975Y-100900D01*
X-150354Y-98022D01*
X-151465Y-95340D01*
X-153232Y-93037D01*
X-155535Y-91270D01*
X-158217Y-90159D01*
X-161095Y-89780D01*
D02*
G37*
G36*
X-47545Y-115340D02*
X-49335D01*
X-50989Y-116025D01*
X-52255Y-117291D01*
X-52940Y-118945D01*
Y-120208D01*
X-53960Y-121049D01*
X-54113Y-121097D01*
X-54395Y-120980D01*
X-56185D01*
X-57839Y-121665D01*
X-59105Y-122931D01*
X-59790Y-124585D01*
Y-126375D01*
X-59105Y-128029D01*
X-57839Y-129295D01*
X-56185Y-129980D01*
X-54395D01*
X-52741Y-129295D01*
X-51475Y-128029D01*
X-50790Y-126375D01*
Y-125112D01*
X-49770Y-124271D01*
X-49617Y-124223D01*
X-49335Y-124340D01*
X-47545D01*
X-45891Y-123655D01*
X-44625Y-122389D01*
X-43940Y-120735D01*
Y-118945D01*
X-44625Y-117291D01*
X-45891Y-116025D01*
X-47545Y-115340D01*
D02*
G37*
G36*
X18948Y-127495D02*
X17158D01*
X15504Y-128180D01*
X14238Y-129446D01*
X13553Y-131100D01*
Y-132890D01*
X14238Y-134544D01*
X15504Y-135810D01*
X17158Y-136495D01*
X18948D01*
X20602Y-135810D01*
X21868Y-134544D01*
X22553Y-132890D01*
Y-131100D01*
X21868Y-129446D01*
X20602Y-128180D01*
X18948Y-127495D01*
D02*
G37*
G36*
X7182Y-127860D02*
X5392D01*
X3738Y-128545D01*
X2472Y-129811D01*
X1787Y-131465D01*
Y-133255D01*
X2472Y-134909D01*
X3738Y-136175D01*
X5392Y-136860D01*
X7182D01*
X8836Y-136175D01*
X10102Y-134909D01*
X10787Y-133255D01*
Y-131465D01*
X10102Y-129811D01*
X8836Y-128545D01*
X7182Y-127860D01*
D02*
G37*
G36*
X-161095Y-115180D02*
X-164905D01*
X-167783Y-115559D01*
X-170465Y-116670D01*
X-172768Y-118437D01*
X-174535Y-120740D01*
X-175646Y-123422D01*
X-176025Y-126300D01*
X-175646Y-129178D01*
X-174535Y-131860D01*
X-172768Y-134163D01*
X-170465Y-135930D01*
X-167783Y-137041D01*
X-164905Y-137420D01*
X-161095D01*
X-158217Y-137041D01*
X-155535Y-135930D01*
X-153232Y-134163D01*
X-151465Y-131860D01*
X-150354Y-129178D01*
X-149975Y-126300D01*
X-150354Y-123422D01*
X-151465Y-120740D01*
X-153232Y-118437D01*
X-155535Y-116670D01*
X-158217Y-115559D01*
X-161095Y-115180D01*
D02*
G37*
G36*
X46885Y-143297D02*
X45095D01*
X43441Y-143982D01*
X42175Y-145248D01*
X41490Y-146902D01*
Y-148692D01*
X42175Y-150346D01*
X43441Y-151612D01*
X45095Y-152297D01*
X46269D01*
X46992Y-152515D01*
X47443Y-153441D01*
Y-154442D01*
X48128Y-156096D01*
X49394Y-157362D01*
X51048Y-158047D01*
X52838D01*
X54492Y-157362D01*
X55757Y-156096D01*
X56443Y-154442D01*
Y-152652D01*
X55757Y-150998D01*
X54492Y-149732D01*
X52838Y-149047D01*
X51663D01*
X50941Y-148828D01*
X50490Y-147903D01*
Y-146902D01*
X49805Y-145248D01*
X48539Y-143982D01*
X46885Y-143297D01*
D02*
G37*
G36*
X90855Y-153070D02*
X89065D01*
X87411Y-153755D01*
X86145Y-155021D01*
X85460Y-156675D01*
Y-158465D01*
X86145Y-160119D01*
X87411Y-161385D01*
X89065Y-162070D01*
X90855D01*
X92509Y-161385D01*
X93775Y-160119D01*
X94460Y-158465D01*
Y-156675D01*
X93775Y-155021D01*
X92509Y-153755D01*
X90855Y-153070D01*
D02*
G37*
G36*
X-161095Y-140580D02*
X-164905D01*
X-167783Y-140959D01*
X-170465Y-142070D01*
X-172768Y-143837D01*
X-174535Y-146140D01*
X-175646Y-148822D01*
X-176025Y-151700D01*
X-175646Y-154578D01*
X-174535Y-157260D01*
X-172768Y-159563D01*
X-170465Y-161330D01*
X-167783Y-162441D01*
X-164905Y-162820D01*
X-161095D01*
X-158217Y-162441D01*
X-155535Y-161330D01*
X-153232Y-159563D01*
X-151465Y-157260D01*
X-150354Y-154578D01*
X-149975Y-151700D01*
X-150354Y-148822D01*
X-151465Y-146140D01*
X-153232Y-143837D01*
X-155535Y-142070D01*
X-158217Y-140959D01*
X-161095Y-140580D01*
D02*
G37*
G36*
X-104925Y-168230D02*
X-106715D01*
X-108369Y-168915D01*
X-109635Y-170181D01*
X-110320Y-171835D01*
Y-173625D01*
X-109635Y-175279D01*
X-108369Y-176545D01*
X-106715Y-177230D01*
X-104925D01*
X-103271Y-176545D01*
X-102005Y-175279D01*
X-101320Y-173625D01*
Y-171835D01*
X-102005Y-170181D01*
X-103271Y-168915D01*
X-104925Y-168230D01*
D02*
G37*
G36*
X25875Y-163130D02*
X24085D01*
X22431Y-163815D01*
X21165Y-165081D01*
X20480Y-166735D01*
Y-167847D01*
X19766Y-168741D01*
X19307Y-168880D01*
X17865D01*
X16211Y-169565D01*
X14945Y-170831D01*
X14260Y-172485D01*
Y-174275D01*
X14945Y-175929D01*
X16211Y-177195D01*
X17865Y-177880D01*
X19655D01*
X21309Y-177195D01*
X22575Y-175929D01*
X23260Y-174275D01*
Y-173163D01*
X23974Y-172269D01*
X24433Y-172130D01*
X25875D01*
X27529Y-171445D01*
X28795Y-170179D01*
X29480Y-168525D01*
Y-166735D01*
X28795Y-165081D01*
X27529Y-163815D01*
X25875Y-163130D01*
D02*
G37*
G36*
X-24705Y-165991D02*
X-26495D01*
X-28149Y-166676D01*
X-29415Y-167942D01*
X-30100Y-169596D01*
Y-171386D01*
X-29415Y-173040D01*
X-28149Y-174306D01*
X-26687Y-174911D01*
X-25600Y-175605D01*
Y-177395D01*
X-24915Y-179049D01*
X-23649Y-180315D01*
X-21995Y-181000D01*
X-20205D01*
X-18551Y-180315D01*
X-17285Y-179049D01*
X-16600Y-177395D01*
Y-175605D01*
X-17285Y-173951D01*
X-18551Y-172685D01*
X-20013Y-172080D01*
X-21100Y-171386D01*
Y-169596D01*
X-21785Y-167942D01*
X-23051Y-166676D01*
X-24705Y-165991D01*
D02*
G37*
G36*
X48245Y-167500D02*
X46455D01*
X44801Y-168185D01*
X43535Y-169451D01*
X42850Y-171105D01*
Y-172895D01*
X43535Y-174549D01*
X44801Y-175815D01*
X46455Y-176500D01*
X48245D01*
X49899Y-175815D01*
X50833Y-174881D01*
X51165Y-174549D01*
X52169Y-175204D01*
X52026Y-175550D01*
X51800Y-176096D01*
Y-177886D01*
X52485Y-179540D01*
X53751Y-180806D01*
X55405Y-181491D01*
X57195D01*
X58849Y-180806D01*
X60115Y-179540D01*
X60800Y-177886D01*
Y-176096D01*
X60115Y-174442D01*
X58849Y-173176D01*
X57195Y-172491D01*
X55405D01*
X53751Y-173176D01*
X52817Y-174110D01*
X52485Y-174442D01*
X51480Y-173787D01*
X51624Y-173441D01*
X51850Y-172895D01*
Y-171105D01*
X51165Y-169451D01*
X49899Y-168185D01*
X48245Y-167500D01*
D02*
G37*
G36*
X70895Y-27000D02*
X69105D01*
X67451Y-27685D01*
X66185Y-28951D01*
X65500Y-30605D01*
Y-32395D01*
X66185Y-34049D01*
X67115Y-34979D01*
X19808Y-82286D01*
X-59480D01*
X-60553Y-82500D01*
X-61463Y-83107D01*
X-83683Y-105327D01*
X-84290Y-106237D01*
X-84504Y-107310D01*
Y-169279D01*
X-100011Y-184786D01*
X-102260D01*
X-103271Y-183775D01*
X-104925Y-183090D01*
X-106715D01*
X-108369Y-183775D01*
X-109635Y-185041D01*
X-110320Y-186695D01*
Y-188485D01*
X-109635Y-190139D01*
X-108369Y-191405D01*
X-106715Y-192090D01*
X-104925D01*
X-103271Y-191405D01*
X-102260Y-190394D01*
X-98850D01*
X-97777Y-190180D01*
X-96867Y-189573D01*
X-79717Y-172423D01*
X-79110Y-171513D01*
X-78896Y-170440D01*
Y-108471D01*
X-58319Y-87894D01*
X20969D01*
X22042Y-87680D01*
X22952Y-87073D01*
X71983Y-38042D01*
X72590Y-37132D01*
X72804Y-36059D01*
Y-35060D01*
X73815Y-34049D01*
X74500Y-32395D01*
Y-30605D01*
X73815Y-28951D01*
X72549Y-27685D01*
X70895Y-27000D01*
D02*
G37*
G36*
X-150070Y-166075D02*
X-175930D01*
Y-188125D01*
X-150070D01*
Y-166075D01*
D02*
G37*
G36*
X48545Y-196030D02*
X46755D01*
X45101Y-196715D01*
X43835Y-197981D01*
X43150Y-199635D01*
Y-201425D01*
X43835Y-203079D01*
X45101Y-204345D01*
X46755Y-205030D01*
X48545D01*
X50199Y-204345D01*
X51465Y-203079D01*
X52150Y-201425D01*
Y-199635D01*
X51465Y-197981D01*
X50199Y-196715D01*
X48545Y-196030D01*
D02*
G37*
G36*
X59835Y-196330D02*
X58045D01*
X56391Y-197015D01*
X55125Y-198281D01*
X54440Y-199935D01*
Y-201725D01*
X55125Y-203379D01*
X56391Y-204645D01*
X58045Y-205330D01*
X59835D01*
X61489Y-204645D01*
X62755Y-203379D01*
X63440Y-201725D01*
Y-199935D01*
X62755Y-198281D01*
X61489Y-197015D01*
X59835Y-196330D01*
D02*
G37*
G36*
X40883Y-206179D02*
X39093D01*
X37439Y-206864D01*
X36173Y-208130D01*
X35488Y-209784D01*
Y-211574D01*
X36173Y-213228D01*
X37439Y-214494D01*
X39093Y-215179D01*
X40883D01*
X42537Y-214494D01*
X43803Y-213228D01*
X44488Y-211574D01*
Y-209784D01*
X43803Y-208130D01*
X42537Y-206864D01*
X40883Y-206179D01*
D02*
G37*
G36*
X-102575Y-233070D02*
X-124625D01*
Y-258930D01*
X-102575D01*
Y-233070D01*
D02*
G37*
G36*
X-139000Y-232975D02*
X-141878Y-233354D01*
X-144560Y-234465D01*
X-146863Y-236232D01*
X-148630Y-238535D01*
X-149741Y-241217D01*
X-150120Y-244095D01*
Y-247905D01*
X-149741Y-250783D01*
X-148630Y-253465D01*
X-146863Y-255768D01*
X-144560Y-257535D01*
X-141878Y-258646D01*
X-139000Y-259025D01*
X-136122Y-258646D01*
X-133440Y-257535D01*
X-131137Y-255768D01*
X-129370Y-253465D01*
X-128259Y-250783D01*
X-127880Y-247905D01*
Y-244095D01*
X-128259Y-241217D01*
X-129370Y-238535D01*
X-131137Y-236232D01*
X-133440Y-234465D01*
X-136122Y-233354D01*
X-139000Y-232975D01*
D02*
G37*
G36*
X423205Y235710D02*
X421415D01*
X419761Y235025D01*
X418495Y233759D01*
X417810Y232105D01*
Y230315D01*
X418495Y228661D01*
X419761Y227395D01*
X421415Y226710D01*
X423205D01*
X424859Y227395D01*
X426125Y228661D01*
X426810Y230315D01*
Y232105D01*
X426125Y233759D01*
X424859Y235025D01*
X423205Y235710D01*
D02*
G37*
G36*
X-274285Y226610D02*
X-276075D01*
X-277729Y225925D01*
X-278995Y224659D01*
X-279680Y223005D01*
Y221215D01*
X-278995Y219561D01*
X-277729Y218295D01*
X-276075Y217610D01*
X-274285D01*
X-272631Y218295D01*
X-271365Y219561D01*
X-270680Y221215D01*
Y223005D01*
X-271365Y224659D01*
X-272631Y225925D01*
X-274285Y226610D01*
D02*
G37*
G36*
X-290965D02*
X-292755D01*
X-294409Y225925D01*
X-295675Y224659D01*
X-296360Y223005D01*
Y221215D01*
X-295675Y219561D01*
X-294409Y218295D01*
X-292755Y217610D01*
X-290965D01*
X-289311Y218295D01*
X-288045Y219561D01*
X-287360Y221215D01*
Y223005D01*
X-288045Y224659D01*
X-289311Y225925D01*
X-290965Y226610D01*
D02*
G37*
G36*
X-307045D02*
X-308835D01*
X-310489Y225925D01*
X-311755Y224659D01*
X-312440Y223005D01*
Y221215D01*
X-311755Y219561D01*
X-310489Y218295D01*
X-308835Y217610D01*
X-307045D01*
X-305391Y218295D01*
X-304125Y219561D01*
X-303440Y221215D01*
Y223005D01*
X-304125Y224659D01*
X-305391Y225925D01*
X-307045Y226610D01*
D02*
G37*
G36*
X-321895D02*
X-323685D01*
X-325339Y225925D01*
X-326605Y224659D01*
X-327290Y223005D01*
Y221215D01*
X-326605Y219561D01*
X-325339Y218295D01*
X-323685Y217610D01*
X-321895D01*
X-320241Y218295D01*
X-318975Y219561D01*
X-318290Y221215D01*
Y223005D01*
X-318975Y224659D01*
X-320241Y225925D01*
X-321895Y226610D01*
D02*
G37*
G36*
X-264895Y215920D02*
X-266685D01*
X-268339Y215235D01*
X-269605Y213969D01*
X-270290Y212315D01*
Y210525D01*
X-269605Y208871D01*
X-268339Y207605D01*
X-266685Y206920D01*
X-264895D01*
X-263241Y207605D01*
X-261975Y208871D01*
X-261290Y210525D01*
Y212315D01*
X-261975Y213969D01*
X-263241Y215235D01*
X-264895Y215920D01*
D02*
G37*
G36*
X-282805D02*
X-284595D01*
X-286249Y215235D01*
X-287515Y213969D01*
X-288200Y212315D01*
Y210525D01*
X-287515Y208871D01*
X-286249Y207605D01*
X-284595Y206920D01*
X-282805D01*
X-281151Y207605D01*
X-279885Y208871D01*
X-279200Y210525D01*
Y212315D01*
X-279885Y213969D01*
X-281151Y215235D01*
X-282805Y215920D01*
D02*
G37*
G36*
X-299485D02*
X-301275D01*
X-302929Y215235D01*
X-304195Y213969D01*
X-304880Y212315D01*
Y210525D01*
X-304195Y208871D01*
X-302929Y207605D01*
X-301275Y206920D01*
X-299485D01*
X-297831Y207605D01*
X-296565Y208871D01*
X-295880Y210525D01*
Y212315D01*
X-296565Y213969D01*
X-297831Y215235D01*
X-299485Y215920D01*
D02*
G37*
G36*
X-315125D02*
X-316915D01*
X-318569Y215235D01*
X-319835Y213969D01*
X-320520Y212315D01*
Y210525D01*
X-319835Y208871D01*
X-318569Y207605D01*
X-316915Y206920D01*
X-315125D01*
X-313471Y207605D01*
X-312205Y208871D01*
X-311520Y210525D01*
Y212315D01*
X-312205Y213969D01*
X-313471Y215235D01*
X-315125Y215920D01*
D02*
G37*
G36*
X-329105D02*
X-330895D01*
X-332549Y215235D01*
X-333815Y213969D01*
X-334500Y212315D01*
Y210525D01*
X-333815Y208871D01*
X-332549Y207605D01*
X-330895Y206920D01*
X-329105D01*
X-327451Y207605D01*
X-326185Y208871D01*
X-325500Y210525D01*
Y212315D01*
X-326185Y213969D01*
X-327451Y215235D01*
X-329105Y215920D01*
D02*
G37*
G36*
X-281024Y187672D02*
X-282814D01*
X-284468Y186986D01*
X-285734Y185721D01*
X-286419Y184067D01*
Y182276D01*
X-285734Y180622D01*
X-284468Y179357D01*
X-282814Y178671D01*
X-281024D01*
X-279370Y179357D01*
X-278104Y180622D01*
X-277419Y182276D01*
Y184067D01*
X-278104Y185721D01*
X-279370Y186986D01*
X-281024Y187672D01*
D02*
G37*
G36*
X-301024D02*
X-302814D01*
X-304468Y186986D01*
X-305734Y185721D01*
X-306419Y184067D01*
Y182276D01*
X-305734Y180622D01*
X-304468Y179357D01*
X-302814Y178671D01*
X-301024D01*
X-299370Y179357D01*
X-298104Y180622D01*
X-297419Y182276D01*
Y184067D01*
X-298104Y185721D01*
X-299370Y186986D01*
X-301024Y187672D01*
D02*
G37*
G36*
X-321024D02*
X-322814D01*
X-324468Y186986D01*
X-325734Y185721D01*
X-326419Y184067D01*
Y182276D01*
X-325734Y180622D01*
X-324468Y179357D01*
X-322814Y178671D01*
X-321024D01*
X-319370Y179357D01*
X-318104Y180622D01*
X-317419Y182276D01*
Y184067D01*
X-318104Y185721D01*
X-319370Y186986D01*
X-321024Y187672D01*
D02*
G37*
G36*
X-291024Y167672D02*
X-292814D01*
X-294468Y166986D01*
X-295734Y165721D01*
X-296419Y164067D01*
Y162276D01*
X-295734Y160622D01*
X-294468Y159357D01*
X-292814Y158672D01*
X-291024D01*
X-289370Y159357D01*
X-288104Y160622D01*
X-287419Y162276D01*
Y164067D01*
X-288104Y165721D01*
X-289370Y166986D01*
X-291024Y167672D01*
D02*
G37*
G36*
X-281024Y147671D02*
X-282814D01*
X-284468Y146986D01*
X-285734Y145721D01*
X-286419Y144067D01*
Y142276D01*
X-285734Y140622D01*
X-284468Y139357D01*
X-282814Y138672D01*
X-281024D01*
X-279370Y139357D01*
X-278104Y140622D01*
X-277419Y142276D01*
Y144067D01*
X-278104Y145721D01*
X-279370Y146986D01*
X-281024Y147671D01*
D02*
G37*
G36*
X-301024D02*
X-302814D01*
X-304468Y146986D01*
X-305734Y145721D01*
X-306419Y144067D01*
Y142276D01*
X-305734Y140622D01*
X-304468Y139357D01*
X-302814Y138672D01*
X-301024D01*
X-299370Y139357D01*
X-298104Y140622D01*
X-297419Y142276D01*
Y144067D01*
X-298104Y145721D01*
X-299370Y146986D01*
X-301024Y147671D01*
D02*
G37*
G36*
X-321024D02*
X-322814D01*
X-324468Y146986D01*
X-325734Y145721D01*
X-326419Y144067D01*
Y142276D01*
X-325734Y140622D01*
X-324468Y139357D01*
X-322814Y138672D01*
X-321024D01*
X-319370Y139357D01*
X-318104Y140622D01*
X-317419Y142276D01*
Y144067D01*
X-318104Y145721D01*
X-319370Y146986D01*
X-321024Y147671D01*
D02*
G37*
G36*
X-291024Y127671D02*
X-292814D01*
X-294468Y126986D01*
X-295734Y125721D01*
X-296419Y124067D01*
Y122276D01*
X-295734Y120622D01*
X-294468Y119357D01*
X-292814Y118672D01*
X-291024D01*
X-289370Y119357D01*
X-288104Y120622D01*
X-287419Y122276D01*
Y124067D01*
X-288104Y125721D01*
X-289370Y126986D01*
X-291024Y127671D01*
D02*
G37*
G36*
X-311024D02*
X-312814D01*
X-314468Y126986D01*
X-315734Y125721D01*
X-316419Y124067D01*
Y122276D01*
X-315734Y120622D01*
X-314468Y119357D01*
X-312814Y118672D01*
X-311024D01*
X-309370Y119357D01*
X-308104Y120622D01*
X-307419Y122276D01*
Y124067D01*
X-308104Y125721D01*
X-309370Y126986D01*
X-311024Y127671D01*
D02*
G37*
G36*
X-331024D02*
X-332814D01*
X-334468Y126986D01*
X-335734Y125721D01*
X-336419Y124067D01*
Y122276D01*
X-335734Y120622D01*
X-334468Y119357D01*
X-332814Y118672D01*
X-331024D01*
X-329370Y119357D01*
X-328104Y120622D01*
X-327419Y122276D01*
Y124067D01*
X-328104Y125721D01*
X-329370Y126986D01*
X-331024Y127671D01*
D02*
G37*
G36*
X-291024Y87671D02*
X-292814D01*
X-294468Y86986D01*
X-295734Y85721D01*
X-296419Y84066D01*
Y82276D01*
X-295734Y80622D01*
X-294468Y79356D01*
X-292814Y78671D01*
X-291024D01*
X-289370Y79356D01*
X-288104Y80622D01*
X-287419Y82276D01*
Y84066D01*
X-288104Y85721D01*
X-289370Y86986D01*
X-291024Y87671D01*
D02*
G37*
G36*
X-311024D02*
X-312814D01*
X-314468Y86986D01*
X-315734Y85721D01*
X-316419Y84066D01*
Y82276D01*
X-315734Y80622D01*
X-314468Y79356D01*
X-312814Y78671D01*
X-311024D01*
X-309370Y79356D01*
X-308104Y80622D01*
X-307419Y82276D01*
Y84066D01*
X-308104Y85721D01*
X-309370Y86986D01*
X-311024Y87671D01*
D02*
G37*
G36*
X-331024D02*
X-332814D01*
X-334468Y86986D01*
X-335734Y85721D01*
X-336419Y84066D01*
Y82276D01*
X-335734Y80622D01*
X-334468Y79356D01*
X-332814Y78671D01*
X-331024D01*
X-329370Y79356D01*
X-328104Y80622D01*
X-327419Y82276D01*
Y84066D01*
X-328104Y85721D01*
X-329370Y86986D01*
X-331024Y87671D01*
D02*
G37*
G36*
X-281024Y67671D02*
X-282814D01*
X-284468Y66986D01*
X-285734Y65721D01*
X-286419Y64067D01*
Y62276D01*
X-285734Y60622D01*
X-284468Y59356D01*
X-282814Y58671D01*
X-281024D01*
X-279370Y59356D01*
X-278104Y60622D01*
X-277419Y62276D01*
Y64067D01*
X-278104Y65721D01*
X-279370Y66986D01*
X-281024Y67671D01*
D02*
G37*
G36*
X-301024D02*
X-302814D01*
X-304468Y66986D01*
X-305734Y65721D01*
X-306419Y64067D01*
Y62276D01*
X-305734Y60622D01*
X-304468Y59356D01*
X-302814Y58671D01*
X-301024D01*
X-299370Y59356D01*
X-298104Y60622D01*
X-297419Y62276D01*
Y64067D01*
X-298104Y65721D01*
X-299370Y66986D01*
X-301024Y67671D01*
D02*
G37*
G36*
X-321024D02*
X-322814D01*
X-324468Y66986D01*
X-325734Y65721D01*
X-326419Y64067D01*
Y62276D01*
X-325734Y60622D01*
X-324468Y59356D01*
X-322814Y58671D01*
X-321024D01*
X-319370Y59356D01*
X-318104Y60622D01*
X-317419Y62276D01*
Y64067D01*
X-318104Y65721D01*
X-319370Y66986D01*
X-321024Y67671D01*
D02*
G37*
G36*
X-291024Y47671D02*
X-292814D01*
X-294468Y46986D01*
X-295734Y45721D01*
X-296419Y44067D01*
Y42276D01*
X-295734Y40622D01*
X-294468Y39357D01*
X-292814Y38671D01*
X-291024D01*
X-289370Y39357D01*
X-288104Y40622D01*
X-287419Y42276D01*
Y44067D01*
X-288104Y45721D01*
X-289370Y46986D01*
X-291024Y47671D01*
D02*
G37*
G36*
X-281024Y27671D02*
X-282814D01*
X-284468Y26986D01*
X-285734Y25720D01*
X-286419Y24067D01*
Y22276D01*
X-285734Y20622D01*
X-284468Y19356D01*
X-282814Y18671D01*
X-281024D01*
X-279370Y19356D01*
X-278104Y20622D01*
X-277419Y22276D01*
Y24067D01*
X-278104Y25720D01*
X-279370Y26986D01*
X-281024Y27671D01*
D02*
G37*
G36*
Y-12329D02*
X-282814D01*
X-284468Y-13014D01*
X-285734Y-14280D01*
X-286419Y-15934D01*
Y-17724D01*
X-285734Y-19378D01*
X-284468Y-20643D01*
X-282814Y-21329D01*
X-281024D01*
X-279370Y-20643D01*
X-278104Y-19378D01*
X-277419Y-17724D01*
Y-15934D01*
X-278104Y-14280D01*
X-279370Y-13014D01*
X-281024Y-12329D01*
D02*
G37*
G36*
X-301024D02*
X-302814D01*
X-304468Y-13014D01*
X-305734Y-14280D01*
X-306419Y-15934D01*
Y-17724D01*
X-305734Y-19378D01*
X-304468Y-20643D01*
X-302814Y-21329D01*
X-301024D01*
X-299370Y-20643D01*
X-298104Y-19378D01*
X-297419Y-17724D01*
Y-15934D01*
X-298104Y-14280D01*
X-299370Y-13014D01*
X-301024Y-12329D01*
D02*
G37*
G36*
X296765Y-29990D02*
X294975D01*
X293321Y-30675D01*
X292055Y-31941D01*
X291370Y-33595D01*
Y-35385D01*
X292055Y-37039D01*
X293321Y-38305D01*
X294975Y-38990D01*
X296765D01*
X298419Y-38305D01*
X299685Y-37039D01*
X300370Y-35385D01*
Y-33595D01*
X299685Y-31941D01*
X298419Y-30675D01*
X296765Y-29990D01*
D02*
G37*
G36*
X298977Y-52329D02*
X297187D01*
X295533Y-53014D01*
X294267Y-54280D01*
X293582Y-55933D01*
Y-57724D01*
X294267Y-59378D01*
X295533Y-60644D01*
X297187Y-61329D01*
X298977D01*
X300631Y-60644D01*
X301896Y-59378D01*
X302582Y-57724D01*
Y-55933D01*
X301896Y-54280D01*
X300631Y-53014D01*
X298977Y-52329D01*
D02*
G37*
G36*
X279015Y-62230D02*
X277225D01*
X275571Y-62915D01*
X274305Y-64181D01*
X273620Y-65835D01*
Y-67625D01*
X274305Y-69279D01*
X275571Y-70545D01*
X277225Y-71230D01*
X279015D01*
X280669Y-70545D01*
X281935Y-69279D01*
X282620Y-67625D01*
Y-65835D01*
X281935Y-64181D01*
X280669Y-62915D01*
X279015Y-62230D01*
D02*
G37*
G36*
X321045Y-62750D02*
X319255D01*
X317601Y-63435D01*
X316335Y-64701D01*
X315650Y-66355D01*
Y-68145D01*
X316335Y-69799D01*
X317601Y-71065D01*
X319255Y-71750D01*
X321045D01*
X322699Y-71065D01*
X323965Y-69799D01*
X324650Y-68145D01*
Y-66355D01*
X323965Y-64701D01*
X322699Y-63435D01*
X321045Y-62750D01*
D02*
G37*
G36*
X308977Y-72329D02*
X307187D01*
X305533Y-73014D01*
X304267Y-74280D01*
X303582Y-75934D01*
Y-77724D01*
X304267Y-79378D01*
X305533Y-80644D01*
X307187Y-81329D01*
X308977D01*
X310631Y-80644D01*
X311896Y-79378D01*
X312582Y-77724D01*
Y-75934D01*
X311896Y-74280D01*
X310631Y-73014D01*
X308977Y-72329D01*
D02*
G37*
G36*
X288977D02*
X287187D01*
X285533Y-73014D01*
X284267Y-74280D01*
X283582Y-75934D01*
Y-77724D01*
X284267Y-79378D01*
X285533Y-80644D01*
X287187Y-81329D01*
X288977D01*
X290631Y-80644D01*
X291896Y-79378D01*
X292582Y-77724D01*
Y-75934D01*
X291896Y-74280D01*
X290631Y-73014D01*
X288977Y-72329D01*
D02*
G37*
G36*
X268977D02*
X267187D01*
X265532Y-73014D01*
X264267Y-74280D01*
X263582Y-75934D01*
Y-77724D01*
X264267Y-79378D01*
X265532Y-80644D01*
X267187Y-81329D01*
X268977D01*
X270631Y-80644D01*
X271896Y-79378D01*
X272582Y-77724D01*
Y-75934D01*
X271896Y-74280D01*
X270631Y-73014D01*
X268977Y-72329D01*
D02*
G37*
G36*
X298977Y-92329D02*
X297187D01*
X295533Y-93014D01*
X294267Y-94280D01*
X293582Y-95934D01*
Y-97724D01*
X294267Y-99378D01*
X295533Y-100644D01*
X297187Y-101329D01*
X298977D01*
X300631Y-100644D01*
X301896Y-99378D01*
X302582Y-97724D01*
Y-95934D01*
X301896Y-94280D01*
X300631Y-93014D01*
X298977Y-92329D01*
D02*
G37*
G36*
X309165Y-120450D02*
X307375D01*
X305721Y-121135D01*
X304455Y-122401D01*
X303770Y-124055D01*
Y-125845D01*
X304455Y-127499D01*
X305721Y-128765D01*
X307375Y-129450D01*
X309165D01*
X310819Y-128765D01*
X312085Y-127499D01*
X312770Y-125845D01*
Y-124055D01*
X312085Y-122401D01*
X310819Y-121135D01*
X309165Y-120450D01*
D02*
G37*
G36*
X289715Y-120710D02*
X287925D01*
X286271Y-121395D01*
X285005Y-122661D01*
X284320Y-124315D01*
Y-126105D01*
X285005Y-127759D01*
X286271Y-129025D01*
X287925Y-129710D01*
X289715D01*
X291369Y-129025D01*
X292635Y-127759D01*
X293320Y-126105D01*
Y-124315D01*
X292635Y-122661D01*
X291369Y-121395D01*
X289715Y-120710D01*
D02*
G37*
G36*
X268695D02*
X266905D01*
X265251Y-121395D01*
X263985Y-122661D01*
X263300Y-124315D01*
Y-126105D01*
X263985Y-127759D01*
X265251Y-129025D01*
X266905Y-129710D01*
X268695D01*
X270349Y-129025D01*
X271615Y-127759D01*
X272300Y-126105D01*
Y-124315D01*
X271615Y-122661D01*
X270349Y-121395D01*
X268695Y-120710D01*
D02*
G37*
G36*
X318977Y-132329D02*
X317187D01*
X315533Y-133014D01*
X314267Y-134280D01*
X313582Y-135934D01*
Y-137724D01*
X314267Y-139378D01*
X315533Y-140644D01*
X317187Y-141329D01*
X318977D01*
X320631Y-140644D01*
X321897Y-139378D01*
X322582Y-137724D01*
Y-135934D01*
X321897Y-134280D01*
X320631Y-133014D01*
X318977Y-132329D01*
D02*
G37*
G36*
X298977D02*
X297187D01*
X295533Y-133014D01*
X294267Y-134280D01*
X293582Y-135934D01*
Y-137724D01*
X294267Y-139378D01*
X295533Y-140644D01*
X297187Y-141329D01*
X298977D01*
X300631Y-140644D01*
X301896Y-139378D01*
X302582Y-137724D01*
Y-135934D01*
X301896Y-134280D01*
X300631Y-133014D01*
X298977Y-132329D01*
D02*
G37*
G36*
X278977D02*
X277187D01*
X275532Y-133014D01*
X274267Y-134280D01*
X273582Y-135934D01*
Y-137724D01*
X274267Y-139378D01*
X275532Y-140644D01*
X277187Y-141329D01*
X278977D01*
X280631Y-140644D01*
X281896Y-139378D01*
X282582Y-137724D01*
Y-135934D01*
X281896Y-134280D01*
X280631Y-133014D01*
X278977Y-132329D01*
D02*
G37*
G36*
X258977D02*
X257187D01*
X255532Y-133014D01*
X254267Y-134280D01*
X253582Y-135934D01*
Y-137724D01*
X254267Y-139378D01*
X255532Y-140644D01*
X257187Y-141329D01*
X258977D01*
X260631Y-140644D01*
X261896Y-139378D01*
X262582Y-137724D01*
Y-135934D01*
X261896Y-134280D01*
X260631Y-133014D01*
X258977Y-132329D01*
D02*
G37*
G36*
X-226175Y-140610D02*
X-227965D01*
X-229619Y-141295D01*
X-230885Y-142561D01*
X-231570Y-144215D01*
Y-146005D01*
X-230885Y-147659D01*
X-229619Y-148925D01*
X-227965Y-149610D01*
X-226175D01*
X-224521Y-148925D01*
X-223255Y-147659D01*
X-222570Y-146005D01*
Y-144215D01*
X-223255Y-142561D01*
X-224521Y-141295D01*
X-226175Y-140610D01*
D02*
G37*
G36*
X295985Y-147100D02*
X294195D01*
X292541Y-147785D01*
X291275Y-149051D01*
X290590Y-150705D01*
Y-152495D01*
X291275Y-154149D01*
X292541Y-155415D01*
X294195Y-156100D01*
X295985D01*
X297639Y-155415D01*
X298905Y-154149D01*
X299590Y-152495D01*
Y-150705D01*
X298905Y-149051D01*
X297639Y-147785D01*
X295985Y-147100D01*
D02*
G37*
G36*
X296085Y-163790D02*
X294295D01*
X292641Y-164475D01*
X291375Y-165741D01*
X290690Y-167395D01*
Y-169185D01*
X291375Y-170839D01*
X292641Y-172105D01*
X294295Y-172790D01*
X296085D01*
X297739Y-172105D01*
X299005Y-170839D01*
X299690Y-169185D01*
Y-167395D01*
X299005Y-165741D01*
X297739Y-164475D01*
X296085Y-163790D01*
D02*
G37*
G36*
X9025Y-245210D02*
X7235D01*
X5581Y-245895D01*
X4315Y-247161D01*
X3630Y-248815D01*
Y-250605D01*
X4315Y-252259D01*
X5581Y-253525D01*
X7235Y-254210D01*
X9025D01*
X10679Y-253525D01*
X11261Y-252943D01*
X12374Y-252581D01*
X12893Y-252970D01*
X13738Y-253815D01*
X15392Y-254500D01*
X17182D01*
X18836Y-253815D01*
X20102Y-252549D01*
X20787Y-250895D01*
Y-249105D01*
X20102Y-247451D01*
X18836Y-246185D01*
X17182Y-245500D01*
X15392D01*
X13738Y-246185D01*
X13156Y-246767D01*
X12043Y-247129D01*
X11524Y-246740D01*
X10679Y-245895D01*
X9025Y-245210D01*
D02*
G37*
G36*
X24205Y-295290D02*
X22415D01*
X20761Y-295975D01*
X19495Y-297241D01*
X18810Y-298895D01*
Y-300685D01*
X19495Y-302339D01*
X20761Y-303605D01*
X21034Y-303718D01*
Y-305093D01*
X20811Y-305185D01*
X19545Y-306451D01*
X18860Y-308105D01*
Y-309895D01*
X19545Y-311549D01*
X20811Y-312815D01*
X20826Y-312821D01*
Y-314196D01*
X20441Y-314355D01*
X19175Y-315621D01*
X18490Y-317275D01*
Y-319065D01*
X19175Y-320719D01*
X20441Y-321985D01*
X20568Y-322038D01*
Y-323412D01*
X20441Y-323465D01*
X19175Y-324731D01*
X18490Y-326385D01*
Y-328175D01*
X19175Y-329829D01*
X20441Y-331095D01*
X22095Y-331780D01*
X23885D01*
X25539Y-331095D01*
X26805Y-329829D01*
X27490Y-328175D01*
Y-326385D01*
X26805Y-324731D01*
X25539Y-323465D01*
X25412Y-323412D01*
Y-322038D01*
X25539Y-321985D01*
X26805Y-320719D01*
X27490Y-319065D01*
Y-317275D01*
X26805Y-315621D01*
X25539Y-314355D01*
X25524Y-314349D01*
Y-312974D01*
X25909Y-312815D01*
X27175Y-311549D01*
X27860Y-309895D01*
Y-308105D01*
X27175Y-306451D01*
X25909Y-305185D01*
X25636Y-305072D01*
Y-303697D01*
X25859Y-303605D01*
X27125Y-302339D01*
X27810Y-300685D01*
Y-298895D01*
X27125Y-297241D01*
X25859Y-295975D01*
X24205Y-295290D01*
D02*
G37*
%LPD*%
D10*
X-81700Y-107310D02*
X-59480Y-85090D01*
X20969D02*
X70000Y-36059D01*
X-59480Y-85090D02*
X20969D01*
X-81700Y-170440D02*
Y-107310D01*
X-98850Y-187590D02*
X-81700Y-170440D01*
X-105820Y-187590D02*
X-98850D01*
X70000Y-36059D02*
Y-31500D01*
D12*
X-7Y-31232D02*
Y21590D01*
Y-31232D02*
X2850Y-34089D01*
Y-34630D02*
Y-34089D01*
D22*
X33406Y447604D02*
X36556D01*
X-23420Y475560D02*
X5450D01*
X33406Y447604D01*
X36556D02*
X37130Y447030D01*
D134*
X81560Y356240D02*
D03*
X-9640Y356470D02*
D03*
X-99450Y356240D02*
D03*
D135*
X121160D02*
D03*
X29960Y356470D02*
D03*
X-59850Y356240D02*
D03*
D152*
X840000Y0D02*
G03*
X840000Y0I-840000J0D01*
G01*
D162*
X-659460Y73820D02*
X-536390Y-49250D01*
X182740Y-511890D02*
Y-433790D01*
Y-520720D02*
Y-511890D01*
X-104122Y-490180D02*
X173220D01*
Y-511890D02*
Y-490180D01*
X182740Y-433790D02*
X204885Y-411645D01*
X323682Y-529670D02*
X329540Y-523812D01*
Y-418920D01*
X182740Y-529670D02*
X323682D01*
X173220D02*
Y-520720D01*
Y-511890D01*
X182740Y-529670D02*
Y-520720D01*
X312500Y136540D02*
Y273780D01*
X302810Y126850D02*
X312500Y136540D01*
X60724Y-512624D02*
X128110Y-580010D01*
X308870D02*
X360050Y-528830D01*
X128110Y-580010D02*
X308870D01*
X204885Y-411645D02*
Y-278745D01*
Y-90715D01*
X252410Y-231220D02*
X282450D01*
X204885Y-278745D02*
X252410Y-231220D01*
X164800Y-50630D02*
X204885Y-90715D01*
X-109980Y-484322D02*
X-104122Y-490180D01*
X-109980Y-484322D02*
Y-395690D01*
X-135406Y-512624D02*
X60724D01*
X-188290Y-459740D02*
X-135406Y-512624D01*
X-227330Y-459740D02*
X-188290D01*
X360050Y-480880D02*
X363230Y-477700D01*
X360050Y-528830D02*
Y-480880D01*
X329540Y-418920D02*
X519270Y-229190D01*
X-659460Y73820D02*
Y84060D01*
X-536390Y-259620D02*
Y-49250D01*
X-554720Y-299140D02*
Y-277630D01*
X-554400D02*
X-536390Y-259620D01*
X-3Y547300D02*
X36957Y510340D01*
X136450D01*
X253220Y393570D01*
X394710D01*
X519270Y269010D01*
Y-229190D02*
Y269010D01*
X293010Y310330D02*
X312500Y290840D01*
X154640Y275950D02*
Y310330D01*
X293010D01*
X154640D02*
Y330849D01*
X108020Y229330D02*
X154640Y275950D01*
X312500Y273780D02*
Y290840D01*
Y273780D02*
X425320D01*
X468200Y-110000D02*
Y230900D01*
X425320Y273780D02*
X468200Y230900D01*
X346860Y-231340D02*
X468200Y-110000D01*
X-138460Y-83881D02*
X-135531Y-86810D01*
X-138460Y-83881D02*
Y-50336D01*
X-135531Y-86810D02*
X-105760D01*
X-138460Y-50336D02*
X-129140Y-41016D01*
X-63240Y-66640D02*
Y-48070D01*
X-83410Y-86810D02*
X-63240Y-66640D01*
X-105760Y-86810D02*
X-83410D01*
X-63240Y-48070D02*
X-44276D01*
X-105760Y-119372D02*
Y-86810D01*
Y-147130D02*
Y-119372D01*
X158370Y-44200D02*
X160275D01*
X164800Y-48725D01*
Y-50630D02*
Y-48725D01*
X-65100Y-350810D02*
Y-254230D01*
X-107550Y-211780D02*
X-65100Y-254230D01*
X-109980Y-395690D02*
X-65100Y-350810D01*
X282450Y-231220D02*
X346740D01*
X346860Y-231340D01*
X-119990Y-199340D02*
Y-161360D01*
Y-199340D02*
X-107550Y-211780D01*
X-119990Y-161360D02*
X-105760Y-147130D01*
D163*
X-252730Y-459740D02*
X-227330D01*
X252640Y356700D02*
X394970D01*
X494500Y257170D01*
Y-182400D02*
Y257170D01*
X-39530Y-214800D02*
X-21330D01*
X-60900Y-193430D02*
Y-143900D01*
Y-193430D02*
X-39530Y-214800D01*
X-21330D02*
X5120D01*
X42090Y-251770D02*
X72740D01*
X5120Y-214800D02*
X42090Y-251770D01*
X-60900Y-143900D02*
X-42500D01*
X-33600Y-135000D02*
X-7971D01*
X-42500Y-143900D02*
X-33600Y-135000D01*
X362060Y-314840D02*
X494500Y-182400D01*
X78530Y-245980D02*
Y-124520D01*
X72740Y-251770D02*
X78530Y-245980D01*
X-129140Y-41016D02*
Y-40745D01*
X-44276Y-48070D02*
X-43836Y-48510D01*
X-43565D01*
X29905Y-4515D02*
X66250D01*
X13510Y11880D02*
X29905Y-4515D01*
X66250Y-4786D02*
X70460Y-8996D01*
X66250Y-4786D02*
Y-4515D01*
X70460Y-20940D02*
Y-8996D01*
Y-20940D02*
X93970D01*
X117230Y-44200D01*
X158370D01*
X78570Y-124480D02*
Y-117030D01*
X78530Y-124520D02*
X78570Y-124480D01*
Y-117030D02*
X78610Y-116990D01*
X-60760Y-254230D02*
X-21330Y-214800D01*
X-65100Y-254230D02*
X-60760D01*
X270450Y-314840D02*
X362060D01*
X93080Y485790D02*
X123550D01*
X252640Y356700D01*
X240047Y-345243D02*
X270450Y-314840D01*
X240047Y-382000D02*
Y-345243D01*
X105157Y-421703D02*
Y-382000D01*
X83650Y-443210D02*
X105157Y-421703D01*
X-9320Y-443210D02*
X83650D01*
X-44590Y-478480D02*
X-9320Y-443210D01*
X-92230Y-478480D02*
X-44590D01*
D165*
X298960Y-477700D02*
D03*
X363230D02*
D03*
X184660Y384750D02*
D03*
X-163000Y-177100D02*
D03*
Y-42700D02*
D03*
X158750Y-178100D02*
D03*
X158370Y-44200D02*
D03*
D166*
X298960Y-452300D02*
D03*
X363230D02*
D03*
X184660Y359350D02*
D03*
X-163000Y-151700D02*
D03*
Y-126300D02*
D03*
Y-100900D02*
D03*
Y8100D02*
D03*
Y33500D02*
D03*
Y-17300D02*
D03*
X158750Y-101900D02*
D03*
Y-152700D02*
D03*
Y-127300D02*
D03*
X158370Y-18800D02*
D03*
Y32000D02*
D03*
Y6600D02*
D03*
D167*
X-164400Y-246000D02*
D03*
X-139000D02*
D03*
X316247Y-382000D02*
D03*
X265447D02*
D03*
X290847D02*
D03*
X155957D02*
D03*
X130557D02*
D03*
X181357D02*
D03*
D168*
X-113600Y-246000D02*
D03*
X240047Y-382000D02*
D03*
X105157D02*
D03*
D169*
X-7Y46990D02*
D03*
Y21590D02*
D03*
X50793Y46990D02*
D03*
X25393D02*
D03*
X-25407D02*
D03*
X-50807D02*
D03*
Y21590D02*
D03*
X-25407D02*
D03*
X25393D02*
D03*
X220596Y-504110D02*
D03*
Y-478710D02*
D03*
X245996D02*
D03*
X220596Y-453310D02*
D03*
X245996Y-504110D02*
D03*
X-272700Y478100D02*
D03*
Y503500D02*
D03*
X-247300Y452700D02*
D03*
Y503500D02*
D03*
Y478100D02*
D03*
X-25403Y547300D02*
D03*
X25397D02*
D03*
X-3D02*
D03*
X25397Y572700D02*
D03*
X-3D02*
D03*
X314600Y427300D02*
D03*
X340000D02*
D03*
Y452700D02*
D03*
X365400D02*
D03*
Y427300D02*
D03*
X272700Y452700D02*
D03*
X247300Y503500D02*
D03*
Y478100D02*
D03*
X272700D02*
D03*
Y503500D02*
D03*
X-365400Y427300D02*
D03*
X-340000Y452700D02*
D03*
Y427300D02*
D03*
X-314600Y452700D02*
D03*
Y427300D02*
D03*
D170*
X50793Y21590D02*
D03*
X-25403Y572700D02*
D03*
X314600Y452700D02*
D03*
X-365400D02*
D03*
D171*
X-455930Y-307340D02*
D03*
X-227330Y-459740D02*
D03*
X-252730D02*
D03*
X-405130D02*
D03*
X-455930D02*
D03*
X-227330Y-307340D02*
D03*
X-252730D02*
D03*
D172*
X84520Y87440D02*
D03*
D173*
X-95479D02*
D03*
X-75479D02*
D03*
X-55479D02*
D03*
X-35480D02*
D03*
X-15480D02*
D03*
X4520D02*
D03*
X24520D02*
D03*
X44520D02*
D03*
X64520D02*
D03*
X84522Y307438D02*
D03*
X64522D02*
D03*
X44522D02*
D03*
X24522D02*
D03*
X4522D02*
D03*
X-15478D02*
D03*
X-35478D02*
D03*
X-55478D02*
D03*
X-75478D02*
D03*
X-95478D02*
D03*
D174*
X878992Y235525D02*
D03*
X-235525Y878992D02*
D03*
X627852Y168232D02*
D03*
X168232Y627852D02*
D03*
X643467Y643467D02*
D03*
X235525Y878992D02*
D03*
Y-878992D02*
D03*
X643467Y-643467D02*
D03*
X459619Y-459619D02*
D03*
X878992Y-235525D02*
D03*
X-627852Y-168232D02*
D03*
X-643467Y-643467D02*
D03*
X-235525Y-878992D02*
D03*
X-168232Y-627852D02*
D03*
X-878992Y235525D02*
D03*
X-643467Y643467D02*
D03*
X-459619Y459619D02*
D03*
X-878992Y-235525D02*
D03*
D175*
X878992Y258385D02*
D03*
X856133Y235525D02*
D03*
X878992Y212665D02*
D03*
X901852Y235525D02*
D03*
X895157Y251690D02*
D03*
X862828D02*
D03*
Y219361D02*
D03*
X895157D02*
D03*
X-235525Y901852D02*
D03*
X-258385Y878992D02*
D03*
X-235525Y856133D02*
D03*
X-212665Y878992D02*
D03*
X-219361Y895157D02*
D03*
X-251690D02*
D03*
Y862828D02*
D03*
X-219361D02*
D03*
X627852Y191092D02*
D03*
X604992Y168232D02*
D03*
X627852Y145372D02*
D03*
X650712Y168232D02*
D03*
X644016Y184397D02*
D03*
X611687Y184397D02*
D03*
Y152068D02*
D03*
X644016Y152068D02*
D03*
X168232Y650712D02*
D03*
X145372Y627852D02*
D03*
X168232Y604992D02*
D03*
X191092Y627852D02*
D03*
X184397Y644016D02*
D03*
X152068Y644016D02*
D03*
X152068Y611687D02*
D03*
X184397Y611687D02*
D03*
X643467Y666327D02*
D03*
X620607Y643467D02*
D03*
X643467Y620607D02*
D03*
X666327Y643467D02*
D03*
X659632Y659632D02*
D03*
X627303D02*
D03*
Y627303D02*
D03*
X659632Y627303D02*
D03*
X235525Y901852D02*
D03*
X212665Y878992D02*
D03*
X235525Y856133D02*
D03*
X258385Y878992D02*
D03*
X251690Y895157D02*
D03*
X219361D02*
D03*
Y862828D02*
D03*
X251690D02*
D03*
X235525Y-856133D02*
D03*
X212665Y-878992D02*
D03*
X235525Y-901852D02*
D03*
X258385Y-878992D02*
D03*
X251690Y-862828D02*
D03*
X219361D02*
D03*
X219361Y-895157D02*
D03*
X251690D02*
D03*
X659632Y-659632D02*
D03*
X627303Y-659632D02*
D03*
Y-627303D02*
D03*
X659632Y-627303D02*
D03*
X666327Y-643467D02*
D03*
X643467Y-666327D02*
D03*
X620607Y-643467D02*
D03*
X643467Y-620607D02*
D03*
X459620Y-436759D02*
D03*
X436760Y-459619D02*
D03*
X459620Y-482479D02*
D03*
X482479Y-459619D02*
D03*
X475784Y-443455D02*
D03*
X443455Y-443455D02*
D03*
X443455Y-475784D02*
D03*
X475784Y-475784D02*
D03*
X878992Y-212665D02*
D03*
X856133Y-235525D02*
D03*
X878992Y-258385D02*
D03*
X901852Y-235525D02*
D03*
X895157Y-219361D02*
D03*
X862828D02*
D03*
Y-251690D02*
D03*
X895157D02*
D03*
X-627852Y-145372D02*
D03*
X-650712Y-168232D02*
D03*
X-627852Y-191092D02*
D03*
X-604992Y-168232D02*
D03*
X-611687Y-152068D02*
D03*
X-644016D02*
D03*
Y-184397D02*
D03*
X-611687D02*
D03*
X-627303Y-659632D02*
D03*
X-659632Y-659632D02*
D03*
X-659632Y-627303D02*
D03*
X-627303D02*
D03*
X-620607Y-643467D02*
D03*
X-643467Y-666327D02*
D03*
X-666327Y-643467D02*
D03*
X-643467Y-620607D02*
D03*
X-219361Y-895157D02*
D03*
X-251690Y-895157D02*
D03*
Y-862828D02*
D03*
X-219361Y-862828D02*
D03*
X-212665Y-878992D02*
D03*
X-235525Y-901852D02*
D03*
X-258385Y-878992D02*
D03*
X-235525Y-856133D02*
D03*
X-168232Y-604992D02*
D03*
X-191092Y-627852D02*
D03*
X-168232Y-650712D02*
D03*
X-145372Y-627852D02*
D03*
X-152068Y-611687D02*
D03*
X-184397D02*
D03*
Y-644016D02*
D03*
X-152068D02*
D03*
X-878992Y258385D02*
D03*
X-901852Y235525D02*
D03*
X-878992Y212665D02*
D03*
X-856133Y235525D02*
D03*
X-862828Y251690D02*
D03*
X-895157Y251690D02*
D03*
X-895157Y219361D02*
D03*
X-862828D02*
D03*
X-627303Y627303D02*
D03*
X-659632Y627303D02*
D03*
Y659632D02*
D03*
X-627303Y659632D02*
D03*
X-620607Y643467D02*
D03*
X-643467Y620607D02*
D03*
X-666327Y643467D02*
D03*
X-643467Y666327D02*
D03*
X-443455Y443455D02*
D03*
X-475784Y443455D02*
D03*
X-475784Y475784D02*
D03*
X-443455Y475784D02*
D03*
X-436759Y459619D02*
D03*
X-459619Y436759D02*
D03*
X-482479Y459619D02*
D03*
X-459619Y482480D02*
D03*
X-862828Y-251690D02*
D03*
X-895157D02*
D03*
X-895157Y-219361D02*
D03*
X-862828Y-219361D02*
D03*
X-856133Y-235525D02*
D03*
X-878992Y-258385D02*
D03*
X-901852Y-235525D02*
D03*
X-878992Y-212665D02*
D03*
D176*
X-420000Y727461D02*
D03*
X727461Y420000D02*
D03*
X840000Y0D02*
D03*
X0Y840000D02*
D03*
X420000Y727461D02*
D03*
Y-727461D02*
D03*
X727461Y-420000D02*
D03*
X0Y-840000D02*
D03*
X-840000Y0D02*
D03*
X-727461Y-420000D02*
D03*
X-420000Y-727461D02*
D03*
X-727461Y420000D02*
D03*
D177*
X-370000Y640859D02*
D03*
X370000Y-640859D02*
D03*
D178*
X245996Y-453310D02*
D03*
X-272700Y452700D02*
D03*
X247300D02*
D03*
D179*
X640859Y370000D02*
D03*
X-640859Y-370000D02*
D03*
D180*
X740000Y-0D02*
D03*
X-740000Y0D02*
D03*
D181*
X0Y740000D02*
D03*
X-0Y-740000D02*
D03*
D182*
X370000Y640859D02*
D03*
X-370000Y-640859D02*
D03*
D183*
X640859Y-370000D02*
D03*
X-640859Y370000D02*
D03*
D184*
X22990Y-327280D02*
D03*
Y-318170D02*
D03*
X23360Y-309000D02*
D03*
X18053Y-131995D02*
D03*
X-275180Y222110D02*
D03*
X-291860D02*
D03*
X-307940D02*
D03*
X-322790D02*
D03*
X-265790Y211420D02*
D03*
X-283700D02*
D03*
X-300380D02*
D03*
X-316020D02*
D03*
X-330000D02*
D03*
X581000Y184440D02*
D03*
Y203210D02*
D03*
Y194240D02*
D03*
X295190Y-168290D02*
D03*
X295090Y-151600D02*
D03*
X288820Y-125210D02*
D03*
X267800D02*
D03*
X308270Y-124950D02*
D03*
X320150Y-67250D02*
D03*
X278120Y-66730D02*
D03*
X295870Y-34490D02*
D03*
X798082Y83171D02*
D03*
X388082Y-216829D02*
D03*
X368082Y-256829D02*
D03*
X358082Y-276829D02*
D03*
X348082Y183172D02*
D03*
X338082Y163172D02*
D03*
X348082Y-256829D02*
D03*
X288082Y263172D02*
D03*
Y223172D02*
D03*
Y183172D02*
D03*
Y143172D02*
D03*
X258082Y203172D02*
D03*
X238082Y163172D02*
D03*
Y-436829D02*
D03*
X228082Y263172D02*
D03*
Y223172D02*
D03*
X208081Y263172D02*
D03*
X198081Y243172D02*
D03*
X208081Y223172D02*
D03*
X198081Y-436829D02*
D03*
X178081Y243172D02*
D03*
X188081Y183172D02*
D03*
X178081Y163172D02*
D03*
X188081Y143172D02*
D03*
X178081Y-236829D02*
D03*
X158082Y243172D02*
D03*
X168081Y223172D02*
D03*
X158082Y203172D02*
D03*
Y-76829D02*
D03*
Y-436829D02*
D03*
X148082Y223172D02*
D03*
X138082Y-436829D02*
D03*
X128082Y223172D02*
D03*
Y-16829D02*
D03*
X118082Y-436829D02*
D03*
X108082Y103171D02*
D03*
X68081Y223172D02*
D03*
X58081Y163172D02*
D03*
Y-236829D02*
D03*
Y-276829D02*
D03*
Y-396829D02*
D03*
X48081Y223172D02*
D03*
X38082Y163172D02*
D03*
Y43171D02*
D03*
Y-276829D02*
D03*
X48081Y-296829D02*
D03*
Y-336829D02*
D03*
X28082Y103171D02*
D03*
X18081Y-396829D02*
D03*
Y-556829D02*
D03*
X8081Y63171D02*
D03*
X-11919Y103171D02*
D03*
Y63171D02*
D03*
X-21919Y-156829D02*
D03*
X-31919Y223172D02*
D03*
Y103171D02*
D03*
X-51919D02*
D03*
Y63171D02*
D03*
X-71919Y103171D02*
D03*
Y63171D02*
D03*
X-91919Y103171D02*
D03*
Y63171D02*
D03*
X-141919Y43171D02*
D03*
X-131919Y23171D02*
D03*
Y-16829D02*
D03*
X-171919Y-56829D02*
D03*
X-181919Y-156829D02*
D03*
Y-196829D02*
D03*
Y-236829D02*
D03*
X-191919Y-176829D02*
D03*
Y-216829D02*
D03*
X-201919Y-236829D02*
D03*
X-211919Y-216829D02*
D03*
X-281919Y-196829D02*
D03*
X-291919Y-176829D02*
D03*
X-341919Y-276829D02*
D03*
X-331919Y-296829D02*
D03*
X-341919Y-316829D02*
D03*
X-331919Y-336829D02*
D03*
X-341919Y-356829D02*
D03*
X-331919Y-376829D02*
D03*
X-341919Y-396829D02*
D03*
Y-436829D02*
D03*
X-331919Y-456829D02*
D03*
X-361919Y-276829D02*
D03*
X-351919Y-296829D02*
D03*
X-361919Y-316829D02*
D03*
X-351919Y-336829D02*
D03*
X-361919Y-356829D02*
D03*
X-351919Y-376829D02*
D03*
X-361919Y-396829D02*
D03*
Y-436829D02*
D03*
X-351919Y-456829D02*
D03*
X-371919Y-376829D02*
D03*
X-381919Y-396829D02*
D03*
X-371919Y-456829D02*
D03*
X-401919Y-396829D02*
D03*
X-421919D02*
D03*
X-431919Y-376829D02*
D03*
X-451919D02*
D03*
X-471919D02*
D03*
X398082Y-336829D02*
D03*
X358082Y-376829D02*
D03*
X338082Y-336829D02*
D03*
X348082Y-356829D02*
D03*
X318082Y-136829D02*
D03*
X328082Y-396829D02*
D03*
X298082Y-56829D02*
D03*
X308082Y-76829D02*
D03*
X298082Y-96829D02*
D03*
Y-136829D02*
D03*
X288082Y-76829D02*
D03*
X278082Y-136829D02*
D03*
X268082Y-76829D02*
D03*
X258082Y-136829D02*
D03*
X218082Y-376829D02*
D03*
X108082Y-356829D02*
D03*
X38082Y383172D02*
D03*
X18081D02*
D03*
Y343172D02*
D03*
X-21919Y503172D02*
D03*
Y463172D02*
D03*
X-31919Y483172D02*
D03*
X-81919Y-336829D02*
D03*
X-101919D02*
D03*
X-141919Y-536829D02*
D03*
X-161919D02*
D03*
X-171919Y-516829D02*
D03*
X-181919Y-536829D02*
D03*
X-171919Y-556829D02*
D03*
X-201919Y-296829D02*
D03*
X-191919Y-516829D02*
D03*
X-201919Y-536829D02*
D03*
X-191919Y-556829D02*
D03*
X-221919Y-536829D02*
D03*
Y-576829D02*
D03*
X-241919Y-296829D02*
D03*
X-261919Y-336829D02*
D03*
Y-536829D02*
D03*
X-251919Y-556829D02*
D03*
X-281919Y183172D02*
D03*
Y143172D02*
D03*
Y63171D02*
D03*
Y23171D02*
D03*
Y-16829D02*
D03*
X-301919Y183172D02*
D03*
X-291919Y163172D02*
D03*
X-301919Y143172D02*
D03*
X-291919Y123172D02*
D03*
Y83171D02*
D03*
X-301919Y63171D02*
D03*
X-291919Y43171D02*
D03*
X-301919Y-16829D02*
D03*
X-321919Y183172D02*
D03*
Y143172D02*
D03*
X-311919Y123172D02*
D03*
Y83171D02*
D03*
X-321919Y63171D02*
D03*
X-331919Y123172D02*
D03*
Y83171D02*
D03*
X-491919Y283172D02*
D03*
X-531919Y323172D02*
D03*
X-541919Y303172D02*
D03*
Y263172D02*
D03*
Y223172D02*
D03*
X173220Y-511890D02*
D03*
Y-520720D02*
D03*
Y-529670D02*
D03*
X182740D02*
D03*
Y-520720D02*
D03*
Y-511890D02*
D03*
X171260Y-551790D02*
D03*
X180090D02*
D03*
X189040D02*
D03*
Y-561310D02*
D03*
X180090D02*
D03*
X171260D02*
D03*
X-498013Y240125D02*
D03*
X-446160Y192910D02*
D03*
X-430760Y191960D02*
D03*
X-485000Y-40110D02*
D03*
X-464310Y-39950D02*
D03*
X-474920Y-39940D02*
D03*
X-485000Y-5420D02*
D03*
X-464640Y-5260D02*
D03*
X-474920Y-5250D02*
D03*
X-57360Y-94910D02*
D03*
X-10071Y-167847D02*
D03*
X-57360Y-106800D02*
D03*
X96400Y-95354D02*
D03*
X102460Y-87990D02*
D03*
X-131230Y-554560D02*
D03*
Y-564090D02*
D03*
X-130920Y-573920D02*
D03*
X-146400Y-569020D02*
D03*
X-120570Y-573700D02*
D03*
X-120880Y-563870D02*
D03*
Y-554340D02*
D03*
X-83410Y-478680D02*
D03*
X-48240Y-451870D02*
D03*
X68110Y-475780D02*
D03*
X-652550Y66300D02*
D03*
X-659460Y84060D02*
D03*
X-554720Y-299140D02*
D03*
Y-288385D02*
D03*
Y-277630D02*
D03*
X-246620Y356250D02*
D03*
X-246450Y345870D02*
D03*
X-391510Y353270D02*
D03*
X-346390Y115510D02*
D03*
X356060Y-241820D02*
D03*
X24020Y-193060D02*
D03*
X105430Y-341750D02*
D03*
X313170Y-328080D02*
D03*
X295310Y-328210D02*
D03*
X190820Y-357230D02*
D03*
X169680Y-356310D02*
D03*
X143160Y-356180D02*
D03*
X222590Y-363130D02*
D03*
X353340Y-337800D02*
D03*
X255090Y256690D02*
D03*
X255980Y215050D02*
D03*
X256430Y181280D02*
D03*
X334650Y182880D02*
D03*
X50260Y258330D02*
D03*
X-32640Y196860D02*
D03*
X-31810Y257560D02*
D03*
X-102810Y-347270D02*
D03*
X66850Y487220D02*
D03*
X154640Y330849D02*
D03*
X245370Y332230D02*
D03*
X206540Y330630D02*
D03*
X347260Y-212210D02*
D03*
X215790Y-231210D02*
D03*
X282590Y-253650D02*
D03*
X396790Y-228690D02*
D03*
X-66450Y-501510D02*
D03*
X-184360Y-299090D02*
D03*
X-51560Y-416740D02*
D03*
X-57360Y-440780D02*
D03*
X-138244Y511370D02*
D03*
X422310Y231210D02*
D03*
X345400Y-33520D02*
D03*
Y-57450D02*
D03*
Y-90120D02*
D03*
Y-116230D02*
D03*
Y-150000D02*
D03*
Y-162270D02*
D03*
Y-102230D02*
D03*
Y-45670D02*
D03*
Y-173000D02*
D03*
X353920D02*
D03*
X242810Y-33900D02*
D03*
Y-58050D02*
D03*
Y-89340D02*
D03*
Y-116470D02*
D03*
Y-148710D02*
D03*
Y-46010D02*
D03*
Y-102850D02*
D03*
Y-160670D02*
D03*
X242870Y-171820D02*
D03*
X234020D02*
D03*
X-346390Y102180D02*
D03*
Y160040D02*
D03*
Y147780D02*
D03*
Y89040D02*
D03*
Y59770D02*
D03*
Y32100D02*
D03*
Y46630D02*
D03*
Y173050D02*
D03*
X-199930Y207380D02*
D03*
Y219840D02*
D03*
Y194980D02*
D03*
X-191550Y207180D02*
D03*
Y219640D02*
D03*
Y194780D02*
D03*
X-246050Y103770D02*
D03*
Y160240D02*
D03*
Y89890D02*
D03*
Y172700D02*
D03*
Y115960D02*
D03*
Y147840D02*
D03*
Y45600D02*
D03*
Y58620D02*
D03*
Y31750D02*
D03*
X-264350Y369990D02*
D03*
X-252290Y377860D02*
D03*
X-503660Y397760D02*
D03*
X-486564D02*
D03*
X-478016D02*
D03*
X-204210Y410810D02*
D03*
X-204290Y418380D02*
D03*
X-211950Y397120D02*
D03*
X-212030Y404210D02*
D03*
X-407190Y188450D02*
D03*
X-417765Y233465D02*
D03*
X-435900Y242260D02*
D03*
X-365510Y234480D02*
D03*
X-407240Y311870D02*
D03*
X-435740Y270850D02*
D03*
X-426020Y316370D02*
D03*
X-474920Y-13120D02*
D03*
X-464310Y-13130D02*
D03*
X-485000Y-13290D02*
D03*
Y-22260D02*
D03*
X-474920Y-22090D02*
D03*
X-464310Y-22100D02*
D03*
X-485000Y-31890D02*
D03*
X-474920Y-32170D02*
D03*
X-464490Y-31890D02*
D03*
X570900Y184440D02*
D03*
X560820D02*
D03*
X570900Y194240D02*
D03*
X560820D02*
D03*
Y203210D02*
D03*
X570900D02*
D03*
X572285Y247860D02*
D03*
X582250D02*
D03*
X562320D02*
D03*
X417895Y251675D02*
D03*
X-38680Y-37920D02*
D03*
X-54252Y-10593D02*
D03*
X482200Y230770D02*
D03*
X-389410Y-223830D02*
D03*
X-425010Y-225920D02*
D03*
X-429950Y-248990D02*
D03*
X2850Y-34630D02*
D03*
X232140Y-204280D02*
D03*
X251040Y-204080D02*
D03*
X283780Y-212030D02*
D03*
X313390Y-203490D02*
D03*
X-91770Y35410D02*
D03*
X232400Y-293700D02*
D03*
X8130Y-249710D02*
D03*
X-82270Y-260270D02*
D03*
X-199560Y-226270D02*
D03*
X-227070Y-145110D02*
D03*
X-196990Y-160910D02*
D03*
X101960Y435130D02*
D03*
X144600Y406880D02*
D03*
X227410Y187770D02*
D03*
X227760Y236350D02*
D03*
X344550Y210390D02*
D03*
X344840Y223600D02*
D03*
X344670Y250160D02*
D03*
X468320Y-186420D02*
D03*
X55450Y-39910D02*
D03*
X128450Y28280D02*
D03*
X115350Y42660D02*
D03*
X-3900Y-98060D02*
D03*
X11540Y-104180D02*
D03*
X6287Y-132360D02*
D03*
X31150Y-210890D02*
D03*
X53820Y-192710D02*
D03*
X39988Y-210679D02*
D03*
X15720Y-186520D02*
D03*
X-5980Y-255140D02*
D03*
X14930Y-261680D02*
D03*
X47520Y-180170D02*
D03*
X51943Y-153547D02*
D03*
X24023Y-181237D02*
D03*
X-67190Y-135780D02*
D03*
X-43090Y-107150D02*
D03*
X-110530Y34902D02*
D03*
X-93130Y23660D02*
D03*
X-110530Y26770D02*
D03*
X-81400Y46150D02*
D03*
X21320Y444420D02*
D03*
X-535858Y203908D02*
D03*
X-476800Y192640D02*
D03*
X-536600Y251967D02*
D03*
X-488590Y333150D02*
D03*
X-25180Y440630D02*
D03*
X-174970Y458300D02*
D03*
X-61130Y513050D02*
D03*
X72740Y-251770D02*
D03*
X3400Y-49640D02*
D03*
X78610Y-116990D02*
D03*
X-107550Y-211780D02*
D03*
X-115350Y-220260D02*
D03*
X-105760Y-147130D02*
D03*
Y-119372D02*
D03*
Y-86810D02*
D03*
X397230Y-240150D02*
D03*
X346860Y-231340D02*
D03*
X366900Y-241620D02*
D03*
X282450Y-231220D02*
D03*
X302810Y126850D02*
D03*
X312500Y273780D02*
D03*
X13510Y11880D02*
D03*
X-10990Y258820D02*
D03*
X-10818Y195970D02*
D03*
X107210Y166940D02*
D03*
X108020Y229330D02*
D03*
X-129140Y-40745D02*
D03*
X-300280Y-149080D02*
D03*
X6230Y516210D02*
D03*
X39590Y-476520D02*
D03*
X-12450Y-419120D02*
D03*
X51460Y-476420D02*
D03*
X25490Y-476520D02*
D03*
X-192640Y486970D02*
D03*
X-186530Y475700D02*
D03*
X-144830Y-476430D02*
D03*
X-23420Y475560D02*
D03*
X93080Y485790D02*
D03*
X100930Y476870D02*
D03*
X75726Y481164D02*
D03*
X-207070Y-119450D02*
D03*
X-659460Y73820D02*
D03*
X-237530Y32010D02*
D03*
Y58880D02*
D03*
X-355310Y173320D02*
D03*
Y46900D02*
D03*
Y32370D02*
D03*
X-237530Y45860D02*
D03*
X-360910Y-168250D02*
D03*
X-237530Y148100D02*
D03*
Y116220D02*
D03*
X-355310Y60040D02*
D03*
X-237530Y172960D02*
D03*
Y90150D02*
D03*
Y160500D02*
D03*
Y104030D02*
D03*
X-355310Y89310D02*
D03*
Y148050D02*
D03*
Y115780D02*
D03*
Y160310D02*
D03*
Y102450D02*
D03*
X-55230Y428460D02*
D03*
X50260Y400610D02*
D03*
X353920Y-45670D02*
D03*
Y-102230D02*
D03*
Y-162270D02*
D03*
X233960Y-160670D02*
D03*
Y-102850D02*
D03*
Y-46010D02*
D03*
X-133000Y542990D02*
D03*
X-122480Y565750D02*
D03*
X-485700Y278460D02*
D03*
X-495200Y263970D02*
D03*
X-460920Y397760D02*
D03*
X-469468D02*
D03*
X-495112D02*
D03*
X-241290Y378010D02*
D03*
X-211950Y411370D02*
D03*
Y418460D02*
D03*
X37130Y447030D02*
D03*
X353920Y-150000D02*
D03*
Y-116230D02*
D03*
Y-90120D02*
D03*
Y-57450D02*
D03*
Y-33520D02*
D03*
X233960Y-148710D02*
D03*
Y-116470D02*
D03*
Y-89340D02*
D03*
Y-58050D02*
D03*
Y-33900D02*
D03*
X23310Y-299790D02*
D03*
X-161960Y489440D02*
D03*
X172520Y460160D02*
D03*
X172730Y505400D02*
D03*
X-82490Y173320D02*
D03*
X-83710Y258310D02*
D03*
X111890Y25790D02*
D03*
X130480Y41460D02*
D03*
X139619Y52251D02*
D03*
X164190Y154400D02*
D03*
X149862Y46230D02*
D03*
X-92840Y45600D02*
D03*
X-120969Y-60789D02*
D03*
X-114850Y-41670D02*
D03*
X-55290Y-125480D02*
D03*
X115950Y52310D02*
D03*
X78530Y-124520D02*
D03*
X45990Y-147797D02*
D03*
X-20650Y-205810D02*
D03*
X-21330Y-214800D02*
D03*
X47350Y-172000D02*
D03*
X24980Y-167630D02*
D03*
X18760Y-173380D02*
D03*
X52610Y434620D02*
D03*
X29540Y471020D02*
D03*
X-105820Y-199660D02*
D03*
Y-187590D02*
D03*
Y-172730D02*
D03*
X66250Y-4515D02*
D03*
X70460Y-20940D02*
D03*
X364650Y238100D02*
D03*
X-447980Y331030D02*
D03*
X-345420Y317940D02*
D03*
X-402150Y273150D02*
D03*
X-435190Y398930D02*
D03*
X-466840Y289350D02*
D03*
X-56200Y-136600D02*
D03*
X-32800Y-106800D02*
D03*
X70000Y-31500D02*
D03*
X-48440Y-119840D02*
D03*
X-17520Y-56930D02*
D03*
X20650Y-56680D02*
D03*
X-7700Y-135000D02*
D03*
X56300Y-176991D02*
D03*
X58940Y-200830D02*
D03*
X-25700Y1580D02*
D03*
X-63240Y-48070D02*
D03*
X-43565Y-48510D02*
D03*
X47650Y-200530D02*
D03*
X89960Y-157570D02*
D03*
X86510Y-135800D02*
D03*
X71500Y8600D02*
D03*
Y24200D02*
D03*
X-25600Y-170491D02*
D03*
X-21100Y-176500D02*
D03*
X-24100Y-146400D02*
D03*
X-60900Y-143900D02*
D03*
X37200Y-38300D02*
D03*
X16287Y-250000D02*
D03*
X-35700Y174400D02*
D03*
X-36300Y236600D02*
D03*
X50100Y239100D02*
D03*
X50200Y176600D02*
D03*
X200160Y117610D02*
D03*
X191180Y-225110D02*
D03*
X-92230Y-478480D02*
D03*
X17703Y-374025D02*
D03*
Y-364769D02*
D03*
Y-383319D02*
D03*
X82630Y-430320D02*
D03*
X-119000Y-384990D02*
D03*
Y-366440D02*
D03*
Y-375696D02*
D03*
X-35410Y-339930D02*
D03*
X-67310Y-387220D02*
D03*
X-56950Y-426050D02*
D03*
X-181860Y-333710D02*
D03*
X-181830Y-415680D02*
D03*
X230720Y-352780D02*
D03*
X262040Y-352200D02*
D03*
X113850Y-225400D02*
D03*
D185*
X-460590Y264610D02*
D03*
X-471590Y253610D02*
D03*
Y264610D02*
D03*
X-460590Y253610D02*
D03*
M02*
