M48
;Layer_Color=9339205
;FILE_FORMAT=4:2
METRIC,TZ
;TYPE=PLATED
T01F00S00C0.20
T02F00S00C0.30
T03F00S00C0.70
T04F00S00C0.80
T05F00S00C0.86
T06F00S00C0.90
T07F00S00C1.02
T08F00S00C1.65
T09F00S00C2.00
T10F00S00C3.18
%
T01
X-4716Y2536
Y2646
X-4606
Y2536
T02
X1713Y-5613
X1801
X1890
Y-5518
X1801
X1713
X1732Y-5297
Y-5207
Y-5119
X1827
Y-5207
Y-5297
X1981Y-4368
X2381
X1581
X1381
X1181
X1432Y-3562
X1697Y-3563
X1908Y-3572
X2226Y-3631
X2181Y-3768
X2307Y-3528
X2620Y-3522
X2953Y-3282
X3132Y-3281
X3381Y-3368
X3533Y-3378
X3481Y-3568
X3581Y-3768
X3281Y-3968
X3981Y-3368
X3972Y-2401
X3968Y-2287
X3881Y-2168
X3473Y-2122
X3469Y-2313
X3561Y-2418
X3669Y-2416
X3681Y-2568
X3481
X3581Y-2768
X2826Y-2536
X2825Y-2312
X2838Y-2120
X3134Y-2035
X2510Y-2041
X2321Y-2043
X2158Y-2312
X1912Y-2251
X1781Y-2368
X2324Y-2937
X1054Y-3417
X1081Y-3568
X481Y-3368
X230Y-3273
Y-3182
X234Y-3090
X233Y-2998
X481Y-2968
X581Y-2768
X381
X149Y-2617
X163Y-2500
X81Y-2497
X-60Y-2551
X-213Y-2148
X-207Y-2058
X312Y-2109
X400Y-2107
X476Y-2005
X589Y-2008
X581Y-2368
X727Y-2518
X1139Y-2254
X581Y-3968
X181
X177Y-3833
Y-3740
Y-3648
X-354Y-3399
X-819Y-3368
X-1019
X-1028Y-3473
X-1190Y-3664
Y-3757
Y-3850
X-673Y-3872
X-516Y-4167
X-570Y-4260
X-574Y-4408
X-482Y-4519
X-834Y-4787
X-922Y-4785
X-664Y-5015
X-1448Y-4764
X-1419Y-5368
X-1619
X-1819
X-2019
X-2219
Y-5768
X-1919Y-5568
X-1719
X-1464Y-5690
X-1312Y-5641
Y-5546
X-1209Y-5543
Y-5639
X-1206Y-5737
X-1309Y-5739
X-1719Y-5168
X-1919
X-2619Y-5368
X-2519Y-5568
X-1818Y-4157
X-1819Y-3337
X-1844Y-2991
X-2019Y-2968
X-2419
X-2619Y-3368
X-2019Y-2368
X-1996Y-2263
X-1919Y-2168
X-2119
X-1819Y-1968
Y-2368
X-1153Y-2203
X-1076Y-2118
X-1058Y-1997
X-823Y-2603
X-125Y-4191
X255Y-4765
X396
X515Y-4764
X681Y-4758
X826Y-4303
X181Y-5568
X-3319Y-4568
X-3519
X-3719
X-3619Y-4368
X-3419
Y-3968
X-3619
X-3819
X-4019
X-4219
X-4319Y-3768
X-4519
X-4719
X-3719
X-3519
X-3319
X-3419Y-3568
X-3619
X-3519Y-3368
X-3319
X-3419Y-3168
X-3619
X-3519Y-2968
X-3319
X-3419Y-2768
X-3619
X-3894Y-2238
X-4250Y-2259
X-4300Y-2490
X-5547Y-2776
Y-2884
Y-2991
X-2819Y-1968
X-2919Y-1768
X-3003Y-1491
X-3609Y-1683
X-3553Y324
X-3464Y321
Y466
X-3553Y469
Y600
X-3464Y598
X-3219Y632
X-3019
X-2819
X-2919Y832
X-3119
X-3319
X-3464Y890
X-3553Y893
Y1024
X-3464Y1022
Y1155
X-3553Y1158
X-3319Y1232
X-3119
X-2919
X-2819Y1432
X-3019
X-3219
X-3464Y1478
X-3553Y1481
Y1603
X-3464Y1600
Y1731
X-3553Y1733
X-3219Y1832
X-3019
X-2819
X-2919Y1632
Y432
X-2819Y232
Y-168
X-3019
X-4643Y-131
X-4646Y-53
X-4749Y-52
Y-131
Y-221
Y-322
Y-399
X-4850Y-401
Y-319
Y-223
Y-133
Y-54
X-4643Y-221
X-4645Y-319
X-4643Y-399
X-4768Y1926
X-4462Y1929
X-4308Y1920
X-4072Y1884
X-6595Y841
Y738
X-6525Y663
X-2460Y586
X-2375Y589
Y459
X-2460Y456
Y317
X-2375Y320
Y902
X-2460Y899
Y1038
X-2375Y1040
Y1162
X-2460Y1160
Y1478
X-2375Y1481
Y1605
X-2460Y1602
Y1727
X-2375Y1730
X-1999Y1950
X-1916Y1948
X-825Y1733
X-357Y1744
X-326Y1969
X-108Y1960
X502Y1766
X581Y1632
X381
X281Y1032
X-119
X-319
X-519
X-719
X-919
Y632
X-928Y456
X-918Y354
X-931Y237
X-1105Y268
Y349
X-1319Y232
X-1419Y432
X-814Y461
X-719Y632
X-519
X-119
X81
X381Y432
X715Y242
Y86
X662Y-45
X705Y-209
X700Y-315
X555Y-399
X372Y-383
X207Y-567
X34Y-496
X28Y-346
X-175Y-569
X-436Y-485
X-387Y-379
X-632Y-481
X-543Y-106
X-257Y16
X135Y119
X1119Y258
X1153Y427
X1160Y523
X1081Y1032
X1072Y1669
X1025Y-880
X964Y-954
X786Y-1170
X785Y-1245
X865Y-1358
X900Y-1576
X519Y-1535
X460Y-1478
X474Y-1720
X475Y-1802
X563Y-1770
X538Y-1927
X240Y-1931
X240Y-1812
X188Y-1734
X250Y-1676
X157Y-1865
X-101Y-1678
X-256Y-1705
X-211Y-1765
X-219Y-1568
X-241Y-1464
X-77Y-1350
X63Y-1324
X181Y-1320
X115Y-1042
X-39Y-981
X-328Y-1068
X-431Y-1072
X-574Y-1068
Y-949
X-553Y-1255
X-562Y-1366
X-672Y-1358
X-609Y-1439
X-484Y-1198
X-1058Y-1194
Y-1471
X-1058Y-1727
Y-1876
X-1919Y-1768
X-1970Y-1609
X-1819Y-1568
X-2271Y-1451
X-2071Y-1194
X-1719Y-568
X-1210Y-608
X-1148Y-417
X-1291Y-407
X-1319Y-168
X-1058Y-868
X1581Y-768
X2340Y-893
X2428
Y-1028
X2340
Y-1165
X2428
Y-1487
X2340
Y-1607
X2428
X2429Y-1718
X2340
X2581Y-1368
X2781
X2981
X2951Y-1516
X2952Y-1683
X2888Y-1252
X3083Y-1249
X3181Y-1368
X3454Y-1500
X3539
Y-1623
X3454
Y-1730
X3539
Y-1162
X3454
Y-1022
X3539
Y-901
X3454
Y-574
X3539
Y-457
X3454
Y-335
X3539
X2959Y-345
X2981Y-568
X2781Y-667
X2881Y-768
X3081
X3201Y-672
X2981Y-968
X2681Y-768
X2428Y-580
X2340
Y-460
X2428
Y-339
X2340
X1281Y-168
X1285Y283
X1305Y415
X1396Y523
X1499Y462
X2002Y1176
X1881Y1432
X1781Y1632
X1642Y1544
X1881Y1832
X2274Y1878
X2381Y1632
X2564Y1813
X2881Y1832
Y1432
X3028Y1269
X3381Y1632
X3347Y1829
X3481Y1832
X2678Y-1252
X4683Y-1864
X5608Y1844
Y1942
X5709
Y1844
X5810
Y1942
X7981Y832
X5810Y2032
X5709
X5608
X5623Y2479
X5723
X5822
X4822Y2308
X4223Y2312
X4179Y2517
X3647Y2381
X3447Y2502
X3448Y2236
X3446Y2104
X2881Y2232
Y2632
X3125Y2738
X2551Y2567
X2281Y2632
X2081
X1981Y2432
X1781
X1581
X1681Y2232
X1481
X1281
X1581Y2032
X2081Y2232
X2281
X2278Y2364
X2560Y2150
X2581Y2032
X2454Y3322
X2065Y3306
X1546Y3308
X1446Y4069
X1725Y4602
X1727Y5054
X931Y4858
X1009Y4769
X757Y4812
X668Y4872
X295Y4710
X371Y4470
X213Y4444
X526Y4346
X503Y4006
X381Y3832
X181
Y3432
X-110Y2588
X-318Y2576
X-363Y2366
X-319Y2232
X481
X501Y2391
X503Y2583
X681Y2232
X1080Y2293
X1020Y4351
X-252Y4406
X-219Y4632
X-234Y4756
X-319Y4832
X-219Y5032
X62Y5162
X-611Y5131
X-1382Y5114
X-1330Y5430
X-1225Y5658
X-1620Y4894
X-1926Y4870
X-1865Y4757
X-1750Y4583
X-2043Y4184
X-2042Y4108
X-2119Y4114
Y4185
X-2120Y4042
X-2119Y3971
X-2413Y3780
X-2523Y3779
X-2643Y3700
X-2466Y3562
X-2465Y3459
X-2752Y2221
X-2658Y2114
X-1999Y2074
X-1916Y2072
Y2196
X-1999Y2198
X-837Y2583
X-552Y4285
X-3454Y3179
X-4072Y3119
X-4260Y3164
X-4480Y3310
X-4886Y3331
X-4919Y2832
X-4857Y2785
X-4952Y2640
X-4980Y2401
X-5366Y2520
X-5419Y2632
Y3032
X-5319Y3232
X-4668Y2893
X-4357Y2708
X-4359Y2423
X-4178Y2335
X-3655Y2345
X-3228Y2221
X-3079
X-2919
X-2837Y2114
X-3004
X-3160
X-3300
X-4022Y2732
X-3915Y3533
X-4352Y3989
X-4609Y3978
X-4695
X-4780
X-4866
X-4951
X-5037
X-5419Y2232
X-5359Y2039
T03
X-6596Y-6596
X-6663Y-6435
X-6596Y-6273
X-6435Y-6206
X-6273Y-6273
X-6206Y-6435
X-6273Y-6596
X-6435Y-6663
X-1844Y-6440
X-1911Y-6279
X-1844Y-6117
X-1682Y-6050
X-1521Y-6117
X-1454Y-6279
X-1521Y-6440
X-1682Y-6507
X-2194Y-8628
X-2355Y-8561
X-2517Y-8628
X-2584Y-8790
X-2517Y-8952
X-2355Y-9019
X-2194Y-8952
X-2127Y-8790
X2127
X2194Y-8952
X2355Y-9019
X2517Y-8952
X2584Y-8790
X2517Y-8628
X2355Y-8561
X2194Y-8628
X6273Y-6596
X6206Y-6435
X6273Y-6273
X6435Y-6206
X6596Y-6273
X6663Y-6435
X6596Y-6596
X6435Y-6663
X8628Y-2517
X8561Y-2355
X8628Y-2194
X8790Y-2127
X8952Y-2194
X9019Y-2355
X8952Y-2517
X8790Y-2584
X4758Y-4435
X4825Y-4596
X4758Y-4758
X4596Y-4825
X4435Y-4758
X4368Y-4596
X4435Y-4435
X4596Y-4368
X-8628Y-2517
X-8790Y-2584
X-8952Y-2517
X-9019Y-2355
X-8952Y-2194
X-8790Y-2127
X-8628Y-2194
X-8561Y-2355
X-6440Y-1844
X-6507Y-1682
X-6440Y-1521
X-6279Y-1454
X-6117Y-1521
X-6050Y-1682
X-6117Y-1844
X-6279Y-1911
X6117Y1521
X6050Y1682
X6117Y1844
X6279Y1911
X6440Y1844
X6507Y1682
X6440Y1521
X6279Y1454
X8628Y2194
X8790Y2127
X8952Y2194
X9019Y2355
X8952Y2517
X8790Y2584
X8628Y2517
X8561Y2355
X-4435Y4435
X-4596Y4368
X-4758Y4435
X-4825Y4596
X-4758Y4758
X-4596Y4825
X-4435Y4758
X-4368Y4596
X-8628Y2517
X-8790Y2584
X-8952Y2517
X-9019Y2355
X-8952Y2194
X-8790Y2127
X-8628Y2194
X-8561Y2355
X-6596Y6273
X-6663Y6435
X-6596Y6596
X-6435Y6663
X-6273Y6596
X-6206Y6435
X-6273Y6273
X-6435Y6206
X-2517Y8628
X-2584Y8790
X-2517Y8952
X-2355Y9019
X-2194Y8952
X-2127Y8790
X-2194Y8628
X-2355Y8561
X2194Y8628
X2355Y8561
X2517Y8628
X2584Y8790
X2517Y8952
X2355Y9019
X2194Y8952
X2127Y8790
X1844Y6440
X1682Y6507
X1521Y6440
X1454Y6279
X1521Y6117
X1682Y6050
X1844Y6117
X1911Y6279
X6273Y6273
X6435Y6206
X6596Y6273
X6663Y6435
X6596Y6596
X6435Y6663
X6273Y6596
X6206Y6435
T04
X-955Y874
X-755
X-555
X-355
X-155
X45
X245
X445
X645
X845
X845Y3074
X645
X445
X245
X45
X-155
X-355
X-555
X-755
X-955
T05
X1306Y-3820
X1560
X1814
X2400
X2654
X2908
X3162
X2990Y-4523
Y-4777
X3632
Y-4523
X1052Y-3820
X-1136Y-2460
X-1390
X-1644
X-1630Y-1771
Y-1517
Y-1263
Y-1009
Y-427
Y-173
Y81
Y335
X1584Y320
Y66
Y-188
Y-442
X1588Y-1019
Y-1273
Y-1527
Y-1781
X1847Y3594
Y3848
T06
X-2527Y-4597
X-2273
Y-3073
X-2527
X-4559
Y-4597
X-4051
T07
X2206Y-5041
Y-4787
X2460
Y-4533
X2206
X2460Y-5041
X508Y216
Y470
X254
X-0
Y216
X-254
Y470
X-508
Y216
X254
X2473Y4527
X2727
Y4781
X2473
Y5035
X2727
X3146Y4527
Y4273
X3400
Y4527
X3654
Y4273
X254Y5473
X-0
X-254
Y5727
X-0
X254
X-2473Y5035
X-2727
Y4781
Y4527
X-2473
Y4781
X-3146Y4527
X-3400
X-3654
Y4273
X-3400
X-3146
T08
X1212Y3562
X816
X300Y3565
X-96
X-599Y3562
X-994
T09
X-4200Y-7275
X-3700Y-6409
X-0Y-7400
X0Y-8400
X4200Y-7275
X3700Y-6409
X6409Y-3700
X7275Y-4200
X-6409Y-3700
X-7275Y-4200
X-7400Y0
X-8400Y0
X7400Y-0
X8400Y0
X7275Y4200
X6409Y3700
X-6409Y3700
X-7275Y4200
X-3700Y6409
X-4200Y7275
X0Y7400
X0Y8400
X4200Y7275
X3700Y6409
T10
X-6435Y-6435
X-1682Y-6279
X-2355Y-8790
X2355
X6435Y-6435
X8790Y-2355
X4596Y-4596
X-8790Y-2355
X-6279Y-1682
X6279Y1682
X8790Y2355
X-4596Y4596
X-8790Y2355
X-6435Y6435
X-2355Y8790
X2355
X1682Y6279
X6435Y6435
M30
