G04*
G04 #@! TF.GenerationSoftware,Altium Limited,Altium Designer,24.1.2 (44)*
G04*
G04 Layer_Physical_Order=4*
G04 Layer_Color=13010237*
%FSLAX44Y44*%
%MOMM*%
G71*
G04*
G04 #@! TF.SameCoordinates,0D6E4D87-8B28-4C6E-8252-5E0228009A92*
G04*
G04*
G04 #@! TF.FilePolarity,Positive*
G04*
G01*
G75*
%ADD10C,0.2500*%
%ADD12C,0.4000*%
%ADD22C,0.3000*%
G04:AMPARAMS|DCode=65|XSize=0.9mm|YSize=0.7mm|CornerRadius=0.035mm|HoleSize=0mm|Usage=FLASHONLY|Rotation=0.000|XOffset=0mm|YOffset=0mm|HoleType=Round|Shape=RoundedRectangle|*
%AMROUNDEDRECTD65*
21,1,0.9000,0.6300,0,0,0.0*
21,1,0.8300,0.7000,0,0,0.0*
1,1,0.0700,0.4150,-0.3150*
1,1,0.0700,-0.4150,-0.3150*
1,1,0.0700,-0.4150,0.3150*
1,1,0.0700,0.4150,0.3150*
%
%ADD65ROUNDEDRECTD65*%
G04:AMPARAMS|DCode=69|XSize=0.9mm|YSize=0.7mm|CornerRadius=0.035mm|HoleSize=0mm|Usage=FLASHONLY|Rotation=270.000|XOffset=0mm|YOffset=0mm|HoleType=Round|Shape=RoundedRectangle|*
%AMROUNDEDRECTD69*
21,1,0.9000,0.6300,0,0,270.0*
21,1,0.8300,0.7000,0,0,270.0*
1,1,0.0700,-0.3150,-0.4150*
1,1,0.0700,-0.3150,0.4150*
1,1,0.0700,0.3150,0.4150*
1,1,0.0700,0.3150,-0.4150*
%
%ADD69ROUNDEDRECTD69*%
%ADD72R,2.2700X2.4300*%
%ADD134R,2.5000X2.5000*%
%ADD135C,2.5000*%
%ADD152C,5.0000*%
%ADD162C,1.0000*%
%ADD163C,0.5000*%
%ADD164C,1.5000*%
%ADD165R,2.2860X1.9050*%
%ADD166O,2.2860X1.9050*%
%ADD167O,1.9050X2.2860*%
%ADD168R,1.9050X2.2860*%
%ADD169C,1.5200*%
%ADD170R,1.5200X1.5200*%
%ADD171C,2.0000*%
%ADD172R,1.5000X1.5000*%
%ADD173C,1.5000*%
%ADD174C,6.3500*%
%ADD175C,1.0000*%
%ADD176C,4.0000*%
%ADD177P,5.6569X4X165.0*%
%ADD178R,1.5200X1.5200*%
%ADD179P,5.6569X4X75.0*%
%ADD180R,4.0000X4.0000*%
%ADD181R,4.0000X4.0000*%
%ADD182P,5.6569X4X105.0*%
%ADD183P,5.6569X4X375.0*%
%ADD184C,0.6000*%
%ADD185C,0.5000*%
%ADD186R,1.2954X1.9050*%
%ADD187R,0.6604X1.5494*%
G04:AMPARAMS|DCode=188|XSize=1.5mm|YSize=3.4mm|CornerRadius=0.375mm|HoleSize=0mm|Usage=FLASHONLY|Rotation=270.000|XOffset=0mm|YOffset=0mm|HoleType=Round|Shape=RoundedRectangle|*
%AMROUNDEDRECTD188*
21,1,1.5000,2.6500,0,0,270.0*
21,1,0.7500,3.4000,0,0,270.0*
1,1,0.7500,-1.3250,-0.3750*
1,1,0.7500,-1.3250,0.3750*
1,1,0.7500,1.3250,0.3750*
1,1,0.7500,1.3250,-0.3750*
%
%ADD188ROUNDEDRECTD188*%
%ADD189R,8.0000X10.7000*%
%ADD190R,1.5000X2.7000*%
G04:AMPARAMS|DCode=191|XSize=2.7mm|YSize=1.5mm|CornerRadius=0mm|HoleSize=0mm|Usage=FLASHONLY|Rotation=45.000|XOffset=0mm|YOffset=0mm|HoleType=Round|Shape=Rectangle|*
%AMROTATEDRECTD191*
4,1,4,-0.4243,-1.4849,-1.4849,-0.4243,0.4243,1.4849,1.4849,0.4243,-0.4243,-1.4849,0.0*
%
%ADD191ROTATEDRECTD191*%

G04:AMPARAMS|DCode=192|XSize=10.7mm|YSize=8mm|CornerRadius=0mm|HoleSize=0mm|Usage=FLASHONLY|Rotation=240.000|XOffset=0mm|YOffset=0mm|HoleType=Round|Shape=Rectangle|*
%AMROTATEDRECTD192*
4,1,4,-0.7891,6.6332,6.1391,2.6332,0.7891,-6.6332,-6.1391,-2.6332,-0.7891,6.6332,0.0*
%
%ADD192ROTATEDRECTD192*%

G04:AMPARAMS|DCode=193|XSize=1mm|YSize=3.4mm|CornerRadius=0.25mm|HoleSize=0mm|Usage=FLASHONLY|Rotation=240.000|XOffset=0mm|YOffset=0mm|HoleType=Round|Shape=RoundedRectangle|*
%AMROUNDEDRECTD193*
21,1,1.0000,2.9000,0,0,240.0*
21,1,0.5000,3.4000,0,0,240.0*
1,1,0.5000,-1.3807,0.5085*
1,1,0.5000,-1.1307,0.9415*
1,1,0.5000,1.3807,-0.5085*
1,1,0.5000,1.1307,-0.9415*
%
%ADD193ROUNDEDRECTD193*%
%ADD194R,10.7000X8.0000*%
G04:AMPARAMS|DCode=195|XSize=1mm|YSize=3.4mm|CornerRadius=0.25mm|HoleSize=0mm|Usage=FLASHONLY|Rotation=180.000|XOffset=0mm|YOffset=0mm|HoleType=Round|Shape=RoundedRectangle|*
%AMROUNDEDRECTD195*
21,1,1.0000,2.9000,0,0,180.0*
21,1,0.5000,3.4000,0,0,180.0*
1,1,0.5000,-0.2500,1.4500*
1,1,0.5000,0.2500,1.4500*
1,1,0.5000,0.2500,-1.4500*
1,1,0.5000,-0.2500,-1.4500*
%
%ADD195ROUNDEDRECTD195*%
G04:AMPARAMS|DCode=196|XSize=10.7mm|YSize=8mm|CornerRadius=0mm|HoleSize=0mm|Usage=FLASHONLY|Rotation=120.000|XOffset=0mm|YOffset=0mm|HoleType=Round|Shape=Rectangle|*
%AMROTATEDRECTD196*
4,1,4,6.1391,-2.6332,-0.7891,-6.6332,-6.1391,2.6332,0.7891,6.6332,6.1391,-2.6332,0.0*
%
%ADD196ROTATEDRECTD196*%

G04:AMPARAMS|DCode=197|XSize=1mm|YSize=3.4mm|CornerRadius=0.25mm|HoleSize=0mm|Usage=FLASHONLY|Rotation=120.000|XOffset=0mm|YOffset=0mm|HoleType=Round|Shape=RoundedRectangle|*
%AMROUNDEDRECTD197*
21,1,1.0000,2.9000,0,0,120.0*
21,1,0.5000,3.4000,0,0,120.0*
1,1,0.5000,1.1307,0.9415*
1,1,0.5000,1.3807,0.5085*
1,1,0.5000,-1.1307,-0.9415*
1,1,0.5000,-1.3807,-0.5085*
%
%ADD197ROUNDEDRECTD197*%
G04:AMPARAMS|DCode=198|XSize=1mm|YSize=3.4mm|CornerRadius=0.25mm|HoleSize=0mm|Usage=FLASHONLY|Rotation=90.000|XOffset=0mm|YOffset=0mm|HoleType=Round|Shape=RoundedRectangle|*
%AMROUNDEDRECTD198*
21,1,1.0000,2.9000,0,0,90.0*
21,1,0.5000,3.4000,0,0,90.0*
1,1,0.5000,1.4500,0.2500*
1,1,0.5000,1.4500,-0.2500*
1,1,0.5000,-1.4500,-0.2500*
1,1,0.5000,-1.4500,0.2500*
%
%ADD198ROUNDEDRECTD198*%
G04:AMPARAMS|DCode=199|XSize=2.7mm|YSize=1.5mm|CornerRadius=0mm|HoleSize=0mm|Usage=FLASHONLY|Rotation=135.000|XOffset=0mm|YOffset=0mm|HoleType=Round|Shape=Rectangle|*
%AMROTATEDRECTD199*
4,1,4,1.4849,-0.4243,0.4243,-1.4849,-1.4849,0.4243,-0.4243,1.4849,1.4849,-0.4243,0.0*
%
%ADD199ROTATEDRECTD199*%

G36*
X-300250Y673602D02*
Y413910D01*
X-379680D01*
Y611172D01*
X-378453Y611500D01*
X-378052Y610806D01*
X-360732Y620806D01*
X-371732Y639859D01*
X-368268Y641859D01*
X-357268Y622806D01*
X-339947Y632806D01*
X-351195Y652288D01*
X-350790Y653492D01*
X-301308Y674305D01*
X-300250Y673602D01*
D02*
G37*
G36*
X-40050Y381830D02*
Y338170D01*
X-79260D01*
Y372550D01*
X-85822Y379180D01*
X-218650D01*
Y423214D01*
X-217974Y423890D01*
X-82110D01*
X-40050Y381830D01*
D02*
G37*
G36*
X675390Y359400D02*
X632400Y334050D01*
X584300Y415070D01*
X298730D01*
Y465300D01*
X616780D01*
X675390Y359400D01*
D02*
G37*
G36*
X-152670Y165930D02*
X-218373Y100227D01*
X-218373Y10787D01*
X-277700Y-48540D01*
X-412680D01*
Y121360D01*
X-459239Y168360D01*
X-548080D01*
Y332210D01*
X-516380Y363910D01*
X-449199D01*
Y348978D01*
X-469363Y328813D01*
X-470137Y327656D01*
X-470409Y326290D01*
Y292145D01*
X-470655Y291899D01*
X-471340Y290245D01*
Y288455D01*
X-470655Y286801D01*
X-469389Y285535D01*
X-467735Y284850D01*
X-467262D01*
X-466736Y283580D01*
X-468797Y281519D01*
X-482395D01*
X-483151Y282275D01*
X-484805Y282960D01*
X-486595D01*
X-488249Y282275D01*
X-489515Y281009D01*
X-490200Y279355D01*
Y277565D01*
X-489515Y275911D01*
X-488249Y274645D01*
X-486595Y273960D01*
X-486192D01*
X-485666Y272690D01*
X-491327Y267029D01*
X-491895D01*
X-492651Y267785D01*
X-494305Y268470D01*
X-496095D01*
X-497749Y267785D01*
X-499015Y266519D01*
X-499700Y264865D01*
Y263075D01*
X-499015Y261421D01*
X-497749Y260155D01*
X-496095Y259470D01*
X-494305D01*
X-492651Y260155D01*
X-491895Y260911D01*
X-490060D01*
X-490060Y260911D01*
X-488890Y261144D01*
X-487897Y261807D01*
X-478923Y270781D01*
X-464530D01*
X-464530Y270781D01*
X-463359Y271014D01*
X-462367Y271677D01*
X-453125Y280920D01*
X-451954Y280294D01*
X-452029Y279920D01*
Y255240D01*
X-451757Y253874D01*
X-450983Y252717D01*
X-446663Y248397D01*
X-445506Y247623D01*
X-444140Y247351D01*
X-438686D01*
X-438433Y246081D01*
X-438449Y246075D01*
X-439715Y244809D01*
X-440400Y243155D01*
Y241365D01*
X-439715Y239711D01*
X-439469Y239465D01*
Y233680D01*
X-439197Y232314D01*
X-438423Y231157D01*
X-427773Y220507D01*
X-426616Y219733D01*
X-425250Y219461D01*
X-370050D01*
X-368684Y219733D01*
X-367527Y220507D01*
X-362987Y225047D01*
X-362213Y226204D01*
X-361941Y227570D01*
Y231685D01*
X-361695Y231931D01*
X-361010Y233585D01*
Y235375D01*
X-361695Y237029D01*
X-362961Y238295D01*
X-364615Y238980D01*
X-366405D01*
X-368059Y238295D01*
X-369325Y237029D01*
X-370010Y235375D01*
Y233585D01*
X-369325Y231931D01*
X-369079Y231685D01*
Y229048D01*
X-371528Y226599D01*
X-423772D01*
X-432331Y235158D01*
Y239465D01*
X-432085Y239711D01*
X-431400Y241365D01*
Y243155D01*
X-432085Y244809D01*
X-433351Y246075D01*
X-433367Y246081D01*
X-433114Y247351D01*
X-424838D01*
X-421334Y243847D01*
Y236261D01*
X-421580Y236014D01*
X-422265Y234361D01*
Y232570D01*
X-421580Y230916D01*
X-420314Y229650D01*
X-418661Y228965D01*
X-416870D01*
X-415216Y229650D01*
X-413951Y230916D01*
X-413265Y232570D01*
Y234361D01*
X-413951Y236014D01*
X-414197Y236261D01*
Y245325D01*
X-414468Y246691D01*
X-415242Y247849D01*
X-420837Y253443D01*
X-421994Y254217D01*
X-423360Y254489D01*
X-442662D01*
X-444891Y256718D01*
Y278442D01*
X-423497Y299837D01*
X-422723Y300994D01*
X-422451Y302360D01*
Y313575D01*
X-422205Y313821D01*
X-421520Y315475D01*
Y317265D01*
X-422205Y318919D01*
X-423471Y320185D01*
X-425125Y320870D01*
X-426915D01*
X-428569Y320185D01*
X-429835Y318919D01*
X-430520Y317265D01*
Y315475D01*
X-429835Y313821D01*
X-429589Y313575D01*
Y303838D01*
X-435583Y297844D01*
X-436753Y298470D01*
X-436731Y298580D01*
X-436731Y298580D01*
Y315543D01*
X-428453Y323821D01*
X-331200D01*
X-331200Y323821D01*
X-330029Y324054D01*
X-329037Y324717D01*
X-289844Y363910D01*
X-288265D01*
X-287779Y362737D01*
X-329517Y320999D01*
X-342115D01*
X-342871Y321755D01*
X-344525Y322440D01*
X-346315D01*
X-347969Y321755D01*
X-349235Y320489D01*
X-349920Y318835D01*
Y317045D01*
X-349235Y315391D01*
X-347969Y314125D01*
X-346315Y313440D01*
X-344525D01*
X-342871Y314125D01*
X-342115Y314881D01*
X-328250D01*
X-328250Y314881D01*
X-327080Y315114D01*
X-326087Y315777D01*
X-277954Y363910D01*
X-152670D01*
Y165930D01*
D02*
G37*
G36*
X-308689Y362737D02*
X-336099Y335327D01*
X-431642D01*
X-432812Y335094D01*
X-433805Y334431D01*
X-447973Y320263D01*
X-448636Y319270D01*
X-448869Y318100D01*
X-448869Y318100D01*
Y301447D01*
X-461070Y289246D01*
X-462340Y289772D01*
Y290245D01*
X-463025Y291899D01*
X-463271Y292145D01*
Y324812D01*
X-443107Y344977D01*
X-442333Y346134D01*
X-442061Y347500D01*
Y363910D01*
X-309175D01*
X-308689Y362737D01*
D02*
G37*
G36*
X332680Y266010D02*
X359908D01*
X361780Y264138D01*
Y242178D01*
X254950D01*
X254950Y242178D01*
X253389Y241868D01*
X252066Y240984D01*
X252066Y240984D01*
X197276Y186194D01*
X196392Y184871D01*
X196082Y183310D01*
X196082Y183310D01*
Y129697D01*
X175170Y108770D01*
Y93996D01*
X93520D01*
Y96440D01*
X75520D01*
Y78440D01*
X74391Y78099D01*
X68881D01*
X68540Y79369D01*
X70046Y80238D01*
X71722Y81914D01*
X72907Y83966D01*
X73520Y86255D01*
Y88625D01*
X72907Y90914D01*
X71722Y92966D01*
X70046Y94642D01*
X67994Y95827D01*
X65705Y96440D01*
X63335D01*
X61046Y95827D01*
X58994Y94642D01*
X57318Y92966D01*
X56133Y90914D01*
X55520Y88625D01*
Y86255D01*
X56133Y83966D01*
X57318Y81914D01*
X58994Y80238D01*
X60500Y79369D01*
X60159Y78099D01*
X48881D01*
X48540Y79369D01*
X50046Y80238D01*
X51722Y81914D01*
X52907Y83966D01*
X53520Y86255D01*
Y88625D01*
X52907Y90914D01*
X51722Y92966D01*
X50046Y94642D01*
X47994Y95827D01*
X45705Y96440D01*
X43335D01*
X41046Y95827D01*
X38994Y94642D01*
X37318Y92966D01*
X36133Y90914D01*
X35520Y88625D01*
Y86255D01*
X36133Y83966D01*
X37318Y81914D01*
X38994Y80238D01*
X40500Y79369D01*
X40160Y78099D01*
X28881D01*
X28540Y79369D01*
X30046Y80238D01*
X31722Y81914D01*
X32907Y83966D01*
X33520Y86255D01*
Y88625D01*
X32907Y90914D01*
X31722Y92966D01*
X30046Y94642D01*
X27994Y95827D01*
X25705Y96440D01*
X23335D01*
X21046Y95827D01*
X18994Y94642D01*
X17318Y92966D01*
X16133Y90914D01*
X15520Y88625D01*
Y86255D01*
X16133Y83966D01*
X17318Y81914D01*
X18994Y80238D01*
X20500Y79369D01*
X20159Y78099D01*
X8881D01*
X8540Y79369D01*
X10046Y80238D01*
X11722Y81914D01*
X12907Y83966D01*
X13520Y86255D01*
Y88625D01*
X12907Y90914D01*
X11722Y92966D01*
X10046Y94642D01*
X7994Y95827D01*
X5705Y96440D01*
X3335D01*
X1046Y95827D01*
X-1006Y94642D01*
X-2682Y92966D01*
X-3867Y90914D01*
X-4480Y88625D01*
Y86255D01*
X-3867Y83966D01*
X-2682Y81914D01*
X-1006Y80238D01*
X500Y79369D01*
X160Y78099D01*
X-11120D01*
X-11460Y79369D01*
X-9954Y80238D01*
X-8278Y81914D01*
X-7093Y83966D01*
X-6480Y86255D01*
Y88625D01*
X-7093Y90914D01*
X-8278Y92966D01*
X-9954Y94642D01*
X-12006Y95827D01*
X-14295Y96440D01*
X-16665D01*
X-18954Y95827D01*
X-21006Y94642D01*
X-22682Y92966D01*
X-23867Y90914D01*
X-24480Y88625D01*
Y86255D01*
X-23867Y83966D01*
X-22682Y81914D01*
X-21006Y80238D01*
X-19500Y79369D01*
X-19841Y78099D01*
X-24750D01*
X-25921Y77866D01*
X-26913Y77203D01*
X-26913Y77203D01*
X-40323Y63793D01*
X-40986Y62800D01*
X-41219Y61630D01*
X-41219Y61630D01*
Y51075D01*
X-42489Y50783D01*
X-43525Y52578D01*
X-45219Y54272D01*
X-47294Y55470D01*
X-49609Y56090D01*
X-52005D01*
X-54319Y55470D01*
X-56394Y54272D01*
X-58088Y52578D01*
X-59286Y50503D01*
X-59907Y48188D01*
Y45792D01*
X-59286Y43478D01*
X-58088Y41403D01*
X-56394Y39708D01*
X-54319Y38510D01*
X-52005Y37890D01*
X-49609D01*
X-47666Y38411D01*
X-40834Y31579D01*
Y24438D01*
X-42104Y24271D01*
X-42327Y25103D01*
X-43525Y27178D01*
X-45219Y28872D01*
X-47294Y30070D01*
X-49609Y30690D01*
X-52005D01*
X-54319Y30070D01*
X-56394Y28872D01*
X-58088Y27178D01*
X-59286Y25103D01*
X-59907Y22788D01*
Y20392D01*
X-59621Y19325D01*
X-60505Y17819D01*
X-60687Y17773D01*
X-88340Y45426D01*
Y46495D01*
X-89025Y48149D01*
X-90291Y49415D01*
X-91945Y50100D01*
X-93735D01*
X-95389Y49415D01*
X-96655Y48149D01*
X-97340Y46495D01*
Y44705D01*
X-96655Y43051D01*
X-95389Y41785D01*
X-93735Y41100D01*
X-93623Y40888D01*
X-94204Y39273D01*
X-94319Y39225D01*
X-95585Y37959D01*
X-96270Y36305D01*
Y34515D01*
X-95585Y32861D01*
X-94319Y31595D01*
X-92665Y30910D01*
X-91596D01*
X-46029Y-14657D01*
X-46838Y-15644D01*
X-47313Y-15326D01*
X-48230Y-15144D01*
X-50380D01*
Y-18690D01*
X-45834D01*
Y-17540D01*
X-46016Y-16623D01*
X-46334Y-16148D01*
X-45347Y-15339D01*
X-10999Y-49687D01*
Y-61745D01*
X-12237Y-62444D01*
X-12269Y-62438D01*
X-13155Y-62262D01*
X-15305D01*
Y-67808D01*
Y-73354D01*
X-13155D01*
X-12269Y-73178D01*
X-12237Y-73172D01*
X-10999Y-73871D01*
Y-78443D01*
X-12269Y-79025D01*
X-12433Y-78915D01*
X-13155Y-78772D01*
X-21455D01*
X-22177Y-78915D01*
X-22789Y-79324D01*
X-23198Y-79936D01*
X-23341Y-80658D01*
Y-86958D01*
X-23198Y-87680D01*
X-22789Y-88292D01*
X-22177Y-88701D01*
X-21455Y-88844D01*
X-20109D01*
Y-125395D01*
X-19895Y-126468D01*
X-19288Y-127378D01*
X-12200Y-134465D01*
Y-135895D01*
X-11981Y-136423D01*
X-13058Y-137142D01*
X-29741Y-120459D01*
Y-110105D01*
X-28985Y-109349D01*
X-28300Y-107695D01*
Y-105905D01*
X-28985Y-104251D01*
X-30251Y-102985D01*
X-31905Y-102300D01*
X-33695D01*
X-35349Y-102985D01*
X-36615Y-104251D01*
X-37300Y-105905D01*
Y-107695D01*
X-36615Y-109349D01*
X-35859Y-110105D01*
Y-121726D01*
X-35859Y-121726D01*
X-35626Y-122897D01*
X-34963Y-123889D01*
X-26484Y-132368D01*
X-26970Y-133541D01*
X-52895D01*
X-53651Y-132785D01*
X-55305Y-132100D01*
X-57095D01*
X-58749Y-132785D01*
X-60015Y-134051D01*
X-60700Y-135705D01*
Y-137495D01*
X-60437Y-138130D01*
X-61286Y-139400D01*
X-61795D01*
X-63449Y-140085D01*
X-64715Y-141351D01*
X-65400Y-143005D01*
Y-144795D01*
X-64715Y-146449D01*
X-63449Y-147715D01*
X-63211Y-147813D01*
Y-147954D01*
X-62998Y-149026D01*
X-62390Y-149936D01*
X-60926Y-151401D01*
X-60016Y-152008D01*
X-58943Y-152222D01*
X-55035D01*
Y-153568D01*
X-54892Y-154290D01*
X-54483Y-154902D01*
X-53871Y-155311D01*
X-53149Y-155454D01*
X-46849D01*
X-46127Y-155311D01*
X-45515Y-154902D01*
X-45107Y-154290D01*
X-44963Y-153568D01*
Y-145268D01*
X-45107Y-144546D01*
X-45515Y-143934D01*
X-46127Y-143525D01*
X-46849Y-143382D01*
X-53149D01*
X-53871Y-143525D01*
X-54483Y-143934D01*
X-54892Y-144546D01*
X-55035Y-145268D01*
Y-145441D01*
X-55330Y-145530D01*
X-55741Y-145247D01*
X-56400Y-144528D01*
Y-143005D01*
X-56663Y-142370D01*
X-55814Y-141100D01*
X-55305D01*
X-53651Y-140415D01*
X-52895Y-139659D01*
X-25557D01*
X-4339Y-160877D01*
Y-204210D01*
X-4339Y-204210D01*
X-4106Y-205380D01*
X-3443Y-206373D01*
X22577Y-232393D01*
X22577Y-232393D01*
X23570Y-233056D01*
X24740Y-233289D01*
X24740Y-233289D01*
X66840D01*
Y-391250D01*
X-43910D01*
Y-360996D01*
X6550D01*
X8247Y-360773D01*
X9828Y-360118D01*
X11186Y-359076D01*
X27946Y-342316D01*
X28988Y-340958D01*
X29643Y-339377D01*
X29866Y-337680D01*
Y-299790D01*
X29643Y-298093D01*
X28988Y-296512D01*
X27946Y-295154D01*
X26588Y-294112D01*
X25007Y-293457D01*
X23310Y-293234D01*
X21613Y-293457D01*
X20032Y-294112D01*
X18674Y-295154D01*
X17632Y-296512D01*
X16977Y-298093D01*
X16754Y-299790D01*
Y-334964D01*
X3834Y-347884D01*
X-43910D01*
Y-332744D01*
X-7070D01*
X-5997Y-332530D01*
X-5087Y-331923D01*
X5453Y-321383D01*
X6060Y-320473D01*
X6274Y-319400D01*
Y-264612D01*
X16386Y-254500D01*
X17182D01*
X18836Y-253815D01*
X20102Y-252549D01*
X20787Y-250895D01*
Y-249105D01*
X20102Y-247451D01*
X18836Y-246185D01*
X17182Y-245500D01*
X15392D01*
X13738Y-246185D01*
X13156Y-246767D01*
X12043Y-247129D01*
X11524Y-246740D01*
X10679Y-245895D01*
X9025Y-245210D01*
X7235D01*
X5581Y-245895D01*
X4315Y-247161D01*
X3630Y-248815D01*
Y-250245D01*
X-5033Y-258907D01*
X-5640Y-259817D01*
X-5854Y-260890D01*
Y-316159D01*
X-11311Y-321616D01*
X-43289D01*
X-43910Y-320995D01*
Y-314180D01*
X-43368Y-314073D01*
X-42756Y-313664D01*
X-42347Y-313052D01*
X-42204Y-312330D01*
Y-306030D01*
X-42347Y-305308D01*
X-42756Y-304696D01*
X-43368Y-304287D01*
X-43910Y-304180D01*
Y-298180D01*
X-43368Y-298073D01*
X-42756Y-297664D01*
X-42347Y-297052D01*
X-42204Y-296330D01*
Y-295984D01*
X-37859D01*
Y-296330D01*
X-37715Y-297052D01*
X-37306Y-297664D01*
X-36694Y-298073D01*
X-35972Y-298216D01*
X-33098D01*
X-32571Y-299486D01*
X-33805Y-300720D01*
X-34413Y-301629D01*
X-34626Y-302702D01*
Y-304144D01*
X-35972D01*
X-36694Y-304287D01*
X-37306Y-304696D01*
X-37715Y-305308D01*
X-37859Y-306030D01*
Y-312330D01*
X-37715Y-313052D01*
X-37306Y-313664D01*
X-36694Y-314073D01*
X-35972Y-314216D01*
X-27672D01*
X-26951Y-314073D01*
X-26339Y-313664D01*
X-25930Y-313052D01*
X-25786Y-312330D01*
Y-306030D01*
X-25930Y-305308D01*
X-26040Y-305144D01*
X-25457Y-303874D01*
X-22028D01*
X-21446Y-305144D01*
X-21666Y-305473D01*
X-21848Y-306390D01*
Y-307540D01*
X-8756D01*
Y-306390D01*
X-8939Y-305473D01*
X-9458Y-304696D01*
X-10235Y-304176D01*
X-11152Y-303994D01*
X-14008D01*
X-14473Y-302724D01*
X-13337Y-301588D01*
X-12730Y-300679D01*
X-12516Y-299606D01*
Y-298576D01*
X-11152D01*
X-10430Y-298433D01*
X-9818Y-298024D01*
X-9409Y-297412D01*
X-9266Y-296690D01*
Y-290390D01*
X-9409Y-289668D01*
X-9818Y-289056D01*
X-10430Y-288647D01*
X-11152Y-288504D01*
X-13454D01*
Y-287048D01*
X-13454Y-287047D01*
X-13687Y-285877D01*
X-14350Y-284884D01*
X-18997Y-280237D01*
X-19990Y-279574D01*
X-21160Y-279341D01*
X-21160Y-279341D01*
X-37483D01*
X-37767Y-279057D01*
X-37407Y-277621D01*
X-37202Y-277559D01*
X-37202Y-277559D01*
X-37202Y-277559D01*
X-33900D01*
Y-267812D01*
Y-258065D01*
X-37202D01*
Y-258065D01*
X-38331Y-257726D01*
Y-230009D01*
X-36344D01*
X-34978Y-229737D01*
X-33821Y-228963D01*
X-31477Y-226620D01*
X-30704Y-225462D01*
X-30432Y-224097D01*
Y-217295D01*
X-30129Y-217235D01*
X-29517Y-216826D01*
X-29108Y-216214D01*
X-28965Y-215492D01*
Y-213598D01*
X-27444D01*
X-25830Y-215212D01*
Y-215695D01*
X-25145Y-217349D01*
X-23879Y-218615D01*
X-22225Y-219300D01*
X-20435D01*
X-18781Y-218615D01*
X-17515Y-217349D01*
X-16830Y-215695D01*
Y-213905D01*
X-17515Y-212251D01*
X-18572Y-211194D01*
X-18556Y-210214D01*
X-18424Y-209758D01*
X-18101Y-209625D01*
X-16835Y-208359D01*
X-16150Y-206705D01*
Y-204915D01*
X-16835Y-203261D01*
X-17846Y-202250D01*
Y-198745D01*
X-18060Y-197672D01*
X-18667Y-196762D01*
X-22162Y-193267D01*
X-23071Y-192660D01*
X-24144Y-192446D01*
X-28965D01*
Y-191100D01*
X-29108Y-190378D01*
X-29517Y-189766D01*
X-30129Y-189357D01*
X-30851Y-189214D01*
X-37151D01*
X-37873Y-189357D01*
X-38485Y-189766D01*
X-38893Y-190378D01*
X-39037Y-191100D01*
Y-199400D01*
X-38893Y-200122D01*
X-38485Y-200734D01*
X-37873Y-201143D01*
X-37151Y-201286D01*
X-30851D01*
X-30129Y-201143D01*
X-29517Y-200734D01*
X-29108Y-200122D01*
X-28965Y-199400D01*
Y-198054D01*
X-25306D01*
X-23454Y-199906D01*
Y-202250D01*
X-24465Y-203261D01*
X-25150Y-204915D01*
Y-206705D01*
X-25053Y-206940D01*
X-25966Y-208053D01*
X-26283Y-207990D01*
X-28965D01*
Y-207192D01*
X-29108Y-206470D01*
X-29517Y-205858D01*
X-30129Y-205449D01*
X-30851Y-205306D01*
X-37151D01*
X-37873Y-205449D01*
X-38485Y-205858D01*
X-38893Y-206470D01*
X-39037Y-207192D01*
Y-215492D01*
X-38893Y-216214D01*
X-38485Y-216826D01*
X-37873Y-217235D01*
X-37569Y-217295D01*
Y-222619D01*
X-37822Y-222871D01*
X-84800D01*
X-86166Y-223143D01*
X-87323Y-223917D01*
X-99453Y-236047D01*
X-100227Y-237204D01*
X-100499Y-238570D01*
Y-266850D01*
X-281120D01*
X-309360Y-295090D01*
X-309360Y-415088D01*
X-370766D01*
Y-404070D01*
X-371242Y-402922D01*
X-372390Y-402446D01*
X-430449D01*
X-431149Y-401389D01*
X-431185Y-401176D01*
X-431027Y-400381D01*
Y-399231D01*
X-437573D01*
X-444119D01*
Y-400381D01*
X-443961Y-401176D01*
X-443997Y-401389D01*
X-444697Y-402446D01*
X-454646D01*
X-455346Y-401389D01*
X-455382Y-401176D01*
X-455224Y-400381D01*
Y-399231D01*
X-461770D01*
X-468316D01*
Y-400381D01*
X-468158Y-401176D01*
X-468194Y-401389D01*
X-468894Y-402446D01*
X-476190D01*
Y-367650D01*
X-365880Y-257340D01*
X-304250Y-195710D01*
Y-172328D01*
X-219840D01*
X-219840Y-172328D01*
X-218279Y-172018D01*
X-216956Y-171134D01*
X-204186Y-158364D01*
X-204186Y-158364D01*
X-203302Y-157041D01*
X-202992Y-155480D01*
X-202992Y-155480D01*
Y-121363D01*
X-202570Y-120345D01*
Y-118555D01*
X-203255Y-116901D01*
X-204521Y-115635D01*
X-206175Y-114950D01*
X-207965D01*
X-209619Y-115635D01*
X-210885Y-116901D01*
X-211570Y-118555D01*
Y-120345D01*
X-211148Y-121363D01*
Y-153791D01*
X-221529Y-164172D01*
X-304250D01*
Y-155725D01*
X-302980Y-154997D01*
X-301977Y-155413D01*
X-300280Y-155636D01*
X-298583Y-155413D01*
X-297002Y-154758D01*
X-295644Y-153716D01*
X-294602Y-152358D01*
X-293947Y-150777D01*
X-293724Y-149080D01*
Y-105026D01*
X-267214Y-78516D01*
X-152230D01*
X-150533Y-78293D01*
X-148952Y-77638D01*
X-147594Y-76596D01*
X-124504Y-53506D01*
X-123462Y-52148D01*
X-122807Y-50567D01*
X-122584Y-48870D01*
Y-40745D01*
X-122807Y-39048D01*
X-123462Y-37467D01*
X-124504Y-36109D01*
X-125862Y-35067D01*
X-127443Y-34412D01*
X-129140Y-34189D01*
X-130837Y-34412D01*
X-132418Y-35067D01*
X-133776Y-36109D01*
X-134818Y-37467D01*
X-135473Y-39048D01*
X-135696Y-40745D01*
Y-46154D01*
X-154946Y-65404D01*
X-218950D01*
X-219436Y-64231D01*
X-177690Y-22485D01*
Y41347D01*
X-137960Y81190D01*
Y114230D01*
X-110930Y141260D01*
Y259050D01*
X-86650Y283330D01*
X-66130D01*
X-65733Y282205D01*
X-65728Y282060D01*
X-85241Y262547D01*
X-86259Y262125D01*
X-87525Y260859D01*
X-88210Y259205D01*
Y257415D01*
X-87525Y255761D01*
X-86259Y254495D01*
X-84605Y253810D01*
X-82815D01*
X-81161Y254495D01*
X-79895Y255761D01*
X-79474Y256779D01*
X-61121Y275132D01*
X176930D01*
X176930Y275132D01*
X178491Y275442D01*
X179814Y276326D01*
X186818Y283330D01*
X210533D01*
X211019Y282157D01*
X201371Y272508D01*
X-52280D01*
X-53841Y272198D01*
X-55164Y271314D01*
X-55164Y271314D01*
X-85374Y241104D01*
X-86258Y239781D01*
X-86568Y238220D01*
X-86568Y238220D01*
Y175233D01*
X-86990Y174215D01*
Y172425D01*
X-86305Y170771D01*
X-85039Y169505D01*
X-83385Y168820D01*
X-81595D01*
X-79941Y169505D01*
X-78675Y170771D01*
X-77990Y172425D01*
Y174215D01*
X-78412Y175233D01*
Y236531D01*
X-50591Y264352D01*
X-12713D01*
X-12461Y263082D01*
X-13539Y262635D01*
X-14805Y261369D01*
X-15490Y259715D01*
Y257925D01*
X-14982Y256699D01*
Y197676D01*
X-15318Y196865D01*
Y195075D01*
X-14896Y194057D01*
Y174038D01*
X-14896Y174038D01*
X-14586Y172477D01*
X-13702Y171154D01*
X6516Y150936D01*
X6516Y150936D01*
X7839Y150052D01*
X9400Y149742D01*
X94090D01*
X94090Y149742D01*
X95651Y150052D01*
X96974Y150936D01*
X108741Y162703D01*
X109759Y163125D01*
X111025Y164391D01*
X111710Y166045D01*
Y166343D01*
X111788Y166460D01*
X112098Y168021D01*
Y227417D01*
X112520Y228435D01*
Y230225D01*
X111835Y231879D01*
X110569Y233145D01*
X108915Y233830D01*
X107125D01*
X105471Y233145D01*
X104205Y231879D01*
X103520Y230225D01*
Y228435D01*
X103942Y227417D01*
Y170036D01*
X103395Y169489D01*
X102973Y168471D01*
X92401Y157898D01*
X11089D01*
X-6740Y175727D01*
Y194057D01*
X-6318Y195075D01*
Y196865D01*
X-6826Y198091D01*
Y257115D01*
X-6490Y257925D01*
Y259715D01*
X-7175Y261369D01*
X-8441Y262635D01*
X-9519Y263082D01*
X-9267Y264352D01*
X203060D01*
X203060Y264352D01*
X204621Y264662D01*
X205944Y265546D01*
X223728Y283330D01*
X315360D01*
X332680Y266010D01*
D02*
G37*
G36*
X361780Y204290D02*
X298750Y141260D01*
X207636D01*
X205412Y139035D01*
X204238Y139520D01*
Y181621D01*
X256639Y234022D01*
X361780D01*
Y204290D01*
D02*
G37*
G36*
X769960Y108720D02*
X739270D01*
Y153380D01*
X769960D01*
Y108720D01*
D02*
G37*
G36*
X815860Y108140D02*
X785170D01*
Y152800D01*
X815860D01*
Y108140D01*
D02*
G37*
G36*
X136763Y56678D02*
X136906Y55901D01*
X135804Y54800D01*
X135119Y53146D01*
Y51958D01*
X134317Y51156D01*
X133654Y50164D01*
X133421Y48994D01*
X133421Y48993D01*
Y46487D01*
X132151Y45638D01*
X131375Y45960D01*
X129585D01*
X127931Y45275D01*
X126665Y44009D01*
X125980Y42355D01*
Y41286D01*
X117667Y32973D01*
X117004Y31981D01*
X116771Y30810D01*
X116771Y30810D01*
Y28932D01*
X116464Y28761D01*
X115501Y28543D01*
X114439Y29605D01*
X112785Y30290D01*
X110995D01*
X109341Y29605D01*
X108075Y28339D01*
X107390Y26685D01*
Y24895D01*
X108075Y23241D01*
X109086Y22230D01*
Y-34549D01*
X54407Y-89228D01*
X53234Y-88742D01*
Y-86581D01*
X100623Y-39193D01*
X101230Y-38283D01*
X101444Y-37210D01*
Y42919D01*
X108031Y49506D01*
X112390D01*
X113401Y48495D01*
X115055Y47810D01*
X116845D01*
X118499Y48495D01*
X119765Y49761D01*
X120450Y51415D01*
Y53205D01*
X119765Y54859D01*
X118723Y55901D01*
X118985Y56954D01*
X119112Y57171D01*
X136516D01*
X136763Y56678D01*
D02*
G37*
G36*
X825520Y42240D02*
X794830D01*
Y86900D01*
X825520D01*
Y42240D01*
D02*
G37*
G36*
X779010Y41650D02*
X748320D01*
Y86310D01*
X779010D01*
Y41650D01*
D02*
G37*
G36*
X175170Y46764D02*
Y-203571D01*
X110980D01*
X110980Y-203571D01*
X109810Y-203804D01*
X108817Y-204467D01*
X108817Y-204467D01*
X91133Y-222151D01*
X29267D01*
X7379Y-200263D01*
Y-158846D01*
X7146Y-157676D01*
X6483Y-156683D01*
X-9842Y-140358D01*
X-9123Y-139281D01*
X-8595Y-139500D01*
X-6805D01*
X-5151Y-138815D01*
X-3885Y-137549D01*
X-3200Y-135895D01*
Y-134105D01*
X-3885Y-132451D01*
X-5151Y-131185D01*
X-6805Y-130500D01*
X-8235D01*
X-14501Y-124234D01*
Y-88844D01*
X-13155D01*
X-12433Y-88701D01*
X-11821Y-88292D01*
X-11412Y-87680D01*
X-11269Y-86958D01*
Y-82840D01*
X-10436Y-82453D01*
X-9999Y-82403D01*
X-7305Y-85096D01*
X-7305Y-85096D01*
X-6313Y-85759D01*
X-5143Y-85992D01*
X-3936D01*
Y-86829D01*
X-3793Y-87551D01*
X-3384Y-88163D01*
X-2772Y-88572D01*
X-2050Y-88715D01*
X-959D01*
Y-127361D01*
X-959Y-127361D01*
X-726Y-128532D01*
X-63Y-129524D01*
X1814Y-131401D01*
X1787Y-131465D01*
Y-133255D01*
X2472Y-134909D01*
X3738Y-136175D01*
X5392Y-136860D01*
X7182D01*
X8836Y-136175D01*
X10102Y-134909D01*
X10787Y-133255D01*
Y-131465D01*
X10102Y-129811D01*
X8836Y-128545D01*
X7182Y-127860D01*
X6925D01*
X5159Y-126094D01*
Y-88715D01*
X6250D01*
X6972Y-88572D01*
X7584Y-88163D01*
X7993Y-87551D01*
X8136Y-86829D01*
Y-83904D01*
X9406Y-83666D01*
X9897Y-84401D01*
X11654Y-86158D01*
X11654Y-86158D01*
X12647Y-86821D01*
X13817Y-87054D01*
X13817Y-87054D01*
X15864D01*
X15897Y-87221D01*
X16306Y-87833D01*
X16918Y-88242D01*
X17640Y-88385D01*
X18731D01*
Y-126179D01*
X17416Y-127495D01*
X17158D01*
X15504Y-128180D01*
X14238Y-129446D01*
X13553Y-131100D01*
Y-132890D01*
X14238Y-134544D01*
X15504Y-135810D01*
X17158Y-136495D01*
X18948D01*
X20602Y-135810D01*
X21868Y-134544D01*
X22553Y-132890D01*
Y-131100D01*
X22527Y-131035D01*
X23953Y-129609D01*
X23953Y-129609D01*
X24616Y-128617D01*
X24849Y-127446D01*
Y-88385D01*
X25940D01*
X26662Y-88242D01*
X27274Y-87833D01*
X27683Y-87221D01*
X27826Y-86499D01*
Y-80199D01*
X27683Y-79477D01*
X27274Y-78865D01*
X26662Y-78457D01*
X25940Y-78313D01*
X17640D01*
X16918Y-78457D01*
X16389Y-78810D01*
X15954Y-78714D01*
X15119Y-78357D01*
Y-73068D01*
X16389Y-72489D01*
X16723Y-72713D01*
X17640Y-72895D01*
X19790D01*
Y-67349D01*
Y-61803D01*
X17640D01*
X16723Y-61986D01*
X16389Y-62209D01*
X15119Y-61631D01*
Y-46750D01*
X15119Y-46750D01*
X14886Y-45579D01*
X14223Y-44587D01*
X14223Y-44587D01*
X10177Y-40541D01*
X9185Y-39878D01*
X8014Y-39646D01*
X8014Y-39646D01*
X5819D01*
X5495Y-38719D01*
X5468Y-38375D01*
X6665Y-37179D01*
X7350Y-35525D01*
Y-33735D01*
X7273Y-33550D01*
X8350Y-32831D01*
X29581Y-54062D01*
Y-63949D01*
X28311Y-64075D01*
X28154Y-63282D01*
X27634Y-62505D01*
X26857Y-61986D01*
X25940Y-61803D01*
X23790D01*
Y-67349D01*
Y-72895D01*
X25940D01*
X26857Y-72713D01*
X27634Y-72193D01*
X28154Y-71416D01*
X28311Y-70624D01*
X29581Y-70749D01*
Y-129573D01*
X16727Y-142427D01*
X16064Y-143419D01*
X15831Y-144590D01*
X15831Y-144590D01*
Y-169945D01*
X14945Y-170831D01*
X14260Y-172485D01*
Y-174275D01*
X14945Y-175929D01*
X16211Y-177195D01*
X17865Y-177880D01*
X19655D01*
X21309Y-177195D01*
X22575Y-175929D01*
X23260Y-174275D01*
Y-173163D01*
X23974Y-172269D01*
X24433Y-172130D01*
X25875D01*
X27529Y-171445D01*
X28795Y-170179D01*
X29201Y-169198D01*
X30471Y-169451D01*
Y-204409D01*
X30471Y-204409D01*
X30704Y-205580D01*
X31367Y-206572D01*
X35488Y-210693D01*
Y-211574D01*
X36173Y-213228D01*
X37439Y-214494D01*
X39093Y-215179D01*
X40883D01*
X42537Y-214494D01*
X43803Y-213228D01*
X44488Y-211574D01*
Y-209784D01*
X43803Y-208130D01*
X42537Y-206864D01*
X40883Y-206179D01*
X39626D01*
X36589Y-203142D01*
Y-195454D01*
X37762Y-194968D01*
X43150Y-200356D01*
Y-201425D01*
X43835Y-203079D01*
X45101Y-204345D01*
X46755Y-205030D01*
X48545D01*
X50199Y-204345D01*
X51465Y-203079D01*
X52150Y-201425D01*
Y-199635D01*
X51465Y-197981D01*
X50199Y-196715D01*
X48545Y-196030D01*
X47476D01*
X41109Y-189663D01*
Y-150939D01*
X41416Y-150768D01*
X42379Y-150550D01*
X43441Y-151612D01*
X45095Y-152297D01*
X46269D01*
X46992Y-152515D01*
X47443Y-153441D01*
Y-154442D01*
X48128Y-156096D01*
X49394Y-157362D01*
X51048Y-158047D01*
X52838D01*
X54371Y-157412D01*
X55641Y-157872D01*
Y-160195D01*
X52044Y-163792D01*
X52044Y-163792D01*
X48309Y-167527D01*
X48245Y-167500D01*
X46455D01*
X44801Y-168185D01*
X43535Y-169451D01*
X42850Y-171105D01*
Y-172895D01*
X43535Y-174549D01*
X44801Y-175815D01*
X46455Y-176500D01*
X48245D01*
X49899Y-175815D01*
X51165Y-174549D01*
X52169Y-175204D01*
X51800Y-176096D01*
Y-177886D01*
X52485Y-179540D01*
X53751Y-180806D01*
X55405Y-181491D01*
X57195D01*
X58849Y-180806D01*
X60115Y-179540D01*
X60800Y-177886D01*
Y-177026D01*
X63768Y-174058D01*
X64941Y-174544D01*
Y-189776D01*
X58387Y-196330D01*
X58045D01*
X56391Y-197015D01*
X55125Y-198281D01*
X54440Y-199935D01*
Y-201725D01*
X55125Y-203379D01*
X56391Y-204645D01*
X58045Y-205330D01*
X59835D01*
X61489Y-204645D01*
X62755Y-203379D01*
X63440Y-201725D01*
Y-199935D01*
X63438Y-199930D01*
X70163Y-193206D01*
X70826Y-192213D01*
X71059Y-191043D01*
Y-112517D01*
X143533Y-40043D01*
X143533Y-40043D01*
X144170Y-39089D01*
X144275Y-39066D01*
X145440Y-39301D01*
Y-55225D01*
X171300D01*
Y-33175D01*
X145699D01*
X145440Y-33175D01*
X144429Y-32550D01*
Y3829D01*
X145699Y3912D01*
X145724Y3722D01*
X146835Y1040D01*
X148602Y-1263D01*
X150905Y-3030D01*
X153587Y-4141D01*
X156465Y-4520D01*
X160275D01*
X163153Y-4141D01*
X165835Y-3030D01*
X168138Y-1263D01*
X169905Y1040D01*
X171016Y3722D01*
X171395Y6600D01*
X171016Y9478D01*
X169905Y12160D01*
X168138Y14463D01*
X165835Y16230D01*
X163153Y17341D01*
X160275Y17720D01*
X156465D01*
X153587Y17341D01*
X150905Y16230D01*
X148602Y14463D01*
X146835Y12160D01*
X145724Y9478D01*
X145699Y9288D01*
X144429Y9371D01*
Y29229D01*
X145699Y29312D01*
X145724Y29122D01*
X146835Y26440D01*
X148602Y24137D01*
X150905Y22370D01*
X153587Y21259D01*
X156465Y20880D01*
X160275D01*
X163153Y21259D01*
X165835Y22370D01*
X168138Y24137D01*
X169905Y26440D01*
X171016Y29122D01*
X171395Y32000D01*
X171016Y34878D01*
X169905Y37560D01*
X168138Y39863D01*
X165835Y41630D01*
X163153Y42741D01*
X160275Y43120D01*
X156465D01*
X154613Y42876D01*
X154412Y43050D01*
X153831Y44054D01*
X154362Y45335D01*
Y47125D01*
X153677Y48779D01*
X152411Y50045D01*
X150757Y50730D01*
X148967D01*
X147313Y50045D01*
X146047Y48779D01*
X145362Y47125D01*
Y46056D01*
X140712Y41406D01*
X139539Y41892D01*
Y47726D01*
X139563Y47751D01*
X140514D01*
X142168Y48436D01*
X143434Y49702D01*
X144119Y51356D01*
Y53146D01*
X143434Y54800D01*
X142333Y55901D01*
X142475Y56678D01*
X142722Y57171D01*
X164763D01*
X175170Y46764D01*
D02*
G37*
G36*
X133421Y36433D02*
Y-29523D01*
X124134Y-38810D01*
X123611Y-38705D01*
X122889Y-38259D01*
Y29543D01*
X130306Y36960D01*
X131375D01*
X132151Y37281D01*
X133421Y36433D01*
D02*
G37*
G36*
X19232Y65908D02*
X10807Y57483D01*
X10144Y56491D01*
X9911Y55320D01*
X9911Y55320D01*
Y34014D01*
X9911Y34014D01*
X10144Y32843D01*
X10807Y31851D01*
X17148Y25509D01*
X16914Y25103D01*
X16293Y22788D01*
Y20392D01*
X16914Y18078D01*
X18112Y16003D01*
X19806Y14308D01*
X21881Y13110D01*
X24195Y12490D01*
X26591D01*
X28906Y13110D01*
X30981Y14308D01*
X32675Y16003D01*
X33873Y18078D01*
X34493Y20392D01*
Y22788D01*
X33873Y25103D01*
X32675Y27178D01*
X30981Y28872D01*
X28906Y30070D01*
X26591Y30690D01*
X24195D01*
X21881Y30070D01*
X21474Y29835D01*
X16029Y35280D01*
Y42470D01*
X17299Y42810D01*
X18112Y41403D01*
X19806Y39708D01*
X21881Y38510D01*
X24195Y37890D01*
X26591D01*
X28906Y38510D01*
X30981Y39708D01*
X32675Y41403D01*
X33873Y43478D01*
X34493Y45792D01*
Y48188D01*
X33873Y50503D01*
X33638Y50909D01*
X39900Y57171D01*
X48723D01*
X48891Y55901D01*
X47281Y55470D01*
X45206Y54272D01*
X43512Y52578D01*
X42314Y50503D01*
X41693Y48188D01*
Y45792D01*
X42314Y43478D01*
X43512Y41403D01*
X45206Y39708D01*
X47281Y38510D01*
X49595Y37890D01*
X51991D01*
X54306Y38510D01*
X56381Y39708D01*
X58075Y41403D01*
X59273Y43478D01*
X59893Y45792D01*
Y48188D01*
X59273Y50503D01*
X58075Y52578D01*
X56381Y54272D01*
X54306Y55470D01*
X52696Y55901D01*
X52863Y57171D01*
X112701D01*
X113092Y56027D01*
X112300Y55114D01*
X106870D01*
X105797Y54900D01*
X104887Y54293D01*
X96657Y46063D01*
X96050Y45153D01*
X95836Y44080D01*
Y-36049D01*
X91375Y-40510D01*
X90388Y-39700D01*
X90856Y-39000D01*
X91089Y-37830D01*
X91089Y-37830D01*
Y16100D01*
X90856Y17271D01*
X90193Y18263D01*
X90193Y18263D01*
X82093Y26363D01*
X81101Y27026D01*
X79930Y27259D01*
X79930Y27259D01*
X74805D01*
X74049Y28015D01*
X72395Y28700D01*
X70605D01*
X68951Y28015D01*
X67685Y26749D01*
X67000Y25095D01*
Y23305D01*
X67685Y21651D01*
X68951Y20385D01*
X70605Y19700D01*
X72395D01*
X74049Y20385D01*
X74805Y21141D01*
X78663D01*
X84971Y14833D01*
Y1076D01*
X83701Y691D01*
X83633Y793D01*
X76000Y8426D01*
Y9495D01*
X75315Y11149D01*
X74049Y12415D01*
X72395Y13100D01*
X70605D01*
X68951Y12415D01*
X67685Y11149D01*
X67000Y9495D01*
Y7705D01*
X67685Y6051D01*
X68951Y4785D01*
X70605Y4100D01*
X71674D01*
X78411Y-2637D01*
Y-34243D01*
X41407Y-71247D01*
X40234Y-70761D01*
Y-50880D01*
X40020Y-49807D01*
X39413Y-48897D01*
X-6370Y-3115D01*
X-7279Y-2508D01*
X-7347Y-2494D01*
X-7222Y-1224D01*
X-3841D01*
X32700Y-37765D01*
Y-39195D01*
X33385Y-40849D01*
X34651Y-42115D01*
X36305Y-42800D01*
X38095D01*
X39749Y-42115D01*
X41015Y-40849D01*
X41700Y-39195D01*
Y-37405D01*
X41015Y-35751D01*
X39749Y-34485D01*
X38095Y-33800D01*
X36665D01*
X-697Y3563D01*
X-1607Y4170D01*
X-2680Y4384D01*
X-22140D01*
X-23151Y5395D01*
X-24805Y6080D01*
X-26595D01*
X-28249Y5395D01*
X-29515Y4129D01*
X-29838Y3348D01*
X-31337Y3050D01*
X-35226Y6940D01*
Y18171D01*
X-33956Y18338D01*
X-33886Y18078D01*
X-32688Y16003D01*
X-30994Y14308D01*
X-28919Y13110D01*
X-26605Y12490D01*
X-24209D01*
X-21894Y13110D01*
X-19819Y14308D01*
X-18125Y16003D01*
X-16927Y18078D01*
X-16307Y20392D01*
Y22788D01*
X-16927Y25103D01*
X-18125Y27178D01*
X-19819Y28872D01*
X-21894Y30070D01*
X-24101Y30661D01*
Y32455D01*
X-24101Y32455D01*
X-24334Y33626D01*
X-24997Y34618D01*
X-27214Y36835D01*
X-26932Y37324D01*
X-26472Y37890D01*
X-24209D01*
X-21894Y38510D01*
X-19819Y39708D01*
X-18125Y41403D01*
X-16927Y43478D01*
X-16307Y45792D01*
Y48188D01*
X-16927Y50503D01*
X-18125Y52578D01*
X-19819Y54272D01*
X-21894Y55470D01*
X-22348Y55592D01*
Y60306D01*
X-15573Y67081D01*
X18746D01*
X19232Y65908D01*
D02*
G37*
G36*
X-4536Y-45763D02*
X-4536Y-45763D01*
X6747D01*
X9001Y-48017D01*
Y-62131D01*
X8519Y-62452D01*
X7731Y-62692D01*
X7167Y-62315D01*
X6250Y-62133D01*
X4100D01*
Y-67679D01*
X100D01*
Y-62133D01*
X-2050D01*
X-2967Y-62315D01*
X-3611Y-62746D01*
X-4214Y-62593D01*
X-4881Y-62251D01*
Y-48420D01*
X-4881Y-48420D01*
X-5114Y-47249D01*
X-5350Y-46896D01*
X-4587Y-45753D01*
X-4536Y-45763D01*
D02*
G37*
G36*
X368340Y-179270D02*
X216610D01*
Y-14770D01*
X368340D01*
Y-179270D01*
D02*
G37*
G36*
X-45469Y-258477D02*
X-46702Y-258565D01*
X-47098D01*
Y-258565D01*
X-56702D01*
Y-258565D01*
X-57098D01*
Y-258565D01*
X-66702D01*
Y-266850D01*
X-93361D01*
Y-240048D01*
X-84039Y-230725D01*
X-82877Y-231360D01*
Y-253037D01*
X-66923D01*
Y-231279D01*
X-66923Y-230987D01*
X-66219Y-230009D01*
X-45469D01*
Y-258477D01*
D02*
G37*
G36*
X158815Y-282920D02*
X159301Y-284093D01*
X153794Y-289600D01*
X153131Y-290592D01*
X152898Y-291763D01*
X152898Y-291763D01*
Y-369429D01*
X150397Y-370465D01*
X148094Y-372232D01*
X146327Y-374535D01*
X145216Y-377217D01*
X144837Y-380095D01*
Y-383905D01*
X145216Y-386783D01*
X146327Y-389465D01*
X148094Y-391768D01*
X150397Y-393535D01*
X153079Y-394646D01*
X155957Y-395025D01*
X158835Y-394646D01*
X161517Y-393535D01*
X163820Y-391768D01*
X165587Y-389465D01*
X166698Y-386783D01*
X167077Y-383905D01*
Y-380095D01*
X166698Y-377217D01*
X165587Y-374535D01*
X163820Y-372232D01*
X161517Y-370465D01*
X159016Y-369429D01*
Y-293030D01*
X169126Y-282920D01*
X324500Y-282920D01*
X338900Y-297320D01*
X350680Y-309100D01*
X366920D01*
Y-352860D01*
X322700Y-397080D01*
X95060Y-397080D01*
Y-394930D01*
X116182D01*
Y-369070D01*
X95060D01*
Y-282920D01*
X110791D01*
Y-289500D01*
X110791Y-289500D01*
X111024Y-290671D01*
X111687Y-291663D01*
X127498Y-307474D01*
Y-369429D01*
X124997Y-370465D01*
X122694Y-372232D01*
X120927Y-374535D01*
X119816Y-377217D01*
X119437Y-380095D01*
Y-383905D01*
X119816Y-386783D01*
X120927Y-389465D01*
X122694Y-391768D01*
X124997Y-393535D01*
X127679Y-394646D01*
X130557Y-395025D01*
X133435Y-394646D01*
X136117Y-393535D01*
X138420Y-391768D01*
X140187Y-389465D01*
X141298Y-386783D01*
X141677Y-383905D01*
Y-380095D01*
X141298Y-377217D01*
X140187Y-374535D01*
X138420Y-372232D01*
X136117Y-370465D01*
X133616Y-369429D01*
Y-306207D01*
X133616Y-306207D01*
X133383Y-305036D01*
X132720Y-304044D01*
X116909Y-288233D01*
Y-282920D01*
X147950D01*
X158815D01*
D02*
G37*
G36*
X-100499Y-303323D02*
X-100227Y-304688D01*
X-99453Y-305846D01*
X-93596Y-311703D01*
X-92438Y-312477D01*
X-91073Y-312749D01*
X-87775D01*
X-87715Y-313052D01*
X-87306Y-313664D01*
X-86694Y-314073D01*
X-85972Y-314216D01*
X-77672D01*
X-77430Y-314168D01*
X-76341Y-314844D01*
X-76160Y-315072D01*
Y-355830D01*
X-112590Y-392260D01*
X-139190D01*
X-169360Y-422430D01*
X-170800Y-420990D01*
X-269270D01*
Y-291800D01*
X-100499D01*
Y-303323D01*
D02*
G37*
G36*
X-309360Y-474980D02*
X-425446Y-474980D01*
Y-441522D01*
X-424048Y-440124D01*
X-372390D01*
X-371242Y-439648D01*
X-370766Y-438500D01*
Y-428200D01*
X-309360D01*
X-309360Y-474980D01*
D02*
G37*
G36*
X-372390Y-438500D02*
X-424720D01*
X-427070Y-440850D01*
Y-475240D01*
X-462870D01*
X-476800Y-461310D01*
Y-404070D01*
X-372390D01*
Y-438500D01*
D02*
G37*
%LPC*%
G36*
X648911Y400052D02*
X631591Y390052D01*
X641591Y372732D01*
X658911Y382732D01*
X648911Y400052D01*
D02*
G37*
G36*
X628127Y388052D02*
X610806Y378052D01*
X620806Y360732D01*
X638127Y370732D01*
X628127Y388052D01*
D02*
G37*
G36*
X660911Y379268D02*
X643591Y369268D01*
X653591Y351947D01*
X670911Y361947D01*
X660911Y379268D01*
D02*
G37*
G36*
X640127Y367268D02*
X622806Y357268D01*
X632806Y339947D01*
X650127Y349947D01*
X640127Y367268D01*
D02*
G37*
G36*
X-245725Y360750D02*
X-247515D01*
X-249169Y360065D01*
X-250435Y358799D01*
X-251120Y357145D01*
Y355355D01*
X-250435Y353701D01*
X-249169Y352435D01*
X-247515Y351750D01*
X-245725D01*
X-244071Y352435D01*
X-243315Y353191D01*
X-235541D01*
X-235419Y353215D01*
X-231311Y352811D01*
X-227245Y351577D01*
X-223497Y349574D01*
X-220212Y346878D01*
X-218852Y345220D01*
X-219754Y344318D01*
X-221638Y345864D01*
X-224614Y347455D01*
X-227844Y348435D01*
X-231203Y348766D01*
Y348742D01*
X-242958D01*
X-243901Y349685D01*
X-245555Y350370D01*
X-247345D01*
X-248999Y349685D01*
X-250265Y348419D01*
X-250950Y346765D01*
Y344975D01*
X-250265Y343321D01*
X-248999Y342055D01*
X-247345Y341370D01*
X-245555D01*
X-243901Y342055D01*
X-243332Y342624D01*
X-231203D01*
X-231122Y342640D01*
X-228330Y342272D01*
X-225652Y341163D01*
X-223353Y339399D01*
X-221589Y337100D01*
X-220480Y334423D01*
X-220112Y331630D01*
X-220128Y331549D01*
Y209801D01*
X-220120Y209760D01*
X-220440Y207333D01*
X-221392Y205033D01*
X-222908Y203058D01*
X-224883Y201542D01*
X-227183Y200590D01*
X-229610Y200270D01*
X-229651Y200278D01*
X-425500D01*
X-426671Y200045D01*
X-427663Y199382D01*
X-430586Y196460D01*
X-431655D01*
X-433309Y195775D01*
X-434575Y194509D01*
X-435260Y192855D01*
Y191065D01*
X-434575Y189411D01*
X-433309Y188145D01*
X-431655Y187460D01*
X-429865D01*
X-428211Y188145D01*
X-426945Y189411D01*
X-426260Y191065D01*
Y192134D01*
X-424234Y194161D01*
X-385771D01*
X-385596Y193923D01*
X-385295Y192891D01*
X-395397Y182789D01*
X-431713D01*
X-441660Y192736D01*
Y193805D01*
X-442345Y195459D01*
X-443611Y196725D01*
X-445265Y197410D01*
X-446334D01*
X-452096Y203172D01*
X-453089Y203835D01*
X-454259Y204068D01*
X-454259Y204068D01*
X-492606D01*
X-494954Y206416D01*
Y236819D01*
X-494198Y237576D01*
X-493513Y239230D01*
Y241020D01*
X-494198Y242674D01*
X-495464Y243939D01*
X-497118Y244625D01*
X-498908D01*
X-500562Y243939D01*
X-501828Y242674D01*
X-502513Y241020D01*
Y239230D01*
X-501828Y237576D01*
X-501072Y236819D01*
Y205149D01*
X-501072Y205149D01*
X-500839Y203978D01*
X-500176Y202986D01*
X-496036Y198847D01*
X-496036Y198846D01*
X-495044Y198183D01*
X-493873Y197951D01*
X-493873Y197951D01*
X-455526D01*
X-450660Y193084D01*
Y192015D01*
X-449975Y190361D01*
X-448709Y189095D01*
X-447055Y188410D01*
X-445986D01*
X-435143Y177567D01*
X-434151Y176904D01*
X-432980Y176671D01*
X-432980Y176671D01*
X-394130D01*
X-394130Y176671D01*
X-392959Y176904D01*
X-391967Y177567D01*
X-381603Y187931D01*
X-229651D01*
Y187885D01*
X-225375Y188306D01*
X-221264Y189553D01*
X-217475Y191578D01*
X-214153Y194303D01*
X-211428Y197625D01*
X-209403Y201414D01*
X-208156Y205525D01*
X-207735Y209801D01*
X-207781D01*
Y331549D01*
X-207754D01*
X-208096Y335896D01*
X-209114Y340136D01*
X-210783Y344164D01*
X-213061Y347882D01*
X-215893Y351197D01*
X-219208Y354029D01*
X-222926Y356307D01*
X-226954Y357976D01*
X-231194Y358994D01*
X-235541Y359336D01*
Y359309D01*
X-243315D01*
X-244071Y360065D01*
X-245725Y360750D01*
D02*
G37*
G36*
X-401255Y277650D02*
X-403045D01*
X-404699Y276965D01*
X-405965Y275699D01*
X-406495Y274419D01*
X-432945D01*
X-433191Y274665D01*
X-434845Y275350D01*
X-436635D01*
X-438289Y274665D01*
X-439555Y273399D01*
X-440240Y271745D01*
Y269955D01*
X-439555Y268301D01*
X-438289Y267035D01*
X-436635Y266350D01*
X-434845D01*
X-433191Y267035D01*
X-432945Y267281D01*
X-404991D01*
X-403626Y267553D01*
X-402468Y268327D01*
X-402145Y268650D01*
X-401255D01*
X-399601Y269335D01*
X-398335Y270601D01*
X-397650Y272255D01*
Y274045D01*
X-398335Y275699D01*
X-399601Y276965D01*
X-401255Y277650D01*
D02*
G37*
G36*
X-199035Y224340D02*
X-200825D01*
X-202479Y223655D01*
X-203745Y222389D01*
X-204430Y220735D01*
Y218945D01*
X-203745Y217291D01*
X-202479Y216025D01*
X-200825Y215340D01*
X-199035D01*
X-197381Y216025D01*
X-196615Y216791D01*
X-195603Y217034D01*
X-195010Y216736D01*
X-194099Y215825D01*
X-192445Y215140D01*
X-190655D01*
X-189001Y215825D01*
X-187735Y217091D01*
X-187050Y218745D01*
Y220535D01*
X-187735Y222189D01*
X-189001Y223455D01*
X-190655Y224140D01*
X-192445D01*
X-194099Y223455D01*
X-194865Y222689D01*
X-195877Y222446D01*
X-196470Y222744D01*
X-197381Y223655D01*
X-199035Y224340D01*
D02*
G37*
G36*
Y211880D02*
X-200825D01*
X-202479Y211195D01*
X-203745Y209929D01*
X-204430Y208275D01*
Y206485D01*
X-203745Y204831D01*
X-202479Y203565D01*
X-200825Y202880D01*
X-199035D01*
X-197381Y203565D01*
X-196615Y204331D01*
X-195603Y204574D01*
X-195010Y204276D01*
X-194099Y203365D01*
X-192445Y202680D01*
X-190655D01*
X-189001Y203365D01*
X-187735Y204631D01*
X-187050Y206285D01*
Y208075D01*
X-187735Y209729D01*
X-189001Y210995D01*
X-190655Y211680D01*
X-192445D01*
X-194099Y210995D01*
X-194865Y210229D01*
X-195877Y209986D01*
X-196470Y210284D01*
X-197381Y211195D01*
X-199035Y211880D01*
D02*
G37*
G36*
Y199480D02*
X-200825D01*
X-202479Y198795D01*
X-203745Y197529D01*
X-204430Y195875D01*
Y194085D01*
X-203745Y192431D01*
X-202479Y191165D01*
X-200825Y190480D01*
X-199035D01*
X-197381Y191165D01*
X-196615Y191931D01*
X-195603Y192174D01*
X-195010Y191876D01*
X-194099Y190965D01*
X-192445Y190280D01*
X-190655D01*
X-189001Y190965D01*
X-187735Y192231D01*
X-187050Y193885D01*
Y195675D01*
X-187735Y197329D01*
X-189001Y198595D01*
X-190655Y199280D01*
X-192445D01*
X-194099Y198595D01*
X-194865Y197829D01*
X-195877Y197586D01*
X-196470Y197884D01*
X-197381Y198795D01*
X-199035Y199480D01*
D02*
G37*
G36*
X-236635Y177460D02*
X-238425D01*
X-240079Y176775D01*
X-241090Y175764D01*
X-241590Y175539D01*
X-242654Y175668D01*
X-243501Y176515D01*
X-245155Y177200D01*
X-246945D01*
X-248599Y176515D01*
X-249865Y175249D01*
X-250550Y173595D01*
Y171805D01*
X-249865Y170151D01*
X-248599Y168885D01*
X-246945Y168200D01*
X-245155D01*
X-243501Y168885D01*
X-242490Y169896D01*
X-241990Y170121D01*
X-240926Y169992D01*
X-240079Y169145D01*
X-238425Y168460D01*
X-236635D01*
X-234981Y169145D01*
X-233715Y170411D01*
X-233030Y172065D01*
Y173855D01*
X-233715Y175509D01*
X-234981Y176775D01*
X-236635Y177460D01*
D02*
G37*
G36*
X-354415Y177820D02*
X-356205D01*
X-357859Y177135D01*
X-359125Y175869D01*
X-359810Y174215D01*
Y172425D01*
X-359125Y170771D01*
X-357859Y169505D01*
X-356205Y168820D01*
X-354415D01*
X-352761Y169505D01*
X-351634Y170632D01*
X-350836Y170649D01*
X-350219Y170534D01*
X-350205Y170501D01*
X-348939Y169235D01*
X-347285Y168550D01*
X-345495D01*
X-343841Y169235D01*
X-342575Y170501D01*
X-341890Y172155D01*
Y173945D01*
X-342575Y175599D01*
X-343841Y176865D01*
X-345495Y177550D01*
X-347285D01*
X-348939Y176865D01*
X-350066Y175738D01*
X-350864Y175721D01*
X-351481Y175836D01*
X-351495Y175869D01*
X-352761Y177135D01*
X-354415Y177820D01*
D02*
G37*
G36*
X-236635Y165000D02*
X-238425D01*
X-240079Y164315D01*
X-241090Y163304D01*
X-241590Y163079D01*
X-242654Y163208D01*
X-243501Y164055D01*
X-245155Y164740D01*
X-246945D01*
X-248599Y164055D01*
X-249865Y162789D01*
X-250550Y161135D01*
Y159345D01*
X-249865Y157691D01*
X-248599Y156425D01*
X-246945Y155740D01*
X-245155D01*
X-243501Y156425D01*
X-242490Y157436D01*
X-241990Y157661D01*
X-240926Y157532D01*
X-240079Y156685D01*
X-238425Y156000D01*
X-236635D01*
X-234981Y156685D01*
X-233715Y157951D01*
X-233030Y159605D01*
Y161395D01*
X-233715Y163049D01*
X-234981Y164315D01*
X-236635Y165000D01*
D02*
G37*
G36*
X-354415Y164810D02*
X-356205D01*
X-357859Y164125D01*
X-359125Y162859D01*
X-359810Y161205D01*
Y159415D01*
X-359125Y157761D01*
X-357859Y156495D01*
X-356205Y155810D01*
X-354415D01*
X-352761Y156495D01*
X-351634Y157622D01*
X-350836Y157639D01*
X-350219Y157524D01*
X-350205Y157491D01*
X-348939Y156225D01*
X-347285Y155540D01*
X-345495D01*
X-343841Y156225D01*
X-342575Y157491D01*
X-341890Y159145D01*
Y160935D01*
X-342575Y162589D01*
X-343841Y163855D01*
X-345495Y164540D01*
X-347285D01*
X-348939Y163855D01*
X-350066Y162728D01*
X-350864Y162711D01*
X-351481Y162826D01*
X-351495Y162859D01*
X-352761Y164125D01*
X-354415Y164810D01*
D02*
G37*
G36*
X-236635Y152600D02*
X-238425D01*
X-240079Y151915D01*
X-241090Y150904D01*
X-241590Y150679D01*
X-242654Y150808D01*
X-243501Y151655D01*
X-245155Y152340D01*
X-246945D01*
X-248599Y151655D01*
X-249865Y150389D01*
X-250550Y148735D01*
Y146945D01*
X-249865Y145291D01*
X-248599Y144025D01*
X-246945Y143340D01*
X-245155D01*
X-243501Y144025D01*
X-242490Y145036D01*
X-241990Y145261D01*
X-240926Y145132D01*
X-240079Y144285D01*
X-238425Y143600D01*
X-236635D01*
X-234981Y144285D01*
X-233715Y145551D01*
X-233030Y147205D01*
Y148995D01*
X-233715Y150649D01*
X-234981Y151915D01*
X-236635Y152600D01*
D02*
G37*
G36*
X-354415Y152550D02*
X-356205D01*
X-357859Y151865D01*
X-359125Y150599D01*
X-359810Y148945D01*
Y147155D01*
X-359125Y145501D01*
X-357859Y144235D01*
X-356205Y143550D01*
X-354415D01*
X-352761Y144235D01*
X-351634Y145362D01*
X-350836Y145379D01*
X-350219Y145264D01*
X-350205Y145231D01*
X-348939Y143965D01*
X-347285Y143280D01*
X-345495D01*
X-343841Y143965D01*
X-342575Y145231D01*
X-341890Y146885D01*
Y148675D01*
X-342575Y150329D01*
X-343841Y151595D01*
X-345495Y152280D01*
X-347285D01*
X-348939Y151595D01*
X-350066Y150468D01*
X-350864Y150451D01*
X-351481Y150566D01*
X-351495Y150599D01*
X-352761Y151865D01*
X-354415Y152550D01*
D02*
G37*
G36*
X-236635Y120720D02*
X-238425D01*
X-240079Y120035D01*
X-241090Y119024D01*
X-241590Y118799D01*
X-242654Y118928D01*
X-243501Y119775D01*
X-245155Y120460D01*
X-246945D01*
X-248599Y119775D01*
X-249865Y118509D01*
X-250550Y116855D01*
Y115065D01*
X-249865Y113411D01*
X-248599Y112145D01*
X-246945Y111460D01*
X-245155D01*
X-243501Y112145D01*
X-242490Y113156D01*
X-241990Y113381D01*
X-240926Y113252D01*
X-240079Y112405D01*
X-238425Y111720D01*
X-236635D01*
X-234981Y112405D01*
X-233715Y113671D01*
X-233030Y115325D01*
Y117115D01*
X-233715Y118769D01*
X-234981Y120035D01*
X-236635Y120720D01*
D02*
G37*
G36*
X-354415Y120280D02*
X-356205D01*
X-357859Y119595D01*
X-359125Y118329D01*
X-359810Y116675D01*
Y114885D01*
X-359125Y113231D01*
X-357859Y111965D01*
X-356205Y111280D01*
X-354415D01*
X-352761Y111965D01*
X-351634Y113092D01*
X-350836Y113109D01*
X-350219Y112994D01*
X-350205Y112961D01*
X-348939Y111695D01*
X-347285Y111010D01*
X-345495D01*
X-343841Y111695D01*
X-342575Y112961D01*
X-341890Y114615D01*
Y116405D01*
X-342575Y118059D01*
X-343841Y119325D01*
X-345495Y120010D01*
X-347285D01*
X-348939Y119325D01*
X-350066Y118198D01*
X-350864Y118181D01*
X-351481Y118296D01*
X-351495Y118329D01*
X-352761Y119595D01*
X-354415Y120280D01*
D02*
G37*
G36*
X-236635Y108530D02*
X-238425D01*
X-240079Y107845D01*
X-241090Y106834D01*
X-241590Y106609D01*
X-242654Y106738D01*
X-243501Y107585D01*
X-245155Y108270D01*
X-246945D01*
X-248599Y107585D01*
X-249865Y106319D01*
X-250550Y104665D01*
Y102875D01*
X-249865Y101221D01*
X-248599Y99955D01*
X-246945Y99270D01*
X-245155D01*
X-243501Y99955D01*
X-242490Y100966D01*
X-241990Y101191D01*
X-240926Y101062D01*
X-240079Y100215D01*
X-238425Y99530D01*
X-236635D01*
X-234981Y100215D01*
X-233715Y101481D01*
X-233030Y103135D01*
Y104925D01*
X-233715Y106579D01*
X-234981Y107845D01*
X-236635Y108530D01*
D02*
G37*
G36*
X-354415Y106950D02*
X-356205D01*
X-357859Y106265D01*
X-359125Y104999D01*
X-359810Y103345D01*
Y101555D01*
X-359125Y99901D01*
X-357859Y98635D01*
X-356205Y97950D01*
X-354415D01*
X-352761Y98635D01*
X-351634Y99762D01*
X-350836Y99779D01*
X-350219Y99664D01*
X-350205Y99631D01*
X-348939Y98365D01*
X-347285Y97680D01*
X-345495D01*
X-343841Y98365D01*
X-342575Y99631D01*
X-341890Y101285D01*
Y103075D01*
X-342575Y104729D01*
X-343841Y105995D01*
X-345495Y106680D01*
X-347285D01*
X-348939Y105995D01*
X-350066Y104868D01*
X-350864Y104851D01*
X-351481Y104966D01*
X-351495Y104999D01*
X-352761Y106265D01*
X-354415Y106950D01*
D02*
G37*
G36*
X-236635Y94650D02*
X-238425D01*
X-240079Y93965D01*
X-241090Y92954D01*
X-241590Y92729D01*
X-242654Y92858D01*
X-243501Y93705D01*
X-245155Y94390D01*
X-246945D01*
X-248599Y93705D01*
X-249865Y92439D01*
X-250550Y90785D01*
Y88995D01*
X-249865Y87341D01*
X-248599Y86075D01*
X-246945Y85390D01*
X-245155D01*
X-243501Y86075D01*
X-242490Y87086D01*
X-241990Y87311D01*
X-240926Y87182D01*
X-240079Y86335D01*
X-238425Y85650D01*
X-236635D01*
X-234981Y86335D01*
X-233715Y87601D01*
X-233030Y89255D01*
Y91045D01*
X-233715Y92699D01*
X-234981Y93965D01*
X-236635Y94650D01*
D02*
G37*
G36*
X-354415Y93810D02*
X-356205D01*
X-357859Y93125D01*
X-359125Y91859D01*
X-359810Y90205D01*
Y88415D01*
X-359125Y86761D01*
X-357859Y85495D01*
X-356205Y84810D01*
X-354415D01*
X-352761Y85495D01*
X-351634Y86622D01*
X-350836Y86639D01*
X-350219Y86524D01*
X-350205Y86491D01*
X-348939Y85225D01*
X-347285Y84540D01*
X-345495D01*
X-343841Y85225D01*
X-342575Y86491D01*
X-341890Y88145D01*
Y89935D01*
X-342575Y91589D01*
X-343841Y92855D01*
X-345495Y93540D01*
X-347285D01*
X-348939Y92855D01*
X-350066Y91728D01*
X-350864Y91711D01*
X-351481Y91826D01*
X-351495Y91859D01*
X-352761Y93125D01*
X-354415Y93810D01*
D02*
G37*
G36*
X-236635Y63380D02*
X-238425D01*
X-240079Y62695D01*
X-241090Y61684D01*
X-241590Y61459D01*
X-242654Y61588D01*
X-243501Y62435D01*
X-245155Y63120D01*
X-246945D01*
X-248599Y62435D01*
X-249865Y61169D01*
X-250550Y59515D01*
Y57725D01*
X-249865Y56071D01*
X-248599Y54805D01*
X-246945Y54120D01*
X-245155D01*
X-243501Y54805D01*
X-242490Y55816D01*
X-241990Y56041D01*
X-240926Y55912D01*
X-240079Y55065D01*
X-238425Y54380D01*
X-236635D01*
X-234981Y55065D01*
X-233715Y56331D01*
X-233030Y57985D01*
Y59775D01*
X-233715Y61429D01*
X-234981Y62695D01*
X-236635Y63380D01*
D02*
G37*
G36*
X-354415Y64540D02*
X-356205D01*
X-357859Y63855D01*
X-359125Y62589D01*
X-359810Y60935D01*
Y59145D01*
X-359125Y57491D01*
X-357859Y56225D01*
X-356205Y55540D01*
X-354415D01*
X-352761Y56225D01*
X-351634Y57352D01*
X-350836Y57369D01*
X-350219Y57254D01*
X-350205Y57221D01*
X-348939Y55955D01*
X-347285Y55270D01*
X-345495D01*
X-343841Y55955D01*
X-342575Y57221D01*
X-341890Y58875D01*
Y60665D01*
X-342575Y62319D01*
X-343841Y63585D01*
X-345495Y64270D01*
X-347285D01*
X-348939Y63585D01*
X-350066Y62458D01*
X-350864Y62441D01*
X-351481Y62556D01*
X-351495Y62589D01*
X-352761Y63855D01*
X-354415Y64540D01*
D02*
G37*
G36*
X-236635Y50360D02*
X-238425D01*
X-240079Y49675D01*
X-241090Y48664D01*
X-241590Y48439D01*
X-242654Y48568D01*
X-243501Y49415D01*
X-245155Y50100D01*
X-246945D01*
X-248599Y49415D01*
X-249865Y48149D01*
X-250550Y46495D01*
Y44705D01*
X-249865Y43051D01*
X-248599Y41785D01*
X-246945Y41100D01*
X-245155D01*
X-243501Y41785D01*
X-242490Y42796D01*
X-241990Y43021D01*
X-240926Y42892D01*
X-240079Y42045D01*
X-238425Y41360D01*
X-236635D01*
X-234981Y42045D01*
X-233715Y43311D01*
X-233030Y44965D01*
Y46755D01*
X-233715Y48409D01*
X-234981Y49675D01*
X-236635Y50360D01*
D02*
G37*
G36*
X-354415Y51400D02*
X-356205D01*
X-357859Y50715D01*
X-359125Y49449D01*
X-359810Y47795D01*
Y46005D01*
X-359125Y44351D01*
X-357859Y43085D01*
X-356205Y42400D01*
X-354415D01*
X-352761Y43085D01*
X-351634Y44212D01*
X-350836Y44229D01*
X-350219Y44114D01*
X-350205Y44081D01*
X-348939Y42815D01*
X-347285Y42130D01*
X-345495D01*
X-343841Y42815D01*
X-342575Y44081D01*
X-341890Y45735D01*
Y47525D01*
X-342575Y49179D01*
X-343841Y50445D01*
X-345495Y51130D01*
X-347285D01*
X-348939Y50445D01*
X-350066Y49318D01*
X-350864Y49301D01*
X-351481Y49416D01*
X-351495Y49449D01*
X-352761Y50715D01*
X-354415Y51400D01*
D02*
G37*
G36*
X-236635Y36510D02*
X-238425D01*
X-240079Y35825D01*
X-241090Y34814D01*
X-241590Y34589D01*
X-242654Y34718D01*
X-243501Y35565D01*
X-245155Y36250D01*
X-246945D01*
X-248599Y35565D01*
X-249865Y34299D01*
X-250550Y32645D01*
Y30855D01*
X-249865Y29201D01*
X-248599Y27935D01*
X-246945Y27250D01*
X-245155D01*
X-243501Y27935D01*
X-242490Y28946D01*
X-241990Y29171D01*
X-240926Y29042D01*
X-240079Y28195D01*
X-238425Y27510D01*
X-236635D01*
X-234981Y28195D01*
X-233715Y29461D01*
X-233030Y31115D01*
Y32905D01*
X-233715Y34559D01*
X-234981Y35825D01*
X-236635Y36510D01*
D02*
G37*
G36*
X-354415Y36870D02*
X-356205D01*
X-357859Y36185D01*
X-359125Y34919D01*
X-359810Y33265D01*
Y31475D01*
X-359125Y29821D01*
X-357859Y28555D01*
X-356205Y27870D01*
X-354415D01*
X-352761Y28555D01*
X-351634Y29682D01*
X-350836Y29699D01*
X-350219Y29584D01*
X-350205Y29551D01*
X-348939Y28285D01*
X-347285Y27600D01*
X-345495D01*
X-343841Y28285D01*
X-342575Y29551D01*
X-341890Y31205D01*
Y32995D01*
X-342575Y34649D01*
X-343841Y35915D01*
X-345495Y36600D01*
X-347285D01*
X-348939Y35915D01*
X-350066Y34788D01*
X-350864Y34771D01*
X-351481Y34886D01*
X-351495Y34919D01*
X-352761Y36185D01*
X-354415Y36870D01*
D02*
G37*
G36*
X-390615Y357770D02*
X-392405D01*
X-394059Y357085D01*
X-394305Y356839D01*
X-425740D01*
X-427106Y356567D01*
X-428263Y355793D01*
X-448527Y335530D01*
X-448875D01*
X-450529Y334845D01*
X-451795Y333579D01*
X-452480Y331925D01*
Y330135D01*
X-451795Y328481D01*
X-450529Y327215D01*
X-448875Y326530D01*
X-447085D01*
X-445431Y327215D01*
X-444165Y328481D01*
X-443480Y330135D01*
Y330483D01*
X-424262Y349701D01*
X-394305D01*
X-394059Y349455D01*
X-392405Y348770D01*
X-390615D01*
X-388961Y349455D01*
X-387695Y350721D01*
X-387010Y352375D01*
Y354165D01*
X-387695Y355819D01*
X-388961Y357085D01*
X-390615Y357770D01*
D02*
G37*
G36*
X313395Y278280D02*
X311605D01*
X309951Y277595D01*
X308685Y276329D01*
X308000Y274675D01*
Y272885D01*
X308685Y271231D01*
X309951Y269965D01*
X311605Y269280D01*
X313395D01*
X315049Y269965D01*
X316315Y271231D01*
X317000Y272885D01*
Y274675D01*
X316315Y276329D01*
X315049Y277595D01*
X313395Y278280D01*
D02*
G37*
G36*
X165085Y158900D02*
X163295D01*
X161641Y158215D01*
X160375Y156949D01*
X159690Y155295D01*
Y153996D01*
X128253Y122559D01*
X-96120D01*
X-97290Y122326D01*
X-98283Y121663D01*
X-98283Y121663D01*
X-121833Y98113D01*
X-122496Y97121D01*
X-122729Y95950D01*
X-122729Y95950D01*
Y-7190D01*
X-122729Y-7190D01*
X-122496Y-8360D01*
X-121833Y-9353D01*
X-93839Y-37347D01*
Y-144554D01*
X-93930D01*
X-94652Y-144697D01*
X-95264Y-145106D01*
X-95673Y-145718D01*
X-95816Y-146440D01*
Y-154740D01*
X-95673Y-155462D01*
X-95264Y-156074D01*
X-94652Y-156483D01*
X-93930Y-156626D01*
X-87630D01*
X-86908Y-156483D01*
X-86296Y-156074D01*
X-85887Y-155462D01*
X-85744Y-154740D01*
Y-146440D01*
X-85887Y-145718D01*
X-86296Y-145106D01*
X-86908Y-144697D01*
X-87630Y-144554D01*
X-87721D01*
Y-114850D01*
X-86451Y-114324D01*
X-73313Y-127463D01*
X-72403Y-128070D01*
X-71330Y-128284D01*
X-58850D01*
X-57839Y-129295D01*
X-56185Y-129980D01*
X-54395D01*
X-52741Y-129295D01*
X-51475Y-128029D01*
X-50790Y-126375D01*
Y-125112D01*
X-49770Y-124271D01*
X-49617Y-124223D01*
X-49335Y-124340D01*
X-47545D01*
X-45891Y-123655D01*
X-44625Y-122389D01*
X-43940Y-120735D01*
Y-118945D01*
X-44625Y-117291D01*
X-45891Y-116025D01*
X-47545Y-115340D01*
X-49335D01*
X-50989Y-116025D01*
X-51890Y-116926D01*
X-65079D01*
X-77866Y-104139D01*
Y-4050D01*
X-78080Y-2977D01*
X-78687Y-2067D01*
X-101976Y21221D01*
Y29152D01*
X-102190Y30225D01*
X-102797Y31134D01*
X-106030Y34367D01*
Y35797D01*
X-106715Y37451D01*
X-107981Y38717D01*
X-109635Y39402D01*
X-111425D01*
X-113079Y38717D01*
X-114345Y37451D01*
X-115030Y35797D01*
Y34007D01*
X-114345Y32353D01*
X-113658Y31665D01*
X-113214Y30836D01*
X-113658Y30006D01*
X-114345Y29319D01*
X-115030Y27665D01*
Y25875D01*
X-114345Y24221D01*
X-113334Y23210D01*
Y17580D01*
X-113120Y16507D01*
X-112513Y15597D01*
X-88114Y-8801D01*
Y-32624D01*
X-89384Y-33150D01*
X-116611Y-5923D01*
Y94683D01*
X-94853Y116441D01*
X129520D01*
X129520Y116441D01*
X130690Y116674D01*
X131683Y117337D01*
X164246Y149900D01*
X165085D01*
X166739Y150585D01*
X168005Y151851D01*
X168690Y153505D01*
Y155295D01*
X168005Y156949D01*
X166739Y158215D01*
X165085Y158900D01*
D02*
G37*
G36*
X-34295Y96440D02*
X-36664D01*
X-38953Y95827D01*
X-41006Y94642D01*
X-42681Y92966D01*
X-43866Y90914D01*
X-44480Y88625D01*
Y86255D01*
X-43866Y83966D01*
X-42681Y81914D01*
X-41006Y80238D01*
X-38953Y79053D01*
X-36664Y78440D01*
X-34295D01*
X-32006Y79053D01*
X-29953Y80238D01*
X-28278Y81914D01*
X-27093Y83966D01*
X-26480Y86255D01*
Y88625D01*
X-27093Y90914D01*
X-28278Y92966D01*
X-29953Y94642D01*
X-32006Y95827D01*
X-34295Y96440D01*
D02*
G37*
G36*
X-54295D02*
X-56664D01*
X-58953Y95827D01*
X-61006Y94642D01*
X-62681Y92966D01*
X-63866Y90914D01*
X-64479Y88625D01*
Y86255D01*
X-63866Y83966D01*
X-62681Y81914D01*
X-61006Y80238D01*
X-58953Y79053D01*
X-56664Y78440D01*
X-54295D01*
X-52006Y79053D01*
X-49953Y80238D01*
X-48278Y81914D01*
X-47093Y83966D01*
X-46480Y86255D01*
Y88625D01*
X-47093Y90914D01*
X-48278Y92966D01*
X-49953Y94642D01*
X-52006Y95827D01*
X-54295Y96440D01*
D02*
G37*
G36*
X-74295D02*
X-76664D01*
X-78953Y95827D01*
X-81006Y94642D01*
X-82681Y92966D01*
X-83866Y90914D01*
X-84480Y88625D01*
Y86255D01*
X-83866Y83966D01*
X-82681Y81914D01*
X-81006Y80238D01*
X-78953Y79053D01*
X-76664Y78440D01*
X-74295D01*
X-72006Y79053D01*
X-69953Y80238D01*
X-68278Y81914D01*
X-67093Y83966D01*
X-66480Y86255D01*
Y88625D01*
X-67093Y90914D01*
X-68278Y92966D01*
X-69953Y94642D01*
X-72006Y95827D01*
X-74295Y96440D01*
D02*
G37*
G36*
X-161095Y19220D02*
X-164905D01*
X-167783Y18841D01*
X-170465Y17730D01*
X-172768Y15963D01*
X-174535Y13660D01*
X-175646Y10978D01*
X-176025Y8100D01*
X-175646Y5222D01*
X-174535Y2540D01*
X-172768Y237D01*
X-170465Y-1530D01*
X-167783Y-2641D01*
X-164905Y-3020D01*
X-161095D01*
X-158217Y-2641D01*
X-155535Y-1530D01*
X-153232Y237D01*
X-151465Y2540D01*
X-150354Y5222D01*
X-149975Y8100D01*
X-150354Y10978D01*
X-151465Y13660D01*
X-153232Y15963D01*
X-155535Y17730D01*
X-158217Y18841D01*
X-161095Y19220D01*
D02*
G37*
G36*
X-54380Y-15144D02*
X-56530D01*
X-57447Y-15326D01*
X-58224Y-15846D01*
X-58744Y-16623D01*
X-58926Y-17540D01*
Y-18690D01*
X-54380D01*
Y-15144D01*
D02*
G37*
G36*
X-65670Y-15274D02*
X-67820D01*
Y-18820D01*
X-63274D01*
Y-17670D01*
X-63456Y-16753D01*
X-63976Y-15976D01*
X-64753Y-15456D01*
X-65670Y-15274D01*
D02*
G37*
G36*
X-71820D02*
X-73970D01*
X-74887Y-15456D01*
X-75664Y-15976D01*
X-76184Y-16753D01*
X-76366Y-17670D01*
Y-18820D01*
X-71820D01*
Y-15274D01*
D02*
G37*
G36*
X-45834Y-22690D02*
X-50380D01*
Y-26236D01*
X-48230D01*
X-47313Y-26054D01*
X-46536Y-25534D01*
X-46016Y-24757D01*
X-45834Y-23840D01*
Y-22690D01*
D02*
G37*
G36*
X-54380D02*
X-58926D01*
Y-23840D01*
X-58744Y-24757D01*
X-58224Y-25534D01*
X-57447Y-26054D01*
X-56530Y-26236D01*
X-54380D01*
Y-22690D01*
D02*
G37*
G36*
X-63274Y-22820D02*
X-67820D01*
Y-26366D01*
X-65670D01*
X-64753Y-26184D01*
X-63976Y-25664D01*
X-63456Y-24887D01*
X-63274Y-23970D01*
Y-22820D01*
D02*
G37*
G36*
X-71820D02*
X-76366D01*
Y-23970D01*
X-76184Y-24887D01*
X-75664Y-25664D01*
X-74887Y-26184D01*
X-73970Y-26366D01*
X-71820D01*
Y-22820D01*
D02*
G37*
G36*
X-65670Y-31784D02*
X-73970D01*
X-74692Y-31927D01*
X-75304Y-32336D01*
X-75713Y-32948D01*
X-75856Y-33670D01*
Y-39970D01*
X-75713Y-40692D01*
X-75304Y-41304D01*
X-74692Y-41713D01*
X-73970Y-41856D01*
X-73095D01*
Y-44070D01*
X-72882Y-45143D01*
X-72274Y-46053D01*
X-68944Y-49383D01*
X-68034Y-49991D01*
X-67251Y-50147D01*
X-67055Y-50619D01*
X-65789Y-51885D01*
X-64135Y-52570D01*
X-62345D01*
X-60691Y-51885D01*
X-59425Y-50619D01*
X-58740Y-48965D01*
Y-47175D01*
X-59425Y-45521D01*
X-60691Y-44255D01*
X-62345Y-43570D01*
X-64135D01*
X-65789Y-44255D01*
X-65965Y-44431D01*
X-67270Y-43126D01*
X-66962Y-41856D01*
X-65670D01*
X-64948Y-41713D01*
X-64336Y-41304D01*
X-63927Y-40692D01*
X-63784Y-39970D01*
Y-33670D01*
X-63927Y-32948D01*
X-64336Y-32336D01*
X-64948Y-31927D01*
X-65670Y-31784D01*
D02*
G37*
G36*
X-48230Y-31654D02*
X-56530D01*
X-57252Y-31797D01*
X-57864Y-32206D01*
X-58273Y-32818D01*
X-58416Y-33540D01*
Y-39840D01*
X-58273Y-40562D01*
X-57864Y-41174D01*
X-57252Y-41583D01*
X-56530Y-41726D01*
X-55184D01*
Y-45000D01*
X-54970Y-46073D01*
X-54363Y-46983D01*
X-50853Y-50493D01*
X-49943Y-51101D01*
X-48870Y-51314D01*
X-47125D01*
X-46114Y-52325D01*
X-44460Y-53010D01*
X-42670D01*
X-41016Y-52325D01*
X-39750Y-51059D01*
X-39065Y-49405D01*
Y-47615D01*
X-39750Y-45961D01*
X-41016Y-44695D01*
X-42670Y-44010D01*
X-44460D01*
X-46114Y-44695D01*
X-47125Y-45706D01*
X-47709D01*
X-49576Y-43839D01*
Y-41726D01*
X-48230D01*
X-47508Y-41583D01*
X-46896Y-41174D01*
X-46487Y-40562D01*
X-46344Y-39840D01*
Y-33540D01*
X-46487Y-32818D01*
X-46896Y-32206D01*
X-47508Y-31797D01*
X-48230Y-31654D01*
D02*
G37*
G36*
X-150070Y-31675D02*
X-175930D01*
Y-53725D01*
X-150070D01*
Y-31675D01*
D02*
G37*
G36*
X-113955Y-37170D02*
X-115745D01*
X-117399Y-37855D01*
X-118665Y-39121D01*
X-119350Y-40775D01*
Y-42565D01*
X-118665Y-44219D01*
X-117654Y-45230D01*
Y-56081D01*
X-118924Y-56766D01*
X-120074Y-56289D01*
X-121864D01*
X-123518Y-56974D01*
X-124784Y-58240D01*
X-125469Y-59894D01*
Y-61684D01*
X-124784Y-63338D01*
X-123773Y-64349D01*
Y-193661D01*
X-123560Y-194734D01*
X-122952Y-195644D01*
X-116953Y-201643D01*
X-116043Y-202250D01*
X-114970Y-202464D01*
X-109380D01*
X-108369Y-203475D01*
X-106715Y-204160D01*
X-104925D01*
X-103271Y-203475D01*
X-102005Y-202209D01*
X-101320Y-200555D01*
Y-198765D01*
X-102005Y-197111D01*
X-103271Y-195845D01*
X-104925Y-195160D01*
X-106715D01*
X-108369Y-195845D01*
X-109380Y-196856D01*
X-113809D01*
X-118165Y-192500D01*
Y-171874D01*
X-116895Y-171489D01*
X-116833Y-171583D01*
X-113703Y-174713D01*
X-112793Y-175320D01*
X-111720Y-175534D01*
X-109380D01*
X-108369Y-176545D01*
X-106715Y-177230D01*
X-104925D01*
X-103271Y-176545D01*
X-102005Y-175279D01*
X-101320Y-173625D01*
Y-171835D01*
X-102005Y-170181D01*
X-103271Y-168915D01*
X-104925Y-168230D01*
X-106715D01*
X-108369Y-168915D01*
X-109380Y-169926D01*
X-110559D01*
X-112046Y-168439D01*
Y-45230D01*
X-111035Y-44219D01*
X-110350Y-42565D01*
Y-40775D01*
X-111035Y-39121D01*
X-112301Y-37855D01*
X-113955Y-37170D01*
D02*
G37*
G36*
X-19305Y-62262D02*
X-21455D01*
X-22372Y-62444D01*
X-23149Y-62964D01*
X-23669Y-63741D01*
X-23851Y-64658D01*
Y-65808D01*
X-19305D01*
Y-62262D01*
D02*
G37*
G36*
Y-69808D02*
X-23851D01*
Y-70958D01*
X-23669Y-71875D01*
X-23149Y-72652D01*
X-22372Y-73172D01*
X-21455Y-73354D01*
X-19305D01*
Y-69808D01*
D02*
G37*
G36*
X-104865Y-82310D02*
X-106655D01*
X-108309Y-82995D01*
X-109575Y-84261D01*
X-110260Y-85915D01*
Y-87705D01*
X-109575Y-89359D01*
X-108309Y-90625D01*
X-106655Y-91310D01*
X-104865D01*
X-103211Y-90625D01*
X-101945Y-89359D01*
X-101260Y-87705D01*
Y-85915D01*
X-101945Y-84261D01*
X-103211Y-82995D01*
X-104865Y-82310D01*
D02*
G37*
G36*
X-161095Y-89780D02*
X-164905D01*
X-167783Y-90159D01*
X-170465Y-91270D01*
X-172768Y-93037D01*
X-174535Y-95340D01*
X-175646Y-98022D01*
X-176025Y-100900D01*
X-175646Y-103778D01*
X-174535Y-106460D01*
X-172768Y-108763D01*
X-170465Y-110530D01*
X-167783Y-111641D01*
X-164905Y-112020D01*
X-161095D01*
X-158217Y-111641D01*
X-155535Y-110530D01*
X-153232Y-108763D01*
X-151465Y-106460D01*
X-150354Y-103778D01*
X-149975Y-100900D01*
X-150354Y-98022D01*
X-151465Y-95340D01*
X-153232Y-93037D01*
X-155535Y-91270D01*
X-158217Y-90159D01*
X-161095Y-89780D01*
D02*
G37*
G36*
X-104865Y-114872D02*
X-106655D01*
X-108309Y-115557D01*
X-109575Y-116823D01*
X-110260Y-118477D01*
Y-120267D01*
X-109575Y-121921D01*
X-108309Y-123187D01*
X-106655Y-123872D01*
X-104865D01*
X-103211Y-123187D01*
X-101945Y-121921D01*
X-101260Y-120267D01*
Y-118477D01*
X-101945Y-116823D01*
X-103211Y-115557D01*
X-104865Y-114872D01*
D02*
G37*
G36*
X-161095Y-115180D02*
X-164905D01*
X-167783Y-115559D01*
X-170465Y-116670D01*
X-172768Y-118437D01*
X-174535Y-120740D01*
X-175646Y-123422D01*
X-176025Y-126300D01*
X-175646Y-129178D01*
X-174535Y-131860D01*
X-172768Y-134163D01*
X-170465Y-135930D01*
X-167783Y-137041D01*
X-164905Y-137420D01*
X-161095D01*
X-158217Y-137041D01*
X-155535Y-135930D01*
X-153232Y-134163D01*
X-151465Y-131860D01*
X-150354Y-129178D01*
X-149975Y-126300D01*
X-150354Y-123422D01*
X-151465Y-120740D01*
X-153232Y-118437D01*
X-155535Y-116670D01*
X-158217Y-115559D01*
X-161095Y-115180D01*
D02*
G37*
G36*
X-30849Y-142872D02*
X-31999D01*
Y-147418D01*
X-28453D01*
Y-145268D01*
X-28635Y-144351D01*
X-29155Y-143574D01*
X-29932Y-143054D01*
X-30849Y-142872D01*
D02*
G37*
G36*
X-35999D02*
X-37149D01*
X-38066Y-143054D01*
X-38843Y-143574D01*
X-39363Y-144351D01*
X-39545Y-145268D01*
Y-147418D01*
X-35999D01*
Y-142872D01*
D02*
G37*
G36*
X-104865Y-142630D02*
X-106655D01*
X-108309Y-143315D01*
X-109575Y-144581D01*
X-110260Y-146235D01*
Y-148025D01*
X-109575Y-149679D01*
X-108309Y-150945D01*
X-106655Y-151630D01*
X-104865D01*
X-103211Y-150945D01*
X-101945Y-149679D01*
X-101260Y-148025D01*
Y-146235D01*
X-101945Y-144581D01*
X-103211Y-143315D01*
X-104865Y-142630D01*
D02*
G37*
G36*
X-28453Y-151418D02*
X-31999D01*
Y-155964D01*
X-30849D01*
X-29932Y-155782D01*
X-29155Y-155262D01*
X-28635Y-154485D01*
X-28453Y-153568D01*
Y-151418D01*
D02*
G37*
G36*
X-35999D02*
X-39545D01*
Y-153568D01*
X-39363Y-154485D01*
X-38843Y-155262D01*
X-38066Y-155782D01*
X-37149Y-155964D01*
X-35999D01*
Y-151418D01*
D02*
G37*
G36*
X-161095Y-140580D02*
X-164905D01*
X-167783Y-140959D01*
X-170465Y-142070D01*
X-172768Y-143837D01*
X-174535Y-146140D01*
X-175646Y-148822D01*
X-176025Y-151700D01*
X-175646Y-154578D01*
X-174535Y-157260D01*
X-172768Y-159563D01*
X-170465Y-161330D01*
X-167783Y-162441D01*
X-164905Y-162820D01*
X-161095D01*
X-158217Y-162441D01*
X-155535Y-161330D01*
X-153232Y-159563D01*
X-151465Y-157260D01*
X-150354Y-154578D01*
X-149975Y-151700D01*
X-150354Y-148822D01*
X-151465Y-146140D01*
X-153232Y-143837D01*
X-155535Y-142070D01*
X-158217Y-140959D01*
X-161095Y-140580D01*
D02*
G37*
G36*
X-87719Y-160564D02*
X-88869D01*
Y-165110D01*
X-85323D01*
Y-162960D01*
X-85506Y-162043D01*
X-86025Y-161266D01*
X-86802Y-160746D01*
X-87719Y-160564D01*
D02*
G37*
G36*
X-92869D02*
X-94019D01*
X-94936Y-160746D01*
X-95713Y-161266D01*
X-96233Y-162043D01*
X-96415Y-162960D01*
Y-165110D01*
X-92869D01*
Y-160564D01*
D02*
G37*
G36*
X-85323Y-169110D02*
X-88869D01*
Y-173656D01*
X-87719D01*
X-86802Y-173474D01*
X-86025Y-172954D01*
X-85506Y-172177D01*
X-85323Y-171260D01*
Y-169110D01*
D02*
G37*
G36*
X-92869D02*
X-96415D01*
Y-171260D01*
X-96233Y-172177D01*
X-95713Y-172954D01*
X-94936Y-173474D01*
X-94019Y-173656D01*
X-92869D01*
Y-169110D01*
D02*
G37*
G36*
X-71630Y-144554D02*
X-77930D01*
X-78652Y-144697D01*
X-79264Y-145106D01*
X-79673Y-145718D01*
X-79816Y-146440D01*
Y-154740D01*
X-79673Y-155462D01*
X-79264Y-156074D01*
X-78652Y-156483D01*
X-77930Y-156626D01*
X-77628D01*
Y-161074D01*
X-78019D01*
X-78741Y-161217D01*
X-79353Y-161626D01*
X-79762Y-162238D01*
X-79905Y-162960D01*
Y-171260D01*
X-79762Y-171982D01*
X-79353Y-172594D01*
X-78741Y-173003D01*
X-78019Y-173146D01*
X-71719D01*
X-70997Y-173003D01*
X-70385Y-172594D01*
X-69977Y-171982D01*
X-69833Y-171260D01*
Y-169914D01*
X-33110D01*
X-32037Y-169700D01*
X-31273Y-169190D01*
X-30759Y-169368D01*
X-30191Y-169793D01*
X-30137Y-171063D01*
X-39790Y-180716D01*
X-69523D01*
Y-179370D01*
X-69667Y-178648D01*
X-70075Y-178036D01*
X-70687Y-177627D01*
X-71409Y-177484D01*
X-77709D01*
X-78431Y-177627D01*
X-79043Y-178036D01*
X-79452Y-178648D01*
X-79595Y-179370D01*
Y-187670D01*
X-79452Y-188392D01*
X-79043Y-189004D01*
X-78431Y-189413D01*
X-77709Y-189556D01*
X-77338D01*
Y-193894D01*
X-77660D01*
X-78382Y-194037D01*
X-78994Y-194446D01*
X-79403Y-195058D01*
X-79546Y-195780D01*
Y-204080D01*
X-79403Y-204802D01*
X-78994Y-205414D01*
X-78382Y-205823D01*
X-77660Y-205966D01*
X-71360D01*
X-70638Y-205823D01*
X-70026Y-205414D01*
X-69617Y-204802D01*
X-69474Y-204080D01*
Y-195780D01*
X-69617Y-195058D01*
X-70026Y-194446D01*
X-70638Y-194037D01*
X-71360Y-193894D01*
X-71731D01*
Y-189556D01*
X-71409D01*
X-70687Y-189413D01*
X-70075Y-189004D01*
X-69667Y-188392D01*
X-69523Y-187670D01*
Y-186324D01*
X-38629D01*
X-37556Y-186110D01*
X-36646Y-185502D01*
X-26870Y-175726D01*
X-25600Y-176252D01*
Y-177395D01*
X-24915Y-179049D01*
X-23649Y-180315D01*
X-21995Y-181000D01*
X-20205D01*
X-18551Y-180315D01*
X-17285Y-179049D01*
X-16600Y-177395D01*
Y-175965D01*
X-15317Y-174683D01*
X-14710Y-173773D01*
X-14496Y-172700D01*
Y-166500D01*
X-14710Y-165427D01*
X-15317Y-164517D01*
X-18317Y-161517D01*
X-19227Y-160910D01*
X-20300Y-160696D01*
X-29500D01*
X-30573Y-160910D01*
X-31483Y-161517D01*
X-34271Y-164306D01*
X-69833D01*
Y-162960D01*
X-69977Y-162238D01*
X-70385Y-161626D01*
X-70997Y-161217D01*
X-71719Y-161074D01*
X-72021D01*
Y-156626D01*
X-71630D01*
X-70908Y-156483D01*
X-70296Y-156074D01*
X-69887Y-155462D01*
X-69744Y-154740D01*
Y-146440D01*
X-69887Y-145718D01*
X-70296Y-145106D01*
X-70908Y-144697D01*
X-71630Y-144554D01*
D02*
G37*
G36*
X-87409Y-176974D02*
X-88559D01*
Y-181520D01*
X-85013D01*
Y-179370D01*
X-85196Y-178453D01*
X-85715Y-177676D01*
X-86492Y-177156D01*
X-87409Y-176974D01*
D02*
G37*
G36*
X-92559D02*
X-93709D01*
X-94626Y-177156D01*
X-95403Y-177676D01*
X-95923Y-178453D01*
X-96105Y-179370D01*
Y-181520D01*
X-92559D01*
Y-176974D01*
D02*
G37*
G36*
X-150070Y-166075D02*
X-175930D01*
Y-188125D01*
X-150070D01*
Y-166075D01*
D02*
G37*
G36*
X-85013Y-185520D02*
X-88559D01*
Y-190066D01*
X-87409D01*
X-86492Y-189884D01*
X-85715Y-189364D01*
X-85196Y-188587D01*
X-85013Y-187670D01*
Y-185520D01*
D02*
G37*
G36*
X-92559D02*
X-96105D01*
Y-187670D01*
X-95923Y-188587D01*
X-95403Y-189364D01*
X-94626Y-189884D01*
X-93709Y-190066D01*
X-92559D01*
Y-185520D01*
D02*
G37*
G36*
X-104925Y-183090D02*
X-106715D01*
X-108369Y-183775D01*
X-109635Y-185041D01*
X-110320Y-186695D01*
Y-188485D01*
X-109635Y-190139D01*
X-108369Y-191405D01*
X-106715Y-192090D01*
X-104925D01*
X-103271Y-191405D01*
X-102005Y-190139D01*
X-101320Y-188485D01*
Y-186695D01*
X-102005Y-185041D01*
X-103271Y-183775D01*
X-104925Y-183090D01*
D02*
G37*
G36*
X-46851Y-188704D02*
X-48001D01*
Y-193250D01*
X-44455D01*
Y-191100D01*
X-44637Y-190183D01*
X-45157Y-189406D01*
X-45934Y-188886D01*
X-46851Y-188704D01*
D02*
G37*
G36*
X-52001D02*
X-53151D01*
X-54068Y-188886D01*
X-54845Y-189406D01*
X-55364Y-190183D01*
X-55547Y-191100D01*
Y-193250D01*
X-52001D01*
Y-188704D01*
D02*
G37*
G36*
X-44455Y-197250D02*
X-48001D01*
Y-201796D01*
X-46851D01*
X-45934Y-201614D01*
X-45157Y-201094D01*
X-44637Y-200317D01*
X-44455Y-199400D01*
Y-197250D01*
D02*
G37*
G36*
X-52001D02*
X-55547D01*
Y-199400D01*
X-55364Y-200317D01*
X-54845Y-201094D01*
X-54068Y-201614D01*
X-53151Y-201796D01*
X-52001D01*
Y-197250D01*
D02*
G37*
G36*
X-46851Y-204796D02*
X-48001D01*
Y-209342D01*
X-44455D01*
Y-207192D01*
X-44637Y-206275D01*
X-45157Y-205498D01*
X-45934Y-204978D01*
X-46851Y-204796D01*
D02*
G37*
G36*
X-52001D02*
X-53151D01*
X-54068Y-204978D01*
X-54845Y-205498D01*
X-55364Y-206275D01*
X-55547Y-207192D01*
Y-209342D01*
X-52001D01*
Y-204796D01*
D02*
G37*
G36*
X-87360Y-193894D02*
X-93660D01*
X-94382Y-194037D01*
X-94994Y-194446D01*
X-95403Y-195058D01*
X-95546Y-195780D01*
Y-204080D01*
X-95403Y-204802D01*
X-94994Y-205414D01*
X-94791Y-205550D01*
X-94499Y-206800D01*
X-94533Y-207088D01*
X-104901Y-217456D01*
X-106428D01*
X-106655Y-216280D01*
X-105001Y-215595D01*
X-103735Y-214329D01*
X-103050Y-212675D01*
Y-210885D01*
X-103735Y-209231D01*
X-105001Y-207965D01*
X-106655Y-207280D01*
X-108445D01*
X-110099Y-207965D01*
X-111365Y-209231D01*
X-112050Y-210885D01*
Y-212675D01*
X-111365Y-214329D01*
X-110099Y-215595D01*
X-108445Y-216280D01*
X-108672Y-217456D01*
X-111790D01*
X-112801Y-216445D01*
X-114455Y-215760D01*
X-116245D01*
X-117899Y-216445D01*
X-119165Y-217711D01*
X-119850Y-219365D01*
Y-221155D01*
X-119165Y-222809D01*
X-117899Y-224075D01*
X-116245Y-224760D01*
X-114455D01*
X-112801Y-224075D01*
X-111790Y-223064D01*
X-103740D01*
X-102667Y-222850D01*
X-101757Y-222243D01*
X-88527Y-209013D01*
X-87920Y-208103D01*
X-87706Y-207030D01*
Y-205966D01*
X-87360D01*
X-86638Y-205823D01*
X-86026Y-205414D01*
X-85617Y-204802D01*
X-85474Y-204080D01*
Y-195780D01*
X-85617Y-195058D01*
X-86026Y-194446D01*
X-86638Y-194037D01*
X-87360Y-193894D01*
D02*
G37*
G36*
X-44455Y-213342D02*
X-48001D01*
Y-217888D01*
X-46851D01*
X-45934Y-217706D01*
X-45157Y-217186D01*
X-44637Y-216409D01*
X-44455Y-215492D01*
Y-213342D01*
D02*
G37*
G36*
X-52001D02*
X-55547D01*
Y-215492D01*
X-55364Y-216409D01*
X-54845Y-217186D01*
X-54068Y-217706D01*
X-53151Y-217888D01*
X-52001D01*
Y-213342D01*
D02*
G37*
G36*
X-10923Y-230987D02*
X-26877D01*
Y-253037D01*
X-10923D01*
Y-230987D01*
D02*
G37*
G36*
X-102575Y-233070D02*
X-124625D01*
Y-258930D01*
X-102575D01*
Y-233070D01*
D02*
G37*
G36*
X-139000Y-232975D02*
X-141878Y-233354D01*
X-144560Y-234465D01*
X-146863Y-236232D01*
X-148630Y-238535D01*
X-149741Y-241217D01*
X-150120Y-244095D01*
Y-247905D01*
X-149741Y-250783D01*
X-148630Y-253465D01*
X-146863Y-255768D01*
X-144560Y-257535D01*
X-141878Y-258646D01*
X-139000Y-259025D01*
X-136122Y-258646D01*
X-133440Y-257535D01*
X-131137Y-255768D01*
X-129370Y-253465D01*
X-128259Y-250783D01*
X-127880Y-247905D01*
Y-244095D01*
X-128259Y-241217D01*
X-129370Y-238535D01*
X-131137Y-236232D01*
X-133440Y-234465D01*
X-136122Y-233354D01*
X-139000Y-232975D01*
D02*
G37*
G36*
X-26598Y-258065D02*
X-29900D01*
Y-265812D01*
X-26598D01*
Y-258065D01*
D02*
G37*
G36*
Y-269812D02*
X-29900D01*
Y-277559D01*
X-26598D01*
Y-269812D01*
D02*
G37*
G36*
X-8756Y-311540D02*
X-13302D01*
Y-315086D01*
X-11152D01*
X-10235Y-314904D01*
X-9458Y-314384D01*
X-8939Y-313607D01*
X-8756Y-312690D01*
Y-311540D01*
D02*
G37*
G36*
X-17302D02*
X-21848D01*
Y-312690D01*
X-21666Y-313607D01*
X-21146Y-314384D01*
X-20369Y-314904D01*
X-19452Y-315086D01*
X-17302D01*
Y-311540D01*
D02*
G37*
G36*
X-383180Y-349074D02*
X-394530D01*
Y-361224D01*
X-383180D01*
Y-349074D01*
D02*
G37*
G36*
X-398530D02*
X-409880D01*
Y-361224D01*
X-398530D01*
Y-349074D01*
D02*
G37*
G36*
X-383180Y-365224D02*
X-394530D01*
Y-377374D01*
X-383180D01*
Y-365224D01*
D02*
G37*
G36*
X-398530D02*
X-409880D01*
Y-377374D01*
X-398530D01*
Y-365224D01*
D02*
G37*
G36*
X-457620Y-391685D02*
X-459770D01*
Y-395231D01*
X-455224D01*
Y-394081D01*
X-455406Y-393164D01*
X-455926Y-392387D01*
X-456703Y-391867D01*
X-457620Y-391685D01*
D02*
G37*
G36*
X-433423D02*
X-435573D01*
Y-395231D01*
X-431027D01*
Y-394081D01*
X-431209Y-393164D01*
X-431729Y-392387D01*
X-432506Y-391867D01*
X-433423Y-391685D01*
D02*
G37*
G36*
X-439573D02*
X-441723D01*
X-442640Y-391867D01*
X-443417Y-392387D01*
X-443937Y-393164D01*
X-444119Y-394081D01*
Y-395231D01*
X-439573D01*
Y-391685D01*
D02*
G37*
G36*
X-463770D02*
X-465920D01*
X-466837Y-391867D01*
X-467614Y-392387D01*
X-468134Y-393164D01*
X-468316Y-394081D01*
Y-395231D01*
X-463770D01*
Y-391685D01*
D02*
G37*
G36*
X124651Y-102037D02*
X123501D01*
Y-106583D01*
X127047D01*
Y-104433D01*
X126865Y-103516D01*
X126345Y-102739D01*
X125568Y-102219D01*
X124651Y-102037D01*
D02*
G37*
G36*
X119501D02*
X118351D01*
X117434Y-102219D01*
X116657Y-102739D01*
X116137Y-103516D01*
X115955Y-104433D01*
Y-106583D01*
X119501D01*
Y-102037D01*
D02*
G37*
G36*
X108651Y-102547D02*
X102351D01*
X101629Y-102690D01*
X101017Y-103099D01*
X100608Y-103711D01*
X100465Y-104433D01*
Y-105779D01*
X95737D01*
X94664Y-105992D01*
X93754Y-106600D01*
X86148Y-114206D01*
X84992D01*
X84890Y-114186D01*
X82170D01*
X81159Y-113175D01*
X79505Y-112490D01*
X77715D01*
X76061Y-113175D01*
X74795Y-114441D01*
X74110Y-116095D01*
Y-117885D01*
X74795Y-119539D01*
X75971Y-120715D01*
X74715Y-121971D01*
X74030Y-123625D01*
Y-125415D01*
X74715Y-127069D01*
X75981Y-128335D01*
X77635Y-129020D01*
X79425D01*
X81079Y-128335D01*
X82090Y-127324D01*
X100465D01*
Y-128554D01*
X100608Y-129276D01*
X101017Y-129888D01*
X101629Y-130297D01*
X102351Y-130440D01*
X108651D01*
X109373Y-130297D01*
X109985Y-129888D01*
X110393Y-129276D01*
X110537Y-128554D01*
Y-120254D01*
X110393Y-119532D01*
X109985Y-118920D01*
X109373Y-118511D01*
X108651Y-118368D01*
X102351D01*
X101629Y-118511D01*
X101017Y-118920D01*
X100608Y-119532D01*
X100465Y-120254D01*
Y-121716D01*
X82090D01*
X81169Y-120795D01*
X82170Y-119794D01*
X84808D01*
X84910Y-119814D01*
X87310D01*
X88383Y-119601D01*
X89292Y-118993D01*
X96898Y-111387D01*
X100465D01*
Y-112733D01*
X100608Y-113455D01*
X101017Y-114067D01*
X101629Y-114476D01*
X102351Y-114619D01*
X108651D01*
X109373Y-114476D01*
X109985Y-114067D01*
X110393Y-113455D01*
X110537Y-112733D01*
Y-104433D01*
X110393Y-103711D01*
X109985Y-103099D01*
X109373Y-102690D01*
X108651Y-102547D01*
D02*
G37*
G36*
X127047Y-110583D02*
X123501D01*
Y-115129D01*
X124651D01*
X125568Y-114947D01*
X126345Y-114427D01*
X126865Y-113650D01*
X127047Y-112733D01*
Y-110583D01*
D02*
G37*
G36*
X119501D02*
X115955D01*
Y-112733D01*
X116137Y-113650D01*
X116657Y-114427D01*
X117434Y-114947D01*
X118351Y-115129D01*
X119501D01*
Y-110583D01*
D02*
G37*
G36*
X124651Y-117858D02*
X123501D01*
Y-122404D01*
X127047D01*
Y-120254D01*
X126865Y-119337D01*
X126345Y-118560D01*
X125568Y-118040D01*
X124651Y-117858D01*
D02*
G37*
G36*
X119501D02*
X118351D01*
X117434Y-118040D01*
X116657Y-118560D01*
X116137Y-119337D01*
X115955Y-120254D01*
Y-122404D01*
X119501D01*
Y-117858D01*
D02*
G37*
G36*
X127047Y-126404D02*
X123501D01*
Y-130950D01*
X124651D01*
X125568Y-130768D01*
X126345Y-130248D01*
X126865Y-129471D01*
X127047Y-128554D01*
Y-126404D01*
D02*
G37*
G36*
X119501D02*
X115955D01*
Y-128554D01*
X116137Y-129471D01*
X116657Y-130248D01*
X117434Y-130768D01*
X118351Y-130950D01*
X119501D01*
Y-126404D01*
D02*
G37*
G36*
X124650Y-133614D02*
X123500D01*
Y-138160D01*
X127046D01*
Y-136010D01*
X126864Y-135093D01*
X126344Y-134316D01*
X125567Y-133796D01*
X124650Y-133614D01*
D02*
G37*
G36*
X119500D02*
X118350D01*
X117433Y-133796D01*
X116656Y-134316D01*
X116136Y-135093D01*
X115954Y-136010D01*
Y-138160D01*
X119500D01*
Y-133614D01*
D02*
G37*
G36*
X160655Y-116180D02*
X156845D01*
X153967Y-116559D01*
X151285Y-117670D01*
X148982Y-119437D01*
X147215Y-121740D01*
X146104Y-124422D01*
X145725Y-127300D01*
X146104Y-130178D01*
X147215Y-132860D01*
X148982Y-135163D01*
X151285Y-136930D01*
X153967Y-138041D01*
X156845Y-138420D01*
X160655D01*
X163533Y-138041D01*
X166215Y-136930D01*
X168518Y-135163D01*
X170285Y-132860D01*
X171396Y-130178D01*
X171775Y-127300D01*
X171396Y-124422D01*
X170285Y-121740D01*
X168518Y-119437D01*
X166215Y-117670D01*
X163533Y-116559D01*
X160655Y-116180D01*
D02*
G37*
G36*
X108650Y-134124D02*
X102350D01*
X101628Y-134267D01*
X101016Y-134676D01*
X100607Y-135288D01*
X100464Y-136010D01*
Y-137356D01*
X94750D01*
X93677Y-137570D01*
X92767Y-138177D01*
X87977Y-142967D01*
X87370Y-143877D01*
X87156Y-144950D01*
Y-154010D01*
X86145Y-155021D01*
X85460Y-156675D01*
Y-158465D01*
X86145Y-160119D01*
X87411Y-161385D01*
X89065Y-162070D01*
X90855D01*
X92509Y-161385D01*
X93775Y-160119D01*
X94460Y-158465D01*
Y-156675D01*
X93775Y-155021D01*
X92764Y-154010D01*
Y-146111D01*
X95911Y-142964D01*
X100464D01*
Y-144310D01*
X100607Y-145032D01*
X101016Y-145644D01*
X101628Y-146053D01*
X102350Y-146196D01*
X108650D01*
X109372Y-146053D01*
X109984Y-145644D01*
X110393Y-145032D01*
X110536Y-144310D01*
Y-136010D01*
X110393Y-135288D01*
X109984Y-134676D01*
X109372Y-134267D01*
X108650Y-134124D01*
D02*
G37*
G36*
X127046Y-142160D02*
X123500D01*
Y-146706D01*
X124650D01*
X125567Y-146524D01*
X126344Y-146004D01*
X126864Y-145227D01*
X127046Y-144310D01*
Y-142160D01*
D02*
G37*
G36*
X119500D02*
X115954D01*
Y-144310D01*
X116136Y-145227D01*
X116656Y-146004D01*
X117433Y-146524D01*
X118350Y-146706D01*
X119500D01*
Y-142160D01*
D02*
G37*
G36*
X171680Y-167075D02*
X145820D01*
Y-189125D01*
X171680D01*
Y-167075D01*
D02*
G37*
G36*
X59893Y30690D02*
X41693D01*
Y12490D01*
X59893D01*
Y30690D01*
D02*
G37*
G36*
X1191D02*
X-1205D01*
X-3519Y30070D01*
X-5594Y28872D01*
X-7288Y27178D01*
X-8486Y25103D01*
X-9107Y22788D01*
Y20392D01*
X-8486Y18078D01*
X-7288Y16003D01*
X-5594Y14308D01*
X-3519Y13110D01*
X-1205Y12490D01*
X1191D01*
X3506Y13110D01*
X5581Y14308D01*
X7275Y16003D01*
X8473Y18078D01*
X9093Y20392D01*
Y22788D01*
X8473Y25103D01*
X7275Y27178D01*
X5581Y28872D01*
X3506Y30070D01*
X1191Y30690D01*
D02*
G37*
G36*
X14405Y16380D02*
X12615D01*
X10961Y15695D01*
X9695Y14429D01*
X9010Y12775D01*
Y10985D01*
X9695Y9331D01*
X10961Y8065D01*
X12615Y7380D01*
X14405D01*
X16059Y8065D01*
X17325Y9331D01*
X18010Y10985D01*
Y12775D01*
X17325Y14429D01*
X16059Y15695D01*
X14405Y16380D01*
D02*
G37*
G36*
X41151Y2236D02*
X40001D01*
Y-2310D01*
X43547D01*
Y-160D01*
X43365Y757D01*
X42845Y1534D01*
X42068Y2054D01*
X41151Y2236D01*
D02*
G37*
G36*
X36001D02*
X34851D01*
X33934Y2054D01*
X33157Y1534D01*
X32637Y757D01*
X32455Y-160D01*
Y-2310D01*
X36001D01*
Y2236D01*
D02*
G37*
G36*
X57151Y1726D02*
X50851D01*
X50129Y1583D01*
X49517Y1174D01*
X49108Y562D01*
X48965Y-160D01*
Y-8460D01*
X49108Y-9182D01*
X49517Y-9794D01*
X50129Y-10202D01*
X50851Y-10346D01*
X57151D01*
X57873Y-10202D01*
X58485Y-9794D01*
X58893Y-9182D01*
X59037Y-8460D01*
Y-7319D01*
X62690D01*
X63701Y-8330D01*
X65355Y-9015D01*
X67145D01*
X68799Y-8330D01*
X70065Y-7064D01*
X70750Y-5410D01*
Y-3620D01*
X70065Y-1966D01*
X68799Y-700D01*
X67145Y-15D01*
X65355D01*
X63701Y-700D01*
X62690Y-1711D01*
X59037D01*
Y-160D01*
X58893Y562D01*
X58485Y1174D01*
X57873Y1583D01*
X57151Y1726D01*
D02*
G37*
G36*
X43547Y-6310D02*
X40001D01*
Y-10856D01*
X41151D01*
X42068Y-10674D01*
X42845Y-10154D01*
X43365Y-9377D01*
X43547Y-8460D01*
Y-6310D01*
D02*
G37*
G36*
X36001D02*
X32455D01*
Y-8460D01*
X32637Y-9377D01*
X33157Y-10154D01*
X33934Y-10674D01*
X34851Y-10856D01*
X36001D01*
Y-6310D01*
D02*
G37*
G36*
X41151Y-14894D02*
X40001D01*
Y-19440D01*
X43547D01*
Y-17290D01*
X43365Y-16373D01*
X42845Y-15596D01*
X42068Y-15076D01*
X41151Y-14894D01*
D02*
G37*
G36*
X36001D02*
X34851D01*
X33934Y-15076D01*
X33157Y-15596D01*
X32637Y-16373D01*
X32455Y-17290D01*
Y-19440D01*
X36001D01*
Y-14894D01*
D02*
G37*
G36*
X57151Y-15404D02*
X50851D01*
X50129Y-15547D01*
X49517Y-15956D01*
X49108Y-16568D01*
X48965Y-17290D01*
Y-25590D01*
X49108Y-26312D01*
X49517Y-26924D01*
X50129Y-27333D01*
X50851Y-27476D01*
X57151D01*
X57873Y-27333D01*
X58485Y-26924D01*
X58893Y-26312D01*
X59037Y-25590D01*
Y-23744D01*
X66900D01*
X67911Y-24755D01*
X69565Y-25440D01*
X71355D01*
X73009Y-24755D01*
X74275Y-23489D01*
X74960Y-21835D01*
Y-20045D01*
X74275Y-18391D01*
X73009Y-17125D01*
X71355Y-16440D01*
X69565D01*
X67911Y-17125D01*
X66900Y-18136D01*
X59037D01*
Y-17290D01*
X58893Y-16568D01*
X58485Y-15956D01*
X57873Y-15547D01*
X57151Y-15404D01*
D02*
G37*
G36*
X43547Y-23440D02*
X40001D01*
Y-27986D01*
X41151D01*
X42068Y-27804D01*
X42845Y-27284D01*
X43365Y-26507D01*
X43547Y-25590D01*
Y-23440D01*
D02*
G37*
G36*
X36001D02*
X32455D01*
Y-25590D01*
X32637Y-26507D01*
X33157Y-27284D01*
X33934Y-27804D01*
X34851Y-27986D01*
X36001D01*
Y-23440D01*
D02*
G37*
G36*
X70895Y-27000D02*
X69105D01*
X67451Y-27685D01*
X66185Y-28951D01*
X65500Y-30605D01*
Y-32395D01*
X66185Y-34049D01*
X67451Y-35315D01*
X69105Y-36000D01*
X70895D01*
X72549Y-35315D01*
X73815Y-34049D01*
X74500Y-32395D01*
Y-30605D01*
X73815Y-28951D01*
X72549Y-27685D01*
X70895Y-27000D01*
D02*
G37*
G36*
X354815Y-29020D02*
X353025D01*
X351371Y-29705D01*
X350448Y-30628D01*
X349660Y-30847D01*
X348872Y-30628D01*
X347949Y-29705D01*
X346295Y-29020D01*
X344505D01*
X342851Y-29705D01*
X341585Y-30971D01*
X340900Y-32625D01*
Y-34415D01*
X341585Y-36069D01*
X342851Y-37335D01*
X344505Y-38020D01*
X346295D01*
X347949Y-37335D01*
X348872Y-36412D01*
X349660Y-36193D01*
X350448Y-36412D01*
X351371Y-37335D01*
X353025Y-38020D01*
X354815D01*
X356469Y-37335D01*
X357735Y-36069D01*
X358420Y-34415D01*
Y-32625D01*
X357735Y-30971D01*
X356469Y-29705D01*
X354815Y-29020D01*
D02*
G37*
G36*
X243705Y-29400D02*
X241915D01*
X240261Y-30085D01*
X239104Y-31242D01*
X238385Y-31301D01*
X237666Y-31242D01*
X236509Y-30085D01*
X234855Y-29400D01*
X233065D01*
X231411Y-30085D01*
X230145Y-31351D01*
X229460Y-33005D01*
Y-34795D01*
X230145Y-36449D01*
X231411Y-37715D01*
X233065Y-38400D01*
X234855D01*
X236509Y-37715D01*
X237666Y-36558D01*
X238385Y-36499D01*
X239104Y-36558D01*
X240261Y-37715D01*
X241915Y-38400D01*
X243705D01*
X245359Y-37715D01*
X246625Y-36449D01*
X247310Y-34795D01*
Y-33005D01*
X246625Y-31351D01*
X245359Y-30085D01*
X243705Y-29400D01*
D02*
G37*
G36*
X354815Y-41170D02*
X353025D01*
X351371Y-41855D01*
X350448Y-42778D01*
X349660Y-42997D01*
X348872Y-42778D01*
X347949Y-41855D01*
X346295Y-41170D01*
X344505D01*
X342851Y-41855D01*
X341585Y-43121D01*
X340900Y-44775D01*
Y-46565D01*
X341585Y-48219D01*
X342851Y-49485D01*
X344505Y-50170D01*
X346295D01*
X347949Y-49485D01*
X348872Y-48562D01*
X349660Y-48343D01*
X350448Y-48562D01*
X351371Y-49485D01*
X353025Y-50170D01*
X354815D01*
X356469Y-49485D01*
X357735Y-48219D01*
X358420Y-46565D01*
Y-44775D01*
X357735Y-43121D01*
X356469Y-41855D01*
X354815Y-41170D01*
D02*
G37*
G36*
X243705Y-41510D02*
X241915D01*
X240261Y-42195D01*
X239104Y-43352D01*
X238385Y-43411D01*
X237666Y-43352D01*
X236509Y-42195D01*
X234855Y-41510D01*
X233065D01*
X231411Y-42195D01*
X230145Y-43461D01*
X229460Y-45115D01*
Y-46905D01*
X230145Y-48559D01*
X231411Y-49825D01*
X233065Y-50510D01*
X234855D01*
X236509Y-49825D01*
X237666Y-48668D01*
X238385Y-48609D01*
X239104Y-48668D01*
X240261Y-49825D01*
X241915Y-50510D01*
X243705D01*
X245359Y-49825D01*
X246625Y-48559D01*
X247310Y-46905D01*
Y-45115D01*
X246625Y-43461D01*
X245359Y-42195D01*
X243705Y-41510D01*
D02*
G37*
G36*
X354815Y-52950D02*
X353025D01*
X351371Y-53635D01*
X350448Y-54558D01*
X349660Y-54777D01*
X348872Y-54558D01*
X347949Y-53635D01*
X346295Y-52950D01*
X344505D01*
X342851Y-53635D01*
X341585Y-54901D01*
X340900Y-56555D01*
Y-58345D01*
X341585Y-59999D01*
X342851Y-61265D01*
X344505Y-61950D01*
X346295D01*
X347949Y-61265D01*
X348872Y-60342D01*
X349660Y-60123D01*
X350448Y-60342D01*
X351371Y-61265D01*
X353025Y-61950D01*
X354815D01*
X356469Y-61265D01*
X357735Y-59999D01*
X358420Y-58345D01*
Y-56555D01*
X357735Y-54901D01*
X356469Y-53635D01*
X354815Y-52950D01*
D02*
G37*
G36*
X243705Y-53550D02*
X241915D01*
X240261Y-54235D01*
X239104Y-55392D01*
X238385Y-55451D01*
X237666Y-55392D01*
X236509Y-54235D01*
X234855Y-53550D01*
X233065D01*
X231411Y-54235D01*
X230145Y-55501D01*
X229460Y-57155D01*
Y-58945D01*
X230145Y-60599D01*
X231411Y-61865D01*
X233065Y-62550D01*
X234855D01*
X236509Y-61865D01*
X237666Y-60708D01*
X238385Y-60649D01*
X239104Y-60708D01*
X240261Y-61865D01*
X241915Y-62550D01*
X243705D01*
X245359Y-61865D01*
X246625Y-60599D01*
X247310Y-58945D01*
Y-57155D01*
X246625Y-55501D01*
X245359Y-54235D01*
X243705Y-53550D01*
D02*
G37*
G36*
Y-84840D02*
X241915D01*
X240261Y-85525D01*
X239104Y-86682D01*
X238385Y-86741D01*
X237666Y-86682D01*
X236509Y-85525D01*
X234855Y-84840D01*
X233065D01*
X231411Y-85525D01*
X230145Y-86791D01*
X229460Y-88445D01*
Y-90235D01*
X230145Y-91889D01*
X231411Y-93155D01*
X233065Y-93840D01*
X234855D01*
X236509Y-93155D01*
X237666Y-91998D01*
X238385Y-91939D01*
X239104Y-91998D01*
X240261Y-93155D01*
X241915Y-93840D01*
X243705D01*
X245359Y-93155D01*
X246625Y-91889D01*
X247310Y-90235D01*
Y-88445D01*
X246625Y-86791D01*
X245359Y-85525D01*
X243705Y-84840D01*
D02*
G37*
G36*
X354815Y-85620D02*
X353025D01*
X351371Y-86305D01*
X350448Y-87228D01*
X349660Y-87447D01*
X348872Y-87228D01*
X347949Y-86305D01*
X346295Y-85620D01*
X344505D01*
X342851Y-86305D01*
X341585Y-87571D01*
X340900Y-89225D01*
Y-91015D01*
X341585Y-92669D01*
X342851Y-93935D01*
X344505Y-94620D01*
X346295D01*
X347949Y-93935D01*
X348872Y-93012D01*
X349660Y-92793D01*
X350448Y-93012D01*
X351371Y-93935D01*
X353025Y-94620D01*
X354815D01*
X356469Y-93935D01*
X357735Y-92669D01*
X358420Y-91015D01*
Y-89225D01*
X357735Y-87571D01*
X356469Y-86305D01*
X354815Y-85620D01*
D02*
G37*
G36*
Y-97730D02*
X353025D01*
X351371Y-98415D01*
X350448Y-99338D01*
X349660Y-99557D01*
X348872Y-99338D01*
X347949Y-98415D01*
X346295Y-97730D01*
X344505D01*
X342851Y-98415D01*
X341585Y-99681D01*
X340900Y-101335D01*
Y-103125D01*
X341585Y-104779D01*
X342851Y-106045D01*
X344505Y-106730D01*
X346295D01*
X347949Y-106045D01*
X348872Y-105122D01*
X349660Y-104903D01*
X350448Y-105122D01*
X351371Y-106045D01*
X353025Y-106730D01*
X354815D01*
X356469Y-106045D01*
X357735Y-104779D01*
X358420Y-103125D01*
Y-101335D01*
X357735Y-99681D01*
X356469Y-98415D01*
X354815Y-97730D01*
D02*
G37*
G36*
X243705Y-98350D02*
X241915D01*
X240261Y-99035D01*
X239104Y-100192D01*
X238385Y-100251D01*
X237666Y-100192D01*
X236509Y-99035D01*
X234855Y-98350D01*
X233065D01*
X231411Y-99035D01*
X230145Y-100301D01*
X229460Y-101955D01*
Y-103745D01*
X230145Y-105399D01*
X231411Y-106665D01*
X233065Y-107350D01*
X234855D01*
X236509Y-106665D01*
X237666Y-105508D01*
X238385Y-105449D01*
X239104Y-105508D01*
X240261Y-106665D01*
X241915Y-107350D01*
X243705D01*
X245359Y-106665D01*
X246625Y-105399D01*
X247310Y-103745D01*
Y-101955D01*
X246625Y-100301D01*
X245359Y-99035D01*
X243705Y-98350D01*
D02*
G37*
G36*
X354815Y-111730D02*
X353025D01*
X351371Y-112415D01*
X350448Y-113338D01*
X349660Y-113557D01*
X348872Y-113338D01*
X347949Y-112415D01*
X346295Y-111730D01*
X344505D01*
X342851Y-112415D01*
X341585Y-113681D01*
X340900Y-115335D01*
Y-117125D01*
X341585Y-118779D01*
X342851Y-120045D01*
X344505Y-120730D01*
X346295D01*
X347949Y-120045D01*
X348872Y-119122D01*
X349660Y-118903D01*
X350448Y-119122D01*
X351371Y-120045D01*
X353025Y-120730D01*
X354815D01*
X356469Y-120045D01*
X357735Y-118779D01*
X358420Y-117125D01*
Y-115335D01*
X357735Y-113681D01*
X356469Y-112415D01*
X354815Y-111730D01*
D02*
G37*
G36*
X243705Y-111970D02*
X241915D01*
X240261Y-112655D01*
X239104Y-113812D01*
X238385Y-113871D01*
X237666Y-113812D01*
X236509Y-112655D01*
X234855Y-111970D01*
X233065D01*
X231411Y-112655D01*
X230145Y-113921D01*
X229460Y-115575D01*
Y-117365D01*
X230145Y-119019D01*
X231411Y-120285D01*
X233065Y-120970D01*
X234855D01*
X236509Y-120285D01*
X237666Y-119128D01*
X238385Y-119069D01*
X239104Y-119128D01*
X240261Y-120285D01*
X241915Y-120970D01*
X243705D01*
X245359Y-120285D01*
X246625Y-119019D01*
X247310Y-117365D01*
Y-115575D01*
X246625Y-113921D01*
X245359Y-112655D01*
X243705Y-111970D01*
D02*
G37*
G36*
Y-144210D02*
X241915D01*
X240261Y-144895D01*
X239104Y-146052D01*
X238385Y-146111D01*
X237666Y-146052D01*
X236509Y-144895D01*
X234855Y-144210D01*
X233065D01*
X231411Y-144895D01*
X230145Y-146161D01*
X229460Y-147815D01*
Y-149605D01*
X230145Y-151259D01*
X231411Y-152525D01*
X233065Y-153210D01*
X234855D01*
X236509Y-152525D01*
X237666Y-151368D01*
X238385Y-151309D01*
X239104Y-151368D01*
X240261Y-152525D01*
X241915Y-153210D01*
X243705D01*
X245359Y-152525D01*
X246625Y-151259D01*
X247310Y-149605D01*
Y-147815D01*
X246625Y-146161D01*
X245359Y-144895D01*
X243705Y-144210D01*
D02*
G37*
G36*
X354815Y-145500D02*
X353025D01*
X351371Y-146185D01*
X350448Y-147108D01*
X349660Y-147327D01*
X348872Y-147108D01*
X347949Y-146185D01*
X346295Y-145500D01*
X344505D01*
X342851Y-146185D01*
X341585Y-147451D01*
X340900Y-149105D01*
Y-150895D01*
X341585Y-152549D01*
X342851Y-153815D01*
X344505Y-154500D01*
X346295D01*
X347949Y-153815D01*
X348872Y-152892D01*
X349660Y-152673D01*
X350448Y-152892D01*
X351371Y-153815D01*
X353025Y-154500D01*
X354815D01*
X356469Y-153815D01*
X357735Y-152549D01*
X358420Y-150895D01*
Y-149105D01*
X357735Y-147451D01*
X356469Y-146185D01*
X354815Y-145500D01*
D02*
G37*
G36*
X243705Y-156170D02*
X241915D01*
X240261Y-156855D01*
X239104Y-158012D01*
X238385Y-158071D01*
X237666Y-158012D01*
X236509Y-156855D01*
X234855Y-156170D01*
X233065D01*
X231411Y-156855D01*
X230145Y-158121D01*
X229460Y-159775D01*
Y-161565D01*
X230145Y-163219D01*
X231411Y-164485D01*
X233065Y-165170D01*
X234855D01*
X236509Y-164485D01*
X237666Y-163328D01*
X238385Y-163269D01*
X239104Y-163328D01*
X240261Y-164485D01*
X241915Y-165170D01*
X243705D01*
X245359Y-164485D01*
X246625Y-163219D01*
X247310Y-161565D01*
Y-159775D01*
X246625Y-158121D01*
X245359Y-156855D01*
X243705Y-156170D01*
D02*
G37*
G36*
X354815Y-157770D02*
X353025D01*
X351371Y-158455D01*
X350448Y-159378D01*
X349660Y-159597D01*
X348872Y-159378D01*
X347949Y-158455D01*
X346295Y-157770D01*
X344505D01*
X342851Y-158455D01*
X341585Y-159721D01*
X340900Y-161375D01*
Y-163165D01*
X341585Y-164819D01*
X342851Y-166085D01*
X344505Y-166770D01*
X346295D01*
X347949Y-166085D01*
X348872Y-165162D01*
X349660Y-164943D01*
X350448Y-165162D01*
X351371Y-166085D01*
X353025Y-166770D01*
X354815D01*
X356469Y-166085D01*
X357735Y-164819D01*
X358420Y-163165D01*
Y-161375D01*
X357735Y-159721D01*
X356469Y-158455D01*
X354815Y-157770D01*
D02*
G37*
G36*
X243765Y-167320D02*
X241975D01*
X240321Y-168005D01*
X239164Y-169162D01*
X238445Y-169221D01*
X237726Y-169162D01*
X236569Y-168005D01*
X234915Y-167320D01*
X233125D01*
X231471Y-168005D01*
X230205Y-169271D01*
X229520Y-170925D01*
Y-172715D01*
X230205Y-174369D01*
X231471Y-175635D01*
X233125Y-176320D01*
X234915D01*
X236569Y-175635D01*
X237726Y-174478D01*
X238445Y-174419D01*
X239164Y-174478D01*
X240321Y-175635D01*
X241975Y-176320D01*
X243765D01*
X245419Y-175635D01*
X246685Y-174369D01*
X247370Y-172715D01*
Y-170925D01*
X246685Y-169271D01*
X245419Y-168005D01*
X243765Y-167320D01*
D02*
G37*
G36*
X354815Y-168500D02*
X353025D01*
X351371Y-169185D01*
X350448Y-170108D01*
X349660Y-170327D01*
X348872Y-170108D01*
X347949Y-169185D01*
X346295Y-168500D01*
X344505D01*
X342851Y-169185D01*
X341585Y-170451D01*
X340900Y-172105D01*
Y-173895D01*
X341585Y-175549D01*
X342851Y-176815D01*
X344505Y-177500D01*
X346295D01*
X347949Y-176815D01*
X348872Y-175892D01*
X349660Y-175673D01*
X350448Y-175892D01*
X351371Y-176815D01*
X353025Y-177500D01*
X354815D01*
X356469Y-176815D01*
X357735Y-175549D01*
X358420Y-173895D01*
Y-172105D01*
X357735Y-170451D01*
X356469Y-169185D01*
X354815Y-168500D01*
D02*
G37*
G36*
X251072Y-369070D02*
X229022D01*
Y-394930D01*
X251072D01*
Y-369070D01*
D02*
G37*
G36*
X262935Y-347700D02*
X261145D01*
X259491Y-348385D01*
X258225Y-349651D01*
X257540Y-351305D01*
Y-353095D01*
X258225Y-354749D01*
X259491Y-356015D01*
X261145Y-356700D01*
X262935D01*
X264589Y-356015D01*
X265345Y-355259D01*
X270033D01*
X284108Y-369334D01*
Y-370355D01*
X284108Y-370355D01*
X284283Y-371235D01*
X282984Y-372232D01*
X281217Y-374535D01*
X280106Y-377217D01*
X279727Y-380095D01*
Y-383905D01*
X280106Y-386783D01*
X281217Y-389465D01*
X282984Y-391768D01*
X285287Y-393535D01*
X287969Y-394646D01*
X290847Y-395025D01*
X293725Y-394646D01*
X296407Y-393535D01*
X298710Y-391768D01*
X300477Y-389465D01*
X301588Y-386783D01*
X301967Y-383905D01*
Y-380095D01*
X301588Y-377217D01*
X300477Y-374535D01*
X298710Y-372232D01*
X296407Y-370465D01*
X293725Y-369354D01*
X291016Y-368997D01*
X290226Y-368067D01*
X289993Y-366897D01*
X289330Y-365904D01*
X273463Y-350037D01*
X272470Y-349374D01*
X271300Y-349141D01*
X271300Y-349141D01*
X265345D01*
X264589Y-348385D01*
X262935Y-347700D01*
D02*
G37*
G36*
X231615Y-348280D02*
X229825D01*
X228171Y-348965D01*
X226905Y-350231D01*
X226220Y-351885D01*
Y-353675D01*
X226905Y-355329D01*
X228171Y-356595D01*
X229825Y-357280D01*
X231615D01*
X233269Y-356595D01*
X234025Y-355839D01*
X247773D01*
X260691Y-368757D01*
X260393Y-370255D01*
X259887Y-370465D01*
X257584Y-372232D01*
X255817Y-374535D01*
X254706Y-377217D01*
X254327Y-380095D01*
Y-383905D01*
X254706Y-386783D01*
X255817Y-389465D01*
X257584Y-391768D01*
X259887Y-393535D01*
X262569Y-394646D01*
X265447Y-395025D01*
X268325Y-394646D01*
X271007Y-393535D01*
X273310Y-391768D01*
X275077Y-389465D01*
X276188Y-386783D01*
X276567Y-383905D01*
Y-380095D01*
X276188Y-377217D01*
X275077Y-374535D01*
X273310Y-372232D01*
X271007Y-370465D01*
X268325Y-369354D01*
X268276Y-369347D01*
X267603Y-368284D01*
X267370Y-367114D01*
X266707Y-366122D01*
X266707Y-366122D01*
X251203Y-350617D01*
X250210Y-349954D01*
X249040Y-349721D01*
X249040Y-349721D01*
X234025D01*
X233269Y-348965D01*
X231615Y-348280D01*
D02*
G37*
G36*
X-225330Y-295452D02*
Y-305340D01*
X-215443D01*
X-216148Y-302708D01*
X-217728Y-299972D01*
X-219962Y-297738D01*
X-222698Y-296158D01*
X-225330Y-295452D01*
D02*
G37*
G36*
X-250730D02*
Y-305340D01*
X-240843D01*
X-241548Y-302708D01*
X-243128Y-299972D01*
X-245362Y-297738D01*
X-248098Y-296158D01*
X-250730Y-295452D01*
D02*
G37*
G36*
X-229330D02*
X-231962Y-296158D01*
X-234698Y-297738D01*
X-236932Y-299972D01*
X-238512Y-302708D01*
X-239217Y-305340D01*
X-229330D01*
Y-295452D01*
D02*
G37*
G36*
X-254730D02*
X-257362Y-296158D01*
X-260098Y-297738D01*
X-262332Y-299972D01*
X-263912Y-302708D01*
X-264617Y-305340D01*
X-254730D01*
Y-295452D01*
D02*
G37*
G36*
X-215443Y-309340D02*
X-225330D01*
Y-319227D01*
X-222698Y-318522D01*
X-219962Y-316942D01*
X-217728Y-314708D01*
X-216148Y-311972D01*
X-215443Y-309340D01*
D02*
G37*
G36*
X-240843D02*
X-250730D01*
Y-319227D01*
X-248098Y-318522D01*
X-245362Y-316942D01*
X-243128Y-314708D01*
X-241548Y-311972D01*
X-240843Y-309340D01*
D02*
G37*
G36*
X-229330D02*
X-239217D01*
X-238512Y-311972D01*
X-236932Y-314708D01*
X-234698Y-316942D01*
X-231962Y-318522D01*
X-229330Y-319227D01*
Y-309340D01*
D02*
G37*
G36*
X-254730D02*
X-264617D01*
X-263912Y-311972D01*
X-262332Y-314708D01*
X-260098Y-316942D01*
X-257362Y-318522D01*
X-254730Y-319227D01*
Y-309340D01*
D02*
G37*
G36*
X-403130Y-447853D02*
Y-457740D01*
X-393243D01*
X-393948Y-455108D01*
X-395528Y-452372D01*
X-397762Y-450138D01*
X-400498Y-448558D01*
X-403130Y-447853D01*
D02*
G37*
G36*
X-407130D02*
X-409762Y-448558D01*
X-412498Y-450138D01*
X-414732Y-452372D01*
X-416312Y-455108D01*
X-417017Y-457740D01*
X-407130D01*
Y-447853D01*
D02*
G37*
G36*
X-393243Y-461740D02*
X-403130D01*
Y-471627D01*
X-400498Y-470922D01*
X-397762Y-469342D01*
X-395528Y-467108D01*
X-393948Y-464372D01*
X-393243Y-461740D01*
D02*
G37*
G36*
X-407130D02*
X-417017D01*
X-416312Y-464372D01*
X-414732Y-467108D01*
X-412498Y-469342D01*
X-409762Y-470922D01*
X-407130Y-471627D01*
Y-461740D01*
D02*
G37*
G36*
X-457620Y-407685D02*
X-459770D01*
Y-411231D01*
X-455224D01*
Y-410081D01*
X-455406Y-409164D01*
X-455926Y-408387D01*
X-456703Y-407867D01*
X-457620Y-407685D01*
D02*
G37*
G36*
X-433423D02*
X-435573D01*
Y-411231D01*
X-431027D01*
Y-410081D01*
X-431209Y-409164D01*
X-431729Y-408387D01*
X-432506Y-407867D01*
X-433423Y-407685D01*
D02*
G37*
G36*
X-439573D02*
X-441723D01*
X-442640Y-407867D01*
X-443417Y-408387D01*
X-443937Y-409164D01*
X-444119Y-410081D01*
Y-411231D01*
X-439573D01*
Y-407685D01*
D02*
G37*
G36*
X-463770D02*
X-465920D01*
X-466837Y-407867D01*
X-467614Y-408387D01*
X-468134Y-409164D01*
X-468316Y-410081D01*
Y-411231D01*
X-463770D01*
Y-407685D01*
D02*
G37*
G36*
X-431027Y-415231D02*
X-435573D01*
Y-418777D01*
X-433423D01*
X-432506Y-418595D01*
X-431729Y-418075D01*
X-431209Y-417298D01*
X-431027Y-416381D01*
Y-415231D01*
D02*
G37*
G36*
X-439573D02*
X-444119D01*
Y-416381D01*
X-443937Y-417298D01*
X-443417Y-418075D01*
X-442640Y-418595D01*
X-441723Y-418777D01*
X-439573D01*
Y-415231D01*
D02*
G37*
G36*
X-455224D02*
X-459770D01*
Y-418777D01*
X-457620D01*
X-456703Y-418595D01*
X-455926Y-418075D01*
X-455406Y-417298D01*
X-455224Y-416381D01*
Y-415231D01*
D02*
G37*
G36*
X-463770D02*
X-468316D01*
Y-416381D01*
X-468134Y-417298D01*
X-467614Y-418075D01*
X-466837Y-418595D01*
X-465920Y-418777D01*
X-463770D01*
Y-415231D01*
D02*
G37*
%LPD*%
D10*
X-54252Y-11540D02*
Y-10593D01*
X-52380Y-20690D02*
Y-13412D01*
X-54252Y-11540D02*
X-52380Y-13412D01*
X-8352Y-5098D02*
X37430Y-50880D01*
Y-132430D02*
Y-50880D01*
X-27154Y-5098D02*
X-8352D01*
X-38030Y5778D02*
X-27154Y-5098D01*
X-2680Y1580D02*
X37200Y-38300D01*
X-25700Y1580D02*
X-2680D01*
X-38030Y5778D02*
Y32740D01*
X-50807Y45517D02*
X-38030Y32740D01*
X-104780Y20060D02*
X-80670Y-4050D01*
X-104780Y20060D02*
Y29152D01*
X-110530Y34902D02*
X-104780Y29152D01*
X-80670Y-105300D02*
Y-4050D01*
X-85310Y-111500D02*
Y-7640D01*
X-110530Y17580D02*
Y26770D01*
Y17580D02*
X-85310Y-7640D01*
X-3050Y-260890D02*
X8130Y-249710D01*
X-3050Y-317320D02*
Y-260890D01*
X3470Y-263450D02*
X16287Y-250633D01*
X-7070Y-329940D02*
X3470Y-319400D01*
Y-263450D01*
X-10150Y-324420D02*
X-3050Y-317320D01*
X54450Y-150332D02*
Y-93150D01*
X51943Y-152840D02*
X54450Y-150332D01*
X51943Y-153547D02*
Y-152840D01*
X-15320Y-299606D02*
Y-293352D01*
X-30190Y-301070D02*
X-16784D01*
X-16062Y-293460D02*
X-16000Y-293522D01*
X-16784Y-301070D02*
X-15320Y-299606D01*
X-31822Y-302702D02*
X-30190Y-301070D01*
X-31822Y-309180D02*
Y-302702D01*
X-44450Y-324420D02*
X-10150D01*
X-53350Y-329940D02*
X-7070D01*
X-48240Y-320630D02*
Y-309180D01*
Y-320630D02*
X-44450Y-324420D01*
X-64940Y-318350D02*
X-53350Y-329940D01*
X2100Y-67679D02*
X3400Y-66379D01*
Y-49640D01*
X78610Y-116990D02*
X84890D01*
X84910Y-117010D01*
X87310D01*
X95737Y-108583D01*
X-111720Y-172730D02*
X-105820D01*
X-114850Y-169600D02*
Y-41670D01*
Y-169600D02*
X-111720Y-172730D01*
X-103740Y-220260D02*
X-90510Y-207030D01*
X-115350Y-220260D02*
X-103740D01*
X-85310Y-111500D02*
X-71330Y-125480D01*
X-80670Y-105300D02*
X-66240Y-119730D01*
X16287Y-250633D02*
Y-250000D01*
X-66240Y-119730D02*
X-48550D01*
X-71330Y-125480D02*
X-55290D01*
X-48550Y-119730D02*
X-48440Y-119840D01*
X98640Y-37210D02*
Y44080D01*
X50430Y-85420D02*
X98640Y-37210D01*
X50430Y-143357D02*
Y-85420D01*
X111890Y-35710D02*
Y25790D01*
X54450Y-93150D02*
X111890Y-35710D01*
X106870Y52310D02*
X115950D01*
X98640Y44080D02*
X106870Y52310D01*
X-120969Y-193661D02*
Y-60789D01*
Y-193661D02*
X-114970Y-199660D01*
X105385Y-124520D02*
X105501Y-124404D01*
X78530Y-124520D02*
X105385D01*
X45990Y-147797D02*
X50430Y-143357D01*
X24980Y-167630D02*
Y-144880D01*
X37430Y-132430D01*
X-20650Y-205810D02*
Y-198745D01*
X-24144Y-195250D02*
X-20650Y-198745D01*
X-32943Y-210794D02*
X-26283D01*
X-22277Y-214800D01*
X-21330D01*
X-114970Y-199660D02*
X-105820D01*
X-74869Y-167110D02*
X-74825Y-167065D01*
X-74870Y-167110D02*
X-74869Y-167110D01*
X-74825Y-150635D02*
X-74780Y-150590D01*
X-74825Y-167065D02*
Y-150635D01*
X-74869Y-167110D02*
X-33110D01*
X-74559Y-183520D02*
X-38629D01*
X-74535Y-185960D02*
Y-183895D01*
Y-199905D02*
Y-185960D01*
X-38629Y-183520D02*
X-25600Y-170491D01*
X-74535Y-199905D02*
X-74510Y-199930D01*
X-90510Y-207030D02*
Y-199930D01*
X-64940Y-318350D02*
Y-309180D01*
X-64940Y-293180D02*
X-64940Y-293180D01*
X-81822Y-293180D02*
X-64940D01*
X-48240D02*
X-31822D01*
X-48240Y-293180D02*
X-48240Y-293180D01*
X-48240Y-293180D02*
Y-286720D01*
X-51920Y-283040D02*
X-48240Y-286720D01*
X-51920Y-283040D02*
Y-267832D01*
X-64150Y-293180D02*
X-61900Y-290930D01*
X-64940Y-293180D02*
X-64150D01*
X-61900Y-290930D02*
Y-267812D01*
X-51920Y-267832D02*
X-51900Y-267812D01*
X54206Y-4515D02*
X66250D01*
X54001Y-4310D02*
X54206Y-4515D01*
X54001Y-21440D02*
X54501Y-20940D01*
X70460D01*
X-17520Y-67593D02*
Y-56930D01*
Y-67593D02*
X-17305Y-67808D01*
X20650Y-66209D02*
X21790Y-67349D01*
X20650Y-66209D02*
Y-56680D01*
X-17305Y-125395D02*
X-7700Y-135000D01*
X-50807Y45517D02*
Y46990D01*
X-63910Y-47400D02*
X-63240Y-48070D01*
X-70291Y-44070D02*
Y-37291D01*
Y-44070D02*
X-66961Y-47400D01*
X-63910D01*
X-70291Y-37291D02*
X-69820Y-36820D01*
X-52380Y-45000D02*
Y-36690D01*
X-48870Y-48510D02*
X-43565D01*
X-52380Y-45000D02*
X-48870Y-48510D01*
X-17305Y-125395D02*
Y-83808D01*
X95737Y-108583D02*
X105501D01*
X89960Y-144950D02*
X94750Y-140160D01*
X105500D01*
X89960Y-157570D02*
Y-144950D01*
X-17680Y-84183D02*
X-17305Y-83808D01*
X-29500Y-163500D02*
X-20300D01*
X-17300Y-166500D01*
Y-172700D02*
Y-166500D01*
X-21100Y-176500D02*
X-17300Y-172700D01*
X-33110Y-167110D02*
X-29500Y-163500D01*
X-74780Y-150590D02*
X-74780Y-150590D01*
X-58943Y-149418D02*
X-51099D01*
X-60408Y-147954D02*
Y-144392D01*
Y-147954D02*
X-58943Y-149418D01*
X-60900Y-143900D02*
X-60408Y-144392D01*
X-32849Y-149292D02*
X-27849D01*
X-24957Y-146400D01*
X-24100D01*
X-33227Y-149671D02*
X-32849Y-149292D01*
X-74220Y-185960D02*
X-74220Y-185961D01*
X-33491Y-195250D02*
X-24144D01*
D12*
X-48240Y-451870D02*
X-40460Y-444090D01*
Y-405340D01*
X-58580Y-387220D02*
X-40460Y-405340D01*
X-447980Y331030D02*
X-425740Y353270D01*
X-391510D01*
X-67310Y-387220D02*
X-58580D01*
X159670Y341520D02*
X253720D01*
X289540Y305700D01*
Y270240D02*
Y305700D01*
X144600Y356590D02*
X159670Y341520D01*
X144600Y356590D02*
Y406880D01*
X-423360Y250920D02*
X-417765Y245325D01*
X-448460Y255240D02*
X-444140Y250920D01*
X-423360D01*
X-417765Y233465D02*
Y245325D01*
X-448460Y255240D02*
Y279920D01*
X-426020Y302360D02*
Y316370D01*
X-448460Y279920D02*
X-426020Y302360D01*
X-418148Y233848D02*
X-417765Y233465D01*
X-425250Y223030D02*
X-370050D01*
X-365510Y227570D01*
Y234480D01*
X-435900Y233680D02*
Y242260D01*
Y233680D02*
X-425250Y223030D01*
X-435740Y270850D02*
X-404991D01*
X-402691Y273150D01*
X-402150D01*
X-50001Y-211342D02*
Y-195250D01*
X-90714Y-183365D02*
X-90559Y-183520D01*
X-90869Y-167110D02*
X-90714Y-167265D01*
Y-183365D02*
Y-167265D01*
X116350Y435130D02*
X144600Y406880D01*
X101960Y435130D02*
X116350D01*
X-41900Y-267812D02*
Y-226440D01*
X-84800D02*
X-41900D01*
X-36344D01*
X-34001Y-224097D02*
Y-211342D01*
X-36344Y-226440D02*
X-34001Y-224097D01*
X-91073Y-309180D02*
X-81822D01*
X-96930Y-303323D02*
Y-238570D01*
Y-303323D02*
X-91073Y-309180D01*
X-96930Y-238570D02*
X-84800Y-226440D01*
X-12450Y-419120D02*
X-1250Y-430320D01*
X82630D01*
X-123800Y-426050D02*
X-56950D01*
X-144830Y-447080D02*
X-123800Y-426050D01*
X-144830Y-476430D02*
Y-447080D01*
X-466840Y289350D02*
Y326290D01*
X-445630Y347500D01*
Y388490D01*
X-435190Y398930D01*
D22*
X-217069Y331549D02*
G03*
X-231203Y345683I-14133J0D01*
G01*
X-210840Y331549D02*
G03*
X-235541Y356250I-24701J0D01*
G01*
X-229651Y190990D02*
G03*
X-210840Y209801I0J18811D01*
G01*
X-229651Y197219D02*
G03*
X-217069Y209801I0J12581D01*
G01*
X18053Y-131183D02*
X21790Y-127446D01*
Y-85349D01*
X18053Y-131995D02*
Y-131183D01*
X-246263Y345683D02*
X-231203D01*
X-498013Y205149D02*
X-493873Y201009D01*
X-498013Y205149D02*
Y240125D01*
X-217069Y209801D02*
Y331549D01*
X-210840Y209801D02*
Y331549D01*
X-246620Y356250D02*
X-235541D01*
X-493873Y201009D02*
X-454259D01*
X-394130Y179730D02*
X-382870Y190990D01*
X-446160Y192910D02*
X-432980Y179730D01*
X-382870Y190990D02*
X-229651D01*
X-432980Y179730D02*
X-394130D01*
X-454259Y201009D02*
X-446160Y192910D01*
X-425500Y197219D02*
X-229651D01*
X-430760Y191960D02*
X-430760D01*
X-425500Y197219D01*
X-25407Y46990D02*
Y61573D01*
X-16840Y70140D01*
X-27159Y23343D02*
Y32455D01*
X-38160Y43456D02*
X-27159Y32455D01*
X-38160Y43456D02*
Y61630D01*
X-27159Y23343D02*
X-25407Y21590D01*
X25393Y46990D02*
X38633Y60230D01*
X166030D01*
X178300Y47960D01*
X-429720Y326880D02*
X-331200D01*
X-199240Y458840D02*
Y510800D01*
X-331200Y326880D02*
X-199240Y458840D01*
X-204900Y462200D02*
Y514400D01*
X-431642Y332268D02*
X-334832D01*
X-204900Y462200D01*
X210428Y-187580D02*
X256130D01*
X272040Y-203490D02*
X313390D01*
X256130Y-187580D02*
X272040Y-203490D01*
X208754Y-192270D02*
X249610D01*
X269370Y-212030D02*
X283780D01*
X249610Y-192270D02*
X269370Y-212030D01*
X206594Y-196880D02*
X236500D01*
X243700Y-204080D02*
X251040D01*
X236500Y-196880D02*
X243700Y-204080D01*
X-16840Y70140D02*
X168848D01*
X-38160Y61630D02*
X-24750Y75040D01*
X170312D01*
X208810Y-223680D02*
X354990D01*
X366847Y-241567D02*
Y-235537D01*
X354990Y-223680D02*
X366847Y-235537D01*
Y-241567D02*
X366900Y-241620D01*
X22760Y65110D02*
X167514D01*
X12970Y55320D02*
X22760Y65110D01*
X12970Y34014D02*
Y55320D01*
X-464530Y273840D02*
X-439790Y298580D01*
Y316810D02*
X-429720Y326880D01*
X-439790Y298580D02*
Y316810D01*
X-445810Y318100D02*
X-431642Y332268D01*
X-445810Y300180D02*
Y318100D01*
X-467530Y278460D02*
X-445810Y300180D01*
X167514Y65110D02*
X183180Y49444D01*
X32640Y-130840D02*
Y-52795D01*
X-10110Y-10044D02*
X32640Y-52795D01*
X-29606Y-10044D02*
X-10110D01*
X-49717Y10067D02*
X-29606Y-10044D01*
X12970Y34014D02*
X25393Y21590D01*
X193110Y-170262D02*
Y52242D01*
Y-170262D02*
X210428Y-187580D01*
X183180Y-173466D02*
X206594Y-196880D01*
X188210Y-171726D02*
Y50778D01*
X178300Y-174950D02*
Y47960D01*
X188210Y-171726D02*
X208754Y-192270D01*
X183180Y-173466D02*
Y49444D01*
X207630Y-204280D02*
X232140D01*
X178300Y-174950D02*
X207630Y-204280D01*
X168848Y70140D02*
X188210Y50778D01*
X170312Y75040D02*
X193110Y52242D01*
X-119670Y-7190D02*
X-90780Y-36080D01*
X-119670Y95950D02*
X-96120Y119500D01*
X-119670Y-7190D02*
Y95950D01*
X-480190Y273840D02*
X-464530D01*
X-490060Y263970D02*
X-480190Y273840D01*
X-495200Y263970D02*
X-490060D01*
X-328250Y317940D02*
X-186530Y459660D01*
X-345420Y317940D02*
X-328250D01*
X-186530Y459660D02*
Y475700D01*
X18890Y-85349D02*
X21790D01*
X13817Y-83995D02*
X18890D01*
X2100Y-127361D02*
Y-83679D01*
X6287Y-132360D02*
Y-131548D01*
X2100Y-127361D02*
X6287Y-131548D01*
X4320Y-201530D02*
Y-158846D01*
X28000Y-225210D02*
X92400D01*
X4320Y-201530D02*
X28000Y-225210D01*
X-1280Y-204210D02*
X24740Y-230230D01*
X-1280Y-204210D02*
Y-159610D01*
X24740Y-230230D02*
X94567D01*
X33530Y-204409D02*
X39800Y-210679D01*
X39988D01*
X33530Y-204409D02*
Y-142970D01*
X-92840Y45600D02*
X-4536Y-42704D01*
X12060Y-82238D02*
Y-46750D01*
X-4536Y-42704D02*
X8014D01*
X12060Y-46750D01*
X212110Y-218810D02*
X375890D01*
X397230Y-240150D01*
X196998Y-211868D02*
X208810Y-223680D01*
X199930Y-206630D02*
X212110Y-218810D01*
X6230Y479800D02*
Y516210D01*
Y479800D02*
X15010Y471020D01*
X29540D01*
X-24290Y-136600D02*
X-1280Y-159610D01*
X-32800Y-121726D02*
X4320Y-158846D01*
X-204900Y514400D02*
X-175990Y543310D01*
X-199240Y510800D02*
X-175450Y534590D01*
X-192640Y486970D02*
X-167975D01*
X-115108Y434103D01*
X50260Y400610D02*
Y401422D01*
X52610Y403772D02*
Y434620D01*
X50260Y401422D02*
X52610Y403772D01*
X-90780Y-150590D02*
Y-36080D01*
X-175990Y543310D02*
X-133320D01*
X-133000Y542990D01*
X-130046Y534614D02*
X-126996D01*
X-125190Y536420D01*
X-130070Y534590D02*
X-130046Y534614D01*
X-125190Y536420D02*
X-125190D01*
X-122480Y539130D01*
Y565750D01*
X-175450Y534590D02*
X-130070D01*
X-80933Y434103D02*
X-30010Y383180D01*
X-115108Y434103D02*
X-80933D01*
X-485700Y278460D02*
X-467530D01*
X-30010Y334120D02*
Y383180D01*
Y334120D02*
X-15478Y319588D01*
Y307438D02*
Y319588D01*
X88030Y-37830D02*
Y16100D01*
X71500Y24200D02*
X79930D01*
X88030Y16100D01*
X46180Y-79680D02*
X88030Y-37830D01*
X41680Y-75300D02*
X81470Y-35510D01*
X41680Y-134820D02*
Y-75300D01*
X81470Y-35510D02*
Y-1370D01*
X46180Y-136684D02*
Y-79680D01*
X63460Y-170040D02*
Y-103810D01*
X136480Y-30790D02*
Y48994D01*
X63460Y-103810D02*
X136480Y-30790D01*
X58700Y-161462D02*
Y-99690D01*
X119830Y-38560D02*
Y30810D01*
X58700Y-99690D02*
X119830Y-38560D01*
X112928Y-211868D02*
X196998D01*
X-32800Y-121726D02*
Y-106800D01*
X92400Y-225210D02*
X110980Y-206630D01*
X199930D01*
X119830Y30810D02*
X130480Y41460D01*
X141370Y37738D02*
X149862Y46230D01*
X68000Y-111250D02*
X141370Y-37880D01*
Y37738D01*
X139619Y52133D02*
Y52251D01*
X136480Y48994D02*
X139619Y52133D01*
X129520Y119500D02*
X164190Y154170D01*
Y154400D01*
X-96120Y119500D02*
X129520D01*
X-7940Y-80136D02*
Y-48420D01*
X-91770Y35410D02*
X-7940Y-48420D01*
X-49717Y10067D02*
Y20501D01*
X-50807Y21590D02*
X-49717Y20501D01*
X38050Y-190930D02*
Y-144814D01*
X46180Y-136684D01*
X33530Y-142970D02*
X41680Y-134820D01*
X18890Y-173250D02*
Y-144590D01*
X32640Y-130840D01*
X54207Y-165955D02*
X58700Y-161462D01*
X54207Y-165955D02*
Y-165955D01*
X48162Y-172000D02*
X54207Y-165955D01*
X47350Y-172000D02*
X48162D01*
X18760Y-173380D02*
X18890Y-173250D01*
X38050Y-190930D02*
X47650Y-200530D01*
X68000Y-191043D02*
Y-111250D01*
X-16513Y-292160D02*
X-15382Y-293290D01*
X-16513Y-292160D02*
Y-287047D01*
X-21160Y-282400D02*
X-16513Y-287047D01*
X-38750Y-282400D02*
X-21160D01*
X-41900Y-279250D02*
X-38750Y-282400D01*
X-41900Y-279250D02*
Y-267812D01*
X95257Y-229540D02*
X112928Y-211868D01*
X94567Y-230230D02*
X95257Y-229540D01*
X95257D01*
X-56200Y-136600D02*
X-24290D01*
X12060Y-82238D02*
X13817Y-83995D01*
X1318Y-82933D02*
X2064Y-83679D01*
X-5143Y-82933D02*
X1318D01*
X-7940Y-80136D02*
X-5143Y-82933D01*
X56509Y-176991D02*
X63460Y-170040D01*
X56300Y-176991D02*
X56509D01*
X71500Y8600D02*
X81470Y-1370D01*
X58940Y-200103D02*
X68000Y-191043D01*
X58940Y-200830D02*
Y-200103D01*
X191180Y-256540D02*
Y-225110D01*
X155957Y-291763D02*
X191180Y-256540D01*
X113850Y-289500D02*
X130557Y-306207D01*
Y-381092D02*
Y-306207D01*
X113850Y-289500D02*
Y-225400D01*
X155957Y-381092D02*
Y-291763D01*
X287680Y-380389D02*
Y-370869D01*
X287167Y-370355D02*
X287680Y-370869D01*
X287167Y-370355D02*
Y-368067D01*
X262040Y-352200D02*
X271300D01*
X287167Y-368067D01*
Y-380902D02*
X287680Y-380389D01*
X258680Y-377815D02*
X259179D01*
X264545Y-372450D02*
Y-368284D01*
X230720Y-352780D02*
X249040D01*
X259179Y-377815D02*
X264545Y-372450D01*
X249040Y-352780D02*
X264545Y-368284D01*
X258680Y-377815D02*
X261767Y-380902D01*
D65*
X-64940Y-293180D02*
D03*
Y-309180D02*
D03*
X-15302Y-309540D02*
D03*
Y-293540D02*
D03*
X-31822Y-309180D02*
D03*
Y-293180D02*
D03*
X-48240Y-309180D02*
D03*
Y-293180D02*
D03*
X-81822Y-309180D02*
D03*
Y-293180D02*
D03*
X-461770Y-413231D02*
D03*
Y-397231D02*
D03*
X-437573Y-413231D02*
D03*
Y-397231D02*
D03*
X-17305Y-83808D02*
D03*
Y-67808D02*
D03*
X-69820Y-36820D02*
D03*
Y-20820D02*
D03*
X-52380Y-36690D02*
D03*
Y-20690D02*
D03*
X21790Y-67349D02*
D03*
Y-83349D02*
D03*
X2100Y-67679D02*
D03*
Y-83679D02*
D03*
D69*
X-90559Y-183520D02*
D03*
X-74559D02*
D03*
X-74510Y-199930D02*
D03*
X-90510D02*
D03*
X-74869Y-167110D02*
D03*
X-90869D02*
D03*
X-74780Y-150590D02*
D03*
X-90780D02*
D03*
X38001Y-4310D02*
D03*
X54001D02*
D03*
X38001Y-21440D02*
D03*
X54001D02*
D03*
X-50001Y-195250D02*
D03*
X-34001D02*
D03*
Y-211342D02*
D03*
X-50001D02*
D03*
X105501Y-124404D02*
D03*
X121501D02*
D03*
X121500Y-140160D02*
D03*
X105500D02*
D03*
X-49999Y-149418D02*
D03*
X-33999D02*
D03*
X105501Y-108583D02*
D03*
X121501D02*
D03*
D72*
X-396530Y-421644D02*
D03*
Y-363224D02*
D03*
D134*
X81560Y356240D02*
D03*
X-9640Y356470D02*
D03*
X-99450Y356240D02*
D03*
D135*
X121160D02*
D03*
X29960Y356470D02*
D03*
X-59850Y356240D02*
D03*
D152*
X383674Y632767D02*
G03*
X672832Y-308053I-383674J-632767D01*
G01*
X733994Y94087D02*
G03*
X628784Y390167I-733994J-94087D01*
G01*
X740000Y0D02*
G03*
X733994Y94087I-740000J0D01*
G01*
X740000Y-0D02*
Y0D01*
X738612Y-45311D02*
G03*
X740000Y-0I-738612J45311D01*
G01*
X0Y-840000D02*
G03*
X0Y-840000I-0J840000D01*
G01*
D162*
X-659460Y73820D02*
X-652550Y66910D01*
X-659460Y73820D02*
Y84060D01*
X55964Y-488180D02*
X58113Y-486030D01*
X199550Y-530340D02*
Y-491888D01*
X58113Y-486030D02*
X193692D01*
X-95965Y-488180D02*
X55964D01*
X193692Y-486030D02*
X199550Y-491888D01*
X-202391Y-432304D02*
X-148665Y-486030D01*
X-98115D02*
X-95965Y-488180D01*
X-148665Y-486030D02*
X-98115D01*
X432240Y-351990D02*
Y262310D01*
X398230Y296320D02*
X432240Y262310D01*
X330030Y-454200D02*
X432240Y-351990D01*
X350970Y296320D02*
X398230D01*
X199550Y-530340D02*
X227150Y-557940D01*
X51360Y-476520D02*
X64180Y-463700D01*
X210206D02*
X220596Y-453310D01*
X64180Y-463700D02*
X210206D01*
X-152230Y-71960D02*
X-129140Y-48870D01*
Y-40745D01*
X-269930Y-71960D02*
X-152230D01*
X227150Y-557940D02*
X271170D01*
X-576613Y-319524D02*
X-459834Y-521790D01*
X-256300D02*
X-193890Y-584200D01*
X-459834Y-521790D02*
X-256300D01*
X-158374Y-432304D02*
X-128160Y-402090D01*
X-396530Y-421644D02*
X-299273D01*
X-288614Y-432304D01*
X-202391D01*
X-158374D01*
X330030Y-499080D02*
Y-454200D01*
X271170Y-557940D02*
X330030Y-499080D01*
X-141400Y-584200D02*
X-97420Y-628180D01*
X-193890Y-584200D02*
X-141400D01*
X-659460Y84060D02*
Y94300D01*
X433240Y231470D02*
X481500D01*
X355810Y279380D02*
X414000Y221190D01*
X341190Y-415940D02*
X414000Y-343130D01*
Y221190D01*
X226454Y-415940D02*
X341190D01*
X343460Y279380D02*
X355810D01*
X220596Y-421798D02*
X226454Y-415940D01*
X220596Y-453310D02*
Y-421798D01*
X302550Y-609280D02*
X406230Y-505600D01*
Y-431480D02*
X429860Y-407850D01*
X406230Y-505600D02*
Y-431480D01*
X-128160Y-402090D02*
X-101820D01*
X-54170Y-354440D02*
X6550D01*
X-101820Y-402090D02*
X-54170Y-354440D01*
X6550D02*
X23310Y-337680D01*
X39590Y-476520D02*
X51360D01*
X197730Y425110D02*
X343460Y279380D01*
X-588833Y-316249D02*
X-576613Y-319524D01*
X197730Y425110D02*
Y505700D01*
X184690Y547300D02*
X219850Y512140D01*
Y427440D02*
X350970Y296320D01*
X219850Y427440D02*
Y512140D01*
X-604095Y-265815D02*
X-581900Y-252879D01*
X-637941Y-88539D02*
X-581900Y-144580D01*
Y-252879D02*
Y-144580D01*
X-659103Y-88539D02*
X-637941D01*
X-300280Y-102310D02*
X-269930Y-71960D01*
X-300280Y-149080D02*
Y-102310D01*
X302810Y99670D02*
Y126850D01*
X290580Y87440D02*
X302810Y99670D01*
X84520Y87440D02*
X290580D01*
X174330Y529100D02*
X197730Y505700D01*
X-18550Y529100D02*
X174330D01*
X-24408Y534958D02*
X-18550Y529100D01*
X-24408Y534958D02*
Y546305D01*
X25397Y547300D02*
X184690D01*
X-25403D02*
X-24408Y546305D01*
X25490Y-476520D02*
X39590D01*
X23310Y-337680D02*
Y-299790D01*
X-659103Y42992D02*
X-658480Y42992D01*
X-659460Y94300D02*
X-658480Y94300D01*
X-659103Y-37231D02*
Y42992D01*
X-614487Y-271815D02*
X-604095Y-265815D01*
X-97420Y-628180D02*
X-74128D01*
X-68270Y-634038D01*
Y-658890D02*
Y-634038D01*
X-16962Y-658890D02*
Y-623740D01*
X-9502Y-616280D01*
X54770D01*
X61942Y-658898D02*
Y-623452D01*
X54770Y-616280D02*
X61942Y-623452D01*
X138390Y-609280D02*
X302550D01*
X538880Y-407850D02*
X590330Y-318737D01*
X429860Y-407850D02*
X538880D01*
X113250Y-658898D02*
Y-634420D01*
X138390Y-609280D01*
X626376Y-280303D02*
X672832Y-308053D01*
X615984Y-274303D02*
X626376Y-280303D01*
X-577365Y-539271D02*
X-552757Y-563880D01*
X-577365Y-539271D02*
Y-538028D01*
X-552757Y-565123D02*
Y-563880D01*
X-570353Y545685D02*
Y545891D01*
X-545618Y570627D02*
Y570833D01*
X-570353Y545891D02*
X-545618Y570627D01*
D163*
X245370Y310740D02*
Y331959D01*
X203060Y268430D02*
X245370Y310740D01*
X206540Y308820D02*
Y330630D01*
X176930Y279210D02*
X206540Y308820D01*
X124320Y448290D02*
X158220Y414390D01*
X52890Y448290D02*
X124320D01*
X33060Y428460D02*
X52890Y448290D01*
X-161960Y489440D02*
X-128560Y456040D01*
X143080D02*
X184660Y414460D01*
X-128560Y456040D02*
X143080D01*
X-23420Y475560D02*
X-11640Y463780D01*
X71070D02*
X93080Y485790D01*
X-11640Y463780D02*
X71070D01*
X-62810Y279210D02*
X176930D01*
X-52280Y268430D02*
X203060D01*
X158220Y362279D02*
X161149Y359350D01*
X158220Y362279D02*
Y414390D01*
X161149Y359350D02*
X184660D01*
Y384750D02*
Y414460D01*
X107210Y167211D02*
X108020Y168021D01*
X107210Y166940D02*
Y167211D01*
X108020Y168021D02*
Y229059D01*
X-10818Y174038D02*
X9400Y153820D01*
X94090D01*
X-10818Y174038D02*
Y195970D01*
X94090Y153820D02*
X107210Y166940D01*
X-10990Y258820D02*
X-10904Y258734D01*
Y196056D02*
X-10818Y195970D01*
X-10904Y196056D02*
Y258734D01*
X-82490Y238220D02*
X-52280Y268430D01*
X-83710Y258310D02*
X-62810Y279210D01*
X-55230Y428460D02*
X33060D01*
X79640Y495370D02*
X162700D01*
X75726Y491456D02*
X79640Y495370D01*
X75726Y481164D02*
Y491456D01*
X162700Y495370D02*
X172730Y505400D01*
X155810Y476870D02*
X172520Y460160D01*
X100930Y476870D02*
X155810D01*
X-207070Y-155480D02*
Y-119450D01*
X-360910Y-168250D02*
X-219840D01*
X-207070Y-155480D01*
X-82490Y173320D02*
Y238220D01*
X254950Y238100D02*
X364650D01*
X200160Y183310D02*
X254950Y238100D01*
X200160Y117610D02*
Y183310D01*
D164*
X580320Y140790D02*
X602560Y118550D01*
X532330Y149577D02*
Y239073D01*
Y149577D02*
X541117Y140790D01*
X580320D01*
X602560Y42482D02*
Y118550D01*
X532330Y239073D02*
X541117Y247860D01*
X572285D01*
X582250D01*
X602560Y42482D02*
X602560Y42482D01*
X602560Y-72610D02*
Y42482D01*
X602560Y42482D02*
X647100D01*
X602560Y-72610D02*
X618290Y-88340D01*
X647500D01*
X733697Y93790D02*
X733994Y94087D01*
X647100Y93790D02*
X733697D01*
X730332Y-37032D02*
X738612Y-45311D01*
X647500Y-37032D02*
X730332D01*
X740000Y-0D02*
X740000Y0D01*
D165*
X298960Y-477700D02*
D03*
X363230D02*
D03*
X184660Y384750D02*
D03*
X-163000Y-177100D02*
D03*
Y-42700D02*
D03*
X158750Y-178100D02*
D03*
X158370Y-44200D02*
D03*
D166*
X298960Y-452300D02*
D03*
X363230D02*
D03*
X184660Y359350D02*
D03*
X-163000Y-151700D02*
D03*
Y-126300D02*
D03*
Y-100900D02*
D03*
Y8100D02*
D03*
Y33500D02*
D03*
Y-17300D02*
D03*
X158750Y-101900D02*
D03*
Y-152700D02*
D03*
Y-127300D02*
D03*
X158370Y-18800D02*
D03*
Y32000D02*
D03*
Y6600D02*
D03*
D167*
X-164400Y-246000D02*
D03*
X-139000D02*
D03*
X316247Y-382000D02*
D03*
X265447D02*
D03*
X290847D02*
D03*
X155957D02*
D03*
X130557D02*
D03*
X181357D02*
D03*
D168*
X-113600Y-246000D02*
D03*
X240047Y-382000D02*
D03*
X105157D02*
D03*
D169*
X-7Y46990D02*
D03*
Y21590D02*
D03*
X50793Y46990D02*
D03*
X25393D02*
D03*
X-25407D02*
D03*
X-50807D02*
D03*
Y21590D02*
D03*
X-25407D02*
D03*
X25393D02*
D03*
X220596Y-504110D02*
D03*
Y-478710D02*
D03*
X245996D02*
D03*
X220596Y-453310D02*
D03*
X245996Y-504110D02*
D03*
X-272700Y478100D02*
D03*
Y503500D02*
D03*
X-247300Y452700D02*
D03*
Y503500D02*
D03*
Y478100D02*
D03*
X-25403Y547300D02*
D03*
X25397D02*
D03*
X-3D02*
D03*
X25397Y572700D02*
D03*
X-3D02*
D03*
X314600Y427300D02*
D03*
X340000D02*
D03*
Y452700D02*
D03*
X365400D02*
D03*
Y427300D02*
D03*
X272700Y452700D02*
D03*
X247300Y503500D02*
D03*
Y478100D02*
D03*
X272700D02*
D03*
Y503500D02*
D03*
X-365400Y427300D02*
D03*
X-340000Y452700D02*
D03*
Y427300D02*
D03*
X-314600Y452700D02*
D03*
Y427300D02*
D03*
D170*
X50793Y21590D02*
D03*
X-25403Y572700D02*
D03*
X314600Y452700D02*
D03*
X-365400D02*
D03*
D171*
X-455930Y-307340D02*
D03*
X-227330Y-459740D02*
D03*
X-252730D02*
D03*
X-405130D02*
D03*
X-455930D02*
D03*
X-227330Y-307340D02*
D03*
X-252730D02*
D03*
D172*
X84520Y87440D02*
D03*
D173*
X-95479D02*
D03*
X-75479D02*
D03*
X-55479D02*
D03*
X-35480D02*
D03*
X-15480D02*
D03*
X4520D02*
D03*
X24520D02*
D03*
X44520D02*
D03*
X64520D02*
D03*
X84522Y307438D02*
D03*
X64522D02*
D03*
X44522D02*
D03*
X24522D02*
D03*
X4522D02*
D03*
X-15478D02*
D03*
X-35478D02*
D03*
X-55478D02*
D03*
X-75478D02*
D03*
X-95478D02*
D03*
D174*
X878992Y235525D02*
D03*
X-235525Y878992D02*
D03*
X627852Y168232D02*
D03*
X168232Y627852D02*
D03*
X643467Y643467D02*
D03*
X235525Y878992D02*
D03*
Y-878992D02*
D03*
X643467Y-643467D02*
D03*
X459619Y-459619D02*
D03*
X878992Y-235525D02*
D03*
X-627852Y-168232D02*
D03*
X-643467Y-643467D02*
D03*
X-235525Y-878992D02*
D03*
X-168232Y-627852D02*
D03*
X-878992Y235525D02*
D03*
X-643467Y643467D02*
D03*
X-459619Y459619D02*
D03*
X-878992Y-235525D02*
D03*
D175*
X878992Y258385D02*
D03*
X856133Y235525D02*
D03*
X878992Y212665D02*
D03*
X901852Y235525D02*
D03*
X895157Y251690D02*
D03*
X862828D02*
D03*
Y219361D02*
D03*
X895157D02*
D03*
X-235525Y901852D02*
D03*
X-258385Y878992D02*
D03*
X-235525Y856133D02*
D03*
X-212665Y878992D02*
D03*
X-219361Y895157D02*
D03*
X-251690D02*
D03*
Y862828D02*
D03*
X-219361D02*
D03*
X627852Y191092D02*
D03*
X604992Y168232D02*
D03*
X627852Y145372D02*
D03*
X650712Y168232D02*
D03*
X644016Y184397D02*
D03*
X611687Y184397D02*
D03*
Y152068D02*
D03*
X644016Y152068D02*
D03*
X168232Y650712D02*
D03*
X145372Y627852D02*
D03*
X168232Y604992D02*
D03*
X191092Y627852D02*
D03*
X184397Y644016D02*
D03*
X152068Y644016D02*
D03*
X152068Y611687D02*
D03*
X184397Y611687D02*
D03*
X643467Y666327D02*
D03*
X620607Y643467D02*
D03*
X643467Y620607D02*
D03*
X666327Y643467D02*
D03*
X659632Y659632D02*
D03*
X627303D02*
D03*
Y627303D02*
D03*
X659632Y627303D02*
D03*
X235525Y901852D02*
D03*
X212665Y878992D02*
D03*
X235525Y856133D02*
D03*
X258385Y878992D02*
D03*
X251690Y895157D02*
D03*
X219361D02*
D03*
Y862828D02*
D03*
X251690D02*
D03*
X235525Y-856133D02*
D03*
X212665Y-878992D02*
D03*
X235525Y-901852D02*
D03*
X258385Y-878992D02*
D03*
X251690Y-862828D02*
D03*
X219361D02*
D03*
X219361Y-895157D02*
D03*
X251690D02*
D03*
X659632Y-659632D02*
D03*
X627303Y-659632D02*
D03*
Y-627303D02*
D03*
X659632Y-627303D02*
D03*
X666327Y-643467D02*
D03*
X643467Y-666327D02*
D03*
X620607Y-643467D02*
D03*
X643467Y-620607D02*
D03*
X459620Y-436759D02*
D03*
X436760Y-459619D02*
D03*
X459620Y-482479D02*
D03*
X482479Y-459619D02*
D03*
X475784Y-443455D02*
D03*
X443455Y-443455D02*
D03*
X443455Y-475784D02*
D03*
X475784Y-475784D02*
D03*
X878992Y-212665D02*
D03*
X856133Y-235525D02*
D03*
X878992Y-258385D02*
D03*
X901852Y-235525D02*
D03*
X895157Y-219361D02*
D03*
X862828D02*
D03*
Y-251690D02*
D03*
X895157D02*
D03*
X-627852Y-145372D02*
D03*
X-650712Y-168232D02*
D03*
X-627852Y-191092D02*
D03*
X-604992Y-168232D02*
D03*
X-611687Y-152068D02*
D03*
X-644016D02*
D03*
Y-184397D02*
D03*
X-611687D02*
D03*
X-627303Y-659632D02*
D03*
X-659632Y-659632D02*
D03*
X-659632Y-627303D02*
D03*
X-627303D02*
D03*
X-620607Y-643467D02*
D03*
X-643467Y-666327D02*
D03*
X-666327Y-643467D02*
D03*
X-643467Y-620607D02*
D03*
X-219361Y-895157D02*
D03*
X-251690Y-895157D02*
D03*
Y-862828D02*
D03*
X-219361Y-862828D02*
D03*
X-212665Y-878992D02*
D03*
X-235525Y-901852D02*
D03*
X-258385Y-878992D02*
D03*
X-235525Y-856133D02*
D03*
X-168232Y-604992D02*
D03*
X-191092Y-627852D02*
D03*
X-168232Y-650712D02*
D03*
X-145372Y-627852D02*
D03*
X-152068Y-611687D02*
D03*
X-184397D02*
D03*
Y-644016D02*
D03*
X-152068D02*
D03*
X-878992Y258385D02*
D03*
X-901852Y235525D02*
D03*
X-878992Y212665D02*
D03*
X-856133Y235525D02*
D03*
X-862828Y251690D02*
D03*
X-895157Y251690D02*
D03*
X-895157Y219361D02*
D03*
X-862828D02*
D03*
X-627303Y627303D02*
D03*
X-659632Y627303D02*
D03*
Y659632D02*
D03*
X-627303Y659632D02*
D03*
X-620607Y643467D02*
D03*
X-643467Y620607D02*
D03*
X-666327Y643467D02*
D03*
X-643467Y666327D02*
D03*
X-443455Y443455D02*
D03*
X-475784Y443455D02*
D03*
X-475784Y475784D02*
D03*
X-443455Y475784D02*
D03*
X-436759Y459619D02*
D03*
X-459619Y436759D02*
D03*
X-482479Y459619D02*
D03*
X-459619Y482480D02*
D03*
X-862828Y-251690D02*
D03*
X-895157D02*
D03*
X-895157Y-219361D02*
D03*
X-862828Y-219361D02*
D03*
X-856133Y-235525D02*
D03*
X-878992Y-258385D02*
D03*
X-901852Y-235525D02*
D03*
X-878992Y-212665D02*
D03*
D176*
X-420000Y727461D02*
D03*
X727461Y420000D02*
D03*
X840000Y0D02*
D03*
X0Y840000D02*
D03*
X420000Y727461D02*
D03*
Y-727461D02*
D03*
X727461Y-420000D02*
D03*
X0Y-840000D02*
D03*
X-840000Y0D02*
D03*
X-727461Y-420000D02*
D03*
X-420000Y-727461D02*
D03*
X-727461Y420000D02*
D03*
D177*
X-370000Y640859D02*
D03*
X370000Y-640859D02*
D03*
D178*
X245996Y-453310D02*
D03*
X-272700Y452700D02*
D03*
X247300D02*
D03*
D179*
X640859Y370000D02*
D03*
X-640859Y-370000D02*
D03*
D180*
X740000Y-0D02*
D03*
X-740000Y0D02*
D03*
D181*
X0Y740000D02*
D03*
X-0Y-740000D02*
D03*
D182*
X370000Y640859D02*
D03*
X-370000Y-640859D02*
D03*
D183*
X640859Y-370000D02*
D03*
X-640859Y370000D02*
D03*
D184*
X22990Y-327280D02*
D03*
Y-318170D02*
D03*
X23360Y-309000D02*
D03*
X18053Y-131995D02*
D03*
X-275180Y222110D02*
D03*
X-291860D02*
D03*
X-307940D02*
D03*
X-322790D02*
D03*
X-265790Y211420D02*
D03*
X-283700D02*
D03*
X-300380D02*
D03*
X-316020D02*
D03*
X-330000D02*
D03*
X581000Y184440D02*
D03*
Y203210D02*
D03*
Y194240D02*
D03*
X295190Y-168290D02*
D03*
X295090Y-151600D02*
D03*
X288820Y-125210D02*
D03*
X267800D02*
D03*
X308270Y-124950D02*
D03*
X320150Y-67250D02*
D03*
X278120Y-66730D02*
D03*
X295870Y-34490D02*
D03*
X798082Y83171D02*
D03*
X388082Y-216829D02*
D03*
X368082Y-256829D02*
D03*
X358082Y-276829D02*
D03*
X348082Y183172D02*
D03*
X338082Y163172D02*
D03*
X348082Y-256829D02*
D03*
X288082Y263172D02*
D03*
Y223172D02*
D03*
Y183172D02*
D03*
Y143172D02*
D03*
X258082Y203172D02*
D03*
X238082Y163172D02*
D03*
Y-436829D02*
D03*
X228082Y263172D02*
D03*
Y223172D02*
D03*
X208081Y263172D02*
D03*
X198081Y243172D02*
D03*
X208081Y223172D02*
D03*
X198081Y-436829D02*
D03*
X178081Y243172D02*
D03*
X188081Y183172D02*
D03*
X178081Y163172D02*
D03*
X188081Y143172D02*
D03*
X178081Y-236829D02*
D03*
X158082Y243172D02*
D03*
X168081Y223172D02*
D03*
X158082Y203172D02*
D03*
Y-76829D02*
D03*
Y-436829D02*
D03*
X148082Y223172D02*
D03*
X138082Y-436829D02*
D03*
X128082Y223172D02*
D03*
Y-16829D02*
D03*
X118082Y-436829D02*
D03*
X108082Y103171D02*
D03*
X68081Y223172D02*
D03*
X58081Y163172D02*
D03*
Y-236829D02*
D03*
Y-276829D02*
D03*
Y-396829D02*
D03*
X48081Y223172D02*
D03*
X38082Y163172D02*
D03*
Y43171D02*
D03*
Y-276829D02*
D03*
X48081Y-296829D02*
D03*
Y-336829D02*
D03*
X28082Y103171D02*
D03*
X18081Y-396829D02*
D03*
Y-556829D02*
D03*
X8081Y63171D02*
D03*
X-11919Y103171D02*
D03*
Y63171D02*
D03*
X-21919Y-156829D02*
D03*
X-31919Y223172D02*
D03*
Y103171D02*
D03*
X-51919D02*
D03*
Y63171D02*
D03*
X-71919Y103171D02*
D03*
Y63171D02*
D03*
X-91919Y103171D02*
D03*
Y63171D02*
D03*
X-141919Y43171D02*
D03*
X-131919Y23171D02*
D03*
Y-16829D02*
D03*
X-171919Y-56829D02*
D03*
X-181919Y-156829D02*
D03*
Y-196829D02*
D03*
Y-236829D02*
D03*
X-191919Y-176829D02*
D03*
Y-216829D02*
D03*
X-201919Y-236829D02*
D03*
X-211919Y-216829D02*
D03*
X-281919Y-196829D02*
D03*
X-291919Y-176829D02*
D03*
X-341919Y-276829D02*
D03*
X-331919Y-296829D02*
D03*
X-341919Y-316829D02*
D03*
X-331919Y-336829D02*
D03*
X-341919Y-356829D02*
D03*
X-331919Y-376829D02*
D03*
X-341919Y-396829D02*
D03*
Y-436829D02*
D03*
X-331919Y-456829D02*
D03*
X-361919Y-276829D02*
D03*
X-351919Y-296829D02*
D03*
X-361919Y-316829D02*
D03*
X-351919Y-336829D02*
D03*
X-361919Y-356829D02*
D03*
X-351919Y-376829D02*
D03*
X-361919Y-396829D02*
D03*
Y-436829D02*
D03*
X-351919Y-456829D02*
D03*
X-371919Y-376829D02*
D03*
X-381919Y-396829D02*
D03*
X-371919Y-456829D02*
D03*
X-401919Y-396829D02*
D03*
X-421919D02*
D03*
X-431919Y-376829D02*
D03*
X-451919D02*
D03*
X-471919D02*
D03*
X398082Y-336829D02*
D03*
X358082Y-376829D02*
D03*
X338082Y-336829D02*
D03*
X348082Y-356829D02*
D03*
X318082Y-136829D02*
D03*
X328082Y-396829D02*
D03*
X298082Y-56829D02*
D03*
X308082Y-76829D02*
D03*
X298082Y-96829D02*
D03*
Y-136829D02*
D03*
X288082Y-76829D02*
D03*
X278082Y-136829D02*
D03*
X268082Y-76829D02*
D03*
X258082Y-136829D02*
D03*
X218082Y-376829D02*
D03*
X108082Y-356829D02*
D03*
X38082Y383172D02*
D03*
X18081D02*
D03*
Y343172D02*
D03*
X-21919Y503172D02*
D03*
Y463172D02*
D03*
X-31919Y483172D02*
D03*
X-81919Y-336829D02*
D03*
X-101919D02*
D03*
X-141919Y-536829D02*
D03*
X-161919D02*
D03*
X-171919Y-516829D02*
D03*
X-181919Y-536829D02*
D03*
X-171919Y-556829D02*
D03*
X-201919Y-296829D02*
D03*
X-191919Y-516829D02*
D03*
X-201919Y-536829D02*
D03*
X-191919Y-556829D02*
D03*
X-221919Y-536829D02*
D03*
Y-576829D02*
D03*
X-241919Y-296829D02*
D03*
X-261919Y-336829D02*
D03*
Y-536829D02*
D03*
X-251919Y-556829D02*
D03*
X-281919Y183172D02*
D03*
Y143172D02*
D03*
Y63171D02*
D03*
Y23171D02*
D03*
Y-16829D02*
D03*
X-301919Y183172D02*
D03*
X-291919Y163172D02*
D03*
X-301919Y143172D02*
D03*
X-291919Y123172D02*
D03*
Y83171D02*
D03*
X-301919Y63171D02*
D03*
X-291919Y43171D02*
D03*
X-301919Y-16829D02*
D03*
X-321919Y183172D02*
D03*
Y143172D02*
D03*
X-311919Y123172D02*
D03*
Y83171D02*
D03*
X-321919Y63171D02*
D03*
X-331919Y123172D02*
D03*
Y83171D02*
D03*
X-491919Y283172D02*
D03*
X-531919Y323172D02*
D03*
X-541919Y303172D02*
D03*
Y263172D02*
D03*
Y223172D02*
D03*
X173220Y-511890D02*
D03*
Y-520720D02*
D03*
Y-529670D02*
D03*
X182740D02*
D03*
Y-520720D02*
D03*
Y-511890D02*
D03*
X171260Y-551790D02*
D03*
X180090D02*
D03*
X189040D02*
D03*
Y-561310D02*
D03*
X180090D02*
D03*
X171260D02*
D03*
X-498013Y240125D02*
D03*
X-446160Y192910D02*
D03*
X-430760Y191960D02*
D03*
X-485000Y-40110D02*
D03*
X-464310Y-39950D02*
D03*
X-474920Y-39940D02*
D03*
X-485000Y-5420D02*
D03*
X-464640Y-5260D02*
D03*
X-474920Y-5250D02*
D03*
X-57360Y-94910D02*
D03*
X-10071Y-167847D02*
D03*
X-57360Y-106800D02*
D03*
X96400Y-95354D02*
D03*
X102460Y-87990D02*
D03*
X-131230Y-554560D02*
D03*
Y-564090D02*
D03*
X-130920Y-573920D02*
D03*
X-146400Y-569020D02*
D03*
X-120570Y-573700D02*
D03*
X-120880Y-563870D02*
D03*
Y-554340D02*
D03*
X-83410Y-478680D02*
D03*
X-48240Y-451870D02*
D03*
X68110Y-475780D02*
D03*
X-652550Y66300D02*
D03*
X-659460Y84060D02*
D03*
X-554720Y-299140D02*
D03*
Y-288385D02*
D03*
Y-277630D02*
D03*
X-246620Y356250D02*
D03*
X-246450Y345870D02*
D03*
X-391510Y353270D02*
D03*
X-346390Y115510D02*
D03*
X356060Y-241820D02*
D03*
X24020Y-193060D02*
D03*
X105430Y-341750D02*
D03*
X313170Y-328080D02*
D03*
X295310Y-328210D02*
D03*
X190820Y-357230D02*
D03*
X169680Y-356310D02*
D03*
X143160Y-356180D02*
D03*
X222590Y-363130D02*
D03*
X353340Y-337800D02*
D03*
X255090Y256690D02*
D03*
X255980Y215050D02*
D03*
X256430Y181280D02*
D03*
X334650Y182880D02*
D03*
X50260Y258330D02*
D03*
X-32640Y196860D02*
D03*
X-31810Y257560D02*
D03*
X-102810Y-347270D02*
D03*
X66850Y487220D02*
D03*
X154640Y330849D02*
D03*
X245370Y332230D02*
D03*
X206540Y330630D02*
D03*
X347260Y-212210D02*
D03*
X215790Y-231210D02*
D03*
X282590Y-253650D02*
D03*
X396790Y-228690D02*
D03*
X-66450Y-501510D02*
D03*
X-184360Y-299090D02*
D03*
X-51560Y-416740D02*
D03*
X-57360Y-440780D02*
D03*
X-138244Y511370D02*
D03*
X422310Y231210D02*
D03*
X345400Y-33520D02*
D03*
Y-57450D02*
D03*
Y-90120D02*
D03*
Y-116230D02*
D03*
Y-150000D02*
D03*
Y-162270D02*
D03*
Y-102230D02*
D03*
Y-45670D02*
D03*
Y-173000D02*
D03*
X353920D02*
D03*
X242810Y-33900D02*
D03*
Y-58050D02*
D03*
Y-89340D02*
D03*
Y-116470D02*
D03*
Y-148710D02*
D03*
Y-46010D02*
D03*
Y-102850D02*
D03*
Y-160670D02*
D03*
X242870Y-171820D02*
D03*
X234020D02*
D03*
X-346390Y102180D02*
D03*
Y160040D02*
D03*
Y147780D02*
D03*
Y89040D02*
D03*
Y59770D02*
D03*
Y32100D02*
D03*
Y46630D02*
D03*
Y173050D02*
D03*
X-199930Y207380D02*
D03*
Y219840D02*
D03*
Y194980D02*
D03*
X-191550Y207180D02*
D03*
Y219640D02*
D03*
Y194780D02*
D03*
X-246050Y103770D02*
D03*
Y160240D02*
D03*
Y89890D02*
D03*
Y172700D02*
D03*
Y115960D02*
D03*
Y147840D02*
D03*
Y45600D02*
D03*
Y58620D02*
D03*
Y31750D02*
D03*
X-264350Y369990D02*
D03*
X-252290Y377860D02*
D03*
X-503660Y397760D02*
D03*
X-486564D02*
D03*
X-478016D02*
D03*
X-204210Y410810D02*
D03*
X-204290Y418380D02*
D03*
X-211950Y397120D02*
D03*
X-212030Y404210D02*
D03*
X-407190Y188450D02*
D03*
X-417765Y233465D02*
D03*
X-435900Y242260D02*
D03*
X-365510Y234480D02*
D03*
X-407240Y311870D02*
D03*
X-435740Y270850D02*
D03*
X-426020Y316370D02*
D03*
X-474920Y-13120D02*
D03*
X-464310Y-13130D02*
D03*
X-485000Y-13290D02*
D03*
Y-22260D02*
D03*
X-474920Y-22090D02*
D03*
X-464310Y-22100D02*
D03*
X-485000Y-31890D02*
D03*
X-474920Y-32170D02*
D03*
X-464490Y-31890D02*
D03*
X570900Y184440D02*
D03*
X560820D02*
D03*
X570900Y194240D02*
D03*
X560820D02*
D03*
Y203210D02*
D03*
X570900D02*
D03*
X572285Y247860D02*
D03*
X582250D02*
D03*
X562320D02*
D03*
X417895Y251675D02*
D03*
X-38680Y-37920D02*
D03*
X-54252Y-10593D02*
D03*
X482200Y230770D02*
D03*
X-389410Y-223830D02*
D03*
X-425010Y-225920D02*
D03*
X-429950Y-248990D02*
D03*
X2850Y-34630D02*
D03*
X232140Y-204280D02*
D03*
X251040Y-204080D02*
D03*
X283780Y-212030D02*
D03*
X313390Y-203490D02*
D03*
X-91770Y35410D02*
D03*
X232400Y-293700D02*
D03*
X8130Y-249710D02*
D03*
X-82270Y-260270D02*
D03*
X-199560Y-226270D02*
D03*
X-227070Y-145110D02*
D03*
X-196990Y-160910D02*
D03*
X101960Y435130D02*
D03*
X144600Y406880D02*
D03*
X227410Y187770D02*
D03*
X227760Y236350D02*
D03*
X344550Y210390D02*
D03*
X344840Y223600D02*
D03*
X344670Y250160D02*
D03*
X468320Y-186420D02*
D03*
X55450Y-39910D02*
D03*
X128450Y28280D02*
D03*
X115350Y42660D02*
D03*
X-3900Y-98060D02*
D03*
X11540Y-104180D02*
D03*
X6287Y-132360D02*
D03*
X31150Y-210890D02*
D03*
X53820Y-192710D02*
D03*
X39988Y-210679D02*
D03*
X15720Y-186520D02*
D03*
X-5980Y-255140D02*
D03*
X14930Y-261680D02*
D03*
X47520Y-180170D02*
D03*
X51943Y-153547D02*
D03*
X24023Y-181237D02*
D03*
X-67190Y-135780D02*
D03*
X-43090Y-107150D02*
D03*
X-110530Y34902D02*
D03*
X-93130Y23660D02*
D03*
X-110530Y26770D02*
D03*
X-81400Y46150D02*
D03*
X21320Y444420D02*
D03*
X-535858Y203908D02*
D03*
X-476800Y192640D02*
D03*
X-536600Y251967D02*
D03*
X-488590Y333150D02*
D03*
X-25180Y440630D02*
D03*
X-174970Y458300D02*
D03*
X-61130Y513050D02*
D03*
X72740Y-251770D02*
D03*
X3400Y-49640D02*
D03*
X78610Y-116990D02*
D03*
X-107550Y-211780D02*
D03*
X-115350Y-220260D02*
D03*
X-105760Y-147130D02*
D03*
Y-119372D02*
D03*
Y-86810D02*
D03*
X397230Y-240150D02*
D03*
X346860Y-231340D02*
D03*
X366900Y-241620D02*
D03*
X282450Y-231220D02*
D03*
X302810Y126850D02*
D03*
X312500Y273780D02*
D03*
X13510Y11880D02*
D03*
X-10990Y258820D02*
D03*
X-10818Y195970D02*
D03*
X107210Y166940D02*
D03*
X108020Y229330D02*
D03*
X-129140Y-40745D02*
D03*
X-300280Y-149080D02*
D03*
X6230Y516210D02*
D03*
X39590Y-476520D02*
D03*
X-12450Y-419120D02*
D03*
X51460Y-476420D02*
D03*
X25490Y-476520D02*
D03*
X-192640Y486970D02*
D03*
X-186530Y475700D02*
D03*
X-144830Y-476430D02*
D03*
X-23420Y475560D02*
D03*
X93080Y485790D02*
D03*
X100930Y476870D02*
D03*
X75726Y481164D02*
D03*
X-207070Y-119450D02*
D03*
X-659460Y73820D02*
D03*
X-237530Y32010D02*
D03*
Y58880D02*
D03*
X-355310Y173320D02*
D03*
Y46900D02*
D03*
Y32370D02*
D03*
X-237530Y45860D02*
D03*
X-360910Y-168250D02*
D03*
X-237530Y148100D02*
D03*
Y116220D02*
D03*
X-355310Y60040D02*
D03*
X-237530Y172960D02*
D03*
Y90150D02*
D03*
Y160500D02*
D03*
Y104030D02*
D03*
X-355310Y89310D02*
D03*
Y148050D02*
D03*
Y115780D02*
D03*
Y160310D02*
D03*
Y102450D02*
D03*
X-55230Y428460D02*
D03*
X50260Y400610D02*
D03*
X353920Y-45670D02*
D03*
Y-102230D02*
D03*
Y-162270D02*
D03*
X233960Y-160670D02*
D03*
Y-102850D02*
D03*
Y-46010D02*
D03*
X-133000Y542990D02*
D03*
X-122480Y565750D02*
D03*
X-485700Y278460D02*
D03*
X-495200Y263970D02*
D03*
X-460920Y397760D02*
D03*
X-469468D02*
D03*
X-495112D02*
D03*
X-241290Y378010D02*
D03*
X-211950Y411370D02*
D03*
Y418460D02*
D03*
X37130Y447030D02*
D03*
X353920Y-150000D02*
D03*
Y-116230D02*
D03*
Y-90120D02*
D03*
Y-57450D02*
D03*
Y-33520D02*
D03*
X233960Y-148710D02*
D03*
Y-116470D02*
D03*
Y-89340D02*
D03*
Y-58050D02*
D03*
Y-33900D02*
D03*
X23310Y-299790D02*
D03*
X-161960Y489440D02*
D03*
X172520Y460160D02*
D03*
X172730Y505400D02*
D03*
X-82490Y173320D02*
D03*
X-83710Y258310D02*
D03*
X111890Y25790D02*
D03*
X130480Y41460D02*
D03*
X139619Y52251D02*
D03*
X164190Y154400D02*
D03*
X149862Y46230D02*
D03*
X-92840Y45600D02*
D03*
X-120969Y-60789D02*
D03*
X-114850Y-41670D02*
D03*
X-55290Y-125480D02*
D03*
X115950Y52310D02*
D03*
X78530Y-124520D02*
D03*
X45990Y-147797D02*
D03*
X-20650Y-205810D02*
D03*
X-21330Y-214800D02*
D03*
X47350Y-172000D02*
D03*
X24980Y-167630D02*
D03*
X18760Y-173380D02*
D03*
X52610Y434620D02*
D03*
X29540Y471020D02*
D03*
X-105820Y-199660D02*
D03*
Y-187590D02*
D03*
Y-172730D02*
D03*
X66250Y-4515D02*
D03*
X70460Y-20940D02*
D03*
X364650Y238100D02*
D03*
X-447980Y331030D02*
D03*
X-345420Y317940D02*
D03*
X-402150Y273150D02*
D03*
X-435190Y398930D02*
D03*
X-466840Y289350D02*
D03*
X-56200Y-136600D02*
D03*
X-32800Y-106800D02*
D03*
X70000Y-31500D02*
D03*
X-48440Y-119840D02*
D03*
X-17520Y-56930D02*
D03*
X20650Y-56680D02*
D03*
X-7700Y-135000D02*
D03*
X56300Y-176991D02*
D03*
X58940Y-200830D02*
D03*
X-25700Y1580D02*
D03*
X-63240Y-48070D02*
D03*
X-43565Y-48510D02*
D03*
X47650Y-200530D02*
D03*
X89960Y-157570D02*
D03*
X86510Y-135800D02*
D03*
X71500Y8600D02*
D03*
Y24200D02*
D03*
X-25600Y-170491D02*
D03*
X-21100Y-176500D02*
D03*
X-24100Y-146400D02*
D03*
X-60900Y-143900D02*
D03*
X37200Y-38300D02*
D03*
X16287Y-250000D02*
D03*
X-35700Y174400D02*
D03*
X-36300Y236600D02*
D03*
X50100Y239100D02*
D03*
X50200Y176600D02*
D03*
X200160Y117610D02*
D03*
X191180Y-225110D02*
D03*
X-92230Y-478480D02*
D03*
X17703Y-374025D02*
D03*
Y-364769D02*
D03*
Y-383319D02*
D03*
X82630Y-430320D02*
D03*
X-119000Y-384990D02*
D03*
Y-366440D02*
D03*
Y-375696D02*
D03*
X-35410Y-339930D02*
D03*
X-67310Y-387220D02*
D03*
X-56950Y-426050D02*
D03*
X-181860Y-333710D02*
D03*
X-181830Y-415680D02*
D03*
X230720Y-352780D02*
D03*
X262040Y-352200D02*
D03*
X113850Y-225400D02*
D03*
D185*
X-460590Y264610D02*
D03*
X-471590Y253610D02*
D03*
Y264610D02*
D03*
X-460590Y253610D02*
D03*
D186*
X-74900Y-242012D02*
D03*
X-18900D02*
D03*
D187*
X-61900Y-267812D02*
D03*
X-51900D02*
D03*
X-31900D02*
D03*
X-41900D02*
D03*
D188*
X647500Y-37032D02*
D03*
Y-88340D02*
D03*
X647100Y93790D02*
D03*
Y42482D02*
D03*
D189*
X537450Y-64174D02*
D03*
X536610Y66068D02*
D03*
X-550000Y-62000D02*
D03*
X-549820Y70430D02*
D03*
D190*
X752474Y130224D02*
D03*
X802474D02*
D03*
X761716Y64182D02*
D03*
X811716D02*
D03*
D191*
X-545618Y570833D02*
D03*
X-580973Y606189D02*
D03*
X-534998Y510329D02*
D03*
X-570353Y545685D02*
D03*
D192*
X507361Y-242660D02*
D03*
D193*
X615984Y-274303D02*
D03*
X590330Y-318737D02*
D03*
D194*
X85628Y-549758D02*
D03*
X-44014Y-549380D02*
D03*
D195*
X113250Y-658898D02*
D03*
X61942D02*
D03*
X-68270Y-658890D02*
D03*
X-16962D02*
D03*
D196*
X-507543Y-238182D02*
D03*
D197*
X-588833Y-316249D02*
D03*
X-614487Y-271815D02*
D03*
D198*
X-659103Y-37231D02*
D03*
Y-88539D02*
D03*
X-658480Y94300D02*
D03*
Y42992D02*
D03*
D199*
X-577365Y-538028D02*
D03*
X-612721Y-573383D02*
D03*
X-517402Y-529768D02*
D03*
X-552757Y-565123D02*
D03*
M02*
