M48
;Layer_Color=9339205
;FILE_FORMAT=4:2
METRIC,TZ
;TYPE=PLATED
T01F00S00C0.50
T02F00S00C0.70
T03F00S00C0.80
T04F00S00C0.86
T05F00S00C0.90
T06F00S00C1.02
T07F00S00C1.65
T08F00S00C2.00
T09F00S00C3.18
%
T01
X1713Y-5613
X1806
Y-5518
X1713
X1905
Y-5613
X1827Y-5297
Y-5198
Y-5097
X1730Y-5099
Y-5204
Y-5303
X1696Y-4311
X1506Y-4309
X1304Y-4310
X1431Y-3568
X1731
X1908Y-3572
X2226Y-3631
X2307Y-3528
X2620Y-3522
X2953Y-3282
X3132Y-3281
X3555Y-3255
X3533Y-3378
X3531Y-3568
X3568Y-3725
X3962Y-3232
X4019Y-2407
X3965Y-2256
X3669Y-2416
X3561Y-2418
X3565Y-2550
X3435Y-2400
X2819Y-2395
X2826Y-2536
X2828Y-2245
X2949Y-2049
X3142
X2516Y-2045
X2320Y-2049
X2125Y-2726
X2321Y-2985
X1731Y-2858
X1541Y-2689
X1500Y-2993
X1519Y-2313
X1712Y-2340
X1185Y-2372
X2181Y-3868
X1131Y-3568
X1054Y-3417
X568Y-3399
X469Y-3402
X518Y-3311
X420Y-3311
X623Y-3310
X232Y-3283
Y-3178
Y-3074
Y-2971
X151Y-2618
X128Y-2502
X29Y-2503
X-52Y-2557
X-178Y-2603
X-215Y-2157
X-137Y-2072
X113Y-2092
X243Y-2104
X400Y-2107
X390Y-2012
X512Y-2010
X770Y-2206
X880Y-2201
X927Y-2283
X1022Y-2285
X1128Y-2246
X779Y-2532
X632Y-2848
X166Y-3649
X167Y-3750
X165Y-3847
X-125Y-4191
X-516Y-4167
X-570Y-4260
X-574Y-4408
X-482Y-4519
X-825Y-4749
X-921
X-658Y-5036
X-1209Y-5524
Y-5629
X-1312Y-5631
Y-5527
X-1309Y-5739
X-1206Y-5737
X-1464Y-5690
X-1719Y-5668
X-1569Y-5368
X-1869
X-2169
X-2319Y-5668
X-1719Y-5068
X-1465Y-4731
X-1719Y-4468
X-1818Y-4157
X-1817Y-3341
X-1844Y-2991
X-2046Y-2994
X-2403Y-3189
X-2599Y-3338
X-2275Y-2546
X-1205Y-2206
X-1096Y-2117
X-1053Y-1992
X-823Y-2603
X-1028Y-3473
X-1190Y-3664
X-1189Y-3758
X-1190Y-3850
X-673Y-3882
X-354Y-3393
X255Y-4765
X396
X515Y-4764
X681Y-4758
X826Y-4303
X-3369Y-4468
X-3669
Y-3868
X-3369
X-3519Y-3568
X-3369Y-3268
X-3669
X-3969
X-4269
X-4419Y-3568
X-4269Y-3868
X-3969
X-4569
X-4300Y-2490
X-4250Y-2259
X-3894Y-2238
X-3819Y-2968
X-3519
X-5547Y-2991
Y-2884
Y-2776
X-3609Y-1683
X-3003Y-1491
X-2948Y335
X-2956Y586
X-2956Y852
X-2814Y751
X-3093Y746
X-3466Y672
Y540
Y395
X-3553Y324
Y469
Y600
Y893
Y1024
Y1158
X-3464Y1219
Y1086
Y955
X-3462Y1547
Y1669
Y1799
X-3553Y1733
Y1603
Y1481
X-3106Y1313
X-2963Y1411
X-2957Y1599
X-2964Y1783
X-3168Y1794
X-2964Y1212
X-2825Y1313
X-4072Y1884
X-4308Y1920
X-4455Y1917
X-4768Y1926
X-4749Y-53
X-4850Y-54
Y-167
X-4749Y-165
X-4643Y-165
X-4646Y-53
X-4647Y-278
X-4751Y-278
X-4852Y-280
Y-393
X-4751Y-391
X-4645Y-391
X-6525Y663
X-6595Y738
Y841
X-2443Y968
Y1107
Y1229
X-2350Y1165
Y1043
Y904
X-2350Y586
Y456
Y317
X-2443Y387
Y525
Y655
X-1719Y632
X-1419
X-819
X-809Y478
X-934Y470
X-935Y375
X-903Y217
X-1019Y249
X-1088Y314
X-669Y332
X-519Y632
X-124Y344
X-251Y24
X-553Y-110
X-398Y-385
X-434Y-493
X-644Y-501
X-574Y-949
Y-1068
X-431Y-1072
X-328Y-1068
X-471Y-1188
X-545Y-1255
X-601Y-1345
X-595Y-1440
X-711Y-1348
X-1058Y-1471
X-1040Y-1720
X-1049Y-1873
X-1058Y-1194
Y-868
X-1216Y-601
X-1148Y-417
X-1291Y-407
X-175Y-568
X36Y-500
X28Y-346
X361Y-382
X505Y-390
X700Y-315
X705Y-209
X662Y-45
X714Y100
X707Y220
X1124Y251
X1135Y363
X1153Y499
X371Y341
X135Y119
X207Y-567
X115Y-1042
X-39Y-981
X-80Y-1334
X68Y-1362
X220Y-1303
X544Y-1387
X482Y-1464
X553Y-1536
X485Y-1740
X540Y-1818
X554Y-1911
X442Y-1877
X172Y-1945
X124Y-1810
X197Y-1740
X-95Y-1724
X-184Y-1792
X-245Y-1696
X-133Y-1602
X-200Y-1511
X899Y-1580
X865Y-1358
X849Y-1248
X847Y-1145
X896Y-965
X994Y-925
X1023Y-814
X1015Y-1733
X1011Y-1852
X-1840Y-1916
X-2019Y-1768
X-1970Y-1609
X-2271Y-1451
X-2071Y-1194
X-2349Y1480
Y1604
Y1728
X-2443Y1672
Y1548
Y1796
X-2745Y1783
X-1930Y1975
X-825Y1733
X-357Y1744
X-326Y1969
X-108Y1960
X499Y1903
X499Y1770
X1072Y1669
X1640Y1648
X1642Y1544
X1881Y1832
X2274Y1878
X2564Y1813
X3337Y1890
X2985Y1247
X2002Y1176
X1449Y529
X1379Y465
X1293Y422
X1281Y308
X2340Y-339
Y-460
Y-580
X2421Y-522
Y-402
Y-281
X2729Y-270
X2945Y-276
X2952Y-459
X2947Y-647
X2946Y-847
X3084Y-746
X2803Y-746
X2421Y-835
Y-970
Y-1106
X2340Y-1165
Y-1028
Y-893
Y-1487
Y-1607
X2340Y-1718
X2422Y-1660
X2421Y-1548
Y-1429
X2816Y-1313
X2953Y-1206
X3095Y-1307
X2953Y-1473
X2962Y-1724
X3462Y-1665
Y-1558
Y-1435
X3555Y-1499
Y-1621
Y-1729
Y-1161
Y-1021
Y-900
X3462Y-958
Y-837
Y-1098
Y-510
Y-392
Y-271
X3555Y-334
Y-455
Y-573
X3165Y-276
X4722Y-1867
X5514Y1871
X5611
X5709
X5806
X5797Y1968
X5702
X5606
X5511
X5516Y2066
X5607
X5698
X5789
X5822Y2479
X5723
X5623
X4822Y2308
X4217Y2296
X4179Y2517
X3638Y2379
X3336Y2338
X3337Y2189
Y2040
X3228Y2244
X3337Y2487
X3125Y2738
X2654Y2947
X2551Y2567
X2331Y2732
X2278Y2364
X1881Y2432
X1581
X1546Y3308
X2065Y3306
X2454Y3322
X2560Y2147
X1446Y4069
X1725Y4594
X1727Y5054
X2631Y5132
X931Y4858
X1026Y4763
X757Y4812
X668Y4872
X295Y4718
X371Y4470
X204Y4460
X523Y4330
X503Y4006
X1000Y4351
X-252Y4406
X-234Y4756
X62Y5162
X-611Y5131
X-1382Y5114
X-1330Y5430
X-1218Y5531
X-1626Y4926
X-1922Y4870
X-1851Y4742
X-1750Y4583
X-2006Y4188
X-2005Y4094
X-2127Y4095
X-2126Y4188
X-2069Y4010
X-2413Y3780
X-2522Y3778
X-2643Y3700
X-2466Y3562
X-2465Y3459
X-2752Y2221
X-2658Y2114
X-2018Y2164
Y2040
X-1930Y2099
Y2223
X-1927Y2338
X-2018Y2288
X-837Y2583
X-327Y2580
X-110Y2588
X-350Y2366
X495Y2391
X500Y2240
X503Y2583
X1080Y2293
X-552Y4285
X-3454Y3179
X-4072Y3119
X-4260Y3164
X-4480Y3310
X-4719Y3332
X-4886Y3331
X-5319Y3332
X-5366Y2520
X-5359Y2039
X-4979Y2402
X-4952Y2631
X-4857Y2785
X-4716Y2646
X-4606
Y2536
X-4716
X-4678Y2901
X-4357Y2708
X-4355Y2419
X-4178Y2335
X-3655Y2345
X-3228Y2221
X-3079
X-2919
X-2837Y2114
X-3004
X-3160
X-3300
X-4026Y2730
X-3915Y3533
X-4352Y3989
X-4609Y3978
X-4716
X-4823
X-4930Y3978
X-5037Y3978
T02
X-6596Y-6596
X-6663Y-6435
X-6596Y-6273
X-6435Y-6206
X-6273Y-6273
X-6206Y-6435
X-6273Y-6596
X-6435Y-6663
X-1844Y-6440
X-1911Y-6279
X-1844Y-6117
X-1682Y-6050
X-1521Y-6117
X-1454Y-6279
X-1521Y-6440
X-1682Y-6507
X-2194Y-8628
X-2355Y-8561
X-2517Y-8628
X-2584Y-8790
X-2517Y-8952
X-2355Y-9019
X-2194Y-8952
X-2127Y-8790
X2127
X2194Y-8952
X2355Y-9019
X2517Y-8952
X2584Y-8790
X2517Y-8628
X2355Y-8561
X2194Y-8628
X6273Y-6596
X6206Y-6435
X6273Y-6273
X6435Y-6206
X6596Y-6273
X6663Y-6435
X6596Y-6596
X6435Y-6663
X8628Y-2517
X8561Y-2355
X8628Y-2194
X8790Y-2127
X8952Y-2194
X9019Y-2355
X8952Y-2517
X8790Y-2584
X4758Y-4435
X4825Y-4596
X4758Y-4758
X4596Y-4825
X4435Y-4758
X4368Y-4596
X4435Y-4435
X4596Y-4368
X-8628Y-2517
X-8790Y-2584
X-8952Y-2517
X-9019Y-2355
X-8952Y-2194
X-8790Y-2127
X-8628Y-2194
X-8561Y-2355
X-6440Y-1844
X-6507Y-1682
X-6440Y-1521
X-6279Y-1454
X-6117Y-1521
X-6050Y-1682
X-6117Y-1844
X-6279Y-1911
X6117Y1521
X6050Y1682
X6117Y1844
X6279Y1911
X6440Y1844
X6507Y1682
X6440Y1521
X6279Y1454
X8628Y2194
X8790Y2127
X8952Y2194
X9019Y2355
X8952Y2517
X8790Y2584
X8628Y2517
X8561Y2355
X-4435Y4435
X-4596Y4368
X-4758Y4435
X-4825Y4596
X-4758Y4758
X-4596Y4825
X-4435Y4758
X-4368Y4596
X-8628Y2517
X-8790Y2584
X-8952Y2517
X-9019Y2355
X-8952Y2194
X-8790Y2127
X-8628Y2194
X-8561Y2355
X-6596Y6273
X-6663Y6435
X-6596Y6596
X-6435Y6663
X-6273Y6596
X-6206Y6435
X-6273Y6273
X-6435Y6206
X-2517Y8628
X-2584Y8790
X-2517Y8952
X-2355Y9019
X-2194Y8952
X-2127Y8790
X-2194Y8628
X-2355Y8561
X2194Y8628
X2355Y8561
X2517Y8628
X2584Y8790
X2517Y8952
X2355Y9019
X2194Y8952
X2127Y8790
X1844Y6440
X1682Y6507
X1521Y6440
X1454Y6279
X1521Y6117
X1682Y6050
X1844Y6117
X1911Y6279
X6273Y6273
X6435Y6206
X6596Y6273
X6663Y6435
X6596Y6596
X6435Y6663
X6273Y6596
X6206Y6435
T03
X-955Y874
X-755
X-555
X-355
X-155
X45
X245
X445
X645
X845
X845Y3074
X645
X445
X245
X45
X-155
X-355
X-555
X-755
X-955
T04
X1306Y-3820
X1560
X1814
X2400
X2654
X2908
X3162
X2990Y-4523
Y-4777
X3632
Y-4523
X1052Y-3820
X-1136Y-2460
X-1390
X-1644
X-1630Y-1771
Y-1517
Y-1263
Y-1009
Y-427
Y-173
Y81
Y335
X1584Y320
Y66
Y-188
Y-442
X1588Y-1019
Y-1273
Y-1527
Y-1781
X1847Y3594
Y3848
T05
X-2527Y-4597
X-2273
Y-3073
X-2527
X-4559
Y-4597
X-4051
T06
X2206Y-5041
Y-4787
X2460
Y-4533
X2206
X2460Y-5041
X508Y216
Y470
X254
X-0
Y216
X-254
Y470
X-508
Y216
X254
X2473Y4527
Y4781
X2727
Y5035
X2473
X2727Y4527
X3146
X3400
X3654
Y4273
X3400
X3146
X254Y5473
X-0
X-254
Y5727
X-0
X254
X-2473Y5035
Y4781
Y4527
X-2727
Y4781
Y5035
X-3146Y4527
X-3400
X-3654
Y4273
X-3400
X-3146
T07
X1212Y3562
X816
X300Y3565
X-96
X-599Y3562
X-994
T08
X-4200Y-7275
X-3700Y-6409
X-0Y-7400
X0Y-8400
X4200Y-7275
X3700Y-6409
X6409Y-3700
X7275Y-4200
X-6409Y-3700
X-7275Y-4200
X-7400Y0
X-8400Y0
X7400Y-0
X8400Y0
X7275Y4200
X6409Y3700
X-6409Y3700
X-7275Y4200
X-3700Y6409
X-4200Y7275
X0Y7400
X0Y8400
X4200Y7275
X3700Y6409
T09
X-6435Y-6435
X-1682Y-6279
X-2355Y-8790
X2355
X6435Y-6435
X8790Y-2355
X4596Y-4596
X-8790Y-2355
X-6279Y-1682
X6279Y1682
X8790Y2355
X-4596Y4596
X-8790Y2355
X-6435Y6435
X-2355Y8790
X2355
X1682Y6279
X6435Y6435
M30
